<svg width="32" height="32" viewBox="0 0 32 32" fill="none" xmlns="http://www.w3.org/2000/svg">
<path d="M0 16C0 24.8365 7.16344 32 16 32C24.8365 32 32 24.8365 32 16C32 7.16344 24.8365 0 16 0C7.16344 0 0 7.16344 0 16Z" fill="#2A4498"/>
<g clip-path="url(#clip0)">
<path fill-rule="evenodd" clip-rule="evenodd" d="M10.8142 13.8729L10.4244 13.0108L10.0954 13.0126L9.6269 13.8732L10.8142 13.8729ZM10.1397 12.8215L10.3667 12.8239L10.2716 12.5701L10.1397 12.8215ZM11.5846 12.9955L11.412 13.8944L22.7163 13.8973L22.396 12.9967H22.0628L21.8528 13.2416L21.6183 12.9967L11.5846 12.9955ZM13.2463 11.9236L12.6754 10.8189L12.2629 10.8178L11.6009 11.9196L13.2463 11.9236ZM22.3631 12.8621L22.2319 12.5107L22.0962 12.8621H22.3631ZM18.6214 10.6916V9.63535H18.3517V9.30036L16.916 9.29897V9.63716H16.6776L16.597 9.88409L16.3827 9.53257L15.9926 10.4002H15.7801L15.8408 10.1703L15.4679 9.29466L15.2611 9.29633L14.8511 10.1748L14.9 10.4002H14.7396L14.8436 10.6906L18.6214 10.6916ZM15.3622 8.97217L15.2902 9.14717H15.4376L15.3622 8.97217ZM18.3517 9.18189V8.65482L18.5438 8.24219L18.3517 8.04192V7.57207H16.9301L16.9287 8.04136L16.7456 8.24372L16.916 8.65301V9.18189H18.3517ZM12.3157 10.7332H12.6484L12.4899 10.4113L12.3157 10.7332ZM10.2502 12.2183L10.2501 11.9282L9.61523 12.0975L10.2502 12.2183ZM12.4939 10.0385L12.4936 9.74854L11.8588 9.91798L12.4939 10.0385ZM15.3465 8.59621L15.3462 8.30622L14.7114 8.47552L15.3465 8.59621ZM19.5133 9.89437L19.513 9.60438L18.8781 9.77368L19.5133 9.89437ZM21.0356 10.8399L21.0354 10.5499L20.4005 10.7193L21.0356 10.8399ZM10.4859 21.8821V21.658H9.81162V21.8821H10.0176V23.2071H9.81162V23.4313H10.4859V23.2071H10.2798L10.2805 21.8821H10.4859ZM15.1762 21.8973V22.1795H15.3891V21.658H14.0736V22.1795H14.2873V21.8973H14.6007V23.2071H14.3944V23.4313H15.069V23.2071H14.8629V21.8973H15.1762ZM13.1508 22.9084H12.8628C12.8337 22.9539 12.7985 22.9953 12.7584 23.0314C12.5888 23.1789 12.4018 23.2214 12.2139 23.1922C12.0699 23.168 11.9382 23.0959 11.84 22.9877C11.705 22.8368 11.6556 22.6475 11.6731 22.4671C11.6789 22.4119 11.6909 22.3576 11.7088 22.305C11.7255 22.2566 11.7455 22.216 11.7695 22.1782C11.8176 22.102 11.8812 22.0368 11.9563 21.987C12.0564 21.9217 12.1724 21.8846 12.2918 21.8797C12.4113 21.8748 12.5298 21.9022 12.635 21.9591C12.7252 22.0071 12.8011 22.0781 12.855 22.1649H13.1082V21.658H12.8878V21.8532C12.8788 21.8442 12.8696 21.8352 12.8603 21.8264C12.7925 21.7607 12.7126 21.7086 12.6252 21.673C12.4827 21.6157 12.3078 21.5973 12.1361 21.6323C12.078 21.6442 12.0209 21.662 11.9663 21.6853C11.7797 21.7647 11.6245 21.9033 11.5248 22.0798C11.3889 22.3218 11.3674 22.6016 11.4644 22.875C11.4921 22.9509 11.53 23.0229 11.5767 23.0888C11.6696 23.2231 11.8098 23.3281 11.9381 23.3883C12.067 23.4496 12.1821 23.4708 12.3054 23.4745C12.4272 23.4778 12.5668 23.4503 12.7059 23.3842C12.7746 23.3511 12.8392 23.3092 12.8975 23.2599C13.0156 23.1614 13.1058 23.0292 13.1508 22.9084ZM22.3938 23.1965H21.8542V22.6411H22.4421V22.43H21.8542V21.8984H22.3938V22.1575H22.6569V21.658H21.3861V21.8821H21.5922V23.2071H21.3861V23.4313H22.6569V22.9317H22.3938V23.1965ZM17.97 21.8821L17.9692 21.6581H17.3184V21.8821H17.5017C17.5014 22.2055 17.5023 22.5288 17.5012 22.8521C17.4995 22.8961 17.492 22.9627 17.4684 23.0218C17.4562 23.0518 17.4393 23.0802 17.4188 23.1053C17.3879 23.1433 17.3487 23.1737 17.3043 23.1943C17.2599 23.2148 17.2114 23.2249 17.1624 23.2239C17.0921 23.2246 17.0233 23.203 16.966 23.1621C16.9377 23.1417 16.9128 23.117 16.8923 23.0888C16.8334 23.0099 16.8226 22.9128 16.8228 22.8231V21.8824H17.0064V21.6584H16.3553L16.3545 21.8824H16.5606C16.5609 22.2205 16.5601 22.5581 16.5612 22.8961C16.564 23.0021 16.588 23.1143 16.6545 23.2178C16.6735 23.2475 16.6974 23.2779 16.7239 23.3054C16.7977 23.3814 16.8923 23.4341 16.9957 23.4568C17.1209 23.4861 17.2516 23.4818 17.3745 23.4442C17.4988 23.4048 17.6051 23.3225 17.6743 23.212C17.7406 23.1088 17.7639 22.9839 17.7639 22.8663V21.8824H17.97V21.8821ZM20.2036 23.2071L19.8876 22.7931C20.0046 22.7825 20.1282 22.7574 20.2541 22.5917C20.3646 22.4375 20.3836 22.2714 20.3472 22.103C20.3355 22.0517 20.317 22.0023 20.2923 21.9559C20.2662 21.9071 20.2332 21.8624 20.1941 21.8232C20.1546 21.7836 20.1091 21.7503 20.0593 21.7248C19.96 21.6721 19.8455 21.6582 19.7368 21.6581H18.9357V21.8821H19.1429V23.2071H18.9357V23.4313H19.5789V23.2071H19.4028V21.8995C19.5275 21.9002 19.6518 21.8969 19.7768 21.9019C19.853 21.9094 19.9385 21.9187 20.028 22.0307C20.062 22.0757 20.0856 22.1276 20.0969 22.1828C20.1082 22.238 20.107 22.2951 20.0934 22.3498C20.0728 22.4396 20.0183 22.5181 19.9412 22.5688C19.8593 22.6241 19.7576 22.6335 19.6635 22.6339L19.4776 22.6327L20.0389 23.4315H20.418V23.2074H20.2036V23.2071ZM23.981 23.4313V23.3003C24.0021 23.3293 24.0268 23.3558 24.0545 23.3788C24.1629 23.4676 24.2847 23.4857 24.4054 23.4757C24.5361 23.4647 24.6582 23.4061 24.7486 23.3111C24.8248 23.2313 24.874 23.1297 24.8894 23.0204C24.9018 22.9337 24.8933 22.8453 24.8646 22.7625C24.8537 22.73 24.8385 22.699 24.8196 22.6704C24.7043 22.5091 24.5611 22.4663 24.4285 22.4282C24.3542 22.4085 24.2799 22.3934 24.2115 22.3686C24.1665 22.3518 24.0989 22.3217 24.0635 22.2674C24.0097 22.181 23.9989 22.0916 24.0483 21.9927C24.091 21.9149 24.1522 21.8839 24.2086 21.8655C24.3043 21.8442 24.4015 21.8337 24.5086 21.9402C24.5601 21.9963 24.5769 22.0562 24.5789 22.1168H24.816V21.6578H24.6117V21.7894C24.5815 21.7392 24.5189 21.6866 24.4682 21.666C24.4122 21.6423 24.3522 21.6292 24.2914 21.6277C24.1838 21.6261 24.0779 21.6549 23.986 21.7107C23.9581 21.7279 23.932 21.7478 23.9079 21.77C23.7747 21.9016 23.7406 22.0485 23.7609 22.1986C23.7725 22.2711 23.7981 22.341 23.8522 22.411C23.9182 22.4954 23.9928 22.5385 24.0685 22.5739C24.2133 22.6414 24.3601 22.6422 24.5142 22.7291C24.5532 22.7529 24.6039 22.8106 24.6181 22.862C24.6417 22.9314 24.6386 23.0129 24.6004 23.0893C24.5838 23.1215 24.5611 23.1503 24.5338 23.174C24.4182 23.2657 24.2765 23.2754 24.1364 23.1896C24.0339 23.1115 24.0152 23.0186 24.0109 22.9286H23.7697V23.431H23.981V23.4313ZM11.6423 12.5928C11.6384 12.6846 11.627 12.7761 11.6084 12.8661L20.2615 12.8621C20.075 12.6234 19.9459 12.3451 19.8841 12.0486H19.2269L19.1529 12.1503L19.0317 12.0486L13.8929 12.0477L13.6936 12.5389L13.2863 12.5401L13.5033 12.0478H11.5763C11.6278 12.2247 11.6501 12.4087 11.6423 12.5928ZM21.0397 11.2042L20.7543 11.9136H21.2751L21.0397 11.2042ZM21.3087 12.0492H20.7036L20.4283 12.8621H21.5841L21.3087 12.0492ZM23.2306 16.91L23.0274 16.1596L21.0181 16.1603C20.9107 16.3731 20.7605 16.5615 20.577 16.7138C20.4855 16.7896 20.3864 16.8557 20.2814 16.9113L23.2306 16.91Z" fill="#86CAFE"/>
<path fill-rule="evenodd" clip-rule="evenodd" d="M18.6151 7.50742C18.6081 7.51662 18.5996 7.52452 18.5899 7.53075C19.647 7.74787 20.6575 8.15021 21.5745 8.7192C22.4906 9.29001 23.2976 10.0194 23.9578 10.8733C24.6174 11.7277 25.1196 12.6927 25.4408 13.7231C25.7601 14.754 25.8945 15.8333 25.8379 16.9111H25.9773C26.0539 15.8151 25.9318 14.7046 25.6147 13.6528C25.2976 12.601 24.7854 11.6079 24.1135 10.7385C23.4413 9.86903 22.6091 9.12349 21.671 8.5517C20.733 7.97991 19.6891 7.58214 18.6093 7.3802C18.6401 7.41728 18.6474 7.45951 18.6151 7.50742ZM17.654 5.58858L16.755 7.3934C16.7425 7.4184 16.7368 7.44715 16.771 7.47978C16.7841 7.4902 16.8 7.49506 16.8155 7.49451H18.4685C18.4881 7.49312 18.5054 7.49492 18.5297 7.46062C18.5361 7.45002 18.5394 7.43789 18.5393 7.42554C18.5392 7.4132 18.5357 7.40112 18.5292 7.39062L17.654 5.58858ZM17.654 5.00484L17.0191 5.17428L17.6543 5.29484L17.654 5.00484ZM16.7673 7.11382C15.8962 7.06174 15.0174 7.13104 14.1655 7.32007C13.3136 7.50909 12.4879 7.81811 11.7286 8.24199C10.9692 8.666 10.2759 9.20474 9.78755 9.64181C9.29923 10.0787 9.0159 10.4142 8.75341 10.7641C8.49105 11.1143 8.24953 11.479 8.03926 11.8608C7.82898 12.2424 7.64996 12.641 7.52205 12.9184C7.39413 13.1958 7.31733 13.3524 7.25275 13.512C7.18803 13.6716 7.13553 13.8345 7.0697 14.0018C7.00096 14.1747 6.92393 14.3441 6.83887 14.5095L7.14956 14.656C7.21752 14.3076 7.30855 13.964 7.42205 13.6277C7.47858 13.4594 7.53996 13.2927 7.66093 13.0158C7.78204 12.7387 7.96273 12.3515 8.17162 11.9797C8.3805 11.608 8.61744 11.2518 8.87466 10.9097C9.13173 10.5678 9.40881 10.2399 9.88505 9.81098C10.3613 9.3821 11.0368 8.85225 11.7765 8.43184C12.5162 8.01144 13.3198 7.70047 14.1505 7.50395C14.9826 7.30756 15.8376 7.22519 16.6918 7.25909L16.7673 7.11382ZM19.5193 10.209L19.3443 10.6918H19.716L19.5193 10.209ZM14.567 11.9218L14.2583 10.9447L13.9311 11.9213L14.567 11.9218ZM19.2268 11.9152H19.9011V11.5763L20.038 11.4119L19.7573 10.8265H19.2986L19.0833 11.4114L19.226 11.5758C19.2262 11.689 19.2273 11.8022 19.2268 11.9152ZM14.8973 11.9248H18.9768C18.793 11.5832 18.6724 11.2112 18.6208 10.8266L14.9087 10.8253C15.0092 11.1854 15.0052 11.5668 14.8973 11.9248ZM9.27923 16.8097C9.30159 16.8293 9.31992 16.853 9.33354 16.8794L14.4272 16.8827L14.4245 16.136L9.29229 16.1387L9.11576 16.7518C9.17566 16.7494 9.23418 16.7701 9.27923 16.8097ZM11.9267 15.104H9.27868L9.28048 15.8404H14.4258C14.45 15.7119 14.4877 15.5831 14.542 15.4547C13.957 15.2701 13.3397 15.2106 12.7303 15.2801C12.7174 15.3822 12.6669 15.4757 12.5887 15.5425C12.4662 15.6442 12.3121 15.6708 12.1594 15.609C12.0648 15.5688 11.9886 15.4948 11.9455 15.4015C11.9025 15.3081 11.8958 15.2021 11.9267 15.104ZM19.6511 15.1008L17.6446 15.099C17.8327 15.3192 17.9803 15.5709 18.0806 15.8425L18.4961 15.8405C18.5946 15.721 18.7056 15.6117 18.8265 15.5149C19.0693 15.3206 19.3503 15.1796 19.6511 15.1008ZM13.1589 14.6416C13.7914 14.5386 14.4392 14.5863 15.0498 14.7807C15.2634 14.6422 15.4847 14.527 15.7034 14.4795C15.7794 14.461 15.8563 14.4468 15.9338 14.4367C16.0114 14.4266 16.0895 14.4202 16.2067 14.4245C16.3239 14.4288 16.4802 14.4438 16.632 14.4784C16.7838 14.5129 16.9314 14.5672 17.0709 14.6378C17.2101 14.7088 17.3406 14.7959 17.4596 14.8972H23.5071L22.7828 14.085L9.50034 14.0666L8.89563 14.9007L12.2408 14.9033C12.5356 14.7806 12.8437 14.6928 13.1589 14.6416ZM18.9629 19.2989C18.9684 19.3672 18.9962 19.4317 19.0422 19.4824C19.0764 19.5204 19.1196 19.5493 19.1678 19.5664C19.2161 19.5835 19.2678 19.5883 19.3183 19.5803C19.378 19.5688 19.4345 19.5446 19.484 19.5092C19.5486 19.4612 19.5714 19.4037 19.5771 19.3455C19.5862 19.188 19.5915 19.0303 19.5922 18.8727C19.5929 18.7151 19.5894 18.5573 19.5854 18.4248C19.5814 18.2924 19.5765 18.1852 19.571 18.0783C19.5654 17.9713 19.559 17.8641 19.5544 17.7954C19.552 17.7521 19.5477 17.7089 19.5416 17.6659C19.5327 17.6068 19.519 17.5485 19.5007 17.4916C19.4808 17.4274 19.445 17.3694 19.3965 17.3229C19.3647 17.2886 19.3205 17.2683 19.2738 17.2664C19.227 17.2646 19.1814 17.2813 19.1469 17.3129C19.1065 17.3481 19.0943 17.3991 19.0792 17.4445C19.0621 17.5011 19.0509 17.5592 19.0457 17.618C19.0411 17.6599 19.0362 17.7169 19.0324 17.774C19.0283 17.8309 19.0255 17.888 19.0221 17.9548C19.0153 18.0899 19.0036 18.252 18.9833 18.402C18.9386 18.6989 18.9318 19.0003 18.9629 19.2989ZM23.7738 17.9436C23.7109 17.7168 23.6495 17.4896 23.5896 17.262L23.7738 17.9436ZM23.0282 15.0992L20.5194 15.101C20.6065 15.1174 20.6911 15.1482 20.7681 15.1918C20.8845 15.2578 20.9827 15.3516 21.0539 15.4648C21.1251 15.5781 21.1671 15.7072 21.1762 15.8407L23.0284 15.8426V15.0992H23.0282Z" fill="#86CAFE"/>
<path fill-rule="evenodd" clip-rule="evenodd" d="M23.7742 17.9437L23.8328 18.1923C23.8596 18.3074 23.8868 18.4225 23.8727 18.4417C23.8585 18.4609 23.8032 18.3839 23.7482 18.3068C23.6924 18.2401 23.6377 18.1725 23.5843 18.1038C23.4989 17.9955 23.3668 17.8263 23.2881 17.7263C23.2092 17.6266 23.1834 17.596 23.1566 17.5664C23.1027 17.5074 23.0446 17.4523 22.9827 17.4016C22.9492 17.3763 22.9095 17.3607 22.8678 17.3564C22.8261 17.3522 22.7841 17.3594 22.7462 17.3773C22.7212 17.3891 22.6981 17.4053 22.6787 17.4252C22.6594 17.4452 22.6437 17.4684 22.6323 17.4938C22.5289 17.7135 22.4605 17.948 22.4296 18.1888L22.3513 18.6331C22.3001 18.8597 22.3041 19.0972 22.3855 19.3336C22.3969 19.3575 22.4126 19.3815 22.4365 19.4041C22.4813 19.4448 22.5391 19.4684 22.5996 19.4709C22.6601 19.4733 22.7195 19.4545 22.7676 19.4176C22.8441 19.3592 22.8635 19.2826 22.876 19.2082C22.9176 18.8897 22.9537 18.5704 22.9924 18.2517C23.1382 18.5635 23.3207 18.8567 23.536 19.1251C23.6191 19.218 23.7014 19.3037 23.7842 19.3368C23.9079 19.3862 24.0349 19.3651 24.1741 19.2723C24.2031 19.2518 24.2299 19.2282 24.2541 19.2021C24.3021 19.1497 24.3443 19.0919 24.3796 19.0301C24.4929 18.8357 24.5106 18.6217 24.5025 18.4122C24.4971 18.2706 24.4779 18.1298 24.4453 17.9918C24.4153 17.8666 24.3754 17.7439 24.326 17.6249C24.2766 17.506 24.2176 17.3913 24.1496 17.2819C24.082 17.1723 24.0056 17.0684 23.9211 16.9712C23.8477 16.8913 23.7686 16.8534 23.6855 16.8601C23.6649 16.8629 23.645 16.8697 23.6271 16.8802C23.5599 16.9224 23.5431 16.9804 23.548 17.0376C23.5568 17.1129 23.571 17.1876 23.59 17.262L23.7742 17.9437ZM24.6593 17.6759C24.7288 17.7557 24.8241 17.8086 24.9286 17.8253L24.7971 18.1146C24.7752 18.1205 24.7544 18.13 24.7356 18.1427C24.645 18.2107 24.6292 18.2943 24.6564 18.3827C24.664 18.4039 24.6752 18.4241 24.6889 18.4418C24.6007 18.5957 24.5221 18.7528 24.4979 18.9064C24.4784 19.0299 24.5264 19.1625 24.579 19.288C24.6013 19.339 24.6274 19.3885 24.6533 19.4378C24.6964 19.5145 24.7621 19.5759 24.8415 19.6137C25.0117 19.6861 25.2083 19.6709 25.4022 19.6053C25.5434 19.5508 25.6822 19.4905 25.8183 19.4246C25.9544 19.3586 26.0879 19.2869 26.1628 19.2444C26.2379 19.2021 26.2544 19.1889 26.2686 19.1732C26.3358 19.0914 26.3323 18.9946 26.2775 18.8929C26.2625 18.8681 26.2438 18.8458 26.2219 18.8268C26.1118 18.7318 25.98 18.7574 25.8554 18.7721C25.7214 18.8001 25.5922 18.8357 25.4607 18.8675C25.324 18.9167 25.1872 18.966 25.1604 18.9121C25.1333 18.8581 25.2157 18.7008 25.2982 18.5438C25.3432 18.5509 25.3885 18.5552 25.4339 18.555C25.5836 18.5549 25.7333 18.5572 25.8833 18.5545C25.8861 18.5539 25.889 18.5534 25.9092 18.5478C25.9536 18.5359 26.0466 18.5099 26.118 18.4878C26.1557 18.4788 26.2062 18.4384 26.2233 18.4018C26.2409 18.3643 26.2479 18.3227 26.2435 18.2815C26.2391 18.2402 26.2235 18.201 26.1983 18.1681C26.1468 18.1005 26.0773 18.0845 26.0108 18.0735C25.8505 18.0606 25.6897 18.0564 25.5287 18.048L25.5439 17.8844C25.6725 17.8917 25.8018 17.8894 25.9307 17.8762C26.1162 17.857 26.2896 17.8192 26.4634 17.7856C26.5009 17.7778 26.5397 17.7614 26.5761 17.7299C26.6447 17.6669 26.6604 17.6049 26.623 17.5302C26.5895 17.4726 26.5513 17.4179 26.5089 17.3666C26.4429 17.2936 26.3613 17.2364 26.2701 17.1995C26.1789 17.1626 26.0805 17.1468 25.9823 17.1534C25.6324 17.1716 25.2931 17.1741 24.937 17.2806C24.8515 17.306 24.7674 17.3363 24.6854 17.371C24.6521 17.386 24.6256 17.4128 24.6108 17.4462C24.5857 17.5123 24.5914 17.5928 24.6593 17.6759ZM20.5073 17.8682C21.0363 17.806 21.5644 17.7477 22.094 17.6814C22.1463 17.6706 22.2117 17.6558 22.2787 17.5948C22.3503 17.5266 22.3652 17.469 22.3441 17.4022C22.3355 17.374 22.3056 17.3355 22.2598 17.2965C22.2369 17.2773 22.2117 17.2608 22.1849 17.2476C22.155 17.2332 22.1236 17.2221 22.0913 17.2147C21.934 17.1777 21.7728 17.1601 21.6112 17.1622C21.4848 17.1617 21.3585 17.1664 21.2324 17.1762C20.95 17.2006 20.6715 17.2588 20.4029 17.3495C20.3093 17.3829 20.2202 17.4275 20.1373 17.4823C20.0975 17.5084 20.0595 17.5371 20.0234 17.5683C19.9125 17.6656 19.87 17.7569 19.8425 17.8578C19.8218 17.9591 19.841 18.0644 19.8961 18.1518C19.9235 18.1949 19.959 18.2329 20.0005 18.2627C20.0811 18.3218 20.1812 18.3391 20.2751 18.3561C20.4601 18.3896 20.6484 18.3502 20.8344 18.3509C21.0051 18.3524 21.1788 18.3495 21.3515 18.3852C21.5066 18.4168 21.6554 18.474 21.7917 18.5545C21.8401 18.589 21.8479 18.6324 21.8294 18.6795C21.8149 18.714 21.7349 18.7775 21.6745 18.8153C21.6503 18.8305 21.6252 18.8443 21.5994 18.8567C21.1998 19.0332 20.7747 19.0422 20.3546 18.9021C20.3421 18.8953 20.3301 18.8894 20.3173 18.8647C20.3071 18.8369 20.3002 18.8054 20.3434 18.7692C20.3847 18.7481 20.4302 18.7392 20.4747 18.7361C20.5558 18.7324 20.6654 18.7525 20.7676 18.8004C20.9336 18.8732 21.1167 18.8981 21.2961 18.8721C21.3853 18.859 21.4723 18.8335 21.5545 18.7964C21.5769 18.7859 21.5951 18.7681 21.6061 18.746C21.617 18.7238 21.6206 18.6988 21.6163 18.6745C21.6095 18.6397 21.5779 18.5875 21.5159 18.5354C21.4511 18.484 21.3665 18.4516 21.284 18.4307C21.2448 18.4214 21.205 18.415 21.165 18.4114C21.0895 18.4034 21.0137 18.3979 20.9379 18.3949C20.7766 18.389 20.6151 18.3958 20.4548 18.4153C20.3951 18.4227 20.3604 18.4299 20.3265 18.4399C20.2925 18.4497 20.2593 18.4622 20.2272 18.4772C20.1961 18.4916 20.1661 18.5083 20.1376 18.5272C20.0096 18.6188 19.9722 18.7107 19.9605 18.8104C19.9584 18.84 19.9607 18.8698 19.9673 18.8988C19.9739 18.9278 19.9847 18.9557 20.0089 18.9969C20.0328 19.0382 20.0701 19.0925 20.1133 19.1418C20.1566 19.191 20.2061 19.2351 20.2596 19.2733C20.3203 19.3162 20.3863 19.3511 20.4559 19.3772C20.5411 19.4107 20.6537 19.4457 20.7687 19.4703C20.8834 19.4948 21.0006 19.509 21.1179 19.5122C21.2354 19.5153 21.3527 19.5075 21.4369 19.4978C21.5211 19.488 21.5715 19.4764 21.6213 19.4625C21.7188 19.4357 21.8135 19.3996 21.9041 19.3547C21.9437 19.3344 21.9758 19.3154 22.0063 19.2939C22.037 19.2726 22.0663 19.2493 22.094 19.224C22.1833 19.1415 22.2317 19.0651 22.261 18.9857C22.2716 18.9572 22.2801 18.9279 22.286 18.8781C22.2991 18.7788 22.2955 18.6171 22.2431 18.4843C22.2195 18.4195 22.1873 18.3582 22.1474 18.3018C22.1102 18.249 22.0653 18.202 22.0142 18.1624C21.9129 18.0847 21.7914 18.0377 21.6641 18.027C21.3895 17.9967 21.1137 17.9778 20.8379 17.9321C20.7272 17.9135 20.617 17.8922 20.5073 17.8682ZM10.278 18.3809C10.2982 18.2423 10.3235 18.0839 10.3619 17.9266C10.3817 17.8457 10.4052 17.766 10.4269 17.6948C10.4485 17.6235 10.468 17.5609 10.4857 17.4977C10.5034 17.4346 10.5194 17.371 10.5289 17.3284C10.5471 17.248 10.5457 17.2266 10.5453 17.179C10.5444 17.1398 10.5382 17.0973 10.5116 17.0577C10.4516 16.9738 10.3737 16.9622 10.2957 16.9726C10.236 16.9819 10.1885 17.0348 10.1487 17.0876C10.1327 17.1085 10.1174 17.13 10.1028 17.152C10.0828 17.1824 10.0648 17.2141 10.0491 17.2469C10.0238 17.2973 9.98728 17.3755 9.95381 17.4551C9.85659 17.6848 9.78451 17.9407 9.73617 18.177C9.72117 18.2548 9.70979 18.3331 9.70187 18.4117C9.68687 18.5634 9.68576 18.7101 9.6877 18.8492C9.6884 18.9161 9.68937 18.9832 9.69548 19.0418C9.70145 19.1004 9.7127 19.1504 9.73117 19.1978C9.74965 19.2451 9.7752 19.2898 9.80701 19.3294C9.86825 19.4037 9.93839 19.4568 9.99589 19.4837C10.0941 19.53 10.1814 19.5365 10.2837 19.5251C10.4206 19.5105 10.5524 19.4378 10.6889 19.346C10.7206 19.3243 10.7513 19.3017 10.7967 19.2657C10.9128 19.1731 11.0259 19.0767 11.1357 18.9768C11.1318 19.0835 11.1327 19.1902 11.1384 19.2968C11.1442 19.4033 11.1549 19.5094 11.1646 19.5826C11.1743 19.6557 11.1829 19.6955 11.1943 19.7348C11.2192 19.8179 11.2479 19.8879 11.2971 19.9636C11.3232 20.0036 11.3568 20.0472 11.3974 20.083C11.4379 20.119 11.4853 20.1473 11.5363 20.1662C11.5872 20.1851 11.6415 20.1943 11.6782 20.1968C11.7149 20.1993 11.7338 20.1948 11.7515 20.1879C11.7827 20.1745 11.8114 20.1575 11.8381 20.1125C11.8613 20.0725 11.8781 20.0195 11.88 19.9711C11.8811 19.9458 11.8788 19.9205 11.8781 19.8727C11.8774 19.825 11.8782 19.7547 11.8779 19.6847C11.8778 19.6144 11.8764 19.5443 11.8764 19.4364C11.8764 19.3286 11.8778 19.1829 11.8864 19.0376C11.9038 18.7506 11.9485 18.4615 12.0186 18.1753C12.1686 18.1367 12.3185 18.0973 12.3999 18.0752C12.4814 18.0534 12.4944 18.0489 12.5072 18.0435C12.52 18.0381 12.5324 18.0321 12.5443 18.0252C12.5688 18.0117 12.6101 17.9777 12.6529 17.9342C12.8194 17.7601 12.8594 17.5696 12.7744 17.3709C12.7505 17.3098 12.7192 17.2518 12.681 17.1984C12.6624 17.1729 12.6409 17.1497 12.6168 17.1294C12.5928 17.1093 12.5662 17.0926 12.5376 17.0798C12.5052 17.0653 12.4709 17.0554 12.4357 17.0505C12.3507 17.0361 12.2236 17.0361 12.1161 17.0798C12.0638 17.0999 12.0143 17.1276 11.9371 17.184C11.8395 17.2565 11.7455 17.3337 11.6553 17.4153C11.4815 17.4006 11.3111 17.3589 11.1502 17.2919C11.1164 17.2779 11.0848 17.2589 11.0567 17.2355C11.0324 17.2147 11.012 17.1899 10.9963 17.162C10.981 17.1341 10.9713 17.103 10.9617 17.0836C10.9411 17.0447 10.9211 17.0431 10.8995 17.034C10.8747 17.0257 10.8479 17.0262 10.8234 17.0352C10.7871 17.0498 10.7488 17.0617 10.7127 17.1197C10.6928 17.1512 10.6703 17.1995 10.6602 17.2359C10.65 17.2723 10.6523 17.2966 10.6563 17.3355C10.6603 17.3745 10.6659 17.4284 10.6816 17.4794C10.7145 17.5821 10.7717 17.6596 10.8861 17.7395C10.9434 17.7801 11.0174 17.8253 11.092 17.8694C11.1667 17.9131 11.2421 17.9555 11.3186 17.9959C11.2647 18.1846 11.2223 18.3765 11.1916 18.5704L10.9713 18.5496L10.4577 18.7218C10.3994 18.7481 10.3331 18.7511 10.2667 18.7192C10.2207 18.6875 10.2131 18.6447 10.2453 18.5993L10.2526 18.5767C10.2598 18.5124 10.2682 18.4485 10.278 18.3809ZM5.47613 16.7213L5.47266 16.7212L5.56515 16.7586C5.53812 16.7406 5.5079 16.728 5.47613 16.7213Z" fill="#86CAFE"/>
<path fill-rule="evenodd" clip-rule="evenodd" d="M9.65929 18.9188C9.65812 18.846 9.65631 18.7732 9.65387 18.7005C9.65307 18.6659 9.6509 18.6313 9.64734 18.5969C9.64456 18.5719 9.64081 18.5472 9.6054 18.3591C9.55856 18.1104 9.51055 17.8619 9.46137 17.6137C9.42012 17.4072 9.40457 17.3454 9.38651 17.2843C9.35039 17.162 9.30393 17.0431 9.24763 16.9287C9.23647 16.9114 9.2222 16.8963 9.20555 16.8841C9.18876 16.8722 9.16993 16.8635 9.14999 16.8583C9.10902 16.848 9.04847 16.8551 8.98764 16.8778C8.95533 16.8905 8.92545 16.9088 8.89931 16.9316C8.83847 16.9829 8.80403 17.0673 8.74681 17.135C8.71598 17.1747 8.68334 17.213 8.64626 17.2564C8.60583 17.303 8.56665 17.3508 8.52876 17.3995C8.48987 17.4502 8.45362 17.5032 8.3996 17.5879C8.34557 17.6726 8.27391 17.7893 8.20613 17.9084C8.13847 18.0274 8.07478 18.1487 8.01516 18.2719L7.85308 18.2583C7.94254 17.9924 8.00261 17.7176 8.03225 17.4387C8.06224 17.1555 8.06294 16.8554 8.02225 16.5501C8.001 16.3948 7.96766 16.2411 7.92239 16.0911C7.87711 15.9411 7.81975 15.7947 7.7742 15.6903C7.74071 15.6117 7.70197 15.5354 7.65823 15.462C7.58277 15.3351 7.49509 15.2159 7.39643 15.1061C7.33935 15.0409 7.26991 14.9654 7.20005 14.8904C7.13019 14.8154 7.05991 14.7409 7.00561 14.6881C6.9513 14.6353 6.91297 14.6042 6.87144 14.5782C6.82992 14.5523 6.78533 14.5311 6.73867 14.5159C6.69733 14.5026 6.6549 14.4929 6.61187 14.4871C6.5559 14.48 6.54062 14.4882 6.50909 14.5057C6.46354 14.5367 6.44909 14.5767 6.46298 14.6186C6.46618 14.6277 6.47104 14.6363 6.50076 14.6724C6.53048 14.7086 6.58534 14.7722 6.63923 14.8368C6.74256 14.9604 6.83186 15.0774 6.89269 15.1856C6.92269 15.2375 6.95047 15.2906 6.98436 15.3611C7.01811 15.4314 7.05783 15.519 7.09685 15.6069C7.17227 15.7776 7.24199 15.9394 7.28574 16.0933C7.30727 16.1683 7.32421 16.2444 7.33671 16.3214C7.34921 16.3983 7.35726 16.4758 7.36185 16.5615C7.37504 16.8254 7.36143 17.1189 7.31754 17.3968C7.27364 17.6798 7.18603 17.9543 7.05783 18.2105C6.86061 18.5925 6.5531 18.9063 6.17521 19.1113C6.046 19.1831 5.90094 19.2215 5.75314 19.2231C5.68401 19.2248 5.61527 19.2122 5.5512 19.1862C5.5205 19.174 5.49106 19.1588 5.46329 19.1409C5.41872 19.1123 5.38207 19.0729 5.35668 19.0264C5.3313 18.9799 5.318 18.9278 5.31801 18.8748C5.46264 18.7541 5.59758 18.6224 5.72161 18.4806C5.84175 18.3429 5.94369 18.2084 6.02119 18.0834C6.05924 18.0224 6.0948 17.9597 6.12841 17.8961C6.16216 17.8323 6.1941 17.7675 6.22577 17.6763C6.25743 17.585 6.28868 17.4673 6.30285 17.3473C6.31701 17.2273 6.31382 17.1051 6.29368 16.9859C6.27468 16.8787 6.2449 16.7736 6.2048 16.6723C6.17327 16.5941 6.14771 16.5536 6.11716 16.5175C6.08647 16.4813 6.05074 16.4496 6.01105 16.4236C5.88203 16.3414 5.72995 16.3233 5.58273 16.3367C5.53231 16.3415 5.48231 16.3511 5.39662 16.3821C5.31093 16.4133 5.18968 16.466 5.07983 16.5371C4.96967 16.6085 4.87179 16.6972 4.78997 16.7998C4.71523 16.8957 4.65172 16.9999 4.60067 17.1102C4.55748 17.2029 4.53567 17.2727 4.51567 17.3429C4.45776 17.5448 4.41123 17.7637 4.40637 17.9698C4.40471 18.0368 4.40707 18.104 4.41415 18.1705C4.42123 18.2372 4.4329 18.3033 4.45151 18.428C4.47012 18.5524 4.49554 18.7353 4.52026 18.9184C4.47522 18.9686 4.41549 19.0034 4.34957 19.0177C4.31693 19.0251 4.2829 19.0274 4.22818 19.0192C4.17332 19.0108 4.09791 18.9917 4.02805 18.9595C3.95819 18.9273 3.89416 18.8821 3.83944 18.8277C3.78466 18.773 3.73958 18.7094 3.70611 18.6397C3.63375 18.4955 3.63403 18.3312 3.63 18.1747C3.62954 18.0934 3.63297 18.0121 3.64028 17.9312C3.6475 17.8504 3.65875 17.7698 3.67903 17.6637C3.69917 17.5576 3.72833 17.4261 3.76125 17.2954C3.79417 17.1647 3.83069 17.0348 3.88125 16.8882C3.93166 16.7415 3.99624 16.5782 4.07346 16.4208C4.15068 16.2635 4.24068 16.1122 4.34262 15.9697C4.43361 15.8446 4.53081 15.7242 4.63387 15.6089C4.70928 15.5242 4.74595 15.4885 4.78275 15.4528L4.88303 15.3567C4.91871 15.324 4.95169 15.2886 4.98163 15.2506C5.0433 15.1733 5.0683 15.1233 5.02469 15.0522C4.99649 15.0124 4.95788 15.0047 4.92122 15.002C4.90789 15.0014 4.89441 15.0025 4.86344 15.0113C4.77197 15.0387 4.68402 15.0768 4.60137 15.1246C4.4972 15.187 4.40151 15.2624 4.30443 15.3358C4.25056 15.3776 4.19776 15.4208 4.1461 15.4653C4.0598 15.5391 3.97963 15.6199 3.90639 15.7067C3.87055 15.749 3.83625 15.7926 3.78181 15.8715C3.71218 15.9724 3.64635 16.0758 3.58445 16.1815C3.51598 16.299 3.4539 16.4201 3.39807 16.544C3.29669 16.7699 3.21392 17.0038 3.15057 17.2432C3.12341 17.3439 3.09872 17.4452 3.07655 17.5472C3.04546 17.6877 3.0249 17.8303 3.01502 17.9738C2.99558 18.2381 3.01196 18.498 3.10766 18.7692C3.13085 18.8317 3.15932 18.892 3.1946 18.9481C3.22988 19.0042 3.27196 19.0562 3.3196 19.1021C3.41695 19.1956 3.52598 19.2589 3.62875 19.306C3.68111 19.3303 3.73472 19.3519 3.7893 19.3707C3.94388 19.4241 4.08569 19.4521 4.22902 19.4242C4.35471 19.3994 4.45901 19.3451 4.5654 19.3227C4.60012 19.3142 4.63498 19.307 4.67025 19.301C4.71081 19.3481 4.75206 19.3944 4.79372 19.4405C4.83539 19.4866 4.87733 19.5324 4.93594 19.5875C4.99455 19.6427 5.06996 19.707 5.15288 19.7596C5.23579 19.8121 5.32649 19.8531 5.42079 19.8824C5.51523 19.9117 5.61314 19.9293 5.74647 19.9307C5.8798 19.9321 6.04841 19.917 6.21271 19.8813C6.37705 19.8457 6.53606 19.7888 6.68575 19.7123C6.83492 19.6357 6.97352 19.5392 7.06922 19.4653C7.16491 19.3914 7.21796 19.3401 7.26977 19.2876C7.36993 19.1876 7.46372 19.0815 7.55059 18.9698C7.61934 18.881 7.65101 18.828 7.68989 18.7574C7.70878 18.7227 7.72614 18.6872 7.74211 18.6509L7.89058 18.6945L7.74586 19.1609C7.72663 19.2212 7.71978 19.2848 7.72572 19.3479C7.73167 19.4109 7.75028 19.4721 7.78045 19.5278C7.79961 19.5624 7.82267 19.5917 7.85044 19.6155C7.90767 19.6643 7.98336 19.6875 8.05405 19.6814C8.09044 19.6784 8.12599 19.6677 8.15196 19.6563C8.17794 19.6449 8.19419 19.6328 8.20932 19.6194C8.28016 19.5574 8.29752 19.4874 8.32738 19.4182C8.38238 19.2741 8.44126 19.1289 8.49251 18.9858C8.49876 18.9663 8.50432 18.9467 8.50973 18.9271L9.11097 18.9159C9.11777 18.988 9.12485 19.0599 9.1293 19.1012C9.1336 19.1426 9.13513 19.1531 9.13722 19.1635C9.14218 19.189 9.15035 19.2138 9.16152 19.2373C9.17138 19.2596 9.18735 19.2941 9.20457 19.3281C9.22194 19.362 9.24041 19.3953 9.25666 19.4207C9.29221 19.4767 9.31999 19.4981 9.35513 19.52C9.42985 19.5603 9.50512 19.5823 9.58554 19.4746C9.60943 19.4401 9.6197 19.416 9.62998 19.3827C9.64234 19.3419 9.65317 19.2888 9.65762 19.2407C9.65998 19.216 9.66109 19.1913 9.66137 19.1377C9.66165 19.0835 9.66081 19.0012 9.65929 18.9188ZM5.17316 18.3256C5.15345 18.25 5.13875 18.1732 5.12913 18.0956C5.10955 17.937 5.11104 17.7764 5.13357 17.6182C5.1451 17.5308 5.16205 17.4341 5.18246 17.338C5.20288 17.2422 5.22663 17.1469 5.24343 17.0846C5.26912 16.9826 5.30816 16.8846 5.35954 16.7929C5.3669 16.78 5.37607 16.768 5.38676 16.7578C5.41343 16.7362 5.43245 16.7169 5.47231 16.721L5.46551 16.718C5.48416 16.7147 5.50337 16.7167 5.52094 16.7238C5.53851 16.7309 5.55371 16.7428 5.56481 16.7582C5.59231 16.7961 5.61051 16.8341 5.6212 16.8754C5.64148 16.988 5.64217 17.0883 5.63675 17.1976C5.63439 17.2409 5.63064 17.2843 5.62189 17.3489C5.61087 17.4278 5.59767 17.5064 5.58231 17.5847C5.56651 17.6671 5.54667 17.7487 5.52287 17.8291C5.50281 17.8972 5.47577 17.963 5.44218 18.0255C5.40953 18.0849 5.37015 18.1403 5.32482 18.1906C5.2796 18.2413 5.22872 18.2866 5.17316 18.3256ZM8.99555 18.2691C8.9293 18.3185 8.86792 18.3069 8.82042 18.2465L8.9593 17.9697L9.02014 18.238C9.01375 18.2497 9.00544 18.2602 8.99555 18.2691Z" fill="#86CAFE"/>
<path fill-rule="evenodd" clip-rule="evenodd" d="M7.00167 15.5713C6.96164 15.4983 6.9233 15.4244 6.88667 15.3497C6.84223 15.861 6.82223 16.3728 6.82681 16.885H6.93764C6.94875 16.447 6.97 16.0089 7.00167 15.5713ZM18.4258 16.1603L18.1656 16.153L18.534 16.9113C18.4424 16.6722 18.4054 16.4156 18.4258 16.1603ZM18.9042 17.7517C18.8194 17.4997 18.703 17.2402 18.4992 16.9896C18.2573 16.6568 17.9659 16.3629 17.6351 16.1181C17.4094 15.9323 17.1708 15.7628 16.9211 15.6109C16.7963 15.535 16.6689 15.4634 16.5392 15.3963C16.2221 15.2355 15.8921 15.1013 15.5528 14.9951C14.8729 14.7828 14.1623 14.6857 13.4504 14.7077C13.198 14.7099 12.9473 14.7498 12.7068 14.8263C12.6277 14.8522 12.5514 14.883 12.4771 14.9181C12.3281 14.9883 12.1878 15.0756 12.059 15.1783C11.9801 15.2366 11.9672 15.3088 11.9967 15.387C12.0122 15.4302 12.0628 15.467 12.1129 15.4902C12.1383 15.5026 12.1753 15.5126 12.2176 15.5172C12.3254 15.5242 12.4489 15.4884 12.5693 15.4162C12.5965 15.3972 12.6397 15.3576 12.6275 15.3206C12.6258 15.3041 12.6026 15.2752 12.5784 15.2719C12.5367 15.2614 12.4928 15.2642 12.4528 15.2799C12.5273 15.2301 12.6099 15.1937 12.6969 15.1723C12.7402 15.1615 12.7847 15.1545 12.8923 15.1483C13 15.142 13.1711 15.1366 13.342 15.1416C13.6842 15.1522 14.024 15.2013 14.3552 15.288C14.6452 15.3707 14.932 15.464 15.2152 15.5677C15.4704 15.6617 15.7231 15.7626 15.9728 15.8705C16.1682 15.9549 16.2797 16.0095 16.389 16.0687C16.6074 16.1872 16.8153 16.3242 17.0103 16.4782C17.1312 16.5781 17.2522 16.678 17.3666 16.7845C17.4811 16.8913 17.5891 17.005 17.697 17.1186C17.8693 17.3079 18.0066 17.5263 18.1023 17.7636C18.1865 17.9615 18.1966 18.1831 18.1308 18.3879C18.0981 18.4894 18.0477 18.5844 17.9819 18.6683C17.9162 18.7521 17.8356 18.8237 17.7066 18.9014C17.5777 18.9787 17.4001 19.0619 17.2165 19.1279C16.8486 19.2602 16.459 19.322 16.0682 19.3101C15.8118 19.3003 15.5561 19.2769 15.3021 19.24L15.2888 17.8585C15.795 17.9005 16.2942 18.0044 16.7751 18.1679C16.7492 18.2222 16.7106 18.2695 16.6625 18.3058C16.628 18.3325 16.5944 18.3618 16.5612 18.3946C16.5515 18.4075 16.5454 18.4229 16.5435 18.4389C16.5416 18.455 16.544 18.4713 16.5504 18.4862C16.555 18.4962 16.5612 18.5058 16.5746 18.518C16.5879 18.5303 16.6079 18.5454 16.6292 18.5584C16.6869 18.5918 16.7669 18.6076 16.8494 18.6032C16.9753 18.5915 17.0896 18.5278 17.2118 18.4094C17.2465 18.374 17.2755 18.3333 17.2977 18.2892C17.3758 18.1287 17.3732 17.9371 17.2318 17.7538C17.2064 17.7206 17.178 17.6899 17.1469 17.662C17.1158 17.6342 17.0822 17.6094 17.0465 17.5878C16.8559 17.4793 16.6518 17.3966 16.4394 17.3418C16.3294 17.3144 16.2179 17.2929 16.1056 17.2774C15.8456 17.2392 15.5834 17.2185 15.3207 17.2153C15.3132 16.9961 15.2841 16.7781 15.2338 16.5646C15.2192 16.4987 15.1985 16.4343 15.172 16.3723C15.1546 16.3309 15.1435 16.3105 15.1275 16.2802C15.1084 16.2412 15.0574 16.1903 15.0107 16.1706C14.9641 16.1499 14.9117 16.1435 14.8535 16.1991C14.8438 16.2096 14.8359 16.2217 14.83 16.2348C14.7808 16.3547 14.743 16.479 14.7173 16.606C14.7045 16.6695 14.695 16.7335 14.6852 16.8096C14.6657 16.9638 14.6428 17.1514 14.6137 17.3239C14.3758 17.3511 14.1405 17.3981 13.9103 17.4642C13.7468 17.5123 13.5887 17.5777 13.439 17.6592C13.3265 17.7197 13.223 17.7957 13.1315 17.8849C13.0903 17.9274 13.0595 17.9788 13.0412 18.0351C13.023 18.0914 13.0179 18.1511 13.0262 18.2097C13.0401 18.3026 13.0834 18.3853 13.1472 18.474C13.1647 18.4973 13.1837 18.5197 13.2198 18.5579C13.2559 18.5959 13.3093 18.6501 13.3633 18.7034C13.4672 18.8057 13.5649 18.898 13.6558 18.9715C13.6995 19.0072 13.7447 19.0412 13.7908 19.0737C13.837 19.1061 13.8842 19.137 13.9622 19.1851C14.1685 19.3107 14.3763 19.4339 14.5855 19.5547L14.6026 19.6313L14.6252 19.7312C14.6349 19.7736 14.6478 19.828 14.6607 19.8826C14.6778 19.9504 14.717 20.0105 14.772 20.0537C14.8623 20.1224 14.9717 20.1362 15.0709 20.1002C15.1074 20.087 15.1456 20.0667 15.1793 20.0405C15.2131 20.0144 15.2424 19.9823 15.2656 19.9463C15.2888 19.9104 15.3059 19.8705 15.3161 19.8288C15.58 19.8658 15.8454 19.8904 16.1115 19.9026C16.3066 19.9122 16.5022 19.9066 16.6964 19.8856C16.9571 19.8563 17.2425 19.8022 17.5047 19.7016C17.8485 19.5725 18.1641 19.3782 18.4342 19.1294C18.4831 19.0834 18.5295 19.0347 18.5731 18.9836C18.6603 18.8814 18.7365 18.7703 18.8005 18.6522C18.9571 18.3748 18.9951 18.0619 18.9042 17.7517ZM14.052 18.8489C13.9712 18.808 13.8934 18.7611 13.8248 18.7159C13.7562 18.6708 13.6965 18.6275 13.6388 18.5814C13.5319 18.4953 13.4329 18.3999 13.343 18.2962C13.3152 18.2637 13.3098 18.2529 13.3066 18.2415C13.3015 18.2245 13.3013 18.2063 13.3062 18.1891C13.311 18.172 13.3207 18.1566 13.334 18.1447C13.3426 18.1368 13.3529 18.1307 13.3986 18.113C13.5992 18.0362 13.8077 17.9815 14.0202 17.9499C14.0627 17.9435 14.0873 17.9408 14.137 17.9364C14.2036 17.9306 14.2702 17.9257 14.3369 17.9218C14.412 17.9176 14.4873 17.9151 14.5624 17.9144L14.5626 19.0209C14.3851 18.9879 14.2132 18.93 14.052 18.8489ZM21.0293 15.6533C21.0253 15.6096 21.0126 15.5672 20.9921 15.5285C20.9741 15.495 20.9508 15.4645 20.9232 15.4383C20.8819 15.3988 20.8314 15.3701 20.7764 15.3548C20.7213 15.3395 20.6633 15.3381 20.6075 15.3506C20.5912 15.3089 20.565 15.2717 20.5312 15.2424C20.4974 15.213 20.4569 15.1922 20.4133 15.1819C20.3166 15.1571 20.2172 15.1441 20.1174 15.1431C20.0534 15.1427 19.9896 15.1475 19.9264 15.1576C19.8353 15.1706 19.703 15.1944 19.5743 15.2316C19.4457 15.2688 19.321 15.3195 19.2019 15.3816C19.0831 15.4435 18.9699 15.517 18.8649 15.6002C18.8219 15.6354 18.7813 15.6736 18.7437 15.7145C18.5823 15.8931 18.4862 16.0901 18.4838 16.2794C18.4824 16.3295 18.487 16.3799 18.4933 16.4212C18.5058 16.4998 18.5242 16.5548 18.5494 16.6192C18.5756 16.6846 18.6172 16.7598 18.6612 16.8417L18.7249 16.9595C18.7406 16.9892 18.7488 17.0045 18.7594 17.0177C18.7702 17.031 18.7834 17.0421 18.7984 17.0504C18.8309 17.0707 18.888 17.0746 18.9462 17.0667C18.9789 17.0617 19.0113 17.0516 19.0412 17.0366C19.071 17.0218 19.0987 17.0024 19.1212 16.9757C19.1437 16.9489 19.1613 16.9149 19.183 16.9082C19.2049 16.9016 19.231 16.9227 19.2578 16.9373C19.2846 16.9518 19.3121 16.9603 19.3403 16.9659C19.3682 16.9716 19.3967 16.9743 19.4425 16.9743C19.4881 16.9743 19.551 16.9714 19.6053 16.9681C19.6593 16.9648 19.7046 16.9607 19.7357 16.9573C19.7668 16.9538 19.7843 16.9504 19.8223 16.9432C19.9003 16.9295 20.0374 16.8992 20.1467 16.8532C20.2577 16.8102 20.387 16.7363 20.5197 16.6313C20.6515 16.5256 20.7671 16.4012 20.8626 16.2619C20.9568 16.1264 21.0092 15.9945 21.0268 15.8544C21.0353 15.7877 21.0362 15.7202 21.0293 15.6533ZM19.2202 16.0063C19.1224 16.0953 19.0308 16.1907 18.9459 16.292C18.9744 16.1756 19.0264 16.0663 19.0986 15.9707C19.1709 15.8751 19.2619 15.7953 19.366 15.736C19.5224 15.6472 19.6935 15.5873 19.8711 15.559C19.6349 15.6779 19.4159 15.8284 19.2202 16.0063ZM20.5139 15.9595C20.5053 16.0077 20.4872 16.0536 20.4607 16.0947C20.4341 16.1358 20.3996 16.1711 20.3592 16.1987C20.292 16.2426 20.2249 16.2866 20.1552 16.326C20.0166 16.4005 19.8791 16.4767 19.7317 16.5035C19.5868 16.5324 19.4372 16.5269 19.2948 16.4875C19.5043 16.1845 19.8075 15.9585 20.1578 15.8442C20.2421 15.8172 20.3317 15.8107 20.419 15.8251C20.4342 15.8275 20.4486 15.833 20.4616 15.8411C20.4746 15.8493 20.4858 15.8599 20.4946 15.8724C20.5035 15.8849 20.5097 15.8991 20.513 15.914C20.5163 15.929 20.5166 15.9444 20.5139 15.9595ZM28.991 18.1128C28.9885 18.0285 28.9751 17.945 28.9511 17.8642C28.9025 17.7021 28.8121 17.5557 28.6891 17.4396C28.5705 17.3382 28.4252 17.3099 28.2813 17.3528C28.2352 17.3672 28.1916 17.3896 28.0792 17.4736C27.9669 17.5576 27.786 17.7035 27.611 17.8561C27.4359 18.0086 27.2667 18.1677 27.1038 18.3332C27.1405 18.2261 27.1822 18.1207 27.2297 18.0179C27.2769 17.9153 27.3301 17.8153 27.3702 17.7413C27.4101 17.6672 27.4369 17.6192 27.4611 17.5699C27.4852 17.5206 27.5063 17.4697 27.5199 17.4338C27.546 17.3645 27.5467 17.3352 27.5458 17.2878C27.5447 17.2656 27.5412 17.2436 27.5366 17.2267C27.532 17.2097 27.5266 17.1978 27.5187 17.1875C27.4663 17.1228 27.3917 17.1478 27.3237 17.1917C27.3038 17.2064 27.2854 17.2229 27.2687 17.2411C27.1841 17.3282 27.1022 17.4178 27.0231 17.51C26.894 17.6639 26.7844 17.8333 26.697 18.0142C26.6539 18.1046 26.6165 18.1978 26.5929 18.2622C26.5693 18.3265 26.5596 18.3619 26.5519 18.3978C26.5358 18.4731 26.5301 18.5503 26.5348 18.6272C26.5397 18.723 26.5573 18.8504 26.5875 18.963C26.6023 19.0197 26.6202 19.0757 26.6412 19.1304C26.5622 19.299 26.4921 19.4717 26.4312 19.6477C26.3703 19.8236 26.319 20.0027 26.2778 20.1842C26.2425 20.3418 26.2133 20.5007 26.1901 20.6605C26.1744 20.7716 26.1736 20.8098 26.1762 20.8478C26.1865 21.0139 26.2659 21.1836 26.4275 21.3545C26.5376 21.4571 26.6734 21.4536 26.8108 21.3388C26.8837 21.0574 26.9576 20.7771 27.0245 20.4963L27.092 20.2717C27.1148 20.197 27.149 20.126 27.193 20.0166C27.2372 19.9072 27.2966 19.7611 27.3563 19.6148C27.4893 19.5899 27.6212 19.56 27.7519 19.5252C27.8477 19.5001 27.9402 19.4639 28.0277 19.4174C28.0698 19.3951 28.1108 19.3702 28.1649 19.3327C28.2191 19.2952 28.287 19.2448 28.3531 19.1923C28.4163 19.1421 28.4777 19.0897 28.5373 19.0352C28.6324 18.9493 28.717 18.8524 28.7895 18.7466C28.9403 18.5297 29.0013 18.3278 28.991 18.1128ZM28.4263 18.4253C28.3896 18.4836 28.3444 18.5362 28.292 18.5811C28.1996 18.6565 28.1032 18.7269 28.0031 18.7919C27.969 18.8141 27.9298 18.8275 27.8892 18.8306C27.8486 18.8338 27.8078 18.8267 27.7706 18.81C27.9102 18.4945 28.1095 18.209 28.3574 17.9692C28.3978 17.9315 28.432 17.9344 28.4641 17.9443C28.4966 17.9524 28.5313 18.0015 28.5298 18.0321C28.536 18.1706 28.4999 18.3077 28.4263 18.4253ZM8.94453 22.1304C8.93425 22.0609 8.91158 21.9938 8.87758 21.9324C8.8566 21.8948 8.83083 21.86 8.80092 21.829C8.71051 21.7352 8.60454 21.6954 8.49926 21.6757C8.44294 21.6646 8.38571 21.6587 8.3283 21.6582H7.59068V21.8822H7.79678V23.2072H7.59068V23.4314H8.26524V23.2072H8.05914V22.7798H8.37246C8.51037 22.7768 8.6512 22.7628 8.80078 22.6054C8.85808 22.5416 8.90066 22.466 8.9255 22.3839C8.95034 22.3018 8.95684 22.2153 8.94453 22.1304ZM8.57162 22.4697C8.49273 22.5337 8.41663 22.5383 8.34288 22.54H8.05997V21.9043H8.33274C8.42413 21.9047 8.51829 21.9221 8.59606 22.0014C8.64122 22.0477 8.67079 22.1069 8.68065 22.1708C8.69634 22.2814 8.66565 22.3861 8.57162 22.4697Z" fill="#86CAFE"/>
<path fill-rule="evenodd" clip-rule="evenodd" d="M18.9551 19.3144C18.9606 19.3826 18.9884 19.4471 19.0344 19.4978C19.0686 19.5359 19.1118 19.5648 19.16 19.5819C19.2082 19.599 19.26 19.6037 19.3105 19.5957C19.3702 19.5842 19.4267 19.56 19.4762 19.5246C19.5408 19.4766 19.5636 19.4191 19.5693 19.3609C19.5784 19.2034 19.5837 19.0458 19.5844 18.8881C19.5851 18.7305 19.5816 18.5727 19.5776 18.4402C19.5736 18.3079 19.5687 18.2006 19.5631 18.0937C19.5576 17.9868 19.5512 17.8795 19.5466 17.8108C19.5442 17.7675 19.5399 17.7243 19.5338 17.6814C19.5249 17.6222 19.5112 17.5639 19.4929 17.5071C19.473 17.4429 19.4372 17.3848 19.3887 17.3383C19.3568 17.304 19.3127 17.2837 19.266 17.2819C19.2192 17.28 19.1736 17.2967 19.1391 17.3283C19.0987 17.3636 19.0865 17.4146 19.0713 17.46C19.0543 17.5165 19.0431 17.5746 19.0379 17.6334C19.0333 17.6754 19.0284 17.7323 19.0245 17.7894C19.0205 17.8463 19.0177 17.9034 19.0143 17.9702C19.0075 18.1054 18.9958 18.2674 18.9755 18.4174C18.9308 18.7144 18.9239 19.0157 18.9551 19.3144ZM23.766 17.959C23.7031 17.7322 23.6417 17.505 23.5818 17.2775L23.766 17.959Z" fill="white"/>
<path fill-rule="evenodd" clip-rule="evenodd" d="M23.7664 17.9588L23.825 18.2074C23.8518 18.3225 23.879 18.4376 23.8649 18.4568C23.8507 18.476 23.7954 18.399 23.7404 18.322C23.6846 18.2553 23.6299 18.1876 23.5765 18.1189C23.4911 18.0106 23.359 17.8414 23.2803 17.7414C23.2014 17.6417 23.1756 17.6112 23.1488 17.5816C23.0949 17.5225 23.0367 17.4674 22.9749 17.4167C22.9414 17.3915 22.9017 17.3758 22.86 17.3716C22.8183 17.3673 22.7762 17.3745 22.7384 17.3924C22.7134 17.4042 22.6903 17.4205 22.6709 17.4403C22.6516 17.4604 22.6359 17.4836 22.6245 17.5089C22.5211 17.7286 22.4527 17.9631 22.4218 18.2039L22.3435 18.6482C22.2923 18.8748 22.2963 19.1123 22.3777 19.3487C22.3891 19.3726 22.4048 19.3966 22.4286 19.4193C22.4735 19.4599 22.5312 19.4835 22.5918 19.486C22.6523 19.4885 22.7117 19.4696 22.7597 19.4327C22.8363 19.3743 22.8557 19.2977 22.8682 19.2233C22.9097 18.9048 22.9459 18.5856 22.9846 18.2668C23.1304 18.5786 23.3129 18.8718 23.5282 19.1403C23.6113 19.2332 23.6936 19.3189 23.7764 19.3519C23.9001 19.4014 24.0271 19.3802 24.1662 19.2875C24.1953 19.2669 24.2221 19.2433 24.2462 19.2172C24.2943 19.1648 24.3365 19.1071 24.3718 19.0453C24.4851 18.8508 24.5028 18.6368 24.4947 18.4274C24.4893 18.2857 24.4701 18.1449 24.4375 18.007C24.4075 17.8817 24.3676 17.759 24.3182 17.64C24.2688 17.5211 24.2098 17.4064 24.1418 17.297C24.0742 17.1874 23.9978 17.0835 23.9133 16.9863C23.8399 16.9065 23.7608 16.8685 23.6776 16.8752C23.6571 16.878 23.6372 16.8848 23.6193 16.8953C23.5521 16.9376 23.5353 16.9955 23.5401 17.0527C23.549 17.128 23.5632 17.2027 23.5822 17.2771L23.7664 17.9588ZM24.6515 17.691C24.721 17.7708 24.8163 17.8237 24.9208 17.8404L24.7893 18.1297C24.7674 18.1356 24.7466 18.1451 24.7278 18.1578C24.6372 18.2258 24.6214 18.3095 24.6486 18.3978C24.6562 18.419 24.6673 18.4392 24.6811 18.457C24.5929 18.6108 24.5143 18.7679 24.4901 18.9215C24.4705 19.045 24.5186 19.1776 24.5712 19.3032C24.5935 19.3541 24.6196 19.4036 24.6455 19.4529C24.6886 19.5296 24.7543 19.5911 24.8337 19.6288C25.0039 19.7012 25.2005 19.6861 25.3944 19.6204C25.5355 19.5659 25.6744 19.5056 25.8105 19.4397C25.9466 19.3737 26.0801 19.3021 26.1549 19.2596C26.2301 19.2172 26.2466 19.204 26.2608 19.1883C26.328 19.1065 26.3245 19.0097 26.2697 18.908C26.2547 18.8832 26.236 18.8609 26.2141 18.8419C26.104 18.7469 25.9722 18.7725 25.8476 18.7872C25.7136 18.8153 25.5844 18.8508 25.4529 18.8826C25.3162 18.9318 25.1794 18.9811 25.1526 18.9272C25.1255 18.8732 25.2079 18.716 25.2904 18.5589C25.3354 18.566 25.3807 18.5703 25.4261 18.5701C25.5758 18.57 25.7255 18.5724 25.8755 18.5696C25.8783 18.569 25.8812 18.5685 25.9013 18.5629C25.9458 18.551 26.0388 18.525 26.1102 18.5029C26.1479 18.4939 26.1984 18.4535 26.2155 18.417C26.2331 18.3794 26.2401 18.3378 26.2357 18.2966C26.2313 18.2554 26.2157 18.2161 26.1905 18.1832C26.139 18.1156 26.0695 18.0996 26.003 18.0886C25.8427 18.0757 25.6819 18.0715 25.5209 18.0631L25.5361 17.8995C25.6647 17.9068 25.794 17.9045 25.9229 17.8913C26.1084 17.8721 26.2817 17.8343 26.4556 17.8007C26.4931 17.7929 26.5319 17.7766 26.5683 17.745C26.6369 17.682 26.6526 17.62 26.6152 17.5453C26.5817 17.4878 26.5435 17.433 26.5011 17.3817C26.4351 17.3087 26.3535 17.2515 26.2623 17.2146C26.1711 17.1777 26.0727 17.1619 25.9745 17.1685C25.6245 17.1867 25.2852 17.1892 24.9291 17.2957C24.8437 17.3212 24.7596 17.3514 24.6776 17.3862C24.6443 17.4011 24.6178 17.4279 24.603 17.4613C24.5779 17.5274 24.5836 17.608 24.6515 17.691ZM20.4995 17.8834C21.0285 17.8211 21.5566 17.7628 22.0861 17.6966C22.1385 17.6857 22.2039 17.6709 22.2709 17.6099C22.3425 17.5417 22.3574 17.4841 22.3363 17.4173C22.3277 17.3891 22.2978 17.3506 22.252 17.3116C22.229 17.2924 22.2039 17.276 22.1771 17.2627C22.1472 17.2483 22.1158 17.2373 22.0835 17.2298C21.9262 17.1929 21.765 17.1752 21.6034 17.1773C21.477 17.1769 21.3506 17.1815 21.2246 17.1913C20.9422 17.2157 20.6637 17.2739 20.3951 17.3646C20.3015 17.398 20.2124 17.4426 20.1295 17.4974C20.0897 17.5236 20.0517 17.5523 20.0156 17.5834C19.9047 17.6807 19.8622 17.772 19.8347 17.8729C19.814 17.9742 19.8332 18.0795 19.8883 18.167C19.9156 18.21 19.9512 18.2481 19.9927 18.2778C20.0733 18.337 20.1734 18.3542 20.2673 18.3713C20.4523 18.4047 20.6406 18.3653 20.8266 18.366C20.9973 18.3675 21.171 18.3646 21.3437 18.4003C21.4988 18.4319 21.6476 18.4891 21.7839 18.5696C21.8323 18.6042 21.84 18.6475 21.8216 18.6946C21.8071 18.7292 21.7271 18.7926 21.6667 18.8304C21.6425 18.8456 21.6174 18.8594 21.5916 18.8718C21.192 19.0483 20.7669 19.0573 20.3467 18.9172C20.3342 18.9104 20.3223 18.9046 20.3095 18.8798C20.2992 18.8521 20.2924 18.8205 20.3356 18.7843C20.3769 18.7632 20.4224 18.7543 20.4669 18.7512C20.548 18.7475 20.6576 18.7676 20.7598 18.8155C20.9258 18.8884 21.1089 18.9132 21.2882 18.8872C21.3775 18.8741 21.4645 18.8486 21.5467 18.8115C21.5691 18.801 21.5873 18.7833 21.5982 18.7611C21.6092 18.739 21.6128 18.7139 21.6085 18.6896C21.6017 18.6549 21.57 18.6026 21.5081 18.5506C21.4432 18.4992 21.3587 18.4667 21.2762 18.4458C21.237 18.4366 21.1972 18.4301 21.1571 18.4265C21.0816 18.4186 21.0059 18.413 20.9301 18.41C20.7688 18.4041 20.6072 18.4109 20.447 18.4304C20.3873 18.4378 20.3526 18.445 20.3187 18.455C20.2847 18.4648 20.2515 18.4773 20.2194 18.4924C20.1883 18.5067 20.1583 18.5234 20.1298 18.5424C20.0017 18.6339 19.9644 18.7258 19.9527 18.8255C19.9506 18.8552 19.9529 18.8849 19.9595 18.9139C19.9661 18.9429 19.9769 18.9708 20.0011 19.0121C20.0249 19.0533 20.0623 19.1076 20.1055 19.1569C20.1488 19.2061 20.1983 19.2502 20.2517 19.2884C20.3125 19.3313 20.3785 19.3662 20.4481 19.3923C20.5333 19.4258 20.6459 19.4608 20.7609 19.4854C20.8756 19.51 20.9928 19.5241 21.1101 19.5273C21.2276 19.5304 21.3449 19.5226 21.4291 19.5129C21.5132 19.5032 21.5637 19.4915 21.6135 19.4776C21.711 19.4508 21.8057 19.4148 21.8963 19.3698C21.9359 19.3496 21.968 19.3305 21.9985 19.309C22.0292 19.2877 22.0585 19.2644 22.0861 19.2391C22.1754 19.1566 22.2239 19.0803 22.2532 19.0008C22.2638 18.9723 22.2723 18.943 22.2782 18.8932C22.2913 18.7939 22.2877 18.6322 22.2353 18.4994C22.2116 18.4346 22.1795 18.3733 22.1396 18.317C22.1024 18.2641 22.0575 18.2171 22.0064 18.1775C21.9051 18.0998 21.7836 18.0528 21.6563 18.0421C21.3817 18.0118 21.1059 17.9929 20.8301 17.9472C20.7194 17.9286 20.6092 17.9073 20.4995 17.8834ZM10.2702 18.396C10.2904 18.2574 10.3157 18.099 10.354 17.9417C10.3739 17.8609 10.3974 17.7811 10.419 17.7099C10.4407 17.6387 10.4602 17.576 10.4779 17.5128C10.4956 17.4498 10.5115 17.3862 10.5211 17.3435C10.5393 17.2631 10.5379 17.2417 10.5375 17.1941C10.5365 17.1549 10.5304 17.1124 10.5038 17.0728C10.4438 16.989 10.3658 16.9773 10.2879 16.9877C10.2282 16.997 10.1807 17.0499 10.1409 17.1027C10.1248 17.1237 10.1096 17.1451 10.095 17.1671C10.075 17.1975 10.057 17.2292 10.0413 17.262C10.016 17.3124 9.97947 17.3906 9.946 17.4702C9.84878 17.6999 9.77669 17.9559 9.72836 18.1921C9.71336 18.2699 9.70197 18.3482 9.69406 18.4268C9.67906 18.5785 9.67795 18.7253 9.67989 18.8643C9.68058 18.9312 9.68156 18.9983 9.68767 19.0569C9.69364 19.1155 9.70489 19.1655 9.72336 19.2129C9.74183 19.2602 9.76739 19.305 9.79919 19.3446C9.86044 19.4189 9.93058 19.4719 9.98808 19.4988C10.0863 19.5451 10.1736 19.5516 10.2758 19.5402C10.4128 19.5257 10.5446 19.4529 10.6811 19.3611C10.7128 19.3394 10.7435 19.3168 10.7889 19.2808C10.905 19.1882 11.0181 19.0919 11.1279 18.9919C11.124 19.0986 11.1249 19.2053 11.1306 19.3119C11.1364 19.4184 11.1471 19.5245 11.1568 19.5977C11.1665 19.6708 11.1751 19.7106 11.1865 19.7499C11.2114 19.833 11.2401 19.903 11.2893 19.9787C11.3154 20.0187 11.349 20.0623 11.3896 20.0981C11.4301 20.1341 11.4775 20.1624 11.5285 20.1813C11.5794 20.2002 11.6337 20.2094 11.6704 20.2119C11.7071 20.2144 11.726 20.2099 11.7437 20.203C11.7748 20.1897 11.8036 20.1726 11.8303 20.1276C11.8535 20.0876 11.8703 20.0347 11.8722 19.9862C11.8733 19.9609 11.871 19.9356 11.8703 19.8879C11.8696 19.8401 11.8704 19.7698 11.8701 19.6998C11.87 19.6295 11.8686 19.5594 11.8686 19.4515C11.8686 19.3437 11.87 19.198 11.8786 19.0528C11.896 18.7657 11.9407 18.4767 12.0108 18.1904C12.1608 18.1518 12.3107 18.1124 12.3921 18.0903C12.4736 18.0685 12.4866 18.064 12.4994 18.0586C12.5122 18.0532 12.5246 18.0472 12.5365 18.0403C12.5609 18.0268 12.6023 17.9928 12.6451 17.9493C12.8116 17.7752 12.8516 17.5848 12.7666 17.386C12.7427 17.3249 12.7113 17.2669 12.6732 17.2135C12.6546 17.188 12.6331 17.1649 12.609 17.1445C12.585 17.1244 12.5584 17.1077 12.5298 17.0949C12.4974 17.0804 12.4631 17.0705 12.4279 17.0656C12.3429 17.0512 12.2158 17.0512 12.1083 17.0949C12.0559 17.1151 12.0065 17.1427 11.9293 17.1991C11.8317 17.2716 11.7377 17.3489 11.6475 17.4305C11.4737 17.4157 11.3033 17.374 11.1424 17.307C11.1085 17.293 11.077 17.274 11.0489 17.2506C11.0246 17.2299 11.0041 17.205 10.9885 17.1771C10.9732 17.1492 10.9635 17.1181 10.9539 17.0987C10.9333 17.0598 10.9133 17.0583 10.8917 17.0491C10.8669 17.0409 10.8401 17.0413 10.8156 17.0503C10.7793 17.0649 10.741 17.0769 10.7049 17.1348C10.685 17.1663 10.6625 17.2146 10.6524 17.251C10.6422 17.2874 10.6445 17.3117 10.6485 17.3506C10.6525 17.3896 10.6581 17.4435 10.6738 17.4945C10.7067 17.5973 10.7639 17.6748 10.8783 17.7546C10.9356 17.7952 11.0096 17.8404 11.0842 17.8845C11.1589 17.9282 11.2343 17.9706 11.3108 18.011C11.2569 18.1998 11.2144 18.3916 11.1837 18.5856L10.9635 18.5647L10.4499 18.7369C10.3915 18.7632 10.3253 18.7662 10.2589 18.7343C10.2129 18.7026 10.2053 18.6599 10.2375 18.6144L10.2447 18.5918C10.252 18.5275 10.2604 18.4636 10.2702 18.396ZM5.46832 16.7365L5.46484 16.7363L5.55734 16.7737C5.5303 16.7557 5.50009 16.7431 5.46832 16.7365Z" fill="white"/>
<path fill-rule="evenodd" clip-rule="evenodd" d="M9.65147 18.9342C9.65031 18.8614 9.6485 18.7887 9.64606 18.7159C9.64526 18.6813 9.64308 18.6467 9.63953 18.6123C9.63675 18.5873 9.633 18.5626 9.59758 18.3745C9.55075 18.1258 9.50274 17.8774 9.45356 17.6291C9.41231 17.4226 9.39676 17.3608 9.3787 17.2997C9.34258 17.1775 9.29612 17.0585 9.23982 16.9441C9.22866 16.9268 9.21439 16.9117 9.19773 16.8996C9.18094 16.8876 9.16212 16.8789 9.14218 16.8737C9.10121 16.8635 9.04066 16.8705 8.97982 16.8932C8.94751 16.906 8.91764 16.9242 8.89149 16.9471C8.83066 16.9983 8.79622 17.0828 8.739 17.1504C8.70816 17.1901 8.67553 17.2284 8.63844 17.2718C8.59802 17.3185 8.55884 17.3662 8.52095 17.415C8.48206 17.4657 8.44581 17.5186 8.39178 17.6033C8.33776 17.688 8.26609 17.8047 8.19832 17.9238C8.13066 18.0429 8.06697 18.1641 8.00735 18.2873L7.84527 18.2737C7.93472 18.0079 7.9948 17.733 8.02443 17.4541C8.05443 17.1709 8.05513 16.8708 8.01443 16.5655C7.99318 16.4103 7.95985 16.2565 7.91458 16.1065C7.8693 15.9565 7.81194 15.8101 7.76638 15.7057C7.7329 15.6271 7.69416 15.5508 7.65042 15.4774C7.57496 15.3505 7.48727 15.2313 7.38862 15.1216C7.33153 15.0563 7.26209 14.9809 7.19223 14.9059C7.12237 14.8309 7.0521 14.7563 6.99779 14.7035C6.94349 14.6507 6.90516 14.6196 6.86363 14.5937C6.8221 14.5677 6.77752 14.5466 6.73086 14.5313C6.68952 14.518 6.64709 14.5084 6.60405 14.5025C6.54808 14.4955 6.53281 14.5037 6.50128 14.5212C6.45573 14.5521 6.44128 14.5921 6.45517 14.6341C6.45836 14.6431 6.46323 14.6517 6.49295 14.6878C6.52267 14.7241 6.57753 14.7877 6.63142 14.8523C6.73475 14.9759 6.82405 15.0928 6.88488 15.201C6.91488 15.2529 6.94266 15.306 6.97654 15.3765C7.01029 15.4468 7.05001 15.5345 7.08904 15.6224C7.16446 15.7931 7.23418 15.9549 7.27793 16.1088C7.29945 16.1838 7.3164 16.2599 7.3289 16.3368C7.3414 16.4137 7.34945 16.4912 7.35403 16.5769C7.36723 16.8408 7.35362 17.1343 7.30973 17.4122C7.26583 17.6953 7.17821 17.9698 7.05001 18.2259C6.8528 18.6079 6.54528 18.9218 6.1674 19.1267C6.03819 19.1985 5.89313 19.2369 5.74533 19.2385C5.67619 19.2402 5.60746 19.2276 5.54339 19.2016C5.51269 19.1894 5.48325 19.1742 5.45547 19.1563C5.41091 19.1277 5.37425 19.0883 5.34887 19.0418C5.32349 18.9953 5.31019 18.9432 5.3102 18.8902C5.45483 18.7696 5.58977 18.6378 5.7138 18.4961C5.83394 18.3583 5.93588 18.2238 6.01338 18.0988C6.05143 18.0379 6.08699 17.9751 6.1206 17.9115C6.15434 17.8477 6.18629 17.7829 6.21795 17.6918C6.24962 17.6004 6.28087 17.4827 6.29504 17.3627C6.3092 17.2428 6.30601 17.1205 6.28587 17.0014C6.26687 16.8941 6.23709 16.789 6.19698 16.6878C6.16546 16.6096 6.1399 16.569 6.10935 16.5329C6.07866 16.4967 6.04293 16.4651 6.00324 16.439C5.87421 16.3568 5.72213 16.3387 5.57492 16.3521C5.5245 16.3569 5.4745 16.3665 5.38881 16.3975C5.30312 16.4287 5.18187 16.4814 5.07201 16.5525C4.96186 16.6239 4.86398 16.7126 4.78216 16.8153C4.70742 16.9112 4.6439 17.0153 4.59286 17.1257C4.54967 17.2183 4.52786 17.2882 4.50786 17.3583C4.44995 17.5602 4.40342 17.7791 4.39856 17.9852C4.39689 18.0522 4.39925 18.1194 4.40634 18.1859C4.41342 18.2526 4.42509 18.3187 4.4437 18.4434C4.46231 18.5679 4.48772 18.7508 4.51244 18.9338C4.4674 18.984 4.40768 19.0188 4.34176 19.0331C4.30912 19.0405 4.27509 19.0428 4.22037 19.0347C4.16551 19.0262 4.0901 19.0072 4.02024 18.9749C3.95038 18.9427 3.88635 18.8976 3.83163 18.8431C3.77685 18.7885 3.73177 18.7249 3.6983 18.6551C3.62594 18.5109 3.62622 18.3466 3.62219 18.1901C3.62172 18.1088 3.62515 18.0276 3.63247 17.9466C3.63969 17.8658 3.65094 17.7852 3.67122 17.6791C3.69136 17.573 3.72052 17.4415 3.75344 17.3108C3.78635 17.1801 3.82288 17.0503 3.87343 16.9036C3.92385 16.7569 3.98843 16.5936 4.06565 16.4362C4.14287 16.2789 4.23287 16.1276 4.33481 15.9851C4.42579 15.8601 4.523 15.7396 4.62605 15.6243C4.70147 15.5396 4.73813 15.5039 4.77494 15.4682L4.87521 15.3721C4.9109 15.3395 4.94388 15.304 4.97382 15.266C5.03549 15.1888 5.06049 15.1388 5.01688 15.0677C4.98868 15.0278 4.95007 15.0202 4.91341 15.0174C4.90007 15.0168 4.8866 15.0179 4.85563 15.0267C4.76416 15.0541 4.67621 15.0922 4.59355 15.14C4.48939 15.2024 4.3937 15.2778 4.29662 15.3513C4.24275 15.3931 4.18995 15.4362 4.13829 15.4807C4.05199 15.5546 3.97182 15.6353 3.89857 15.7221C3.86274 15.7645 3.82844 15.8081 3.77399 15.887C3.70437 15.9878 3.63854 16.0912 3.57664 16.1969C3.50817 16.3144 3.44608 16.4356 3.39025 16.5594C3.28888 16.7854 3.2061 17.0192 3.14276 17.2586C3.11559 17.3593 3.09091 17.4607 3.06873 17.5626C3.03765 17.7031 3.01709 17.8457 3.00721 17.9893C2.98776 18.2536 3.00415 18.5134 3.09984 18.7847C3.12304 18.8472 3.15151 18.9074 3.18679 18.9635C3.22206 19.0197 3.26415 19.0716 3.31178 19.1176C3.40914 19.211 3.51817 19.2744 3.62094 19.3215C3.6733 19.3458 3.72691 19.3673 3.78149 19.3862C3.93607 19.4395 4.07787 19.4676 4.2212 19.4396C4.34689 19.4148 4.4512 19.3605 4.55758 19.3381C4.5923 19.3296 4.62716 19.3224 4.66244 19.3165C4.703 19.3635 4.74424 19.4098 4.78591 19.4559C4.82758 19.502 4.86952 19.5478 4.92813 19.603C4.98674 19.6581 5.06215 19.7224 5.14507 19.7751C5.22798 19.8275 5.31867 19.8685 5.41298 19.8978C5.50742 19.9271 5.60533 19.9448 5.73866 19.9462C5.87199 19.9475 6.0406 19.9324 6.2049 19.8967C6.36923 19.8611 6.52824 19.8043 6.67794 19.7277C6.8271 19.6512 6.96571 19.5546 7.0614 19.4808C7.1571 19.4069 7.21015 19.3555 7.26195 19.303C7.36212 19.203 7.45591 19.0969 7.54278 18.9852C7.61153 18.8965 7.64319 18.8434 7.68208 18.7729C7.70097 18.7381 7.71833 18.7026 7.7343 18.6663L7.88277 18.7099L7.73805 19.1763C7.71882 19.2367 7.71197 19.3003 7.71791 19.3633C7.72385 19.4264 7.74247 19.4876 7.77263 19.5433C7.7918 19.5778 7.81486 19.6071 7.84263 19.6309C7.89985 19.6798 7.97555 19.703 8.04624 19.6969C8.08263 19.6938 8.11818 19.6831 8.14415 19.6717C8.17012 19.6603 8.18637 19.6482 8.20151 19.6348C8.27234 19.5728 8.2897 19.5028 8.31956 19.4337C8.37456 19.2895 8.43345 19.1444 8.4847 19.0012C8.49095 18.9817 8.4965 18.9622 8.50192 18.9426L9.10315 18.9313C9.10996 19.0034 9.11704 19.0753 9.12149 19.1166C9.12579 19.158 9.12732 19.1685 9.1294 19.179C9.13437 19.2045 9.14253 19.2292 9.15371 19.2527C9.16357 19.2751 9.17954 19.3095 9.19676 19.3435C9.21412 19.3774 9.23259 19.4108 9.24884 19.4362C9.2844 19.4921 9.31218 19.5135 9.34731 19.5355C9.42203 19.5758 9.49731 19.5977 9.57772 19.4901C9.60161 19.4555 9.61189 19.4314 9.62217 19.3981C9.63453 19.3573 9.64536 19.3042 9.64981 19.2562C9.65217 19.2315 9.65328 19.2067 9.65356 19.1531C9.65383 19.099 9.653 19.0166 9.65147 18.9342ZM5.16534 18.3411C5.14564 18.2654 5.13093 18.1886 5.12132 18.1111C5.10174 17.9524 5.10323 17.7918 5.12576 17.6336C5.13729 17.5462 5.15423 17.4496 5.17465 17.3534C5.19507 17.2576 5.21881 17.1623 5.23562 17.1C5.26131 16.9981 5.30035 16.9 5.35173 16.8083C5.35909 16.7954 5.36826 16.7835 5.37895 16.7732C5.40562 16.7517 5.42464 16.7323 5.4645 16.7364L5.4577 16.7335C5.47635 16.7301 5.49556 16.7321 5.51313 16.7392C5.53069 16.7463 5.5459 16.7582 5.557 16.7736C5.5845 16.8115 5.60269 16.8496 5.61339 16.8908C5.63366 17.0035 5.63436 17.1037 5.62894 17.213C5.62658 17.2564 5.62283 17.2997 5.61408 17.3643C5.60306 17.4432 5.58986 17.5219 5.5745 17.6001C5.5587 17.6825 5.53886 17.7641 5.51506 17.8445C5.495 17.9126 5.46796 17.9784 5.43436 18.0409C5.40172 18.1003 5.36234 18.1557 5.31701 18.2061C5.27179 18.2567 5.2209 18.302 5.16534 18.3411ZM8.98774 18.2845C8.92149 18.334 8.86011 18.3223 8.81261 18.2619L8.95149 17.9851L9.01232 18.2534C9.00594 18.2651 8.99763 18.2756 8.98774 18.2845Z" fill="white"/>
<path fill-rule="evenodd" clip-rule="evenodd" d="M18.8967 17.7672C18.8118 17.5153 18.6954 17.2557 18.4917 17.0051C18.2497 16.6723 17.9583 16.3784 17.6275 16.1336C17.4019 15.9479 17.1633 15.7784 16.9135 15.6264C16.7887 15.5505 16.6613 15.4789 16.5316 15.4119C16.2145 15.251 15.8846 15.1168 15.5452 15.0106C14.8653 14.7984 14.1547 14.7012 13.4428 14.7233C13.1904 14.7254 12.9397 14.7654 12.6992 14.8419C12.6202 14.8677 12.5438 14.8985 12.4695 14.9337C12.3205 15.0039 12.1802 15.0912 12.0514 15.1938C11.9726 15.2521 11.9596 15.3244 11.9891 15.4026C12.0046 15.4457 12.0552 15.4826 12.1053 15.5057C12.1308 15.5181 12.1677 15.5281 12.2101 15.5327C12.3178 15.5398 12.4413 15.5039 12.5617 15.4317C12.5889 15.4127 12.6321 15.3731 12.6199 15.3362C12.6182 15.3196 12.595 15.2908 12.5709 15.2874C12.5292 15.277 12.4852 15.2798 12.4452 15.2955C12.5197 15.2457 12.6023 15.2092 12.6893 15.1878C12.7327 15.177 12.7771 15.1701 12.8848 15.1638C12.9924 15.1576 13.1635 15.1521 13.3345 15.1571C13.6766 15.1678 14.0165 15.2169 14.3476 15.3035C14.6376 15.3862 14.9245 15.4795 15.2076 15.5832C15.4629 15.6772 15.7155 15.7782 15.9652 15.886C16.1606 15.9705 16.2722 16.025 16.3815 16.0842C16.5999 16.2027 16.8077 16.3397 17.0027 16.4938C17.1237 16.5936 17.2446 16.6935 17.3591 16.8C17.4735 16.9068 17.5816 17.0206 17.6895 17.1342C17.8618 17.3234 17.999 17.5418 18.0947 17.7791C18.1789 17.9771 18.189 18.1987 18.1232 18.4034C18.0905 18.505 18.0401 18.5999 17.9743 18.6838C17.9086 18.7676 17.8281 18.8393 17.6991 18.9169C17.5702 18.9942 17.3925 19.0774 17.2089 19.1434C16.841 19.2757 16.4514 19.3375 16.0606 19.3256C15.8042 19.3158 15.5485 19.2924 15.2945 19.2555L15.2812 17.874C15.7874 17.916 16.2866 18.02 16.7676 18.1834C16.7416 18.2378 16.703 18.2851 16.6549 18.3214C16.6205 18.348 16.5869 18.3773 16.5537 18.4101C16.544 18.4231 16.5379 18.4384 16.536 18.4545C16.5341 18.4706 16.5364 18.4869 16.5428 18.5018C16.5474 18.5118 16.5537 18.5213 16.567 18.5336C16.5803 18.5458 16.6003 18.5609 16.6216 18.574C16.6794 18.6073 16.7594 18.6231 16.8419 18.6187C16.9677 18.607 17.082 18.5433 17.2042 18.425C17.2389 18.3895 17.268 18.3489 17.2902 18.3047C17.3682 18.1443 17.3656 17.9526 17.2242 17.7693C17.1988 17.7362 17.1704 17.7054 17.1393 17.6775C17.1082 17.6498 17.0746 17.6249 17.0389 17.6033C16.8484 17.4948 16.6442 17.4121 16.4319 17.3574C16.3218 17.3299 16.2104 17.3084 16.098 17.2929C15.8381 17.2547 15.5759 17.234 15.3132 17.2308C15.3056 17.0116 15.2765 16.7937 15.2262 16.5802C15.2117 16.5143 15.191 16.4499 15.1644 16.3878C15.147 16.3464 15.1359 16.326 15.12 16.2957C15.1008 16.2567 15.0498 16.2059 15.0032 16.1861C14.9565 16.1654 14.9041 16.1591 14.8459 16.2146C14.8362 16.2251 14.8283 16.2372 14.8225 16.2503C14.7732 16.3702 14.7354 16.4945 14.7097 16.6215C14.6969 16.685 14.6875 16.749 14.6776 16.8252C14.6582 16.9793 14.6353 17.1669 14.6061 17.3394C14.3682 17.3667 14.1329 17.4136 13.9028 17.4797C13.7392 17.5278 13.5812 17.5932 13.4314 17.6747C13.3189 17.7352 13.2154 17.8112 13.1239 17.9004C13.0828 17.9429 13.0519 17.9943 13.0337 18.0506C13.0154 18.1069 13.0103 18.1667 13.0186 18.2252C13.0325 18.3182 13.0759 18.4008 13.1396 18.4895C13.1571 18.5129 13.1761 18.5352 13.2122 18.5734C13.2484 18.6115 13.3017 18.6656 13.3557 18.719C13.4596 18.8212 13.5574 18.9136 13.6482 18.987C13.692 19.0227 13.7371 19.0567 13.7832 19.0892C13.8295 19.1216 13.8767 19.1526 13.9546 19.2006C14.1609 19.3262 14.3687 19.4494 14.5779 19.5702L14.595 19.6469L14.6176 19.7467C14.6273 19.7891 14.6403 19.8435 14.6532 19.8981C14.6703 19.9659 14.7094 20.0261 14.7644 20.0692C14.8547 20.138 14.9641 20.1517 15.0633 20.1157C15.0998 20.1025 15.138 20.0823 15.1718 20.056C15.2055 20.0299 15.2348 19.9978 15.258 19.9619C15.2812 19.9259 15.2983 19.886 15.3086 19.8444C15.5724 19.8813 15.8378 19.906 16.104 19.9181C16.2991 19.9278 16.4946 19.9221 16.6888 19.9012C16.9495 19.8719 17.2349 19.8177 17.4971 19.7171C17.8409 19.588 18.1565 19.3937 18.4267 19.1449C18.4756 19.099 18.5219 19.0502 18.5656 18.9991C18.6528 18.8969 18.729 18.7859 18.7929 18.6677C18.9496 18.3904 18.9875 18.0775 18.8967 17.7672ZM14.0444 18.8644C13.9636 18.8236 13.8858 18.7766 13.8172 18.7315C13.7486 18.6863 13.6889 18.643 13.6313 18.5969C13.5244 18.5108 13.4254 18.4154 13.3354 18.3118C13.3077 18.2793 13.3022 18.2684 13.299 18.257C13.2939 18.24 13.2937 18.2218 13.2986 18.2047C13.3034 18.1875 13.3131 18.1721 13.3264 18.1602C13.335 18.1523 13.3453 18.1462 13.391 18.1286C13.5917 18.0517 13.8001 17.997 14.0126 17.9654C14.0551 17.959 14.0797 17.9564 14.1294 17.9519C14.196 17.9461 14.2626 17.9413 14.3293 17.9373C14.4044 17.9332 14.4797 17.9307 14.5548 17.93L14.555 19.0365C14.3775 19.0034 14.2057 18.9455 14.0444 18.8644ZM21.0217 15.6688C21.0177 15.6252 21.0051 15.5828 20.9845 15.5441C20.9665 15.5105 20.9432 15.48 20.9156 15.4538C20.8743 15.4143 20.8239 15.3856 20.7688 15.3703C20.7137 15.355 20.6557 15.3536 20.5999 15.3662C20.5836 15.3244 20.5575 15.2873 20.5236 15.2579C20.4898 15.2285 20.4494 15.2077 20.4058 15.1974C20.309 15.1726 20.2097 15.1596 20.1098 15.1587C20.0459 15.1582 19.982 15.163 19.9188 15.1731C19.8277 15.1862 19.6954 15.2099 19.5668 15.2471C19.4382 15.2844 19.3135 15.3351 19.1943 15.3971C19.0755 15.4591 18.9624 15.5326 18.8574 15.6157C18.8143 15.6509 18.7738 15.6891 18.7361 15.73C18.5747 15.9087 18.4786 16.1056 18.4763 16.2949C18.4749 16.345 18.4794 16.3954 18.4857 16.4367C18.4982 16.5153 18.5167 16.5703 18.5418 16.6347C18.5681 16.7002 18.6096 16.7753 18.6536 16.8572L18.7174 16.975C18.7331 17.0047 18.7412 17.02 18.7518 17.0332C18.7626 17.0465 18.7759 17.0576 18.7908 17.066C18.8233 17.0863 18.8804 17.0901 18.9386 17.0822C18.9714 17.0772 19.0037 17.0671 19.0336 17.0521C19.0635 17.0374 19.0911 17.0179 19.1136 16.9913C19.1361 16.9645 19.1537 16.9304 19.1754 16.9238C19.1973 16.9171 19.2235 16.9382 19.2503 16.9528C19.2771 16.9674 19.3046 16.9758 19.3328 16.9814C19.3607 16.9871 19.3891 16.9899 19.435 16.9899C19.4805 16.9899 19.5434 16.987 19.5977 16.9836C19.6518 16.9803 19.6971 16.9763 19.7282 16.9728C19.7593 16.9693 19.7768 16.966 19.8147 16.9588C19.8927 16.945 20.0298 16.9147 20.1391 16.8688C20.2501 16.8257 20.3794 16.7518 20.5122 16.6468C20.644 16.5412 20.7595 16.4167 20.8551 16.2774C20.9492 16.142 21.0016 16.01 21.0192 15.8699C21.0278 15.8032 21.0286 15.7357 21.0217 15.6688ZM19.2126 16.0218C19.1149 16.1108 19.0232 16.2063 18.9383 16.3075C18.9668 16.1912 19.0188 16.0818 19.0911 15.9862C19.1633 15.8906 19.2543 15.8108 19.3584 15.7516C19.5149 15.6628 19.686 15.6028 19.8636 15.5745C19.6273 15.6935 19.4084 15.844 19.2126 16.0218ZM20.5063 15.975C20.4978 16.0232 20.4797 16.0691 20.4531 16.1102C20.4265 16.1513 20.392 16.1866 20.3516 16.2142C20.2844 16.2581 20.2173 16.3021 20.1476 16.3416C20.009 16.416 19.8715 16.4922 19.7241 16.519C19.5792 16.5479 19.4296 16.5424 19.2872 16.5031C19.4967 16.2 19.7999 15.974 20.1502 15.8598C20.2346 15.8328 20.3241 15.8262 20.4115 15.8406C20.4266 15.8431 20.4411 15.8485 20.454 15.8567C20.467 15.8648 20.4782 15.8754 20.4871 15.8879C20.4959 15.9005 20.5021 15.9146 20.5055 15.9296C20.5088 15.9445 20.5091 15.96 20.5063 15.975ZM28.9834 18.1283C28.9809 18.0441 28.9675 17.9605 28.9436 17.8797C28.8949 17.7177 28.8045 17.5713 28.6815 17.4551C28.5629 17.3537 28.4176 17.3254 28.2737 17.3683C28.2276 17.3828 28.184 17.4051 28.0717 17.4892C27.9593 17.5732 27.7785 17.719 27.6035 17.8716C27.4283 18.0241 27.2592 18.1832 27.0963 18.3487C27.1329 18.2416 27.1746 18.1362 27.2221 18.0334C27.2693 17.9308 27.3225 17.8308 27.3627 17.7568C27.4025 17.6828 27.4293 17.6347 27.4535 17.5854C27.4776 17.5361 27.4988 17.4853 27.5124 17.4493C27.5385 17.38 27.5392 17.3507 27.5382 17.3033C27.5371 17.2811 27.5336 17.2592 27.529 17.2422C27.5245 17.2253 27.519 17.2133 27.5111 17.2031C27.4588 17.1383 27.3842 17.1633 27.3161 17.2072C27.2963 17.2219 27.2778 17.2385 27.2611 17.2567C27.1765 17.3437 27.0946 17.4334 27.0156 17.5255C26.8864 17.6794 26.7769 17.8488 26.6895 18.0297C26.6463 18.1201 26.6089 18.2133 26.5853 18.2777C26.5617 18.342 26.552 18.3775 26.5443 18.4133C26.5283 18.4886 26.5225 18.5658 26.5273 18.6427C26.5321 18.7386 26.5498 18.8659 26.5799 18.9786C26.5948 19.0352 26.6127 19.0912 26.6336 19.1459C26.5546 19.3146 26.4845 19.4872 26.4237 19.6633C26.3627 19.8391 26.3115 20.0183 26.2702 20.1998C26.235 20.3573 26.2057 20.5162 26.1825 20.676C26.1669 20.7871 26.166 20.8253 26.1687 20.8634C26.1789 21.0295 26.2584 21.1992 26.4199 21.37C26.53 21.4726 26.6659 21.4692 26.8032 21.3543C26.8761 21.0729 26.95 20.7927 27.017 20.5118L27.0845 20.2873C27.1072 20.2125 27.1414 20.1416 27.1854 20.0321C27.2296 19.9227 27.289 19.7766 27.3488 19.6303C27.4817 19.6054 27.6136 19.5755 27.7443 19.5408C27.8401 19.5156 27.9327 19.4794 28.0201 19.433C28.0622 19.4106 28.1032 19.3858 28.1574 19.3483C28.2115 19.3108 28.2794 19.2603 28.3455 19.2079C28.4087 19.1576 28.4702 19.1053 28.5297 19.0508C28.6248 18.9648 28.7094 18.8679 28.7819 18.7622C28.9327 18.5452 28.9937 18.3433 28.9834 18.1283ZM28.4187 18.4408C28.3821 18.4991 28.3368 18.5518 28.2844 18.5966C28.192 18.6721 28.0956 18.7424 27.9955 18.8074C27.9614 18.8297 27.9222 18.843 27.8816 18.8461C27.841 18.8493 27.8002 18.8422 27.7631 18.8255C27.9027 18.5101 28.1019 18.2245 28.3498 17.9847C28.3903 17.9471 28.4244 17.95 28.4565 17.9598C28.489 17.9679 28.5237 18.0171 28.5222 18.0476C28.5284 18.1861 28.4923 18.3233 28.4187 18.4408Z" fill="white"/>
</g>
<defs>
<clipPath id="clip0">
<rect width="26" height="18.4827" fill="white" transform="translate(3 5)"/>
</clipPath>
</defs>
</svg>
