<svg width="32" height="32" viewBox="0 0 32 32" fill="none" xmlns="http://www.w3.org/2000/svg">
<path d="M0 16C0 24.8365 7.16344 32 16 32C24.8365 32 32 24.8365 32 16C32 7.16344 24.8365 0 16 0C7.16344 0 0 7.16344 0 16Z" fill="#E00D7B"/>
<path d="M24.858 15.5681H27.058V17.7681H24.858V15.5681ZM18.234 15.5681H20.434V17.7681H18.234V15.5681ZM11.61 15.5681H13.81V17.7681H11.61V15.5681ZM10.1999 19.1101C10.1999 19.8101 10.3026 20.2655 10.508 20.4761C10.7585 20.6847 11.074 20.7992 11.3999 20.8001C11.524 20.8121 11.7339 20.8161 12.0319 20.8161V21.4301H6.70594V20.8201C7.0225 20.8285 7.33917 20.8078 7.65193 20.7581C7.83879 20.7298 8.01284 20.646 8.15154 20.5176C8.29025 20.3892 8.38723 20.2222 8.42994 20.0381C8.49606 19.7334 8.52427 19.4217 8.51394 19.1101V11.0881C7.6126 11.1148 6.90661 11.4141 6.39593 11.9861C5.91193 12.5288 5.6166 13.3674 5.50994 14.5021L4.93394 14.4001L5.04194 10.5621H13.69L13.7999 14.4001L13.2239 14.4981C13.1173 13.3674 12.8206 12.5288 12.3339 11.9821C11.8193 11.4115 11.108 11.1135 10.1999 11.0881V19.1101ZM4.94393 15.5681H7.14393V17.7681H4.94393V15.5681Z" fill="white"/>
</svg>
