<svg width="32" height="32" viewBox="0 0 32 32" fill="none" xmlns="http://www.w3.org/2000/svg">
<path d="M0 16C0 24.8365 7.16344 32 16 32C24.8365 32 32 24.8365 32 16C32 7.16344 24.8365 0 16 0C7.16344 0 0 7.16344 0 16Z" fill="#EFEFEF"/>
<path d="M18.7476 23.0014C25.4107 20.1262 29.4369 14.608 27.7402 10.6761C26.0436 6.74403 19.2666 5.88727 12.6035 8.76241C5.94029 11.6376 1.91412 17.1558 3.61075 21.0878C5.30739 25.0198 12.0843 25.8765 18.7476 23.0014Z" fill="url(#paint0_linear)"/>
<path d="M27.282 10.8737C25.682 7.15375 19.18 6.37976 12.77 9.14576C6.35996 11.9118 2.46597 17.1678 4.07196 20.8878C5.67797 24.6078 12.1739 25.3818 18.5819 22.6158C24.9899 19.8497 28.8859 14.5998 27.282 10.8737ZM21.442 17.1658C21.1257 17.6082 20.7724 18.0231 20.386 18.4058C19.73 19.0058 19.052 19.3338 18.146 19.6517C17.2993 19.959 16.4115 20.1383 15.512 20.1838C15.092 20.2017 6.93797 20.7498 4.91196 20.8638C5.73196 19.7377 7.78796 16.9998 8.73797 15.7797C10.298 15.6878 16.754 15.2778 19.012 15.1438C19.378 15.1217 20.976 14.9998 21.586 15.2817C21.733 15.3389 21.8568 15.4435 21.9376 15.5791C22.0184 15.7146 22.0516 15.8732 22.032 16.0298C22.024 16.4378 21.682 16.8337 21.442 17.1658ZM25.776 11.4378C25.4815 11.8829 25.1467 12.2999 24.776 12.6837C24.1603 13.2545 23.4262 13.6819 22.626 13.9358C21.7482 14.242 20.8307 14.4193 19.9019 14.4618C19.48 14.4817 11.328 15.0298 9.30197 15.1438C10.1179 14.0177 12.2699 11.1438 13.22 9.94377C14.78 9.85172 21.108 9.43375 23.3659 9.29976C23.732 9.27775 25.1339 9.17775 25.744 9.45972C25.9126 9.53389 26.0568 9.65408 26.1602 9.80655C26.2635 9.95911 26.3217 10.1377 26.328 10.3217C26.33 10.7198 26.0139 11.1057 25.776 11.4378Z" fill="white"/>
<path d="M16 0.666666C24.4 0.666666 31.3334 7.6 31.3334 16C31.3334 24.4 24.4 31.3334 16 31.3334C7.6 31.3334 0.666666 24.4 0.666666 16C0.666666 7.6 7.6 0.666666 16 0.666666ZM16 0C7.2 0 0 7.2 0 16C0 24.8 7.2 32 16 32C24.8 32 32 24.8 32 16C32 7.2 24.8 0 16 0Z" fill="#999999"/>
<defs>
<linearGradient id="paint0_linear" x1="3.01135" y1="15.809" x2="28.1001" y2="15.4017" gradientUnits="userSpaceOnUse">
<stop stop-color="#0066B6"/>
<stop offset="1" stop-color="#002973"/>
</linearGradient>
</defs>
</svg>
