<svg width="32" height="32" viewBox="0 0 32 32" fill="none" xmlns="http://www.w3.org/2000/svg">
<path d="M0 16C0 24.8365 7.16344 32 16 32C24.8365 32 32 24.8365 32 16C32 7.16344 24.8365 0 16 0C7.16344 0 0 7.16344 0 16Z" fill="#EFEFEF"/>
<path d="M16 0.666666C24.4 0.666666 31.3334 7.6 31.3334 16C31.3334 24.4 24.4 31.3334 16 31.3334C7.6 31.3334 0.666666 24.4 0.666666 16C0.666666 7.6 7.6 0.666666 16 0.666666ZM16 0C7.2 0 0 7.2 0 16C0 24.8 7.2 32 16 32C24.8 32 32 24.8 32 16C32 7.2 24.8 0 16 0Z" fill="#999999"/>
<path d="M17.2419 26.6921H19.0159V17.1122H17.2419V26.6921ZM15.1119 26.6921H16.8879V14.9822H15.1119V26.6921ZM12.9839 26.6921H14.7579V17.1122H12.9839V26.6921Z" fill="#D8BA6C"/>
<path d="M23.2741 16.0458L21.5 17.8198V11.7818H23.276L23.2741 16.0458ZM21.1461 18.1818L19.3701 19.9578V9.65183H21.1461V18.1818ZM17.2421 16.7558H19.0181V7.52778H17.2421V16.7558ZM15.112 14.6278H16.886V5.39978H15.112V14.6278ZM12.984 16.7558H14.758V7.52778H12.984V16.7558ZM12.628 19.9558L10.854 18.1798V9.65183H12.628V19.9558ZM8.72404 11.7818V16.0458L10.4981 17.8198V11.7818" fill="black"/>
</svg>
