<svg width="32" height="32" viewBox="0 0 32 32" fill="none" xmlns="http://www.w3.org/2000/svg">
<path d="M0 16C0 24.8365 7.16344 32 16 32C24.8365 32 32 24.8365 32 16C32 7.16344 24.8365 0 16 0C7.16344 0 0 7.16344 0 16Z" fill="#EFEFEF"/>
<path d="M16 0.666666C24.4 0.666666 31.3334 7.6 31.3334 16C31.3334 24.4 24.4 31.3334 16 31.3334C7.6 31.3334 0.666666 24.4 0.666666 16C0.666666 7.6 7.6 0.666666 16 0.666666ZM16 0C7.2 0 0 7.2 0 16C0 24.8 7.2 32 16 32C24.8 32 32 24.8 32 16C32 7.2 24.8 0 16 0Z" fill="#999999"/>
<path d="M24.7019 17.0863C24.6879 17.0422 24.6719 17.0002 24.6559 16.9583C23.188 18.6342 19.5839 19.7183 16.3419 19.4762C14.4299 19.3362 10.8939 18.3462 9.10995 17.2543C10.9644 19.0704 13.2279 20.4147 15.7099 21.1743C18.6799 22.0562 21.8459 21.9962 23.6319 21.0662C24.938 20.1842 25.2319 18.6082 24.7119 17.0863" fill="#F58A1F"/>
<path d="M20.6181 6.54438C26.464 9.99835 22.9861 20.8563 18.336 24.3443C14 27.6003 9.40005 26.0944 8.40005 23.1024C9.27205 24.3984 11 24.8704 12.5401 24.3544C16.8101 22.6424 19.0121 14.9043 19.296 12.2163C19.496 9.90235 19.184 8.34637 18.382 7.36438C17.462 6.39238 16.0501 5.92237 13.982 6.56438C15.4 5.40038 18.438 5.26237 20.606 6.54038" fill="#284DA0"/>
<path d="M23.888 20.9141L23.96 20.868H23.972C24.0945 20.7875 24.2108 20.6979 24.32 20.6001C24.372 20.5521 24.424 20.5 24.476 20.4501C26.748 18.1421 27.232 11.7261 21.628 8.68208C19.628 7.59808 14.998 6.08208 10.374 8.42208C8.84402 9.20008 7.26601 10.8001 6.41602 12.9781C7.04402 11.9421 8.12802 11.2401 10.266 10.9381C12.4 10.6701 15.338 11.0001 18.214 12.0141C19.8504 12.5879 21.381 13.4279 22.744 14.5C23.71 15.3301 24.344 16.1181 24.656 16.9581C24.672 17.0001 24.688 17.0421 24.702 17.0861C25.226 18.6081 24.928 20.1841 23.622 21.0661C23.682 21.0341 23.742 21.0021 23.806 20.964L23.834 20.948L23.888 20.9141Z" fill="#EB1B3A"/>
<path d="M7.14001 16.6679C7.29615 16.8933 7.46649 17.1084 7.65001 17.312C8.77201 14.67 14.9241 12.954 16.738 12.976C12.662 11.664 8.66601 12.29 7.06001 13.682C6.47601 14.334 6.29401 15.3079 7.14001 16.6679Z" fill="#F58A1F"/>
<path d="M19.14 22.658C15.864 22.476 11.09 21.212 7.71202 17.3821L7.65001 17.312C7.46649 17.1085 7.29615 16.8933 7.14002 16.668C6.29401 15.306 6.47602 14.3341 7.06002 13.682C6.91957 13.8022 6.79159 13.9362 6.67801 14.082C5.81001 15.202 5.70601 17.018 6.29801 18.9421C7.58402 23.122 13.218 25.636 17.792 24.9421C20.714 24.5 22.542 22.856 23.304 22.184C21.9543 22.5864 20.5432 22.7436 19.138 22.648" fill="#5793CE"/>
</svg>
