<svg width="32" height="32" viewBox="0 0 32 32" fill="none" xmlns="http://www.w3.org/2000/svg">
<path d="M0 16C0 24.8365 7.16344 32 16 32C24.8365 32 32 24.8365 32 16C32 7.16344 24.8365 0 16 0C7.16344 0 0 7.16344 0 16Z" fill="#EFEFEF"/>
<path d="M16 0.666666C24.4 0.666666 31.3334 7.6 31.3334 16C31.3334 24.4 24.4 31.3334 16 31.3334C7.6 31.3334 0.666666 24.4 0.666666 16C0.666666 7.6 7.6 0.666666 16 0.666666ZM16 0C7.2 0 0 7.2 0 16C0 24.8 7.2 32 16 32C24.8 32 32 24.8 32 16C32 7.2 24.8 0 16 0Z" fill="#999999"/>
<path d="M12.2243 21C11.5016 21.6221 10.6665 21.8572 10.1386 21.946C9.98117 21.9725 9.94779 22.2188 10.0909 22.2986C11.8646 23.2887 13.7676 23.1701 14.921 22.9514C15.4867 22.8442 16 23.3419 16 24V21H12.2243Z" fill="#5A9411"/>
<path d="M19.7757 21C20.4984 21.6221 21.3335 21.8572 21.8614 21.946C22.0188 21.9725 22.0522 22.2188 21.9091 22.2986C20.1354 23.2887 18.2324 23.1701 17.079 22.9514C16.5133 22.8442 16 23.3419 16 24V21H19.7757Z" fill="#5A9411"/>
<path d="M19.5 22C23.0899 22 26 19.0899 26 15.5C26 11.9101 23.0899 9 19.5 9C15.9101 9 13 11.9101 13 15.5C13 19.0899 15.9101 22 19.5 22Z" fill="#D5DCED"/>
<path d="M12.4516 21.806C16.0147 21.806 18.9032 18.9175 18.9032 15.3544C18.9032 11.7913 16.0147 8.90283 12.4516 8.90283C8.88847 8.90283 6 11.7913 6 15.3544C6 18.9175 8.88847 21.806 12.4516 21.806Z" fill="#D5DCED"/>
<path d="M16 20C19.3137 20 22 17.0899 22 13.5C22 9.91015 19.3137 7 16 7C12.6863 7 10 9.91015 10 13.5C10 17.0899 12.6863 20 16 20Z" fill="#B6BFD5"/>
<path d="M22.9996 15.2383C23.0114 15.0376 22.7861 14.9238 22.6449 15.0585C22.0806 15.5963 21.2395 16.1544 19.0484 16.6179C17.4138 16.9636 16.6565 18.0504 16.305 18.9845C16.256 19.1149 16.1327 19.197 16 19.197C15.8673 19.197 15.744 19.1149 15.6949 18.9845C15.3434 18.0504 14.5861 16.9636 12.9516 16.6179C10.7605 16.1544 9.91944 15.5963 9.35512 15.0585C9.21385 14.9238 8.98863 15.0376 9.00045 15.2383C9.09148 16.7845 9.75993 21.0709 14.3486 21.7057C14.9481 21.7887 15.3903 22.3415 15.3903 22.981V24.6776C15.3903 24.8557 15.5268 25 15.6952 25H16.3049C16.4732 25 16.6097 24.8557 16.6097 24.6776L16.6097 22.981C16.6097 22.3415 17.0519 21.7886 17.6515 21.7057C22.2401 21.0709 22.9085 16.7845 22.9996 15.2383Z" fill="#5A9411"/>
</svg>
