<svg width="32" height="32" viewBox="0 0 32 32" fill="none" xmlns="http://www.w3.org/2000/svg">
<path d="M0 16C0 24.8365 7.16344 32 16 32C24.8365 32 32 24.8365 32 16C32 7.16344 24.8365 0 16 0C7.16344 0 0 7.16344 0 16Z" fill="#EFEFEF"/>
<path d="M4.23805 16.0001C4.23805 18.3264 4.92788 20.6004 6.2203 22.5347C7.51273 24.4689 9.3497 25.9765 11.4989 26.8667C13.6482 27.757 16.0131 27.9899 18.2947 27.536C20.5763 27.0821 22.6721 25.962 24.3171 24.3171C25.962 22.6721 27.0822 20.5763 27.536 18.2947C27.9899 16.0131 27.757 13.6482 26.8667 11.4989C25.9765 9.34969 24.4689 7.51272 22.5347 6.22029C20.6004 4.92786 18.3264 4.23804 16.0001 4.23804C12.8806 4.23804 9.88885 5.47725 7.68306 7.68304C5.47726 9.88883 4.23805 12.8805 4.23805 16.0001ZM5.57605 16.0001C5.57605 13.9379 6.18758 11.9221 7.33329 10.2074C8.479 8.49286 10.1075 7.15654 12.0126 6.36748C13.9178 5.57841 16.0143 5.37206 18.0368 5.77452C20.0593 6.17696 21.917 7.17015 23.3751 8.62845C24.833 10.0868 25.8259 11.9446 26.228 13.9672C26.63 15.9898 26.4232 18.0862 25.6339 19.9912C24.8444 21.8964 23.5078 23.5245 21.7929 24.6699C20.0781 25.8153 18.0622 26.4264 16.0001 26.4261C14.631 26.4261 13.2753 26.1563 12.0105 25.6324C10.7457 25.1084 9.59642 24.3404 8.62846 23.3722C7.66048 22.404 6.8927 21.2547 6.36896 19.9897C5.84522 18.7248 5.57579 17.3691 5.57605 16.0001Z" fill="url(#paint0_linear)"/>
<path d="M27.7621 16.0001C27.7621 18.3264 27.0722 20.6004 25.7798 22.5347C24.4873 24.4689 22.6504 25.9765 20.5012 26.8667C18.352 27.757 15.987 27.9899 13.7054 27.536C11.4238 27.0822 9.32801 25.962 7.68307 24.3171C6.03812 22.6721 4.9179 20.5763 4.46406 18.2947C4.01022 16.0131 4.24315 13.6482 5.13339 11.4989C6.02363 9.34969 7.53119 7.51272 9.46541 6.2203C11.3997 4.92786 13.6738 4.23804 16.0001 4.23804C17.5448 4.23777 19.0744 4.54183 20.5015 5.13283C21.9287 5.72383 23.2254 6.59021 24.3176 7.68246C25.4099 8.77471 26.2762 10.0714 26.8673 11.4986C27.4583 12.9257 27.7624 14.4553 27.7621 16.0001Z" stroke="#221F1F" stroke-width="0.48"/>
<path d="M5.57605 16C5.57605 13.9379 6.18758 11.922 7.33328 10.2074C8.479 8.49281 10.1075 7.15649 12.0127 6.36742C13.9178 5.57836 16.0143 5.37201 18.0368 5.77446C20.0593 6.17691 21.9171 7.17009 23.3751 8.62839C24.8331 10.0867 25.8259 11.9446 26.2279 13.9672C26.63 15.9897 26.4232 18.0862 25.6339 19.9912C24.8444 21.8963 23.5078 23.5245 21.7929 24.6698C20.0782 25.8152 18.0622 26.4263 16.0001 26.426C14.631 26.426 13.2753 26.1563 12.0105 25.6323C10.7457 25.1083 9.59642 24.3403 8.62846 23.3721C7.66048 22.4039 6.89269 21.2546 6.36895 19.9897C5.84522 18.7248 5.57579 17.369 5.57605 16Z" stroke="#221F1F" stroke-width="0.48"/>
<path d="M17.1141 14.3998H18L16.4 16.4418V17.5398H15.6501V16.4418L14.052 14.3998H14.936L16.024 15.8618" fill="#656364"/>
<path d="M21.3441 14.3998V15.0418H19.228V15.6418H21.2581V16.2598H19.228V16.9038H21.3441V17.5398H18.4961V14.3998" fill="#656364"/>
<path d="M17.446 18.3341V18.9761H15.3301V19.5761H17.358V20.2001H15.3301V20.8441H17.446V21.4881H14.6001V18.3341" fill="#656364"/>
<path d="M24.3081 15.0318H23.2001V15.7158H24.3081C24.3988 15.7158 24.4858 15.6798 24.5499 15.6156C24.6141 15.5515 24.6501 15.4645 24.6501 15.3738C24.6501 15.2831 24.6141 15.1961 24.5499 15.1319C24.4858 15.0678 24.3988 15.0318 24.3081 15.0318ZM23.8001 16.3398H23.2001V17.5398H22.4661V14.3998H24.3801C24.6144 14.4009 24.8404 14.4862 25.0169 14.6402C25.1936 14.794 25.3089 15.0064 25.3418 15.2383C25.3749 15.4703 25.3233 15.7063 25.1967 15.9034C25.07 16.1005 24.8768 16.2454 24.6521 16.3118L25.5761 17.5498H24.6961" fill="#656364"/>
<path d="M14.6001 25.5398V22.3998H16.7041C16.9299 22.4011 17.1482 22.4807 17.322 22.6251C17.4956 22.7694 17.6139 22.9695 17.6566 23.1912C17.6993 23.413 17.6638 23.6427 17.5561 23.8412C17.4484 24.0397 17.2752 24.1947 17.0661 24.2798L18.0121 25.5498H17.1321L16.2321 24.3498H15.334V25.5498L14.6001 25.5398ZM16.9721 23.3758C16.9721 23.2842 16.936 23.1963 16.8715 23.1311C16.8072 23.0659 16.7196 23.0289 16.6281 23.0278H15.334V23.7178H16.6281C16.7187 23.7168 16.8053 23.6804 16.8695 23.6166C16.9337 23.5527 16.9705 23.4663 16.9721 23.3758Z" fill="#656364"/>
<path d="M12.334 15.1378L11.71 16.3818H12.9461L12.334 15.1378ZM14.276 17.5378H13.476L13.222 16.9998H11.4421L11.18 17.5398H10.4L11.9701 14.3998H12.7" fill="#656364"/>
<path d="M16.0241 11.1259L15.4001 12.3719H16.6381L16.0241 11.1259ZM17.964 13.5259H17.1741L16.9121 12.9819H15.1321L14.8701 13.5259H14.0841L15.6581 10.3759H16.3881" fill="#656364"/>
<path d="M9.49806 15.8998C9.60084 15.9827 9.68432 16.0871 9.74268 16.2055C9.80103 16.324 9.83294 16.4538 9.83614 16.5858C9.83463 16.7162 9.80687 16.845 9.75444 16.9644C9.70192 17.0838 9.62588 17.1914 9.53082 17.2807C9.43576 17.37 9.32358 17.4391 9.2011 17.484C9.07863 17.5289 8.94835 17.5485 8.81809 17.5418H6.63809V14.3998H8.80009C8.97471 14.4001 9.14565 14.45 9.29283 14.5441C9.43999 14.638 9.55736 14.772 9.63105 14.9303C9.70475 15.0886 9.73176 15.2647 9.70889 15.4379C9.68611 15.611 9.6143 15.774 9.50211 15.9078L9.49806 15.8998ZM7.37009 16.9138H8.76009C8.85299 16.9139 8.94228 16.8778 9.00909 16.8132C9.07589 16.7487 9.11498 16.6607 9.11809 16.5678C9.11326 16.4744 9.074 16.3861 9.00788 16.32C8.94175 16.2539 8.85347 16.2147 8.76009 16.2098H7.37009V16.9138ZM7.37009 15.6438H8.70609C8.78465 15.6392 8.8586 15.6052 8.91312 15.5485C8.96765 15.4917 8.9987 15.4164 9.00009 15.3378C9.00063 15.2573 8.96945 15.1798 8.9133 15.1222C8.85715 15.0645 8.78055 15.0314 8.70009 15.0298H7.36809" fill="#656364"/>
<path d="M17.4561 8.03193C17.5602 8.11403 17.645 8.21805 17.7045 8.33661C17.764 8.45516 17.7965 8.58535 17.8001 8.71793C17.7986 8.84835 17.7708 8.97714 17.7184 9.09656C17.6659 9.21597 17.5898 9.32356 17.4948 9.41283C17.3997 9.50215 17.2875 9.57132 17.1651 9.61612C17.0426 9.66102 16.9123 9.68069 16.782 9.67391H14.6001V6.52393H16.7541C16.9287 6.52417 17.0997 6.57422 17.2468 6.6682C17.394 6.76218 17.5113 6.89619 17.585 7.0545C17.6587 7.21282 17.6857 7.38887 17.6629 7.562C17.6401 7.73512 17.5683 7.89814 17.4561 8.03193ZM15.3321 9.04593H16.732C16.8232 9.04343 16.91 9.00623 16.9747 8.94193C17.0393 8.87763 17.0771 8.79107 17.0801 8.69993C17.0752 8.60674 17.0359 8.5187 16.9697 8.45291C16.9035 8.38711 16.8152 8.34826 16.7221 8.34393H15.3221L15.3321 9.04593ZM15.3321 7.77593H16.66C16.7394 7.7729 16.8145 7.73978 16.8702 7.6833C16.9259 7.62683 16.9581 7.55125 16.9601 7.47193C16.9606 7.39146 16.9294 7.31401 16.8733 7.25636C16.8171 7.19871 16.7405 7.16551 16.66 7.16393H15.334" fill="#656364"/>
<path d="M16 0.666666C24.4 0.666666 31.3334 7.6 31.3334 16C31.3334 24.4 24.4 31.3334 16 31.3334C7.6 31.3334 0.666666 24.4 0.666666 16C0.666666 7.6 7.6 0.666666 16 0.666666ZM16 0C7.2 0 0 7.2 0 16C0 24.8 7.2 32 16 32C24.8 32 32 24.8 32 16C32 7.2 24.8 0 16 0Z" fill="#999999"/>
<defs>
<linearGradient id="paint0_linear" x1="22.6952" y1="25.8659" x2="6.06969" y2="9.24047" gradientUnits="userSpaceOnUse">
<stop stop-color="#269DD8"/>
<stop offset="0.5" stop-color="#F1F8F5"/>
<stop offset="1" stop-color="#5FBA46"/>
</linearGradient>
</defs>
</svg>
