<svg width="32" height="32" viewBox="0 0 32 32" fill="none" xmlns="http://www.w3.org/2000/svg">
<g clip-path="url(#clip0)">
<path fill-rule="evenodd" clip-rule="evenodd" d="M16 32C19.1645 32 22.2579 31.0616 24.8891 29.3035C27.5203 27.5454 29.5711 25.0466 30.7821 22.1229C31.9931 19.1993 32.3099 15.9823 31.6926 12.8786C31.0752 9.77486 29.5513 6.92394 27.3137 4.6863C25.0761 2.44866 22.2251 0.924806 19.1214 0.307442C16.0177 -0.309921 12.8007 0.00693303 9.87706 1.21793C6.95345 2.42894 4.45459 4.4797 2.69648 7.11088C0.938383 9.74207 0 12.8355 0 16C0.0146467 20.239 1.70506 24.3001 4.70247 27.2975C7.69988 30.2949 11.761 31.9854 16 32Z" fill="#808080"/>
<rect x="2" y="11" width="28" height="10.25" fill="white"/>
<g clip-path="url(#clip1)">
<path d="M24.3768 20.4839H25.8502L23.9947 17.5618L22.1396 20.4839H23.5037V21.2328H2.82251V10.8221H22.0303L21.5064 10.0001H2.00391V22.0001H24.3768V20.4839Z" fill="#808080"/>
<path d="M23.7754 10.0001V11.5891H22.4658L24.3758 14.2192L26.0675 11.5344H24.703V10.9866H29.287V11.7535L25.9581 15.8632L29.287 20.484V21.2328H26.2309L26.8067 22.0001H29.9963V10.0001H23.7754Z" fill="black"/>
<path d="M8.49709 20.4839H10.8436L14.4449 11.589H8.06055C8.06055 11.589 11.7712 12.1371 11.7712 16.0272C11.7712 16.0276 11.8256 20.21 8.49709 20.4839ZM17.61 11.589L20.393 18.7124L22.4119 15.9178L19.4106 11.589H17.61ZM17.5905 18.8222H14.135L13.5718 20.4839H18.101L17.5905 18.8222ZM16.9747 16.9043L15.9183 13.6163L14.7919 16.9043H16.9747Z" fill="#808080"/>
<path d="M5.44141 13.4122V18.5492H6.53276C6.53276 18.5492 8.93374 18.5492 8.93374 16.0285C8.93374 13.5078 6.53276 13.4122 6.53276 13.4122H5.44141Z" fill="#808080"/>
</g>
</g>
<defs>
<clipPath id="clip0">
<rect width="32" height="32" fill="white"/>
</clipPath>
<clipPath id="clip1">
<rect width="28" height="12" fill="white" transform="translate(2 10.0001)"/>
</clipPath>
</defs>
</svg>
