<svg width="32" height="32" viewBox="0 0 32 32" fill="none" xmlns="http://www.w3.org/2000/svg">
<path d="M0 16C0 24.8365 7.16344 32 16 32C24.8365 32 32 24.8365 32 16C32 7.16344 24.8365 0 16 0C7.16344 0 0 7.16344 0 16Z" fill="#EFEFEF"/>
<path d="M16 0.666666C24.4 0.666666 31.3334 7.6 31.3334 16C31.3334 24.4 24.4 31.3334 16 31.3334C7.6 31.3334 0.666666 24.4 0.666666 16C0.666666 7.6 7.6 0.666666 16 0.666666ZM16 0C7.2 0 0 7.2 0 16C0 24.8 7.2 32 16 32C24.8 32 32 24.8 32 16C32 7.2 24.8 0 16 0Z" fill="#999999"/>
<g clip-path="url(#clip0)">
<path d="M3.03134 20.8477C3.01408 20.8025 3.00762 18.579 3.017 15.9064L3.03394 11.0471L5.36507 11.0296C7.87922 11.0108 8.11265 11.0324 8.76723 11.3418C10.4799 12.1518 10.8841 14.2831 9.55777 15.511C9.34651 15.7066 9.17369 15.8963 9.17369 15.9326C9.17369 15.969 9.28451 16.0512 9.41992 16.1153C9.75573 16.2743 10.2084 16.7401 10.3598 17.0824C10.5645 17.545 10.6287 18.1985 10.5203 18.7162C10.2958 19.7895 9.55153 20.5216 8.36346 20.838C7.89312 20.9632 3.07878 20.972 3.03134 20.8477ZM7.5951 18.7211C8.00581 18.4785 8.16318 17.7765 7.88915 17.4092C7.57292 16.9854 7.48119 16.957 6.42754 16.957H5.46358L5.44538 17.8927L5.42718 18.8285H6.42021C7.22167 18.8285 7.44837 18.8077 7.5951 18.7211ZM7.42322 14.8888C7.7197 14.6285 7.8186 14.3716 7.77938 13.9636C7.74226 13.577 7.58114 13.3267 7.26475 13.1639C7.07958 13.0686 6.89948 13.051 6.25164 13.0654L5.46364 13.0828L5.44555 14.0842L5.42734 15.0855H7.19922L7.42322 14.8888ZM11.5781 20.8274C11.5172 20.6687 11.5315 11.1913 11.5928 11.0948C11.6333 11.031 11.9187 11.0153 12.7902 11.0291L13.9345 11.0471L13.9673 13.0171L14.0002 14.9871L15.6901 15.0046L17.38 15.0222L17.3974 13.0347L17.4147 11.0471H19.7787V20.8969H17.4147L17.3972 19.1271C17.3842 17.8118 17.3589 17.3442 17.2987 17.306C17.2542 17.2777 16.5196 17.2541 15.6662 17.2535C14.4531 17.253 14.0988 17.2716 14.0421 17.34C13.9942 17.3977 13.9635 18.0166 13.952 19.1622L13.9344 20.8969L12.7765 20.9149C11.7637 20.9305 11.6134 20.9198 11.5781 20.8274L11.5781 20.8274ZM21.3521 20.8477C21.3348 20.8025 21.3284 18.579 21.3378 15.9064L21.3546 11.0471L23.7514 11.0297C25.2938 11.0184 26.2714 11.0377 26.4938 11.0837C28.0872 11.4136 29.2242 13.0553 28.9443 14.622C28.7329 15.8046 27.9939 16.6877 26.876 17.0934C26.4704 17.2407 26.3454 17.2525 25.1984 17.2525C24.5168 17.2525 23.9124 17.2704 23.8553 17.2924C23.7643 17.3273 23.7514 17.5422 23.7514 19.0271C23.7514 19.9593 23.7335 20.7688 23.7115 20.8259C23.6773 20.9151 23.5103 20.9298 22.5275 20.9298C21.6726 20.9298 21.3754 20.9091 21.352 20.8477L21.3521 20.8477ZM25.9842 14.9378C26.6177 14.5054 26.5865 13.646 25.9211 13.1975C25.7091 13.0547 25.6455 13.0475 24.7407 13.0646L23.7843 13.0828L23.7662 14.0841L23.7481 15.0855H24.7579C25.6973 15.0855 25.7828 15.0752 25.9842 14.9378Z" fill="#E35302"/>
</g>
<defs>
<clipPath id="clip0">
<rect width="26" height="9.96104" fill="white" transform="translate(3 11)"/>
</clipPath>
</defs>
</svg>
