<svg width="32" height="32" viewBox="0 0 32 32" fill="none" xmlns="http://www.w3.org/2000/svg">
<path d="M0 16C0 24.8365 7.16344 32 16 32C24.8365 32 32 24.8365 32 16C32 7.16344 24.8365 0 16 0C7.16344 0 0 7.16344 0 16Z" fill="#EFEFEF"/>
<path d="M16 0.666666C24.4 0.666666 31.3334 7.6 31.3334 16C31.3334 24.4 24.4 31.3334 16 31.3334C7.6 31.3334 0.666666 24.4 0.666666 16C0.666666 7.6 7.6 0.666666 16 0.666666ZM16 0C7.2 0 0 7.2 0 16C0 24.8 7.2 32 16 32C24.8 32 32 24.8 32 16C32 7.2 24.8 0 16 0Z" fill="#999999"/>
<path d="M10.8239 11.676H6.38591V12.522H10.8239V11.676Z" fill="black"/>
<path d="M9.95388 17.3883V14.4563H6.38392V13.5763H10.7999V17.4143C10.7999 17.8303 10.556 20.5863 7.33592 20.5863C5.05192 20.5863 4.42593 18.8583 4.25793 18.3603L5.08593 18.1403C5.24792 18.5403 5.68593 19.7403 7.47393 19.7403C9.4399 19.7423 9.95388 18.0503 9.95388 17.3883Z" fill="black"/>
<path d="M16.304 12.3244C16.7699 12.327 17.2283 12.4418 17.6405 12.6591C18.0527 12.8763 18.4065 13.1896 18.672 13.5724C18.908 13.4244 19.162 13.3144 19.41 13.1884C19.228 12.8024 18.182 11.4564 16.31 11.4564C13.124 11.4564 13.13 13.7444 13.13 13.8964C13.13 15.1244 13.902 15.5964 14.074 15.6964C14.692 16.0404 16.89 16.4844 17.286 16.5903C17.6111 16.663 17.9233 16.7843 18.212 16.9504C18.5023 17.1191 18.717 17.3924 18.812 17.7144C18.8846 18.0902 18.8087 18.4795 18.6 18.8004C17.8 19.9544 16.2 19.7284 15.716 19.6184C15.2579 19.514 14.8255 19.3185 14.4444 19.0437C14.0634 18.7689 13.7416 18.4202 13.498 18.0184L12.774 18.4584C12.9345 18.727 13.1258 18.976 13.344 19.2004C14.088 19.9804 15.122 20.6004 16.276 20.6004C16.6168 20.6084 16.9576 20.5843 17.294 20.5284C17.7602 20.4304 18.2035 20.2444 18.6 19.9804C19.0459 19.6844 19.3817 19.2496 19.5557 18.7435C19.7296 18.2373 19.7318 17.688 19.562 17.1804C19.524 17.0544 19.212 16.2104 17.822 15.8424C17.356 15.7224 15.822 15.3823 15.252 15.2424C14.974 15.1704 14 14.9884 14 13.9224C14 12.6924 15.4 12.3244 16.304 12.3244Z" fill="black"/>
<path d="M27.74 11.704H21.808V12.538H27.74V11.704Z" fill="black"/>
<path d="M27.74 14.67H21.808V15.504H27.74V14.67Z" fill="black"/>
<path d="M27.74 16.5698H21.808V17.4038H27.74V16.5698Z" fill="black"/>
<path d="M27.74 19.5358H21.808V20.3698H27.74V19.5358Z" fill="black"/>
</svg>
