<svg width="32" height="32" viewBox="0 0 32 32" fill="none" xmlns="http://www.w3.org/2000/svg">
<path d="M0 16C0 24.8365 7.16344 32 16 32C24.8365 32 32 24.8365 32 16C32 7.16344 24.8365 0 16 0C7.16344 0 0 7.16344 0 16Z" fill="black"/>
<path d="M7.77145 13.6278V16.3948C7.77145 17.3171 7.36051 17.7006 6.40167 17.7006C5.44283 17.7006 5.0319 17.3171 5.0319 16.3948V13.5091H4.11871C4.03653 13.5091 4 13.5457 4 13.6278V16.4313C4 17.9746 4.98624 18.5134 6.4108 18.5134C7.83537 18.5134 8.82161 17.9746 8.82161 16.4313V13.5H7.89929C7.81711 13.5091 7.77145 13.5457 7.77145 13.6278Z" fill="white"/>
<path d="M21.1496 14.3036C21.2226 14.3036 21.2592 14.2762 21.2865 14.2214L21.5514 13.5639C21.5696 13.5274 21.5514 13.5 21.5149 13.5H17.7981C17.4511 13.5 17.3232 13.6096 17.3232 13.847V18.1389C17.3232 18.3398 17.4237 18.4311 17.6885 18.4311H21.1496C21.2226 18.4311 21.2592 18.4037 21.2865 18.3489L21.5514 17.6914C21.5696 17.6549 21.5514 17.6275 21.5149 17.6275H18.346V16.7509C18.346 16.4495 18.5104 16.3125 18.9579 16.3125H20.3368C20.4099 16.3125 20.4464 16.2851 20.4738 16.2304L20.7295 15.5911C20.7478 15.5546 20.7295 15.5272 20.693 15.5272H18.346V14.2945H21.1496V14.3036Z" fill="white"/>
<path d="M14.6022 15.8375C15.004 15.6275 15.1684 15.2257 15.1684 14.76C15.1684 13.6733 14.2826 13.5089 13.3603 13.5089H11.26C10.913 13.5089 10.7852 13.6185 10.7852 13.8559V18.1479C10.7852 18.3488 10.8856 18.4401 11.1504 18.4401H13.7347C14.7118 18.4401 15.4058 18.0657 15.4058 17.0795C15.415 16.4768 15.1593 15.9837 14.6022 15.8375ZM11.817 14.2943H13.4425C13.9904 14.2943 14.1365 14.4952 14.1365 14.9244C14.1365 15.3536 13.9813 15.5545 13.4425 15.5545H11.817V14.2943ZM13.6343 17.6365H11.817V16.7325C11.817 16.4311 11.9814 16.2941 12.4289 16.2941H13.6343C14.2096 16.2941 14.3739 16.5133 14.3739 16.9699C14.3831 17.4265 14.2187 17.6365 13.6343 17.6365Z" fill="white"/>
<path d="M27.9895 18.3487L26.8845 16.4493C27.4324 16.3124 27.8799 15.9471 27.8799 15.0248C27.8799 13.8285 27.1402 13.5089 25.9165 13.5089H23.8069C23.4599 13.5089 23.332 13.6185 23.332 13.8559V18.3214C23.332 18.4035 23.3686 18.4401 23.4508 18.4401H24.3549V17.0064C24.3549 16.705 24.5192 16.5681 24.9667 16.5681H25.8708L26.8662 18.367C26.8936 18.4218 26.9302 18.4492 27.0032 18.4492H27.9438C28.0078 18.4309 28.0078 18.3761 27.9895 18.3487ZM26.0626 15.7919H24.3457V14.3034H26.0626C26.7019 14.3034 26.848 14.5499 26.848 15.0522C26.848 15.5453 26.7019 15.7919 26.0626 15.7919Z" fill="white"/>
</svg>
