<svg width="32" height="32" viewBox="0 0 32 32" fill="none" xmlns="http://www.w3.org/2000/svg">
<path d="M0 16C0 24.8365 7.16344 32 16 32C24.8365 32 32 24.8365 32 16C32 7.16344 24.8365 0 16 0C7.16344 0 0 7.16344 0 16Z" fill="#A61E1E"/>
<path d="M0 16C0 24.8365 7.16344 32 16 32C24.8365 32 32 24.8365 32 16C32 7.16344 24.8365 0 16 0C7.16344 0 0 7.16344 0 16Z" fill="#EFEFEF"/>
<path d="M16 0.666666C24.4 0.666666 31.3334 7.6 31.3334 16C31.3334 24.4 24.4 31.3334 16 31.3334C7.6 31.3334 0.666666 24.4 0.666666 16C0.666666 7.6 7.6 0.666666 16 0.666666ZM16 0C7.2 0 0 7.2 0 16C0 24.8 7.2 32 16 32C24.8 32 32 24.8 32 16C32 7.2 24.8 0 16 0Z" fill="#999999"/>
<path d="M8.35604 17.0195C8.36976 17.4745 8.17181 17.9104 7.82004 18.1994C7.41597 18.5151 6.91219 18.6754 6.40004 18.6515C5.86254 18.6734 5.32834 18.5577 4.84804 18.3155V17.0755C5.2954 17.4128 5.83975 17.5966 6.40004 17.5994C6.5672 17.6055 6.73126 17.5532 6.86404 17.4515C7.02331 17.3215 7.08679 17.1072 7.02404 16.9114C7.00567 16.8599 6.97555 16.8133 6.93604 16.7754C6.89834 16.7355 6.85681 16.6993 6.81204 16.6675C6.75624 16.6281 6.69739 16.5934 6.63604 16.5635L6.43604 16.4634C6.38203 16.4355 6.30404 16.3994 6.20004 16.3514C6.09604 16.3034 6.01204 16.2655 5.94804 16.2394C5.63129 16.0987 5.34678 15.8945 5.11204 15.6394C4.89704 15.3808 4.78584 15.0515 4.80004 14.7155C4.78879 14.2852 4.97614 13.8736 5.30804 13.5994C5.71423 13.2932 6.21619 13.1414 6.72404 13.1715C7.20503 13.1579 7.68309 13.2508 8.12404 13.4435V14.5955C7.71807 14.3514 7.25372 14.2214 6.78004 14.2195C6.61154 14.2079 6.44401 14.253 6.30404 14.3475C6.19952 14.4238 6.13841 14.546 6.14004 14.6755C6.1456 14.8194 6.22002 14.9518 6.34004 15.0314C6.52669 15.1647 6.72801 15.2761 6.94004 15.3635C7.10603 15.4374 7.24203 15.5034 7.35204 15.5635C7.48267 15.6319 7.60832 15.7093 7.72804 15.7955C7.85624 15.8805 7.96973 15.9859 8.06404 16.1075C8.15412 16.2295 8.22557 16.3643 8.27604 16.5075C8.33201 16.6723 8.35908 16.8454 8.35604 17.0195ZM10.972 16.8435H10.348V18.5875H9.11604V13.1994H10.972C11.5027 13.1755 12.0223 13.3558 12.424 13.7034C12.7891 14.0272 12.9926 14.4957 12.98 14.9834C13.0077 15.5056 12.7939 16.0115 12.4 16.3555C11.9987 16.6854 11.4914 16.8588 10.972 16.8435ZM10.828 14.1795H10.348V15.8675H10.748C11.3987 15.8675 11.724 15.5715 11.724 14.9795C11.7294 14.4461 11.4307 14.1795 10.828 14.1795ZM14.732 18.5875H13.5L13.964 13.1875H15.316L16.068 15.1395C16.196 15.4634 16.3061 15.7635 16.396 16.0355C16.486 16.3075 16.5461 16.4995 16.572 16.6115L16.612 16.7715C16.766 16.2167 16.953 15.6718 17.172 15.1395L17.932 13.1994H19.284L19.844 18.5994H18.612L18.412 16.5114L18.308 14.9354C18.1701 15.3354 17.9781 15.8595 17.732 16.5114L16.972 18.5434H16.244L15.492 16.4995C15.3694 16.1661 15.2654 15.8701 15.18 15.6115C15.094 15.3494 15.038 15.1674 15.012 15.0675L14.972 14.9235C14.972 15.3021 14.948 15.8275 14.9 16.4995L14.732 18.5875Z" fill="#01478C"/>
<path d="M22.0759 18.588H20.8439V13.2H22.0759V18.588Z" fill="#01478C"/>
<path d="M25.524 18.588H23.2V13.2H25.296C25.888 13.2 26.3387 13.34 26.648 13.62C26.9531 13.8897 27.123 14.2808 27.112 14.688C27.1175 14.9534 27.0391 15.2137 26.888 15.432C26.7473 15.6374 26.5416 15.7895 26.304 15.864C26.8872 15.9936 27.2861 16.5324 27.24 17.128C27.2504 17.5295 27.0818 17.9149 26.78 18.18C26.4277 18.4693 25.9791 18.615 25.524 18.588ZM25.084 14.188H24.428V15.388H24.884C25.1377 15.4048 25.3904 15.3433 25.608 15.212C25.7628 15.1088 25.8548 14.934 25.852 14.748C25.852 14.368 25.6 14.18 25.084 14.18V14.188ZM25.084 16.364H24.428V17.5999H25.076C25.684 17.5999 25.988 17.3919 25.988 16.9759C25.988 16.5599 25.6867 16.3533 25.084 16.356V16.364Z" fill="#01478C"/>
</svg>
