<svg width="32" height="32" viewBox="0 0 32 32" fill="none" xmlns="http://www.w3.org/2000/svg">
<path d="M0 16C0 24.8365 7.16344 32 16 32C24.8365 32 32 24.8365 32 16C32 7.16344 24.8365 0 16 0C7.16344 0 0 7.16344 0 16Z" fill="#FF0000"/>
<path d="M16.8086 12.7073C16.8086 12.3589 16.7055 12.0121 16.5224 11.705H13.1872C13.0027 12.0121 12.9204 12.359 12.9204 12.7073C12.9204 13.7713 13.7802 14.6501 14.8647 14.6501C15.9287 14.6501 16.8086 13.7713 16.8086 12.7073ZM14.8647 16.2057L12.3696 13.7103C11.0797 12.4413 9.40208 11.705 7.60181 11.705H7.00953C4.79955 11.705 3 13.5053 3 15.7354C3 16.6143 3.2646 17.2903 3.69551 18.0259C3.53197 16.8406 4.47221 15.7354 5.638 15.7354H7.56171C8.27711 15.7354 8.97262 16.0213 9.46383 16.5122L18.588 25.6363C20.1432 24.0616 20.1432 21.5044 18.588 19.9286L14.8647 16.2057Z" fill="white"/>
<path d="M23.2729 9.51673L22.9253 9.18899C21.5343 7.7973 19.6723 7 17.7085 7H14.8647L12.3697 7.02055C10.0367 7.02055 8.05268 8.71799 7.72461 11.0304H17.7085C18.5881 11.0304 19.4272 11.378 20.0617 12.0121L23.3541 15.3063C24.7458 16.6974 27.3239 16.8811 28.9809 15.224L23.2729 9.51673Z" fill="white"/>
</svg>
