<svg width="32" height="32" viewBox="0 0 32 32" fill="none" xmlns="http://www.w3.org/2000/svg">
<path d="M14 28C21.732 28 28 21.732 28 14C28 6.26801 21.732 0 14 0C6.26801 0 0 6.26801 0 14C0 21.732 6.26801 28 14 28Z" fill="white"/>
<path d="M14 0.58329C21.35 0.58329 27.4167 6.65 27.4167 14C27.4167 21.35 21.35 27.4167 14 27.4167C6.65 27.4167 0.58329 21.35 0.58329 14C0.58329 6.65 6.65 0.58329 14 0.58329ZM14 0C6.3 0 0 6.3 0 14C0 21.7 6.3 28 14 28C21.7 28 28 21.7 28 14C28 6.3 21.7 0 14 0Z" fill="#999999"/>
<path d="M4.8651 14.5765V15.5607H6.71442V16.3882H4V12H6.68307V12.8275H4.8651V13.7616H6.52635V14.5765H4.8651Z" fill="#141528"/>
<path d="M9.97594 14.1126C10.3604 14.3341 10.5527 14.6684 10.5527 15.1156C10.5527 15.4876 10.421 15.7927 10.1577 16.0309C9.89445 16.2691 9.57056 16.3882 9.18607 16.3882H7.32421V12H9.05442C9.42637 12 9.7419 12.117 10.001 12.3511C10.2601 12.5851 10.3897 12.8797 10.3897 13.235C10.3897 13.5986 10.2518 13.8911 9.97594 14.1126ZM9.05442 12.8087H8.18932V13.7741H9.05442C9.18816 13.7741 9.29891 13.7281 9.38667 13.6362C9.47861 13.5442 9.52458 13.4293 9.52458 13.2914C9.52458 13.1535 9.4807 13.0385 9.39294 12.9466C9.30517 12.8547 9.19233 12.8087 9.05442 12.8087ZM8.18932 15.5795H9.18607C9.33234 15.5795 9.45354 15.5315 9.54966 15.4353C9.64578 15.335 9.69384 15.2097 9.69384 15.0592C9.69384 14.9129 9.64578 14.7917 9.54966 14.6956C9.45354 14.5953 9.33234 14.5452 9.18607 14.5452H8.18932V15.5795Z" fill="#141528"/>
<path d="M12.7254 16.476C12.2364 16.476 11.8352 16.3381 11.5218 16.0622C11.2083 15.7864 11.0516 15.4165 11.0516 14.9526V12H11.9104V14.8837C11.9104 15.1177 11.9773 15.3016 12.111 15.4353C12.2489 15.5649 12.4537 15.6297 12.7254 15.6297C12.997 15.6297 13.1997 15.5649 13.3335 15.4353C13.4714 15.3016 13.5403 15.1177 13.5403 14.8837V12H14.4054V14.9526C14.4054 15.4165 14.2487 15.7864 13.9353 16.0622C13.6218 16.3381 13.2185 16.476 12.7254 16.476Z" fill="#141528"/>
<path d="M17.7237 14.6768V12H18.5888V16.3882H17.9305L16.0499 13.7051V16.3882H15.1848V12H15.843L17.7237 14.6768Z" fill="#141528"/>
<path d="M19.4028 12H21.1455C21.7474 12 22.2489 12.2111 22.6501 12.6332C23.0555 13.0511 23.2582 13.5714 23.2582 14.1941C23.2582 14.8168 23.0555 15.3371 22.6501 15.7551C22.2489 16.1772 21.7474 16.3882 21.1455 16.3882H19.4028V12ZM20.2679 15.5607H21.1455C21.5259 15.5607 21.8351 15.4353 22.0733 15.1846C22.3116 14.9255 22.4307 14.5953 22.4307 14.1941C22.4307 13.7887 22.3116 13.4606 22.0733 13.2099C21.8351 12.955 21.5259 12.8275 21.1455 12.8275H20.2679V15.5607Z" fill="#141528"/>
<path d="M16 24C16 28.4183 19.5817 32 24 32C28.4183 32 32 28.4183 32 24C32 19.5817 28.4183 16 24 16C19.5817 16 16 19.5817 16 24Z" fill="#00237C"/>
<path d="M17.9536 23.0871L18.1783 23.7839H18.9071L18.318 24.2161L18.5376 24.9128L17.9536 24.482L17.3644 24.9128L17.5892 24.2161L17 23.7839H17.7275L17.9536 23.0871ZM18.5529 20.7129H17.8253L18.4107 21.1437L18.1859 21.8418L18.7751 21.4096L19.3642 21.8418L19.1395 21.1437L19.7286 20.7129H19.0036L18.7789 20.0148L18.5529 20.7129ZM20.7216 18.5291H19.994L20.5832 18.96L20.3571 19.653L20.9501 19.2272L21.5367 19.653L21.3107 18.9549L21.8999 18.524H21.1723L20.9501 17.831L20.7216 18.5291ZM23.7689 17.6981H23.0439L23.633 18.129L23.4083 18.827L23.9975 18.3962L24.5866 18.827L24.3619 18.129L24.951 17.6981H24.2222L23.9975 17L23.7689 17.6981ZM26.8162 18.5291H26.095L26.6842 18.96L26.4582 19.653L27.0448 19.2272L27.6365 19.653L27.413 18.9549L28.0009 18.524H27.2733L27.0448 17.831L26.8162 18.5291ZM28.9849 20.7129H28.2561L28.8452 21.1437L28.6205 21.8418L29.2097 21.4096L29.7988 21.8418L29.5842 21.1437L30.1734 20.7129H29.4459L29.2198 20.0148L28.9849 20.7129ZM29.8102 23.7813H29.0814L29.6706 24.2135L29.4573 24.9128L30.0464 24.482L30.6356 24.9128L30.4108 24.2161L31 23.7839H30.2711L30.0464 23.0871L29.8102 23.7813ZM18.5465 26.8498H17.8253L18.4107 27.2871L18.1859 27.9852L18.7751 27.5543L19.3642 27.9852L19.1395 27.2871L19.7286 26.8562H19.0036L18.7789 26.1582L18.5465 26.8498ZM20.7216 29.04H19.994L20.5832 29.4709L20.3571 30.1689L20.9501 29.7368L21.5393 30.1689L21.3132 29.4709L21.9024 29.04H21.1723L20.9501 28.347L20.7216 29.04ZM23.7689 29.871H23.0439L23.633 30.3019L23.4083 31L23.9975 30.5678L24.5866 31L24.3619 30.3019L24.951 29.871H24.2222L23.9975 29.1729L23.7689 29.871ZM26.8162 29.04H26.095L26.6842 29.4709L26.4582 30.1689L27.0473 29.7368L27.6365 30.1689L27.413 29.4709L28.0009 29.04H27.2733L27.0448 28.347L26.8162 29.04ZM28.9849 26.8562H28.2561L28.8452 27.2871L28.6205 27.9852L29.2097 27.5543L29.7988 27.9852L29.5842 27.2871L30.1734 26.8562H29.4459L29.2198 26.1582L28.9849 26.8562Z" fill="#FFC300"/>
</svg>
