<svg width="32" height="32" viewBox="0 0 32 32" fill="none" xmlns="http://www.w3.org/2000/svg">
<path d="M0 16C0 24.8365 7.16344 32 16 32C24.8365 32 32 24.8365 32 16C32 7.16344 24.8365 0 16 0C7.16344 0 0 7.16344 0 16Z" fill="#EFEFEF"/>
<path d="M16 0.666666C24.4 0.666666 31.3334 7.6 31.3334 16C31.3334 24.4 24.4 31.3334 16 31.3334C7.6 31.3334 0.666666 24.4 0.666666 16C0.666666 7.6 7.6 0.666666 16 0.666666ZM16 0C7.2 0 0 7.2 0 16C0 24.8 7.2 32 16 32C24.8 32 32 24.8 32 16C32 7.2 24.8 0 16 0Z" fill="#999999"/>
<path d="M10.9196 5.02032V6.84487C10.9196 7.08306 10.8489 7.26978 10.7075 7.40501C10.5661 7.54024 10.3564 7.60786 10.0783 7.60786H10V7.20977H10.0745C10.1845 7.21835 10.294 7.18751 10.3834 7.12276C10.4541 7.06149 10.4894 6.96505 10.4894 6.83345V5.40372H10.0854V5.02304L10.9196 5.02032Z" fill="black"/>
<path d="M11.7072 7.24898H12.1053V5.01874H12.5376V7.21199C12.5376 7.48717 12.3935 7.62494 12.1053 7.6253H11.7072C11.4172 7.6253 11.2732 7.48753 11.2754 7.21199V5.01874H11.7072V7.24898Z" fill="black"/>
<path d="M13.3296 7.18589C13.386 7.18454 13.441 7.16809 13.4888 7.13824C13.5366 7.10839 13.5756 7.06625 13.6016 7.01622C13.6756 6.89079 13.7124 6.74686 13.7076 6.60128V5.01874H14.1394V6.61596C14.1394 6.93356 14.0488 7.1781 13.8675 7.34958C13.6862 7.52107 13.4263 7.60663 13.0876 7.60627H12.875V5.01874H13.3068V7.18589H13.3296Z" fill="black"/>
<path d="M15.5237 5.41356H14.9201V6.09878H15.4193L15.3448 6.47946H14.9201V7.21199H15.5531L15.4786 7.60627H14.4883V5.01874H15.4492L15.5237 5.41356Z" fill="black"/>
<path d="M16.6456 5.97207V5.01874H17.0589V7.60627H16.6456V6.72418L16.2393 5.84155H16.217V7.60627H15.8037V5.01874H16.21L16.6195 5.97207H16.6456Z" fill="black"/>
<path d="M18.4634 5.01874L18.5385 5.42498H18.1214V7.60627H17.6896V5.42498H17.2725L17.3464 5.01874H18.4634Z" fill="black"/>
<path d="M19.1906 7.24898H19.5887V5.01874H20.0205V7.21199C20.0205 7.48717 19.8766 7.62494 19.5887 7.6253H19.1906C18.9006 7.6253 18.7566 7.48753 18.7588 7.21199V5.01874H19.1906V7.24898Z" fill="black"/>
<path d="M20.7677 6.75025V7.26363H21.1364V6.90633C21.1399 6.83747 21.1272 6.76876 21.0994 6.70566C21.0653 6.64902 21.0179 6.6016 20.9613 6.56753L20.5741 6.31084C20.5044 6.26551 20.4481 6.20244 20.4109 6.12811C20.3753 6.05782 20.3567 5.98014 20.3565 5.90134V5.41733C20.3524 5.36121 20.36 5.30485 20.3787 5.25178C20.3974 5.19871 20.4269 5.1501 20.4653 5.10898C20.5032 5.07281 20.5479 5.04456 20.5968 5.02588C20.6458 5.00721 20.6979 4.99848 20.7503 5.00022H21.1484C21.2898 5.00022 21.3915 5.0343 21.4534 5.10246C21.5154 5.17098 21.5464 5.27431 21.5464 5.41353V5.75233L21.1261 5.86381V5.35044H20.7612V5.74091C20.759 5.79846 20.7717 5.85559 20.7981 5.90678C20.8315 5.95909 20.877 6.00256 20.9308 6.03349L21.299 6.27549C21.3781 6.32338 21.4432 6.39127 21.4877 6.47233C21.5322 6.5534 21.5545 6.64476 21.5524 6.7372V7.24351C21.5524 7.37511 21.5153 7.47191 21.4409 7.53391C21.3573 7.59938 21.2528 7.63258 21.1467 7.62745H20.7742C20.6292 7.62745 20.5204 7.59699 20.4479 7.53608C20.3754 7.47518 20.3401 7.37656 20.3419 7.24024V6.7508L20.7677 6.75025Z" fill="black"/>
<path d="M10.0068 11.6736V9.63422H16.9711V19.0609C16.9711 22.1379 16.0906 23.2729 11.74 25.1861C11.169 24.4791 10.8373 23.9048 10.5664 23.2239C12.3464 22.4212 12.8973 22.0862 12.8973 22.0862C14.265 21.2607 14.6223 20.7517 14.6223 18.6503V11.6736H10.0068Z" fill="black"/>
<path d="M19.2029 9.63422H21.5691V19.9669C21.5691 22.2641 20.8621 24.2675 19.3394 25.719C18.5552 26.4923 17.2038 27.363 15.786 27.9998C14.7653 27.5077 14.2851 27.2439 13.502 26.743C17.3631 24.8652 19.2013 23.6617 19.2013 19.3513L19.2029 9.63422Z" fill="black"/>
</svg>
