<svg width="32" height="32" viewBox="0 0 32 32" fill="none" xmlns="http://www.w3.org/2000/svg">
<path d="M0 16C0 24.8365 7.16344 32 16 32C24.8365 32 32 24.8365 32 16C32 7.16344 24.8365 0 16 0C7.16344 0 0 7.16344 0 16Z" fill="#EFEFEF"/>
<path d="M16 0.666666C24.4 0.666666 31.3334 7.6 31.3334 16C31.3334 24.4 24.4 31.3334 16 31.3334C7.6 31.3334 0.666666 24.4 0.666666 16C0.666666 7.6 7.6 0.666666 16 0.666666ZM16 0C7.2 0 0 7.2 0 16C0 24.8 7.2 32 16 32C24.8 32 32 24.8 32 16C32 7.2 24.8 0 16 0Z" fill="#999999"/>
<path d="M18.3879 24.1802C17.5399 24.1802 17.2199 24.8662 17.2199 25.3962C17.2199 25.9262 17.5479 26.6102 18.3599 26.6102C19.0779 26.6102 19.5299 26.0502 19.5299 25.3402C19.5299 24.6302 19.0919 24.1802 18.3879 24.1802ZM18.4699 26.4442C17.9559 26.4442 17.6459 25.9382 17.6459 25.3002C17.6459 24.5362 17.9979 24.3382 18.3079 24.3382C18.7479 24.3382 19.0939 24.7662 19.0939 25.4542C19.0939 26.3402 18.6579 26.4442 18.4699 26.4442Z" fill="#008552"/>
<path d="M9.552 26.6159C9.74701 26.6225 9.94052 26.5791 10.114 26.4898C10.2128 26.4388 10.2952 26.3608 10.3514 26.2649C10.4078 26.1689 10.4357 26.059 10.432 25.9478C10.432 25.6538 10.26 25.4458 9.832 25.1478L9.73205 25.0838C9.43002 24.8838 9.344 24.7798 9.332 24.6358C9.332 24.4499 9.48405 24.3158 9.74598 24.3158C9.81986 24.3092 9.89421 24.3196 9.96348 24.3459C10.0328 24.3722 10.0952 24.4139 10.146 24.4678C10.1991 24.5227 10.234 24.5925 10.246 24.6678C10.246 24.7039 10.258 24.7238 10.282 24.7238C10.306 24.7238 10.322 24.6979 10.32 24.6298C10.32 24.3878 10.32 24.2979 10.32 24.2579C10.32 24.2179 10.302 24.2259 10.27 24.2198C10.114 24.1834 9.95417 24.1659 9.79398 24.1679C9.30001 24.1679 8.98001 24.4118 8.99401 24.7539C8.99401 25.0058 9.144 25.2239 9.54202 25.4899L9.71002 25.6019C10.012 25.8018 10.068 25.9478 10.074 26.0998C10.08 26.2518 9.928 26.4538 9.608 26.4538C9.49939 26.4643 9.39018 26.4395 9.29683 26.3829C9.20347 26.3264 9.13092 26.2411 9.09 26.1398C9.07044 26.0891 9.05767 26.0359 9.052 25.9818C9.052 25.9558 9.05201 25.9279 9.01401 25.9279C8.97601 25.9279 8.976 25.9619 8.974 26.0099C8.972 26.0579 8.974 26.2458 8.974 26.4098C8.974 26.4778 8.986 26.4938 9.04401 26.5158C9.21154 26.5746 9.38855 26.6018 9.56602 26.5958" fill="#008552"/>
<path d="M17.3098 26.4901C17.2682 26.491 17.2265 26.4869 17.1859 26.4782C17.1258 26.4622 17.0698 26.3941 17.0439 26.1201C16.9998 25.6542 16.9178 24.4062 16.9018 24.2382C16.9019 24.2263 16.8983 24.2147 16.8916 24.2049C16.8848 24.1952 16.8752 24.1877 16.8641 24.1836C16.853 24.1794 16.8408 24.1788 16.8294 24.1818C16.8179 24.1847 16.8076 24.1911 16.7998 24.2001C16.7623 24.2378 16.7287 24.2794 16.6999 24.3242C16.1518 25.0741 15.8478 25.4782 15.2999 26.2341C15.2019 26.3662 15.1219 26.5102 14.9358 26.5022C14.8579 26.5022 14.8259 26.4222 14.8179 26.3361C14.7998 26.2001 14.7998 25.9562 14.7998 25.6762V24.4522C14.7998 24.4181 14.8099 24.4001 14.8238 24.3941C14.8631 24.3842 14.9034 24.3802 14.9438 24.3822C15.073 24.3759 15.2003 24.4147 15.3038 24.4922C15.364 24.5518 15.4102 24.6239 15.4392 24.7034C15.4682 24.7829 15.4793 24.8678 15.4718 24.9521C15.4773 25.0739 15.4376 25.1935 15.3606 25.288C15.2835 25.3824 15.1743 25.4451 15.0538 25.4641C14.9898 25.4641 14.9338 25.4741 14.9338 25.4981C14.9338 25.5221 14.9559 25.5221 14.9719 25.5262H15.1319C15.2316 25.5341 15.3319 25.5205 15.4259 25.4863C15.5199 25.4521 15.6056 25.3981 15.6768 25.3279C15.7481 25.2577 15.8036 25.173 15.8392 25.0795C15.875 24.986 15.8902 24.886 15.8839 24.7861C15.8829 24.6496 15.8283 24.5188 15.7319 24.4222C15.6439 24.3361 15.4478 24.2421 15.0659 24.2421C14.9258 24.2421 14.7479 24.2421 14.6218 24.2421C14.5479 24.2421 14.1239 24.2241 14.1038 24.2241C13.9998 24.2241 13.9038 24.2241 13.8359 24.2241C13.7678 24.2241 13.6359 24.2241 13.5038 24.2241C13.4638 24.2241 13.4339 24.2241 13.4339 24.2522C13.4339 24.2801 13.4339 24.2782 13.4778 24.2782C13.5266 24.2753 13.5753 24.2815 13.6218 24.2961C13.6878 24.3281 13.7118 24.3841 13.7159 24.5722V25.7601C13.6679 25.7121 12.3159 24.2122 12.2759 24.1822C12.2671 24.1733 12.2558 24.1673 12.2436 24.1649C12.2312 24.1625 12.2185 24.1639 12.2072 24.1689C12.1957 24.1739 12.186 24.1822 12.1793 24.1928C12.1727 24.2033 12.1694 24.2157 12.1699 24.2282L12.1198 25.7642C11.6398 25.1642 10.8798 24.2181 10.8579 24.1882C10.8503 24.1777 10.8396 24.17 10.8275 24.1659C10.8152 24.1618 10.8021 24.1617 10.7897 24.1654C10.7775 24.1692 10.7667 24.1766 10.7588 24.1868C10.7509 24.1969 10.7464 24.2093 10.7459 24.2222C10.7459 24.3102 10.6078 26.2081 10.6078 26.2081C10.6078 26.3582 10.5818 26.4622 10.4458 26.4801H10.3518C10.3278 26.4801 10.3178 26.4801 10.3239 26.5041C10.3299 26.5281 10.3539 26.5342 10.3959 26.5342C10.5559 26.5342 10.7239 26.5342 10.7578 26.5342C10.8538 26.5342 10.9898 26.5342 11.0899 26.5342C11.1239 26.5342 11.1399 26.5342 11.1319 26.5041C11.1239 26.4741 11.1118 26.4801 11.0759 26.4801H11.0298C10.9964 26.4854 10.9622 26.479 10.933 26.4619C10.9038 26.4447 10.8815 26.4179 10.8698 26.3861C10.8513 26.3266 10.8431 26.2644 10.8458 26.2021V25.7701C10.8458 25.7502 10.8458 25.7461 10.8659 25.7461H11.5239C11.5317 25.7457 11.5396 25.7472 11.5465 25.7507C11.5536 25.7542 11.5596 25.7596 11.5639 25.7662L12.0519 26.3662C12.0563 26.3704 12.0598 26.3756 12.0622 26.3812C12.0646 26.3869 12.0658 26.393 12.0658 26.3991C12.0658 26.4053 12.0646 26.4114 12.0622 26.4171C12.0598 26.4227 12.0563 26.4279 12.0519 26.4321C12.0429 26.4413 12.032 26.4481 12.0199 26.4522C11.9753 26.458 11.9304 26.458 11.8858 26.4522C11.8579 26.4522 11.8579 26.4702 11.8579 26.4881C11.8579 26.5061 11.8819 26.5221 11.9178 26.5221H12.5178H12.7559C12.8759 26.5221 12.8958 26.5221 12.8878 26.4922C12.8798 26.4622 12.8878 26.4602 12.8638 26.4602C12.8333 26.4646 12.8024 26.4646 12.7719 26.4602C12.7018 26.4462 12.6179 26.3582 12.3978 26.0862L12.3498 26.0282L12.3319 24.9201C12.3818 24.9781 13.6058 26.3082 13.7779 26.4922C13.8078 26.5262 13.8398 26.5582 13.8698 26.5582C13.8999 26.5582 13.9059 26.5322 13.9059 26.4641L13.9358 24.5381C13.9358 24.3662 13.9598 24.2961 14.0378 24.2782C14.0935 24.2683 14.1503 24.2683 14.2058 24.2782C14.3079 24.3002 14.3319 24.3482 14.3379 24.4522C14.3438 24.5562 14.3379 24.6362 14.3379 25.1002V25.6382C14.3379 25.9201 14.3379 26.1621 14.3219 26.2901C14.3098 26.3781 14.2958 26.4462 14.2339 26.4581C14.1977 26.4661 14.1608 26.4702 14.1239 26.4702C14.0878 26.4702 14.0759 26.4801 14.0759 26.4961C14.0759 26.5121 14.0958 26.5262 14.1358 26.5262C14.2579 26.5262 14.5358 26.5121 14.5539 26.5121C14.8339 26.5281 15.0798 26.5242 15.2158 26.5121C15.3518 26.5002 15.4938 26.5281 15.5338 26.5281C15.5738 26.5281 15.5959 26.5281 15.5959 26.4961C15.5959 26.4641 15.5959 26.4721 15.5578 26.4721H15.5118C15.4179 26.4721 15.4298 26.4302 15.4618 26.3822L15.8999 25.8001C15.9118 25.7802 15.9198 25.7742 15.9358 25.7742H16.5498C16.5658 25.7742 16.5719 25.7742 16.5738 25.7962L16.5978 26.4341C16.5989 26.4498 16.5944 26.4653 16.5853 26.4781C16.5762 26.4908 16.563 26.5 16.5479 26.5041C16.5159 26.5041 16.4958 26.5041 16.4958 26.5381C16.4958 26.5722 16.5239 26.5681 16.5799 26.5662C16.6899 26.5662 16.7799 26.5662 16.9018 26.5662C17.0238 26.5662 17.1258 26.5781 17.1859 26.5781C17.2999 26.5781 17.3379 26.5621 17.3459 26.5381C17.3539 26.5141 17.3338 26.5041 17.3098 26.5041V26.4901ZM11.4119 25.6321H10.8798C10.8679 25.6321 10.8618 25.6222 10.8599 25.6101L10.8819 24.9962V24.9701C10.8819 24.9701 10.8938 24.9701 10.9038 24.9902C10.9139 25.0101 11.4199 25.6001 11.4199 25.6001C11.4199 25.6001 11.4259 25.6181 11.4119 25.6181V25.6321ZM16.5418 25.6321H16.0439C16.0439 25.6321 16.0259 25.6321 16.0439 25.6101L16.5139 24.9322C16.5139 24.9201 16.5338 24.9322 16.5358 24.9322C16.5358 25.0241 16.5699 25.6122 16.5699 25.6122C16.5699 25.6122 16.5578 25.6161 16.5418 25.6161V25.6321Z" fill="#008552"/>
<path d="M22.0001 24.1802C21.1521 24.1802 20.8321 24.8662 20.8321 25.3962C20.8307 25.6687 20.9108 25.9355 21.062 26.1622C21.0501 26.2171 21.0254 26.2685 20.99 26.3121C20.9121 26.3962 20.7201 26.3982 20.558 26.3982C20.3201 26.3982 20.3041 26.3782 20.252 26.3322C20.2001 26.2862 20.188 26.0662 20.188 25.6742V25.1362C20.188 24.6702 20.188 24.5862 20.188 24.4882C20.188 24.3902 20.2181 24.3282 20.3 24.3122C20.34 24.3093 20.3801 24.3093 20.42 24.3122C20.4561 24.3122 20.476 24.3122 20.476 24.2842C20.476 24.2562 20.454 24.2562 20.412 24.2562C20.292 24.2562 20.0001 24.2662 19.926 24.2662C19.852 24.2662 19.644 24.2562 19.5 24.2562C19.454 24.2562 19.4341 24.2562 19.4341 24.2842C19.4341 24.3122 19.452 24.3122 19.484 24.3122C19.5179 24.3086 19.5522 24.3086 19.5861 24.3122C19.6881 24.3342 19.7121 24.3842 19.718 24.4882C19.724 24.5922 19.718 24.6702 19.718 25.1362V25.6742C19.718 25.9562 19.718 26.1962 19.702 26.3262C19.6901 26.4142 19.676 26.4822 19.614 26.4942C19.578 26.5022 19.5411 26.5062 19.5041 26.5062C19.468 26.5062 19.454 26.5162 19.454 26.5302C19.454 26.5441 19.476 26.5601 19.516 26.5601C19.638 26.5601 19.838 26.5601 19.916 26.5601C20.164 26.5601 20.444 26.5782 20.884 26.5782C21.044 26.5782 21.06 26.5622 21.084 26.4961C21.108 26.4302 21.1121 26.3281 21.1221 26.2442C21.2263 26.3672 21.3572 26.4649 21.5048 26.5296C21.6524 26.5945 21.813 26.6247 21.974 26.6182C22.692 26.6182 23.1441 26.0582 23.1441 25.3482C23.1441 24.6382 22.7061 24.1882 22.0021 24.1882L22.0001 24.1802ZM22.084 26.4522C21.5681 26.4522 21.26 25.9462 21.26 25.3082C21.26 24.5442 21.612 24.3462 21.9201 24.3462C22.3601 24.3462 22.708 24.7742 22.708 25.4622C22.708 26.3402 22.2721 26.4442 22.084 26.4442V26.4522Z" fill="#008552"/>
<path d="M23.0881 23.0959C23.0276 23.0965 22.9672 23.0905 22.908 23.078C22.822 23.0559 22.74 22.958 22.708 22.5599C22.644 21.8899 22.5281 20.086 22.508 19.8419C22.5072 19.8261 22.5019 19.8109 22.4929 19.7979C22.4839 19.7849 22.4715 19.7745 22.457 19.7681C22.4425 19.7617 22.4265 19.7595 22.4109 19.7615C22.3952 19.7636 22.3803 19.77 22.3681 19.78C22.3143 19.8338 22.2666 19.8936 22.2261 19.958C21.614 20.7919 21.212 21.332 20.692 22.036C20.612 21.7139 20.3621 21.4499 19.844 21.1059L19.6961 21.012C19.262 20.7279 19.1381 20.572 19.132 20.366C19.132 20.0959 19.35 19.9039 19.732 19.9039C19.8369 19.8963 19.9422 19.9119 20.0404 19.9496C20.1385 19.9873 20.2272 20.0462 20.3 20.1219C20.3776 20.2039 20.4273 20.3082 20.4421 20.42C20.4421 20.4719 20.46 20.5 20.4961 20.5C20.532 20.5 20.55 20.4639 20.548 20.366C20.548 20.0159 20.548 19.886 20.548 19.8259C20.548 19.796 20.5221 19.782 20.4741 19.774C20.2495 19.7198 20.0191 19.6936 19.788 19.6959C19.0741 19.6959 18.612 20.052 18.6261 20.5439C18.638 20.908 18.8421 21.222 19.4261 21.6079L19.6661 21.7699C20.102 22.0559 20.1861 22.268 20.1921 22.486C20.198 22.7039 19.9701 22.9999 19.5061 22.9999C19.3494 23.0147 19.1921 22.9788 19.0575 22.8975C18.9228 22.816 18.8178 22.6935 18.758 22.548C18.7298 22.4741 18.7116 22.3967 18.7041 22.318C18.7041 22.2819 18.7041 22.2419 18.652 22.2419C18.6001 22.2419 18.6001 22.292 18.5921 22.358C18.5841 22.4239 18.572 22.5059 18.5681 22.5359C18.5361 22.718 18.4821 22.812 18.3681 22.8659C18.2327 22.9103 18.0903 22.9287 17.948 22.9199C17.494 22.9199 17.164 22.852 17.148 22.5459C17.148 22.4159 17.148 22.006 17.148 21.854V21.5C17.148 21.4739 17.148 21.4559 17.1761 21.4559C17.2821 21.4559 17.918 21.4559 18.0021 21.47C18.1681 21.4879 18.23 21.5539 18.252 21.644C18.2622 21.6968 18.2682 21.7503 18.27 21.804C18.269 21.8095 18.2693 21.8151 18.2709 21.8205C18.2725 21.8258 18.2754 21.8307 18.2793 21.8347C18.2833 21.8386 18.2882 21.8415 18.2935 21.8431C18.2989 21.8447 18.3046 21.845 18.31 21.844C18.35 21.844 18.35 21.796 18.35 21.7599C18.35 21.724 18.35 21.55 18.3681 21.46C18.382 21.2339 18.404 21.1619 18.404 21.1359C18.404 21.11 18.39 21.1 18.372 21.1C18.3541 21.1 18.332 21.1219 18.302 21.158C18.2413 21.2057 18.1651 21.2292 18.0881 21.2239C17.9841 21.2239 17.2881 21.2239 17.18 21.2239C17.1541 21.2239 17.148 21.206 17.148 21.174V20.046C17.148 20.014 17.148 19.9999 17.18 19.9999C17.268 19.9999 17.9301 19.9999 18.006 20.0179C18.23 20.046 18.2741 20.0979 18.3061 20.18C18.3239 20.2314 18.3327 20.2855 18.332 20.34C18.332 20.38 18.332 20.4019 18.372 20.4019C18.412 20.4019 18.412 20.3759 18.4181 20.3519C18.4241 20.3279 18.436 20.1039 18.4401 20.0579C18.4464 19.9608 18.4577 19.8639 18.4741 19.7679C18.4741 19.7459 18.4741 19.7279 18.4481 19.7279C18.4237 19.7323 18.3996 19.7383 18.3761 19.7459C18.3101 19.7596 18.2433 19.7683 18.1761 19.772C18.0901 19.772 17.0081 19.772 16.8661 19.772C16.804 19.772 16.702 19.772 16.5861 19.7619H16.2881C16.2881 19.74 16.276 19.7299 16.2561 19.7299C16.1168 19.7604 15.9746 19.7752 15.8321 19.774H14.3441C14.1964 19.7741 14.0489 19.7667 13.902 19.7519C13.8388 19.7432 13.7761 19.7312 13.7141 19.716C13.6901 19.716 13.6741 19.716 13.662 19.774H13.6181H13.444H13.2161C13.126 19.774 12.948 19.7619 12.756 19.7619C12.6981 19.7619 12.654 19.7619 12.654 19.7999C12.654 19.838 12.67 19.8399 12.716 19.8399C12.7837 19.8373 12.8514 19.8461 12.916 19.8659C13.0001 19.9059 13.038 19.9759 13.046 20.1859L13.06 21.9859C13.0001 21.932 11.0581 19.766 11.0001 19.7219C10.9875 19.7095 10.9715 19.701 10.9541 19.6978C10.9367 19.6946 10.9188 19.6967 10.9026 19.7038C10.8864 19.7109 10.8727 19.7228 10.8633 19.7377C10.8539 19.7528 10.8493 19.7703 10.8501 19.788L10.812 20.95L10.758 22.486C10.758 22.868 10.678 22.9439 10.5761 23.006C10.518 23.0339 10.4545 23.0489 10.39 23.0499C10.297 23.0601 10.2031 23.0601 10.11 23.0499C10.0565 23.0396 10.0079 23.0117 9.97176 22.9709C9.93562 22.93 9.91388 22.8783 9.91002 22.8239C9.89204 22.6239 9.89204 22.284 9.89204 21.854V21.076C9.89204 20.404 9.89204 20.276 9.89204 20.1379C9.89204 19.9999 9.93609 19.908 10.0561 19.886C10.0989 19.8778 10.1424 19.8731 10.1861 19.8719C10.23 19.8719 10.2561 19.8719 10.2561 19.828C10.2561 19.7839 10.222 19.7939 10.164 19.7939C9.99802 19.7939 9.73806 19.806 9.62804 19.806C9.51802 19.806 9.22806 19.7939 9.05606 19.7939C8.98606 19.7939 8.95006 19.7939 8.95006 19.828C8.95006 19.862 8.97606 19.8719 9.02006 19.8719C9.0739 19.8719 9.12758 19.878 9.18006 19.8899C9.27606 19.9119 9.32006 19.988 9.32806 20.1379C9.33606 20.2879 9.32806 20.404 9.32806 21.076V21.854C9.32806 22.284 9.32806 22.6319 9.30606 22.8179C9.29206 22.948 9.26606 23.0179 9.17806 23.0399C9.12614 23.0513 9.07321 23.0574 9.02006 23.0579C8.96606 23.0579 8.94806 23.07 8.94806 23.094C8.94806 23.118 8.98006 23.1379 9.03606 23.1379C9.21206 23.1379 9.49006 23.124 9.59209 23.124C9.69402 23.124 10.372 23.1379 10.3921 23.1379C10.62 23.1379 10.8501 23.1379 10.8901 23.1379C10.974 23.1379 11.148 23.1519 11.4341 23.1519C11.4961 23.1519 11.534 23.1519 11.534 23.108C11.534 23.0639 11.508 23.0719 11.46 23.0719C11.383 23.0746 11.3059 23.0644 11.2321 23.0419C11.1441 23.0099 11.0881 22.8959 11.078 22.5519L11.062 21.684L11.068 20.7999C11.14 20.884 12.8981 22.7999 13.1461 23.0719C13.19 23.1199 13.236 23.1679 13.2801 23.1679C13.324 23.1679 13.3301 23.1299 13.3301 23.0319L13.374 20.2479C13.374 20.214 13.374 20.182 13.374 20.1519C13.3861 19.9859 13.4241 19.924 13.502 19.8879C13.5493 19.8701 13.5995 19.8612 13.6501 19.862C13.6501 19.99 13.6501 20.2479 13.6501 20.302C13.6501 20.356 13.6501 20.374 13.6901 20.374C13.7301 20.374 13.7301 20.356 13.74 20.3199C13.7558 20.2641 13.7807 20.2114 13.814 20.164C13.8801 20.068 13.988 20.044 14.244 20.036L14.686 20.0179V21.8399C14.686 22.2399 14.686 22.5999 14.6641 22.7859C14.652 22.916 14.598 23.012 14.51 23.0319C14.4278 23.0421 14.3449 23.0475 14.262 23.0479C14.2081 23.0479 14.1921 23.062 14.1921 23.084C14.1921 23.1059 14.222 23.1279 14.2801 23.1279C14.4561 23.1279 14.8501 23.116 14.9521 23.116C15.054 23.116 15.3521 23.1279 15.646 23.1279C15.694 23.1279 15.7301 23.116 15.7301 23.084C15.7301 23.052 15.708 23.0479 15.66 23.0479C15.5845 23.0467 15.5091 23.0414 15.4341 23.0319C15.302 23.012 15.2741 22.916 15.262 22.79C15.238 22.5999 15.238 22.2479 15.238 21.8399V20.02L15.6741 20.0339C16.0741 20.0339 16.2021 20.166 16.2101 20.2819V20.332C16.2101 20.398 16.222 20.42 16.2581 20.42C16.294 20.42 16.294 20.3939 16.2981 20.348C16.2981 20.2419 16.2981 19.9679 16.2981 19.8559C16.326 19.8542 16.3541 19.8542 16.382 19.8559C16.5281 19.8879 16.564 19.958 16.582 20.11C16.6001 20.262 16.582 20.3779 16.582 21.0559V21.8419C16.582 22.2419 16.582 22.604 16.5601 22.7919C16.542 22.9219 16.5201 23.02 16.43 23.038C16.3775 23.0495 16.3239 23.0556 16.27 23.0559C16.2161 23.0559 16.198 23.068 16.198 23.0899C16.198 23.1119 16.23 23.1359 16.2881 23.1359C16.3781 23.1359 16.4881 23.1359 16.596 23.1359H16.8501C16.9841 23.1359 17.1221 23.1359 17.3141 23.15C17.5061 23.164 18.0101 23.1619 18.3461 23.1619C18.5141 23.1619 18.5461 23.1619 18.5861 23.046C18.5854 23.0414 18.5854 23.0366 18.5861 23.0319C18.598 23.0659 18.6241 23.0819 18.676 23.102C18.918 23.187 19.1737 23.2264 19.43 23.2179C19.5298 23.2182 19.6293 23.2115 19.7281 23.198C19.86 23.198 19.972 23.198 20.054 23.198C20.2161 23.198 20.454 23.198 20.5141 23.198C20.574 23.198 20.604 23.198 20.604 23.166C20.604 23.134 20.5921 23.1299 20.55 23.1299H20.484C20.3461 23.1299 20.3621 23.07 20.4101 22.9999L21.0401 22.092C21.0561 22.0659 21.068 22.0579 21.0901 22.0579H21.98C21.9843 22.0574 21.9887 22.0577 21.9927 22.059C21.9969 22.0603 22.0007 22.0623 22.0039 22.0652C22.0071 22.0681 22.0097 22.0716 22.0115 22.0755C22.0132 22.0794 22.0141 22.0837 22.014 22.0879L22.0481 23.0099C22.0498 23.0327 22.0436 23.0553 22.0304 23.0739C22.0172 23.0926 21.998 23.106 21.9761 23.1119C21.9301 23.1119 21.9 23.1119 21.902 23.1599C21.9041 23.2079 21.94 23.204 22.022 23.2019C22.182 23.2019 22.3061 23.2019 22.486 23.2019C22.6661 23.2019 22.812 23.2179 22.8981 23.2179C23.06 23.2179 23.118 23.196 23.1301 23.1599C23.142 23.124 23.1121 23.1119 23.076 23.1119L23.0881 23.0959ZM21.9681 21.8499H21.2481C21.2481 21.8499 21.2241 21.8399 21.2481 21.82C21.318 21.718 21.7441 21.1039 21.9301 20.8399C21.942 20.822 21.958 20.828 21.9601 20.8399C21.9601 20.972 22.0081 21.822 22.0081 21.822C22.0053 21.8267 22.001 21.8303 21.996 21.8325C21.991 21.8347 21.9854 21.8351 21.98 21.8339L21.9681 21.8499Z" fill="#008552"/>
<path d="M21.6439 8.23812C21.5993 8.20932 21.5491 8.19048 21.4967 8.18288C21.4441 8.1753 21.3907 8.17913 21.3399 8.19412C20.7869 8.15172 20.2322 8.13837 19.6778 8.15412H19.6398C19.3559 8.15412 19.0618 8.15412 18.7678 8.15412L16.3998 8.10413C15.8419 8.09012 15.2318 8.09412 14.6338 8.11812C14.1918 8.11812 13.7619 8.13213 13.3239 8.14612C12.8858 8.16013 11.7778 8.16212 11.1239 8.16212H10.5719C10.5261 8.17379 10.4851 8.19924 10.4543 8.23501C10.4235 8.27079 10.4045 8.31517 10.3998 8.36212C10.3995 8.37674 10.4023 8.39125 10.4076 8.40483C10.413 8.41841 10.4211 8.43077 10.4313 8.4412C10.4416 8.45163 10.4538 8.45991 10.4673 8.46557C10.4808 8.47121 10.4953 8.47412 10.5098 8.47412C10.5719 8.47412 10.9658 8.47412 11.6798 8.47412H12.4098C12.6098 8.47412 12.6958 8.47412 12.7378 8.47412C13.2699 8.4294 13.8041 8.41338 14.3379 8.42612H14.3778C14.7159 8.42612 15.0659 8.42612 15.4158 8.42612C15.4902 8.43299 15.5652 8.42414 15.6359 8.40013H15.6478L15.7479 8.38413C15.8358 8.4033 15.926 8.41003 16.0158 8.40413C16.1076 8.39794 16.1997 8.40399 16.2898 8.42212H16.3058C16.3771 8.40194 16.4526 8.40194 16.5239 8.42212H16.5379C16.5705 8.43056 16.6041 8.43526 16.6378 8.43613C17.4261 8.42253 18.2145 8.4499 18.9998 8.51812L19.4439 8.56612C19.8437 8.53944 20.2451 8.54613 20.6439 8.58612C20.9277 8.61271 21.2127 8.62473 21.4979 8.62212H21.5159L21.6638 8.50612C21.6889 8.46651 21.6991 8.41938 21.6929 8.37296C21.6867 8.32654 21.6644 8.28378 21.6298 8.25213" fill="#DDB52E"/>
<path d="M23.1439 4.23389H8.95795V18.4199H23.1439V4.23389ZM22.3999 17.6719H9.70597V4.98388H22.3999V17.6719Z" fill="#E88940"/>
</svg>
