<svg width="32" height="32" viewBox="0 0 32 32" fill="none" xmlns="http://www.w3.org/2000/svg">
<path d="M0 16C0 24.8365 7.16344 32 16 32C24.8365 32 32 24.8365 32 16C32 7.16344 24.8365 0 16 0C7.16344 0 0 7.16344 0 16Z" fill="black"/>
<g clip-path="url(#clip0)">
<path d="M24.8963 12.2023H31V20.1013H24.9563H24.9566C24.9751 20.6434 25.7325 21.5773 26.4123 21.5773C24.4177 23.8911 19.7301 26.8832 16.0001 27.6412C12.2699 26.8832 7.58245 23.8911 5.58786 21.5773C6.26764 21.5773 7.12484 20.6434 7.14337 20.1013H1V12.2023H7.14354C7.14354 11.3845 6.55518 10.9656 6.0016 10.9656V8.17311C9.3776 8.17311 13.6662 7.05617 16.0197 5.00162C18.3735 7.05617 22.6621 8.17311 26.0381 8.17311V10.9358C25.4847 10.9358 24.8963 11.4095 24.8963 12.2023Z" fill="black"/>
<path d="M30.4016 19.4233V12.8808H1.59863V19.4233H30.4016Z" fill="white"/>
<path d="M29.7233 18.7458V13.5597H2.27637V18.7458H29.7233Z" fill="black"/>
<path d="M15.9999 6.75773C17.6952 8.13407 21.5651 9.23109 24.6317 9.42564V10.1189C23.6644 10.423 23.4754 11.4204 23.4754 12.2033H24.1529C24.1529 11.2758 24.6018 10.6773 25.3101 10.5078V8.85231C21.7643 8.6228 17.8948 7.55567 15.9999 5.87012C14.1049 7.55567 10.2352 8.6228 6.68945 8.85231V10.5078C7.39756 10.6773 7.84644 11.2758 7.84644 12.2033H8.52413C8.52413 11.4204 8.30039 10.4431 7.36767 10.1239V9.42581C10.4347 9.23109 14.3041 8.13407 15.9999 6.75773ZM15.9798 26.9288C18.9663 26.4451 24.098 23.2137 25.2601 21.7325C24.6469 21.4584 24.1332 20.5807 24.1332 20.062H23.4499C23.4499 20.5806 23.7988 21.3436 24.2875 21.7524C22.9711 23.024 18.8221 25.7867 15.9897 26.2405C13.1571 25.7867 9.00831 23.024 7.69174 21.7524C8.18047 21.3436 8.52937 20.5806 8.52937 20.062H7.84644C7.84644 20.5806 7.33288 21.4582 6.71952 21.7325C7.8814 23.2139 12.9933 26.4453 15.9798 26.9288Z" fill="#D9782D"/>
<path d="M10.5051 20.0619H9.18359V22.0966C9.37797 22.2712 10.181 22.8398 10.5051 23.0576V22.2312C10.3256 22.1216 9.96162 21.867 9.80675 21.7227V20.8999H10.5051V20.0619ZM10.8641 20.0619V23.2885C11.1083 23.4528 11.8316 23.872 12.1807 24.0663V23.2285C11.8965 23.0988 11.6871 22.9791 11.4824 22.8297V20.0619H10.8641ZM14.5204 24.617C14.5204 24.929 14.3353 25.0206 14.2131 24.9781C13.7565 24.8194 13.148 24.5449 12.736 24.349C12.5605 24.2654 12.4987 24.1868 12.4987 23.9929V20.3397C12.4987 20.1458 12.5838 20.0635 12.7535 20.0635H14.2655C14.4354 20.0635 14.5204 20.1609 14.5204 20.3547V24.617Z" fill="#D9782D"/>
<path d="M13.9767 20.9393C13.9767 20.8654 13.9242 20.8053 13.8594 20.8053H13.3224C13.2573 20.8053 13.2051 20.8654 13.2051 20.9393V23.662C13.2051 23.736 13.2612 23.7769 13.3224 23.7961L13.8594 24.0205C13.9247 24.0363 13.9767 23.9964 13.9767 23.8866V20.9393Z" fill="black"/>
<path d="M15.9902 25.4631C16.0523 25.458 16.2495 25.4131 16.3244 25.3881V20.8303H17.0773L17.1626 20.0623H15.9798H16.0006H14.8177L14.9231 20.8303H15.6809V25.3881C15.7307 25.4131 15.9278 25.458 15.9902 25.4631ZM18.1046 20.0623H17.4662V25.084C17.5709 25.0492 18.0247 24.8796 18.1046 24.8496V22.2567H18.7527V24.5704C18.9222 24.4905 19.3313 24.3011 19.3809 24.2712V20.0623H18.7527V21.2991H18.1046V20.0623ZM21.0217 20.0623H19.78V24.0716C20.124 23.8723 20.7525 23.5231 21.0217 23.3308V22.5038L20.4283 22.8749V22.067L21.0217 21.8076V21.2691H20.4283V20.7903H21.0217V20.0623ZM22.8368 20.0623H21.4456V21.7279H22.1736L21.4407 22.2366V23.0644C21.8296 22.82 22.6324 22.2116 22.837 22.0271V21.1294H22.089V20.7403H22.837V20.0623H22.8368ZM9.97118 12.2033H9.28809V9.80474C9.39768 9.78481 9.88658 9.70511 9.95615 9.69007L10.5048 10.7572L11.0184 9.4707C11.2676 9.41092 11.7613 9.29608 11.7613 9.28629V12.2035H11.0432V11.0666L10.5047 12.064L9.97101 11.1963V12.2033H9.97118ZM14.4728 11.9105C14.4728 12.1042 14.3755 12.2017 14.1816 12.2017H12.4552C12.2613 12.2017 12.164 12.1194 12.164 11.9255V9.43907C12.164 9.24522 12.3073 9.12356 12.5151 9.05312C13.0072 8.88619 13.6665 8.6628 14.1219 8.47419C14.2549 8.41913 14.4728 8.52314 14.4728 8.83515V11.9105Z" fill="#D9782D"/>
<path d="M13.7554 9.59023C13.7554 9.51629 13.6962 9.44078 13.6214 9.45634L13.0081 9.58604C12.9383 9.60526 12.874 9.64599 12.874 9.7201V11.3257C12.874 11.3997 12.934 11.4596 13.0081 11.4596H13.6214C13.6569 11.4596 13.691 11.4455 13.7161 11.4204C13.7412 11.3953 13.7554 11.3613 13.7554 11.3257V9.59023Z" fill="black"/>
<path d="M16.0001 12.2027H16.367V8.43776C16.5086 8.56239 17.1216 8.9015 17.242 8.94153V8.23832C16.9749 8.11876 16.2042 7.63003 16.0001 7.43549C15.7954 7.63003 15.0252 8.11876 14.7578 8.23832V8.93995C14.8782 8.90167 15.4914 8.56239 15.6332 8.43776V12.2027H16.0001ZM20.9643 12.2027H20.2688V9.46014C20.2688 9.38026 20.3237 9.31506 20.4182 9.34041C20.9419 9.48007 21.984 9.70451 22.438 9.76936C22.6229 9.79575 22.7521 9.89399 22.7521 10.0038V10.8166C22.7521 10.9412 22.7072 11.066 22.6324 11.1008C22.7072 11.1207 22.7771 11.2154 22.7771 11.36V12.2027H22.0889V11.6093C22.0889 11.5294 22.0489 11.4846 21.9641 11.4846H21.0865C21.0216 11.4846 20.9643 11.5245 20.9643 11.5843V12.2027Z" fill="#D9782D"/>
<path d="M22.0888 10.7322V10.423C22.0888 10.3781 22.0386 10.3432 22.004 10.3383C22.004 10.3383 21.1557 10.2414 21.0715 10.2285C21.0067 10.2185 20.9668 10.2584 20.9668 10.3332V10.727C20.9668 10.7819 20.9916 10.8168 21.0615 10.8168H22.0091C22.0839 10.817 22.0888 10.7322 22.0888 10.7322Z" fill="black"/>
<path d="M17.5275 8.83515C17.5275 8.52314 17.7457 8.41913 17.8787 8.47419C18.3341 8.6628 18.9936 8.88619 19.4855 9.05312C19.6931 9.12356 19.8365 9.24522 19.8365 9.43907V11.9254C19.8365 12.1192 19.7391 12.2015 19.5451 12.2015H17.8187C17.6247 12.2015 17.5273 12.1042 17.5273 11.9103V8.83515H17.5275Z" fill="#D9782D"/>
<path d="M18.2451 11.3258C18.2451 11.3997 18.3049 11.4596 18.379 11.4596H18.9923C19.0278 11.4596 19.0619 11.4455 19.087 11.4204C19.1122 11.3953 19.1263 11.3613 19.1264 11.3258V9.72005C19.1264 9.64594 19.062 9.60538 18.9923 9.58598L18.379 9.45628C18.304 9.44072 18.2451 9.51623 18.2451 9.59017V11.3258Z" fill="black"/>
<path d="M13.4952 16.2561H14.4793V16.7666H13.4952V16.2561ZM3.12793 18.3464V14.086H3.73692V15.7195H4.07602V14.086H4.68483V18.3464H4.07602V16.2762H3.73692V18.3464H3.12793ZM5.38629 14.086H6.29977L6.7649 18.3464H6.15032L6.03548 17.1915H5.60461L5.47246 18.3464H4.92098L5.38629 14.086Z" fill="white"/>
<path d="M5.97836 16.6357L5.85179 14.8646H5.81158L5.66211 16.6357H5.97836Z" fill="black"/>
<path d="M6.95898 18.3466V14.086H7.76319C8.25138 14.086 8.55027 14.2655 8.55027 14.8162V15.4204C8.55027 15.7374 8.4641 16.0008 7.94707 16.0609V16.0728C8.21712 16.1086 8.5043 16.2046 8.5272 16.5935C8.56164 17.162 8.5272 17.7603 8.62491 18.3467H8.01594C7.91264 17.8559 7.94148 17.2156 7.94148 16.719C7.94148 16.4617 7.84954 16.36 7.56795 16.372V18.3467H6.95898V18.3466Z" fill="white"/>
<path d="M7.56738 15.8515H7.68223C7.89478 15.8515 7.94075 15.7318 7.94075 15.5762V14.8043C7.94075 14.6426 7.84881 14.5948 7.71089 14.5948H7.56738V15.8515Z" fill="black"/>
<path d="M8.84766 18.3465V14.0861H9.45664V17.79H10.232V18.3465H8.84766ZM10.4238 18.3465V14.0861H11.7795V14.6425H11.0326V15.7374H11.7508V16.2943H11.0326V17.79H11.791V18.3465H10.4238ZM12.5608 14.0861L12.7618 15.0135C12.848 15.4264 12.842 15.4864 12.894 15.9351H12.9053C12.9226 15.6 12.9455 15.3186 13.0088 15.0433L13.2271 14.0859H13.7957L13.1696 16.7248V18.3464H12.5608V16.7547L11.9347 14.0859H12.5608V14.0861ZM14.8017 14.0861H15.5368C16.1401 14.0861 16.3928 14.3014 16.3928 15.0494V17.5747C16.3928 17.9816 16.1401 18.3465 15.6692 18.3465H14.8017V14.0861Z" fill="white"/>
<path d="M15.4111 17.8381H15.5548C15.7099 17.8381 15.7845 17.7963 15.7845 17.521V14.9118C15.7845 14.6367 15.7099 14.5949 15.5548 14.5949H15.4111V17.8381Z" fill="black"/>
<path d="M17.1069 14.086H18.0204L18.4857 18.3464H17.8711L17.7561 17.1915H17.3252L17.1933 18.3464H16.6416L17.1069 14.086Z" fill="white"/>
<path d="M17.6987 16.6357L17.5724 14.8646H17.5322L17.3828 16.6357H17.6987Z" fill="black"/>
<path d="M18.9861 14.086L19.1756 15.8631C19.2216 16.2821 19.2675 17.1139 19.3135 17.5387H19.325C19.3596 17.0241 19.4053 16.5155 19.4456 16.0068L19.6293 14.086H20.2382L19.7557 18.3464H18.8365L18.377 14.086H18.9861ZM20.458 18.3464V14.086H21.067V18.3464H20.458ZM21.3869 14.086H22.1221C22.7253 14.086 22.978 14.3014 22.978 15.0493V17.5745C22.978 17.9814 22.7251 18.3464 22.2542 18.3464H21.3869V14.086Z" fill="white"/>
<path d="M21.9961 17.8381H22.1398C22.2949 17.8381 22.3696 17.7963 22.3696 17.521V14.9118C22.3696 14.6367 22.2949 14.5949 22.1398 14.5949H21.9961V17.8381Z" fill="black"/>
<path d="M23.8922 17.6585C23.8922 17.874 23.9553 17.9219 24.0817 17.9219C24.2023 17.9219 24.2656 17.8742 24.2656 17.6585V17.2098C24.2656 16.6115 23.2832 16.0252 23.2832 15.3309V14.7205C23.2832 14.1639 23.7025 14.0024 24.0761 14.0024C24.4552 14.0024 24.8745 14.1641 24.8745 14.7205V15.6181H24.2656V14.7743C24.2656 14.559 24.2025 14.5111 24.0817 14.5111C23.9553 14.5111 23.8922 14.559 23.8922 14.7743V15.301C23.8922 15.6062 24.8745 16.5277 24.8745 16.9586V17.7123C24.8745 18.2691 24.4552 18.4304 24.0761 18.4304C23.7027 18.4304 23.2832 18.2689 23.2832 17.7123V16.7312H23.8922V17.6585ZM25.1301 14.7205C25.1301 14.1639 25.5494 14.0024 25.923 14.0024C26.3021 14.0024 26.7214 14.1641 26.7214 14.7205V17.7123C26.7214 18.2691 26.3021 18.4304 25.923 18.4304C25.5494 18.4304 25.1301 18.2689 25.1301 17.7123V14.7205Z" fill="white"/>
<path d="M25.7393 17.6588C25.7393 17.8743 25.8026 17.9222 25.9288 17.9222C26.0495 17.9222 26.1128 17.8745 26.1128 17.6588V14.7746C26.1128 14.5592 26.0496 14.5114 25.9288 14.5114C25.8024 14.5114 25.7393 14.5592 25.7393 14.7746V17.6588Z" fill="black"/>
<path d="M27.9424 14.086L28.1148 15.3127C28.2537 16.1108 28.3496 16.9158 28.4021 17.7241H28.425V17.4967C28.4306 17.0841 28.4077 16.6651 28.4077 16.2522V14.086H28.9076V18.3464H28.0057L27.7185 16.216C27.6208 15.6896 27.5864 15.2108 27.5346 14.7081H27.5117C27.5117 14.8937 27.5233 15.0792 27.529 15.2587V18.3462H27.0293V14.086H27.9424Z" fill="white"/>
</g>
<defs>
<clipPath id="clip0">
<rect width="30" height="22.644" fill="white" transform="translate(1 5)"/>
</clipPath>
</defs>
</svg>
