<svg width="32" height="32" viewBox="0 0 32 32" fill="none" xmlns="http://www.w3.org/2000/svg">
<path d="M0 16C0 24.8365 7.16344 32 16 32C24.8365 32 32 24.8365 32 16C32 7.16344 24.8365 0 16 0C7.16344 0 0 7.16344 0 16Z" fill="#EFEFEF"/>
<path d="M16 0.666666C24.4 0.666666 31.3334 7.6 31.3334 16C31.3334 24.4 24.4 31.3334 16 31.3334C7.6 31.3334 0.666666 24.4 0.666666 16C0.666666 7.6 7.6 0.666666 16 0.666666ZM16 0C7.2 0 0 7.2 0 16C0 24.8 7.2 32 16 32C24.8 32 32 24.8 32 16C32 7.2 24.8 0 16 0Z" fill="#999999"/>
<path d="M16 2.32397C13.2952 2.32397 10.651 3.12605 8.40201 4.62879C6.15301 6.13153 4.40012 8.26743 3.36502 10.7664C2.32991 13.2654 2.05909 16.0151 2.58678 18.668C3.11447 21.3209 4.41698 23.7577 6.3296 25.6704C8.24222 27.5829 10.6791 28.8855 13.332 29.4132C15.9848 29.9409 18.7346 29.67 21.2336 28.635C23.7325 27.5999 25.8684 25.8469 27.3712 23.5979C28.8739 21.349 29.676 18.7048 29.676 16C29.676 12.3729 28.2351 8.89433 25.6704 6.32958C23.1056 3.76483 19.6271 2.32397 16 2.32397ZM16 29C13.4288 29 10.9154 28.2375 8.77758 26.8091C6.63975 25.3806 4.9735 23.3503 3.98956 20.9749C3.00562 18.5994 2.74818 15.9856 3.24979 13.4638C3.7514 10.942 4.98952 8.62567 6.8076 6.80759C8.62569 4.9895 10.942 3.75137 13.4638 3.24976C15.9856 2.74815 18.5994 3.0056 20.9749 3.98954C23.3503 4.97348 25.3806 6.63972 26.8091 8.77756C28.2376 10.9154 29 13.4288 29 16C29 19.4478 27.6304 22.7544 25.1924 25.1924C22.7544 27.6303 19.4478 29 16 29Z" fill="url(#paint0_linear)"/>
<path d="M29.0899 15.9999C29.0904 18.5894 28.3227 21.1209 26.8843 23.2741C25.4459 25.4275 23.4012 27.1058 21.0089 28.0969C18.6166 29.0881 15.9841 29.3476 13.4442 28.8424C10.9045 28.3374 8.57154 27.0904 6.74047 25.2594C4.9094 23.4283 3.66247 21.0953 3.15737 18.5556C2.65228 16.0158 2.91171 13.3832 3.90286 10.9909C4.89401 8.59856 6.57236 6.55389 8.72564 5.11547C10.8789 3.67707 13.4104 2.90952 15.9999 2.90991C19.4716 2.90991 22.8011 4.28903 25.2559 6.74388C27.7108 9.19873 29.0899 12.5283 29.0899 15.9999Z" fill="#333333"/>
<path d="M29 16C29 18.5712 28.2376 21.0846 26.8091 23.2224C25.3806 25.3603 23.3503 27.0264 20.9749 28.0104C18.5994 28.9944 15.9856 29.2519 13.4638 28.7502C10.9421 28.2486 8.6257 27.0104 6.80762 25.1924C4.98954 23.3743 3.75141 21.0579 3.2498 18.5362C2.74819 16.0144 3.00563 13.4006 3.98957 11.0251C4.97352 8.64968 6.63976 6.61935 8.77759 5.1909C10.9154 3.76244 13.4289 3 16 3C19.4478 3 22.7544 4.36964 25.1924 6.80761C27.6304 9.24558 29 12.5522 29 16Z" fill="url(#paint1_radial)"/>
<path d="M24.7101 16.0001C24.7105 17.7233 24.1998 19.408 23.2426 20.8409C22.2856 22.2739 20.9249 23.3908 19.3329 24.0505C17.741 24.7102 15.9891 24.8828 14.2989 24.5467C12.6088 24.2107 11.0563 23.3809 9.83774 22.1623C8.61925 20.9439 7.78947 19.3913 7.45339 17.7011C7.11729 16.0111 7.28999 14.2592 7.94963 12.6672C8.60926 11.0752 9.72622 9.71459 11.1592 8.75744C12.5922 7.80031 14.2768 7.28964 16.0001 7.29004C17.1439 7.29004 18.2765 7.51533 19.3333 7.95304C20.39 8.39076 21.3502 9.03234 22.159 9.84109C22.9678 10.6499 23.6093 11.6101 24.0471 12.6669C24.4848 13.7236 24.7101 14.8562 24.7101 16.0001Z" fill="url(#paint2_linear)"/>
<path d="M16.348 7.054L17.252 4.656V7.054H17.94V3.62H16.906L15.968 6.078H15.976L15.036 3.62H14.004V7.054H14.692V4.656L15.596 7.054H16.348Z" fill="black"/>
<path d="M25.7781 8.5939L24.6041 10.3059L26.4481 9.3979L26.9501 9.99787L24.0461 11.4559L23.4601 10.7459L24.5861 9.0499L24.5781 9.0419L22.7061 9.84192L22.1141 9.1379L24.0701 6.5459L24.572 7.1459L23.3461 8.79589L25.2421 7.9499L25.7781 8.5939Z" fill="black"/>
<path d="M9.91595 7.93812C9.77139 7.79656 9.58231 7.70928 9.38078 7.69105C9.17925 7.67283 8.97761 7.72478 8.80997 7.83812C8.8695 7.67196 8.8695 7.49029 8.80997 7.32412C8.72569 7.1375 8.59651 6.97465 8.43397 6.85012C7.97996 6.46412 7.49397 6.80012 7.14796 7.20012L5.47196 9.20012L8.10597 11.4161L9.87398 9.30812C10.2779 8.82812 10.34 8.35012 9.91595 7.93812ZM6.51596 8.90212L7.51596 7.70212C7.59026 7.63179 7.68867 7.59259 7.79096 7.59259C7.89326 7.59259 7.99168 7.63179 8.06597 7.70212C8.10609 7.7317 8.13971 7.7692 8.16474 7.81229C8.18978 7.85539 8.20569 7.90317 8.2115 7.95267C8.21732 8.00217 8.2129 8.05234 8.19853 8.10007C8.18416 8.14779 8.16014 8.19206 8.12796 8.23012L7.12796 9.41609L6.51596 8.90212ZM9.29397 9.10212L8.24396 10.3542L7.57797 9.80009L8.63397 8.53812C8.71185 8.4651 8.814 8.42351 8.92074 8.42136C9.02747 8.41921 9.13123 8.45666 9.21199 8.52648C9.29274 8.59631 9.34478 8.69356 9.35808 8.79948C9.37137 8.90541 9.34497 9.01251 9.28396 9.10012L9.29397 9.10212Z" fill="#333333"/>
<path d="M16.354 6.91972L17.26 4.52172V6.91972H17.946V3.48572H16.914L15.9739 5.94572H15.9839L15.044 3.48572H14.012V6.91972H14.698V4.52172L15.604 6.91972H16.354Z" fill="url(#paint3_radial)"/>
<path d="M25.786 8.36434L24.612 10.0763L26.456 9.16834L26.956 9.76837L24.054 11.2263L23.468 10.5163L24.592 8.82034L24.586 8.81033L22.714 9.61233L22.122 8.90633L24.078 6.31433L24.578 6.91634L23.354 8.56633L25.25 7.72034L25.786 8.36434Z" fill="url(#paint4_radial)"/>
<path d="M9.8 7.86975C9.65591 7.728 9.4672 7.64056 9.2659 7.62233C9.06461 7.60409 8.86322 7.65619 8.69602 7.76975C8.75572 7.60361 8.75572 7.42188 8.69602 7.25575C8.61304 7.0689 8.48443 6.90591 8.32203 6.78175C7.86002 6.39575 7.37602 6.72575 7.02802 7.13975L5.35202 9.13975L7.98402 11.3477L9.75003 9.24175C10.154 8.75975 10.216 8.28175 9.8 7.86975ZM6.40002 8.83375L7.40002 7.63375C7.47431 7.56342 7.57273 7.52422 7.67502 7.52422C7.77732 7.52422 7.87574 7.56342 7.95003 7.63375C7.99076 7.66404 8.02467 7.70257 8.04956 7.74681C8.07443 7.79107 8.08972 7.84006 8.09444 7.89061C8.09915 7.94116 8.09319 7.99213 8.07692 8.04022C8.06065 8.08831 8.03446 8.13244 8.00002 8.16975L7.00002 9.35575L6.40002 8.83375ZM9.17803 9.03375L8.12802 10.2857L7.47003 9.7337L8.52802 8.47175C8.6059 8.39873 8.70807 8.35713 8.8148 8.35498C8.92154 8.35284 9.02528 8.39029 9.10604 8.4601C9.1868 8.52993 9.23884 8.62718 9.25213 8.73311C9.26542 8.83904 9.23902 8.94614 9.17803 9.03375Z" fill="url(#paint5_radial)"/>
<path d="M7.57801 16.0003C7.57762 14.3345 8.07122 12.706 8.9964 11.3208C9.9216 9.93544 11.2368 8.8557 12.7756 8.21795C14.3145 7.58021 16.008 7.41314 17.6418 7.73788C19.2757 8.06262 20.7765 8.86458 21.9545 10.0424C23.1326 11.2201 23.9349 12.7208 24.26 14.3545C24.5851 15.9882 24.4185 17.6818 23.7811 19.2208C23.1437 20.7598 22.0643 22.0753 20.6792 23.0008C19.2942 23.9263 17.6658 24.4203 16 24.4203C13.7667 24.4203 11.6248 23.5333 10.0455 21.9543C8.46609 20.3753 7.57854 18.2336 7.57801 16.0003Z" fill="url(#paint6_radial)"/>
<path d="M7.81997 15.9998C7.81997 14.382 8.29972 12.8004 9.19855 11.4552C10.0974 10.1101 11.375 9.06162 12.8696 8.44249C14.3643 7.82337 16.009 7.66137 17.5958 7.97701C19.1826 8.29263 20.6401 9.0717 21.7841 10.2157C22.9281 11.3597 23.7072 12.8172 24.0228 14.404C24.3384 15.9907 24.1765 17.6355 23.5573 19.1301C22.9382 20.6249 21.8897 21.9025 20.5446 22.8013C19.1993 23.7001 17.6178 24.1798 16 24.1798C14.9256 24.1801 13.8618 23.9687 12.8693 23.5577C11.8767 23.1467 10.9749 22.5442 10.2152 21.7845C9.45562 21.0249 8.85309 20.1231 8.4421 19.1305C8.0311 18.1379 7.81971 17.0741 7.81997 15.9998Z" fill="url(#paint7_radial)"/>
<path d="M7.79998 16H16V7.80005C13.8252 7.80005 11.7395 8.66397 10.2017 10.2017C8.6639 11.7395 7.79998 13.8253 7.79998 16Z" fill="url(#paint8_radial)"/>
<path d="M16 16V24.2C18.1748 24.2 20.2605 23.3361 21.7983 21.7983C23.3361 20.2605 24.2 18.1748 24.2 16H16Z" fill="url(#paint9_radial)"/>
<path d="M24.2581 15.8539H16.1441V7.73987H15.854V15.8539H7.73805V16.1439H15.854V24.2598H16.1441V16.1439H24.2581V15.8539Z" fill="url(#paint10_radial)"/>
<path d="M16.1441 7.96997C18.2235 8.00743 20.2073 8.85003 21.6782 10.3205C23.149 11.7909 23.9921 13.7746 24.0301 15.854H24.1741C24.1356 13.7364 23.2772 11.7161 21.7796 10.2185C20.2819 8.72083 18.2617 7.86246 16.1441 7.82397V7.96997Z" fill="url(#paint11_linear)"/>
<path d="M7.95398 15.854C7.99145 13.7715 8.83538 11.7849 10.3081 10.3122C11.7809 8.83942 13.7675 7.99549 15.85 7.95802V7.81201C13.7284 7.85044 11.7043 8.70982 10.2031 10.2095C8.7019 11.7092 7.84052 13.7325 7.79998 15.854H7.95398Z" fill="#C2D7E7"/>
<path d="M15.854 24.0301C13.7746 23.9926 11.7908 23.1501 10.3199 21.6796C8.84912 20.2092 8.00602 18.2256 7.96803 16.1461H7.82203C7.86053 18.264 8.71919 20.2846 10.2173 21.7823C11.7154 23.28 13.736 24.1381 15.854 24.176V24.0301Z" fill="url(#paint12_linear)"/>
<path d="M24.0301 16.1461C23.9921 18.2256 23.149 20.2092 21.6782 21.6796C20.2073 23.1501 18.2235 23.9926 16.1441 24.0301V24.176C18.2619 24.1381 20.2823 23.2799 21.7801 21.7822C23.2778 20.2844 24.1361 18.2639 24.1741 16.1461H24.0301Z" fill="#12404F"/>
<path d="M15.6981 7.81201V15.696H7.81606V15.85H15.6981H15.854V15.696V7.81201H15.6981Z" fill="url(#paint13_linear)"/>
<path d="M15.684 24.1V16.3121H7.87994V16.1581H15.684H15.8379V16.3121V24.1H15.684Z" fill="url(#paint14_linear)"/>
<path d="M16.31 24.1V16.3121H24.098V16.1581H16.31H16.1561V16.3121V24.1H16.31Z" fill="url(#paint15_linear)"/>
<path d="M16.31 7.88184V15.6699H24.098V15.8239H16.31H16.1561V15.6699V7.88184H16.31Z" fill="url(#paint16_linear)"/>
<defs>
<linearGradient id="paint0_linear" x1="0.319994" y1="0.847974" x2="29.338" y2="28.89" gradientUnits="userSpaceOnUse">
<stop stop-color="#DFF2FC"/>
<stop offset="0.1" stop-color="#D5E8F3"/>
<stop offset="0.27" stop-color="#BECED8"/>
<stop offset="0.49" stop-color="#96A4AB"/>
<stop offset="0.75" stop-color="#656B6E"/>
<stop offset="1" stop-color="#2B2B2B"/>
</linearGradient>
<radialGradient id="paint1_radial" cx="0" cy="0" r="1" gradientUnits="userSpaceOnUse" gradientTransform="translate(2.15001 3.228) scale(19.432)">
<stop stop-color="white"/>
<stop offset="0.31" stop-color="#A8A7A7"/>
<stop offset="0.65" stop-color="#4F4F4F"/>
<stop offset="0.89" stop-color="#161616"/>
<stop offset="1"/>
</radialGradient>
<linearGradient id="paint2_linear" x1="25.9841" y1="25.65" x2="7.50209" y2="7.79004" gradientUnits="userSpaceOnUse">
<stop stop-color="#DFF2FC"/>
<stop offset="0.09" stop-color="#D5E8F3"/>
<stop offset="0.23" stop-color="#BDCFD7"/>
<stop offset="0.42" stop-color="#95A3AB"/>
<stop offset="0.65" stop-color="#60686E"/>
<stop offset="0.91" stop-color="#1A1D1E"/>
<stop offset="1"/>
</linearGradient>
<radialGradient id="paint3_radial" cx="0" cy="0" r="1" gradientUnits="userSpaceOnUse" gradientTransform="translate(-1.33806 1.24772) scale(46.69)">
<stop stop-color="white"/>
<stop offset="0.31" stop-color="white"/>
<stop offset="0.45" stop-color="#F5F5F5"/>
<stop offset="0.56" stop-color="#E8E7E7"/>
<stop offset="0.65" stop-color="#D6D6D6"/>
<stop offset="0.72" stop-color="#BFBEBE"/>
<stop offset="0.79" stop-color="#A1A0A0"/>
<stop offset="0.86" stop-color="#808080"/>
<stop offset="0.92" stop-color="#575757"/>
<stop offset="0.97" stop-color="#2B2B2B"/>
<stop offset="1" stop-color="#151515"/>
</radialGradient>
<radialGradient id="paint4_radial" cx="0" cy="0" r="1" gradientUnits="userSpaceOnUse" gradientTransform="translate(-10.2658 19966.1) scale(1128.59 1146.8)">
<stop stop-color="white"/>
<stop offset="0.31" stop-color="white"/>
<stop offset="0.45" stop-color="#F5F5F5"/>
<stop offset="0.56" stop-color="#E8E7E7"/>
<stop offset="0.65" stop-color="#D6D6D6"/>
<stop offset="0.72" stop-color="#BFBEBE"/>
<stop offset="0.79" stop-color="#A1A0A0"/>
<stop offset="0.86" stop-color="#808080"/>
<stop offset="0.92" stop-color="#575757"/>
<stop offset="0.97" stop-color="#2B2B2B"/>
<stop offset="1" stop-color="#151515"/>
</radialGradient>
<radialGradient id="paint5_radial" cx="0" cy="0" r="1" gradientUnits="userSpaceOnUse" gradientTransform="translate(-26.4465 19257.2) scale(1105.62 1106.89)">
<stop stop-color="white"/>
<stop offset="0.31" stop-color="white"/>
<stop offset="0.45" stop-color="#F5F5F5"/>
<stop offset="0.56" stop-color="#E8E7E7"/>
<stop offset="0.65" stop-color="#D6D6D6"/>
<stop offset="0.72" stop-color="#BFBEBE"/>
<stop offset="0.79" stop-color="#A1A0A0"/>
<stop offset="0.86" stop-color="#808080"/>
<stop offset="0.92" stop-color="#575757"/>
<stop offset="0.97" stop-color="#2B2B2B"/>
<stop offset="1" stop-color="#151515"/>
</radialGradient>
<radialGradient id="paint6_radial" cx="0" cy="0" r="1" gradientUnits="userSpaceOnUse" gradientTransform="translate(7.02401 7.72229) scale(12.594)">
<stop stop-color="#E5E5E4"/>
<stop offset="0.1" stop-color="#D5D5D5"/>
<stop offset="0.31" stop-color="#ADADAD"/>
<stop offset="0.59" stop-color="#6C6C6C"/>
<stop offset="0.93" stop-color="#131313"/>
<stop offset="1"/>
</radialGradient>
<radialGradient id="paint7_radial" cx="0" cy="0" r="1" gradientUnits="userSpaceOnUse" gradientTransform="translate(10.468 9.41578) scale(18.316)">
<stop stop-color="white"/>
<stop offset="0.34" stop-color="white"/>
<stop offset="0.48" stop-color="#F5F5F5"/>
<stop offset="0.58" stop-color="#E9E9E9"/>
<stop offset="0.67" stop-color="#D7D7D7"/>
<stop offset="0.74" stop-color="#C1C1C1"/>
<stop offset="0.8" stop-color="#A6A4A4"/>
<stop offset="0.86" stop-color="#828383"/>
<stop offset="0.91" stop-color="#5F6060"/>
<stop offset="0.95" stop-color="#414141"/>
<stop offset="0.96" stop-color="#414141"/>
<stop offset="1"/>
</radialGradient>
<radialGradient id="paint8_radial" cx="0" cy="0" r="1" gradientUnits="userSpaceOnUse" gradientTransform="translate(5.08998 2.47404) scale(32.436)">
<stop offset="0.17" stop-color="white"/>
<stop offset="0.2" stop-color="#DEEDF5"/>
<stop offset="0.24" stop-color="#B3D8EA"/>
<stop offset="0.29" stop-color="#8AC4E1"/>
<stop offset="0.34" stop-color="#6CB5D9"/>
<stop offset="0.38" stop-color="#50A8D3"/>
<stop offset="0.44" stop-color="#419FCE"/>
<stop offset="0.49" stop-color="#359ACC"/>
<stop offset="0.56" stop-color="#3398CB"/>
<stop offset="0.61" stop-color="#3495C7"/>
<stop offset="0.66" stop-color="#318DBC"/>
<stop offset="0.7" stop-color="#3180A7"/>
<stop offset="0.75" stop-color="#306D8B"/>
<stop offset="0.8" stop-color="#2E5568"/>
<stop offset="0.85" stop-color="#2A373D"/>
<stop offset="0.87" stop-color="#292929"/>
</radialGradient>
<radialGradient id="paint9_radial" cx="0" cy="0" r="1" gradientUnits="userSpaceOnUse" gradientTransform="translate(224.69 33286.4) scale(1329.87)">
<stop offset="0.17" stop-color="white"/>
<stop offset="0.2" stop-color="#DEEDF5"/>
<stop offset="0.24" stop-color="#B3D8EA"/>
<stop offset="0.29" stop-color="#8AC4E1"/>
<stop offset="0.34" stop-color="#6CB5D9"/>
<stop offset="0.38" stop-color="#50A8D3"/>
<stop offset="0.44" stop-color="#419FCE"/>
<stop offset="0.49" stop-color="#359ACC"/>
<stop offset="0.56" stop-color="#3398CB"/>
<stop offset="0.61" stop-color="#3495C7"/>
<stop offset="0.66" stop-color="#318DBC"/>
<stop offset="0.7" stop-color="#3180A7"/>
<stop offset="0.75" stop-color="#306D8B"/>
<stop offset="0.8" stop-color="#2E5568"/>
<stop offset="0.85" stop-color="#2A373D"/>
<stop offset="0.87" stop-color="#292929"/>
</radialGradient>
<radialGradient id="paint10_radial" cx="0" cy="0" r="1" gradientUnits="userSpaceOnUse" gradientTransform="translate(602.128 66588.6) scale(1020.27 1020.27)">
<stop stop-color="#E5E5E4"/>
<stop offset="0.1" stop-color="#D5D5D5"/>
<stop offset="0.31" stop-color="#ADADAD"/>
<stop offset="0.59" stop-color="#6C6C6C"/>
<stop offset="0.93" stop-color="#131313"/>
<stop offset="1"/>
</radialGradient>
<linearGradient id="paint11_linear" x1="14.3781" y1="4.79597" x2="26.4241" y2="16.4359" gradientUnits="userSpaceOnUse">
<stop stop-color="#F0F3F9"/>
<stop offset="0.11" stop-color="#EBEEF7"/>
<stop offset="0.25" stop-color="#DBDFE9"/>
<stop offset="0.4" stop-color="#C3C5CD"/>
<stop offset="0.57" stop-color="#A1A2A9"/>
<stop offset="0.75" stop-color="#76777C"/>
<stop offset="0.93" stop-color="#414344"/>
<stop offset="1" stop-color="#2B2B2B"/>
</linearGradient>
<linearGradient id="paint12_linear" x1="192.639" y1="32108.8" x2="676.29" y2="31641.4" gradientUnits="userSpaceOnUse">
<stop stop-color="#F0F3F9"/>
<stop offset="0.11" stop-color="#EBEEF7"/>
<stop offset="0.25" stop-color="#DBDFE9"/>
<stop offset="0.4" stop-color="#C3C5CD"/>
<stop offset="0.57" stop-color="#A1A2A9"/>
<stop offset="0.75" stop-color="#76777C"/>
<stop offset="0.93" stop-color="#414344"/>
<stop offset="1" stop-color="#2B2B2B"/>
</linearGradient>
<linearGradient id="paint13_linear" x1="10.428" y1="10.474" x2="16.676" y2="16.51" gradientUnits="userSpaceOnUse">
<stop stop-color="#C2D7E7"/>
<stop offset="0.13" stop-color="#B9CEDF"/>
<stop offset="0.34" stop-color="#A3B9CC"/>
<stop offset="0.6" stop-color="#8097AA"/>
<stop offset="0.89" stop-color="#4F6A7F"/>
<stop offset="1" stop-color="#3B576D"/>
</linearGradient>
<linearGradient id="paint14_linear" x1="7.29994" y1="11.9521" x2="19.226" y2="23.476" gradientUnits="userSpaceOnUse">
<stop stop-color="#F0F3F9"/>
<stop offset="0.1" stop-color="#E7EAF5"/>
<stop offset="0.26" stop-color="#D1D3DC"/>
<stop offset="0.46" stop-color="#AAADB4"/>
<stop offset="0.7" stop-color="#787A7D"/>
<stop offset="0.96" stop-color="#363637"/>
<stop offset="1" stop-color="#2B2B2B"/>
</linearGradient>
<linearGradient id="paint15_linear" x1="16.09" y1="16.226" x2="20.274" y2="20.2701" gradientUnits="userSpaceOnUse">
<stop stop-color="#D8DDEF"/>
<stop offset="0.12" stop-color="#D3D9EA"/>
<stop offset="0.26" stop-color="#C7CEE1"/>
<stop offset="0.41" stop-color="#AFBBD0"/>
<stop offset="0.57" stop-color="#90A0B6"/>
<stop offset="0.72" stop-color="#677F98"/>
<stop offset="0.88" stop-color="#355674"/>
<stop offset="0.97" stop-color="#173D5D"/>
</linearGradient>
<linearGradient id="paint16_linear" x1="485.212" y1="32028.7" x2="958.242" y2="31571.5" gradientUnits="userSpaceOnUse">
<stop stop-color="#F0F3F9"/>
<stop offset="0.11" stop-color="#EBEEF7"/>
<stop offset="0.25" stop-color="#DBDFE9"/>
<stop offset="0.4" stop-color="#C3C5CD"/>
<stop offset="0.57" stop-color="#A1A2A9"/>
<stop offset="0.75" stop-color="#76777C"/>
<stop offset="0.93" stop-color="#414344"/>
<stop offset="1" stop-color="#2B2B2B"/>
</linearGradient>
</defs>
</svg>
