<svg width="32" height="32" viewBox="0 0 32 32" fill="none" xmlns="http://www.w3.org/2000/svg">
<path d="M0 16C0 24.8365 7.16344 32 16 32C24.8365 32 32 24.8365 32 16C32 7.16344 24.8365 0 16 0C7.16344 0 0 7.16344 0 16Z" fill="#EFEFEF"/>
<path d="M16 0.666666C24.4 0.666666 31.3334 7.6 31.3334 16C31.3334 24.4 24.4 31.3334 16 31.3334C7.6 31.3334 0.666666 24.4 0.666666 16C0.666666 7.6 7.6 0.666666 16 0.666666ZM16 0C7.2 0 0 7.2 0 16C0 24.8 7.2 32 16 32C24.8 32 32 24.8 32 16C32 7.2 24.8 0 16 0Z" fill="#999999"/>
<path d="M22.416 9.63611H22.43C22.484 9.67808 22.52 9.74406 22.586 9.77013C22.6199 9.78952 22.6526 9.81088 22.684 9.83413H22.624C22.6465 9.88326 22.6746 9.92957 22.708 9.97211L22.776 9.94406C22.776 9.96806 22.776 9.99206 22.776 10.0161L22.81 10.0481L22.854 10.0061C22.906 10.1001 22.976 10.1821 23.034 10.2721H22.996C22.999 10.324 22.999 10.3762 22.996 10.4281C23.0168 10.4342 23.0387 10.4353 23.06 10.4311C23.0812 10.4269 23.1011 10.4177 23.118 10.4041L23.152 10.4661V10.4841C23.152 10.5221 23.152 10.5641 23.178 10.5901V10.6181L23.058 10.5821C23.0779 10.5625 23.0942 10.5394 23.106 10.5141L23.018 10.5441C22.9981 10.5222 22.9712 10.5081 22.942 10.5041C22.9128 10.5001 22.883 10.5064 22.858 10.5221C22.858 10.5461 22.858 10.5721 22.858 10.5961H22.816C22.816 10.5761 22.816 10.5541 22.816 10.5341C22.7917 10.5064 22.7727 10.4746 22.76 10.4401L22.738 10.4661C22.737 10.4467 22.737 10.4275 22.738 10.4081L22.644 10.3921C22.604 10.3821 22.574 10.4241 22.57 10.4601C22.566 10.5307 22.566 10.6015 22.57 10.6721L22.534 10.6261H22.494V10.5621L22.44 10.5161C22.4128 10.5705 22.3792 10.6215 22.34 10.6681C22.3415 10.6922 22.3491 10.7156 22.362 10.7361C22.355 10.784 22.3409 10.8305 22.32 10.8741C22.3371 10.9161 22.3572 10.9569 22.38 10.9961L22.442 10.9501C22.4255 10.9232 22.4185 10.8915 22.422 10.8601L22.486 10.9241H22.54C22.54 10.9741 22.54 11.0501 22.592 11.0701L22.552 11.1081L22.518 11.0721L22.456 11.0881L22.49 11.1661C22.4407 11.2183 22.4073 11.2835 22.394 11.3541C22.376 11.3541 22.358 11.3721 22.34 11.3781C22.2493 11.3835 22.1635 11.4211 22.098 11.4841C22.028 11.4621 21.938 11.4581 21.898 11.3901C21.8746 11.3481 21.8655 11.2997 21.872 11.2521C21.8785 11.2045 21.9002 11.1603 21.934 11.1261C21.9161 11.084 21.8954 11.0433 21.872 11.0041L21.824 11.0281C21.8472 10.8534 21.8867 10.6814 21.942 10.5141C21.9697 10.4508 21.9859 10.383 21.99 10.3141C21.99 10.2421 22.046 10.1941 22.06 10.1261C22.092 10.0346 22.135 9.94726 22.188 9.86613C22.224 9.81013 22.256 9.74011 22.322 9.71413C22.388 9.68806 22.41 9.68608 22.424 9.64006L22.416 9.63611ZM22.27 10.9201C22.27 10.9521 22.27 11.0381 22.32 11.0041C22.3193 10.9856 22.3135 10.9675 22.3033 10.9521C22.293 10.9365 22.2788 10.9241 22.262 10.9161L22.27 10.9201Z" fill="#D4051E"/>
<path d="M22.624 9.83826H22.6839C22.7479 9.88889 22.8044 9.94809 22.8519 10.0143L22.808 10.0563L22.7739 10.0243C22.7739 10.0003 22.7739 9.97633 22.7739 9.95233L22.706 9.98028C22.673 9.93642 22.6455 9.8887 22.624 9.83826Z" fill="#D33929"/>
<path d="M23 10.2859H23.038C23.0699 10.3315 23.0993 10.379 23.126 10.4279C23.1091 10.4415 23.0892 10.4507 23.068 10.4549C23.0467 10.4591 23.0248 10.458 23.004 10.4519C23.006 10.3966 23.0047 10.3411 23 10.2859Z" fill="#D73825"/>
<path d="M22.5619 10.4661C22.5619 10.4301 22.596 10.3881 22.636 10.3981C22.636 10.4241 22.6579 10.4521 22.668 10.4801C22.6779 10.5081 22.6539 10.5241 22.6479 10.5461L22.6699 10.5621C22.6799 10.5401 22.692 10.5161 22.7019 10.4921C22.7385 10.5152 22.7655 10.5507 22.7779 10.5921H22.828H22.8699C22.8699 10.5681 22.8699 10.5421 22.8699 10.5181C22.895 10.5024 22.9247 10.4961 22.9539 10.5C22.9832 10.5041 23.0101 10.5183 23.0299 10.5401L23.1179 10.5101C23.1062 10.5354 23.0899 10.5585 23.0699 10.5781L23.1899 10.6141V10.5861L23.26 10.6301C23.301 10.6965 23.3515 10.7564 23.4099 10.8081C23.4099 10.8841 23.3279 10.9241 23.3099 10.9941C23.292 11.0641 23.252 11.0581 23.212 11.0781L23.1919 11.0101L23.2339 11.0301L23.2819 11.0121C23.2819 11.0121 23.2819 10.9861 23.2819 10.9781H23.2239C23.2239 10.9341 23.2779 10.8921 23.2499 10.8541C23.2134 10.851 23.1766 10.851 23.14 10.8541C23.14 10.8341 23.14 10.8121 23.1259 10.7901L23.0719 10.8801C23.0719 10.8621 23.0559 10.8441 23.0459 10.8261C23.0459 10.8821 23.0779 10.9261 23.0979 10.9741C23.1179 11.0221 23.0979 11.0981 23.116 11.1561C23.1627 11.1975 23.2217 11.2229 23.284 11.2281L23.1899 11.2821H23.2699L23.2339 11.3261L23.2799 11.3901L23.3519 11.3701C23.3524 11.4069 23.3592 11.4435 23.372 11.4781C23.4186 11.5013 23.4685 11.5173 23.5199 11.5261L23.4819 11.5901C23.4046 11.5542 23.3315 11.51 23.2639 11.4581C23.2238 11.4297 23.1817 11.4043 23.1379 11.3821C23.1082 11.3502 23.0839 11.3138 23.0659 11.2741C23.0471 11.2251 23.0169 11.1813 22.9779 11.1461C22.9175 11.1438 22.8582 11.1288 22.804 11.1021L22.8379 11.0861V11.0341C22.7682 11.02 22.697 11.014 22.6259 11.0161L22.6499 11.0001C22.6499 10.9841 22.636 10.9681 22.6299 10.9501L22.684 10.9141C22.6976 10.8838 22.7083 10.8524 22.716 10.8201C22.6979 10.7741 22.6499 10.7461 22.6139 10.7121L22.5839 10.7601C22.5751 10.7328 22.569 10.7046 22.5659 10.6761C22.5619 10.6054 22.5619 10.5347 22.5659 10.4641L22.5619 10.4661Z" fill="#DB4218"/>
<path d="M22.636 10.3998L22.7301 10.4158C22.729 10.4351 22.729 10.4545 22.7301 10.4738L22.752 10.4478C22.7648 10.4823 22.7838 10.5141 22.808 10.5418C22.808 10.5618 22.808 10.5838 22.808 10.6038H22.758C22.7455 10.5624 22.7186 10.5269 22.6821 10.5038C22.672 10.5278 22.66 10.5518 22.6501 10.5738L22.628 10.5578C22.628 10.5358 22.6421 10.5138 22.648 10.4918C22.654 10.4698 22.6261 10.4358 22.616 10.4098L22.636 10.3998Z" fill="#D9261A"/>
<path d="M23.154 10.4802C23.1759 10.5002 23.2 10.5162 23.224 10.5342C23.248 10.5522 23.2459 10.6102 23.256 10.6482L23.186 10.6042C23.1519 10.5782 23.162 10.5362 23.16 10.4982L23.154 10.4802Z" fill="#F4AB08"/>
<path d="M22.334 10.6758C22.3732 10.6293 22.4068 10.5783 22.434 10.5238L22.488 10.5698V10.6338H22.528L22.564 10.6799C22.5671 10.7084 22.5731 10.7365 22.582 10.7638C22.536 10.8118 22.47 10.7638 22.416 10.7638C22.3961 10.7284 22.368 10.6982 22.334 10.6758Z" fill="#D92A19"/>
<path d="M25.77 12.0599L25.814 12.0459V12.0939L25.782 12.1739C25.732 12.2459 25.672 12.3099 25.618 12.3739C25.654 12.2599 25.782 12.1979 25.794 12.0739L25.77 12.0599Z" fill="#D92A19"/>
<path d="M24.6279 12.978C24.684 12.9186 24.7442 12.8631 24.8079 12.812C24.7623 12.8774 24.7123 12.9396 24.658 12.998H24.698V13.018C24.6716 13.035 24.6412 13.0447 24.61 13.046L24.6219 12.97L24.6279 12.978Z" fill="#D92A19"/>
<path d="M23.2239 10.5339C23.2994 10.5989 23.3636 10.676 23.4139 10.7619C23.4579 10.8479 23.5299 10.9179 23.5739 11.004C23.6179 11.0899 23.6979 11.1939 23.7579 11.292C23.8408 11.4713 23.9344 11.6456 24.0379 11.8139C24.0817 11.8944 24.1178 11.9787 24.1459 12.0659C24.1867 12.1713 24.2195 12.2796 24.2439 12.3899C24.2439 12.4399 24.2179 12.492 24.2439 12.54C24.271 12.6155 24.2772 12.6971 24.2619 12.7759L24.2179 12.7919L24.2419 12.74L24.212 12.7179L24.1759 12.796C24.1642 12.77 24.1455 12.7478 24.1219 12.732L24.1599 12.7179H24.1719C24.1561 12.5342 24.1281 12.3518 24.0879 12.172C24.0589 12.0679 24.0186 11.9673 23.9679 11.8719C23.9419 11.8059 23.9099 11.74 23.8799 11.6719C23.8363 11.56 23.7828 11.4523 23.7199 11.3499C23.6619 11.2739 23.6199 11.1859 23.5679 11.1059C23.5467 11.0528 23.5123 11.006 23.4679 10.9699V11.0319L23.4999 11.0419C23.4999 11.1039 23.5439 11.1499 23.5679 11.204C23.5919 11.2579 23.6179 11.316 23.6439 11.3699L23.6259 11.4399C23.6259 11.4859 23.6259 11.5339 23.6379 11.5819L23.5519 11.5679L23.5199 11.6159L23.4759 11.5919L23.5139 11.5279C23.4625 11.5193 23.4126 11.5031 23.3659 11.4799C23.3531 11.4454 23.3464 11.4088 23.3459 11.372L23.2739 11.3919L23.2279 11.3279L23.2639 11.284H23.1839L23.2779 11.2299C23.2156 11.2247 23.1567 11.1995 23.1099 11.1579C23.0879 11.1 23.1099 11.0339 23.0919 10.9759C23.0739 10.9179 23.0339 10.884 23.0399 10.828C23.0399 10.8459 23.0579 10.8639 23.0659 10.8819L23.1199 10.7919C23.1199 10.8139 23.1299 10.836 23.1339 10.8559C23.1705 10.8529 23.2073 10.8529 23.2439 10.8559C23.2719 10.8939 23.2139 10.9359 23.2179 10.98H23.2759C23.2759 10.98 23.2759 11.004 23.2759 11.0139L23.2279 11.0319L23.1859 11.012L23.2059 11.0799C23.2459 11.06 23.2939 11.044 23.3039 10.996C23.3139 10.948 23.4059 10.8859 23.4039 10.8099C23.3455 10.7582 23.295 10.6983 23.2539 10.6319C23.2539 10.5939 23.2339 10.556 23.2219 10.5179L23.2239 10.5339Z" fill="#DE5516"/>
<path d="M22.3339 10.6762C22.3668 10.6957 22.3948 10.7223 22.4159 10.7541C22.4699 10.7722 22.5359 10.8101 22.5819 10.7541L22.612 10.7061C22.6479 10.7402 22.6959 10.7682 22.7139 10.8142C22.7063 10.8465 22.6955 10.8779 22.6819 10.9082L22.628 10.9442C22.628 10.9621 22.6419 10.9781 22.6479 10.9941L22.6239 11.0101C22.6951 11.0082 22.7662 11.0142 22.836 11.0282V11.0802L22.8019 11.0962H22.764C22.7471 11.0969 22.7304 11.0919 22.7167 11.0822C22.7029 11.0724 22.6928 11.0583 22.6879 11.0421L22.6379 11.0702H22.5839C22.5219 11.0501 22.5419 10.9742 22.532 10.9242H22.4779L22.4139 10.8602C22.4104 10.8916 22.4174 10.9233 22.4339 10.9502L22.372 10.9962C22.3492 10.957 22.3291 10.9162 22.3119 10.8741C22.3328 10.8306 22.3469 10.7841 22.3539 10.7362C22.341 10.7157 22.3335 10.6923 22.332 10.6682L22.3339 10.6762Z" fill="#D9161B"/>
<path d="M27.334 10.8C27.3712 10.7862 27.4073 10.7695 27.442 10.75V10.83C27.4271 10.8763 27.401 10.9182 27.366 10.952C27.3274 10.9831 27.2966 11.0228 27.2759 11.068C27.178 11.206 27.092 11.354 26.996 11.494C26.9526 11.538 26.9156 11.5877 26.886 11.642C26.8467 11.697 26.7944 11.7416 26.734 11.772C26.6548 11.8096 26.5809 11.8573 26.514 11.914C26.4963 11.9508 26.4748 11.9856 26.45 12.018C26.41 12.0169 26.3706 12.0081 26.334 11.992C26.3127 11.9666 26.3 11.935 26.2979 11.9019C26.2957 11.8689 26.3042 11.8359 26.322 11.808C26.334 11.7771 26.334 11.7428 26.322 11.712C26.3852 11.642 26.4519 11.5752 26.522 11.512C26.666 11.382 26.814 11.256 26.96 11.128C27.0726 11.0274 27.1907 10.9332 27.314 10.846C27.3171 10.833 27.321 10.8203 27.326 10.808L27.334 10.8ZM27.126 11.148C27.1392 11.136 27.1499 11.1216 27.1575 11.1054C27.165 11.0893 27.1692 11.0718 27.17 11.054C27.13 11.05 27.0679 11.104 27.126 11.134V11.148Z" fill="#D71528"/>
<path d="M22.262 10.9159C22.2767 10.9246 22.2889 10.9369 22.2977 10.9516C22.3064 10.9662 22.3113 10.9829 22.312 10.9999C22.254 11.0339 22.26 10.9479 22.262 10.9159Z" fill="#D8281A"/>
<path d="M23.468 10.9702C23.5124 11.0063 23.5467 11.053 23.568 11.1062C23.62 11.1862 23.6619 11.2742 23.72 11.3502C23.7828 11.4526 23.8363 11.5603 23.88 11.6721C23.8374 11.688 23.7985 11.7124 23.7659 11.7441C23.7783 11.7598 23.7916 11.7745 23.8059 11.7882L23.77 11.8022L23.728 11.7642C23.728 11.7642 23.728 11.7422 23.728 11.7342C23.728 11.7262 23.728 11.7082 23.728 11.6982C23.728 11.6582 23.768 11.6122 23.7419 11.5722C23.7144 11.5232 23.6829 11.4763 23.648 11.4321H23.62L23.6379 11.3622C23.612 11.3082 23.586 11.2522 23.562 11.1962C23.538 11.1402 23.4939 11.0961 23.4939 11.0342L23.4619 11.0241L23.468 10.9702Z" fill="#F0990B"/>
<path d="M21.816 11.0262L21.864 11.0022C21.8874 11.0414 21.9081 11.0822 21.926 11.1243C21.8922 11.1584 21.8705 11.2027 21.864 11.2502C21.8575 11.2978 21.8666 11.3463 21.8901 11.3883L21.852 11.4222C21.8421 11.4482 21.8341 11.4763 21.824 11.5022C21.7977 11.5083 21.7703 11.5083 21.744 11.5022C21.739 11.4273 21.7431 11.3521 21.756 11.2782C21.782 11.1958 21.8021 11.1116 21.816 11.0262Z" fill="#D64E1B"/>
<path d="M22.64 11.0758L22.69 11.0479C22.6949 11.064 22.705 11.0781 22.7188 11.0879C22.7325 11.0976 22.7492 11.1025 22.766 11.1019H22.778C22.6769 11.0925 22.5752 11.1111 22.4841 11.1558L22.45 11.0779L22.512 11.0619L22.546 11.0978L22.586 11.0598H22.64V11.0758Z" fill="#DA4017"/>
<path d="M27.1259 11.1341C27.0679 11.104 27.1259 11.05 27.17 11.04C27.1692 11.0578 27.165 11.0753 27.1575 11.0914C27.1498 11.1076 27.1392 11.122 27.1259 11.1341Z" fill="#D83D32"/>
<path d="M22.7659 11.1021H22.7999C22.8542 11.1288 22.9135 11.1437 22.9739 11.146C23.0129 11.1812 23.043 11.2251 23.0619 11.274C23.0173 11.2457 22.9712 11.2197 22.924 11.1961C22.9 11.186 22.8699 11.168 22.8459 11.1961L22.8239 11.17L22.756 11.192C22.7548 11.2113 22.7548 11.2307 22.756 11.25L22.716 11.2681L22.6859 11.3321H22.636C22.6859 11.2621 22.7219 11.1821 22.7779 11.114H22.7659V11.1021Z" fill="#E0620E"/>
<path d="M22.484 11.1638C22.5752 11.1192 22.6769 11.1005 22.778 11.1099C22.722 11.1779 22.686 11.2579 22.636 11.3279H22.686L22.716 11.2639L22.756 11.2459C22.7549 11.2265 22.7549 11.2072 22.756 11.1878L22.824 11.1659L22.846 11.1919C22.87 11.1699 22.9 11.1919 22.924 11.1919C22.924 11.2219 22.906 11.2499 22.898 11.2799C22.8704 11.2518 22.8402 11.2264 22.808 11.2038C22.808 11.2319 22.808 11.2598 22.794 11.2879L22.824 11.3219L22.788 11.3638C22.788 11.3779 22.788 11.4038 22.788 11.4159C22.7684 11.4445 22.747 11.4719 22.724 11.4979L22.682 11.5398C22.6532 11.5654 22.6323 11.5988 22.622 11.6358V11.6598C22.6107 11.6416 22.6032 11.6212 22.6 11.5999C22.6162 11.57 22.6309 11.5393 22.644 11.5078C22.644 11.4859 22.63 11.4659 22.622 11.4438L22.664 11.4079C22.663 11.3899 22.663 11.3718 22.664 11.3539C22.6335 11.3524 22.6046 11.3403 22.582 11.3199C22.5383 11.3328 22.4917 11.3328 22.448 11.3199L22.398 11.3459C22.4114 11.2754 22.4447 11.2101 22.494 11.1579L22.484 11.1638ZM22.588 11.1579V11.1999L22.504 11.2379C22.5195 11.2647 22.5445 11.2849 22.574 11.2945C22.6036 11.3041 22.6356 11.3025 22.664 11.2899C22.69 11.2339 22.614 11.1999 22.578 11.1679L22.588 11.1579Z" fill="#F19C0B"/>
<path d="M22.5781 11.1682C22.614 11.1963 22.6901 11.2342 22.654 11.2902C22.6256 11.3028 22.5936 11.3044 22.564 11.2948C22.5346 11.2852 22.5096 11.2651 22.494 11.2382L22.5781 11.2002V11.1682Z" fill="#F8BB0D"/>
<path d="M22.812 11.21C22.8442 11.2325 22.8744 11.258 22.902 11.286C22.9545 11.3363 23.0115 11.3817 23.072 11.422C23.118 11.486 23.172 11.544 23.22 11.606L23.246 11.648V11.68C23.246 11.712 23.246 11.746 23.258 11.778L23.208 11.804H23.194C23.191 11.7877 23.1869 11.7717 23.182 11.756L23.224 11.766C23.224 11.694 23.204 11.584 23.112 11.586L23.052 11.502V11.56C23.052 11.544 23.052 11.528 23.052 11.514L23 11.46L23.092 11.482C23.0284 11.4 22.9363 11.345 22.834 11.328L22.804 11.294C22.804 11.266 22.804 11.238 22.818 11.21H22.812Z" fill="#EA7A0F"/>
<path d="M22.928 11.2001C22.9753 11.2238 23.0214 11.2497 23.066 11.2782C23.084 11.3178 23.1082 11.3543 23.138 11.3861C23.1818 11.4083 23.2239 11.4337 23.264 11.4622C23.3316 11.5141 23.4047 11.5583 23.482 11.5941L23.526 11.6181L23.558 11.5701L23.644 11.5841C23.644 11.5361 23.644 11.4881 23.632 11.4421H23.66C23.695 11.4863 23.7264 11.533 23.754 11.5822C23.78 11.6222 23.754 11.6682 23.74 11.7082C23.718 11.6762 23.694 11.6462 23.67 11.6161L23.626 11.6501L23.576 11.6181L23.504 11.6702L23.468 11.6442L23.42 11.6581C23.42 11.6721 23.42 11.6862 23.42 11.7002C23.368 11.6682 23.31 11.6501 23.256 11.6222L23.244 11.6581L23.22 11.6001L23.254 11.5162C23.1868 11.493 23.1309 11.4451 23.098 11.3822L23.072 11.4161C23.0115 11.3759 22.9545 11.3304 22.902 11.2801C22.902 11.2501 22.918 11.2222 22.928 11.1921V11.2001Z" fill="#FAC30E"/>
<path d="M22.3881 11.3523L22.438 11.3263C22.4817 11.3392 22.5283 11.3392 22.5721 11.3263C22.5946 11.3467 22.6235 11.3588 22.654 11.3603C22.653 11.3782 22.653 11.3963 22.654 11.4143L22.6121 11.4502C22.6121 11.4723 22.6281 11.4923 22.634 11.5142C22.624 11.5434 22.6127 11.5721 22.6 11.6003C22.6059 11.6214 22.6161 11.6412 22.63 11.6582C22.682 11.7323 22.6921 11.8303 22.762 11.8923C22.7949 11.9351 22.8361 11.9708 22.8832 11.9974C22.9304 12.0238 22.9823 12.0405 23.036 12.0463C23.088 12.0463 23.126 12.0022 23.176 11.9883V12.0363C23.1221 12.0629 23.0666 12.0862 23.01 12.1062C22.982 12.1062 22.958 12.0923 22.938 12.0783C22.862 12.0163 22.7801 11.9663 22.704 11.9043L22.634 11.9222L22.592 11.8963V11.9363C22.6264 11.9488 22.6587 11.9663 22.688 11.9883L22.6 12.0102C22.5926 11.9924 22.5839 11.975 22.574 11.9583L22.5321 11.9823C22.5175 11.9293 22.4953 11.8788 22.466 11.8323C22.4441 11.8182 22.416 11.8323 22.392 11.8323C22.392 11.7683 22.3401 11.7343 22.29 11.7083L22.24 11.6803L22.312 11.6523C22.312 11.6203 22.272 11.6163 22.2521 11.6022C22.342 11.5663 22.3481 11.4603 22.336 11.3763C22.354 11.3763 22.3721 11.3603 22.39 11.3523H22.3881Z" fill="#FBC60F"/>
<path d="M26.514 11.908C26.5809 11.8514 26.6549 11.8037 26.734 11.7661C26.6774 11.8353 26.6005 11.885 26.514 11.908Z" fill="#FBC60F"/>
<path d="M22.8281 11.3281C22.9304 11.3452 23.0225 11.4002 23.086 11.4822L23.0001 11.4602L22.9021 11.4262L22.9601 11.4141L22.862 11.3521L22.8321 11.4042L22.7961 11.4221C22.7961 11.4102 22.7961 11.3841 22.7961 11.3702L22.8281 11.3281Z" fill="#F2B21E"/>
<path d="M22.8559 11.3521L22.954 11.4141L22.8959 11.426L22.826 11.4041L22.8559 11.3521Z" fill="#FEDB66"/>
<path d="M23.45 12.838C23.488 12.814 23.526 12.784 23.562 12.756C23.6323 12.7661 23.7 12.7892 23.762 12.824C23.7582 12.8868 23.776 12.9489 23.8123 13.0002C23.8487 13.0515 23.9015 13.0888 23.962 13.106C23.9648 13.1178 23.9687 13.1292 23.974 13.14C24.0069 13.1088 24.0351 13.0732 24.058 13.034L24.186 13.004V13.034C24.1568 13.0503 24.125 13.0611 24.0919 13.066C24.0599 13.1002 24.0298 13.1362 24.002 13.174V13.188H23.922H23.8999C23.8829 13.1954 23.8646 13.1992 23.846 13.1992C23.8274 13.1992 23.809 13.1954 23.792 13.188C23.7539 13.1872 23.716 13.195 23.6814 13.211C23.6468 13.2269 23.6162 13.2506 23.592 13.28C23.592 13.28 23.592 13.31 23.592 13.32C23.5854 13.3124 23.5773 13.3063 23.5681 13.3021C23.559 13.2979 23.5491 13.2957 23.539 13.2957C23.5289 13.2957 23.519 13.2979 23.5098 13.3021C23.5007 13.3063 23.4925 13.3124 23.486 13.32L23.61 13.378L23.648 13.436C23.576 13.422 23.494 13.378 23.4279 13.436L23.3959 13.46C23.386 13.444 23.376 13.426 23.3639 13.41L23.296 13.464L23.3559 13.502C23.326 13.526 23.298 13.552 23.322 13.592C23.304 13.63 23.306 13.674 23.352 13.69C23.352 13.664 23.352 13.636 23.352 13.608C23.3959 13.648 23.416 13.706 23.456 13.748C23.498 13.748 23.542 13.748 23.582 13.76C23.5326 13.7852 23.4787 13.8002 23.4234 13.8044C23.3681 13.8085 23.3126 13.8015 23.2599 13.784C23.224 13.784 23.202 13.742 23.178 13.716C23.088 13.728 23.03 13.642 22.978 13.574L22.942 13.478C22.966 13.436 22.976 13.37 23.034 13.362C23.0317 13.3373 23.0366 13.3127 23.0479 13.2907C23.0593 13.2687 23.0766 13.2505 23.098 13.238C23.098 13.26 23.112 13.282 23.122 13.304C23.1319 13.326 23.184 13.33 23.2039 13.304L23.192 13.234L23.246 13.206L23.232 13.162L23.2 13.19C23.184 13.1277 23.184 13.0623 23.2 13C23.2003 13.0193 23.2069 13.038 23.2188 13.0532C23.2307 13.0684 23.2472 13.0792 23.266 13.084L23.288 13.002L23.376 12.974L23.422 13.022C23.422 13.002 23.422 12.98 23.422 12.958H23.47C23.4541 12.9213 23.4354 12.8859 23.414 12.852C23.4015 12.8706 23.3901 12.89 23.3799 12.91C23.3799 12.89 23.362 12.87 23.354 12.85C23.3801 12.8419 23.4069 12.8359 23.434 12.832L23.45 12.838Z" fill="#FEDB66"/>
<path d="M21.8521 11.4219L21.89 11.3879C21.9321 11.4559 22.022 11.4599 22.09 11.4818C22.1555 11.4189 22.2413 11.3813 22.3321 11.3759C22.344 11.4599 22.3321 11.5659 22.248 11.6018C22.2681 11.6159 22.31 11.6199 22.3081 11.6519L22.2361 11.6799C22.1901 11.6493 22.1467 11.6151 22.106 11.5778C22.0727 11.5654 22.0386 11.5547 22.0041 11.5458L21.8521 11.4959C21.854 11.4719 21.8521 11.4459 21.8521 11.4219Z" fill="#F4A80C"/>
<path d="M24.176 13.552L24.202 13.5399C24.1824 13.5686 24.161 13.596 24.138 13.622C24.0756 13.6791 24.0087 13.7314 23.938 13.7779L23.838 13.8099C23.8877 13.7738 23.9399 13.741 23.994 13.712H24.006V13.6579H23.9641C23.974 13.6359 23.982 13.614 23.994 13.592C24.01 13.624 24.018 13.6579 24.032 13.6899C24.074 13.6439 24.118 13.6019 24.1641 13.56L24.176 13.552Z" fill="#F4A80C"/>
<path d="M23.072 11.4218L23.0981 11.3878C23.131 11.4508 23.1868 11.4988 23.254 11.5218L23.22 11.6058C23.172 11.5439 23.118 11.4858 23.072 11.4218Z" fill="#FAC22B"/>
<path d="M22.7999 11.4219L22.836 11.4039L22.9059 11.426L23.0039 11.4599L23.0599 11.5239C23.0599 11.538 23.0599 11.554 23.0599 11.57V11.5119L23.1199 11.5959V11.6159L23.0139 11.6799C23.0299 11.6799 23.0539 11.6799 23.0619 11.706L23.0199 11.7519L23.066 11.8059C23.0481 11.8407 23.0266 11.8736 23.002 11.9039C22.9568 11.9058 22.9119 11.9118 22.8679 11.922C22.8679 11.9019 22.8679 11.8799 22.8679 11.8599C22.8357 11.853 22.8023 11.853 22.77 11.8599C22.756 11.8023 22.7498 11.7431 22.7519 11.6839L22.722 11.6299L22.7619 11.5919L22.7039 11.506C22.7381 11.4804 22.7702 11.4524 22.7999 11.4219Z" fill="#11160F"/>
<path d="M21.824 11.5019C21.824 11.4759 21.8421 11.4479 21.852 11.4219C21.852 11.4459 21.852 11.4719 21.852 11.4959L22.004 11.5459L21.98 11.5999L21.902 11.5519V11.5999H21.8421C21.841 11.6126 21.841 11.6253 21.8421 11.6379L21.892 11.6719H21.822C21.8021 11.6579 21.798 11.6319 21.7861 11.6119L21.744 11.6639C21.744 11.6419 21.7301 11.6219 21.724 11.5999C21.7268 11.5716 21.7314 11.5436 21.7381 11.5159C21.7674 11.5183 21.797 11.5135 21.824 11.5019Z" fill="#D32E1C"/>
<path d="M22.684 11.5462L22.7259 11.5042L22.784 11.5902L22.744 11.6282L22.7739 11.6822C22.772 11.7414 22.778 11.8006 22.792 11.8582L22.768 11.8801C22.7227 11.8322 22.6916 11.7728 22.6779 11.7082C22.6829 11.6544 22.685 11.6002 22.684 11.5462Z" fill="#32241C"/>
<path d="M21.904 11.552L21.982 11.6L22.006 11.546C22.0406 11.5549 22.0746 11.5655 22.108 11.578C22.1487 11.6153 22.1922 11.6494 22.238 11.68L22.288 11.708C22.2578 11.7199 22.2242 11.7199 22.1941 11.708C22.1586 11.7465 22.1296 11.7903 22.108 11.838C22.076 11.838 22.036 11.838 22.02 11.88C21.9851 11.9362 21.9443 11.9886 21.8981 12.036C21.8874 12.0669 21.8747 12.0969 21.86 12.126C21.832 12.126 21.8021 12.126 21.774 12.138C21.7755 12.2014 21.8005 12.262 21.844 12.308V12.366C21.8382 12.4246 21.8282 12.4828 21.814 12.54C21.78 12.464 21.814 12.382 21.814 12.302C21.7541 12.378 21.774 12.502 21.6901 12.56C21.7141 12.466 21.7381 12.374 21.7541 12.28C21.7381 12.25 21.716 12.226 21.6981 12.198C21.726 12.138 21.6981 12.07 21.6981 11.998C21.7296 12.0184 21.7664 12.0295 21.804 12.03V12C21.8243 11.9818 21.8391 11.9584 21.8469 11.9322C21.8546 11.9061 21.8551 11.8783 21.848 11.852L21.816 11.878L21.792 11.832L21.846 11.762L21.796 11.728C21.7671 11.7097 21.7441 11.6832 21.7301 11.652C21.7301 11.636 21.7301 11.606 21.7301 11.59C21.7301 11.612 21.742 11.632 21.75 11.654L21.8 11.6C21.812 11.62 21.816 11.646 21.836 11.66H21.9061L21.856 11.626C21.8551 11.6133 21.8551 11.6006 21.856 11.588H21.916L21.904 11.552Z" fill="#D5411A"/>
<path d="M22.624 11.642C22.6343 11.6048 22.6551 11.5715 22.6839 11.546C22.687 11.6 22.687 11.6541 22.6839 11.708L22.6299 11.642H22.624Z" fill="#FEDA5E"/>
<path d="M22.3239 12.8461L22.406 12.8921C22.4457 12.9089 22.4873 12.921 22.53 12.928C22.608 12.9761 22.672 13.0421 22.75 13.0881L22.714 13.1441C22.698 13.1181 22.6839 13.0921 22.67 13.0661V13.1141L22.6359 13.1261C22.6359 13.1661 22.6359 13.2061 22.6359 13.2461C22.6204 13.3129 22.5896 13.3752 22.546 13.4281C22.52 13.4541 22.494 13.4761 22.4679 13.5001L22.4519 13.5121L22.4359 13.5281C22.4359 13.4981 22.4359 13.4681 22.4359 13.4381C22.4213 13.3558 22.3869 13.2784 22.336 13.2121L22.3479 13.2001C22.4038 13.2519 22.4673 13.2951 22.536 13.3281C22.568 13.3421 22.594 13.3041 22.606 13.2781C22.6279 13.2121 22.57 13.1581 22.528 13.1161C22.4574 13.0492 22.3907 12.9784 22.328 12.904V12.8461H22.3239Z" fill="#FEDA5E"/>
<path d="M23.122 11.6002C23.214 11.6002 23.232 11.7082 23.234 11.7802L23.192 11.7702C23.1824 11.7166 23.162 11.6656 23.132 11.6202L23.122 11.6002Z" fill="#EFAA36"/>
<path d="M23.246 11.6481L23.258 11.6121C23.312 11.6401 23.37 11.6581 23.422 11.6901C23.422 11.6761 23.422 11.6621 23.422 11.6481L23.47 11.6341L23.506 11.6601L23.578 11.6081L23.6279 11.6401L23.672 11.6061C23.696 11.6361 23.72 11.6661 23.742 11.6981C23.7639 11.7301 23.742 11.7261 23.742 11.7341L23.696 11.7041C23.68 11.7381 23.666 11.7741 23.6519 11.8081L23.554 11.7881C23.5549 11.7994 23.5549 11.8108 23.554 11.8221C23.5085 11.8483 23.4685 11.883 23.4359 11.9241C23.392 11.9381 23.314 11.9521 23.314 11.8861C23.3228 11.8197 23.3228 11.7525 23.314 11.6861H23.258L23.246 11.6481Z" fill="#FDD324"/>
<path d="M23.026 11.6798L23.132 11.6158C23.162 11.6612 23.1824 11.7123 23.192 11.7659C23.1969 11.7816 23.2009 11.7976 23.204 11.8139C23.204 11.8558 23.2219 11.9038 23.188 11.9378C23.188 11.9118 23.176 11.8859 23.17 11.8598C23.17 11.8838 23.17 11.9078 23.17 11.9339C23.1353 11.9652 23.1026 11.9985 23.072 12.0338C23.0223 12.034 22.973 12.0259 22.9259 12.0098C22.8685 11.9759 22.8177 11.9319 22.776 11.8798L22.8 11.8578C22.8323 11.8508 22.8657 11.8508 22.898 11.8578C22.898 11.8779 22.898 11.8998 22.898 11.9198C22.9419 11.9097 22.9868 11.9037 23.032 11.9019C23.0568 11.8716 23.0782 11.8387 23.096 11.8038L23.05 11.7499L23.092 11.7038C23.092 11.6859 23.06 11.6859 23.044 11.6779L23.026 11.6798Z" fill="#211D16"/>
<path d="M21.716 11.8342C21.7119 11.7716 21.7119 11.7087 21.716 11.6461C21.73 11.6775 21.7529 11.7039 21.7819 11.7222C21.7641 11.7618 21.7419 11.7993 21.716 11.8342Z" fill="#D8591D"/>
<path d="M22.624 11.642L22.678 11.708C22.6916 11.7725 22.7227 11.8321 22.768 11.88C22.8097 11.932 22.8605 11.9761 22.918 12.01C22.965 12.0261 23.0144 12.0342 23.064 12.034C23.0946 11.9987 23.1273 11.9654 23.162 11.934C23.162 11.908 23.162 11.884 23.162 11.86C23.162 11.886 23.172 11.912 23.18 11.938C23.214 11.904 23.202 11.856 23.196 11.814H23.21V11.836C23.201 11.8653 23.201 11.8966 23.21 11.926C23.1861 11.9499 23.1652 11.9768 23.148 12.006C23.098 12.02 23.06 12.066 23.008 12.064C22.9543 12.0582 22.9023 12.0415 22.8552 12.015C22.8082 11.9886 22.767 11.9528 22.734 11.91C22.664 11.848 22.654 11.75 22.602 11.676L22.624 11.642Z" fill="#D03620"/>
<path d="M21.64 12.8843L21.728 12.8982C21.7513 12.9161 21.7727 12.9362 21.792 12.9583H21.722C21.7091 13.0356 21.7011 13.1138 21.698 13.1922C21.698 13.2283 21.71 13.2662 21.682 13.2962C21.68 13.1583 21.634 13.0242 21.64 12.8843Z" fill="#D03620"/>
<path d="M21.736 13.568C21.7632 13.5863 21.7836 13.613 21.794 13.644C21.8119 13.7219 21.838 13.7976 21.872 13.87H21.84C21.7759 13.782 21.7397 13.6768 21.736 13.568Z" fill="#D03620"/>
<path d="M23.256 11.6799H23.312C23.3208 11.7463 23.3208 11.8136 23.312 11.8799C23.312 11.9459 23.39 11.9319 23.434 11.9179C23.4665 11.8767 23.5065 11.8421 23.552 11.8159C23.552 11.8439 23.552 11.8719 23.552 11.8999C23.5327 11.8978 23.5133 11.8978 23.494 11.8999C23.494 11.9219 23.494 11.9439 23.482 11.9659C23.4681 11.9811 23.4581 11.9994 23.4525 12.0191C23.447 12.0389 23.4461 12.0598 23.45 12.0799L23.386 12.1159C23.3446 12.0815 23.3094 12.0403 23.282 11.9939L23.25 12.0279C23.25 12.0479 23.268 12.0659 23.274 12.0859C23.2589 12.1222 23.2394 12.1564 23.216 12.1879L23.14 12.1099L23.058 12.1839C23.058 12.1639 23.038 12.1459 23.03 12.1259C23.0198 12.1576 23.0057 12.1878 22.988 12.2159C22.9589 12.229 22.9278 12.2371 22.896 12.2399L22.938 12.3079C22.935 12.3215 22.9309 12.3349 22.926 12.3479C22.8421 12.281 22.7516 12.2227 22.656 12.1739C22.6179 12.1554 22.586 12.1262 22.564 12.0899C22.548 12.0519 22.536 12.0139 22.524 11.9759L22.566 11.9519C22.5759 11.9687 22.5846 11.986 22.592 12.0039L22.68 11.9819C22.6507 11.96 22.6184 11.9424 22.584 11.9299V11.8899L22.626 11.9159L22.696 11.8979C22.772 11.9599 22.854 12.0099 22.93 12.0719C22.95 12.0859 22.974 12.1079 23.002 12.0999C23.0586 12.0798 23.1141 12.0565 23.168 12.0299V11.9819C23.1883 11.9812 23.2083 11.9762 23.2265 11.9673C23.2449 11.9583 23.261 11.9456 23.274 11.9299C23.2929 11.8762 23.2929 11.8176 23.274 11.7639C23.274 11.7319 23.274 11.6979 23.262 11.6659L23.256 11.6799Z" fill="#FDD434"/>
<path d="M23.766 11.7439C23.7985 11.7122 23.8374 11.6876 23.88 11.6719C23.91 11.7359 23.942 11.8019 23.968 11.8719C24.0187 11.9672 24.0589 12.0678 24.088 12.1718H24.03C24.03 12.2019 24.03 12.2319 24.03 12.2618L23.99 12.2339L23.9399 12.2758C23.9536 12.227 23.9745 12.1805 24.002 12.1379H23.93L23.8999 12.1018H23.854V12.0719L23.934 12.0099C23.8966 11.9988 23.8584 11.9902 23.8199 11.9839C23.8233 11.9402 23.8143 11.8965 23.794 11.8579C23.782 11.9078 23.7719 11.9599 23.762 12.0118L23.72 11.9798L23.67 11.9919L23.682 11.9359H23.656L23.698 11.8239L23.648 11.8019C23.662 11.7679 23.6759 11.7318 23.6919 11.6979L23.738 11.7279C23.738 11.7279 23.738 11.7519 23.738 11.7578L23.7799 11.7958L23.816 11.7818C23.8016 11.7682 23.7882 11.7535 23.776 11.7379L23.766 11.7439Z" fill="#F8B90D"/>
<path d="M22.2 11.7103C22.2302 11.7222 22.2638 11.7222 22.294 11.7103C22.344 11.7363 22.398 11.7703 22.396 11.8343H22.344C22.3345 11.8055 22.3203 11.7785 22.302 11.7543L22.252 11.7763L22.296 11.8463L22.254 11.9203H22.196C22.198 11.9496 22.2077 11.9778 22.224 12.0023C22.2488 12.0462 22.2651 12.0943 22.272 12.1443C22.2711 12.1543 22.2711 12.1643 22.272 12.1743L22.188 12.1283C22.188 12.1523 22.198 12.1743 22.204 12.1983L22.174 12.2363C22.1524 12.2096 22.1336 12.1808 22.118 12.1503C22.104 12.1143 22.13 12.0823 22.14 12.0483C22.1507 12.0077 22.1575 11.9662 22.16 11.9243C22.1774 11.8942 22.1997 11.8671 22.226 11.8443C22.2343 11.7967 22.2251 11.7476 22.2 11.7063V11.7103Z" fill="#F09C0A"/>
<path d="M21.8 11.7219L21.8501 11.7559L21.796 11.8259L21.82 11.8719L21.852 11.8459C21.8593 11.8738 21.8583 11.9033 21.849 11.9307C21.8398 11.9581 21.8228 11.9822 21.8 11.9999V12.0539C21.7623 12.0534 21.7256 12.0423 21.694 12.0219C21.694 12.0839 21.716 12.1519 21.694 12.2219C21.6709 12.0975 21.6812 11.9691 21.724 11.8499C21.7545 11.8106 21.7801 11.7676 21.8 11.7219Z" fill="#D6291E"/>
<path d="M26.042 11.9023C26.1261 11.8199 26.2234 11.7523 26.33 11.7023C26.342 11.7331 26.342 11.7674 26.33 11.7983C26.3122 11.8262 26.3037 11.8592 26.3059 11.8922C26.308 11.9253 26.3207 11.9569 26.342 11.9823C26.3786 11.9984 26.418 12.0072 26.458 12.0082C26.3752 12.0457 26.3056 12.107 26.258 12.1842C26.2206 12.2576 26.1785 12.3284 26.1319 12.3963C26.1319 12.3663 26.118 12.3362 26.11 12.3062C26.152 12.2603 26.1879 12.2102 26.2279 12.1622C26.1639 12.2022 26.058 12.2182 26.046 12.3062C25.9841 12.3362 25.9295 12.3792 25.886 12.4322C25.886 12.4162 25.8599 12.4022 25.874 12.3842C25.9062 12.3422 25.9439 12.3045 25.986 12.2722C26.0132 12.2407 26.044 12.2125 26.078 12.1883C26.1631 12.128 26.2433 12.061 26.318 11.9883L26.254 11.9103L26.198 11.9483C26.198 11.9643 26.216 11.9823 26.224 12.0002H26.194C26.194 12.0262 26.182 12.0523 26.178 12.0783C26.1285 12.0625 26.0865 12.029 26.0599 11.9842L26.026 12.0203C26.0519 12.0422 26.08 12.0623 26.11 12.0843C26.1089 12.0969 26.1089 12.1096 26.11 12.1222C26.07 12.1103 26.022 12.0882 25.984 12.1222C25.9128 12.1982 25.833 12.2653 25.746 12.3222C25.7468 12.3103 25.7468 12.2982 25.746 12.2863C25.8175 12.2129 25.8806 12.1316 25.934 12.0443C25.97 11.9922 26.014 11.9462 26.046 11.8902L26.042 11.9023Z" fill="#DC4E1A"/>
<path d="M22.102 11.846C22.1235 11.7983 22.1526 11.7544 22.1879 11.7159C22.2131 11.7574 22.2223 11.8064 22.214 11.854C22.1877 11.8768 22.1654 11.9038 22.1479 11.934C22.1454 11.9759 22.1387 12.0174 22.128 12.058C22.128 12.0919 22.0919 12.1239 22.106 12.16C22.1216 12.1906 22.1403 12.2194 22.162 12.246L22.2 12.2C22.2 12.176 22.2 12.154 22.184 12.13L22.2679 12.176C22.267 12.166 22.267 12.1559 22.2679 12.146C22.2611 12.0961 22.2448 12.0479 22.2199 12.0039C22.2037 11.9796 22.194 11.9513 22.192 11.922H22.25L22.2919 11.848L22.248 11.778L22.298 11.7559C22.3162 11.7802 22.3304 11.8072 22.3399 11.8359H22.392C22.416 11.8359 22.4439 11.8359 22.466 11.8359C22.4951 11.8825 22.5175 11.9331 22.5319 11.986C22.544 12.024 22.5559 12.062 22.5719 12.0999L22.442 12.0679C22.442 12.038 22.43 12.008 22.422 11.978C22.41 12.0039 22.398 12.0279 22.384 12.0519L22.3319 12.024L22.2839 12.086L22.336 12.102C22.336 12.162 22.2919 12.202 22.258 12.242C22.3018 12.2642 22.3439 12.2896 22.384 12.318H22.4199C22.436 12.3631 22.4494 12.4092 22.4599 12.456L22.434 12.4919H22.504L22.4519 12.5319V12.576L22.4039 12.622H22.466V12.6999C22.5079 12.6986 22.5492 12.7106 22.584 12.734L22.566 12.766C22.566 12.822 22.632 12.85 22.6519 12.8999C22.5941 12.8772 22.539 12.8476 22.488 12.8119C22.552 12.942 22.712 12.984 22.7959 13.098L22.752 13.08C22.674 13.034 22.61 12.968 22.5319 12.92C22.4877 12.8539 22.4279 12.7997 22.358 12.762C22.3255 12.7485 22.2964 12.7284 22.2722 12.7029C22.2481 12.6774 22.2296 12.6471 22.218 12.614C22.218 12.586 22.218 12.5559 22.218 12.526C22.2448 12.57 22.2763 12.6109 22.312 12.648L22.2439 12.638C22.278 12.71 22.36 12.726 22.4279 12.752C22.4119 12.666 22.326 12.622 22.294 12.552C22.3009 12.5293 22.3095 12.5073 22.32 12.486C22.2974 12.4732 22.276 12.4584 22.256 12.442C22.2519 12.3921 22.2519 12.3419 22.256 12.2919C22.238 12.266 22.2039 12.258 22.178 12.2439C22.178 12.264 22.2 12.286 22.21 12.3079V12.342C22.1645 12.3118 22.124 12.2747 22.09 12.232C22.057 12.264 22.0329 12.3039 22.0199 12.3479C21.9964 12.3384 21.9763 12.3222 21.9621 12.3012C21.9478 12.2802 21.9401 12.2553 21.9399 12.23L21.88 12.248L21.8439 12.2039C21.858 12.178 21.866 12.144 21.896 12.1319C21.9697 12.0841 22.0369 12.027 22.096 11.962C22.096 11.936 22.096 11.91 22.082 11.8839C22.0391 11.9704 21.9742 12.0442 21.894 12.098V12.046C21.9402 11.9986 21.9811 11.9462 22.016 11.89C22.032 11.856 22.072 11.856 22.104 11.848L22.102 11.846Z" fill="#F7B80D"/>
<path d="M23.218 11.7999L23.2679 11.7739C23.2869 11.8276 23.2869 11.8862 23.2679 11.9399C23.255 11.9556 23.2389 11.9683 23.2206 11.9772C23.2023 11.9863 23.1823 11.9912 23.162 11.9919C23.1792 11.9627 23.2 11.9358 23.224 11.9119C23.258 11.8899 23.2439 11.8479 23.224 11.8219L23.218 11.7999Z" fill="#F6B227"/>
<path d="M23.546 11.7877L23.644 11.8077L23.694 11.8297L23.652 11.9417H23.678L23.666 11.9977L23.716 11.9857L23.758 12.0177C23.758 11.9657 23.778 11.9137 23.79 11.8637C23.8104 11.9024 23.8194 11.9461 23.816 11.9897C23.8545 11.996 23.8926 12.0047 23.93 12.0157L23.85 12.0777V12.1077H23.896L23.926 12.1437H23.998C23.9705 12.1864 23.9496 12.2328 23.936 12.2817L23.986 12.2397L24.026 12.2677L24.08 12.2357L24.066 12.2797C24.0781 12.3035 24.0921 12.3262 24.108 12.3477C24.0819 12.3263 24.0497 12.3137 24.016 12.3117C24.031 12.3397 24.0491 12.3658 24.07 12.3897C24.077 12.4357 24.0912 12.4802 24.112 12.5217L24.094 12.5917L24.134 12.6297L24.104 12.6857L24.16 12.7197L24.122 12.7337C24.1456 12.7496 24.1643 12.7718 24.176 12.7977C24.1687 12.8642 24.1687 12.9312 24.176 12.9977L24.048 13.0277C24.0669 12.9785 24.0809 12.9276 24.09 12.8757C24.054 12.8757 24.054 12.9197 24.04 12.9437L24.004 12.9097C24.004 12.9257 24.004 12.9417 24.004 12.9597L23.986 12.9917C23.9736 12.97 23.9596 12.9493 23.944 12.9297C23.912 12.9177 23.876 12.9137 23.842 12.9017C23.8097 12.8784 23.7814 12.8501 23.758 12.8177C23.6961 12.783 23.6283 12.7599 23.558 12.7497C23.512 12.6737 23.4361 12.6077 23.4361 12.5137C23.4361 12.4197 23.492 12.3137 23.516 12.2237C23.5427 12.1178 23.5554 12.0089 23.554 11.8997C23.554 11.8717 23.554 11.8437 23.554 11.8157C23.555 11.8044 23.555 11.793 23.554 11.7817L23.546 11.7877Z" fill="#FCCB0E"/>
<path d="M24.664 11.8223C24.682 11.8002 24.726 11.7622 24.746 11.8002C24.766 11.8383 24.732 11.9103 24.71 11.9583C24.586 12.0022 24.576 12.1583 24.534 12.2562C24.4909 12.3584 24.4672 12.4675 24.464 12.5782C24.4504 12.6177 24.4416 12.6587 24.438 12.7002C24.438 12.7002 24.438 12.6703 24.438 12.6623C24.4351 12.5403 24.4486 12.4186 24.478 12.3002C24.508 12.2082 24.528 12.1122 24.566 12.0223C24.604 11.9322 24.624 11.8863 24.664 11.8223Z" fill="#B04639"/>
<path d="M23.228 11.8263C23.248 11.8524 23.262 11.8943 23.228 11.9164C23.219 11.887 23.219 11.8557 23.228 11.8263Z" fill="#FDD551"/>
<path d="M21.8999 12.0959C21.9802 12.0421 22.0451 11.9683 22.088 11.8818C22.088 11.9078 22.088 11.9339 22.102 11.9599C22.0429 12.0248 21.9756 12.0819 21.902 12.1298C21.872 12.1419 21.864 12.1759 21.85 12.2018L21.886 12.2459L21.904 12.2678L21.83 12.3158C21.7864 12.2698 21.7615 12.2093 21.76 12.1458C21.7879 12.1458 21.818 12.1458 21.846 12.1339C21.8607 12.1047 21.8734 12.0747 21.8839 12.0438L21.8999 12.0959Z" fill="#E1760D"/>
<path d="M23.5 11.9143C23.5192 11.9122 23.5386 11.9122 23.5579 11.9143C23.5593 12.0234 23.5466 12.1323 23.52 12.2382C23.496 12.3363 23.426 12.4222 23.44 12.5283C23.4539 12.6343 23.516 12.6883 23.562 12.7642C23.5259 12.7923 23.488 12.8222 23.45 12.8462C23.4229 12.8502 23.3961 12.8562 23.37 12.8643C23.37 12.8842 23.386 12.9043 23.396 12.9242C23.4061 12.9043 23.4174 12.8849 23.4299 12.8663C23.4514 12.9001 23.4701 12.9355 23.4859 12.9722H23.4379C23.4379 12.9943 23.4379 13.0163 23.4379 13.0362L23.392 12.9882L23.304 13.0163L23.282 13.0983C23.27 13.0975 23.2584 13.0944 23.2477 13.089C23.237 13.0836 23.2276 13.0761 23.2199 13.0669C23.2122 13.0577 23.2065 13.0471 23.203 13.0356C23.1996 13.0242 23.1986 13.0122 23.2 13.0003C23.1834 13.0533 23.1786 13.1092 23.186 13.1642L23.218 13.1363L23.232 13.1802L23.178 13.2083L23.1899 13.2782C23.17 13.3063 23.132 13.2963 23.108 13.2782C23.084 13.2602 23.092 13.2343 23.084 13.2122C23.0626 13.2247 23.0453 13.243 23.0339 13.265C23.0226 13.2869 23.0177 13.3116 23.02 13.3363C22.962 13.3363 22.952 13.4103 22.928 13.4522C22.9099 13.4122 22.89 13.3742 22.872 13.3342V13.3182C22.895 13.3369 22.9191 13.3543 22.944 13.3703C22.9304 13.3147 22.9075 13.2619 22.876 13.2142H22.852L22.834 13.1982H22.788L22.752 13.0883L22.796 13.1063L22.824 13.1482C22.836 13.1623 22.8459 13.1763 22.86 13.1902C22.9018 13.1636 22.9352 13.1254 22.956 13.0803H23.0299L23.08 13.0362C23.1179 13.0622 23.124 13.1082 23.138 13.1482L23.168 13.0563C23.1513 13.0405 23.1385 13.0211 23.1305 12.9996C23.1225 12.9781 23.1196 12.9551 23.122 12.9322C23.168 12.9203 23.226 12.9143 23.2379 12.8563C23.2529 12.8193 23.2587 12.7792 23.2549 12.7396C23.251 12.6999 23.2376 12.6617 23.216 12.6282C23.1407 12.5232 23.0447 12.4347 22.9339 12.3683C22.9388 12.3552 22.9429 12.3418 22.946 12.3283L22.904 12.2602C22.9357 12.2575 22.9669 12.2493 22.996 12.2362C23.0136 12.2081 23.0278 12.1779 23.0379 12.1463C23.0379 12.1662 23.056 12.1843 23.066 12.2042L23.148 12.1303L23.224 12.2083C23.2474 12.1768 23.2669 12.1425 23.282 12.1063C23.282 12.0862 23.266 12.0682 23.258 12.0483L23.29 12.0142C23.3174 12.0606 23.3526 12.1018 23.394 12.1363L23.458 12.1002C23.454 12.0801 23.4549 12.0593 23.4604 12.0394C23.466 12.0197 23.4761 12.0014 23.49 11.9863C23.49 11.9642 23.49 11.9422 23.5019 11.9203L23.5 11.9143Z" fill="#FEDA48"/>
<path d="M25.8139 12.0945L25.8619 12.0745C25.8633 12.0863 25.8623 12.0983 25.8591 12.1098C25.8558 12.1211 25.8503 12.1319 25.8428 12.1412C25.8354 12.1505 25.8262 12.1582 25.8157 12.164C25.8053 12.1696 25.7938 12.1732 25.7819 12.1745L25.8139 12.0945Z" fill="#FEDA48"/>
<path d="M25.814 12.0461C25.8872 11.994 25.9634 11.9459 26.042 11.9021C26.01 11.9581 25.966 12.0041 25.93 12.0561L25.862 12.0741L25.814 12.0941V12.0461Z" fill="#E98741"/>
<path d="M26.2481 11.9237L26.3121 12.0017C26.2375 12.0746 26.1572 12.1414 26.0721 12.2017C26.0382 12.226 26.0073 12.2542 25.9801 12.2858C25.9801 12.2597 25.9681 12.2318 25.9641 12.2058C25.8769 12.2943 25.7947 12.3878 25.7181 12.4858C25.7058 12.5072 25.6983 12.531 25.6961 12.5557C25.6632 12.5653 25.6335 12.5838 25.6105 12.6093C25.5876 12.6347 25.5722 12.666 25.5661 12.6997L25.5161 12.7118C25.5229 12.6703 25.535 12.6301 25.5521 12.5918C25.5841 12.5338 25.6441 12.4977 25.6741 12.4398C25.6927 12.3938 25.7155 12.3496 25.7421 12.3077C25.743 12.3198 25.743 12.3318 25.7421 12.3438C25.8291 12.2868 25.909 12.2196 25.9801 12.1438C26.0181 12.1137 26.0661 12.1438 26.1061 12.1438C26.1049 12.1311 26.1049 12.1184 26.1061 12.1057C26.0761 12.0837 26.0481 12.0638 26.0221 12.0417L26.0561 12.0058C26.0825 12.0505 26.1245 12.084 26.1741 12.0997C26.1741 12.0737 26.1741 12.0478 26.1901 12.0218H26.2201C26.2201 12.0037 26.2021 11.9857 26.1941 11.9697L26.2501 11.9317L26.2481 11.9237Z" fill="#DE6112"/>
<path d="M22.3819 12.0562C22.396 12.0322 22.408 12.0082 22.4199 11.9822C22.4199 12.0121 22.434 12.0421 22.44 12.0722L22.57 12.1042C22.5919 12.1404 22.6238 12.1696 22.6619 12.1881C22.7576 12.237 22.848 12.2952 22.932 12.3621C23.0427 12.4287 23.1387 12.5171 23.214 12.6222C23.2357 12.6556 23.249 12.6938 23.2529 12.7334C23.2567 12.7731 23.2509 12.8131 23.2359 12.8501C23.2359 12.8501 23.226 12.8281 23.222 12.8201C23.1497 12.879 23.0592 12.9109 22.966 12.9102C22.9559 12.9378 22.94 12.9628 22.9193 12.9835C22.8986 13.0042 22.8736 13.0202 22.846 13.0302C22.814 12.9922 22.7819 12.9461 22.728 12.9442H22.6939C22.6939 12.8622 22.6139 12.8222 22.5639 12.7721L22.5819 12.7401C22.5472 12.7167 22.5059 12.7048 22.464 12.7061V12.6281H22.402L22.45 12.5822V12.5381L22.5019 12.4981H22.432L22.458 12.4622C22.4474 12.4154 22.4341 12.3693 22.418 12.3241H22.3819C22.3419 12.2958 22.2998 12.2704 22.256 12.2482C22.29 12.2082 22.3399 12.1682 22.3339 12.1081L22.282 12.0921L22.33 12.0302L22.3819 12.0562Z" fill="#FBC70D"/>
<path d="M25.552 12.2003C25.626 12.1583 25.692 12.1003 25.77 12.0643L25.794 12.0843C25.782 12.2083 25.654 12.2703 25.618 12.3843C25.5917 12.4274 25.5602 12.4671 25.5239 12.5023C25.4929 12.4969 25.4627 12.4875 25.434 12.4743C25.386 12.4583 25.336 12.4743 25.29 12.4743C25.272 12.4529 25.2615 12.4262 25.2599 12.3983C25.3398 12.309 25.44 12.2404 25.552 12.1983V12.2003Z" fill="#3A2E29"/>
<path d="M25.862 12.0741L25.9301 12.0562C25.8766 12.1435 25.8135 12.2247 25.742 12.2981C25.7155 12.34 25.6927 12.3842 25.6741 12.4301C25.644 12.4882 25.5841 12.5241 25.5521 12.5821C25.535 12.6204 25.5229 12.6608 25.516 12.7021L25.566 12.6901C25.5721 12.6564 25.5876 12.625 25.6105 12.5996C25.6335 12.5742 25.6631 12.5556 25.6961 12.5461C25.774 12.5461 25.804 12.4681 25.8721 12.4421C25.8721 12.4681 25.8581 12.4962 25.852 12.5221C25.7921 12.5461 25.7681 12.6101 25.718 12.6461C25.6575 12.67 25.6014 12.7038 25.5521 12.7461C25.4763 12.8062 25.3975 12.8623 25.316 12.9141C25.2481 12.9661 25.166 12.9922 25.094 13.0381C25.022 13.0841 24.894 13.1602 24.798 13.2141C24.702 13.2681 24.662 13.3301 24.598 13.3801C24.598 13.3561 24.598 13.3301 24.598 13.3061C24.598 13.2821 24.548 13.2421 24.5221 13.2121L24.566 13.1941C24.5713 13.1255 24.5868 13.0581 24.612 12.9941L24.6341 12.9701L24.622 13.0461C24.6534 13.0448 24.6838 13.0352 24.71 13.0181C24.7681 12.9421 24.854 12.8921 24.91 12.8181C24.9685 12.7401 25.0356 12.669 25.11 12.6061C25.1381 12.5842 25.14 12.5501 25.15 12.5181C25.2011 12.4827 25.2458 12.4386 25.2821 12.3881C25.2835 12.4161 25.294 12.4428 25.3121 12.4642C25.358 12.4781 25.4081 12.4521 25.454 12.4642C25.4835 12.4771 25.5143 12.4866 25.5461 12.4921C25.5822 12.4569 25.6138 12.4173 25.6401 12.3741C25.694 12.3042 25.7541 12.2402 25.804 12.1741C25.8159 12.1729 25.8274 12.1693 25.8378 12.1635C25.8483 12.1579 25.8575 12.1502 25.8649 12.1409C25.8724 12.1315 25.8779 12.1208 25.8812 12.1094C25.8845 12.0979 25.8855 12.086 25.884 12.0741H25.862Z" fill="#FED715"/>
<path d="M24.0301 12.176H24.0881C24.1282 12.356 24.1563 12.5384 24.1721 12.722H24.1601L24.1041 12.688L24.1341 12.632L24.0941 12.594L24.1121 12.5241C24.0912 12.4825 24.0771 12.438 24.0701 12.392C24.0492 12.3682 24.0311 12.342 24.0161 12.314C24.0498 12.3161 24.082 12.3286 24.1081 12.35C24.0922 12.3286 24.0781 12.3058 24.0661 12.282L24.0801 12.238L24.0261 12.27C24.0261 12.24 24.0261 12.21 24.0261 12.1801L24.0301 12.176Z" fill="#F3A40B"/>
<path d="M26.04 12.3099C26.0521 12.2219 26.158 12.2059 26.222 12.1659C26.182 12.2139 26.1461 12.2639 26.104 12.3099L26.072 12.3378C26.008 12.3819 25.9721 12.4518 25.91 12.4978C25.8916 12.5079 25.8722 12.5159 25.8521 12.5218C25.8521 12.4959 25.864 12.4678 25.872 12.4418C25.9156 12.3888 25.9702 12.3458 26.032 12.3158L26.04 12.3099Z" fill="#E1650F"/>
<path d="M25.964 12.1999C25.964 12.226 25.974 12.2539 25.98 12.2799C25.9379 12.3122 25.9002 12.3498 25.868 12.3919C25.854 12.41 25.868 12.4239 25.88 12.4399C25.812 12.466 25.782 12.5439 25.704 12.5439C25.7062 12.5192 25.7137 12.4953 25.726 12.474C25.8026 12.376 25.8848 12.2825 25.972 12.194L25.964 12.1999Z" fill="#F09C0B"/>
<path d="M21.894 12.2459L21.954 12.2279C21.9541 12.2533 21.9618 12.2781 21.976 12.2991C21.9903 12.32 22.0105 12.3363 22.034 12.3459L22.08 12.3659H22.04C22.04 12.3659 22.04 12.3979 22.054 12.4099C22.0135 12.3837 21.9677 12.3666 21.92 12.3599C21.92 12.3459 21.92 12.3299 21.92 12.3159L21.896 12.2979L21.834 12.3699V12.3119L21.908 12.2639L21.894 12.2459Z" fill="#EF9D0D"/>
<path d="M22.034 12.3463C22.047 12.3022 22.0711 12.2622 22.104 12.2302C22.1381 12.273 22.1785 12.31 22.224 12.3402C22.224 12.3763 22.224 12.4103 22.224 12.4462C22.1818 12.4113 22.1337 12.3842 22.082 12.3662L22.034 12.3463Z" fill="#FCCE33"/>
<path d="M22.188 12.2417C22.214 12.2557 22.2481 12.2637 22.2661 12.2897C22.262 12.3396 22.262 12.3898 22.2661 12.4397C22.2861 12.4561 22.3075 12.4709 22.3301 12.4837C22.3197 12.505 22.311 12.5271 22.3041 12.5497C22.3361 12.6297 22.422 12.6737 22.438 12.7497C22.3701 12.7237 22.2881 12.7077 22.254 12.6357L22.3221 12.6457C22.2864 12.6086 22.2549 12.5677 22.228 12.5237C22.2145 12.4845 22.1942 12.448 22.1681 12.4157L22.11 12.4857L22.07 12.4517C22.0645 12.436 22.0598 12.42 22.0561 12.4037C22.0561 12.3917 22.0561 12.3697 22.0421 12.3597H22.0821C22.1338 12.3776 22.1819 12.4048 22.2241 12.4397C22.2241 12.4037 22.2241 12.3697 22.2241 12.3337V12.2997C22.2241 12.2777 22.2021 12.2557 22.1921 12.2357L22.188 12.2417Z" fill="#EC900C"/>
<path d="M21.898 12.3024L21.922 12.3203C21.922 12.3344 21.922 12.3504 21.922 12.3644C21.9698 12.3711 22.0154 12.3881 22.056 12.4144C22.0597 12.4307 22.0644 12.4467 22.0699 12.4624C22.0764 12.4883 22.0749 12.5155 22.0657 12.5404C22.0564 12.5654 22.0398 12.587 22.018 12.6023C22.018 12.6403 22 12.6803 21.9899 12.7184C21.98 12.7564 22.008 12.7523 22.018 12.7703C21.9746 12.8059 21.9285 12.8381 21.88 12.8663C21.876 12.8184 21.876 12.7703 21.88 12.7223L21.844 12.7703H21.8C21.8 12.7404 21.8 12.7104 21.788 12.6784C21.776 12.6464 21.804 12.5923 21.814 12.5484C21.8281 12.4912 21.8382 12.433 21.844 12.3744L21.898 12.3024Z" fill="#FBC926"/>
<path d="M21.6779 12.5682C21.7619 12.5042 21.7419 12.3861 21.8019 12.3102C21.8019 12.3902 21.772 12.4722 21.8019 12.5482C21.8019 12.5922 21.7839 12.6362 21.7759 12.6782C21.7579 12.7522 21.7379 12.8242 21.724 12.8981L21.636 12.8842C21.6499 12.7802 21.6639 12.6741 21.6739 12.5682H21.6779ZM21.6959 12.7242C21.7299 12.7242 21.7279 12.6782 21.7219 12.6501C21.6779 12.6302 21.7059 12.6981 21.7 12.7242H21.6959Z" fill="#DC6612"/>
<path d="M26.072 12.3381L26.104 12.3102C26.104 12.3402 26.118 12.3701 26.126 12.4002C26.088 12.4442 26.026 12.4602 25.994 12.5122C25.9441 12.5777 25.8871 12.6373 25.824 12.6901L25.7799 12.6702C25.7432 12.6933 25.7035 12.7115 25.662 12.7242L25.718 12.6462C25.768 12.6101 25.792 12.5461 25.8519 12.5221C25.8721 12.5162 25.8916 12.5082 25.91 12.4981C25.9712 12.4527 26.0257 12.3988 26.072 12.3381Z" fill="#DF5A26"/>
<path d="M23.88 13.188H23.902C23.902 13.216 23.9159 13.244 23.922 13.27L23.89 13.294C23.862 13.306 23.862 13.318 23.89 13.326C23.89 13.362 23.858 13.394 23.8199 13.374C23.8199 13.374 23.8199 13.398 23.8199 13.406L23.806 13.432V13.4C23.806 13.386 23.806 13.36 23.806 13.348L23.662 13.386C23.7139 13.3784 23.7623 13.3555 23.8011 13.3202C23.84 13.2849 23.8675 13.2389 23.88 13.188Z" fill="#DF5A26"/>
<path d="M25.91 12.4983C25.972 12.4522 26.008 12.3822 26.072 12.3383C26.0258 12.3989 25.9712 12.4527 25.91 12.4983Z" fill="#FEE8B6"/>
<path d="M24.2341 13.6222C24.2661 13.6222 24.294 13.6403 24.32 13.6542C24.302 13.6803 24.284 13.7043 24.264 13.7283C24.305 13.7311 24.3441 13.7464 24.376 13.7722L24.2981 13.8062C24.2971 13.8249 24.2971 13.8436 24.2981 13.8622C24.2706 13.8531 24.2425 13.8456 24.214 13.8403C24.1815 13.8924 24.1378 13.9368 24.086 13.9702C24.0341 13.9962 24.032 14.0682 23.974 14.0902C23.974 14.0682 23.974 14.0483 23.974 14.0262H23.8961C23.8661 13.9422 23.95 13.8842 23.99 13.8262H23.948C23.9512 13.8159 23.9552 13.8058 23.96 13.7962C24.0308 13.7496 24.0976 13.6974 24.16 13.6403C24.16 13.6403 24.18 13.6682 24.188 13.6762C24.2101 13.663 24.2328 13.651 24.256 13.6403L24.2341 13.6222Z" fill="#FEE8B6"/>
<path d="M22.108 12.496L22.166 12.426C22.1921 12.4583 22.2124 12.4948 22.226 12.5341C22.226 12.5641 22.226 12.594 22.226 12.6221C22.1961 12.5722 22.1558 12.5293 22.108 12.496Z" fill="#F8C03D"/>
<path d="M22.016 12.6C22.0378 12.5847 22.0544 12.5631 22.0637 12.5381C22.073 12.5132 22.0745 12.4859 22.068 12.4601L22.108 12.4941C22.128 12.5721 22.12 12.664 22.174 12.73C22.228 12.7961 22.28 12.842 22.33 12.9021C22.3927 12.9764 22.4594 13.0472 22.53 13.114C22.572 13.1561 22.63 13.21 22.608 13.2761C22.596 13.3021 22.57 13.3401 22.538 13.3261C22.4693 13.293 22.4059 13.2499 22.35 13.1981L22.338 13.21C22.268 13.1612 22.1952 13.1165 22.12 13.0761L22.028 13.042C21.9898 12.9969 21.9544 12.9495 21.922 12.9001C21.868 12.9161 21.856 12.9641 21.856 13.016C21.8295 12.9994 21.8052 12.9792 21.784 12.9561C21.7647 12.9341 21.7432 12.9139 21.72 12.896C21.734 12.8221 21.754 12.7501 21.772 12.6761C21.772 12.7081 21.772 12.738 21.784 12.768H21.826L21.862 12.72C21.8581 12.7679 21.8581 12.8161 21.862 12.864C21.9105 12.8357 21.9566 12.8036 22 12.768C22 12.7501 21.98 12.7341 21.972 12.7161C21.964 12.698 21.992 12.6381 22 12.6H22.016Z" fill="#FCCC0E"/>
<path d="M22.108 12.4958C22.1522 12.53 22.189 12.5729 22.216 12.6218C22.2277 12.6549 22.2461 12.6852 22.2703 12.7107C22.2944 12.7362 22.3236 12.7564 22.356 12.7698C22.4261 12.8075 22.4857 12.8618 22.5301 12.9278C22.4874 12.9207 22.4458 12.9087 22.406 12.8918L22.324 12.8458V12.9038C22.274 12.8438 22.218 12.7918 22.168 12.7318C22.118 12.6718 22.122 12.5738 22.102 12.4958H22.108Z" fill="#FED647"/>
<path d="M24.88 12.7358C24.9559 12.6578 25.0439 12.5918 25.128 12.5198C25.128 12.5518 25.1159 12.5858 25.088 12.6078C25.0135 12.6706 24.9463 12.7418 24.888 12.8198C24.838 12.8998 24.752 12.9498 24.688 13.0198V12.9998H24.648C24.7023 12.9414 24.7524 12.8793 24.798 12.8138C24.8083 12.8247 24.8226 12.831 24.8375 12.8314C24.8526 12.8318 24.8671 12.8261 24.878 12.8158C24.8888 12.8055 24.8951 12.7912 24.8955 12.7762C24.8959 12.7612 24.8903 12.7467 24.88 12.7358Z" fill="#EC840A"/>
<path d="M24.438 12.7001C24.4417 12.6585 24.4504 12.6176 24.464 12.5781C24.448 12.727 24.448 12.8771 24.464 13.0261C24.494 12.9901 24.498 12.9301 24.536 12.8961C24.5599 12.9291 24.5813 12.9638 24.6 13.0001C24.5748 13.0641 24.5592 13.1315 24.554 13.2001L24.518 13.1181L24.482 13.1461C24.5 13.1221 24.518 13.0981 24.538 13.0761L24.574 13.0481C24.564 13.0161 24.586 12.9541 24.536 12.9581C24.5112 12.9861 24.4922 13.0188 24.48 13.0541H24.45C24.4471 13.0001 24.4471 12.946 24.45 12.8921L24.416 12.9081C24.416 12.8301 24.416 12.7521 24.416 12.6741C24.43 12.6701 24.436 12.6901 24.438 12.7001Z" fill="#CD2225"/>
<path d="M21.7 12.7237C21.7 12.6978 21.678 12.6297 21.726 12.6498C21.732 12.6777 21.734 12.7157 21.7 12.7237Z" fill="#E78308"/>
<path d="M25.552 12.7462C25.6014 12.7038 25.6575 12.67 25.718 12.6461L25.662 12.7241C25.612 12.7782 25.55 12.8221 25.504 12.8781C25.474 12.9215 25.436 12.9589 25.392 12.9881C25.352 13.0001 25.308 12.9721 25.268 12.9881C25.2408 13.0036 25.2148 13.021 25.19 13.0401C25.0705 13.1012 24.9656 13.1871 24.882 13.2921C24.7909 13.4118 24.723 13.5475 24.682 13.6921C24.6761 13.7223 24.6789 13.7534 24.6899 13.782C24.7008 13.8106 24.7195 13.8357 24.744 13.8541C24.7895 13.8744 24.8383 13.8858 24.888 13.8882L24.932 13.8441C24.932 13.8601 24.962 13.8761 24.95 13.8982C24.9326 13.9527 24.9119 14.0061 24.888 14.0582C24.8739 14.071 24.8561 14.0792 24.8372 14.0817C24.8183 14.0841 24.7991 14.0808 24.782 14.0722C24.7378 14.0595 24.691 14.0584 24.6462 14.0689C24.6014 14.0793 24.56 14.1012 24.526 14.1321C24.4077 14.1912 24.2935 14.2579 24.184 14.3321C24.132 14.3821 24.104 14.4502 24.056 14.5042C24.0349 14.5103 24.0153 14.5208 23.9985 14.535C23.9816 14.5491 23.9678 14.5665 23.958 14.5862C23.924 14.6441 23.866 14.6822 23.84 14.7442L23.818 14.7842L23.722 14.8162L23.704 14.8262C23.6862 14.7405 23.6938 14.6515 23.726 14.5702C23.826 14.4781 23.782 14.3261 23.828 14.2102C23.8147 14.1268 23.8195 14.0415 23.842 13.9602C23.8624 13.9041 23.8944 13.8529 23.936 13.8102H23.978C23.938 13.8742 23.854 13.9321 23.884 14.0102H23.962C23.962 14.0322 23.962 14.0521 23.962 14.0742C24.02 14.0521 24.022 13.9801 24.074 13.9542C24.1257 13.9208 24.1694 13.8763 24.202 13.8242C24.2305 13.8296 24.2585 13.837 24.286 13.8461C24.2851 13.8275 24.2851 13.8088 24.286 13.7901L24.364 13.7561C24.332 13.7304 24.293 13.7149 24.252 13.7121C24.272 13.6881 24.29 13.6642 24.308 13.6381C24.282 13.6242 24.254 13.5961 24.222 13.6061C24.1988 13.6169 24.176 13.629 24.154 13.6422C24.154 13.6422 24.134 13.6161 24.126 13.6061C24.1491 13.5801 24.1704 13.5528 24.19 13.5241L24.246 13.4582C24.246 13.4861 24.246 13.5142 24.246 13.5442H24.288C24.3032 13.5653 24.3234 13.5822 24.3468 13.5933C24.3703 13.6045 24.3961 13.6096 24.422 13.6082C24.502 13.6082 24.544 13.5121 24.534 13.4401C24.534 13.4081 24.558 13.3901 24.578 13.3721C24.652 13.3222 24.712 13.2541 24.778 13.2061C24.844 13.1581 24.978 13.0902 25.074 13.0301C25.17 12.9702 25.228 12.9581 25.296 12.9062C25.3842 12.8574 25.4696 12.804 25.552 12.7462Z" fill="#FEE07E"/>
<path d="M25.662 12.7241C25.7036 12.7115 25.7432 12.6933 25.78 12.67L25.824 12.6901C25.7767 12.734 25.7266 12.7747 25.6741 12.8121C25.5397 12.9175 25.4223 13.0429 25.326 13.184C25.3069 13.1247 25.3111 13.0604 25.3381 13.0041C25.2879 13.0143 25.2385 13.0277 25.19 13.0441C25.2148 13.0249 25.2408 13.0075 25.268 12.992C25.308 12.9721 25.352 12.992 25.392 12.992C25.4359 12.9627 25.474 12.9255 25.504 12.8821C25.55 12.822 25.612 12.7781 25.662 12.7241Z" fill="#EC9647"/>
<path d="M24.176 12.7999L24.212 12.7219L24.242 12.7439L24.218 12.7959L24.262 12.7799C24.234 12.8492 24.234 12.9266 24.262 12.9959L24.184 13.0379V12.9999C24.1767 12.9334 24.1767 12.8664 24.184 12.7999H24.176Z" fill="#EC840C"/>
<path d="M23.718 14.0242L23.7601 13.9982C23.7597 14.0075 23.7561 14.0164 23.7499 14.0233C23.7437 14.0303 23.7352 14.0348 23.726 14.0362L23.718 14.0242Z" fill="#EC840C"/>
<path d="M24.812 12.8001C24.8304 12.7736 24.8535 12.7506 24.8799 12.7321C24.8839 12.7416 24.8849 12.7521 24.8829 12.7622C24.8809 12.7722 24.876 12.7816 24.8687 12.7889C24.8614 12.7961 24.8521 12.8011 24.842 12.8031C24.8319 12.8051 24.8215 12.8041 24.812 12.8001Z" fill="#E56E3B"/>
<path d="M22.65 12.9079C22.63 12.8579 22.554 12.8299 22.564 12.7739C22.614 12.8239 22.696 12.8639 22.694 12.9459H22.728C22.77 12.9939 22.812 13.0419 22.852 13.0919L22.91 13.1139C22.8824 13.1296 22.8527 13.1417 22.822 13.1499L22.794 13.1079C22.71 12.9939 22.55 12.9519 22.486 12.8219C22.537 12.8575 22.5921 12.8871 22.65 12.9099V12.9079Z" fill="#E87912"/>
<path d="M23.2219 12.8204C23.2219 12.8204 23.2219 12.8444 23.236 12.8504C23.2239 12.9084 23.1659 12.9144 23.1199 12.9263C23.1176 12.9492 23.1206 12.9722 23.1286 12.9937C23.1365 13.0152 23.1493 13.0346 23.1659 13.0504L23.1359 13.1423C23.122 13.1023 23.116 13.0564 23.0779 13.0303L23.028 13.0744H22.954C22.9332 13.1196 22.8999 13.1577 22.858 13.1844C22.844 13.1704 22.834 13.1564 22.8219 13.1423C22.8527 13.1342 22.8823 13.1221 22.9099 13.1064L22.852 13.0844C22.812 13.0344 22.77 12.9864 22.7279 12.9384C22.7819 12.9384 22.8139 12.9864 22.8459 13.0244C22.8735 13.0144 22.8985 12.9984 22.9193 12.9777C22.94 12.957 22.956 12.932 22.9659 12.9044C23.0591 12.9052 23.1497 12.8732 23.2219 12.8143V12.8204ZM22.9519 12.9844L22.9759 13.0244C23.004 13.0244 23.0619 13.0244 23.0399 12.9764C23.0244 12.9729 23.0083 12.9733 22.9929 12.9775C22.9776 12.9817 22.9636 12.9895 22.9519 13.0004V12.9844Z" fill="#EF960B"/>
<path d="M23.754 12.824C23.7773 12.8563 23.8057 12.8847 23.838 12.9079C23.872 12.92 23.908 12.9239 23.94 12.936C23.9556 12.9556 23.9697 12.9763 23.982 12.998C23.9674 13.0327 23.9567 13.0689 23.95 13.106C23.8903 13.088 23.8384 13.0503 23.8028 12.9991C23.7672 12.9479 23.75 12.8862 23.754 12.824Z" fill="#F9C128"/>
<path d="M24.038 12.9499C24.0521 12.9259 24.0521 12.8818 24.088 12.8818C24.079 12.9338 24.0649 12.9846 24.046 13.0338C24.0232 13.073 23.9949 13.1087 23.962 13.1398C23.9568 13.129 23.9529 13.1176 23.95 13.1058C23.9567 13.0688 23.9674 13.0325 23.982 12.9979L24 12.9659C24 12.9478 24 12.9318 24 12.9158L24.038 12.9499Z" fill="#F19B18"/>
<path d="M24.4181 12.8961L24.4521 12.8801C24.449 12.9341 24.449 12.9882 24.4521 13.0421H24.4821C24.4943 13.0067 24.5133 12.9742 24.5381 12.9461C24.5881 12.9461 24.566 13.0041 24.576 13.0361L24.5401 13.0641L24.376 13.0461C24.3998 12.9975 24.4128 12.9442 24.414 12.8901L24.4181 12.8961Z" fill="#64382F"/>
<path d="M21.864 13.0181C21.864 12.9661 21.876 12.9181 21.93 12.9021C21.9624 12.9515 21.9977 12.9989 22.036 13.0441C22.0221 13.1174 22.0221 13.1927 22.036 13.2661C22.056 13.3781 21.94 13.4501 21.932 13.5561C21.9325 13.6549 21.9633 13.7511 22.02 13.8321L22.066 13.9061C22.1026 13.9525 22.1198 14.0113 22.114 14.0701C22.1017 14.0459 22.0823 14.0261 22.0582 14.0136C22.0342 14.001 22.0068 13.9963 21.98 14.0001C21.9889 14.0456 21.9889 14.0925 21.98 14.1381L21.962 14.1221C21.9214 14.035 21.876 13.9502 21.826 13.8681H21.858C21.824 13.7957 21.7978 13.72 21.78 13.6421C21.7696 13.6111 21.7492 13.5844 21.722 13.5661C21.7112 13.4748 21.6931 13.3845 21.668 13.2961C21.696 13.2661 21.6859 13.2281 21.684 13.1921C21.6871 13.1137 21.6951 13.0355 21.708 12.9581H21.8C21.8187 12.9807 21.8402 13.0008 21.864 13.0181Z" fill="#D45118"/>
<path d="M22.952 12.9999C22.9656 12.9931 22.9807 12.9895 22.996 12.9895C23.0113 12.9895 23.0263 12.9931 23.04 12.9999C23.0619 13.0459 23.0039 13.0399 22.976 13.0479L22.952 12.9999Z" fill="#FAC10F"/>
<path d="M24.254 13C24.254 13.038 24.2661 13.084 24.3041 13.108C24.1949 13.0998 24.0859 13.1256 23.9921 13.182C24.0199 13.1442 24.05 13.1081 24.0821 13.074C24.1151 13.0691 24.1469 13.0583 24.1761 13.042L24.254 13Z" fill="#DD441B"/>
<path d="M25.2 13.0441C25.2485 13.0278 25.298 13.0144 25.348 13.0042C25.3212 13.0604 25.3169 13.1248 25.336 13.1841C25.301 13.2142 25.2628 13.2404 25.222 13.2621C25.2039 13.2957 25.1916 13.3323 25.1861 13.3702C25.1675 13.3794 25.1512 13.3926 25.1385 13.4089C25.1257 13.4251 25.1167 13.444 25.112 13.4641C25.0937 13.5462 25.0682 13.6265 25.036 13.7041L24.976 13.7402C24.9623 13.7722 24.9503 13.8049 24.94 13.8381L24.896 13.8822C24.8463 13.8798 24.7975 13.8683 24.752 13.8481C24.7276 13.8297 24.7088 13.8046 24.6979 13.776C24.6869 13.7474 24.6842 13.7162 24.6901 13.6861C24.731 13.5415 24.7989 13.4058 24.8901 13.2861C24.9751 13.1845 25.0808 13.102 25.2 13.0441ZM25.156 13.1001C25.156 13.1201 25.168 13.1402 25.176 13.1601C25.15 13.1857 25.1175 13.2037 25.0821 13.2122L25.0501 13.2422L25.0101 13.2161V13.2641C24.9993 13.2846 24.9906 13.306 24.984 13.3281C24.9296 13.3521 24.884 13.3928 24.854 13.4442C24.8163 13.4803 24.7862 13.5238 24.766 13.5719C24.7457 13.6201 24.7355 13.6719 24.736 13.7241C24.7456 13.7631 24.7682 13.7978 24.8 13.8221C24.8258 13.8026 24.8579 13.7933 24.8901 13.7961C24.9236 13.7551 24.9407 13.7031 24.9381 13.6502L24.968 13.6321C24.9871 13.593 25.0113 13.5567 25.04 13.5242C25.0654 13.47 25.0861 13.4138 25.102 13.3562C25.1369 13.3211 25.1589 13.2753 25.164 13.2262C25.2138 13.189 25.2509 13.1372 25.27 13.0781L25.216 13.0982C25.1939 13.0911 25.1702 13.0911 25.148 13.0982L25.156 13.1001Z" fill="#E4680E"/>
<path d="M22.036 13.0439L22.1281 13.0779C22.1281 13.0979 22.092 13.1198 22.108 13.1438C22.1681 13.1678 22.244 13.1678 22.2901 13.2199C22.347 13.2729 22.3938 13.3359 22.428 13.4059L22.3461 13.4699C22.3591 13.5047 22.3591 13.5431 22.3461 13.5779C22.3113 13.6133 22.2745 13.6466 22.236 13.6779C22.22 13.6999 22.236 13.7259 22.236 13.7499L22.2901 13.6819L22.3361 13.6699C22.2823 13.7155 22.2481 13.7799 22.24 13.8499C22.208 13.8979 22.166 13.9399 22.1381 13.9918C22.11 14.0439 22.1381 14.0579 22.1381 14.0899C22.1329 14.084 22.1288 14.0772 22.126 14.0699C22.132 14.011 22.1147 13.9522 22.078 13.9059C22.116 13.8359 22.1861 13.7899 22.2161 13.7059C22.14 13.7159 22.094 13.7838 22.0321 13.8238C21.9753 13.743 21.9447 13.6467 21.9441 13.5479C21.9441 13.4419 22.068 13.3699 22.0481 13.2579C22.0343 13.1845 22.0343 13.1092 22.0481 13.0359L22.036 13.0439Z" fill="#F8BC0D"/>
<path d="M22.6701 13.0657C22.6841 13.0917 22.6981 13.1177 22.7141 13.1437L22.7501 13.0877L22.7861 13.1977H22.8321L22.8501 13.2137C22.8525 13.249 22.8592 13.2839 22.8701 13.3177V13.3337H22.8321L22.8041 13.3537C22.7921 13.3197 22.7921 13.2737 22.7541 13.2597C22.7175 13.2443 22.6771 13.2401 22.6381 13.2477C22.6381 13.2077 22.6381 13.1677 22.6381 13.1277L22.6721 13.1157L22.6701 13.0657Z" fill="#FEDF77"/>
<path d="M24.3621 13.0943C24.3621 13.0943 24.3741 13.0643 24.38 13.0524L24.5441 13.0703C24.524 13.0924 24.5061 13.1164 24.4881 13.1404C24.396 13.2863 24.2641 13.4003 24.1761 13.5523C24.1301 13.5943 24.0861 13.6364 24.044 13.6823C24.0301 13.6503 24.0221 13.6163 24.0061 13.5843C23.9941 13.6063 23.9861 13.6284 23.9761 13.6503H24.0181V13.7043H24.0061L23.9101 13.6783C23.9035 13.6374 23.883 13.5999 23.852 13.5724C23.8861 13.5084 23.7941 13.4783 23.804 13.4204L23.8181 13.3943C23.8181 13.3943 23.8181 13.3703 23.8181 13.3623C23.8561 13.3823 23.8821 13.3503 23.8881 13.3143V13.2823L23.9201 13.2583C23.9416 13.2335 23.9617 13.2076 23.98 13.1804V13.1663C24.0739 13.1099 24.1829 13.0841 24.292 13.0924H24.3501L24.3621 13.0943ZM24.0001 13.3623C23.9726 13.3716 23.9458 13.383 23.9201 13.3964C23.9201 13.4263 23.94 13.4524 23.9501 13.4803C24.0383 13.4321 24.1138 13.3636 24.1701 13.2803C24.1731 13.2558 24.1731 13.2309 24.1701 13.2063C24.1291 13.2116 24.0907 13.2294 24.0603 13.2574C24.0298 13.2853 24.0088 13.3219 24.0001 13.3623Z" fill="#0E1A15"/>
<path d="M22.128 13.0781C22.2032 13.1185 22.276 13.1633 22.3461 13.2121C22.397 13.2784 22.4312 13.3559 22.446 13.4381L22.428 13.4061C22.3938 13.3362 22.347 13.2731 22.29 13.2201C22.244 13.1681 22.168 13.1681 22.108 13.1441C22.092 13.1201 22.12 13.0982 22.128 13.0781Z" fill="#F5AF3F"/>
<path d="M25.146 13.0999C25.1681 13.0929 25.1919 13.0929 25.214 13.0999L25.268 13.08C25.2488 13.1391 25.2119 13.1907 25.162 13.2279C25.1568 13.277 25.135 13.323 25.1 13.3579L25.082 13.2519C25.048 13.2779 25.014 13.2999 24.98 13.3219C24.9866 13.2998 24.9953 13.2784 25.006 13.2579V13.2099L25.046 13.2359L25.078 13.2059C25.1135 13.1975 25.146 13.1795 25.172 13.1539C25.172 13.1339 25.158 13.1139 25.152 13.0939L25.146 13.0999Z" fill="#F29E0B"/>
<path d="M24.488 13.1401L24.524 13.1121L24.56 13.1941L24.516 13.2121C24.4861 13.2187 24.4584 13.2332 24.436 13.2541C24.3723 13.3238 24.3129 13.3973 24.258 13.4741L24.202 13.5401L24.176 13.5521C24.264 13.4001 24.396 13.2861 24.488 13.1401Z" fill="#EA7A14"/>
<path d="M23.574 13.2717C23.5983 13.2422 23.6288 13.2187 23.6635 13.2027C23.6982 13.1868 23.7359 13.1789 23.774 13.1797C23.7912 13.1871 23.8095 13.1909 23.828 13.1909C23.8467 13.1909 23.865 13.1871 23.8821 13.1797C23.8697 13.2313 23.8422 13.278 23.8029 13.3137C23.7637 13.3493 23.7145 13.3723 23.662 13.3797L23.806 13.3417C23.806 13.3538 23.806 13.3797 23.806 13.3938C23.7481 13.406 23.6892 13.4133 23.63 13.4157L23.5921 13.3577L23.468 13.2997C23.4746 13.2921 23.4827 13.286 23.492 13.2818C23.5011 13.2776 23.511 13.2755 23.521 13.2755C23.5311 13.2755 23.5411 13.2776 23.5502 13.2818C23.5593 13.286 23.5675 13.2921 23.574 13.2997C23.574 13.2997 23.574 13.2818 23.574 13.2717Z" fill="#FEE08E"/>
<path d="M23.902 13.1843H23.982C23.9636 13.2115 23.9436 13.2376 23.922 13.2623C23.916 13.2403 23.908 13.2124 23.902 13.1843Z" fill="#B44A35"/>
<path d="M22.85 13.2219H22.874C22.9055 13.2696 22.9285 13.3224 22.9419 13.378C22.917 13.362 22.893 13.3446 22.8699 13.3259C22.8591 13.2922 22.8523 13.2573 22.85 13.2219Z" fill="#F7BA2D"/>
<path d="M24.4359 13.2539C24.4584 13.233 24.486 13.2185 24.516 13.2119C24.542 13.2419 24.566 13.2739 24.592 13.3059C24.618 13.3379 24.592 13.3559 24.592 13.3799C24.592 13.4039 24.542 13.4159 24.5479 13.4479C24.5479 13.5199 24.5159 13.6119 24.4359 13.6159C24.4101 13.6174 24.3842 13.6123 24.3608 13.6011C24.3373 13.59 24.3171 13.573 24.302 13.5519H24.2599C24.2599 13.5219 24.2599 13.4939 24.2599 13.4659C24.3149 13.3891 24.3743 13.3156 24.438 13.2459L24.4359 13.2539Z" fill="#FED52A"/>
<path d="M22.646 13.2459C22.685 13.2383 22.7254 13.2424 22.762 13.2579C22.8 13.2719 22.8 13.3179 22.812 13.3519L22.84 13.3318H22.878C22.896 13.3718 22.916 13.4099 22.934 13.4499L22.97 13.5459L22.92 13.5599C22.9034 13.5022 22.8792 13.447 22.848 13.3958C22.8172 13.3707 22.7819 13.3517 22.744 13.3398L22.708 13.2719C22.6844 13.2892 22.6647 13.311 22.6498 13.3363C22.635 13.3614 22.6254 13.3893 22.6216 13.4183C22.6179 13.4473 22.62 13.4767 22.628 13.5048C22.636 13.533 22.6496 13.5591 22.6679 13.5819L22.632 13.6079C22.6621 13.6481 22.6979 13.6837 22.738 13.7139L22.75 13.6678L22.788 13.6998C22.788 13.7219 22.788 13.7439 22.774 13.7659C22.728 13.7659 22.674 13.7659 22.662 13.7199L22.534 13.6979C22.534 13.6758 22.512 13.6559 22.502 13.6358L22.456 13.6239C22.4839 13.5999 22.514 13.5779 22.5399 13.5539C22.5563 13.5105 22.5619 13.4638 22.5559 13.4179C22.5983 13.3679 22.6291 13.3092 22.646 13.2459Z" fill="#FEE499"/>
<path d="M24 13.3619C24.0105 13.3234 24.0324 13.2889 24.0627 13.2629C24.0929 13.2368 24.1303 13.2206 24.17 13.2159C24.173 13.2405 24.173 13.2654 24.17 13.2899L24.078 13.3039V13.3519C24.0489 13.3822 24.016 13.4084 23.98 13.43C23.98 13.4079 23.992 13.3839 24 13.3619Z" fill="#C13E22"/>
<path d="M24.98 13.3278C25.0139 13.3058 25.048 13.2839 25.082 13.2578L25.1 13.3639C25.084 13.4215 25.0633 13.4777 25.0379 13.5319C25.0092 13.5644 24.985 13.6008 24.9659 13.6398L24.936 13.6578C24.9386 13.7108 24.9215 13.7628 24.888 13.8038C24.8558 13.8011 24.8237 13.8103 24.7979 13.8299L24.786 13.7198L24.832 13.7319C24.803 13.68 24.7892 13.6211 24.792 13.5618C24.8138 13.5455 24.8373 13.5314 24.8619 13.5198C24.8619 13.4978 24.8619 13.4738 24.8619 13.4519C24.892 13.4004 24.9375 13.3598 24.992 13.3358L24.98 13.3278Z" fill="#F7B60D"/>
<path d="M22.6679 13.5999C22.6496 13.5773 22.6359 13.551 22.628 13.5229C22.62 13.4948 22.6179 13.4654 22.6216 13.4364C22.6253 13.4074 22.6349 13.3794 22.6498 13.3543C22.6646 13.3292 22.6844 13.3072 22.7079 13.2899L22.744 13.358C22.7819 13.3697 22.8172 13.3887 22.848 13.414C22.8791 13.4652 22.9034 13.5203 22.92 13.5779L22.97 13.5639C23.0119 13.6319 23.0699 13.718 23.17 13.7059C23.194 13.7319 23.216 13.766 23.2519 13.774C23.3046 13.7915 23.3601 13.7984 23.4153 13.7943C23.4707 13.7902 23.5245 13.7751 23.5739 13.75C23.5881 13.7577 23.6038 13.7623 23.6199 13.7636C23.6359 13.765 23.652 13.763 23.6673 13.7577C23.6825 13.7524 23.6966 13.744 23.7083 13.733C23.7202 13.7221 23.7296 13.7087 23.736 13.694C23.7446 13.6654 23.7456 13.635 23.7389 13.6059C23.7322 13.5768 23.7181 13.5499 23.698 13.5279C23.672 13.4999 23.6299 13.5119 23.5979 13.5139H23.464L23.416 13.4359C23.482 13.3779 23.5639 13.422 23.6359 13.4359C23.6915 13.4283 23.7463 13.4162 23.8 13.3999V13.4319C23.8 13.4899 23.882 13.5199 23.848 13.5839C23.8139 13.6479 23.8279 13.6739 23.8139 13.718C23.7879 13.7564 23.7576 13.7919 23.7239 13.8239C23.658 13.902 23.5419 13.9059 23.4779 13.9879C23.4139 14.07 23.352 14.102 23.3159 14.1879H23.282C23.2 14.1719 23.096 14.0979 23.0299 14.1879C23.0013 14.1641 22.9821 14.1307 22.976 14.094C22.9734 14.1378 22.9667 14.1813 22.9559 14.2239C22.9179 14.2079 22.8839 14.1799 22.898 14.134C22.912 14.0879 22.96 14.0359 22.9899 13.9879C22.9997 13.9728 23.0032 13.9544 22.9994 13.9368C22.9957 13.9192 22.985 13.9038 22.97 13.894C22.9239 13.8599 22.8759 13.8279 22.834 13.79H22.7739C22.7739 13.7679 22.7739 13.7459 22.7879 13.7239L22.7499 13.6919L22.738 13.7379C22.6978 13.7078 22.6621 13.6721 22.632 13.6319L22.6679 13.606V13.5999Z" fill="#FEEABB"/>
<path d="M23.8907 13.3229C23.8618 13.3229 23.8618 13.3023 23.8907 13.2899V13.3229Z" fill="#A53A32"/>
<path d="M24.074 13.3039L24.166 13.2899C24.1096 13.3732 24.0343 13.4417 23.946 13.4899C23.946 13.462 23.914 13.4359 23.916 13.406C23.9417 13.3926 23.9685 13.3812 23.996 13.3719C23.996 13.3939 23.982 13.4179 23.976 13.4399C24.012 13.4184 24.045 13.3922 24.074 13.3619V13.3139V13.3039Z" fill="#4B2A26"/>
<path d="M25.102 13.4639C25.1066 13.4438 25.1157 13.425 25.1285 13.4087C25.1413 13.3924 25.1575 13.3792 25.176 13.37C25.1683 13.4182 25.1527 13.4648 25.13 13.508C25.1127 13.5629 25.0993 13.619 25.09 13.676C25.07 13.7199 25.0439 13.7599 25.0279 13.806L24.966 13.74L25.026 13.7039C25.0583 13.6263 25.0837 13.546 25.102 13.4639Z" fill="#E3732B"/>
<path d="M23.2741 13.446L23.342 13.392C23.3541 13.408 23.364 13.4259 23.374 13.4419L23.406 13.4179L23.454 13.496H23.588C23.5566 13.519 23.5232 13.5391 23.4881 13.556C23.4803 13.5482 23.4715 13.5415 23.462 13.536V13.59C23.5301 13.59 23.5541 13.656 23.59 13.702C23.6347 13.7024 23.679 13.6935 23.7201 13.676C23.7137 13.6908 23.7043 13.7041 23.6924 13.7151C23.6807 13.7261 23.6666 13.7345 23.6514 13.7397C23.6361 13.745 23.62 13.747 23.604 13.7457C23.5879 13.7443 23.5722 13.7396 23.558 13.732C23.518 13.716 23.4741 13.732 23.4321 13.72C23.3921 13.678 23.372 13.62 23.3281 13.58C23.3281 13.608 23.3281 13.636 23.3281 13.662C23.2821 13.646 23.2801 13.6019 23.2981 13.564C23.2741 13.524 23.2981 13.4979 23.332 13.4739L23.2721 13.436L23.2741 13.446Z" fill="#FEDF84"/>
<path d="M22.3461 13.4703L22.428 13.4062L22.446 13.4383C22.446 13.4683 22.446 13.4983 22.446 13.5283C22.446 13.5583 22.3941 13.5763 22.372 13.6043V13.6183C22.372 13.6183 22.356 13.5883 22.3521 13.5783C22.3651 13.5435 22.3651 13.5051 22.3521 13.4703H22.3461Z" fill="#F19808"/>
<path d="M22.4779 13.4999C22.5039 13.4759 22.53 13.4538 22.556 13.4279C22.5618 13.4738 22.5563 13.5205 22.54 13.5639C22.514 13.5879 22.484 13.6099 22.4559 13.6339L22.5019 13.6458C22.5019 13.6659 22.524 13.6858 22.5339 13.7079L22.6619 13.7299C22.674 13.7838 22.7279 13.7818 22.7739 13.7758H22.834C22.876 13.8138 22.924 13.8458 22.97 13.8798C22.985 13.8897 22.9957 13.9051 22.9994 13.9227C23.0031 13.9403 22.9997 13.9587 22.9899 13.9738C22.9599 14.0218 22.9259 14.0679 22.898 14.1198C22.8803 14.1416 22.8569 14.1582 22.8305 14.1678C22.8041 14.1773 22.7755 14.1794 22.748 14.1738C22.748 14.2019 22.748 14.2298 22.762 14.2579L22.834 14.2739C22.802 14.2739 22.7679 14.2919 22.74 14.2739C22.7221 14.2354 22.7113 14.1941 22.708 14.1518C22.771 14.1163 22.8317 14.0769 22.89 14.0339L22.868 14.0119L22.89 13.9738L22.8219 13.9379L22.8559 13.8878C22.8299 13.8618 22.8079 13.8218 22.7659 13.8179C22.724 13.8138 22.6299 13.7678 22.5659 13.7779C22.5122 13.7848 22.4577 13.7848 22.404 13.7779C22.4002 13.7253 22.3921 13.6731 22.38 13.6218C22.402 13.5939 22.4299 13.5719 22.4539 13.5459L22.4699 13.5299L22.4859 13.5178L22.4779 13.4999Z" fill="#FEDF80"/>
<path d="M24.732 13.724C24.7315 13.6717 24.7417 13.6199 24.762 13.5717C24.7822 13.5236 24.8122 13.4801 24.85 13.444C24.85 13.466 24.85 13.49 24.85 13.5119C24.8252 13.5235 24.8018 13.5376 24.78 13.554C24.7771 13.6132 24.7911 13.6721 24.82 13.724L24.7739 13.7119L24.786 13.8219C24.7541 13.7976 24.7315 13.7629 24.722 13.724H24.732Z" fill="#F19D09"/>
<path d="M23.588 13.5058C23.62 13.5058 23.662 13.4918 23.6881 13.5198C23.7082 13.5419 23.7224 13.5687 23.729 13.5978C23.7357 13.627 23.7347 13.6573 23.726 13.6859C23.685 13.7035 23.6408 13.7123 23.596 13.7119C23.5601 13.6658 23.5361 13.5998 23.468 13.5998V13.5458C23.4776 13.5514 23.4863 13.5581 23.494 13.5659C23.5272 13.5486 23.5586 13.5286 23.588 13.5058Z" fill="#FEE3A1"/>
<path d="M22.342 13.5781C22.342 13.5781 22.358 13.6081 22.362 13.6181L22.334 13.6701L22.288 13.6821L22.234 13.7501C22.234 13.7261 22.216 13.7001 22.234 13.6781C22.2718 13.6468 22.3079 13.6134 22.342 13.5781Z" fill="#EA880C"/>
<path d="M23.8141 13.714C23.8281 13.6699 23.8321 13.624 23.8481 13.58C23.8791 13.6075 23.8996 13.645 23.9061 13.6859L24.0021 13.712C23.9479 13.7411 23.8958 13.7738 23.8461 13.81C23.8199 13.8339 23.7987 13.8629 23.7839 13.8952C23.7691 13.9275 23.761 13.9624 23.7601 13.9979L23.7181 14.024C23.715 14.0125 23.7082 14.0024 23.6988 13.9952C23.6895 13.988 23.6779 13.984 23.6661 13.984C23.6421 14.0059 23.6661 14.042 23.6541 14.0699C23.6421 14.098 23.6281 14.132 23.6541 14.1499C23.6076 14.1788 23.5664 14.2153 23.5321 14.258C23.5321 14.258 23.5321 14.236 23.5321 14.2299C23.5321 14.224 23.5821 14.176 23.5441 14.162C23.5149 14.1742 23.4868 14.1889 23.4601 14.2059C23.4601 14.228 23.4481 14.25 23.4441 14.272H23.3881C23.4031 14.2289 23.4297 14.1908 23.465 14.1618C23.5003 14.1329 23.5429 14.1143 23.5881 14.108C23.5881 14.066 23.6021 14.0219 23.6081 13.98C23.5683 13.9849 23.5279 13.9849 23.4881 13.98C23.5521 13.898 23.6681 13.8939 23.7341 13.816C23.7641 13.7848 23.7909 13.7506 23.8141 13.714Z" fill="#56342F"/>
<path d="M22.362 13.6179V13.6039C22.3742 13.6552 22.3822 13.7073 22.386 13.7599C22.4398 13.7669 22.4942 13.7669 22.548 13.7599C22.62 13.7599 22.686 13.7919 22.748 13.7999C22.81 13.8079 22.812 13.8439 22.838 13.8699L22.804 13.9199L22.872 13.9559L22.85 13.9939L22.872 14.0159C22.8138 14.0589 22.753 14.0983 22.69 14.1339C22.6933 14.1761 22.7041 14.2174 22.722 14.2559C22.75 14.2739 22.784 14.2559 22.816 14.2559H22.85C22.85 14.2779 22.85 14.2999 22.85 14.3219L22.834 14.3079C22.8135 14.3245 22.7905 14.338 22.766 14.3479C22.765 14.3353 22.765 14.3226 22.766 14.3099C22.732 14.3099 22.69 14.3099 22.67 14.2799C22.631 14.2295 22.5961 14.176 22.566 14.1199C22.566 14.1439 22.592 14.1799 22.566 14.1919C22.5321 14.1553 22.4922 14.1248 22.448 14.1019L22.43 14.0299C22.4224 14.0355 22.4156 14.0423 22.41 14.0499C22.408 14.0712 22.408 14.0926 22.41 14.1139H22.334V14.0739H22.384C22.382 14.0479 22.382 14.0219 22.384 13.9959L22.348 14.0359L22.282 13.9719L22.316 13.9299C22.3 13.9183 22.2808 13.9121 22.261 13.9121C22.2412 13.9121 22.222 13.9183 22.206 13.9299L22.218 13.8479C22.2261 13.7779 22.2603 13.7135 22.314 13.6679L22.362 13.6179Z" fill="#FED954"/>
<path d="M22.026 13.8321C22.088 13.7921 22.1339 13.7241 22.21 13.7141C22.18 13.7901 22.1099 13.8361 22.072 13.9141L22.026 13.8321Z" fill="#E98A0B"/>
<path d="M24.9299 13.8379C24.9401 13.8046 24.9522 13.7719 24.9659 13.7399L25.0279 13.8059C25.01 13.8861 24.9782 13.9626 24.9339 14.0319L24.8859 14.0519C24.9098 13.9999 24.9305 13.9465 24.9479 13.8919C24.9599 13.8699 24.94 13.8539 24.9299 13.8379Z" fill="#EF9943"/>
<path d="M22.1359 14.0001C22.164 13.948 22.2059 13.906 22.2379 13.858L22.2259 13.94C22.2419 13.9285 22.2612 13.9223 22.2809 13.9223C22.3006 13.9223 22.3199 13.9285 22.3359 13.94L22.3019 13.9821L22.3679 14.0461L22.3999 14.0001C22.3979 14.026 22.3979 14.0521 22.3999 14.0781H22.3499V14.1181H22.4259C22.4239 14.0968 22.4239 14.0753 22.4259 14.0541C22.4315 14.0465 22.4383 14.0397 22.4459 14.034L22.4639 14.106C22.5081 14.129 22.5481 14.1594 22.5819 14.196C22.6159 14.1841 22.5819 14.148 22.5819 14.124C22.6121 14.1802 22.6469 14.2337 22.6859 14.284C22.7059 14.314 22.748 14.306 22.7819 14.314C22.7809 14.3267 22.7809 14.3394 22.7819 14.3521C22.8065 14.3422 22.8294 14.3287 22.8499 14.3121L22.8659 14.3261L22.9059 14.356L22.972 14.4061L22.9419 14.434H23.0019C22.9329 14.4585 22.866 14.4886 22.8019 14.524L22.716 14.476L22.676 14.564C22.5691 14.5631 22.4634 14.5427 22.364 14.5041C22.3279 14.4061 22.2259 14.3581 22.164 14.2721C22.196 14.228 22.2659 14.1841 22.2399 14.122C22.2218 14.0698 22.1847 14.0262 22.1359 14.0001Z" fill="#FDD12D"/>
<path d="M19.8279 13.9343C19.97 13.9343 20.114 13.9343 20.256 13.9343C20.256 14.6103 20.256 15.2863 20.256 15.9643C20.2541 15.99 20.2582 16.0159 20.2679 16.0398C20.2775 16.0637 20.2927 16.0852 20.312 16.1023C20.3793 16.1291 20.4531 16.1355 20.524 16.1203C20.524 16.2303 20.524 16.3423 20.524 16.4523C20.38 16.4862 20.23 16.4862 20.086 16.4523C20.0345 16.4412 19.9868 16.417 19.9476 16.3819C19.9083 16.3468 19.8788 16.3021 19.862 16.2523C19.8279 16.1171 19.8158 15.9773 19.826 15.8383C19.8279 15.2163 19.83 14.5763 19.8279 13.9343Z" fill="#01385E"/>
<path d="M9.03997 14.1183C9.08367 14.0684 9.14179 14.0333 9.20628 14.0179C9.27077 14.0025 9.33845 14.0075 9.39997 14.0322C9.49478 14.0797 9.57139 14.157 9.61798 14.2522C9.87398 14.6722 10.1259 15.0962 10.378 15.5202C10.4569 15.6525 10.5277 15.7894 10.5899 15.9302C10.572 15.3023 10.5899 14.6722 10.5899 14.0422C10.724 14.0422 10.856 14.0422 10.9899 14.0422C10.9899 14.7642 10.9899 15.4863 10.9899 16.2063C10.9935 16.2494 10.9858 16.2927 10.9675 16.332C10.9494 16.3713 10.9212 16.4051 10.8859 16.4303C10.8218 16.4723 10.7449 16.4909 10.6687 16.4824C10.5924 16.474 10.5214 16.4393 10.468 16.3842C10.3926 16.2917 10.3256 16.1927 10.268 16.0882C10.0413 15.7189 9.81863 15.349 9.6 14.9782C9.5168 14.8446 9.44527 14.7041 9.38597 14.5583C9.38597 15.1903 9.38597 15.8202 9.38597 16.4502H8.98597V14.3082C8.98135 14.2405 9.00044 14.1734 9.03997 14.1183Z" fill="#01385E"/>
<path d="M13.524 14.2344C13.666 14.2344 13.808 14.2344 13.9499 14.2344C13.9499 14.3744 13.9499 14.5164 13.9499 14.6584H14.256C14.256 14.7724 14.256 14.8864 14.256 15.0004H13.9499V15.9324C13.9461 15.9632 13.9499 15.9945 13.9611 16.0235C13.9722 16.0524 13.9904 16.0781 14.0139 16.0984C14.0969 16.1351 14.1895 16.1442 14.2779 16.1244V16.4644C14.1609 16.4827 14.0422 16.488 13.924 16.4804C13.8199 16.4796 13.7191 16.4437 13.6379 16.3784C13.6002 16.3384 13.5708 16.2912 13.5516 16.2397C13.5324 16.1882 13.5237 16.1334 13.5259 16.0784V15.0004H13.266C13.266 14.8864 13.266 14.7724 13.266 14.6584H13.5259C13.5259 14.5164 13.5259 14.3764 13.524 14.2344Z" fill="#01385E"/>
<path d="M3.958 14.6823C4.2926 14.592 4.64663 14.6045 4.974 14.7183V16.4243C4.97644 16.595 4.93366 16.7634 4.85 16.9123C4.749 17.0678 4.59346 17.1798 4.414 17.2263C4.17202 17.2943 3.91599 17.2943 3.674 17.2263V16.8663C3.82467 16.9161 3.98395 16.9345 4.142 16.9203C4.21356 16.9178 4.28352 16.8984 4.34611 16.8636C4.40869 16.8289 4.46212 16.7798 4.502 16.7203C4.56844 16.5802 4.59276 16.4239 4.57201 16.2703C4.48966 16.3628 4.38181 16.4289 4.262 16.4603C4.15595 16.4872 4.04524 16.4899 3.93796 16.4684C3.8307 16.4471 3.72958 16.4019 3.642 16.3363C3.55736 16.26 3.48867 16.1677 3.43993 16.0648C3.39118 15.9617 3.36334 15.8501 3.358 15.7363V15.5163C3.36705 15.3965 3.39331 15.2786 3.43601 15.1663C3.48053 15.0513 3.55069 14.9479 3.64114 14.864C3.73158 14.7801 3.83995 14.718 3.958 14.6823ZM3.998 15.0583C3.93122 15.1124 3.87826 15.1816 3.84348 15.2601C3.8087 15.3387 3.79312 15.4245 3.798 15.5103C3.78231 15.6833 3.82682 15.8564 3.92401 16.0003C3.96667 16.0488 4.02102 16.0857 4.08192 16.1074C4.14281 16.1291 4.20824 16.135 4.27201 16.1243C4.32758 16.1223 4.38181 16.1065 4.42994 16.0787C4.47806 16.0507 4.5186 16.0115 4.54801 15.9643C4.54801 15.6423 4.54801 15.3203 4.54801 14.9983C4.45726 14.9714 4.36206 14.9628 4.26796 14.9731C4.17387 14.9834 4.08277 15.0123 4.00001 15.0583H3.998Z" fill="#01385E"/>
<path d="M5.49405 14.9263C5.66474 14.7453 5.89949 14.6384 6.14805 14.6283C6.3989 14.609 6.65109 14.6396 6.89006 14.7183C6.89006 15.1183 6.89006 15.5383 6.89006 15.9483C6.88657 15.9771 6.88943 16.0064 6.89841 16.034C6.90739 16.0617 6.92228 16.087 6.94206 16.1083C6.96197 16.1203 6.98423 16.128 7.00733 16.1307C7.03043 16.1335 7.05386 16.1313 7.07605 16.1243V16.4543C6.9313 16.5036 6.7732 16.4957 6.63405 16.4323C6.57147 16.3906 6.52437 16.3295 6.50005 16.2583C6.44408 16.3266 6.37399 16.382 6.29458 16.4207C6.21518 16.4593 6.12834 16.4803 6.04005 16.4823C5.94354 16.4911 5.84626 16.479 5.75482 16.4469C5.66337 16.4148 5.5799 16.3634 5.51005 16.2963C5.35321 16.1276 5.2679 15.9046 5.27205 15.6743C5.25103 15.4061 5.33012 15.1396 5.49405 14.9263ZM5.91405 15.0562C5.84748 15.111 5.7947 15.1806 5.75996 15.2594C5.72522 15.3383 5.70949 15.4242 5.71405 15.5103C5.6981 15.683 5.74188 15.856 5.83805 16.0002C5.88058 16.0497 5.93515 16.0872 5.99648 16.1093C6.0578 16.1314 6.1238 16.1373 6.18805 16.1263C6.24364 16.1242 6.29786 16.1086 6.34598 16.0807C6.3941 16.0528 6.43464 16.0135 6.46405 15.9663C6.46405 15.6443 6.46405 15.3223 6.46405 15.0023C6.37341 14.9742 6.27805 14.9645 6.1836 14.9737C6.08914 14.983 5.9975 15.0111 5.91405 15.0562Z" fill="#01385E"/>
<path d="M7.46403 14.7804C7.61284 14.6747 7.79153 14.6194 7.97404 14.6224C8.17169 14.6118 8.36938 14.6431 8.55404 14.7144V15.0744C8.36052 14.9919 8.1495 14.959 7.94003 14.9784C7.90265 14.9775 7.86548 14.9845 7.83101 14.999C7.79653 15.0134 7.76552 15.0351 7.74003 15.0624C7.72141 15.0961 7.71642 15.1356 7.7261 15.1728C7.73578 15.2101 7.75938 15.2422 7.79203 15.2624C7.89392 15.3094 8.00261 15.3397 8.11404 15.3525C8.2622 15.3703 8.40157 15.4324 8.51404 15.5304C8.56408 15.5926 8.60046 15.6646 8.62079 15.7418C8.64112 15.8191 8.64495 15.8997 8.63203 15.9784C8.62624 16.0484 8.60536 16.1162 8.57083 16.1774C8.53631 16.2385 8.48896 16.2914 8.43203 16.3324C8.26155 16.4352 8.06501 16.4866 7.86604 16.4805C7.68146 16.485 7.49747 16.458 7.32203 16.4005V16.0405C7.53834 16.1152 7.76837 16.1418 7.99603 16.1184C8.07603 16.1045 8.17603 16.0784 8.20604 15.9904C8.22017 15.9488 8.21741 15.9032 8.19834 15.8636C8.17926 15.824 8.14541 15.7934 8.10403 15.7784C7.90403 15.7004 7.67004 15.7205 7.48603 15.5964C7.42246 15.5478 7.372 15.4842 7.33917 15.4112C7.30635 15.3382 7.29221 15.2582 7.29803 15.1784C7.29366 15.1038 7.30634 15.0293 7.3351 14.9603C7.36386 14.8913 7.40796 14.8298 7.46403 14.7804Z" fill="#01385E"/>
<path d="M12 14.6542C12.3036 14.5978 12.6165 14.6185 12.91 14.7142C12.91 15.1262 12.91 15.5382 12.91 15.9502C12.91 16.0062 12.91 16.0762 12.966 16.1122C13.0063 16.132 13.0521 16.1376 13.096 16.1282C13.096 16.2382 13.096 16.3482 13.096 16.4542C12.9903 16.4855 12.879 16.493 12.77 16.4762C12.7134 16.4646 12.661 16.4381 12.6181 16.3994C12.5752 16.3608 12.5433 16.3113 12.526 16.2562C12.447 16.3517 12.3411 16.4215 12.222 16.4562C12.1131 16.4862 11.9988 16.4908 11.8878 16.4697C11.7769 16.4485 11.6723 16.4022 11.582 16.3342C11.4974 16.2582 11.429 16.1659 11.3809 16.0627C11.3328 15.9596 11.306 15.8479 11.302 15.7342C11.2753 15.4746 11.3358 15.2136 11.474 14.9922C11.6006 14.8174 11.7884 14.6967 12 14.6542ZM11.9561 15.0542C11.8854 15.1048 11.8285 15.1722 11.7908 15.2506C11.7529 15.3289 11.7355 15.4154 11.7401 15.5022C11.7174 15.6878 11.7659 15.875 11.8761 16.0262C11.9357 16.0836 12.0112 16.1219 12.0928 16.1362C12.1744 16.1504 12.2584 16.14 12.334 16.1062C12.4004 16.0833 12.4551 16.0352 12.486 15.9722C12.486 15.6522 12.486 15.3322 12.486 15.0122C12.3133 14.9572 12.1262 14.9693 11.962 15.0462L11.9561 15.0542Z" fill="#01385E"/>
<path d="M17.3121 14.6483C17.4152 14.6163 17.5249 14.6122 17.63 14.6363V15.0263C17.4849 14.9801 17.3276 14.9908 17.19 15.0563C17.1237 15.095 17.0691 15.151 17.0321 15.2183C17.0321 15.6183 17.0321 16.0403 17.0321 16.4503H16.6001C16.6001 15.8503 16.6001 15.2503 16.6001 14.6503H17.0001C17.0001 14.7323 17.0001 14.8163 17.0001 14.8983C17.0331 14.8382 17.0777 14.7851 17.1312 14.7423C17.1848 14.6994 17.2462 14.6675 17.3121 14.6483Z" fill="#01385E"/>
<path d="M18.252 14.6984C18.5988 14.5899 18.9715 14.5969 19.314 14.7184V15.9484C19.3085 16.0022 19.3227 16.0562 19.354 16.1004C19.3742 16.1151 19.3973 16.1253 19.4217 16.1305C19.4462 16.1357 19.4715 16.1357 19.496 16.1304C19.496 16.2384 19.496 16.3484 19.496 16.4584C19.3525 16.5048 19.1969 16.4955 19.06 16.4324C18.9992 16.392 18.9529 16.333 18.9279 16.2644C18.89 16.2804 18.868 16.3264 18.832 16.3504C18.7473 16.414 18.6492 16.4574 18.5452 16.4771C18.4412 16.4969 18.334 16.4926 18.232 16.4644C18.1228 16.4372 18.0222 16.3833 17.9391 16.3075C17.856 16.2318 17.793 16.1365 17.756 16.0304C17.669 15.7667 17.669 15.482 17.756 15.2184C17.7924 15.0991 17.8562 14.9899 17.9423 14.8995C18.0284 14.8093 18.1345 14.7404 18.252 14.6984ZM18.338 15.0564C18.2729 15.1084 18.221 15.1749 18.1863 15.2507C18.1515 15.3264 18.135 15.4092 18.138 15.4924C18.1184 15.671 18.1624 15.8509 18.2619 16.0004C18.305 16.0496 18.36 16.0868 18.4217 16.1086C18.4834 16.1303 18.5496 16.1358 18.6139 16.1244C18.6692 16.121 18.7228 16.1045 18.7705 16.0763C18.8181 16.0481 18.8584 16.0091 18.888 15.9624C18.888 15.6424 18.888 15.3204 18.888 15.0004C18.7972 14.9725 18.7017 14.9631 18.6073 14.9727C18.5129 14.9823 18.4213 15.0108 18.338 15.0564Z" fill="#01385E"/>
<path d="M14.6 14.6581C14.74 14.6581 14.882 14.6581 15.022 14.6581C15.022 15.0401 15.022 15.4221 15.022 15.8021C15.0185 15.8811 15.0409 15.9591 15.086 16.0241C15.1136 16.0539 15.1475 16.0773 15.1851 16.0924C15.2229 16.1077 15.2634 16.1144 15.304 16.1121C15.3806 16.1137 15.4567 16.0975 15.526 16.065C15.5954 16.0323 15.6563 15.9841 15.704 15.9241C15.704 15.5021 15.704 15.0801 15.704 14.6581C15.846 14.6581 15.986 14.6581 16.128 14.6581C16.128 15.2581 16.128 15.8581 16.128 16.4581C15.998 16.4581 15.866 16.4581 15.728 16.4581V16.2201C15.664 16.2993 15.5837 16.3639 15.4926 16.4094C15.4016 16.455 15.3017 16.4804 15.2 16.4841C15.1211 16.4956 15.0407 16.4891 14.9647 16.465C14.8887 16.441 14.8192 16.3999 14.7614 16.345C14.7036 16.2901 14.659 16.2228 14.6311 16.1482C14.6031 16.0735 14.5925 15.9934 14.6 15.9141V14.6581Z" fill="#01385E"/>
<path d="M14.938 17.0203C15.1169 16.9786 15.303 16.9786 15.482 17.0203V17.3622C15.4166 17.3408 15.3476 17.3323 15.279 17.3375C15.2103 17.3426 15.1433 17.3613 15.082 17.3922C14.9879 17.4843 15.0299 17.6283 15.0199 17.7462H15.4199V18.0923C15.2859 18.0923 15.154 18.0923 15.0199 18.0923C15.0199 18.5503 15.0199 19.0102 15.0199 19.4683C15.0256 19.6211 15.0202 19.7742 15.0039 19.9263C14.9929 20.042 14.9429 20.1507 14.8619 20.2342C14.7675 20.3121 14.6503 20.3571 14.5279 20.3622H14.3399L14.218 20.3423V20.0002C14.3279 20.0143 14.4679 20.0422 14.5499 19.9462C14.5891 19.88 14.6066 19.803 14.5999 19.7263V18.0923H14.3279V17.7462H14.5999C14.5861 17.5897 14.6038 17.4319 14.6519 17.2822C14.6768 17.2199 14.7155 17.1639 14.765 17.1185C14.8145 17.0732 14.8736 17.0396 14.938 17.0203Z" fill="#01385E"/>
<path d="M15.828 17.8746C15.9355 17.8032 16.056 17.7538 16.1827 17.7292C16.3093 17.7044 16.4395 17.7049 16.566 17.7306C16.6825 17.7539 16.7909 17.8071 16.8807 17.8849C16.9704 17.9628 17.0384 18.0626 17.078 18.1746C17.137 18.3586 17.1508 18.5541 17.118 18.7446C16.718 18.7446 16.334 18.7446 15.944 18.7446C15.9349 18.8304 15.9528 18.9169 15.995 18.9922C16.0373 19.0675 16.1019 19.1277 16.18 19.1645C16.4494 19.2517 16.7415 19.2361 17 19.1206C17 19.2406 17 19.3606 17 19.4786C16.706 19.5833 16.3882 19.602 16.084 19.5325C15.9833 19.5105 15.8885 19.4678 15.8052 19.4073C15.7219 19.3467 15.652 19.2695 15.6 19.1805C15.4934 18.9644 15.4564 18.7206 15.494 18.4826C15.5061 18.3651 15.5418 18.2514 15.5993 18.1483C15.6567 18.0451 15.7345 17.9547 15.828 17.8826V17.8746ZM16.132 18.1085C16.076 18.1471 16.0299 18.1984 15.9977 18.2582C15.9653 18.318 15.9476 18.3846 15.946 18.4525C16.194 18.4525 16.442 18.4525 16.69 18.4525C16.6942 18.389 16.6831 18.3253 16.6577 18.2669C16.6323 18.2084 16.5933 18.1569 16.544 18.1165C16.482 18.0801 16.4119 18.0596 16.34 18.0568C16.2681 18.0541 16.1966 18.069 16.132 18.1005V18.1085Z" fill="#01385E"/>
<path d="M17.842 17.9762C17.9473 17.8443 18.0962 17.7543 18.2619 17.7223C18.3544 17.7034 18.4497 17.7049 18.5415 17.7262C18.6332 17.7476 18.7193 17.7885 18.794 17.8462C18.854 17.9055 18.9009 17.9767 18.9316 18.0553C18.9623 18.1338 18.976 18.218 18.972 18.3022C18.972 18.7162 18.972 19.1282 18.972 19.5422C18.8299 19.5422 18.6879 19.5422 18.546 19.5422C18.546 19.1662 18.546 18.7902 18.546 18.4142C18.5559 18.3193 18.5325 18.2239 18.4799 18.1442C18.4489 18.1149 18.412 18.0926 18.3717 18.0788C18.3313 18.065 18.2884 18.0601 18.2459 18.0642C18.1701 18.0662 18.096 18.0876 18.0309 18.1265C17.9657 18.1655 17.9117 18.2204 17.874 18.2862C17.874 18.7042 17.874 19.1242 17.874 19.5422C17.73 19.5422 17.586 19.5422 17.444 19.5422V17.7422C17.5739 17.7422 17.706 17.7422 17.844 17.7422C17.842 17.8222 17.8399 17.8983 17.842 17.9762Z" fill="#01385E"/>
<path d="M19.932 17.7285C20.0646 17.7016 20.201 17.702 20.3335 17.7296C20.4658 17.7571 20.5912 17.8111 20.702 17.8885C20.7896 17.9628 20.8607 18.0545 20.911 18.1578C20.9612 18.2611 20.9896 18.3736 20.9941 18.4885C21.0242 18.7425 20.9708 18.9994 20.8421 19.2204C20.7862 19.3071 20.7135 19.3816 20.6283 19.4397C20.5432 19.4978 20.4472 19.5382 20.3461 19.5584C20.2189 19.5864 20.0874 19.5889 19.9593 19.5654C19.8312 19.5421 19.7091 19.4935 19.6 19.4224C19.5044 19.3521 19.4248 19.2622 19.3666 19.1588C19.3083 19.0553 19.2727 18.9407 19.262 18.8224C19.2234 18.5569 19.2801 18.2862 19.422 18.0584C19.4819 17.973 19.5582 17.9004 19.6465 17.8447C19.7347 17.7891 19.8331 17.7516 19.936 17.7344L19.932 17.7285ZM20.006 18.0764C19.9341 18.0928 19.869 18.1309 19.8196 18.1857C19.7702 18.2405 19.7389 18.3092 19.7301 18.3824C19.691 18.5688 19.6952 18.7618 19.742 18.9464C19.7586 19.0092 19.7911 19.0666 19.8362 19.1132C19.8814 19.1598 19.9378 19.194 20 19.2124C20.0761 19.2371 20.1578 19.2392 20.2351 19.2186C20.3125 19.1981 20.3822 19.1557 20.436 19.0965C20.5231 18.9574 20.5638 18.7942 20.552 18.6304C20.5624 18.4723 20.5209 18.315 20.4341 18.1824C20.3786 18.1262 20.309 18.0861 20.2326 18.0663C20.1561 18.0467 20.0758 18.0481 20 18.0704L20.006 18.0764Z" fill="#01385E"/>
<path d="M21.4 17.8584C21.5582 17.7533 21.7464 17.7028 21.936 17.7144C22.1204 17.705 22.3047 17.7357 22.476 17.8044C22.476 17.9244 22.476 18.0444 22.476 18.1644C22.262 18.0723 22.0263 18.0424 21.796 18.0784C21.728 18.0904 21.648 18.1324 21.6421 18.2104C21.6392 18.251 21.6508 18.2912 21.675 18.3238C21.6993 18.3565 21.7344 18.3795 21.774 18.3884C21.974 18.4565 22.208 18.4485 22.374 18.5884C22.4346 18.6385 22.4821 18.7025 22.5125 18.7749C22.5428 18.8474 22.5549 18.9262 22.548 19.0044C22.5521 19.0837 22.5372 19.1629 22.5045 19.2352C22.4718 19.3076 22.4222 19.3711 22.36 19.4204C22.1938 19.5326 21.9964 19.5893 21.796 19.5824C21.6064 19.5893 21.4169 19.5637 21.236 19.5064C21.236 19.3845 21.236 19.2645 21.236 19.1445C21.4219 19.2048 21.6166 19.2339 21.812 19.2304C21.9092 19.2332 22.0044 19.2029 22.082 19.1445C22.0982 19.1269 22.1102 19.106 22.1173 19.0832C22.1242 19.0605 22.1261 19.0364 22.1226 19.0129C22.1192 18.9893 22.1106 18.9668 22.0973 18.947C22.084 18.9271 22.0665 18.9106 22.046 18.8984C21.9426 18.8528 21.8326 18.8238 21.72 18.8124C21.5771 18.7974 21.4424 18.7388 21.334 18.6444C21.2878 18.5916 21.2526 18.5301 21.2307 18.4634C21.2087 18.3968 21.2003 18.3264 21.206 18.2565C21.204 18.1817 21.2193 18.1076 21.2508 18.0399C21.2824 17.9722 21.3294 17.9127 21.388 17.8664L21.4 17.8584Z" fill="#01385E"/>
<path d="M23.528 17.732C23.8152 17.6915 24.108 17.7168 24.384 17.806C24.384 18.22 24.384 18.636 24.384 19.0501C24.3817 19.0762 24.3847 19.1026 24.3925 19.1276C24.4004 19.1527 24.4132 19.1759 24.43 19.196C24.4661 19.23 24.52 19.2181 24.566 19.22C24.566 19.328 24.566 19.438 24.566 19.5461C24.4449 19.579 24.3172 19.579 24.196 19.5461C24.15 19.5295 24.1082 19.503 24.0737 19.4684C24.0391 19.4338 24.0126 19.3921 23.996 19.3461C23.9264 19.4374 23.832 19.5068 23.724 19.5461C23.601 19.5868 23.4694 19.5939 23.3427 19.5665C23.2161 19.539 23.0991 19.4781 23.004 19.39C22.848 19.2201 22.7634 18.9967 22.768 18.766C22.7532 18.5149 22.8237 18.2661 22.968 18.06C23.1098 17.8838 23.3138 17.7685 23.5381 17.7381L23.528 17.732ZM23.472 18.124C23.3989 18.1627 23.3374 18.2201 23.2938 18.2904C23.2503 18.3608 23.2262 18.4413 23.224 18.524C23.1975 18.7056 23.2283 18.8908 23.312 19.054C23.3446 19.1068 23.3902 19.1502 23.4446 19.18C23.4989 19.2098 23.5601 19.2249 23.622 19.224C23.6875 19.2301 23.7536 19.2194 23.8138 19.1928C23.874 19.1662 23.9264 19.1246 23.966 19.072C23.966 18.748 23.966 18.424 23.966 18.0981C23.8008 18.0456 23.6225 18.0527 23.462 18.118L23.472 18.124Z" fill="#01385E"/>
<path d="M23.788 14.0282C23.804 14.0063 23.824 13.9823 23.84 13.9583C23.8175 14.0396 23.8127 14.1248 23.8261 14.2082C23.78 14.3242 23.8261 14.4762 23.724 14.5682C23.7242 14.4572 23.7432 14.347 23.78 14.2422C23.824 14.1762 23.78 14.1002 23.78 14.0282H23.788ZM23.78 14.3162C23.7621 14.3382 23.766 14.3503 23.78 14.3542C23.7941 14.3583 23.8 14.3202 23.78 14.3162Z" fill="#ED9223"/>
<path d="M23.478 13.9844C23.5178 13.9894 23.5581 13.9894 23.598 13.9844C23.598 14.0264 23.586 14.0704 23.578 14.1124C23.5328 14.1187 23.4903 14.1373 23.455 14.1662C23.4197 14.1952 23.393 14.2333 23.378 14.2763L23.362 14.3144V14.3264C23.338 14.3664 23.318 14.4064 23.298 14.4484H23.266C23.2646 14.3987 23.2693 14.3489 23.28 14.3003C23.2899 14.2631 23.3019 14.2264 23.316 14.1904C23.352 14.1104 23.432 14.0664 23.478 13.9904V13.9844Z" fill="#1D2320"/>
<path d="M23.6661 13.9843C23.6779 13.9843 23.6894 13.9882 23.6988 13.9955C23.7082 14.0026 23.715 14.0128 23.718 14.0243V14.0362L23.6901 14.0483C23.678 14.0803 23.6901 14.1283 23.66 14.1462C23.63 14.1283 23.66 14.0922 23.66 14.0662C23.66 14.0403 23.648 14.0022 23.672 13.9802L23.6661 13.9843Z" fill="#1D2320"/>
<path d="M21.986 13.9999C22.0128 13.9962 22.0402 14.0009 22.0642 14.0134C22.0882 14.026 22.1078 14.0458 22.12 14.0698C22.1227 14.0772 22.1269 14.084 22.132 14.0899L22.146 14.1159C22.1106 14.1149 22.076 14.1046 22.046 14.0858C22.062 14.1439 22.082 14.1999 22.102 14.2559H22.062C22.059 14.2338 22.0515 14.2125 22.0397 14.1936C22.028 14.1747 22.0124 14.1584 21.994 14.1459C22.0014 14.0972 21.9987 14.0474 21.986 13.9999Z" fill="#D53F1B"/>
<path d="M22.136 14C22.1656 14.0115 22.1924 14.0292 22.2145 14.052C22.2365 14.0747 22.2535 14.102 22.264 14.132C22.29 14.194 22.22 14.238 22.188 14.282C22.1864 14.2268 22.172 14.1727 22.146 14.124L22.132 14.098C22.132 14.058 22.134 14.026 22.136 14Z" fill="#FCC90C"/>
<path d="M23.7259 14.2681C23.7273 14.1843 23.7485 14.1021 23.788 14.0281C23.788 14.1001 23.824 14.176 23.788 14.2421C23.7511 14.3469 23.7321 14.4571 23.732 14.568C23.6998 14.6494 23.6921 14.7384 23.7099 14.824C23.6976 14.8383 23.6842 14.8517 23.6699 14.864C23.6498 14.7672 23.6539 14.6669 23.682 14.5721C23.7123 14.4733 23.7298 14.3712 23.7339 14.2681H23.7259Z" fill="#E2621F"/>
<path d="M24.886 14.0517L24.934 14.0317C24.914 14.0797 24.9 14.1297 24.88 14.1757C24.8619 14.1496 24.836 14.13 24.806 14.1197V14.1077L24.79 14.0657C24.8057 14.0723 24.8231 14.0746 24.8399 14.0721C24.8568 14.0696 24.8728 14.0626 24.886 14.0517Z" fill="#EB8D4E"/>
<path d="M23.6879 14.052L23.716 14.04C23.7013 14.1193 23.6792 14.1969 23.6499 14.272C23.6088 14.3555 23.5592 14.4346 23.5019 14.508C23.4505 14.5235 23.4004 14.5429 23.3519 14.5661L23.3119 14.504C23.3505 14.4464 23.3977 14.3951 23.452 14.352L23.3619 14.322V14.3101H23.4719L23.5279 14.258C23.5622 14.2154 23.6035 14.1789 23.6499 14.1501C23.692 14.132 23.676 14.084 23.6879 14.052Z" fill="#C94732"/>
<path d="M24.5239 14.1261C24.558 14.095 24.5993 14.0733 24.6441 14.0628C24.6889 14.0523 24.7357 14.0534 24.7799 14.066L24.7959 14.108C24.658 14.072 24.538 14.164 24.424 14.2301C24.36 14.268 24.314 14.33 24.242 14.354C24.17 14.378 24.1719 14.42 24.144 14.458C24.1168 14.4939 24.0853 14.5262 24.05 14.554C24.051 14.5367 24.051 14.5194 24.05 14.5021C24.098 14.448 24.1259 14.38 24.178 14.33C24.2886 14.2544 24.4041 14.1861 24.5239 14.1261Z" fill="#DD5320"/>
<path d="M22.956 14.1998C22.9667 14.1573 22.9734 14.1137 22.976 14.0698C22.9821 14.1066 23.0013 14.1399 23.0299 14.1638C23.026 14.2033 23.0137 14.2415 22.9942 14.2759C22.9745 14.3104 22.9479 14.3403 22.916 14.3638L22.876 14.3338C22.876 14.3118 22.876 14.2899 22.876 14.2678H22.842L22.77 14.2518C22.77 14.2238 22.77 14.1958 22.756 14.1678C22.7835 14.1734 22.812 14.1713 22.8385 14.1618C22.8649 14.1523 22.8883 14.1357 22.906 14.1139C22.892 14.1598 22.9259 14.1878 22.964 14.2038L22.956 14.1998Z" fill="#FEE390"/>
<path d="M22.102 14.2559C22.0821 14.1999 22.062 14.1439 22.0461 14.0859C22.0761 14.1047 22.1107 14.115 22.1461 14.116C22.172 14.1647 22.1864 14.2187 22.188 14.274C22.2401 14.3599 22.342 14.4079 22.388 14.506L22.2981 14.522C22.2436 14.4788 22.1945 14.4291 22.1521 14.3739C22.1194 14.339 22.0936 14.2984 22.076 14.2539H22.116L22.102 14.2559Z" fill="#D95B1A"/>
<path d="M24.424 14.2298C24.538 14.1638 24.658 14.0718 24.796 14.1078V14.1198C24.7387 14.1953 24.6714 14.2626 24.596 14.3198C24.5463 14.3668 24.4995 14.4169 24.456 14.4698C24.398 14.5238 24.33 14.5638 24.27 14.6118L24.136 14.7158V14.5998L24.02 14.5798L24.038 14.5558C24.0732 14.5279 24.1049 14.4956 24.132 14.4598C24.16 14.4218 24.178 14.3698 24.23 14.3558C24.282 14.3418 24.36 14.2678 24.424 14.2298Z" fill="#F19C0A"/>
<path d="M23.03 14.1642C23.096 14.0782 23.2 14.1522 23.282 14.1642C23.212 14.1642 23.204 14.2602 23.166 14.3062H23.074L22.982 14.4002L22.916 14.3502C22.948 14.3267 22.9746 14.2967 22.9942 14.2623C23.0138 14.2278 23.0261 14.1896 23.03 14.1502V14.1642Z" fill="#FDD77B"/>
<path d="M24.8001 14.1199C24.8301 14.1301 24.8561 14.1498 24.8741 14.1759C24.8475 14.2203 24.8174 14.2625 24.7841 14.3019C24.7282 14.3504 24.6671 14.3926 24.6021 14.4279C24.5187 14.488 24.4404 14.5549 24.3681 14.6279L24.3041 14.6679C24.3041 14.6499 24.284 14.6319 24.276 14.6139C24.3361 14.5659 24.404 14.5259 24.4621 14.4719C24.5056 14.4191 24.5524 14.369 24.6021 14.3219C24.677 14.2639 24.7435 14.1959 24.8001 14.1199Z" fill="#DE511D"/>
<path d="M23.9561 14.5841C23.9727 14.594 23.9901 14.6026 24.008 14.6101C23.952 14.6561 23.894 14.6981 23.838 14.7421C23.864 14.6801 23.922 14.6421 23.9561 14.5841Z" fill="#DE511D"/>
<path d="M23.4581 14.2003C23.4848 14.1833 23.5128 14.1685 23.5421 14.1562C23.58 14.1703 23.5421 14.2003 23.5301 14.2243C23.5181 14.2483 23.5301 14.2442 23.5301 14.2522L23.4741 14.3043H23.364L23.38 14.2663H23.436C23.436 14.2442 23.4461 14.2222 23.452 14.2003H23.4581Z" fill="#9A382C"/>
<path d="M23.1659 14.3102C23.204 14.2642 23.212 14.1762 23.282 14.1682H23.316C23.3018 14.2042 23.2899 14.2409 23.28 14.2782C23.228 14.3222 23.172 14.3622 23.1179 14.4062C23.1143 14.39 23.1096 14.374 23.104 14.3582C23.1259 14.3502 23.146 14.3302 23.1659 14.3102Z" fill="#E98149"/>
<path d="M23.074 14.3143H23.166C23.146 14.3343 23.126 14.3543 23.104 14.3723C23.0778 14.4005 23.0467 14.4236 23.0119 14.4404H22.952L22.982 14.4123L23.074 14.3143Z" fill="#F1A650"/>
<path d="M23.78 14.3157C23.802 14.3157 23.8059 14.3317 23.78 14.3537C23.754 14.3757 23.762 14.3377 23.78 14.3157Z" fill="#DF5124"/>
<path d="M23.2981 14.4441C23.3181 14.4021 23.3381 14.3621 23.3621 14.3221L23.452 14.3522C23.3978 14.3953 23.3507 14.4466 23.3121 14.5042C23.2956 14.4822 23.2803 14.4596 23.2661 14.4361H23.2981V14.4441Z" fill="#A3372E"/>
<path d="M23.012 14.4361C23.0467 14.4193 23.0779 14.3963 23.104 14.368C23.1096 14.3838 23.1143 14.3998 23.118 14.416C23.0077 14.5149 22.8764 14.5873 22.734 14.6281C22.627 14.6539 22.5145 14.6462 22.412 14.6061C22.3651 14.5873 22.3228 14.5587 22.288 14.522L22.3781 14.506C22.4775 14.5448 22.5832 14.5651 22.6901 14.5661C22.7331 14.5564 22.7752 14.543 22.816 14.5261C22.8801 14.4907 22.947 14.4606 23.016 14.4361H23.012Z" fill="#D94D30"/>
<path d="M22.6901 14.5659L22.7301 14.4779L22.816 14.5259C22.7752 14.5428 22.7331 14.5562 22.6901 14.5659Z" fill="#FCD65E"/>
<path d="M23.9559 14.5843C23.9658 14.5646 23.9796 14.5472 23.9964 14.5331C24.0134 14.519 24.0329 14.5085 24.054 14.5023C24.055 14.5196 24.055 14.537 24.054 14.5543L24.0359 14.5783L24.0119 14.6103C23.9927 14.603 23.974 14.5944 23.9559 14.5843Z" fill="#F6B64F"/>
<path d="M24.032 14.5781L24.148 14.5981V14.7161C24.096 14.7661 24.042 14.8161 23.984 14.8621C23.984 14.8421 23.984 14.8221 23.984 14.8021L23.92 14.8441L23.878 14.7861C23.866 14.8001 23.854 14.8121 23.844 14.8261L23.814 14.7821L23.836 14.7421C23.892 14.6981 23.95 14.6561 24.006 14.6101L24.03 14.5781H24.032Z" fill="#FAC10D"/>
<path d="M24.148 14.7162L24.282 14.6122C24.282 14.6302 24.3 14.6481 24.3099 14.6662L24.3739 14.6262C24.3434 14.6773 24.3 14.7194 24.2479 14.7482C24.2079 14.7722 24.1919 14.8222 24.156 14.8502C24.1095 14.863 24.0669 14.887 24.0319 14.9201C23.9599 14.9601 23.8899 15.0302 23.8019 15.0122L23.7579 14.9802H23.8619C23.8996 14.9385 23.9404 14.8997 23.9839 14.8641C24.0419 14.8182 24.0959 14.7681 24.148 14.7182V14.7162Z" fill="#E77C18"/>
<path d="M23.72 14.8137L23.816 14.7817L23.846 14.8257C23.846 14.8117 23.868 14.7997 23.88 14.7857L23.922 14.8437L23.986 14.8017C23.986 14.8217 23.986 14.8417 23.986 14.8617C23.9425 14.8972 23.9017 14.936 23.864 14.9777H23.76L23.804 15.0097C23.892 15.0277 23.962 14.9577 24.034 14.9177C24.0144 14.9534 23.9853 14.9831 23.9501 15.0035C23.9149 15.0239 23.8747 15.0344 23.834 15.0337C23.78 15.0337 23.74 14.9957 23.706 14.9617C23.7275 14.9148 23.7345 14.8626 23.726 14.8117L23.72 14.8137Z" fill="#FCCC27"/>
<path d="M23.702 14.8244L23.72 14.8143C23.7285 14.8652 23.7215 14.9175 23.6999 14.9644C23.6819 14.9334 23.669 14.8996 23.662 14.8644C23.6763 14.8521 23.6897 14.8387 23.702 14.8244Z" fill="#F4AB2D"/>
</svg>
