<svg width="32" height="32" viewBox="0 0 32 32" fill="none" xmlns="http://www.w3.org/2000/svg">
<path d="M0 16C0 24.8365 7.16344 32 16 32C24.8365 32 32 24.8365 32 16C32 7.16344 24.8365 0 16 0C7.16344 0 0 7.16344 0 16Z" fill="#002F6C"/>
<path d="M10.3588 16.5867L10.3682 16.5338H10.8216V19.2895H4V18.8216H5.15768V11.4679H4V11H10.5932V13.4366H10.1623L10.152 13.2775C9.99802 12.1717 9.68403 11.7202 8.98774 11.5634C8.66212 11.4949 8.3298 11.4635 7.99712 11.4698H6.76598V14.8128C7.96717 14.8128 8.5053 14.5764 8.5053 13.3846L8.5081 13.3228H8.95498V16.8605H8.50998L8.5053 16.801C8.5053 15.5296 8.05842 15.2465 6.76598 15.2465V18.8235H8.34807C10.2315 18.8216 10.1885 17.9512 10.3588 16.5867ZM15.282 15.9119L17.3142 18.8632H18.0943V19.3312H15.1308V18.8632H15.8711L14.5744 16.9423L13.2221 18.8632H13.9853V19.3312H11.633V18.8632H12.582L14.2773 16.5132L12.4739 13.8409H11.6316V13.3729H14.6264V13.8409H13.859L14.9872 15.4978L16.1706 13.8409H15.3751V13.3729H17.696V13.8409H16.7929L15.282 15.9119ZM28.0725 13.1764C28.6448 13.1764 29 13.517 29 14.0655C29 14.4613 28.6256 14.6738 28.2705 14.6738C27.9715 14.6738 27.6547 14.3378 27.6547 14.0187C27.6579 13.9436 27.6707 13.8692 27.6926 13.7973C27.7013 13.7686 27.7076 13.7392 27.7113 13.7094C27.7113 13.6958 27.7113 13.6869 27.658 13.686C27.6051 13.7089 27.1835 13.9096 26.8976 14.5175C26.6734 15.0078 26.5549 15.5399 26.5499 16.079V18.8103H27.6406V19.2783H24.3548V18.8103H25.3178V13.7941H24.3548V13.3261H24.8578C25.3473 13.3261 25.9126 13.3149 26.4282 13.1811L26.5073 13.1605V14.3855C26.7965 13.788 27.3416 13.1787 28.0725 13.1787V13.1764ZM21.0455 13.2723C22.5322 13.2723 23.6969 14.6003 23.6969 16.2952C23.6969 17.998 22.5322 19.3316 21.0455 19.3316C19.5589 19.3316 18.3942 17.998 18.3942 16.2952C18.3942 14.6003 19.5584 13.2723 21.0455 13.2723ZM21.0455 18.9241C22.3558 18.9241 22.3558 17.4664 22.3558 16.2952C22.3558 15.1239 22.3558 13.6803 21.0455 13.6803C19.7353 13.6803 19.7353 15.131 19.7353 16.2952C19.7353 17.4594 19.7353 18.9241 21.0455 18.9241Z" fill="#FFFFFE"/>
</svg>
