<svg width="32" height="32" viewBox="0 0 32 32" fill="none" xmlns="http://www.w3.org/2000/svg">
<path d="M0 16C0 24.8365 7.16344 32 16 32C24.8365 32 32 24.8365 32 16C32 7.16344 24.8365 0 16 0C7.16344 0 0 7.16344 0 16Z" fill="#EFEFEF"/>
<path d="M9.88395 18.588H8.59995L10.4 13.188H11.952L13.752 18.588H12.432L12.1 17.484H10.212L9.88395 18.588ZM10.564 16.3L10.508 16.5H11.8L11.744 16.3C11.5899 15.776 11.4619 15.332 11.364 14.964C11.266 14.596 11.2059 14.364 11.184 14.252L11.152 14.092C10.9931 14.8374 10.7969 15.5743 10.564 16.3Z" fill="#01478C"/>
<path d="M17.8 18.588H14.452V13.2H17.772V14.18H15.692V15.4H17.548V16.38H15.692V17.6H17.8V18.588Z" fill="#01478C"/>
<path d="M19.988 18.588H18.5L20.2 15.852L18.58 13.2H20.012L20.908 14.776L21.764 13.2H23.268L21.636 15.86L23.372 18.588H21.908L20.932 16.908L19.988 18.588Z" fill="#01478C"/>
<path d="M16 0.666666C24.4 0.666666 31.3334 7.6 31.3334 16C31.3334 24.4 24.4 31.3334 16 31.3334C7.6 31.3334 0.666666 24.4 0.666666 16C0.666666 7.6 7.6 0.666666 16 0.666666ZM16 0C7.2 0 0 7.2 0 16C0 24.8 7.2 32 16 32C24.8 32 32 24.8 32 16C32 7.2 24.8 0 16 0Z" fill="#999999"/>
</svg>
