<svg width="32" height="33" viewBox="0 0 32 33" fill="none" xmlns="http://www.w3.org/2000/svg">
<g clip-path="url(#clip0)">
<path d="M0 16.916C0 25.7525 7.16344 32.916 16 32.916C24.8365 32.916 32 25.7525 32 16.916C32 8.07946 24.8365 0.916016 16 0.916016C7.16344 0.916016 0 8.07946 0 16.916Z" fill="#EFEFEF"/>
<path d="M16 1.58268C24.4 1.58268 31.3334 8.51602 31.3334 16.916C31.3334 25.316 24.4 32.2494 16 32.2494C7.6 32.2494 0.666666 25.316 0.666666 16.916C0.666666 8.51602 7.6 1.58268 16 1.58268ZM16 0.916016C7.2 0.916016 0 8.11602 0 16.916C0 25.716 7.2 32.916 16 32.916C24.8 32.916 32 25.716 32 16.916C32 8.11602 24.8 0.916016 16 0.916016Z" fill="#999999"/>
<g clip-path="url(#clip1)">
<path fill-rule="evenodd" clip-rule="evenodd" d="M3.59357 18.5697C3.59197 18.5612 3.59197 18.5528 3.59197 18.5459C3.59197 18.4702 3.61044 18.3973 3.67571 18.3823C3.72729 18.3713 3.76518 18.4155 3.7811 18.4514L3.79288 18.4489V18.3438L3.78014 18.3466C3.77536 18.3582 3.77123 18.3692 3.75945 18.3717C3.74767 18.3738 3.71232 18.3598 3.67221 18.3685C3.57796 18.3892 3.5127 18.4743 3.5127 18.5656V18.5675C3.51397 18.6492 3.57096 18.7108 3.6738 18.6886C3.73206 18.6751 3.76741 18.6395 3.80052 18.5944L3.78651 18.5863C3.74894 18.6363 3.71551 18.6576 3.67953 18.6651C3.66679 18.6682 3.63082 18.6695 3.61203 18.641C3.5993 18.6226 3.59484 18.5944 3.59357 18.5697Z" fill="#B02C1B"/>
<path fill-rule="evenodd" clip-rule="evenodd" d="M5.75731 18.5697C5.74776 18.546 5.73152 18.5303 5.72261 18.5237L5.66371 18.479C5.63028 18.453 5.62295 18.4418 5.62295 18.4171C5.62295 18.388 5.64397 18.3789 5.6653 18.3833C5.7121 18.393 5.73662 18.4499 5.74426 18.4824L5.75572 18.4846V18.3867L5.74362 18.3845C5.74076 18.393 5.73917 18.3992 5.72961 18.3973C5.71815 18.3948 5.69969 18.3761 5.66753 18.3701C5.5908 18.3542 5.5787 18.413 5.5787 18.4408C5.5787 18.4615 5.5787 18.5 5.64683 18.551L5.67262 18.5697L5.6739 18.5707C5.70064 18.5898 5.71879 18.6048 5.71879 18.6348C5.71879 18.6404 5.71751 18.6852 5.66912 18.6752C5.62072 18.6652 5.59716 18.6148 5.58825 18.5697C5.58825 18.5697 5.58666 18.5647 5.58666 18.5622L5.5752 18.5597V18.6711L5.58666 18.6733C5.58825 18.6664 5.58984 18.6589 5.59876 18.6608C5.61117 18.6633 5.62996 18.6824 5.66753 18.6896C5.74076 18.7046 5.76687 18.6548 5.76687 18.6157C5.76687 18.5979 5.76241 18.5829 5.75731 18.5691" fill="#B02C1B"/>
<path fill-rule="evenodd" clip-rule="evenodd" d="M4.01881 18.5697C3.99366 18.5995 3.96309 18.611 3.9338 18.6179C3.90355 18.6239 3.89559 18.6201 3.89559 18.6007V18.4915C3.94049 18.4821 3.96341 18.49 3.96882 18.5453L3.9806 18.5431V18.3898L3.96882 18.393C3.96277 18.4499 3.93921 18.4668 3.89559 18.4759V18.3717C3.89559 18.352 3.90324 18.3485 3.92902 18.3432C3.98952 18.3298 4.02136 18.3338 4.03186 18.3958L4.04333 18.3933V18.3026L3.79339 18.3592V18.3701C3.80676 18.3679 3.81632 18.3645 3.82268 18.3945V18.6123C3.82268 18.6404 3.80931 18.6451 3.7832 18.6533V18.6648L4.04651 18.607L4.06434 18.5087L4.05192 18.5112C4.04333 18.5363 4.03186 18.5553 4.01881 18.5697Z" fill="#B02C1B"/>
<path fill-rule="evenodd" clip-rule="evenodd" d="M4.41737 18.519L4.43488 18.423L4.42215 18.4261C4.39477 18.4987 4.34955 18.5203 4.30594 18.53C4.27728 18.5362 4.26964 18.5331 4.26964 18.5128V18.4061C4.3123 18.3967 4.33523 18.4051 4.34064 18.459L4.35242 18.4565V18.3078L4.34064 18.3097C4.33968 18.3185 4.33809 18.326 4.3365 18.3332C4.32695 18.3704 4.30498 18.3832 4.26964 18.3911V18.2881C4.26964 18.2697 4.27664 18.2662 4.30148 18.2612C4.36102 18.2475 4.39317 18.2522 4.40273 18.3125L4.41323 18.3097V18.2215L4.1582 18.2772V18.2878C4.1789 18.2853 4.198 18.2816 4.198 18.3107V18.525C4.198 18.5522 4.18367 18.5566 4.1582 18.565V18.5757" fill="#B02C1B"/>
<path fill-rule="evenodd" clip-rule="evenodd" d="M5.0819 18.5632C5.05548 18.5535 5.04592 18.5507 5.04592 18.5141V18.3132C5.04592 18.2735 5.05898 18.2753 5.0819 18.2782V18.2669L4.97938 18.2462L4.89787 18.4446L4.81605 18.2131L4.71385 18.1927V18.2037C4.7425 18.2121 4.75014 18.2197 4.75014 18.2437V18.4602C4.75014 18.4862 4.74537 18.4925 4.71289 18.4887V18.5L4.80809 18.5197V18.5078C4.77402 18.4987 4.76733 18.4865 4.76733 18.4549V18.2428L4.86954 18.5319L4.88068 18.5344L4.98193 18.2791L4.98288 18.5091C4.98288 18.5394 4.97142 18.5385 4.94722 18.5363V18.5472L5.0819 18.5748" fill="#B02C1B"/>
<path fill-rule="evenodd" clip-rule="evenodd" d="M5.36177 18.5332L5.34967 18.5304C5.34235 18.5473 5.33375 18.5604 5.32388 18.5698C5.29841 18.5951 5.26625 18.5951 5.23601 18.5895C5.21436 18.5854 5.2048 18.5804 5.20098 18.5698C5.20003 18.5663 5.19971 18.5623 5.19971 18.557V18.4465C5.24301 18.455 5.26402 18.4731 5.26975 18.5307L5.28026 18.5332V18.3789L5.26975 18.3774C5.26275 18.4321 5.24078 18.4396 5.19971 18.4315V18.3251C5.19971 18.3064 5.20703 18.3064 5.23123 18.3098C5.25829 18.3157 5.27867 18.3217 5.29491 18.3339V18.3333C5.31337 18.3473 5.32484 18.3696 5.32993 18.4052L5.34139 18.4071V18.3157L5.09082 18.2682V18.2798C5.1112 18.2851 5.12966 18.2892 5.12966 18.3189V18.5398C5.12966 18.5679 5.11597 18.5667 5.09082 18.5651V18.5767L5.34426 18.6239" fill="#B02C1B"/>
<path fill-rule="evenodd" clip-rule="evenodd" d="M5.57356 18.4042C5.58279 18.3817 5.58821 18.3738 5.61113 18.3751V18.3638L5.52294 18.3482V18.3595C5.54618 18.3645 5.55796 18.3685 5.55796 18.386C5.55796 18.3948 5.55446 18.4051 5.55 18.4148L5.49747 18.5509L5.44239 18.4011C5.43825 18.3892 5.43061 18.3695 5.43061 18.3607C5.43061 18.3441 5.43984 18.3463 5.46627 18.3491V18.3379L5.34082 18.3166V18.3269C5.34687 18.3297 5.35037 18.3313 5.35196 18.3332C5.35451 18.3369 5.35419 18.3432 5.36088 18.3607L5.46786 18.6442L5.47932 18.647" fill="#B02C1B"/>
<path fill-rule="evenodd" clip-rule="evenodd" d="M3.87973 17.9512C3.87973 17.9124 3.89406 17.9093 3.91889 17.9024V17.8911L3.80555 17.9124L3.71544 18.1427L3.6247 17.9468L3.51072 17.9687V17.9797C3.54288 17.9759 3.55084 17.9806 3.55084 18.0041V18.2184C3.55084 18.2446 3.54511 18.2525 3.50977 18.2622V18.2734L3.61547 18.2537V18.2418C3.5779 18.2468 3.56962 18.2378 3.56962 18.2062V17.9965L3.68361 18.2406L3.6957 18.2381L3.80905 17.9446L3.81032 18.1717C3.81032 18.2012 3.79631 18.2055 3.76893 18.2134V18.2246L3.91889 18.1958V18.1846C3.8896 18.1865 3.87973 18.1868 3.87973 18.1508" fill="#B02C1B"/>
<path fill-rule="evenodd" clip-rule="evenodd" d="M3.9756 18.0773L4.01794 17.96L4.06347 18.061L3.9756 18.0773ZM4.1523 18.0782L4.05105 17.8602L4.03864 17.8627L3.93898 18.1283C3.92497 18.1649 3.92975 18.1627 3.91797 18.1849L3.91924 18.1952L3.9861 18.1837V18.1721C3.97082 18.1746 3.94981 18.1771 3.94981 18.1599C3.94981 18.153 3.95618 18.1333 3.96923 18.0983L4.07048 18.0795C4.07653 18.092 4.09181 18.1223 4.09181 18.1349C4.09181 18.1499 4.08257 18.1511 4.05519 18.1593V18.1702L4.1835 18.1449V18.1308C4.1835 18.1308 4.16886 18.1317 4.1523 18.0782Z" fill="#B02C1B"/>
<path fill-rule="evenodd" clip-rule="evenodd" d="M5.10614 17.8614C5.13734 17.8689 5.18351 17.8793 5.19306 17.9525L5.20611 17.9547L5.20484 17.8639L4.93453 17.8179L4.93262 17.9087L4.94663 17.9105C4.95522 17.8398 5.00203 17.8458 5.03323 17.8495V18.087C5.03323 18.1249 5.02272 18.1236 4.98897 18.1208V18.132L5.15039 18.159V18.1486C5.11664 18.1402 5.10614 18.138 5.10614 18.0998" fill="#B02C1B"/>
<path fill-rule="evenodd" clip-rule="evenodd" d="M5.24657 18.0689L5.28891 17.9662L5.33476 18.0836L5.24657 18.0689ZM5.42295 18.1314L5.32203 17.8768L5.31056 17.8746L5.20963 18.1048C5.19658 18.1364 5.18958 18.1508 5.16602 18.1499V18.1615L5.25676 18.1768V18.1655C5.24147 18.1615 5.22046 18.1571 5.22046 18.1402C5.22046 18.1327 5.22715 18.1158 5.23924 18.0851L5.34145 18.1026C5.34781 18.1177 5.36182 18.154 5.36182 18.1662C5.36182 18.1806 5.35386 18.1796 5.32648 18.1768V18.1887L5.47199 18.2137V18.2025C5.45065 18.1993 5.44365 18.1827 5.42295 18.1314Z" fill="#B02C1B"/>
<path fill-rule="evenodd" clip-rule="evenodd" d="M4.27132 17.9674V17.8526C4.27386 17.8382 4.27482 17.8332 4.29997 17.8285C4.33595 17.8216 4.3541 17.8376 4.3541 17.8826C4.3541 17.9414 4.33085 17.9558 4.27132 17.9674ZM4.45439 18.0725L4.36429 17.9618C4.3888 17.9493 4.43497 17.9264 4.43497 17.871C4.43497 17.8354 4.41395 17.8191 4.38785 17.8141V17.8138C4.36556 17.8085 4.34009 17.811 4.32258 17.8138C4.31716 17.8141 4.31175 17.815 4.30793 17.8157L4.16211 17.8438V17.8548C4.1879 17.8516 4.20254 17.8498 4.20254 17.8892V18.0882C4.20254 18.1148 4.20414 18.1148 4.18153 18.1332V18.1448L4.31525 18.1195V18.1085C4.28533 18.1094 4.27482 18.1104 4.27482 18.0738V17.9859L4.28692 17.9837L4.38084 18.1069L4.47349 18.0885V18.0778C4.46808 18.0794 4.46108 18.08 4.45439 18.0725Z" fill="#B02C1B"/>
<path fill-rule="evenodd" clip-rule="evenodd" d="M4.93334 18.0494C4.9343 18.0466 4.9343 18.0438 4.9343 18.0406C4.9343 17.9915 4.89991 17.9596 4.88399 17.9493L4.81841 17.9052C4.77988 17.8798 4.77192 17.8683 4.77192 17.8438C4.77192 17.8285 4.77861 17.8185 4.7888 17.8132V17.8138C4.79803 17.8085 4.80885 17.8072 4.82032 17.8091C4.82541 17.8104 4.82987 17.8116 4.83496 17.8132V17.8138C4.87826 17.8291 4.9015 17.8783 4.90819 17.9074L4.92061 17.9099V17.8119L4.90755 17.8101C4.90724 17.811 4.90692 17.8119 4.90628 17.8132V17.8138C4.90405 17.8191 4.90182 17.8241 4.89323 17.8229C4.88718 17.8219 4.88017 17.8182 4.87221 17.8138C4.85916 17.8069 4.84388 17.7994 4.82191 17.796C4.78147 17.7891 4.75727 17.7991 4.74295 17.8138C4.72639 17.8298 4.72225 17.8532 4.72225 17.8673C4.72225 17.8886 4.72225 17.9271 4.7993 17.9774L4.82987 17.9968C4.85566 18.0134 4.87476 18.0266 4.87985 18.0494C4.88017 18.0528 4.88017 18.0569 4.88017 18.0607C4.88017 18.0663 4.87731 18.1107 4.82509 18.101C4.79134 18.0957 4.76874 18.0747 4.75314 18.0494C4.74231 18.0303 4.73499 18.0094 4.73149 17.989L4.71875 17.9871V18.0982L4.73149 18.1001C4.73308 18.0938 4.73594 18.0857 4.74581 18.0873C4.75823 18.0898 4.77861 18.1085 4.82191 18.116C4.89928 18.1289 4.92889 18.0873 4.93334 18.0494Z" fill="#B02C1B"/>
<path fill-rule="evenodd" clip-rule="evenodd" d="M3.7282 17.8105C3.69509 17.8143 3.68395 17.8152 3.68395 17.777V17.5393C3.71165 17.5355 3.75113 17.5305 3.76577 17.5777V17.5771C3.76832 17.5834 3.76959 17.5912 3.77055 17.5993L3.7836 17.5965L3.78265 17.5064L3.51233 17.5577L3.51074 17.6484L3.5238 17.6459C3.52857 17.6109 3.54099 17.5899 3.55627 17.5771C3.57378 17.5624 3.59416 17.5574 3.61135 17.553V17.7911C3.61135 17.8005 3.6104 17.8074 3.60817 17.8133V17.814C3.60403 17.8308 3.59161 17.8343 3.5671 17.8412V17.8521L3.7282 17.8218" fill="#B02C1B"/>
<path fill-rule="evenodd" clip-rule="evenodd" d="M3.9206 17.5236C3.9206 17.4923 3.94225 17.4879 3.96327 17.4832V17.4716L3.80566 17.5013V17.5126C3.82604 17.5101 3.84705 17.507 3.84705 17.537V17.7554C3.84705 17.7832 3.82986 17.7885 3.80566 17.7951V17.8067L3.96327 17.777V17.7654C3.93907 17.7682 3.9206 17.7701 3.9206 17.741" fill="#B02C1B"/>
<path fill-rule="evenodd" clip-rule="evenodd" d="M4.12026 17.7297C4.10052 17.7338 4.0932 17.7278 4.0932 17.7078V17.5952L4.10625 17.5923C4.13555 17.5883 4.17534 17.5873 4.17534 17.6515C4.17534 17.6793 4.16961 17.7206 4.12026 17.7297ZM4.0932 17.4806C4.0932 17.4697 4.09352 17.4578 4.11612 17.4541C4.15306 17.4472 4.16293 17.4716 4.16293 17.5029C4.16293 17.5438 4.15465 17.5651 4.11007 17.577C4.10466 17.5789 4.09893 17.5798 4.0932 17.5814V17.4806ZM4.211 17.5776V17.577C4.19699 17.5726 4.18203 17.5704 4.1677 17.5714C4.18681 17.5611 4.23807 17.5395 4.23807 17.4891C4.23807 17.4193 4.14605 17.4347 4.12026 17.4397L3.98145 17.4659V17.4775C4.0015 17.4747 4.02029 17.4722 4.02029 17.5016V17.7203C4.02029 17.7475 4.0066 17.7522 3.98145 17.7594V17.7707L4.12631 17.7431C4.22119 17.7231 4.25239 17.6731 4.25239 17.6352C4.25239 17.6033 4.23425 17.5861 4.211 17.5776Z" fill="#B02C1B"/>
<path fill-rule="evenodd" clip-rule="evenodd" d="M4.35778 17.4356C4.35778 17.4043 4.37943 17.3999 4.40045 17.3949V17.3837L4.24316 17.4137V17.425C4.26418 17.4228 4.28519 17.4193 4.28519 17.4491V17.6674C4.28519 17.6953 4.26704 17.7003 4.24316 17.7072V17.7184L4.40045 17.689V17.6774C4.37593 17.6799 4.35778 17.6818 4.35778 17.6537" fill="#B02C1B"/>
<path fill-rule="evenodd" clip-rule="evenodd" d="M4.76151 17.5771C4.76056 17.5639 4.76056 17.5517 4.76056 17.5445C4.76056 17.4672 4.77807 17.4012 4.84398 17.4122C4.89555 17.42 4.93281 17.4788 4.94904 17.5207L4.96019 17.5226V17.4169L4.94873 17.415C4.94331 17.4253 4.93981 17.4344 4.92707 17.4325C4.91625 17.4303 4.88123 17.4025 4.84047 17.3962C4.74337 17.3809 4.67969 17.4438 4.67969 17.5323C4.67969 17.5473 4.68255 17.5624 4.68574 17.5771C4.70102 17.6421 4.7526 17.7022 4.84398 17.7172C4.88282 17.7232 4.94427 17.7204 4.9656 17.7085V17.6512C4.9656 17.6143 4.97706 17.6149 5.00444 17.6162V17.6046L4.84939 17.5799V17.5908C4.88123 17.5983 4.89555 17.6015 4.89555 17.6302V17.6775C4.89555 17.6969 4.88791 17.7094 4.8478 17.7031C4.78253 17.6922 4.76597 17.6227 4.76151 17.5771Z" fill="#B02C1B"/>
<path fill-rule="evenodd" clip-rule="evenodd" d="M5.18144 17.5317L5.16966 17.5301C5.16615 17.5536 5.15979 17.5689 5.15055 17.5776V17.577C5.13813 17.5886 5.12094 17.5895 5.09547 17.5851V17.4807C5.09547 17.4613 5.10407 17.4603 5.12922 17.4647C5.19003 17.4747 5.22155 17.491 5.23238 17.5561L5.24384 17.5579V17.4678L4.9834 17.4259V17.4372C5.00378 17.4422 5.02288 17.4459 5.02288 17.4756V17.6934C5.02288 17.7222 5.00887 17.7209 4.9834 17.7197V17.7309L5.24639 17.7732L5.26517 17.6818L5.25275 17.6799C5.2241 17.7438 5.17857 17.7478 5.13368 17.741C5.10407 17.7366 5.09547 17.7294 5.09547 17.7097V17.6008C5.14068 17.6077 5.16297 17.6249 5.16966 17.6818L5.18144 17.6843" fill="#B02C1B"/>
<path fill-rule="evenodd" clip-rule="evenodd" d="M5.37477 17.5416C5.37477 17.5019 5.3891 17.5038 5.4203 17.5069V17.496L5.2627 17.4713V17.4822C5.28307 17.4863 5.30122 17.4906 5.30122 17.5204V17.7387C5.30122 17.7663 5.28817 17.7653 5.2627 17.7641V17.7757L5.46455 17.8013L5.48175 17.7015L5.46965 17.699C5.44863 17.7466 5.45914 17.7653 5.42284 17.7763C5.39323 17.7844 5.37477 17.7763 5.37477 17.7544" fill="#B02C1B"/>
<path fill-rule="evenodd" clip-rule="evenodd" d="M5.61599 17.8139V17.8133C5.5918 17.8076 5.57365 17.8033 5.57365 17.7751V17.5611C5.57365 17.5311 5.59434 17.5342 5.61599 17.537V17.5254L5.46094 17.5007V17.5117C5.48163 17.5164 5.50233 17.5204 5.50233 17.5499V17.7642C5.50233 17.7911 5.49278 17.7898 5.46794 17.7879L5.46571 17.7995L5.61599 17.8239" fill="#B02C1B"/>
<path fill-rule="evenodd" clip-rule="evenodd" d="M4.34989 17.2883V17.2767C4.33716 17.2783 4.32984 17.2789 4.30628 17.2464L4.22413 17.1353C4.29545 17.0214 4.30405 17.007 4.3448 16.9958V16.9842L4.23305 17.0067V17.0186C4.25183 17.0152 4.2652 17.0133 4.2652 17.0271C4.2652 17.0396 4.2652 17.0396 4.21362 17.1209L4.17001 17.0618C4.16491 17.0552 4.16236 17.053 4.16236 17.0471C4.16236 17.0339 4.1716 17.0321 4.19866 17.0249V17.0133L4.04297 17.0449V17.0555C4.06175 17.053 4.07003 17.0627 4.07863 17.0749L4.1681 17.1882L4.08913 17.3033C4.07226 17.3274 4.06494 17.3308 4.04934 17.3355V17.3474L4.15472 17.3274V17.3155C4.13912 17.3177 4.11843 17.3199 4.11843 17.3039C4.11843 17.3014 4.11906 17.298 4.12097 17.2933C4.12511 17.283 4.1353 17.2655 4.16077 17.2267L4.17797 17.2001L4.22349 17.2645C4.22795 17.2705 4.23305 17.2811 4.23305 17.2858C4.23305 17.2886 4.23241 17.2911 4.23018 17.2933C4.22572 17.2999 4.21458 17.303 4.19675 17.3074V17.3186" fill="#B02C1B"/>
<path fill-rule="evenodd" clip-rule="evenodd" d="M5.49876 17.1332C5.49876 17.1113 5.50163 17.1012 5.53442 17.1031V17.0915L5.437 17.0753V17.0865C5.47361 17.0953 5.47934 17.1113 5.47934 17.1382V17.2746L5.32174 17.0556L5.22654 17.0396V17.0509C5.23259 17.0518 5.23928 17.0546 5.26443 17.09V17.3034C5.26443 17.3331 5.25265 17.334 5.22559 17.3328V17.344L5.32747 17.3609V17.35C5.29404 17.3409 5.28449 17.3303 5.28449 17.298V17.1178L5.48635 17.3966L5.49876 17.3988" fill="#B02C1B"/>
<path fill-rule="evenodd" clip-rule="evenodd" d="M3.63782 17.2767V17.1566C3.63814 17.1466 3.64419 17.139 3.65947 17.1356C3.69609 17.1287 3.71265 17.1425 3.71265 17.1941C3.71265 17.2498 3.69227 17.2673 3.63782 17.2767ZM3.67221 17.1178L3.52734 17.1466V17.1578C3.5509 17.1556 3.56555 17.1541 3.56555 17.1916V17.3909C3.56555 17.4162 3.55791 17.4234 3.55313 17.4284C3.55059 17.4316 3.54931 17.4322 3.52734 17.44V17.4513L3.6773 17.4216V17.41C3.6461 17.4119 3.63782 17.4134 3.63782 17.3765V17.2923C3.69768 17.2805 3.72061 17.2751 3.74894 17.2526C3.78524 17.226 3.79001 17.1932 3.79001 17.1772C3.79001 17.1012 3.70819 17.1103 3.67221 17.1178Z" fill="#B02C1B"/>
<path fill-rule="evenodd" clip-rule="evenodd" d="M3.8224 17.2851L3.86475 17.1669L3.90996 17.2673L3.8224 17.2851ZM4.00388 17.2936C4.00133 17.2895 3.89786 17.0655 3.89786 17.0655L3.88544 17.0674L3.78579 17.3342C3.77178 17.3712 3.76541 17.3877 3.74121 17.3962V17.4071L3.83259 17.3887V17.378C3.81731 17.3802 3.79597 17.3834 3.79597 17.3662C3.79597 17.3586 3.8033 17.3389 3.81603 17.3036L3.91728 17.2832C3.91823 17.2857 3.91951 17.2892 3.92206 17.2936C3.92906 17.3076 3.93734 17.3295 3.93734 17.3396C3.93734 17.3543 3.93001 17.3561 3.90168 17.3646V17.3755L4.04782 17.3458V17.3352C4.0284 17.3396 4.02044 17.3289 4.00388 17.2936Z" fill="#B02C1B"/>
<path fill-rule="evenodd" clip-rule="evenodd" d="M5.00217 17.0001L4.90538 16.9841V16.9951C4.93085 17.001 4.94423 17.0048 4.94423 17.0223C4.94423 17.0314 4.93945 17.0426 4.93531 17.0517L4.878 17.1909L4.81878 17.0382C4.81496 17.0257 4.80541 17.0057 4.80541 16.9973C4.80541 16.98 4.8156 16.9816 4.84394 16.9851V16.9735L4.69238 16.9475V16.9591C4.7118 16.9653 4.71913 16.9682 4.73027 16.9973L4.84616 17.2867L4.85826 17.2885L4.96142 17.0417C4.97065 17.0185 4.97734 17.0104 5.00217 17.0113" fill="#B02C1B"/>
<path fill-rule="evenodd" clip-rule="evenodd" d="M5.00077 17.2012L5.0428 17.0989L5.08769 17.2163L5.00077 17.2012ZM5.18798 17.2932C5.1848 17.2851 5.18002 17.2751 5.17588 17.2635L5.07591 17.0091L5.06349 17.0073L4.9632 17.2375C4.94951 17.2688 4.94314 17.2829 4.91895 17.2829V17.2938L5.01064 17.3092V17.2979C5.00459 17.2967 4.99822 17.2954 4.99186 17.2932C4.98167 17.2888 4.97339 17.2829 4.97339 17.2726C4.97339 17.2654 4.98103 17.2482 4.99313 17.2178L5.09533 17.2344C5.10043 17.2485 5.11189 17.2782 5.11444 17.2932C5.11571 17.2954 5.11571 17.2967 5.11571 17.2982C5.11571 17.3129 5.10743 17.3126 5.07973 17.3098V17.3211L5.22555 17.3458V17.3342C5.20836 17.3326 5.20072 17.322 5.18798 17.2932Z" fill="#B02C1B"/>
<path fill-rule="evenodd" clip-rule="evenodd" d="M10.8667 18.2658C10.8591 18.2824 10.8435 18.3052 10.8228 18.333C10.7757 18.3944 10.6986 18.4795 10.6142 18.5692C10.5394 18.6487 10.1589 19.0266 10.1551 19.0266H9.94499C9.85361 19.0864 9.85361 18.9872 9.5279 19.0373C9.5174 19.0373 9.36903 19.0736 9.3633 19.0708C9.31554 18.9835 9.33592 18.8824 9.38941 18.8051V18.8058C9.4413 18.7319 9.52313 18.6809 9.60495 18.6859C9.70302 18.6909 9.7858 18.746 9.85361 18.8051V18.8058C9.89373 18.8405 9.92844 18.8771 9.95645 18.9056C9.9832 18.8787 10.0141 18.8449 10.0472 18.8058C10.1055 18.7369 10.1704 18.654 10.2331 18.5689V18.5692C10.292 18.4888 10.3487 18.4066 10.3942 18.333C10.3987 18.3258 10.4032 18.3193 10.4073 18.3124C10.4191 18.3011 10.4191 18.2786 10.4296 18.2576C10.4407 18.2354 10.4407 18.1913 10.4407 18.18C10.4407 18.1603 10.4315 18.0946 10.4133 18.049C10.4114 18.0455 10.4095 18.0414 10.4073 18.0377C10.3958 18.0039 10.3627 17.9495 10.3302 17.9163C10.3073 17.8825 9.79121 17.1739 9.74759 17.1141C9.79217 17.0813 10.0717 17.0447 10.115 17.0603C10.3462 17.146 10.4356 17.233 10.4996 17.2925V17.2928C10.5245 17.3144 10.5452 17.3334 10.5681 17.346C10.5703 17.3488 10.612 17.4458 10.663 17.5765C10.6907 17.6485 10.7215 17.7308 10.7515 17.8134C10.7811 17.8953 10.8094 17.9773 10.8301 18.049C10.8626 18.1556 10.8791 18.2395 10.8667 18.2658ZM9.26778 18.5692C9.2006 18.6309 9.15316 18.7125 9.12674 18.8058C9.08917 18.9387 9.09872 19.0964 9.1659 19.2572H7.00022C7.01169 19.2466 7.03365 19.2128 7.05531 19.2128C7.46602 19.2275 7.70163 19.0611 7.72742 18.8051V18.8058C7.73029 18.7714 7.73029 18.7347 7.72551 18.6963C7.72551 18.6906 7.79142 18.6143 7.83408 18.5689V18.5692C7.85255 18.5492 7.86688 18.5355 7.86847 18.5361C7.86847 18.5361 7.85318 18.4547 7.83727 18.333C7.82612 18.252 7.81561 18.1535 7.80893 18.049C7.80638 18.018 7.80511 17.9858 7.8032 17.9535C7.80161 17.9057 7.80161 17.8584 7.80256 17.8127V17.8134C7.80511 17.7192 7.81307 17.636 7.82071 17.5772V17.5765C7.82771 17.5221 7.83472 17.4886 7.83599 17.4877C8.36865 17.5187 8.58325 17.4217 8.68227 17.4107C8.80262 17.3907 9.00352 17.3422 9.18691 17.2928C9.30631 17.2605 9.41742 17.2283 9.49511 17.202C9.51549 17.2318 10.0889 18.0127 10.1137 18.0499V18.049C10.1325 18.079 10.1513 18.1062 10.1656 18.125C10.1768 18.1362 10.1873 18.1581 10.1873 18.18C10.1873 18.1913 10.1768 18.2132 10.1656 18.2238C10.144 18.2595 9.97842 18.4879 9.9348 18.543C9.85744 18.5098 9.81063 18.446 9.60495 18.4438C9.469 18.4425 9.35343 18.4895 9.26778 18.5692ZM6.15777 18.8058C6.14822 18.8455 6.14312 18.8859 6.14312 18.9275C6.14312 19.0266 6.18674 19.1699 6.26379 19.2572H6.09919V17.4217C6.18579 17.4004 6.34626 17.3469 6.44591 17.2928C6.4475 17.2918 6.44941 17.2912 6.45069 17.29V17.2928C6.45323 17.3979 6.41757 17.4983 6.37841 17.5765C6.3332 17.6685 6.28353 17.7298 6.28544 17.7292C6.48635 17.8243 6.7452 17.7833 6.91267 17.7189C6.91171 17.7201 6.91267 18.3124 6.91267 18.3124C6.91235 18.3133 6.91108 18.3215 6.90694 18.333C6.89197 18.3756 6.8388 18.4657 6.63822 18.4219C6.49844 18.4219 6.3765 18.4795 6.28895 18.5696V18.5692C6.22622 18.6346 6.18069 18.7166 6.15777 18.8058ZM5.8467 19.0373L4.60436 18.7958L3.26426 19.0708V16.8613C3.49446 16.8063 4.15416 16.6858 4.59353 16.6089L5.8467 16.8394V19.0373ZM3.60494 19.2572C3.60494 19.2572 4.51712 19.0708 4.60436 19.0595L5.6267 19.2572H3.60494ZM4.18026 16.184C4.22961 16.1036 4.2796 16.0911 4.37352 16.0923C4.38562 16.0923 4.4614 16.1033 4.50566 16.1249C4.57188 15.9709 4.64829 15.9052 4.78011 15.9052C4.96955 15.9231 5.18159 16.057 5.29175 16.1777C5.38027 16.2766 5.45063 16.4214 5.4952 16.5209L4.58302 16.3561L4.23025 16.4111C4.23598 16.4077 4.12391 16.3079 4.18026 16.184ZM5.76997 15.1472C5.96737 15.0261 6.05525 14.9053 6.09919 14.9053C6.15459 14.9053 6.17655 14.982 6.17655 15.0042C6.17655 15.1472 5.94509 15.1578 5.91261 15.1578C5.89096 15.1578 5.81327 15.1472 5.76997 15.1472ZM5.51654 14.4873C5.53373 14.4363 5.64899 14.3006 5.72604 14.2126C5.74769 14.2126 5.83875 14.2202 5.85753 14.3118C5.85753 14.3228 5.8467 14.3553 5.83556 14.3778C5.86358 14.4295 5.98934 14.4216 6.00049 14.4216C6.06639 14.4216 6.16509 14.2126 6.16509 14.1688C6.16509 14.1357 6.08868 14.1247 6.07817 14.1247C6.06639 14.1247 6.05525 14.1357 6.03392 14.1357C5.94509 14.1357 5.8467 14.1247 5.8467 13.993C5.8467 13.6742 6.38191 13.6157 6.49462 13.6414L7.04416 13.2675C7.07727 13.4765 6.9461 13.7399 6.71495 13.8388L6.76939 14.1688C6.69935 14.1929 6.62293 14.227 6.58345 14.2899C6.56562 14.3159 6.50704 14.3675 6.51627 14.5537C6.51627 14.5753 6.60542 14.8162 6.61593 15.0699C6.61593 15.4215 6.19343 15.5038 5.98489 15.5038C5.97406 15.5038 5.78016 15.4916 5.69261 15.3887C5.69388 15.3903 5.87791 15.4253 5.92375 15.4215C6.18515 15.4025 6.42904 15.2901 6.42904 15.0042C6.42904 14.8171 6.28544 14.6525 6.09919 14.6525C5.89096 14.6525 5.63243 14.991 5.5713 14.8925C5.54105 14.8255 5.72604 14.6732 5.72604 14.6744C5.72604 14.6732 5.48661 14.5771 5.51654 14.4873ZM6.39529 13.2343C6.45069 13.2127 6.57136 13.1599 6.72514 13.1686C6.57677 13.291 6.43859 13.3792 6.43636 13.377C6.43636 13.377 6.31282 13.372 6.20967 13.3995C6.24246 13.3332 6.33002 13.2565 6.39529 13.2343ZM7.96812 13.8388C7.96812 13.85 7.8777 14.2787 7.85764 14.3994C7.7981 14.7608 7.75894 14.9604 7.5176 15.2241C7.64878 15.2567 7.93119 15.3483 7.97831 15.5752C7.99423 15.6527 7.985 15.721 7.96112 15.7804C7.85509 16.0348 7.45775 16.1317 7.46316 16.1358C7.46316 16.1308 7.39598 16.2681 7.36287 16.3338C7.3998 16.3523 7.52907 16.403 7.58287 16.5369C7.59338 16.5644 7.60166 16.5957 7.60452 16.6304C7.60452 16.8285 7.40681 16.8832 7.20972 16.8942C7.1868 16.9915 7.13044 17.1573 7.03939 17.2928C6.95469 17.4167 6.84039 17.5152 6.69298 17.5096L6.66019 17.4989C6.68215 17.462 6.69871 17.3754 6.70826 17.2928C6.71208 17.2518 6.71495 17.2127 6.71495 17.1805C6.71495 17.0703 6.69298 16.9489 6.66019 16.8285C6.52805 16.9777 6.26379 17.0972 6.11001 17.1188L6.10969 16.6414C5.95655 16.5866 5.81327 16.5866 5.64899 16.5425C5.64994 16.5416 5.65185 16.5397 5.65472 16.5369C5.68337 16.51 5.79131 16.4099 5.79131 16.3999C5.79131 16.3783 5.73654 16.301 5.71426 16.2456C5.69261 16.2021 5.60855 16.108 5.60855 16.0973C5.60823 16.0992 5.80914 15.741 5.80945 15.7404C6.44209 15.8111 6.89229 15.5639 6.86809 15.0808C6.85759 14.8512 6.77703 14.6047 6.77608 14.6018C6.7366 14.4295 6.9063 14.3872 7.05531 14.3994L7.00022 13.9711C7.19826 13.784 7.26321 13.6423 7.29505 13.3063C7.78346 13.5222 7.96812 13.8281 7.96812 13.8388ZM11.0998 14.5315C11.0775 14.5862 10.988 14.6685 10.9202 14.7082C10.8613 14.7433 10.6926 14.8127 10.5283 14.8284H9.60495C9.68169 14.7185 9.70525 14.6926 9.74759 14.5315H11.0998ZM11.1071 18.049C11.0816 17.9742 10.9358 17.6397 10.9049 17.5772V17.5765C10.8747 17.5133 10.854 17.472 10.854 17.4705L11.1326 17.5862V17.3228C11.1125 17.3134 11.0695 17.2928 11.0695 17.2928C10.839 17.1798 10.5652 17.0049 10.3745 16.8942C10.3194 16.8613 10.2516 16.8119 10.0154 16.8175C9.70334 16.8416 8.93984 17.1038 8.62687 17.1586C8.33491 17.2083 8.09643 17.2246 8.07415 17.2246C7.90508 17.2318 7.64878 17.202 7.64878 17.202C7.64528 17.2161 7.57746 17.467 7.56664 17.5765C7.56281 17.6125 7.55358 17.7683 7.55231 17.8134C7.5504 17.8897 7.55135 17.9714 7.55581 18.049C7.56122 18.156 7.57014 18.2576 7.5781 18.3333V18.333C7.58669 18.4138 7.59338 18.4657 7.59338 18.4657C7.59338 18.4738 7.47271 18.5927 7.47271 18.598C7.47271 18.6794 7.45998 18.7488 7.43387 18.8058C7.38675 18.9115 7.2976 18.9716 7.17661 18.9716C7.07727 18.9716 7.00022 18.9275 6.96743 18.9275C6.92413 18.9275 6.80282 19.1587 6.62707 19.1587C6.48412 19.1587 6.4077 19.0595 6.4077 18.9275C6.4077 18.8796 6.41598 18.8392 6.43349 18.8058C6.47361 18.7244 6.5583 18.6859 6.66019 18.6859H6.76939C6.88879 18.6859 6.99799 18.6465 7.06868 18.5692C7.12217 18.5117 7.15401 18.4335 7.15401 18.334V17.5537C7.24443 17.458 7.29632 17.3729 7.33549 17.2928C7.36287 17.2355 7.38356 17.1805 7.40681 17.1251C7.70418 17.0919 7.8863 16.8954 7.87388 16.6367C7.87197 16.6001 7.86751 16.5666 7.86178 16.5372V16.5369C7.82517 16.3576 7.7392 16.3016 7.7392 16.3016C7.87388 16.2681 8.17985 16.0836 8.25626 15.7804C8.27823 15.6887 8.28078 15.5855 8.25021 15.4729C8.16202 15.1434 7.91559 15.1021 7.9124 15.1031C7.91559 15.1074 8.063 14.8077 8.0993 14.4873C8.1391 14.146 8.33236 13.4746 8.90768 13.4061L11.0896 13.407C11.0234 13.5165 10.9514 13.7646 10.7155 13.729C10.7114 13.7287 8.92806 13.7287 8.92806 13.7287C8.8335 13.7321 8.62177 13.8194 8.62687 13.9267C8.62878 13.9602 8.69214 13.9821 8.71538 13.9821L10.321 13.9789C10.214 14.1322 10.1096 14.2208 9.97842 14.279H8.71538C8.68227 14.279 8.42915 14.3663 8.42915 14.4764C8.42915 14.5099 8.4734 14.5315 8.50588 14.5315H9.4846C9.4846 14.5315 9.38654 14.7867 9.21143 14.8193H8.48518C8.4196 14.8318 8.30243 14.9232 8.26454 15.0261C8.2604 15.073 8.30816 15.0808 8.34095 15.0808H9.4846C9.50339 15.2523 9.4257 15.4281 9.2318 15.4215C9.06752 15.4046 8.98919 15.2567 8.97869 15.2132C8.90227 15.2457 8.80294 15.2786 8.73671 15.2901C8.76505 15.4932 8.95449 15.6362 9.14361 15.6631C9.41074 15.7016 9.62851 15.506 9.63074 15.5026C10.1905 15.5323 11.1326 15.6196 11.1326 15.6196V15.3662C11.1326 15.3662 10.5292 15.3039 9.73708 15.2567C9.73517 15.2557 9.77465 15.1384 9.75905 15.0808H10.583C10.7502 15.073 10.946 15.0048 11.1326 14.8725V14.279H10.4407C10.4955 14.1795 10.5614 14.0809 10.583 13.9821H11.1326V13.1574H8.96754C8.66062 13.143 8.47563 13.2531 8.32949 13.3554C8.25276 13.4098 8.08847 13.5982 8.08847 13.5976C7.75894 13.2343 7.33007 13.0147 7.02283 12.9493C6.90152 12.9271 6.68502 12.8917 6.47297 12.9377C6.29882 12.9762 6.12211 13.0954 5.98934 13.2675C5.88173 13.407 5.87791 13.4978 5.87886 13.4984C5.63721 13.6329 5.63466 13.8698 5.41784 14.202C5.28475 14.3775 5.25673 14.3572 5.22044 14.4545C5.16376 14.6047 5.36339 14.7079 5.36244 14.7073C5.36339 14.7104 5.33124 14.7445 5.32996 14.773C5.29749 14.8825 5.32996 14.971 5.34111 14.9932C5.37358 15.0921 5.4726 15.1472 5.54997 15.18C5.50603 15.2019 5.46782 15.2482 5.45063 15.2901C5.41051 15.3903 5.44044 15.4547 5.45063 15.4869C5.46146 15.531 5.4952 15.5752 5.54997 15.6196C5.52609 15.6734 5.42484 15.8727 5.40446 15.9231C5.35289 15.8714 5.28825 15.8229 5.2112 15.7804C5.09276 15.7144 4.94694 15.6643 4.78265 15.6437C4.58398 15.6402 4.4805 15.7153 4.42797 15.7804C4.38913 15.8295 4.37862 15.873 4.37862 15.873C4.37862 15.8799 4.04941 15.7985 3.90008 16.1036C3.81889 16.2681 3.95644 16.4653 3.94529 16.4653L3 16.6527V19.5078L11.1326 19.506V19.2572C11.1326 19.2572 10.2981 19.2716 10.2768 19.261C10.3879 19.1336 10.9027 18.6453 10.9705 18.5689V18.5692C11.046 18.4829 11.1055 18.4031 11.1361 18.333C11.1431 18.3161 11.1491 18.3002 11.1523 18.2849C11.1631 18.2395 11.1424 18.1509 11.1071 18.049Z" fill="#B02C1B"/>
<path fill-rule="evenodd" clip-rule="evenodd" d="M23.0392 15.0469L22.6014 13.8408L22.1984 15.0469H23.0392ZM22.0083 15.6407C21.9905 15.7105 21.9841 15.7796 22.035 15.8372C22.0898 15.8994 22.1481 15.9119 22.228 15.9185C22.2735 15.9223 22.3012 15.9213 22.3012 15.9213V16.0427H21.4775V15.9213H21.567C21.6794 15.9169 21.744 15.8065 21.7857 15.7177C21.8399 15.605 21.8749 15.483 21.9176 15.366C22.177 14.637 22.4298 13.9049 22.6833 13.1735H22.8377L23.8801 15.9047H24.1679V16.0427H23.0695V15.9047H23.3914L23.0991 15.1723H22.1637C22.1548 15.1986 22.1481 15.218 22.136 15.2549C22.121 15.2984 22.1032 15.345 22.0869 15.3942C22.0869 15.3942 22.021 15.5897 22.0083 15.6407Z" fill="#B02C1B"/>
<path fill-rule="evenodd" clip-rule="evenodd" d="M21.4626 18.4295V19.4842H19.3555V19.3478H19.7458V16.7507H19.3768V16.6165H21.432V17.6246H21.3505C21.3409 17.5679 21.3327 17.5144 21.3241 17.4644C21.2874 17.2441 21.2161 16.9813 21.0069 16.8524C20.921 16.8024 20.7908 16.7576 20.6545 16.7504C20.5924 16.7467 20.2444 16.7451 20.1951 16.7451L20.1954 17.9362H20.3418C20.4106 17.9362 20.4765 17.9277 20.5357 17.898C20.6013 17.8636 20.65 17.8176 20.6637 17.8016C20.6819 17.78 20.694 17.7685 20.7131 17.7362C20.7322 17.7037 20.7354 17.6965 20.7443 17.6759C20.7576 17.6427 20.7602 17.6349 20.771 17.5989C20.7812 17.5623 20.7806 17.5585 20.7885 17.5191C20.7952 17.4806 20.8095 17.384 20.8095 17.384H20.9038V18.6867H20.8003C20.7981 18.6582 20.7857 18.5569 20.779 18.535C20.7494 18.3857 20.6847 18.1865 20.5265 18.1211C20.4752 18.1017 20.417 18.0926 20.3549 18.0926H20.1954V19.3478H20.4619C20.6195 19.3478 20.742 19.339 20.8309 19.319C20.9372 19.2962 21.0213 19.2539 21.0846 19.1926C21.1499 19.1275 21.2063 19.0337 21.2518 18.9098C21.2916 18.8006 21.3139 18.6842 21.3304 18.57C21.3384 18.524 21.3444 18.4768 21.3505 18.4295" fill="#B02C1B"/>
<path fill-rule="evenodd" clip-rule="evenodd" d="M21.4626 18.4295V19.4842H19.3555V19.3478H19.7458V16.7507H19.3768V16.6165H21.432V17.6246H21.3505C21.3409 17.5679 21.3327 17.5144 21.3241 17.4644C21.2874 17.2441 21.2161 16.9813 21.0069 16.8524C20.921 16.8024 20.7908 16.7576 20.6545 16.7504C20.5924 16.7467 20.2444 16.7451 20.1951 16.7451L20.1954 17.9362H20.3418C20.4106 17.9362 20.4765 17.9277 20.5357 17.898C20.6889 17.8182 20.7599 17.6793 20.7904 17.5191C20.7974 17.4806 20.8095 17.384 20.8095 17.384H20.9038V18.6867H20.8003C20.7981 18.6582 20.7857 18.5569 20.779 18.535C20.7494 18.3857 20.6847 18.1865 20.5265 18.1211C20.4752 18.1017 20.417 18.0926 20.3549 18.0926H20.1954V19.3478H20.4619C20.6195 19.3478 20.742 19.339 20.8309 19.319C20.9372 19.2962 21.0213 19.2539 21.0846 19.1926C21.2467 19.0312 21.2986 18.7853 21.3304 18.57C21.3384 18.524 21.3444 18.4768 21.3505 18.4295" fill="#B02C1B"/>
<path fill-rule="evenodd" clip-rule="evenodd" d="M16.5638 18.4295V19.4842H14.457V19.3478H14.8474V16.7507H14.4787V16.6165H16.5336V17.6246H16.4517C16.4428 17.5679 16.4349 17.5144 16.4263 17.4644C16.3893 17.2441 16.3177 16.9813 16.1082 16.8524C16.0229 16.8024 15.8926 16.7576 15.7561 16.7504C15.6943 16.7467 15.346 16.7451 15.2969 16.7451L15.2982 17.9362H15.4437C15.5122 17.9362 15.5794 17.9277 15.637 17.898C15.7898 17.8182 15.8624 17.6793 15.8914 17.5191C15.8996 17.4806 15.9111 17.384 15.9111 17.384H16.0063V18.6867H15.9025C15.9 18.6582 15.8863 18.5569 15.8809 18.535C15.8509 18.3857 15.786 18.1865 15.6281 18.1211C15.5771 18.1017 15.5195 18.0926 15.4561 18.0926H15.2982V19.3478H15.5634C15.721 19.3478 15.8439 19.339 15.9328 19.319C16.0381 19.2962 16.1235 19.2539 16.1862 19.1926C16.3483 19.0312 16.4005 18.7853 16.4329 18.57C16.44 18.524 16.4463 18.4768 16.4517 18.4295" fill="#B02C1B"/>
<path fill-rule="evenodd" clip-rule="evenodd" d="M25.38 18.4883L24.9419 17.2829L24.5382 18.4883H25.38ZM24.3497 19.0822C24.3313 19.1525 24.3252 19.2211 24.3762 19.2789C24.4306 19.3415 24.4882 19.354 24.5681 19.3603C24.6137 19.3634 24.6417 19.3625 24.6417 19.3625V19.4839H23.8174V19.3625H23.9072C24.0196 19.3587 24.0836 19.2477 24.1265 19.1594C24.1803 19.0465 24.216 18.9248 24.258 18.8068C24.5175 18.0779 24.7703 17.3458 25.0241 16.6149H25.1782L26.2209 19.3462H26.509V19.4839H25.4096V19.3462H25.7312L25.4396 18.6138H24.5038C24.4949 18.6404 24.4882 18.6598 24.4764 18.6967C24.4618 18.7399 24.4443 18.7862 24.4274 18.8356C24.4274 18.8356 24.3615 19.0312 24.3497 19.0822Z" fill="#B02C1B"/>
<path fill-rule="evenodd" clip-rule="evenodd" d="M26.4534 19.3463V16.7558H26.0605V16.6156H27.3605V16.7558H26.939V19.3463H27.186C27.186 19.3463 27.4245 19.3472 27.4379 19.3463C27.6194 19.3316 27.7314 19.0794 27.7754 18.9355C27.8187 18.7875 27.8349 18.6226 27.8457 18.4687H27.9238V19.4839H26.0605V19.3463H26.4579" fill="#B02C1B"/>
<path fill-rule="evenodd" clip-rule="evenodd" d="M28.0052 19.4839V19.3478H28.1578L28.1539 16.7558H27.7891V16.6153H28.9954V16.7558H28.6095V19.3478H28.9999V19.4839" fill="#B02C1B"/>
<path fill-rule="evenodd" clip-rule="evenodd" d="M13.4296 17.9831V18.1105H13.8199V19.03C13.7534 19.2656 13.4038 19.3622 13.2993 19.3622C12.5712 19.3622 12.6237 18.3151 12.6237 18.0338C12.6237 17.7785 12.5973 16.7057 13.2993 16.7057C13.7938 16.7057 14.0533 17.191 14.1577 17.6252H14.2354C14.2354 17.4463 14.2392 16.5944 14.2376 16.5959C14.2392 16.5887 13.8995 16.8368 13.8979 16.8337C13.9049 16.8312 13.7416 16.6037 13.2993 16.6037C12.4422 16.6037 12.1264 17.4463 12.1299 18.0338C12.1337 18.5726 12.3662 19.4545 13.2993 19.4902C13.5789 19.5002 13.7887 19.3453 13.8979 19.1833C13.8995 19.1792 14.2609 19.4883 14.2609 19.4902V18.1105H14.6258V17.9831" fill="#B02C1B"/>
<path fill-rule="evenodd" clip-rule="evenodd" d="M23.4329 17.3399C23.4329 17.2113 23.4202 16.7939 23.0674 16.7417H22.4513V17.9371H22.94C23.3062 17.9371 23.4329 17.6493 23.4329 17.3399ZM24.1158 19.3935C24.0582 19.4545 23.8669 19.4833 23.8669 19.4833L23.807 19.4839C22.9088 19.4839 23.8124 18.1693 22.9569 18.0992L22.4513 18.0942V19.3475L22.8362 19.3478L22.8372 19.4839H21.6289L21.6299 19.3475H22.0202V16.7417H21.6299V16.6153H23.0932C23.6023 16.6341 23.9089 16.803 23.9067 17.2842C23.9028 17.9018 23.2498 18.0351 23.2498 18.036C23.2435 18.0413 23.5017 18.0529 23.6542 18.2034C23.7901 18.3376 23.7994 18.6289 23.7994 18.7578V19.2477C23.7994 19.2737 23.7917 19.3682 23.9277 19.3625C23.9277 19.3625 23.977 19.3613 23.9923 19.3582C24.0076 19.3556 24.0518 19.3366 24.0518 19.3366" fill="#B02C1B"/>
<path fill-rule="evenodd" clip-rule="evenodd" d="M18.4247 16.6165V16.7507C18.7396 16.7451 18.866 16.8759 18.866 17.057L18.865 18.6279L17.4775 16.6165H16.6621V16.7507C16.9725 16.7507 17.2164 16.8393 17.2164 17.0379C17.2164 17.159 17.2145 19.0969 17.2145 19.0969C17.2075 19.3006 16.7646 19.3813 16.7681 19.3813V19.4845H17.7927V19.3813C17.6622 19.3813 17.3457 19.3037 17.3457 19.0969L17.3482 17.2379L18.9424 19.4842L19.0032 19.4845V16.9785C19.0172 16.7623 19.2764 16.7507 19.3821 16.7507V16.6165" fill="#B02C1B"/>
<path fill-rule="evenodd" clip-rule="evenodd" d="M15.004 15.0469L15.4077 13.8408L15.8458 15.0469H15.004ZM18.5722 13.1744V13.308C18.8868 13.3033 19.0125 13.4334 19.0125 13.6143L19.0113 15.1848L17.6247 13.1744H16.8096V13.308C17.1197 13.308 17.3633 13.3968 17.3633 13.5955C17.3633 13.7163 17.3614 15.6545 17.3614 15.6545C17.3569 15.7649 17.2264 15.839 17.1067 15.8841C17.0388 15.9063 16.9739 15.9047 16.9739 15.9047H16.687L15.6437 13.1735H15.4889C15.2361 13.9049 14.9837 14.6367 14.7242 15.366C14.6809 15.483 14.6462 15.605 14.5924 15.7177C14.55 15.8065 14.4851 15.9169 14.3736 15.9213H14.2832V16.0427H15.1072V15.9213C15.1072 15.9213 15.0795 15.922 15.034 15.9185C14.9537 15.9119 14.8964 15.8994 14.8413 15.8375C14.7907 15.7796 14.7974 15.7105 14.8143 15.6407C14.8276 15.5897 14.8932 15.3942 14.8932 15.3942C14.9095 15.345 14.9279 15.2984 14.9419 15.2549C14.9537 15.218 14.9601 15.1986 14.9693 15.1723H15.9057L16.1964 15.9047H15.8755V16.0427H16.9739L16.9749 16.0424H17.9399V15.9388C17.8093 15.9388 17.4932 15.8613 17.4932 15.6545L17.4954 13.7951L19.0893 16.0415L19.1501 16.0424V13.5358C19.1644 13.3202 19.4236 13.308 19.529 13.308V13.1744" fill="#B02C1B"/>
<path fill-rule="evenodd" clip-rule="evenodd" d="M13.6871 15.8619C13.7524 15.8263 13.8036 15.7809 13.8425 15.7243C13.881 15.6677 13.9093 15.6035 13.9265 15.5297C13.9444 15.4565 13.952 15.3801 13.952 15.3013C13.952 15.2706 13.9498 15.2221 13.9459 15.1555C13.9412 15.0892 13.9278 15.0216 13.903 14.9525C13.8784 14.8836 13.8418 14.8204 13.7925 14.7647C13.7444 14.7081 13.6753 14.6743 13.5855 14.6624H12.9828V15.9148H13.4518C13.5435 15.9148 13.6225 15.8973 13.6871 15.8619ZM12.9752 14.531H13.4483C13.54 14.531 13.6183 14.5135 13.6804 14.4785C13.7444 14.4431 13.796 14.3956 13.8361 14.3364C13.8762 14.277 13.9058 14.21 13.924 14.1353C13.9434 14.0605 13.952 13.9835 13.952 13.9044C13.952 13.8731 13.9498 13.828 13.9459 13.7667C13.9412 13.706 13.9278 13.6441 13.903 13.5809C13.8784 13.5171 13.8418 13.4589 13.7925 13.4066C13.7444 13.3547 13.6753 13.3218 13.5859 13.3074H12.9841L12.9752 14.531ZM13.8138 14.6114C13.845 14.6146 13.8855 14.623 13.9338 14.6371C13.9829 14.6509 14.0354 14.6715 14.0915 14.6984C14.1475 14.725 14.1994 14.7635 14.2487 14.8129C14.2968 14.862 14.3382 14.9234 14.3742 14.9969C14.4086 15.0704 14.4258 15.1618 14.4258 15.2719C14.4226 15.393 14.4028 15.4975 14.3672 15.586C14.3315 15.6727 14.2863 15.7456 14.2338 15.8031C14.1803 15.8613 14.123 15.9073 14.0612 15.9411C13.9991 15.9752 13.9424 16.0009 13.8893 16.0193C13.8364 16.0375 13.7753 16.0512 13.7059 16.0597L12.1436 16.0544V15.9104L12.5307 15.9148V13.3124H12.1436V13.1807H13.612C13.7374 13.1839 13.8511 13.1979 13.9536 13.2233C14.0552 13.2486 14.1418 13.2874 14.2121 13.34C14.2822 13.3922 14.3357 13.4595 14.371 13.543C14.4073 13.6259 14.4258 13.7285 14.4258 13.8499C14.4258 14.0051 14.3907 14.1321 14.3216 14.2307C14.2522 14.3296 14.1771 14.4065 14.0959 14.4616C14.0134 14.5166 13.9036 14.5636 13.7664 14.6036C13.7664 14.6058 13.782 14.6089 13.8138 14.6114Z" fill="#B02C1B"/>
<path fill-rule="evenodd" clip-rule="evenodd" d="M21.5601 15.1185C21.5395 15.2743 21.5003 15.4089 21.4417 15.5231C21.3825 15.6369 21.3108 15.7327 21.2262 15.809C21.1411 15.8847 21.0463 15.9429 20.9399 15.9827C20.8339 16.0224 20.7225 16.0437 20.6078 16.0462C20.4531 16.049 20.3153 16.0283 20.1965 15.9827C20.0774 15.9379 19.9743 15.8763 19.8883 15.7984C19.8023 15.7205 19.7294 15.6316 19.6721 15.53C19.6148 15.4286 19.569 15.3235 19.5349 15.2146C19.4999 15.1057 19.4741 14.9968 19.4585 14.8886C19.4426 14.7797 19.4355 14.6821 19.4355 14.5942C19.4355 14.4478 19.455 14.2907 19.4951 14.1246C19.5358 13.9584 19.6024 13.8033 19.6966 13.6609C19.7896 13.5189 19.9109 13.4003 20.0609 13.3077C20.2102 13.2145 20.3923 13.1678 20.6078 13.1678C20.7193 13.1678 20.8142 13.1794 20.8899 13.2029C20.966 13.2273 21.0281 13.2529 21.0756 13.2811C21.123 13.3093 21.1571 13.3355 21.1784 13.3596C21.2004 13.3834 21.2093 13.3959 21.2067 13.3959C21.2787 13.3446 21.3344 13.3043 21.3771 13.2745C21.4185 13.2451 21.4576 13.2179 21.4936 13.1929C21.5293 13.1678 21.5474 13.1569 21.5474 13.1591V13.7807C21.5474 13.8399 21.5468 13.8959 21.5452 13.9481C21.5436 14.0007 21.5426 14.0479 21.5426 14.0895V14.1831H21.4656C21.4656 14.0617 21.4443 13.9459 21.4006 13.8358C21.3577 13.7254 21.2984 13.6281 21.222 13.5439C21.1459 13.4588 21.0549 13.3919 20.9501 13.3424C20.846 13.2936 20.7311 13.2683 20.6078 13.2683C20.49 13.2683 20.3923 13.2955 20.3127 13.3484C20.2341 13.4025 20.1691 13.471 20.1194 13.5542C20.0685 13.6371 20.0309 13.7307 20.0051 13.8336C19.9787 13.9365 19.9609 14.0376 19.951 14.1362C19.9408 14.235 19.9348 14.3254 19.9338 14.4071C19.9325 14.4891 19.9319 14.551 19.9319 14.5936V14.7841C19.9319 14.8657 19.9367 14.9546 19.9466 15.0488C19.9564 15.1436 19.9743 15.2396 19.9981 15.3391C20.0227 15.4377 20.0599 15.5284 20.1105 15.61C20.1602 15.6917 20.2261 15.7608 20.306 15.8175C20.3866 15.8735 20.4872 15.9063 20.6078 15.9145C20.6448 15.9176 20.7056 15.9098 20.789 15.891C20.8724 15.8725 20.9578 15.835 21.0472 15.7768C21.1367 15.7195 21.2185 15.6369 21.293 15.5312C21.3678 15.4261 21.4153 15.2881 21.4353 15.1185" fill="#B02C1B"/>
<path fill-rule="evenodd" clip-rule="evenodd" d="M3.01074 20.4794H3.94903V20.6368H3.20082V21.0829H3.85702V21.24H3.20082V21.8826H3.01074" fill="#707271"/>
<path fill-rule="evenodd" clip-rule="evenodd" d="M4.50293 21.8826H4.69333V20.4794H4.50293V21.8826Z" fill="#707271"/>
<path fill-rule="evenodd" clip-rule="evenodd" d="M5.34668 20.4794H5.54886L6.30089 21.6173H6.30503V20.4794H6.48492V21.8826H6.27701L5.53103 20.7563H5.52689V21.8826H5.34668" fill="#707271"/>
<path fill-rule="evenodd" clip-rule="evenodd" d="M7.37512 21.3029H7.85938L7.62155 20.6484H7.61709L7.37512 21.3029ZM7.51744 20.4794H7.72725L8.28507 21.8826H8.07525L7.91924 21.4599H7.31526L7.15511 21.8826H6.95898" fill="#707271"/>
<path fill-rule="evenodd" clip-rule="evenodd" d="M8.75977 20.4794H8.96162L9.71366 21.6173H9.7178V20.4794H9.898V21.8826H9.68978L8.94379 20.7563H8.93966V21.8826H8.75977" fill="#707271"/>
<path fill-rule="evenodd" clip-rule="evenodd" d="M11.5456 20.9021C11.5055 20.7034 11.3437 20.6033 11.1457 20.6033C10.8057 20.6033 10.6614 20.878 10.6614 21.1715C10.6614 21.4918 10.8057 21.7587 11.1476 21.7587C11.3976 21.7587 11.5418 21.5857 11.5596 21.3538H11.7497C11.7137 21.7039 11.4918 21.9161 11.1317 21.9161C10.6879 21.9161 10.4717 21.5935 10.4717 21.1849C10.4717 20.7782 10.7076 20.4459 11.1476 20.4459C11.4459 20.4459 11.6917 20.6033 11.7357 20.9021" fill="#707271"/>
<path fill-rule="evenodd" clip-rule="evenodd" d="M12.3301 21.8826H12.5202V20.4794H12.3301V21.8826Z" fill="#707271"/>
<path fill-rule="evenodd" clip-rule="evenodd" d="M13.422 21.3029H13.9056L13.6681 20.6484H13.664L13.422 21.3029ZM13.564 20.4794H13.7738L14.3316 21.8826H14.1221L13.9661 21.4599H13.3618L13.202 21.8826H13.0059" fill="#707271"/>
<path fill-rule="evenodd" clip-rule="evenodd" d="M14.8086 20.4794H14.9984V21.7256H15.7542V21.8826H14.8086" fill="#707271"/>
<path fill-rule="evenodd" clip-rule="evenodd" d="M17.5672 21.1321H17.8174C17.9333 21.1321 18.0174 21.0849 18.0174 20.9572C18.0174 20.8255 17.9311 20.7723 17.8174 20.7723H17.5672V21.1321ZM17.1953 20.4792H17.8735C18.1396 20.4792 18.3893 20.5993 18.3893 20.9316C18.3893 21.2795 18.1871 21.4153 17.8735 21.4153H17.5672V21.8827H17.1953" fill="#707271"/>
<path fill-rule="evenodd" clip-rule="evenodd" d="M18.9004 20.4794H19.2726V21.5682H19.9383V21.8826H18.9004" fill="#707271"/>
<path fill-rule="evenodd" clip-rule="evenodd" d="M20.8713 21.3601H21.1954L21.0375 20.8683H21.0334L20.8713 21.3601ZM20.8474 20.4794H21.2257L21.7596 21.8826H21.3715L21.2836 21.6311H20.7853L20.6952 21.8826H20.3135" fill="#707271"/>
<path fill-rule="evenodd" clip-rule="evenodd" d="M22.1992 20.4794H22.5813L23.077 21.3442H23.0812V20.4794H23.4314V21.8826H23.0493L22.5533 21.0079H22.5494V21.8826H22.1992" fill="#707271"/>
<path fill-rule="evenodd" clip-rule="evenodd" d="M24.0176 20.4794H24.3996L24.8957 21.3442H24.8998V20.4794H25.2501V21.8826H24.868L24.3716 21.0079H24.3675V21.8826H24.0176" fill="#707271"/>
<path fill-rule="evenodd" clip-rule="evenodd" d="M25.8398 20.4794H26.9778V20.7723H26.2117V21.0182H26.9122V21.301H26.2117V21.5682H26.9978V21.8826H25.8398" fill="#707271"/>
<path fill-rule="evenodd" clip-rule="evenodd" d="M27.9188 21.0886H28.2308C28.3432 21.0886 28.403 21.0298 28.403 20.9237C28.403 20.8192 28.319 20.7723 28.2149 20.7723H27.9188V21.0886ZM27.5469 20.4794H28.2747C28.5269 20.4794 28.7749 20.5914 28.7749 20.8746C28.7749 21.026 28.701 21.169 28.5511 21.2262V21.2303C28.7029 21.2653 28.7472 21.4327 28.7593 21.5663C28.7628 21.6251 28.7692 21.8316 28.8188 21.8826H28.4508C28.4189 21.8357 28.4129 21.6977 28.4087 21.6586C28.3989 21.5172 28.3747 21.372 28.2008 21.372H27.9188V21.8826H27.5469" fill="#707271"/>
</g>
</g>
<defs>
<clipPath id="clip0">
<rect width="32" height="32" fill="white" transform="translate(0 0.916016)"/>
</clipPath>
<clipPath id="clip1">
<rect width="26" height="9" fill="white" transform="translate(3 12.916)"/>
</clipPath>
</defs>
</svg>
