<svg width="32" height="32" viewBox="0 0 32 32" fill="none" xmlns="http://www.w3.org/2000/svg">
<path d="M0 16C0 24.8365 7.16344 32 16 32C24.8365 32 32 24.8365 32 16C32 7.16344 24.8365 0 16 0C7.16344 0 0 7.16344 0 16Z" fill="#FCC310"/>
<path d="M15.26 20.812C7.66 20.812 4.71001 14.1919 5.10601 9.17196L7.34 8.46596C6.976 11.314 7.856 13.372 8.47001 14.316C7.744 10.2799 10.786 7.01196 14.6 7.01196C18.03 7.01196 20.868 9.51794 20.854 13.108C21.358 11.738 21.704 9.64594 21.776 8.18795L26.928 9.47192C26.518 15.514 21.982 20.812 15.26 20.812ZM22.66 24.306L19.734 21.3419H22.632L25.562 24.306H22.66ZM18.748 24.306L15.814 21.3419H18.72L21.648 24.306H18.748ZM12.212 24.306H9.30601L12.236 21.3419H15.142L12.212 24.306ZM5.392 24.306L8.324 21.3419H11.224L8.296 24.306H5.392ZM14.61 9.11596C13.7952 9.11636 12.9989 9.35833 12.3216 9.8113C11.6443 10.2642 11.1166 10.9078 10.8051 11.6607C10.4936 12.4136 10.4122 13.2419 10.5714 14.041C10.7306 14.84 11.1232 15.5739 11.6994 16.1499C12.2757 16.7259 13.0098 17.1181 13.8089 17.2769C14.6081 17.4358 15.4364 17.3541 16.1891 17.0422C16.9418 16.7303 17.5851 16.2022 18.0378 15.5247C18.4904 14.8473 18.732 14.0507 18.732 13.236C18.732 12.6948 18.6254 12.1588 18.4182 11.6588C18.211 11.1589 17.9074 10.7046 17.5246 10.322C17.1417 9.9394 16.6873 9.63596 16.1873 9.429C15.6872 9.22207 15.1512 9.1157 14.61 9.11596Z" fill="#231F20"/>
</svg>
