<svg width="32" height="32" viewBox="0 0 32 32" fill="none" xmlns="http://www.w3.org/2000/svg">
<path d="M0 16C0 24.8365 7.16344 32 16 32C24.8365 32 32 24.8365 32 16C32 7.16344 24.8365 0 16 0C7.16344 0 0 7.16344 0 16Z" fill="#A61E1E"/>
<path d="M0 16C0 24.8365 7.16344 32 16 32C24.8365 32 32 24.8365 32 16C32 7.16344 24.8365 0 16 0C7.16344 0 0 7.16344 0 16Z" fill="#EFEFEF"/>
<path d="M16 0.666666C24.4 0.666666 31.3334 7.6 31.3334 16C31.3334 24.4 24.4 31.3334 16 31.3334C7.6 31.3334 0.666666 24.4 0.666666 16C0.666666 7.6 7.6 0.666666 16 0.666666ZM16 0C7.2 0 0 7.2 0 16C0 24.8 7.2 32 16 32C24.8 32 32 24.8 32 16C32 7.2 24.8 0 16 0Z" fill="#999999"/>
<path d="M9.85205 18.5396H8.61205V16.3876H6.63605V18.5396H5.40005V13.1396H6.63205V15.3396H8.60805V13.1396H9.84809L9.85205 18.5396Z" fill="#01478C"/>
<path d="M11.844 18.5397H10.556L12.356 13.1397H13.908L15.708 18.5397H14.388L14.06 17.4357H12.172L11.844 18.5397ZM12.524 16.2517L12.468 16.4517H13.764L13.708 16.2517C13.554 15.7297 13.426 15.2837 13.3279 14.9157C13.2299 14.5477 13.17 14.3157 13.148 14.2037L13.116 14.0437C12.9563 14.7893 12.7588 15.5263 12.524 16.2517ZM17.644 18.5397H16.412V13.1397H17.764L19.02 15.3797C19.196 15.6957 19.3493 15.9904 19.4799 16.2637C19.61 16.5397 19.6939 16.7317 19.732 16.8437L19.796 17.0197C19.7342 16.4753 19.7076 15.9275 19.716 15.3797V13.1477H20.948V18.5477H19.5999L18.308 16.3077C18.138 16.0197 17.986 15.7357 17.8559 15.4557C17.7259 15.1757 17.636 14.9697 17.588 14.8357L17.524 14.6357C17.6094 15.1888 17.6495 15.748 17.644 16.3077V18.5397ZM26.636 18.0437C26.0673 18.4326 25.3883 18.6276 24.7 18.5997C23.9306 18.6335 23.1782 18.3682 22.5999 17.8597C22.0666 17.3637 21.7999 16.6891 21.7999 15.8357C21.7691 15.0696 22.0779 14.3289 22.644 13.8117C23.2344 13.295 23.9998 13.0232 24.7839 13.0517C25.3285 13.0377 25.8685 13.1529 26.3599 13.3877V14.6197C25.8825 14.3367 25.3389 14.1849 24.7839 14.1797C24.117 14.2025 23.5238 14.6098 23.263 15.224C23.0022 15.8384 23.1211 16.5481 23.5679 17.0437C23.8881 17.3536 24.323 17.516 24.7679 17.4917C24.9986 17.4919 25.2279 17.4568 25.4479 17.3877V16.3717H24.5759V15.3237H26.648L26.636 18.0437Z" fill="#01478C"/>
</svg>
