<svg width="32" height="32" viewBox="0 0 32 32" fill="none" xmlns="http://www.w3.org/2000/svg">
<path d="M0 16C0 24.8365 7.16344 32 16 32C24.8365 32 32 24.8365 32 16C32 7.16344 24.8365 0 16 0C7.16344 0 0 7.16344 0 16Z" fill="#EFEFEF"/>
<path d="M16 0.666666C24.4 0.666666 31.3334 7.6 31.3334 16C31.3334 24.4 24.4 31.3334 16 31.3334C7.6 31.3334 0.666666 24.4 0.666666 16C0.666666 7.6 7.6 0.666666 16 0.666666ZM16 0C7.2 0 0 7.2 0 16C0 24.8 7.2 32 16 32C24.8 32 32 24.8 32 16C32 7.2 24.8 0 16 0Z" fill="#999999"/>
<path d="M22.3236 15.7132C20.7941 18.6272 18.4866 21.4225 15.9089 23.2289C11.3203 26.4396 7.58885 25.3188 7.58885 20.7368C7.58885 16.1483 11.3203 9.8061 15.9089 6.58885V5C10.4435 8.82378 6 16.379 6 21.8444C6 27.3098 10.4435 28.6415 15.9089 24.8177C17.7021 23.5651 19.3832 21.9038 20.8336 20.0512L22.3236 19.003V15.7132Z" fill="#007C85"/>
<path d="M15.9157 8.49414C12.382 10.973 9.50098 15.8648 9.50098 19.3985C9.50098 22.9322 12.382 23.7959 15.9157 21.3236C19.1264 19.0755 21.7898 14.8363 22.2513 11.4279C20.9987 12.3047 17.3134 14.8891 15.9157 15.8648V17.4537C15.9157 17.4537 17.9858 16.0033 20.0098 14.5858C19.1593 16.5505 17.643 18.5283 15.9157 19.7347C13.2522 21.6005 11.0898 20.9478 11.0898 18.2909C11.0898 15.6275 13.2522 11.9487 15.9157 10.083V8.49414Z" fill="#007C85"/>
<path d="M25.8173 5.42853L15.915 12.3707V13.9595L24.2351 8.13155V9.0809C24.2351 9.09408 24.2351 9.10068 24.2351 9.11386V17.6712L25.8239 16.5571L25.8041 8.56667C25.8173 8.36888 25.8239 8.1711 25.8239 7.97332V5.42853" fill="#007C85"/>
</svg>
