<svg width="32" height="32" viewBox="0 0 32 32" fill="none" xmlns="http://www.w3.org/2000/svg">
<path d="M0 16C0 24.8365 7.16344 32 16 32C24.8365 32 32 24.8365 32 16C32 7.16344 24.8365 0 16 0C7.16344 0 0 7.16344 0 16Z" fill="#A61E1E"/>
<path d="M0 16C0 24.8365 7.16344 32 16 32C24.8365 32 32 24.8365 32 16C32 7.16344 24.8365 0 16 0C7.16344 0 0 7.16344 0 16Z" fill="#EFEFEF"/>
<path d="M16 0.666666C24.4 0.666666 31.3334 7.6 31.3334 16C31.3334 24.4 24.4 31.3334 16 31.3334C7.6 31.3334 0.666666 24.4 0.666666 16C0.666666 7.6 7.6 0.666666 16 0.666666ZM16 0C7.2 0 0 7.2 0 16C0 24.8 7.2 32 16 32C24.8 32 32 24.8 32 16C32 7.2 24.8 0 16 0Z" fill="#999999"/>
<path d="M11.146 16.5999H9.36201V18.6339H8.12201V13.2339H11.41V14.2179H9.36201V15.6179H11.146V16.5999Z" fill="#01478C"/>
<path d="M15.7621 14.2339H14.4501V18.6339H13.2101V14.2339H11.8901V13.2339H15.7621V14.2339Z" fill="#01478C"/>
<path d="M19.8741 17.066C19.8869 17.521 19.6891 17.9564 19.3381 18.246C18.9329 18.5625 18.4276 18.723 17.9141 18.698C17.3766 18.7202 16.8423 18.6046 16.3621 18.362V17.122C16.809 17.4608 17.3533 17.646 17.9141 17.65C18.0811 17.6558 18.2451 17.6034 18.3781 17.502C18.5373 17.372 18.6009 17.1578 18.5381 16.962C18.5197 16.9105 18.4896 16.8639 18.4501 16.826C18.412 16.7865 18.3705 16.7504 18.326 16.718C18.27 16.6791 18.2112 16.6444 18.15 16.614L17.95 16.514C17.8961 16.486 17.8181 16.45 17.7141 16.402C17.6101 16.354 17.526 16.316 17.462 16.29C17.145 16.1498 16.8604 15.9455 16.6261 15.69C16.4059 15.4293 16.293 15.0948 16.31 14.754C16.2973 14.3202 16.4864 13.9051 16.822 13.63C17.228 13.3231 17.7302 13.1713 18.238 13.202C18.7191 13.1885 19.1971 13.2814 19.638 13.474V14.626C19.2321 14.382 18.7677 14.252 18.294 14.25C18.1256 14.2382 17.9579 14.2833 17.8181 14.378C17.7135 14.4544 17.6524 14.5766 17.654 14.706C17.6597 14.8499 17.734 14.9824 17.854 15.062C18.0401 15.1962 18.2415 15.3076 18.454 15.394C18.6181 15.468 18.7561 15.534 18.8661 15.594C18.9964 15.6628 19.1221 15.7404 19.2421 15.826C19.3694 15.9121 19.4827 16.0174 19.5781 16.138C19.6673 16.2607 19.7387 16.3953 19.79 16.538C19.8492 16.7076 19.8777 16.8865 19.8741 17.066Z" fill="#01478C"/>
<path d="M23.986 18.6339H20.634V13.2339H23.954V14.2179H21.874V15.4419H23.73V16.4179H21.874V17.6419H23.986V18.6339Z" fill="#01478C"/>
</svg>
