<svg width="32" height="32" viewBox="0 0 32 32" fill="none" xmlns="http://www.w3.org/2000/svg">
<path d="M0 16C0 24.8365 7.16344 32 16 32C24.8365 32 32 24.8365 32 16C32 7.16344 24.8365 0 16 0C7.16344 0 0 7.16344 0 16Z" fill="#0061A9"/>
<path d="M23.214 11.8783C23.304 12.5243 24.284 13.3983 24.55 13.3784C24.728 13.3624 24.796 12.5323 24.796 11.8783C24.796 11.5023 24.816 11.2083 24.62 11.1403C24.304 11.7743 23.48 11.9043 23.22 11.8783H23.214ZM23.274 11.5903C23.984 11.5903 24.632 11.0243 24.632 10.5263C24.6375 10.4706 24.6316 10.4142 24.6148 10.3608C24.598 10.3073 24.5705 10.2578 24.5341 10.2153C24.4977 10.1726 24.4531 10.1379 24.4028 10.1129C24.3527 10.0881 24.298 10.0735 24.242 10.0703C24.2925 10.1312 24.317 10.2095 24.31 10.2883C24.31 10.6643 23.74 11.0883 23.11 11.0883C23.0749 11.0836 23.0392 11.086 23.0051 11.0956C22.971 11.1052 22.9392 11.1216 22.9116 11.1439C22.8841 11.1662 22.8615 11.1939 22.845 11.2252C22.8285 11.2566 22.8186 11.291 22.816 11.3263C22.816 11.5163 23 11.5983 23.266 11.5983L23.274 11.5903ZM23.116 10.8283C23.0557 10.8382 22.9939 10.8291 22.939 10.8022C22.8842 10.7753 22.8392 10.7321 22.81 10.6783C22.748 10.5563 22.768 10.3583 22.652 10.2683C22.7612 10.2953 22.8736 10.3067 22.986 10.3023C23.294 10.3023 23.586 10.1023 23.814 10.1023C23.8403 10.0986 23.867 10.1009 23.8923 10.1089C23.9176 10.117 23.9407 10.1307 23.9599 10.149C23.9792 10.1673 23.994 10.1897 24.0034 10.2145C24.0127 10.2393 24.0164 10.2659 24.014 10.2923C24.014 10.5923 23.414 10.8383 23.12 10.8383" fill="white"/>
<path d="M7.86605 16.1657C8.09605 16.1657 8.05005 14.7476 8.42405 14.7476C8.51205 14.7476 8.54005 14.8356 8.54005 14.9476C8.54005 15.2676 8.38405 15.7476 8.38405 15.9977C8.38405 16.1277 8.41805 16.1677 8.47805 16.1677C8.64205 16.1677 8.92805 14.6057 9.20805 14.6057C9.29805 14.6057 9.33805 14.6957 9.33805 14.7837C9.33805 15.1117 8.92205 16.0516 8.92205 16.3177C8.92205 16.3577 8.93605 16.3917 8.97005 16.3917C9.14005 16.3917 9.48207 15.6557 9.59002 15.2877C9.65205 15.0877 9.73402 14.9937 9.80809 14.9937C9.88207 14.9937 9.93807 15.0697 9.93807 15.2257C9.93807 15.5956 9.59605 16.4617 9.29605 17.0397C9.06605 17.4897 8.69605 18.1377 8.69605 18.4996C8.69377 18.6165 8.71988 18.7321 8.77213 18.8366C8.82438 18.9411 8.90122 19.0314 8.99605 19.0996C8.56005 19.0737 8.38205 19.0317 8.21805 18.6996C7.48805 20.1517 9.56207 20.0097 8.85205 21.2996C8.72205 21.0676 7.70005 20.8297 7.70005 19.4797C7.70005 18.3137 8.72205 17.6317 8.72205 17.1457C8.72387 17.0961 8.71373 17.0467 8.69251 17.0018C8.67127 16.9569 8.63957 16.9177 8.60005 16.8877C8.37605 16.6877 8.36805 16.5417 8.20005 16.5417C8.07005 16.5417 7.91205 16.8397 8.07605 17.1057C8.13005 17.1956 8.17805 17.2497 8.17805 17.3316C8.17805 17.5316 7.87805 18.0337 7.66805 18.0337C7.45805 18.0337 7.29205 17.5097 7.29205 16.6637C7.29205 15.9137 7.46205 15.1556 7.67405 15.1556C7.73605 15.1556 7.75605 15.1977 7.75605 15.2516C7.75605 15.3396 7.72805 15.5177 7.72805 15.8177C7.72805 16.1177 7.80405 16.1657 7.86605 16.1657Z" fill="white"/>
<path d="M9.6 18.1637C9.88602 18.1637 10.124 17.9517 10.124 17.4817V16.7857C10.0998 16.5117 10.1704 16.2378 10.324 16.0097C10.3074 16.0994 10.3007 16.1906 10.304 16.2817C10.304 16.8677 10.632 17.2697 10.632 17.8357C10.632 18.0477 10.57 18.1637 10.406 18.1637C10.242 18.1637 10.264 18.0197 10.23 18.0197C10.196 18.0197 10.16 18.1097 10.16 18.2037C10.1602 18.2538 10.1706 18.3034 10.1906 18.3495C10.2105 18.3955 10.2396 18.4369 10.276 18.4713C10.3126 18.5058 10.3557 18.5324 10.4027 18.5496C10.4498 18.567 10.5 18.5744 10.55 18.5717C10.6724 18.5671 10.788 18.5145 10.8722 18.4256C10.9563 18.3366 11.0022 18.2182 11 18.0957C11 17.4817 10.522 16.7997 10.522 16.1457C10.5224 15.9291 10.5687 15.715 10.658 15.5177C10.658 16.8757 11.81 17.8637 11.81 18.4297C11.8109 18.4609 11.8053 18.4919 11.7936 18.5209C11.7818 18.5498 11.7642 18.5761 11.7418 18.5978C11.7195 18.6197 11.6929 18.6366 11.6636 18.6475C11.6344 18.6585 11.6032 18.6633 11.572 18.6617C11.5424 18.6628 11.5129 18.658 11.4852 18.6475C11.4575 18.6372 11.4321 18.6214 11.4105 18.6011C11.389 18.5808 11.3717 18.5565 11.3595 18.5294C11.3474 18.5024 11.3408 18.4733 11.34 18.4437C11.34 18.3957 11.34 18.3817 11.312 18.3817C11.2596 18.415 11.2169 18.4615 11.1885 18.5168C11.16 18.5719 11.1467 18.6337 11.15 18.6957C11.1508 18.763 11.1649 18.8295 11.1915 18.8914C11.2181 18.9532 11.2567 19.0091 11.305 19.056C11.3534 19.1029 11.4105 19.1397 11.4731 19.1643C11.5358 19.189 11.6027 19.201 11.67 19.1997C11.7507 19.1997 11.8306 19.1835 11.9048 19.152C11.9791 19.1205 12.0462 19.0743 12.1022 19.0163C12.1583 18.9582 12.202 18.8894 12.2308 18.8141C12.2597 18.7387 12.2729 18.6583 12.27 18.5777C12.27 17.8637 10.87 16.7777 10.87 15.6197C10.865 15.3542 10.9262 15.0917 11.048 14.8557C10.148 15.4357 9.86805 16.2057 9.86805 16.8817C9.86805 17.4677 9.848 17.7597 9.54805 17.7597C9.39002 17.7597 9.34802 17.6177 9.29602 17.6177C9.24402 17.6177 9.23401 17.7397 9.23401 17.7737C9.23048 17.8245 9.23733 17.8754 9.25416 17.9234C9.27098 17.9715 9.29742 18.0155 9.33188 18.053C9.36633 18.0904 9.40805 18.1204 9.45449 18.1412C9.50099 18.162 9.55115 18.173 9.60198 18.1737" fill="white"/>
<path d="M21.4219 11.3521C21.722 11.3521 21.946 11.2161 21.946 11.1341C21.946 11.1061 21.906 11.0861 21.818 11.0861C21.6166 11.0823 21.4159 11.0616 21.218 11.0241C20.932 10.9761 20.714 10.8681 20.632 10.8681C20.6039 10.8681 20.5899 10.8821 20.5899 10.9021C20.5899 11.0801 20.9179 11.3521 21.424 11.3521H21.4219ZM19.938 10.4861C20.024 10.4281 20.408 10.5201 20.904 10.2741C20.9583 10.2434 21.0196 10.2269 21.082 10.2261C21.322 10.2261 21.26 10.5001 21.482 10.5001C21.652 10.5001 21.882 10.3561 22 10.3561C22.2 10.3561 22.498 10.9981 22.498 11.2981C22.498 11.6461 21.9739 11.8561 21.352 11.8561C20.4459 11.8561 19.9 11.0561 19.9 10.5541C19.8995 10.5399 19.9032 10.5258 19.9107 10.5137C19.9181 10.5017 19.929 10.4921 19.9419 10.4861" fill="white"/>
<path d="M9.74796 20.734C9.52188 20.79 9.15993 21.134 9.15993 21.704C9.15993 22.372 9.87596 23.402 11.0559 23.402C12.0559 23.402 12.2979 22.712 12.2979 22.248C12.2979 21.218 11.6639 20.496 10.8379 20.496C10.7283 20.492 10.619 20.51 10.5164 20.5488C10.4139 20.5877 10.3202 20.6467 10.2408 20.7224C10.1614 20.7981 10.0979 20.8889 10.0541 20.9894C10.0104 21.09 9.9872 21.1983 9.98588 21.308C9.98645 21.4578 10.0168 21.6061 10.0752 21.744C10.1336 21.882 10.2189 22.007 10.3262 22.1117C10.4334 22.2162 10.5605 22.2985 10.6999 22.3535C10.8392 22.4085 10.9881 22.4351 11.1379 22.432C11.2165 22.4356 11.295 22.423 11.3685 22.395C11.4419 22.367 11.5089 22.3242 11.5651 22.2692C11.6214 22.2143 11.6658 22.1484 11.6954 22.0755C11.7252 22.0028 11.7397 21.9247 11.7379 21.846C11.7327 21.6611 11.6598 21.4846 11.5329 21.35C11.4061 21.2154 11.2342 21.1321 11.0499 21.116C11.0218 21.1145 10.9937 21.119 10.9674 21.1292C10.9411 21.1393 10.9173 21.155 10.8975 21.175C10.8776 21.195 10.8623 21.219 10.8523 21.2453C10.8424 21.2717 10.8382 21.2999 10.8399 21.328C10.8399 21.492 11.0639 21.656 11.3439 21.656C11.3954 21.6575 11.4465 21.6479 11.4939 21.628C11.5081 21.6529 11.5149 21.6814 11.5139 21.71C11.5139 21.866 11.364 21.962 11.132 21.962C11.0429 21.9641 10.9544 21.9485 10.8717 21.9158C10.7889 21.8831 10.7135 21.8342 10.6499 21.772C10.5864 21.7097 10.5359 21.6353 10.5016 21.5533C10.4672 21.4711 10.4496 21.383 10.4499 21.294C10.4499 21.048 10.6619 20.872 10.9679 20.872C11.5679 20.872 11.9359 21.41 11.9359 21.948C11.9359 22.432 11.6719 22.712 11.1259 22.712C10.0339 22.712 9.50193 21.73 9.74193 20.734" fill="white"/>
<path d="M17 23.3662C16.9996 23.4205 17.0153 23.4736 17.0452 23.519C17.0751 23.5644 17.1177 23.5997 17.1677 23.6208C17.2178 23.6418 17.2729 23.6476 17.3262 23.6372C17.3795 23.6268 17.4285 23.6009 17.467 23.5627C17.5056 23.5244 17.5319 23.4756 17.5426 23.4224C17.5533 23.3692 17.548 23.314 17.5273 23.2638C17.5066 23.2137 17.4715 23.1708 17.4264 23.1405C17.3814 23.1103 17.3283 23.0942 17.274 23.0942C17.2017 23.0942 17.1323 23.1228 17.0809 23.1738C17.0296 23.2247 17.0006 23.2939 17 23.3662ZM17.528 24.7302C17.6665 24.73 17.8048 24.7207 17.942 24.7022C18.044 24.7022 18.05 24.7643 18.05 24.8062C18.05 24.9563 17.716 25.1403 17.124 25.1403C16.9906 25.1526 16.8568 25.1199 16.7441 25.0475C16.6313 24.975 16.5461 24.8668 16.502 24.7403C16.0914 25.0004 15.6179 25.1442 15.1321 25.1563C13.7321 25.1563 13.3801 24.5563 12.944 24.3563C12.608 24.2062 12.098 24.5003 11.382 23.7022C11.4903 23.7212 11.6001 23.7298 11.71 23.7282C12.336 23.7282 12.67 23.4222 12.67 22.9282C12.6696 22.8613 12.6649 22.7945 12.656 22.7282C12.8463 22.823 13.0116 22.9612 13.1385 23.1319C13.2653 23.3025 13.3501 23.5006 13.386 23.7102C13.4 23.7782 13.68 23.8402 13.856 23.8402C14.0023 23.8524 14.1475 23.8063 14.2599 23.7119C14.3723 23.6174 14.4428 23.4825 14.456 23.3362C15.274 23.2683 15.826 22.7842 15.942 22.1682C16.22 22.2668 16.4656 22.4396 16.652 22.6683C16.7809 22.6251 16.9161 22.6041 17.052 22.6062C17.3097 22.6117 17.5652 22.6556 17.81 22.7362C17.824 22.6462 17.836 22.5362 17.974 22.5362C18.174 22.5362 18.124 22.7602 18.192 22.8902C18.226 22.9582 18.392 22.9982 18.392 23.1362C18.3923 23.1596 18.3879 23.1828 18.379 23.2044C18.3701 23.226 18.357 23.2456 18.3403 23.262C18.3238 23.2784 18.304 23.2913 18.2823 23.3C18.2606 23.3086 18.2374 23.3128 18.214 23.3122C18.1863 23.3115 18.1588 23.3074 18.132 23.3003C17.996 23.3462 17.99 24.3282 17.416 24.3282C16.994 24.3282 16.616 23.9803 16.434 23.5442C16.4168 23.491 16.3846 23.4439 16.3414 23.4084C16.2981 23.373 16.2456 23.3507 16.19 23.3442C16.08 23.3442 16.0201 23.3643 15.89 23.5083C15.6667 23.7454 15.397 23.9342 15.0977 24.0629C14.7984 24.1916 14.4758 24.2574 14.15 24.2562C13.918 24.2562 13.734 24.2363 13.686 24.2363C13.638 24.2363 13.66 24.2363 13.66 24.2502C13.66 24.2982 13.8921 24.4822 14.396 24.4822C15.596 24.4822 15.89 23.8062 16.08 23.8062C16.1147 23.8049 16.1489 23.815 16.1774 23.8348C16.2059 23.8546 16.2272 23.8832 16.238 23.9163C16.345 24.1616 16.5233 24.3692 16.7498 24.5117C16.9763 24.6544 17.2405 24.7257 17.508 24.7163" fill="white"/>
<path d="M21.668 20.386C21.524 20.386 20.732 21.444 20.222 21.444C20.098 21.444 19.996 21.212 19.996 21.044C19.996 20.948 20.058 20.88 20.276 20.832C21.448 20.566 21.19 19.686 22.192 19.686C22.3508 19.6823 22.5085 19.7118 22.6553 19.7725C22.8021 19.8332 22.9345 19.9239 23.0442 20.0386C23.154 20.1535 23.2386 20.2899 23.2926 20.4393C23.3466 20.5886 23.3688 20.7476 23.3579 20.906C23.3579 21.806 22.076 22.924 21.886 22.924C21.728 22.924 21.558 22.7 21.558 22.55C21.558 22.502 21.578 22.44 21.716 22.386C22.368 22.126 22.744 21.526 22.744 21.22C22.746 21.2027 22.7443 21.1852 22.7389 21.1685C22.7336 21.152 22.7247 21.1367 22.7129 21.1238C22.7012 21.1109 22.6868 21.1007 22.6708 21.0938C22.6548 21.0869 22.6375 21.0836 22.62 21.084C22.504 21.084 22.008 22.216 21.456 22.216C21.074 22.216 20.684 21.868 20.684 21.704C20.684 21.432 21.7899 20.926 21.7899 20.544C21.7899 20.402 21.722 20.394 21.668 20.394V20.386ZM22.4 19.964C22.306 19.964 22.2 20.04 22.2 20.224C22.2029 20.3029 22.2274 20.3794 22.2708 20.4454C22.3142 20.5113 22.3747 20.5641 22.446 20.598C22.5071 20.6324 22.5758 20.651 22.646 20.652C22.846 20.652 23 20.598 23 20.434C23 20.234 22.6939 19.964 22.4 19.964Z" fill="white"/>
<path d="M9.66598 12.0683C9.66522 12.1222 9.68047 12.1752 9.70984 12.2205C9.73929 12.2657 9.78146 12.3011 9.83115 12.3224C9.88075 12.3436 9.93553 12.3495 9.98861 12.3395C10.0416 12.3295 10.0904 12.3039 10.1288 12.266C10.1673 12.2281 10.1936 12.1796 10.2044 12.1268C10.2152 12.0739 10.2101 12.0191 10.1896 11.9691C10.1692 11.9192 10.1343 11.8765 10.0895 11.8464C10.0447 11.8163 9.992 11.8003 9.93798 11.8003C9.86588 11.8013 9.79699 11.8306 9.74607 11.8818C9.69525 11.9331 9.66654 12.0021 9.66598 12.0742V12.0683ZM9.30999 11.4603C9.3096 11.5145 9.32534 11.5677 9.3552 11.6131C9.38506 11.6583 9.42767 11.6938 9.47774 11.7148C9.52781 11.7359 9.58296 11.7416 9.63623 11.7313C9.68951 11.7209 9.73854 11.6949 9.77703 11.6567C9.81553 11.6185 9.84188 11.5697 9.85261 11.5165C9.86334 11.4632 9.85798 11.4081 9.83736 11.3579C9.81666 11.3077 9.78155 11.2648 9.73647 11.2346C9.69129 11.2044 9.63831 11.1883 9.584 11.1883C9.51172 11.1883 9.44226 11.2168 9.39095 11.2678C9.33962 11.3187 9.31052 11.3879 9.30999 11.4603ZM9.06599 13.3283C8.93586 13.3621 8.81943 13.4355 8.73273 13.5383C8.64605 13.6411 8.59338 13.7683 8.582 13.9023C8.58186 13.9572 8.59305 14.0116 8.61489 14.0621C8.63672 14.1125 8.66871 14.158 8.70887 14.1955C8.74903 14.233 8.7965 14.2619 8.84831 14.2803C8.90012 14.2986 8.95516 14.3061 9.01 14.3023C9.1036 14.308 9.19663 14.2842 9.276 14.2342C9.1932 14.158 9.12743 14.0652 9.08297 13.9618C9.03852 13.8584 9.01638 13.7468 9.018 13.6342C9.01521 13.5276 9.03146 13.4212 9.06599 13.3203V13.3283ZM7.39999 13.4182C7.39701 13.4522 7.39701 13.4864 7.39999 13.5203C7.39999 13.8403 7.56999 14.0182 7.79999 14.0182C7.90956 14.0083 8.01544 13.9735 8.10966 13.9168C8.20388 13.8599 8.284 13.7825 8.344 13.6902C8.26343 13.7042 8.18176 13.7109 8.09999 13.7103C7.96844 13.7214 7.83615 13.7007 7.71431 13.6499C7.59246 13.599 7.48465 13.5196 7.39999 13.4182ZM7.16199 14.0182C7.16199 14.5363 7.318 14.7823 7.598 14.7823C7.816 14.7823 8.10999 14.6262 8.45799 14.3263C8.24377 14.3844 8.02376 14.4186 7.802 14.4283C7.558 14.4283 7.36599 14.3323 7.16199 14.0283V14.0182ZM8.928 11.3023C8.96868 11.1728 8.98958 11.038 8.99 10.9023C8.99 10.5743 8.84 10.0763 8.376 10.0763C8.31527 10.076 8.2551 10.0879 8.19901 10.1111C8.14293 10.1345 8.09206 10.1687 8.04939 10.2119C8.00673 10.2551 7.97313 10.3064 7.95057 10.3628C7.928 10.4193 7.91693 10.4795 7.918 10.5403C7.918 11.0803 8.458 11.2982 8.918 11.2982L8.928 11.3023ZM8.338 13.0163C8.21056 12.9949 8.09435 12.9303 8.0088 12.8335C7.92325 12.7366 7.87354 12.6133 7.86799 12.4843C7.86799 12.3483 7.96999 12.1763 8.04599 12.1763C8.07199 12.1763 8.086 12.1983 8.09199 12.2463C8.10866 12.3811 8.16023 12.5091 8.24162 12.6179C8.323 12.7267 8.43137 12.8123 8.556 12.8662C8.57799 12.8803 8.59 12.8863 8.59 12.9003C8.59 12.9483 8.46 13.0163 8.338 13.0163ZM8.96599 12.1843C9.012 12.2483 9.144 12.3283 9.144 12.3743C9.144 12.4703 9.088 12.5942 8.98 12.5942C8.74 12.5942 8.54999 12.2323 8.54999 12.0262C8.54999 11.8982 8.624 11.8843 8.72599 11.8843C8.76286 11.8813 8.7996 11.8912 8.83 11.9123C8.89 11.9462 8.88999 12.0822 8.96599 12.1843ZM7.36599 13.0303C7.35215 13.0524 7.34519 13.0782 7.34599 13.1043C7.34903 13.1374 7.36344 13.1684 7.38678 13.1922C7.41012 13.2158 7.44093 13.2307 7.474 13.2342C7.53 13.2342 7.56399 13.2203 7.59 13.2203C7.754 13.2203 7.938 13.3363 8.204 13.3363C8.40479 13.3267 8.6006 13.2705 8.776 13.1723C8.95106 13.071 9.10246 12.9335 9.22008 12.7689C9.33769 12.6044 9.41882 12.4166 9.45798 12.2182C9.45798 12.0883 9.354 12.1043 9.268 11.9862C9.18199 11.8683 9.21399 11.7622 9.15799 11.7062C9.10199 11.6502 9.02999 11.6723 8.90599 11.6582C8.86599 11.6582 8.81 11.6582 8.756 11.6582C8.4767 11.6495 8.20128 11.7255 7.96599 11.8763C7.36599 12.2543 7.45999 12.8763 7.36599 13.0363V13.0303ZM9.63002 12.7622C9.4432 12.9822 9.3348 13.2579 9.322 13.5462C9.322 13.9142 9.54795 14.2223 9.896 14.2223C10.244 14.2223 10.386 13.9363 10.386 13.6422C10.386 13.1862 9.96998 12.8643 9.63002 12.7622ZM8.17 11.4543C8.03974 11.5464 7.88544 11.5986 7.72599 11.6043C7.65587 11.6063 7.58609 11.5938 7.52099 11.5677C7.45588 11.5415 7.39683 11.5024 7.34751 11.4525C7.29818 11.4026 7.25964 11.343 7.23427 11.2777C7.20889 11.2123 7.19722 11.1424 7.19999 11.0723C7.19879 10.9565 7.23275 10.8431 7.29739 10.747C7.36202 10.651 7.4543 10.5767 7.562 10.5343C7.55795 10.5729 7.55795 10.6117 7.562 10.6502C7.55698 10.8339 7.61527 11.0135 7.72707 11.1592C7.83887 11.3048 7.99738 11.4076 8.176 11.4502" fill="white"/>
<path d="M20.2 13.7101C20.2 13.7666 20.2168 13.8219 20.2482 13.8689C20.2796 13.916 20.3243 13.9526 20.3766 13.9743C20.4288 13.9959 20.4863 14.0016 20.5418 13.9905C20.5973 13.9795 20.6482 13.9522 20.6882 13.9122C20.7282 13.8722 20.7555 13.8213 20.7665 13.7658C20.7775 13.7104 20.7719 13.6528 20.7502 13.6006C20.7286 13.5484 20.692 13.5037 20.6449 13.4722C20.5978 13.4408 20.5426 13.424 20.486 13.424C20.4104 13.4245 20.3379 13.4548 20.2843 13.5084C20.2308 13.5619 20.2006 13.6343 20.2 13.7101ZM20.22 14.57C20.22 14.6334 20.2388 14.6952 20.2739 14.7478C20.3091 14.8004 20.3591 14.8415 20.4175 14.8656C20.476 14.8899 20.5403 14.8962 20.6024 14.8839C20.6645 14.8716 20.7215 14.8411 20.7663 14.7963C20.811 14.7516 20.8415 14.6945 20.8538 14.6324C20.8662 14.5704 20.8599 14.506 20.8357 14.4476C20.8114 14.3891 20.7704 14.3392 20.7177 14.304C20.6651 14.2688 20.6033 14.25 20.54 14.25C20.4552 14.25 20.3737 14.2837 20.3137 14.3438C20.2537 14.4038 20.22 14.4851 20.22 14.57ZM19.238 15.1501C19.2376 15.2434 19.2649 15.3349 19.3166 15.4128C19.3682 15.4907 19.4418 15.5515 19.528 15.5875C19.6142 15.6236 19.7092 15.6332 19.8008 15.6152C19.8925 15.5972 19.9768 15.5524 20.043 15.4865C20.1093 15.4206 20.1544 15.3365 20.1728 15.2448C20.1912 15.1533 20.1819 15.0582 20.1463 14.9719C20.1106 14.8855 20.0501 14.8117 19.9724 14.7598C19.8948 14.7078 19.8034 14.68 19.71 14.68C19.5851 14.68 19.4654 14.7295 19.3769 14.8176C19.2885 14.9056 19.2385 15.0252 19.238 15.1501ZM19.49 14.188C19.4868 14.2258 19.4914 14.264 19.5036 14.2998C19.5159 14.3358 19.5354 14.3688 19.5611 14.3968C19.5868 14.4247 19.618 14.447 19.6528 14.4623C19.6875 14.4775 19.7251 14.4854 19.763 14.4854C19.8009 14.4854 19.8385 14.4775 19.8732 14.4623C19.908 14.447 19.9392 14.4247 19.9648 14.3968C19.9905 14.3688 20.0101 14.3358 20.0223 14.2998C20.0345 14.264 20.0392 14.2258 20.036 14.188C20.0301 14.1197 19.9989 14.056 19.9483 14.0096C19.8977 13.9632 19.8316 13.9375 19.763 13.9375C19.6944 13.9375 19.6282 13.9632 19.5777 14.0096C19.5272 14.056 19.4958 14.1197 19.49 14.188ZM18.6 14.7341C18.6 14.7878 18.6159 14.8404 18.6458 14.8851C18.6758 14.9299 18.7182 14.9648 18.7679 14.9854C18.8176 15.0059 18.8723 15.0113 18.9251 15.0008C18.9778 14.9904 19.0263 14.9644 19.0643 14.9264C19.1024 14.8883 19.1283 14.8399 19.1387 14.7871C19.1493 14.7344 19.1439 14.6797 19.1233 14.63C19.1027 14.5803 19.0679 14.5377 19.0232 14.5079C18.9784 14.478 18.9258 14.4621 18.872 14.4621C18.7998 14.4621 18.7306 14.4907 18.6796 14.5417C18.6286 14.5927 18.6 14.6619 18.6 14.7341ZM19.302 13.1341C19.302 13.2203 19.3275 13.3046 19.3754 13.3762C19.4233 13.448 19.4915 13.5039 19.5711 13.5369C19.6508 13.5698 19.7384 13.5785 19.8231 13.5616C19.9077 13.5448 19.9853 13.5033 20.0463 13.4423C20.1073 13.3813 20.1488 13.3037 20.1656 13.2191C20.1824 13.1345 20.1738 13.0468 20.1408 12.9672C20.1078 12.8875 20.052 12.8194 19.9802 12.7715C19.9085 12.7236 19.8242 12.698 19.738 12.698C19.6225 12.6986 19.5119 12.7447 19.4303 12.8263C19.3486 12.908 19.3025 13.0186 19.302 13.1341ZM19.8 12.3C19.8 12.3516 19.8153 12.4019 19.844 12.4447C19.8727 12.4875 19.9133 12.5208 19.9609 12.5405C20.0086 12.56 20.061 12.565 20.1114 12.5549C20.162 12.5447 20.2083 12.5198 20.2445 12.4832C20.2808 12.4466 20.3054 12.4 20.3152 12.3495C20.3251 12.299 20.3196 12.2466 20.2997 12.1991C20.2796 12.1517 20.246 12.1112 20.203 12.0829C20.16 12.0545 20.1095 12.0397 20.058 12.04C20.0239 12.04 19.9902 12.0467 19.9588 12.0599C19.9273 12.073 19.8988 12.0921 19.8748 12.1163C19.8508 12.1405 19.8319 12.1692 19.819 12.2007C19.8062 12.2322 19.7997 12.266 19.8 12.3ZM18.566 12.954C18.566 13.005 18.5811 13.0549 18.6095 13.0974C18.6378 13.1398 18.6781 13.1728 18.7253 13.1924C18.7724 13.2119 18.8243 13.217 18.8744 13.2071C18.9243 13.1971 18.9704 13.1726 19.0064 13.1365C19.0425 13.1004 19.0671 13.0544 19.0771 13.0044C19.087 12.9543 19.0819 12.9024 19.0624 12.8553C19.0428 12.8081 19.0098 12.7679 18.9673 12.7395C18.9249 12.7112 18.875 12.696 18.824 12.696C18.7558 12.6965 18.6904 12.7239 18.6422 12.7722C18.5939 12.8205 18.5665 12.8858 18.566 12.954ZM18.532 13.84C18.532 13.9224 18.5564 14.0029 18.6023 14.0714C18.648 14.1398 18.7131 14.1932 18.7893 14.2245C18.8654 14.256 18.9492 14.2641 19.0299 14.2479C19.1107 14.2317 19.1848 14.1919 19.2428 14.1335C19.301 14.0751 19.3404 14.0008 19.3562 13.92C19.372 13.8391 19.3636 13.7554 19.3318 13.6795C19.3 13.6034 19.2463 13.5387 19.1777 13.4931C19.109 13.4477 19.0283 13.4237 18.946 13.424C18.8914 13.4238 18.8373 13.4344 18.7868 13.4552C18.7363 13.476 18.6904 13.5067 18.652 13.5454C18.6135 13.5841 18.583 13.6301 18.5624 13.6807C18.5418 13.7312 18.5315 13.7855 18.532 13.84ZM17.672 14.276C17.6716 14.3534 17.6942 14.429 17.7368 14.4935C17.7796 14.5579 17.8405 14.6082 17.9118 14.638C17.9832 14.6677 18.0617 14.6756 18.1376 14.6607C18.2135 14.6457 18.2831 14.6084 18.3378 14.5538C18.3925 14.4992 18.4296 14.4295 18.4446 14.3536C18.4596 14.2778 18.4517 14.1992 18.4219 14.1279C18.3922 14.0565 18.3418 13.9956 18.2775 13.9529C18.213 13.9103 18.1373 13.8877 18.06 13.888C17.958 13.8911 17.8611 13.9329 17.789 14.005C17.7169 14.0771 17.675 14.1741 17.672 14.276ZM17.904 13.316C17.9036 13.3704 17.9193 13.4237 17.9494 13.469C17.9793 13.5144 18.022 13.5498 18.0722 13.5708C18.1224 13.5918 18.1776 13.5974 18.231 13.5869C18.2843 13.5763 18.3333 13.5503 18.3718 13.5118C18.4102 13.4734 18.4363 13.4243 18.4468 13.371C18.4573 13.3177 18.4518 13.2624 18.4308 13.2123C18.4098 13.1621 18.3743 13.1193 18.3289 13.0894C18.2836 13.0594 18.2304 13.0436 18.176 13.044C18.1038 13.044 18.0346 13.0727 17.9836 13.1237C17.9326 13.1747 17.904 13.2439 17.904 13.316ZM20.304 15.416C20.304 15.3466 20.3316 15.28 20.3807 15.2308C20.4298 15.1816 20.4965 15.154 20.566 15.154C20.6355 15.154 20.7021 15.1816 20.7512 15.2308C20.8004 15.28 20.828 15.3466 20.828 15.416C20.828 15.4855 20.8004 15.5521 20.7512 15.6013C20.7021 15.6504 20.6355 15.6781 20.566 15.6781C20.4965 15.6781 20.4298 15.6504 20.3807 15.6013C20.3316 15.5521 20.304 15.4855 20.304 15.416Z" fill="white"/>
<path d="M20.48 23.2583C20.5141 23.2583 20.5541 23.2783 20.5541 23.4002C20.5505 23.5044 20.5198 23.6059 20.4651 23.6946C20.4103 23.7834 20.3335 23.8563 20.2421 23.9063C20.0213 24.0514 19.7623 24.1274 19.4981 24.1243C19.5559 23.9643 19.5882 23.7963 19.5941 23.6263C19.5921 23.5741 19.5874 23.522 19.58 23.4703H19.668C19.953 23.4758 20.2341 23.4025 20.48 23.2583ZM20.534 22.5823C20.5596 22.5562 20.579 22.5247 20.5908 22.49C20.6025 22.4554 20.6064 22.4186 20.6021 22.3823V22.2263C20.6021 22.0263 20.304 21.9122 19.894 21.9122C19.396 21.9122 19.1301 22.1383 19.1301 22.2322V22.5463C19.1301 22.6763 19.43 22.8063 19.798 22.8063C20.0623 22.8196 20.3228 22.7396 20.534 22.5803V22.5823ZM20.8901 22.6562C20.5245 22.9494 20.0685 23.1063 19.6 23.1003C19.3987 23.0972 19.1995 23.0579 19.012 22.9842C18.944 22.9842 18.868 23.0523 18.7941 23.1423C18.5681 23.4028 18.4363 23.7318 18.42 24.0763C18.4217 24.152 18.4388 24.2267 18.4703 24.2956C18.5017 24.3646 18.5469 24.4263 18.6031 24.4772C18.6592 24.5281 18.7252 24.5671 18.7968 24.5917C18.8685 24.6162 18.9445 24.626 19.02 24.6203C20.296 24.6203 21.2501 23.8203 21.2501 23.1762C21.2501 22.8082 21.032 22.6583 20.876 22.6583" fill="white"/>
<path d="M21.128 16.9239C21.128 17.094 21.182 17.2899 21.354 17.2899C21.526 17.2899 21.6199 17.074 21.6199 16.834C21.6199 16.562 21.5719 16.35 21.5719 16.2339C21.5719 16.1879 21.592 16.166 21.6199 16.166C21.722 16.166 21.8199 16.454 21.926 16.454C22.032 16.454 22.232 16.2279 22.3079 16.2279C22.328 16.2279 22.334 16.256 22.334 16.262C22.334 16.3639 22.178 16.59 22.178 16.678C22.178 16.766 22.578 16.766 22.578 16.8359C22.578 16.938 22.162 16.9379 21.9639 17.0359C21.766 17.134 21.658 17.2199 21.658 17.3559C21.658 17.4919 21.794 17.52 21.984 17.52C22.44 17.52 22.762 17.2739 22.864 17.2739C22.8685 17.2737 22.8731 17.2743 22.8774 17.2759C22.8816 17.2775 22.8855 17.2801 22.8887 17.2833C22.8919 17.2865 22.8944 17.2903 22.896 17.2946C22.8976 17.2989 22.8983 17.3034 22.898 17.3079C22.898 17.3779 22.666 17.6019 22.666 17.7079C22.666 17.814 23.088 17.96 23.082 18.0279C23.082 18.0499 23.048 18.056 23 18.056C22.952 18.056 22.8 18.0359 22.72 18.0359C22.666 18.0359 22.618 18.0359 22.598 18.07C22.578 18.104 22.61 18.486 22.5159 18.486C22.422 18.486 22.194 17.686 21.67 17.686C21.5959 17.686 21.542 17.7459 21.542 17.848C21.542 18.1219 21.808 18.4339 22.0599 18.584C22.174 18.6599 22.366 18.736 22.366 18.784C22.366 18.8659 21.93 18.784 21.93 18.928C21.93 19.072 21.984 19.2339 21.984 19.342C21.984 19.3779 21.984 19.4179 21.938 19.4179C21.856 19.4179 21.658 19.0439 21.562 19.0439C21.466 19.0439 21.302 19.2679 21.2279 19.2679C21.2197 19.2691 21.2112 19.2675 21.2039 19.2632C21.1966 19.2591 21.191 19.2526 21.1878 19.2448C21.1846 19.237 21.184 19.2284 21.1862 19.2203C21.1884 19.2121 21.1933 19.2051 21.2 19.2C21.2 19.0419 21.4519 18.688 21.4519 18.3399C21.4519 18.176 21.432 17.822 21.234 17.822C21.07 17.822 20.886 18.08 20.8039 18.3399C20.7559 18.4899 20.79 19.07 20.68 19.07C20.57 19.07 20.606 18.67 20.48 18.67C20.378 18.67 20.16 18.854 20.08 18.854C20.066 18.854 20.054 18.854 20.054 18.834C20.054 18.752 20.254 18.486 20.254 18.4339C20.254 18.3319 19.8039 18.318 19.8039 18.2339C19.8039 18.1859 19.9799 18.152 20.144 18.126C20.49 18.064 21.002 17.8119 21.002 17.458C21.002 17.058 20.6199 16.8919 20.37 16.728C20.24 16.646 20.096 16.578 20.096 16.528C20.096 16.478 20.2599 16.472 20.328 16.472C20.43 16.472 20.528 16.472 20.528 16.384C20.528 16.296 20.514 16.2 20.514 16.104C20.514 16.008 20.514 15.982 20.5479 15.982C20.65 15.982 20.794 16.3159 20.862 16.3159C20.97 16.3159 21.12 16.0419 21.224 16.0419C21.258 16.0419 21.272 16.064 21.272 16.1239C21.272 16.3779 21.142 16.664 21.142 16.91L21.128 16.9239ZM17.89 14.91C17.9639 15.488 18.742 15.1959 18.742 15.8979C18.742 16 18.714 16.15 18.714 16.28C18.714 16.41 18.728 16.56 18.8439 16.56C18.96 16.56 18.986 16.478 18.986 16.36C18.986 16.2419 18.96 16.1139 18.96 16.04C18.9557 16.0021 18.9595 15.9639 18.9713 15.9277C18.9831 15.8916 19.0026 15.8584 19.0285 15.8305C19.0543 15.8026 19.0858 15.7806 19.121 15.766C19.1561 15.7514 19.194 15.7445 19.232 15.746C19.4919 15.746 19.69 16.0119 20.078 16.0119C19.99 16.448 19.09 16.3319 19.09 16.8119C19.09 17.0519 19.328 17.1059 19.49 17.1059C19.6519 17.1059 19.69 17.0839 19.69 16.9619C19.69 16.894 19.6759 16.8199 19.6759 16.762C19.6757 16.7545 19.677 16.7471 19.6797 16.7402C19.6823 16.7332 19.6865 16.727 19.6918 16.7218C19.697 16.7165 19.7033 16.7123 19.7102 16.7096C19.7172 16.7069 19.7245 16.7057 19.7319 16.7059C19.882 16.7059 20.616 17.2659 20.616 17.4359C20.616 17.606 19.84 17.75 19.616 17.75C19.6056 17.7515 19.5951 17.7507 19.5851 17.7475C19.5751 17.7444 19.5659 17.7392 19.5583 17.7321C19.5506 17.725 19.5447 17.7163 19.5408 17.7065C19.5369 17.6968 19.5352 17.6864 19.536 17.6759C19.536 17.6279 19.6519 17.4759 19.6519 17.4019C19.6519 17.328 19.5479 17.2999 19.2759 17.2999C19.146 17.2999 19.05 17.3139 19.05 17.416C19.05 17.6 19.35 17.826 19.35 17.9959C19.35 18.1319 19.2679 18.214 19.05 18.214C18.866 18.214 18.5879 18.07 18.5879 17.832C18.5879 17.642 18.7879 17.4499 18.7879 17.334C18.7879 17.2999 18.762 17.246 18.68 17.246C18.4279 17.246 18.36 17.9139 17.466 17.9879C17.5522 17.922 17.6214 17.8365 17.6677 17.7383C17.714 17.6402 17.736 17.5324 17.7319 17.424C17.7319 17.28 17.698 17.1639 17.698 17.008C17.698 16.808 17.794 16.6999 17.93 16.6999C18.182 16.6999 18.306 17.054 18.47 17.054C18.5202 17.0499 18.5671 17.0271 18.6012 16.99C18.6353 16.9529 18.6541 16.9043 18.654 16.854C18.654 16.336 17.654 16.4099 17.654 15.6819C17.6711 15.4036 17.7577 15.1341 17.906 14.8979" fill="white"/>
<path d="M19.1701 19.3583C19.1692 19.3803 19.1729 19.4022 19.1808 19.4228C19.1886 19.4435 19.2006 19.4622 19.2159 19.4781C19.2312 19.494 19.2496 19.5066 19.2698 19.5152C19.2902 19.5238 19.312 19.5283 19.334 19.5283C19.3589 19.5269 19.3833 19.5207 19.4057 19.51C19.4282 19.4992 19.4483 19.4841 19.4648 19.4655C19.4814 19.4468 19.4941 19.4251 19.5022 19.4016C19.5103 19.378 19.5137 19.3531 19.512 19.3283C19.512 19.1843 19.382 18.9862 19.26 18.9862C19.204 18.9862 19.2261 19.0682 19.212 19.1562C19.198 19.2442 19.1701 19.3062 19.1701 19.3562V19.3583ZM18.816 18.4483C19.532 18.5843 19.9221 19.1242 19.9221 19.6282C19.9288 19.712 19.9185 19.7963 19.8917 19.8759C19.8648 19.9556 19.822 20.0289 19.7658 20.0914C19.7096 20.154 19.6413 20.2043 19.5651 20.2396C19.4888 20.2748 19.406 20.2941 19.3221 20.2963C19.2406 20.2998 19.1592 20.2862 19.0834 20.2561C19.0076 20.2259 18.9391 20.18 18.8824 20.1214C18.8257 20.0628 18.782 19.9927 18.7544 19.916C18.7268 19.8393 18.7158 19.7575 18.7221 19.6762C18.7221 19.3903 18.9461 19.0902 18.9461 18.7962C18.9464 18.6683 18.9002 18.5445 18.816 18.4483ZM17.91 19.6083C17.9376 19.6338 17.9597 19.6646 17.9749 19.6991C17.99 19.7335 17.9978 19.7706 17.998 19.8083C17.998 19.9103 17.95 20.0202 17.95 20.1363C17.9493 20.1762 17.9564 20.2158 17.9711 20.2529C17.9859 20.29 18.0078 20.3237 18.0358 20.3523C18.0637 20.3808 18.097 20.4034 18.1338 20.4188C18.1706 20.4343 18.2102 20.4422 18.2501 20.4422C18.2928 20.4428 18.3352 20.4347 18.3749 20.4184C18.4144 20.4022 18.4504 20.3781 18.4804 20.3477C18.5105 20.3173 18.534 20.2811 18.5498 20.2413C18.5656 20.2016 18.5731 20.159 18.572 20.1162C18.572 19.8563 18.304 19.6042 17.91 19.6042V19.6083ZM20.166 19.1683C20.2101 19.2325 20.2344 19.3083 20.236 19.3862C20.236 19.5862 20.1061 19.7542 20.1061 19.9523C20.1059 20.0072 20.1171 20.0616 20.1389 20.1121C20.1608 20.1625 20.1927 20.2079 20.2329 20.2454C20.273 20.283 20.3206 20.3119 20.3723 20.3302C20.4242 20.3486 20.4792 20.3561 20.534 20.3523C20.6589 20.3507 20.778 20.2996 20.8653 20.2104C20.9527 20.1213 21.0011 20.0011 21 19.8762C21 19.5142 20.672 19.2083 20.16 19.1743L20.166 19.1683ZM18.0741 18.8122C18.388 18.8522 18.462 18.9622 18.462 19.0502C18.462 19.2003 18.326 19.2502 18.196 19.2502C18.1 19.2502 17.996 19.2303 17.876 19.2303C17.7966 19.2252 17.7171 19.2384 17.6436 19.2689C17.5701 19.2995 17.5046 19.3464 17.452 19.4063C17.54 19.4202 17.67 19.4822 17.67 19.6182C17.67 20.0182 16.572 19.6863 16.572 20.7023C16.572 21.2422 17.132 21.8282 17.972 21.8282C18.408 21.8282 18.688 21.6842 18.688 21.5203C18.688 21.3923 18.456 21.4803 18.456 21.3702C18.456 21.3242 18.5381 21.2342 18.5381 21.1583C18.5381 21.1263 18.51 21.0643 18.456 21.0643C18.334 21.0643 18.102 21.2643 17.63 21.2643C17.262 21.2643 16.9 21.0522 16.9 20.7663C16.9 20.7043 16.928 20.6703 16.968 20.6703C17.008 20.6703 17.064 20.6982 17.112 20.6982C17.16 20.6982 17.16 20.6703 17.16 20.5962C17.16 20.5222 17.16 20.3082 17.2901 20.3082C17.42 20.3082 17.664 20.7862 18.606 20.7862C18.92 20.7862 19.526 20.7263 19.752 20.5203C19.7477 20.7544 19.6969 20.9854 19.6027 21.1999C19.5086 21.4144 19.373 21.6081 19.2036 21.7699C19.0342 21.9316 18.8344 22.0582 18.6158 22.1424C18.3973 22.2266 18.1641 22.2666 17.9301 22.2602C17.6711 22.2646 17.414 22.2166 17.174 22.1193C16.9341 22.0219 16.7162 21.8771 16.5336 21.6935C16.351 21.5099 16.2072 21.2914 16.1112 21.051C16.015 20.8105 15.9684 20.5531 15.974 20.2943C15.9748 20.0299 16.028 19.7684 16.1304 19.5247C16.2329 19.281 16.3827 19.06 16.5711 18.8746C16.7595 18.6892 16.9828 18.5429 17.228 18.4444C17.4733 18.3458 17.7357 18.2968 18 18.3002C18.3 18.3002 18.552 18.4022 18.552 18.5322C18.552 18.7103 18.11 18.6003 18.076 18.8122" fill="white"/>
<path d="M13.662 11.0244C14.112 11.0244 14.316 11.4244 14.316 11.8504C14.316 12.0504 14.262 12.3204 14.172 12.3204C14.0821 12.3204 14.0981 12.1644 14.084 12.0204C14.07 11.8364 14.036 11.7964 13.976 11.7964C13.8581 11.7964 13.776 12.0684 13.776 12.3204C13.776 12.4764 13.804 12.6544 13.926 12.6544C13.9901 12.6526 14.0511 12.6262 14.096 12.5804C14.0924 12.7347 14.0296 12.8817 13.9205 12.9909C13.8113 13.0999 13.6643 13.1628 13.51 13.1664C12.91 13.1664 12.684 12.4644 12.616 12.0544C12.256 12.4364 11.9221 12.7164 11.3221 12.7164C11.2148 12.7226 11.1074 12.7063 11.0069 12.6685C10.9064 12.6307 10.8149 12.5722 10.7384 12.4968C10.6617 12.4214 10.6019 12.3308 10.5626 12.2308C10.5233 12.1308 10.5054 12.0237 10.51 11.9164C10.51 11.8004 10.55 11.5004 10.694 11.5004C10.838 11.5004 10.7141 12.0584 11.048 12.0584C11.1301 12.0584 11.28 11.9904 11.3621 11.7664C11.4089 11.6381 11.4345 11.503 11.438 11.3664C11.438 11.1824 11.396 11.0664 11.26 11.0664C11.1485 11.0787 11.0436 11.1255 10.96 11.2004C11.0222 10.984 11.1538 10.794 11.3344 10.6596C11.5151 10.5252 11.7349 10.4537 11.96 10.4564C12.5 10.4564 12.7861 10.9344 12.7861 11.4664C12.7852 11.5441 12.7785 11.6217 12.766 11.6984C12.996 11.3164 13.318 11.0224 13.6661 11.0224L13.662 11.0244ZM13.14 11.8224C13.14 11.7064 13.112 11.6784 13.086 11.6784C13.0181 11.6784 12.942 11.7604 12.8341 11.9444C12.848 12.1904 12.888 12.2984 12.956 12.2984C13.024 12.2984 13.14 12.0604 13.14 11.8224ZM12.2 12.1084C12.2741 12.1084 12.3701 12.0264 12.548 11.8304C12.56 11.7396 12.5647 11.648 12.5621 11.5564C12.5621 11.4204 12.5061 11.2704 12.4261 11.2704C12.2261 11.2704 12.118 11.8164 12.118 11.9584C12.118 12.0404 12.158 12.1084 12.2 12.1084ZM13.312 12.7084C13.4821 12.7084 13.672 12.0524 13.672 11.6444C13.672 11.5564 13.66 11.4604 13.6181 11.4604C13.4741 11.4604 13.236 12.1344 13.236 12.5044C13.236 12.6464 13.27 12.7044 13.312 12.7044V12.7084ZM11.644 12.3404C11.8741 12.3404 12.14 11.0864 12.14 10.8744C12.14 10.8204 12.12 10.7784 12.072 10.7784C11.872 10.7784 11.568 11.9784 11.568 12.2384C11.568 12.2864 11.582 12.3404 11.644 12.3404Z" fill="white"/>
<path d="M12.386 12.858C12.092 12.858 12.08 13.214 12.08 13.93C11.862 13.4601 11.5 12.954 11.08 12.954C10.794 12.954 10.68 13.154 10.68 13.48C10.6793 13.5572 10.686 13.6342 10.7 13.71C10.7215 13.6553 10.7608 13.6096 10.8118 13.5801C10.8626 13.5508 10.9219 13.5394 10.98 13.5481C11.1561 13.5689 11.3257 13.6271 11.4776 13.7189C11.6294 13.8106 11.7597 13.9337 11.86 14.08C11.6151 14.0275 11.3662 13.9953 11.116 13.984C10.9923 13.9783 10.8688 13.9994 10.754 14.046C10.6083 14.1273 10.4878 14.2473 10.4059 14.3927C10.324 14.5381 10.284 14.7033 10.29 14.87C10.291 14.9458 10.2984 15.0215 10.312 15.096C10.55 14.564 11.184 14.3241 11.594 14.3241C11.6609 14.3239 11.7277 14.3286 11.794 14.338C11.6136 14.5458 11.5168 14.813 11.522 15.088C11.522 15.198 11.474 15.2041 11.398 15.2041C11.398 15.43 11.576 15.764 11.576 15.934C11.5773 15.9598 11.5718 15.9855 11.5598 16.0084C11.5479 16.0312 11.53 16.0505 11.508 16.064C11.508 16.3641 11.808 16.582 11.808 16.772C11.8104 16.8116 11.7982 16.8506 11.774 16.882C11.794 17.004 12.124 17.212 12.174 17.314C12.224 17.416 12.286 17.462 12.32 17.462C12.436 17.462 12.62 17.326 12.62 17.202C12.6175 17.1808 12.6107 17.1602 12.6001 17.1416C12.5895 17.1231 12.5752 17.1069 12.558 17.094C12.4396 16.9715 12.3531 16.8217 12.306 16.658C12.2757 16.6596 12.2458 16.6501 12.2219 16.6313C12.198 16.6126 12.1817 16.5858 12.176 16.556C12.138 16.416 12.136 16.156 12.082 15.996C11.992 15.976 11.952 15.9401 11.952 15.7561C11.952 15.6681 12.006 15.32 12.006 15.198C11.9924 15.1976 11.979 15.1943 11.9668 15.1884C11.9545 15.1825 11.9436 15.1741 11.9348 15.1638C11.9259 15.1534 11.9193 15.1413 11.9154 15.1283C11.9115 15.1152 11.9103 15.1016 11.912 15.088C11.912 14.87 12.13 14.7 12.19 14.42C12.3352 14.5075 12.4559 14.6305 12.5406 14.7774C12.6252 14.9244 12.6712 15.0905 12.674 15.2601C12.6726 15.3908 12.6565 15.5208 12.626 15.648C12.914 15.504 13.344 15.294 13.344 14.864C13.344 14.6121 13.228 14.3321 12.456 14.222C12.7131 14.1322 12.9836 14.0862 13.256 14.086C13.692 14.086 13.944 14.222 13.998 14.53C14.0908 14.4018 14.1455 14.25 14.156 14.0921C14.1531 14.0133 14.1341 13.936 14.1001 13.8648C14.0663 13.7938 14.0181 13.7304 13.9586 13.6787C13.8992 13.6269 13.8297 13.5879 13.7546 13.5641C13.6796 13.5402 13.6004 13.5321 13.522 13.5401C13.106 13.5401 12.738 13.758 12.342 14.024C12.52 13.656 12.642 13.438 12.86 13.438C12.8943 13.4397 12.9285 13.4444 12.962 13.4521C12.88 13.152 12.574 12.8521 12.41 12.8521" fill="white"/>
<path d="M23.8741 17.7762C24.216 17.7762 24.49 18.2182 24.49 18.7362C24.4838 19.0323 24.4164 19.3238 24.2921 19.5926C24.1679 19.8614 23.9895 20.1016 23.768 20.2982C23.768 19.3782 22.6341 19.6703 22.6341 19.0022C22.6308 18.941 22.64 18.8796 22.6613 18.8219C22.6825 18.7643 22.7153 18.7116 22.7576 18.667C22.7999 18.6225 22.8508 18.587 22.9073 18.5628C22.9638 18.5386 23.0246 18.5262 23.086 18.5263C23.1791 18.5204 23.2724 18.5337 23.3601 18.5654C23.4478 18.597 23.5281 18.6464 23.596 18.7103C23.5374 18.6539 23.4908 18.5861 23.4592 18.5111C23.4276 18.4362 23.4116 18.3556 23.412 18.2742C23.4073 18.2107 23.4158 18.1469 23.4369 18.0867C23.458 18.0266 23.4913 17.9714 23.5346 17.9247C23.578 17.878 23.6305 17.8406 23.6888 17.8151C23.7473 17.7896 23.8103 17.7763 23.8741 17.7762Z" fill="white"/>
<path d="M18.8159 10.8C18.7203 10.7101 18.5931 10.6613 18.4619 10.664C18.3394 10.6606 18.2193 10.6981 18.1205 10.7705C18.0216 10.8429 17.9496 10.9462 17.916 11.064C17.8742 10.9607 17.8595 10.8484 17.8731 10.7378C17.8868 10.6272 17.9284 10.5219 17.9941 10.4318C18.0597 10.3418 18.1472 10.2699 18.2483 10.2231C18.3494 10.1762 18.4608 10.1559 18.572 10.164C18.8127 10.1733 19.045 10.2555 19.2379 10.4C19.3059 10.4 19.3759 10.33 19.4379 10.33C19.5 10.33 19.5119 10.4459 19.5119 10.53C19.5119 10.804 19.3899 11.274 19.084 11.444C19.0119 11.2985 18.8907 11.183 18.7419 11.1179C18.7219 11.1095 18.7048 11.0953 18.6927 11.0771C18.6807 11.059 18.6742 11.0378 18.6739 11.016C18.6778 10.971 18.6928 10.9277 18.7176 10.89C18.7424 10.8523 18.7762 10.8214 18.8159 10.8ZM17.786 11.298C17.8521 11.3726 17.933 11.4328 18.0235 11.4747C18.114 11.5167 18.2122 11.5396 18.3119 11.5419C18.388 11.5419 18.476 11.522 18.524 11.522C18.572 11.522 18.6259 11.5499 18.6259 11.5979C18.6102 11.702 18.5568 11.7966 18.476 11.864C18.5606 11.8975 18.6509 11.9138 18.7419 11.912C18.8549 11.9168 18.9676 11.8977 19.0727 11.8558C19.1776 11.8139 19.2726 11.7502 19.3512 11.669C19.4298 11.5877 19.4904 11.4907 19.5288 11.3844C19.5671 11.278 19.5825 11.1647 19.5739 11.052C19.6526 11.1843 19.6973 11.3341 19.7039 11.488C19.7039 12.232 19.156 12.5179 18.6539 12.5179C18.4701 12.5123 18.289 12.4722 18.1199 12.4C17.9919 12.4 17.9979 12.66 17.9199 12.6539C17.762 12.626 17.62 12.2779 17.62 11.9099C17.6145 11.6903 17.6759 11.4741 17.796 11.29" fill="white"/>
<path d="M11.9499 6.96018C11.9499 6.92018 11.7499 6.87818 11.466 6.87818C11.0219 6.87818 11.0839 7.24819 10.7419 7.24819C10.4 7.24819 10.4759 6.86418 10.026 6.86418C9.75397 6.86418 9.50193 6.91218 9.50193 6.97418C9.50193 7.03618 9.82193 7.02218 9.82193 7.24819C9.82193 7.47418 9.13397 7.55418 9.13397 7.69818C9.13397 7.74418 9.18797 7.76618 9.25597 7.76618C9.40597 7.76618 9.64395 7.69818 9.816 7.69818C9.90993 7.69818 10 7.71818 10 7.80618C10 7.97618 9.632 8.28418 9.632 8.42018C9.632 8.46018 9.66597 8.47418 9.69995 8.47418C9.83595 8.47418 10.0679 8.12618 10.2859 8.12618C10.648 8.12618 10.408 8.89818 10.6059 8.89818C10.8039 8.89818 10.722 8.14018 11.0059 8.14018C11.2439 8.14018 11.4219 8.66618 11.586 8.66618C11.5962 8.66566 11.6063 8.66314 11.6155 8.65874C11.6248 8.65434 11.6331 8.64815 11.64 8.64053C11.6469 8.63292 11.6521 8.62402 11.6556 8.61435C11.659 8.60468 11.6605 8.59443 11.6599 8.58418C11.6599 8.44018 11.4599 8.14818 11.4599 7.95618C11.4599 7.84018 11.5419 7.78618 11.6599 7.78618C11.818 7.78618 12.0279 7.88018 12.144 7.88018C12.186 7.88018 12.226 7.86818 12.226 7.82018C12.226 7.65618 11.626 7.47818 11.626 7.26818C11.626 7.05818 11.96 7.05618 11.96 6.96018H11.9499ZM13.56 7.65618C13.56 7.77818 13.9899 8.04418 14.1879 8.04418C14.304 8.04418 14.338 7.88818 14.338 7.72418C14.338 7.52418 14.25 7.51218 14.072 7.51218C13.8459 7.51218 13.56 7.57418 13.56 7.65618ZM14.2619 9.00018C14.2619 8.59018 13.1559 7.84818 13.1419 7.52818C13.1442 7.49555 13.1584 7.4649 13.1819 7.44218C13.3819 7.24218 14.1579 7.09818 14.1579 6.92818C14.1579 6.83818 13.9959 6.83818 13.914 6.83818C13.28 6.83818 12.352 7.07018 12.352 7.29618C12.352 7.52218 13.184 8.09618 13.184 8.37418C13.184 8.44818 13.136 8.47618 13.0599 8.47618C12.8299 8.47618 12.3239 8.19618 12.0859 8.19618C11.976 8.19618 11.936 8.27018 11.936 8.38018C11.936 8.70818 12.3239 9.32818 12.3239 9.51217C12.3239 9.53221 12.3239 9.56017 12.29 9.56017C12.168 9.56017 11.5879 8.87818 11.384 8.87818C11.3079 8.87818 11.3019 8.98018 11.3019 9.13018V9.36218C11.3019 9.51819 11.3019 9.61419 11.2199 9.61419C11.042 9.61419 10.96 9.11618 10.7899 9.11618C10.6199 9.11618 10.5799 10.0002 10.4 10.0002C10.2199 10.0002 10.3739 9.02618 10.1819 9.02618C9.98993 9.02618 9.73195 9.67414 9.58193 9.67414C9.528 9.67414 9.51397 9.61814 9.51397 9.57014C9.51397 9.37018 9.62993 9.05218 9.62993 8.86218C9.62993 8.76618 9.60197 8.71218 9.52197 8.71218C9.30997 8.71218 8.84597 9.05218 8.66797 9.05218C8.64197 9.05218 8.60797 9.04018 8.60797 9.01218C8.60797 8.84818 9.34997 8.33018 9.34997 8.09818C9.34997 7.86618 8.32797 8.02418 8.32797 7.76418C8.32797 7.54618 9.05797 7.32018 9.05797 7.09618C9.05797 6.87218 8.19197 6.81018 7.85797 6.81018C7.45797 6.81018 7.23598 6.85619 7.23598 6.97219C7.23598 7.15018 8.14997 7.20618 8.14997 7.37218C8.14997 7.53818 7.20197 7.92418 7.20197 8.15618C7.20197 8.38818 8.53797 8.17018 8.53797 8.38018C8.53797 8.59018 7.37397 9.61419 7.37397 9.94821C7.37397 10.0242 7.42797 10.0581 7.50197 10.0581C7.85797 10.0581 8.77797 9.38418 9.02997 9.38418C9.11797 9.38418 9.12597 9.49221 9.12597 9.58417C9.12597 9.76214 9.06397 10.0341 9.06397 10.2322C9.06397 10.3882 9.10597 10.4981 9.24197 10.4981C9.49393 10.4981 9.72593 10.0682 9.896 10.0682C10.114 10.0682 9.984 11.3301 10.312 11.3301C10.592 11.3301 10.712 9.96619 10.8839 9.96619C11.056 9.96619 11.2059 10.3662 11.368 10.3662C11.568 10.3662 11.4779 9.67621 11.696 9.67621C11.914 9.67621 12.616 10.4942 12.9239 10.4942C13.018 10.4942 13.0519 10.4202 13.0519 10.3242C13.0519 9.96214 12.5479 9.14418 12.5479 8.88618C12.5479 8.81818 12.568 8.79618 12.6439 8.79618C12.9099 8.79618 13.688 9.16618 14.056 9.16618C14.178 9.16618 14.256 9.09618 14.256 9.00818L14.2619 9.00018ZM8.02997 8.60818C8.02997 8.74618 7.51197 9.20818 7.32797 9.20818C7.25997 9.20818 7.23797 9.12618 7.23797 9.05218C7.23387 8.90651 7.28292 8.76433 7.37598 8.65218C7.50943 8.56525 7.66688 8.52256 7.82597 8.53018C7.91997 8.53018 8.02597 8.55018 8.02597 8.60418L8.02997 8.60818ZM13.0379 9.30618C13.0379 9.54614 13.89 10.7061 14.0539 10.7061C14.218 10.7061 14.2919 10.4682 14.2919 10.2622C14.2925 10.2095 14.2787 10.1576 14.2519 10.1122C14.128 9.94219 13.2519 9.26018 13.072 9.26018C13.0671 9.26042 13.0622 9.26166 13.0578 9.26384C13.0535 9.26601 13.0495 9.26907 13.0463 9.27282C13.0431 9.27657 13.0407 9.28093 13.0393 9.28563C13.0378 9.29034 13.0375 9.29529 13.0379 9.30018" fill="white"/>
<path d="M24 7.24793C23.9997 7.27033 24.0039 7.29257 24.0123 7.31331C24.0208 7.33405 24.0333 7.3529 24.0491 7.36874C24.0649 7.38458 24.0839 7.39709 24.1046 7.40554C24.1254 7.414 24.1476 7.4182 24.17 7.41794C24.2041 7.41833 24.2377 7.40853 24.2663 7.38979C24.2949 7.37104 24.3172 7.3442 24.3305 7.31269C24.3437 7.28118 24.3473 7.24643 24.3407 7.21289C24.3341 7.17933 24.3177 7.1485 24.2936 7.12433C24.2694 7.10015 24.2386 7.08373 24.205 7.07716C24.1715 7.07058 24.1368 7.07416 24.1052 7.08743C24.0737 7.10069 24.0469 7.12304 24.0281 7.15163C24.0093 7.18023 23.9995 7.21375 24 7.24793ZM22.8879 8.75394C22.8879 8.26994 21.73 8.15394 21.73 8.03794C21.73 7.92194 22.3759 7.79993 22.7099 7.79993C22.1979 7.14594 21.4699 7.21394 21.4699 7.09794C21.4699 7.02994 22.0139 6.89794 22.5179 6.89794C22.9419 6.89794 23.338 6.99193 23.338 7.31394C23.338 7.48994 23.194 7.67394 23.194 7.94793C23.1897 7.98523 23.1937 8.02303 23.2058 8.05857C23.218 8.0941 23.2379 8.12647 23.2642 8.15331C23.2905 8.18014 23.3224 8.20077 23.3577 8.21368C23.3929 8.2266 23.4306 8.23146 23.468 8.22793C23.668 8.22793 23.7259 8.00194 23.7259 7.76393C23.7259 7.56393 23.692 7.41593 23.692 7.31993C23.6885 7.25652 23.6985 7.19307 23.7211 7.13376C23.7438 7.07444 23.7787 7.02057 23.8236 6.97565C23.8686 6.93074 23.9225 6.89579 23.9817 6.8731C24.0411 6.85041 24.1046 6.84047 24.168 6.84393C24.4 6.84393 24.4539 6.94393 24.796 6.94393C24.7255 6.98608 24.6659 7.04426 24.6221 7.11377C24.5783 7.18328 24.5515 7.26214 24.544 7.34393C24.544 7.62994 24.728 7.82793 24.728 8.41394C24.728 9.49193 23.7279 9.87395 22.484 9.87395C22.1305 9.87282 21.7774 9.84543 21.428 9.79197C21.3739 9.79197 21.3599 9.77192 21.3599 9.73795C21.3599 9.64797 21.844 9.59997 21.844 9.16393C21.8337 9.02968 21.8156 8.89612 21.7899 8.76393C21.7899 8.74962 21.7957 8.73588 21.8057 8.72575C21.8159 8.71562 21.8297 8.70994 21.844 8.70994C21.946 8.70994 22.1519 9.10994 22.532 9.10994C22.579 9.11447 22.6265 9.10862 22.6712 9.09282C22.7158 9.07703 22.7563 9.05164 22.7901 9.01848C22.8238 8.98531 22.8499 8.94516 22.8665 8.90084C22.883 8.85652 22.8897 8.8091 22.8859 8.76194L22.8879 8.75394ZM24.0379 8.07394C24.0379 8.67394 23.596 9.14393 22.7979 9.27394C22.8859 9.27394 22.9679 9.27394 23.05 9.27394C23.984 9.27394 24.3259 8.85193 24.3259 8.49593C24.3304 8.40311 24.3048 8.31133 24.2529 8.23423C24.2009 8.15713 24.1257 8.09881 24.0379 8.06793" fill="white"/>
<path d="M23.5701 16.8535C23.685 16.5189 23.8423 16.2003 24.038 15.9056C23.816 15.7916 23.222 15.5456 23.222 15.1415C23.222 14.6716 23.808 14.3036 23.9301 14.3036C23.984 14.3036 23.998 14.3516 23.998 14.4396C23.998 14.6855 23.8821 15.0816 23.8821 15.2935C23.8821 15.5056 24.004 15.6675 24.1141 15.6675C24.224 15.6675 24.55 15.2675 24.55 14.8556C24.5567 14.6228 24.4746 14.3963 24.3206 14.2217C24.1665 14.0472 23.9518 13.9377 23.72 13.9155C23.536 13.9155 23.2 14.2156 22.416 14.2156C20.95 14.2156 20.616 12.7635 20.616 12.1296C20.616 12.1015 20.616 12.0956 20.63 12.0956C20.8192 12.2225 21.0446 12.2842 21.272 12.2716C21.51 12.2716 21.728 12.2115 22.072 12.2115C22.8901 12.2115 23.252 12.7776 23.756 13.4995C24.062 13.6995 24.792 13.9975 24.792 14.8636C24.792 15.6275 23.98 16.0496 23.792 16.8636C24.104 16.8295 24.288 16.2636 24.608 16.2636C24.774 16.2636 24.848 16.3936 24.848 16.5996C24.8375 16.7953 24.788 16.9872 24.7025 17.1636C24.617 17.3402 24.4972 17.4978 24.35 17.6275C24.3535 17.5937 24.3535 17.5595 24.35 17.5255C24.35 17.3255 24.276 17.0636 24.056 17.0636C23.718 17.0636 23.608 17.4316 23.416 17.7376C23.216 17.0416 22.9541 16.4135 22.476 16.0336C21.998 15.6535 21.16 15.8556 21.16 15.1456C21.16 14.9456 21.2821 14.6816 21.2821 14.4636C21.2869 14.3927 21.2679 14.3223 21.228 14.2636C21.884 14.5095 21.652 14.9456 22.054 15.3955C22.3061 15.6835 23 15.9555 23.404 17.1356C23.412 17.0745 23.416 17.013 23.416 16.9516C23.416 15.9516 22.0821 14.9516 21.966 14.5516C22.742 14.6416 22.878 14.8316 23.246 15.8556C23.3221 16.0556 23.568 16.5916 23.568 16.8556L23.5701 16.8535ZM23.4 13.5475C23.4 13.4035 23.038 13.3895 23 12.9875C23 12.9276 22.972 12.8176 22.8981 12.8176C22.774 12.8176 22.87 13.1936 22.734 13.1936C22.42 13.1936 22.318 12.5795 22.2021 12.5795C22.174 12.5795 22.142 12.5996 22.142 12.6816C22.142 12.7635 22.156 12.8035 22.156 12.8816C22.156 12.9596 22.134 13.0316 22.054 13.0316C21.87 13.0316 21.7061 12.6035 21.548 12.6035C21.5319 12.6018 21.5158 12.6065 21.503 12.6166C21.4903 12.6268 21.4821 12.6415 21.48 12.6576C21.48 12.7395 21.616 12.8896 21.616 12.9635C21.616 13.1276 21.172 13.0396 21.172 13.1756C21.172 13.2375 21.2341 13.2576 21.316 13.2576C21.46 13.2576 21.684 13.1955 21.8 13.1955C21.87 13.1955 21.972 13.2096 21.972 13.2976C21.972 13.3856 21.726 13.5155 21.726 13.6055C21.7281 13.6232 21.7369 13.6395 21.7508 13.6507C21.7646 13.6619 21.7823 13.6673 21.8 13.6656C21.984 13.6656 22.312 13.3456 22.544 13.3456C22.584 13.3456 22.686 13.3676 22.686 13.4275C22.686 13.4876 22.454 13.6736 22.454 13.8035C22.4529 13.8215 22.4587 13.8392 22.4702 13.8529C22.4818 13.8667 22.4982 13.8755 22.516 13.8775C22.638 13.8775 22.8021 13.5575 23.0341 13.5575C23.124 13.5575 23.252 13.5916 23.32 13.5916C23.388 13.5916 23.396 13.5575 23.396 13.5376" fill="white"/>
<path d="M18.312 9.46249C18.422 9.46249 18.442 9.73054 18.462 9.8865C18.4759 9.96847 18.49 9.9745 18.5239 9.9745C18.606 9.9745 18.7239 9.66052 18.822 9.66052C18.952 9.66052 19.2999 10.0225 19.88 10.0225C20.0919 10.0292 20.303 9.99238 20.5 9.91426C20.6972 9.83624 20.8762 9.71859 21.0262 9.56866C21.1761 9.41873 21.2937 9.23972 21.3718 9.04259C21.4498 8.84545 21.4867 8.63442 21.48 8.4225C21.48 7.4345 20.784 6.8545 19.824 6.8545C19.366 6.8545 19.024 7.0785 18.854 7.0785C18.7479 7.0785 18.582 6.8125 18.502 6.8125C18.4679 6.8125 18.432 6.8805 18.432 6.9965C18.432 7.0725 18.432 7.3105 18.352 7.3105C18.186 7.3105 17.552 6.8405 17.552 7.0105C17.552 7.1805 17.974 7.6445 17.974 7.7685C17.974 7.8925 17.558 8.0065 17.558 8.0885C17.558 8.2385 18 8.2645 18 8.4565C18 8.6485 17.5399 8.8005 17.5399 8.9385C17.5399 9.0765 18.0039 8.9725 18.0039 9.1165C18.0039 9.2605 17.664 9.73647 17.664 9.87247C17.664 9.90654 17.664 9.90654 17.698 9.90654C17.8279 9.90654 18.216 9.46249 18.312 9.46249ZM18.512 8.3445C18.512 8.2705 18.246 8.12651 18.246 8.0445C18.246 8.0325 18.2599 8.0245 18.28 8.0245C18.3559 8.0245 18.48 8.0525 18.5879 8.0525C18.696 8.0525 18.69 7.6705 18.7559 7.6705C18.822 7.6705 18.886 8.0325 18.9559 8.0325C19.026 8.0325 19.208 7.9285 19.2759 7.9285C19.2791 7.92823 19.2823 7.92858 19.2854 7.92954C19.2884 7.9305 19.2911 7.93205 19.2935 7.93409C19.296 7.93613 19.298 7.93864 19.2994 7.94145C19.3009 7.94427 19.3017 7.94734 19.302 7.9505C19.302 7.9985 19.1319 8.1805 19.1319 8.2365C19.1319 8.2925 19.514 8.3725 19.514 8.4365C19.514 8.5005 19.126 8.49849 19.126 8.5605C19.126 8.62249 19.2679 8.7985 19.2679 8.8605C19.2683 8.8632 19.268 8.86595 19.2671 8.86852C19.2663 8.87109 19.2647 8.87343 19.2629 8.87535C19.2609 8.87728 19.2585 8.87874 19.256 8.87963C19.2535 8.88053 19.2507 8.88082 19.248 8.8805C19.194 8.8805 18.982 8.7845 18.92 8.7845C18.858 8.7845 18.72 9.0645 18.662 9.0645C18.642 9.0645 18.6279 9.0365 18.6279 9.0025L18.6199 8.7205C18.6199 8.6925 18.606 8.6645 18.5719 8.6645H18.2839C18.25 8.6645 18.2359 8.6645 18.2359 8.6445C18.2359 8.5905 18.51 8.3985 18.51 8.3505L18.512 8.3445ZM19.84 9.64047C19.362 9.64047 19.04 9.4025 19.04 9.2785C19.0391 9.26539 19.041 9.25226 19.0455 9.23992C19.05 9.22757 19.0568 9.21626 19.0659 9.2067C19.0749 9.19714 19.0857 9.18954 19.0978 9.18434C19.1098 9.17914 19.1228 9.17647 19.136 9.1765C19.286 9.1765 19.6119 9.4085 19.722 9.4085C19.75 9.4085 19.77 9.3945 19.77 9.3545C19.77 9.2325 19.654 9.02649 19.654 8.9245C19.654 8.89849 19.674 8.8765 19.7159 8.8765C19.8999 8.8765 20.1719 8.9525 20.3159 8.9525C20.3639 8.9525 20.378 8.9245 20.378 8.8985C20.378 8.7485 19.934 8.4545 19.934 8.3665C19.934 8.2785 20.486 8.1665 20.486 8.0325C20.486 7.8985 19.736 7.9905 19.736 7.8605C19.736 7.7665 19.88 7.6025 19.88 7.5265C19.88 7.4925 19.8519 7.4785 19.8039 7.4785C19.631 7.53075 19.4554 7.57414 19.278 7.6085C19.21 7.6085 19.128 7.5945 19.128 7.5005C19.128 7.3425 19.394 7.1725 19.81 7.1725C20.486 7.1725 20.888 7.6365 20.888 8.4125C20.888 9.3945 20.2 9.64047 19.832 9.64047" fill="white"/>
<path d="M15.222 21.436C15.221 21.5093 15.1948 21.5799 15.148 21.636C15.1032 21.5765 15.0456 21.5275 14.9796 21.493C14.9135 21.4583 14.8406 21.439 14.766 21.436C14.064 21.436 14.3301 22.452 13.58 22.452C13.4266 22.4483 13.2737 22.435 13.1221 22.412C13.0741 22.412 13.048 22.4321 13.048 22.4721C13.048 22.6501 13.3 23.0861 14.0021 23.0861C14.704 23.0861 15.38 22.6581 15.38 22.124C15.3788 22.0281 15.3576 21.9335 15.318 21.8461C15.3376 21.8237 15.362 21.806 15.3894 21.7943C15.4167 21.7825 15.4463 21.7769 15.476 21.7781C15.584 21.7781 15.646 21.9 15.748 21.9C15.7749 21.9022 15.8018 21.8984 15.827 21.8891C15.8522 21.8798 15.8751 21.8652 15.8941 21.8462C15.9131 21.8272 15.9278 21.8042 15.9371 21.779C15.9464 21.7538 15.9501 21.7269 15.948 21.7C15.9509 21.6574 15.9399 21.6151 15.9169 21.579C15.8939 21.5431 15.8599 21.5154 15.82 21.5C15.8487 21.4786 15.8719 21.4508 15.8882 21.4189C15.9046 21.387 15.9133 21.3519 15.9141 21.316C15.9151 21.2869 15.9102 21.2578 15.8998 21.2305C15.8892 21.2032 15.8733 21.1783 15.853 21.1575C15.8326 21.1365 15.8082 21.1199 15.7812 21.1086C15.7543 21.0974 15.7253 21.0918 15.696 21.092C15.6678 21.0919 15.6398 21.0976 15.6139 21.109C15.5881 21.1204 15.565 21.1371 15.5461 21.1581C15.534 21.036 15.464 20.9201 15.336 20.9201C15.3106 20.9195 15.2854 20.9245 15.262 20.9347C15.2387 20.9449 15.2178 20.96 15.2009 20.979C15.184 20.998 15.1714 21.0205 15.1639 21.0448C15.1566 21.0692 15.1545 21.0949 15.158 21.1201C15.158 21.228 15.232 21.3201 15.232 21.4321" fill="white"/>
<path d="M13.388 21.6959C13.188 21.6959 12.876 21.4778 12.876 21.3539C12.8786 21.3106 12.8981 21.2699 12.9303 21.2408C12.9624 21.2117 13.0047 21.1962 13.048 21.1978C13.2181 21.1978 13.524 21.4099 13.524 21.5978C13.524 21.6438 13.4901 21.7059 13.388 21.7059V21.6959ZM11.486 20.1798C12.032 20.3139 12.304 20.6079 12.358 20.9558C12.3767 21.2214 12.4634 21.4776 12.6101 21.6998C12.8217 21.9165 13.1075 22.0452 13.4101 22.0598C13.654 22.0598 13.852 21.9798 13.852 21.7539C13.852 21.5279 13.518 20.9539 13.0261 20.9539C12.98 20.9539 12.918 20.9539 12.8501 20.9539C12.7784 20.956 12.708 20.9342 12.6501 20.8918C12.54 20.7958 12.5061 20.2918 12.302 19.9779C12.2228 19.8377 12.1058 19.7226 11.9643 19.6455C11.823 19.5685 11.6628 19.5326 11.502 19.5418C11.264 19.5418 10.998 19.6719 10.998 19.8618C10.998 19.9779 11.06 20.0618 11.496 20.1699" fill="white"/>
<path d="M14.9101 19.3357C14.9101 19.0297 14.2741 19.0237 14.2741 18.5597C14.3003 18.3672 14.3784 18.1853 14.5 18.0337C14.5099 18.1815 14.564 18.3229 14.6553 18.4395C14.7466 18.5562 14.871 18.6426 15.012 18.6877C15.612 18.9137 15.7 19.2537 15.7 19.6157C15.7 20.2297 15.2701 20.9937 14.1661 20.9937C13.7754 20.9859 13.402 20.8314 13.12 20.5609C12.838 20.2904 12.6681 19.9237 12.644 19.5337C12.644 19.3497 12.692 19.1457 12.8081 19.1457C12.924 19.1457 12.9461 19.2277 13.0261 19.3097C13.3341 19.6157 13.668 19.6977 14.1521 19.6977C14.588 19.6977 14.9101 19.5197 14.9101 19.3357ZM14.9361 19.8277C14.7021 19.9337 14.6101 19.9157 14.6101 20.1557C14.6101 20.2437 14.588 20.3557 14.588 20.4197C14.588 20.4837 14.6021 20.5497 14.6981 20.5497C14.9441 20.5497 15.332 20.1337 15.332 19.7797C15.332 19.6837 15.2781 19.6437 15.2161 19.6437C15.1541 19.6437 15.1 19.7517 14.9361 19.8277ZM12.7601 16.3837C12.7601 15.9477 13.7981 15.7157 13.7981 15.1837C13.7924 15.0575 13.7596 14.9341 13.7021 14.8217C14.0641 15.0217 14.3301 15.3537 14.3301 15.6217C14.3301 16.0937 13.8381 16.3117 13.8381 16.6037C13.8381 16.9457 14.364 17.0037 14.364 17.4217C14.364 17.7697 13.8661 18.1717 13.8661 18.6217C13.8654 18.7923 13.9287 18.957 14.0434 19.0833C14.1582 19.2095 14.3161 19.2882 14.4861 19.3037C14.3723 19.333 14.2555 19.3491 14.1381 19.3517C13.4501 19.3517 12.7381 18.7857 12.7381 18.1117C12.7388 17.9545 12.7712 17.7992 12.8334 17.6548C12.8956 17.5104 12.9863 17.3801 13.1 17.2717C13.2359 17.4102 13.4101 17.5049 13.6001 17.5437C13.7101 17.5437 13.7581 17.4897 13.7581 17.4077C13.7581 17.1537 12.7581 16.9237 12.7581 16.3837" fill="white"/>
<path d="M8.79997 19.7521C8.81544 19.8676 8.8757 19.9725 8.96774 20.0439C9.05979 20.1153 9.17624 20.1478 9.29197 20.1342C9.37078 20.1285 9.44734 20.1053 9.51596 20.0661C9.53685 20.1741 9.59925 20.2695 9.68979 20.332C9.78024 20.3944 9.89167 20.4189 10 20.4001C10.0585 20.3965 10.1158 20.3809 10.168 20.3543C10.2203 20.3278 10.2666 20.2908 10.3041 20.2456C10.3416 20.2004 10.3694 20.1481 10.3859 20.0918C10.4024 20.0354 10.4072 19.9764 10.4 19.9182C10.3947 19.8638 10.3813 19.8105 10.36 19.7601C10.3793 19.7615 10.3987 19.7615 10.418 19.7601C10.5323 19.7452 10.6366 19.6867 10.7092 19.597C10.7818 19.5073 10.8171 19.3932 10.808 19.2782C10.8021 19.1996 10.775 19.1241 10.7294 19.0598C10.6839 18.9955 10.6217 18.9448 10.5496 18.9132C10.4774 18.8815 10.398 18.8701 10.3198 18.8801C10.2417 18.8901 10.1677 18.9213 10.106 18.9701C10.0806 18.8589 10.0147 18.7611 9.92123 18.6957C9.82767 18.6302 9.71323 18.6019 9.6 18.6161C9.48565 18.6339 9.38286 18.6959 9.31369 18.7886C9.24451 18.8814 9.21445 18.9975 9.22997 19.1121C9.2344 19.1589 9.24587 19.2048 9.26397 19.2481L9.19596 19.2581C9.07926 19.2741 8.97313 19.3343 8.89946 19.4262C8.82578 19.5181 8.79017 19.6348 8.79997 19.7521ZM10.074 19.4842C10.0803 19.5359 10.0709 19.5883 10.0471 19.6346C10.0232 19.6809 9.98607 19.719 9.94033 19.744C9.89459 19.7689 9.84245 19.7795 9.79059 19.7744C9.73873 19.7694 9.6896 19.7488 9.6496 19.7155C9.60951 19.6822 9.58043 19.6376 9.56603 19.5875C9.55163 19.5376 9.55257 19.4843 9.56875 19.4348C9.58504 19.3853 9.61572 19.3418 9.65694 19.3099C9.69817 19.2781 9.74796 19.2593 9.8 19.2561C9.86833 19.2482 9.93713 19.2678 9.99116 19.3106C10.0451 19.3534 10.0799 19.4158 10.088 19.4842" fill="white"/>
</svg>
