<svg width="32" height="32" viewBox="0 0 32 32" fill="none" xmlns="http://www.w3.org/2000/svg">
<path d="M0 16C0 24.8365 7.16344 32 16 32C24.8365 32 32 24.8365 32 16C32 7.16344 24.8365 0 16 0C7.16344 0 0 7.16344 0 16Z" fill="#F7981D"/>
<path d="M21.3261 17.5419C21.2298 17.1487 21.0959 16.7655 20.9261 16.3979C20.9261 16.3979 21.0001 16.3239 21.1481 16.4159C21.2961 16.5079 22.2361 17.1539 22.2361 17.1539C22.7161 17.8559 23.0101 20.7339 23.0361 21.7679C22.4999 21.5293 22.0024 21.2117 21.5601 20.8259L21.3401 17.5419H21.3261ZM18.4821 14.8639C17.7326 14.0584 17.0479 13.195 16.4341 12.2819C16.8341 11.5059 17.1361 9.45594 16.9501 8.66391C16.8781 8.42191 16.2121 7.53791 16.1021 7.40791C15.9361 7.24191 15.4001 6.63191 15.1421 6.63191C15.0958 6.63073 15.0504 6.64401 15.0121 6.66991L15.0861 7.35191C14.3661 7.81391 13.4261 8.44191 12.5761 9.06991C12.5761 9.31373 12.5888 9.5574 12.6141 9.79995C12.7434 9.91355 12.8936 10.0011 13.0561 10.0579C13.3881 10.0019 14.4221 9.74395 14.6981 9.7799L13.6841 11.3199L12.5201 12.1519L11.0621 11.6899C11.0192 11.6779 10.9737 11.6785 10.9312 11.6916C10.8887 11.7048 10.8507 11.7298 10.8221 11.7639L9.7521 12.9279C9.71925 12.9577 9.69384 12.9947 9.67784 13.036C9.66184 13.0773 9.65582 13.1218 9.66005 13.1659L9.62212 14.4779C9.62212 14.4779 9.60405 14.6779 9.60405 14.9019C9.60405 15.8419 10.0281 16.2859 10.0281 16.2859L10.7301 15.2699C10.602 15.0375 10.5026 14.7903 10.4341 14.5339C10.4341 14.4959 10.4521 13.4059 10.4521 13.4059L11.1361 12.9079L12.9461 14.1819C13.2281 14.7017 13.5554 15.1956 13.9241 15.6579C14.2361 16.0459 15.8061 17.0979 16.5621 17.5419C16.6522 18.0233 16.7758 18.4977 16.9321 18.9619L19.1481 21.2319L17.8361 22.8739C17.3761 23.1699 16.9321 23.7059 16.9681 24.2039H18.4821L18.6481 23.3359L20.4581 21.3259C20.5501 21.2139 20.5501 21.1579 20.4961 20.9919L19.9781 19.2579C20.2361 18.9619 20.7901 18.2239 20.7901 17.3379C20.7901 15.7379 19.0361 15.3259 18.4821 14.8639ZM10.3241 11.5599C10.2681 11.5799 8.92408 11.9479 8.92408 11.9479C8.61122 12.0655 8.30826 12.208 8.01809 12.3739C7.74209 12.5579 7.42808 12.8719 7.41809 13.0379L8.61809 13.3139C8.79566 13.1099 8.98747 12.9188 9.19208 12.7419L9.46805 12.6139L10.4681 11.5979C10.4529 11.5796 10.4327 11.5663 10.4099 11.5595C10.3871 11.5527 10.3628 11.5529 10.3401 11.5599H10.3241ZM16.0001 21.9339L17.6981 20.3099L18.4001 21.0119L16.5721 22.5619C16.4345 22.7716 16.3174 22.9939 16.2221 23.2259H14.8641C14.9401 22.7279 15.6401 22.0999 15.9901 21.9339H16.0001ZM25.0281 25.3679H6.98209V24.7679H25.0181L25.0281 25.3679Z" fill="black"/>
</svg>
