<svg width="32" height="32" viewBox="0 0 32 32" fill="none" xmlns="http://www.w3.org/2000/svg">
<path d="M0 16C0 24.8365 7.16344 32 16 32C24.8365 32 32 24.8365 32 16C32 7.16344 24.8365 0 16 0C7.16344 0 0 7.16344 0 16Z" fill="#295EB9"/>
<g clip-path="url(#clip0)">
<path d="M6.82889 15.6428C6.19112 15.4307 5.53661 15.2726 4.8723 15.1703L3 16.664C3.97087 16.6631 4.93713 16.7975 5.87091 17.0633L6.82889 15.6428ZM6.99557 15.3904L8.60035 13.0045H7.58932L5.17858 14.9279C5.79539 15.0366 6.40286 15.1929 6.99557 15.3953V15.3904ZM8.76402 13.0045L7.32857 15.5168C7.82092 15.7001 8.30112 15.9145 8.76628 16.1587V13.0045H8.76402ZM3 15.0265V16.0778L4.37977 15.1048C3.92176 15.0518 3.46106 15.0257 3 15.0265ZM3 13.0045V14.4426L6.06657 13.0045H3ZM3 14.7353C3.5783 14.7361 4.15585 14.7767 4.72857 14.8568L7.33158 13.0041H6.37624L3 14.7383V14.7353ZM8.77569 18.7817C7.98404 18.2351 7.11876 17.8037 6.20579 17.5005L5.47169 18.7817H8.77569ZM8.77569 16.4864C8.26542 16.2095 7.7359 15.9696 7.19123 15.7685L6.36344 17.2217C7.21447 17.5123 8.02506 17.9101 8.77569 18.4054V16.4864ZM3 16.985V18.7817H4.72104L5.68654 17.3413C4.81108 17.1025 3.90745 16.9826 3 16.985Z" fill="white"/>
<path d="M28.99 18.17C28.9321 18.1745 28.8738 18.1745 28.8158 18.17C28.6465 18.17 28.5957 18.0789 28.5957 17.8516V15.7009C28.5957 14.8137 27.7341 14.4803 26.9153 14.4803H26.7407C26.1673 14.5029 25.6213 14.6545 25.3053 15.0515C25.1169 15.2738 25.0053 15.5509 24.9869 15.8416C24.9847 15.8491 24.9847 15.8571 24.9869 15.8646C24.9934 15.8723 25.0023 15.8776 25.0122 15.8796H25.8919C25.893 15.8713 25.893 15.8628 25.8919 15.8544C25.9423 15.4499 26.2632 15.2479 26.7197 15.2249H26.8156C27.1896 15.2249 27.6852 15.3133 27.6852 15.7935C27.6852 16.0869 27.5132 16.2006 27.2502 16.2638C27.0684 16.2939 26.8209 16.3195 26.492 16.3767H26.4265C25.6454 16.4651 24.8086 16.6295 24.8086 17.6857C24.8086 18.5048 25.4911 18.9116 26.2467 18.9116C26.7775 18.927 27.2955 18.7467 27.7021 18.4051C27.7751 18.7867 28.043 18.9104 28.417 18.9104C28.6063 18.9004 28.7939 18.8682 28.9757 18.8145C28.9839 18.8067 28.9903 18.7973 28.9947 18.7868C28.999 18.7764 29.0011 18.7652 29.001 18.7539V18.1978C28.9982 18.1893 28.9927 18.182 28.9853 18.177C28.978 18.172 28.9692 18.1695 28.9603 18.17H28.99ZM26.5876 18.17C26.2614 18.17 25.7331 18.0488 25.7331 17.6315C25.7331 17.1465 26.092 16.9998 26.4913 16.9343C26.8905 16.8688 27.3431 16.8684 27.6287 16.6814V17.3715C27.6287 17.9577 26.9943 18.17 26.5876 18.17Z" fill="white"/>
<path d="M17.0335 17.4805H16.2121C16.2047 17.4782 16.1968 17.4782 16.1895 17.4805C16.1786 17.4865 16.1704 17.4965 16.1665 17.5083V17.5339C16.1099 17.7028 16.006 17.8519 15.8671 17.9634C15.7283 18.0749 15.5603 18.1442 15.3831 18.163C15.307 18.1735 15.2301 18.1785 15.1533 18.1781C14.3823 18.1781 14.0245 17.5945 14.0245 16.9364H17.1531V16.8732C17.152 16.8682 17.152 16.8631 17.1531 16.8581V16.7546C17.2001 15.5702 16.3761 14.4955 15.1303 14.4955C13.8845 14.4955 13.0684 15.5216 13.0684 16.7155C13.0684 18.0095 13.8265 18.9268 15.1533 18.9268C15.4033 18.9245 15.6512 18.8807 15.887 18.7974L15.9302 18.782L15.963 18.7695H15.9856C16.2533 18.6708 16.493 18.5082 16.6837 18.2959C16.8745 18.0836 17.0105 17.828 17.0801 17.5512C17.0801 17.4805 17.0395 17.4906 17.0395 17.4906L17.0335 17.4805ZM15.1303 15.2104C15.7545 15.2104 16.1541 15.7372 16.1869 16.3276H14.026C14.0236 16.1832 14.0497 16.0398 14.1028 15.9055C14.1559 15.7712 14.235 15.6487 14.3354 15.5449C14.4359 15.4412 14.5558 15.3583 14.6883 15.3009C14.8208 15.2435 14.9633 15.2128 15.1077 15.2104H15.1303Z" fill="white"/>
<path d="M20.2228 14.5416C20.2228 14.5239 20.2051 14.5111 20.1874 14.5013C20.0836 14.4862 19.9788 14.4795 19.874 14.481C19.5997 14.4929 19.3355 14.588 19.1166 14.7536C18.8977 14.9193 18.7344 15.1477 18.6485 15.4085H18.6308V14.6353C18.6303 14.6252 18.6262 14.6156 18.6193 14.6081C18.6125 14.6007 18.6032 14.5959 18.5932 14.5946H17.7992C17.7955 14.5909 17.7905 14.5889 17.7853 14.5889C17.7801 14.5889 17.7751 14.5909 17.7714 14.5946C17.7677 14.5983 17.7656 14.6033 17.7656 14.6085C17.7656 14.6138 17.7677 14.6188 17.7714 14.6225V18.7268C17.7714 18.7268 17.7714 18.7975 17.8068 18.7975H18.6586C18.6692 18.7971 18.6792 18.7925 18.6865 18.7847C18.6891 18.7756 18.6891 18.766 18.6865 18.7569V16.7984C18.6865 15.8709 19.1918 15.3603 19.8262 15.3603C19.9464 15.3648 20.0663 15.3766 20.1851 15.3957C20.1933 15.3983 20.2022 15.3983 20.2104 15.3957C20.2144 15.3923 20.2177 15.3881 20.2198 15.3832C20.222 15.3784 20.223 15.3731 20.2228 15.3678V14.5401" fill="white"/>
<path d="M20.7185 18.7871C20.7266 18.79 20.7355 18.79 20.7437 18.7871H21.5929C21.5966 18.7908 21.6016 18.7929 21.6068 18.7929C21.6121 18.7929 21.6171 18.7908 21.6208 18.7871C21.6244 18.7834 21.6265 18.7784 21.6265 18.7732C21.6265 18.7679 21.6244 18.7629 21.6208 18.7592V16.3304C21.6084 16.1983 21.6223 16.065 21.6615 15.9382C21.7007 15.8114 21.7645 15.6935 21.8493 15.5914C21.934 15.4892 22.0381 15.4048 22.1555 15.3429C22.2729 15.281 22.4014 15.2429 22.5336 15.2306C22.5663 15.2276 22.5987 15.2261 22.6314 15.2261C23.1747 15.2261 23.4351 15.5094 23.4502 16.169V18.7973H24.34C24.349 18.7995 24.3585 18.7995 24.3675 18.7973C24.3701 18.7891 24.3701 18.7802 24.3675 18.772V15.9124C24.3675 14.9699 23.7914 14.4826 22.879 14.4826C22.6139 14.4837 22.3538 14.5543 22.1246 14.6874C21.8954 14.8204 21.705 15.0112 21.5726 15.2408H21.5575V14.635C21.5606 14.626 21.5606 14.6162 21.5575 14.6071C21.5536 14.6053 21.5493 14.6043 21.5449 14.6043C21.5406 14.6043 21.5363 14.6053 21.5323 14.6071H20.7388C20.7348 14.6053 20.7304 14.6043 20.726 14.6043C20.7216 14.6043 20.7172 14.6053 20.7132 14.6071C20.7102 14.6162 20.7102 14.626 20.7132 14.635V18.7739C20.7102 18.7828 20.7102 18.7925 20.7132 18.8014" fill="white"/>
<path d="M9.43194 13.8692H11.2004V18.7291C11.2004 18.7291 11.2004 18.7972 11.2561 18.7972H12.2442C12.2442 18.7972 12.2795 18.7972 12.2795 18.7291V13.8692H14.048C14.0574 13.8676 14.066 13.8631 14.0727 13.8564C14.0795 13.8496 14.084 13.841 14.0856 13.8316V13.0301C14.0849 13.0196 14.0804 13.0097 14.0728 13.0023C14.0639 12.9987 14.0539 12.9987 14.045 13.0023H9.42931C9.41843 13.0037 9.4085 13.0092 9.40152 13.0176C9.39453 13.0261 9.39102 13.0369 9.39168 13.0478V13.838C9.39168 13.838 9.39168 13.8685 9.43232 13.8685" fill="white"/>
</g>
<defs>
<clipPath id="clip0">
<rect width="26" height="5.92657" fill="white" transform="translate(3 13)"/>
</clipPath>
</defs>
</svg>
