<svg width="32" height="32" viewBox="0 0 32 32" fill="none" xmlns="http://www.w3.org/2000/svg">
<path d="M0 16C0 24.8365 7.16344 32 16 32C24.8365 32 32 24.8365 32 16C32 7.16344 24.8365 0 16 0C7.16344 0 0 7.16344 0 16Z" fill="#EFEFEF"/>
<path d="M16 0.666666C24.4 0.666666 31.3334 7.6 31.3334 16C31.3334 24.4 24.4 31.3334 16 31.3334C7.6 31.3334 0.666666 24.4 0.666666 16C0.666666 7.6 7.6 0.666666 16 0.666666ZM16 0C7.2 0 0 7.2 0 16C0 24.8 7.2 32 16 32C24.8 32 32 24.8 32 16C32 7.2 24.8 0 16 0Z" fill="#999999"/>
<path d="M11.884 21.8944C12.084 22.2583 11.8701 22.7463 11.5061 22.7463H6.34008C5.97808 22.7463 5.76208 22.2583 5.96408 21.8944L7.01408 20.0003C7.04993 19.9282 7.10489 19.8673 7.17295 19.8243C7.24101 19.7813 7.31958 19.7578 7.40008 19.7563H10.4561C10.5352 19.7592 10.6121 19.7834 10.6786 19.8264C10.7451 19.8693 10.7989 19.9294 10.8341 20.0003L11.884 21.8944ZM17.9101 20.0003C17.8748 19.9294 17.8212 19.8693 17.7546 19.8264C17.6881 19.7834 17.6112 19.7592 17.532 19.7563H14.4681C14.389 19.7592 14.3121 19.7834 14.2456 19.8264C14.179 19.8693 14.1253 19.9294 14.0901 20.0003L13.0401 21.8944C12.8401 22.2583 13.0541 22.7463 13.4161 22.7463H18.5841C18.9461 22.7463 19.1621 22.2583 18.9601 21.8944L17.9101 20.0003ZM17.9101 11.7863C17.8748 11.7154 17.8212 11.6553 17.7546 11.6124C17.6881 11.5695 17.6112 11.5452 17.532 11.5424H14.4681C14.389 11.5452 14.3121 11.5695 14.2456 11.6124C14.179 11.6553 14.1253 11.7154 14.0901 11.7863L13.0401 13.6803C12.8401 14.0443 13.0541 14.5323 13.4161 14.5323H18.5841C18.9461 14.5323 19.1621 14.0443 18.9601 13.6803L17.9101 11.7863ZM24.9861 20.0003C24.9502 19.9282 24.8953 19.8673 24.8272 19.8243C24.7592 19.7813 24.6806 19.7578 24.6001 19.7563H21.5441C21.4649 19.7592 21.3881 19.7834 21.3215 19.8264C21.255 19.8693 21.2013 19.9294 21.1661 20.0003L20.1161 21.8944C19.916 22.2583 20.1301 22.7463 20.4941 22.7463H25.6601C26.0221 22.7463 26.2381 22.2583 26.0361 21.8944L24.9861 20.0003ZM21.5861 15.8923C21.5497 15.8208 21.4947 15.7604 21.4266 15.7178C21.3587 15.6752 21.2803 15.6518 21.2001 15.6503H18.1381C18.0592 15.6532 17.9826 15.6772 17.9161 15.7198C17.8496 15.7623 17.7958 15.8219 17.7601 15.8923L16.7101 17.7883C16.5101 18.1504 16.724 18.6384 17.0881 18.6384H22.2541C22.6161 18.6384 22.8321 18.1504 22.6301 17.7883L21.5861 15.8923ZM14.2461 15.8923C14.2105 15.8219 14.1565 15.7623 14.0901 15.7198C14.0236 15.6772 13.9469 15.6532 13.868 15.6503H10.8001C10.7215 15.6536 10.6453 15.6777 10.5792 15.7202C10.5131 15.7628 10.4596 15.8222 10.4241 15.8923L9.37408 17.7883C9.17408 18.1504 9.38808 18.6384 9.75012 18.6384H14.9121C15.276 18.6384 15.4921 18.1504 15.2901 17.7883L14.2461 15.8923Z" fill="#EFC319"/>
<path d="M16.0001 10.2324C15.9332 10.2324 15.8691 10.2058 15.8218 10.1586C15.7746 10.1114 15.748 10.0473 15.748 9.98043V7.90642C15.748 7.83959 15.7746 7.77549 15.8218 7.72823C15.8691 7.68097 15.9332 7.65442 16.0001 7.65442C16.0669 7.65442 16.131 7.68097 16.1783 7.72823C16.2255 7.77549 16.252 7.83959 16.252 7.90642V9.98043C16.252 10.0473 16.2255 10.1114 16.1783 10.1586C16.131 10.2058 16.0669 10.2324 16.0001 10.2324Z" fill="#EFC319"/>
<path d="M18.8341 10.5501C18.7892 10.5497 18.7452 10.538 18.7061 10.5161C18.6488 10.4815 18.6075 10.4259 18.5911 10.3612C18.5746 10.2964 18.5843 10.2277 18.6181 10.1701L19.772 8.22607C19.8104 8.17915 19.8642 8.14758 19.9238 8.1371C19.9834 8.12663 20.0448 8.13797 20.0968 8.16904C20.1487 8.2001 20.1877 8.24884 20.2067 8.30632C20.2257 8.36379 20.2233 8.42618 20.2001 8.48207L19.046 10.4281C19.0241 10.4649 18.9931 10.4954 18.956 10.5167C18.9189 10.5381 18.8769 10.5496 18.8341 10.5501Z" fill="#EFC319"/>
<path d="M13.1661 10.5502C13.1225 10.5504 13.0797 10.5393 13.0419 10.5178C13.004 10.4964 12.9723 10.4655 12.9501 10.4281L11.8001 8.48215C11.7798 8.45375 11.7656 8.42144 11.7585 8.38727C11.7513 8.35311 11.7513 8.31782 11.7585 8.28367C11.7657 8.2495 11.78 8.21721 11.8003 8.18883C11.8206 8.16047 11.8466 8.13662 11.8766 8.11882C11.9066 8.10103 11.94 8.08966 11.9747 8.08546C12.0094 8.08125 12.0445 8.08428 12.0779 8.09438C12.1113 8.10447 12.1423 8.12139 12.1688 8.14407C12.1954 8.16676 12.2169 8.19471 12.2321 8.22615L13.3861 10.1701C13.4199 10.2278 13.4296 10.2964 13.4131 10.3612C13.3966 10.426 13.3553 10.4817 13.2981 10.5161C13.2578 10.5388 13.2123 10.5505 13.1661 10.5502Z" fill="#EFC319"/>
</svg>
