<svg width="32" height="32" viewBox="0 0 32 32" fill="none" xmlns="http://www.w3.org/2000/svg">
<path d="M0 16C0 24.8365 7.16344 32 16 32C24.8365 32 32 24.8365 32 16C32 7.16344 24.8365 0 16 0C7.16344 0 0 7.16344 0 16Z" fill="#009898"/>
<path d="M28.092 14.1679V14.9059C27.7676 14.7731 27.4222 14.6993 27.072 14.6879C26.9253 14.6819 26.7797 14.715 26.65 14.7839C26.6046 14.8047 26.5658 14.8376 26.5376 14.8788C26.5095 14.92 26.493 14.968 26.49 15.0179C26.49 15.1419 26.61 15.2519 26.85 15.3499L27.544 15.6859C28.104 15.9539 28.382 16.3079 28.382 16.7539C28.3869 16.927 28.3488 17.0986 28.271 17.2532C28.193 17.4079 28.0779 17.5407 27.936 17.6399C27.5864 17.876 27.1693 17.9918 26.748 17.9699C26.5422 17.971 26.3367 17.961 26.132 17.9399C25.9216 17.9145 25.7131 17.875 25.508 17.8219V17.0499C25.8816 17.1851 26.2747 17.2587 26.672 17.2679C27.088 17.2679 27.296 17.1459 27.296 16.9019C27.296 16.7819 27.21 16.6839 27.038 16.6059L26.268 16.2779C26.0206 16.1777 25.8025 16.0168 25.634 15.8099C25.499 15.6227 25.4288 15.3966 25.434 15.1659C25.4314 15.0038 25.4693 14.8437 25.544 14.6999C25.6186 14.5561 25.7279 14.4331 25.862 14.3419C26.1984 14.1194 26.5971 14.0101 27 14.0299C27.1759 14.0321 27.3515 14.0447 27.526 14.0679C27.726 14.0959 27.914 14.1279 28.096 14.1679H28.092Z" fill="white"/>
<path d="M6.27997 14.168V14.906C5.95564 14.7733 5.61023 14.6994 5.25997 14.688C5.11328 14.682 4.96764 14.7151 4.83797 14.784C4.79263 14.8049 4.75381 14.8376 4.72564 14.8789C4.69746 14.9201 4.68099 14.9682 4.67797 15.018C4.67797 15.142 4.79797 15.2519 5.03997 15.35L5.73197 15.686C6.28997 15.954 6.56997 16.3079 6.56997 16.754C6.57497 16.9269 6.53704 17.0982 6.45956 17.2529C6.38207 17.4075 6.26745 17.5405 6.12597 17.64C5.77534 17.8756 5.35786 17.9913 4.93597 17.97C4.72958 17.9711 4.52328 17.961 4.31797 17.9399C4.10827 17.9143 3.90049 17.8749 3.69597 17.822V17.05C4.06903 17.1847 4.46142 17.2583 4.85797 17.2679C5.27597 17.2679 5.48197 17.146 5.48197 16.902C5.48197 16.782 5.39797 16.6839 5.22797 16.606L4.45797 16.278C4.20971 16.1795 3.99126 16.0181 3.82397 15.81C3.68831 15.6231 3.61801 15.3968 3.62397 15.166C3.6209 15.0038 3.65846 14.8435 3.73321 14.6996C3.80797 14.5557 3.91755 14.4327 4.05197 14.342C4.38817 14.1189 4.78703 14.0096 5.18997 14.03C5.36657 14.0322 5.54287 14.0449 5.71797 14.0679C5.90797 14.096 6.09797 14.128 6.27997 14.168Z" fill="white"/>
<path d="M7.07399 14.1001H8.20399V17.9001H7.07399V14.1001Z" fill="white"/>
<path d="M11.842 14.1001V14.8021H10.164V15.6441H11.62V16.2782H10.164V17.1641H11.876V17.9001H9.07801V14.1001H11.842Z" fill="white"/>
<path d="M17.114 14.1001V17.9001H16.06V15.3941L14.966 17.9361H14.316L13.264 15.3941V17.9001H12.5V14.1001H13.88L14.82 16.4261L15.806 14.1001H17.114Z" fill="white"/>
<path d="M20.752 14.1001V14.8021H19.082V15.6441H20.538V16.2782H19.082V17.1641H20.786V17.9001H17.986V14.1001H20.752Z" fill="white"/>
<path d="M24.714 14.1001V17.9001H23.516L22.172 15.4622V17.9001H21.4099V14.1001H22.644L23.9519 16.4961V14.1001H24.714Z" fill="white"/>
</svg>
