<svg width="32" height="32" viewBox="0 0 32 32" fill="none" xmlns="http://www.w3.org/2000/svg">
<path d="M0 16C0 24.8365 7.16344 32 16 32C24.8365 32 32 24.8365 32 16C32 7.16344 24.8365 0 16 0C7.16344 0 0 7.16344 0 16Z" fill="#EFEFEF"/>
<path d="M16 0.666666C24.4 0.666666 31.3334 7.6 31.3334 16C31.3334 24.4 24.4 31.3334 16 31.3334C7.6 31.3334 0.666666 24.4 0.666666 16C0.666666 7.6 7.6 0.666666 16 0.666666ZM16 0C7.2 0 0 7.2 0 16C0 24.8 7.2 32 16 32C24.8 32 32 24.8 32 16C32 7.2 24.8 0 16 0Z" fill="#999999"/>
<path d="M7.88965 6.66394H13.9513L18.9185 15.6257L15.9879 21.0854L7.88965 6.66394Z" fill="#0076B5"/>
<path d="M17.0713 9.53928C17.0713 7.60443 18.6397 6.03601 20.5743 6.03601C22.5092 6.03601 24.0774 7.60443 24.0774 9.53928C24.0774 11.4744 22.5092 13.0428 20.5743 13.0428C18.6397 13.0428 17.0713 11.4744 17.0713 9.53928Z" fill="#0076B5"/>
<path d="M7.87359 23.0247H7.07884L6.47567 25.1153H6.4649L5.87846 23.0247H5.0459L6.06477 25.8627H6.84898L7.87359 23.0247Z" fill="#0076B5"/>
<path fill-rule="evenodd" clip-rule="evenodd" d="M9.60564 24.8433C9.60564 25.1905 9.26946 25.4036 8.93854 25.4036C8.79462 25.4036 8.59158 25.3236 8.59158 25.0624C8.59158 24.7525 8.82144 24.6835 9.0985 24.6357C9.4081 24.5873 9.53094 24.5392 9.60564 24.4807V24.8433ZM10.3369 23.7712C10.3369 23.0721 9.60564 22.9492 9.20552 22.9492C8.62389 22.9492 8.02073 23.0721 7.93571 23.9415H8.65598C8.67706 23.7763 8.741 23.5467 9.11477 23.5467C9.30681 23.5467 9.60564 23.5629 9.60564 23.8776C9.60564 24.038 9.4615 24.0854 9.34394 24.1019L8.67156 24.203C8.19696 24.2727 7.84473 24.5557 7.84473 25.11C7.84473 25.6972 8.28221 25.9375 8.70891 25.9375C9.21652 25.9375 9.45623 25.7029 9.62719 25.5267C9.64277 25.6866 9.65354 25.7295 9.69639 25.8626H10.5019V25.7503C10.4112 25.7187 10.3369 25.644 10.3369 25.308V23.7712Z" fill="#0076B5"/>
<path d="M10.8789 25.8626H11.626V22.0316H10.8789V25.8626Z" fill="#0076B5"/>
<path d="M12.2168 25.8626H12.9639V22.0316H12.2168V25.8626Z" fill="#0076B5"/>
<path fill-rule="evenodd" clip-rule="evenodd" d="M15.5016 24.4432C15.5016 24.8062 15.3949 25.308 14.8187 25.308C14.2421 25.308 14.1356 24.8062 14.1356 24.4432C14.1356 24.0806 14.2421 23.5787 14.8187 23.5787C15.3949 23.5787 15.5016 24.0806 15.5016 24.4432ZM16.27 24.4432C16.27 23.419 15.5814 22.9492 14.8187 22.9492C14.0556 22.9492 13.3672 23.419 13.3672 24.4432C13.3672 25.4678 14.0556 25.9375 14.8187 25.9375C15.5814 25.9375 16.27 25.4678 16.27 24.4432Z" fill="#0076B5"/>
<path d="M19.2085 23.0247H18.4611V24.6623C18.4611 25.169 18.1305 25.3081 17.8846 25.3081C17.6552 25.3081 17.3994 25.2224 17.3994 24.7851V23.0247H16.6523V24.8914C16.6523 25.6168 17.058 25.9376 17.618 25.9376C18.0124 25.9376 18.312 25.7664 18.4822 25.4628H18.493V25.8627H19.2085V23.0247Z" fill="#0076B5"/>
<path d="M19.7559 25.8626H20.5025V24.3845C20.5025 24.0698 20.6095 23.7073 21.1907 23.7073C21.2603 23.7073 21.3403 23.7073 21.4047 23.7178V22.96C21.3564 22.9547 21.3087 22.9492 21.2603 22.9492C20.8066 22.9492 20.6359 23.227 20.4819 23.5146H20.4704V23.0246H19.7559V25.8626Z" fill="#0076B5"/>
<path fill-rule="evenodd" clip-rule="evenodd" d="M22.2362 24.1604C22.2788 23.7871 22.4656 23.5629 22.8173 23.5629C23.0577 23.5629 23.3511 23.7018 23.3939 24.1604H22.2362ZM23.3618 25.0303C23.3029 25.2331 23.0898 25.3399 22.8815 25.3399C22.2788 25.3399 22.2362 24.8593 22.2149 24.646H24.1619V24.5126C24.1619 23.216 23.3886 22.9492 22.8283 22.9492C21.5849 22.9492 21.4678 24.043 21.4678 24.3845C21.4678 25.5532 22.081 25.9375 22.8815 25.9375C23.3673 25.9375 23.9331 25.7132 24.1307 25.0303H23.3618Z" fill="#0076B5"/>
<path d="M26.1983 24.8277C26.1983 24.9608 26.0696 25.3236 25.6914 25.3236C25.1258 25.3236 25.1151 24.7101 25.1151 24.4008C25.1151 24.0481 25.2377 23.5787 25.7075 23.5787C26.0537 23.5574 26.1713 23.851 26.2034 24.038H26.961C26.8918 23.152 26.1555 22.9492 25.7075 22.9492C24.7463 22.9492 24.3467 23.6058 24.3467 24.5231C24.3467 25.1213 24.5917 25.9375 25.6589 25.9375C26.6998 25.9375 26.9294 25.1213 26.9562 24.8277H26.1983Z" fill="#0076B5"/>
</svg>
