<svg width="32" height="32" viewBox="0 0 32 32" fill="none" xmlns="http://www.w3.org/2000/svg">
<path d="M0 16C0 24.8365 7.16344 32 16 32C24.8365 32 32 24.8365 32 16C32 7.16344 24.8365 0 16 0C7.16344 0 0 7.16344 0 16Z" fill="#EFEFEF"/>
<path d="M16 0.666666C24.4 0.666666 31.3334 7.6 31.3334 16C31.3334 24.4 24.4 31.3334 16 31.3334C7.6 31.3334 0.666666 24.4 0.666666 16C0.666666 7.6 7.6 0.666666 16 0.666666ZM16 0C7.2 0 0 7.2 0 16C0 24.8 7.2 32 16 32C24.8 32 32 24.8 32 16C32 7.2 24.8 0 16 0Z" fill="#999999"/>
<g clip-path="url(#clip0)">
<path d="M27.3189 22.2619L16.1143 16.8677V5.00024L27.3189 22.2619ZM28.209 24.3244L16.1143 19.2144V24.3244H28.209Z" fill="#98002E"/>
<path d="M4.90665 22.2619L16.1143 5.00024V16.8667L4.90665 22.2619ZM4.01953 24.3244H16.1143V19.2144L4.01953 24.3244Z" fill="#E31937"/>
</g>
<defs>
<clipPath id="clip0">
<rect width="24" height="20" fill="white" transform="translate(4 5)"/>
</clipPath>
</defs>
</svg>
