<svg width="32" height="32" viewBox="0 0 32 32" fill="none" xmlns="http://www.w3.org/2000/svg">
<path d="M0 16C0 24.8365 7.16344 32 16 32C24.8365 32 32 24.8365 32 16C32 7.16344 24.8365 0 16 0C7.16344 0 0 7.16344 0 16Z" fill="#0F79BE"/>
<path d="M20.5299 8.59992C20.1179 6.79992 19.084 5.32991 18.9419 5.09192C18.3126 6.04149 17.8184 7.07407 17.4739 8.15992C17.0563 9.59511 16.9318 11.0997 17.108 12.5839C17.2424 13.5578 17.4935 14.512 17.8559 15.4259C18.1468 16.1172 18.5137 16.7739 18.9499 17.3839C19.9016 16.0126 20.5182 14.437 20.7499 12.7839C20.9339 11.5039 20.9419 10.3999 20.5299 8.59992ZM18.9419 16.9219C18.5882 16.2316 18.4025 15.4676 18.3999 14.692C18.4005 13.9241 18.5908 13.1684 18.9539 12.492C19.2804 13.1481 19.4599 13.8674 19.4799 14.5999C19.502 15.4072 19.3168 16.2066 18.9419 16.9219ZM20.4099 11.652C20.4011 12.2748 20.3342 12.8955 20.2099 13.5059C20.2368 12.6228 20.161 11.7395 19.9839 10.8739C19.812 10.052 19.3259 8.67391 18.9359 8.03791C18.4686 8.93232 18.1216 9.88462 17.9039 10.8699C17.7342 11.7455 17.6538 12.6361 17.6639 13.5279C17.5222 12.677 17.4646 11.8141 17.492 10.9519C17.5353 10.161 17.6606 9.37688 17.8659 8.61192C18.1268 7.72034 18.4856 6.86043 18.9359 6.04792C19.3975 6.84539 19.7614 7.6955 20.02 8.57992C20.2942 9.58062 20.4289 10.6144 20.42 11.652" fill="white"/>
<path d="M19.642 17.8H16.508V19.894C16.8616 19.537 17.3424 19.3351 17.8448 19.3326C18.3472 19.3303 18.83 19.5274 19.187 19.881C19.544 20.2345 19.7459 20.7154 19.7483 21.2178C19.7508 21.7202 19.5535 22.203 19.2 22.56C19.2 22.56 19.2 22.56 19.19 22.572C18.5268 23.2471 17.6344 23.6487 16.6893 23.6974C15.7442 23.7461 14.8153 23.4383 14.0862 22.8349C13.3571 22.2316 12.881 21.3766 12.7521 20.4391C12.6233 19.5016 12.8508 18.5497 13.39 17.772C13.5251 17.5699 13.6798 17.3816 13.852 17.21C14.202 16.8586 14.6182 16.5801 15.0765 16.3907C15.5348 16.2012 16.0261 16.1044 16.522 16.106V11.074C15.4071 11.0738 14.3096 11.351 13.3284 11.8806C12.3471 12.4101 11.5131 13.1754 10.9013 14.1075C10.2895 15.0396 9.91916 16.1094 9.82363 17.2202C9.72819 18.3311 9.9105 19.4483 10.3542 20.4712C10.7979 21.494 11.4891 22.3904 12.3655 23.0797C13.2419 23.7689 14.276 24.2294 15.3746 24.4195C16.4732 24.6097 17.602 24.5236 18.659 24.1689C19.716 23.8143 20.6683 23.2023 21.43 22.388V17.8H19.642Z" fill="white"/>
</svg>
