<svg width="32" height="32" viewBox="0 0 32 32" fill="none" xmlns="http://www.w3.org/2000/svg">
<path d="M0 16C0 24.8365 7.16344 32 16 32C24.8365 32 32 24.8365 32 16C32 7.16344 24.8365 0 16 0C7.16344 0 0 7.16344 0 16Z" fill="#EFEFEF"/>
<path d="M8.40002 18.3482C7.96949 18.5745 7.48561 18.6795 7.00002 18.6522C6.63584 18.6624 6.27327 18.6001 5.93336 18.4689C5.59345 18.3378 5.283 18.1404 5.02003 17.8883C4.75543 17.6327 4.54749 17.3243 4.40967 16.9833C4.27185 16.6422 4.20724 16.2759 4.22003 15.9082C4.20144 15.5381 4.26058 15.1681 4.39365 14.8222C4.52673 14.4762 4.73078 14.1621 4.99267 13.8998C5.25457 13.6375 5.56849 13.433 5.91423 13.2994C6.25996 13.1658 6.62983 13.1062 7.00002 13.1242C7.48576 13.0952 7.97012 13.2003 8.40002 13.4282V14.6122C7.99826 14.3661 7.53514 14.2386 7.06402 14.2442C6.86119 14.2396 6.65963 14.2775 6.47227 14.3553C6.28491 14.4331 6.11588 14.5493 5.97602 14.6963C5.82537 14.8586 5.70881 15.0495 5.63322 15.2577C5.55764 15.4658 5.5246 15.6871 5.53603 15.9082C5.52491 16.1245 5.55822 16.3408 5.63389 16.5438C5.70956 16.7467 5.826 16.9321 5.97602 17.0883C6.12611 17.2339 6.30415 17.3476 6.49939 17.4225C6.69464 17.4975 6.90304 17.5321 7.11202 17.5242C7.57135 17.537 8.0227 17.4025 8.40002 17.1402V18.3482Z" fill="#01478C"/>
<path d="M10.28 18.588H9L10.8 13.188H12.352L14.152 18.588H12.832L12.504 17.484H10.6L10.28 18.588ZM10.96 16.3L10.904 16.5H12.2L12.144 16.3C11.99 15.776 11.862 15.332 11.764 14.964C11.666 14.596 11.606 14.364 11.584 14.252L11.552 14.092C11.3918 14.8375 11.1943 15.5744 10.96 16.3Z" fill="#01478C"/>
<path d="M18.832 18.3482C18.4015 18.5745 17.9176 18.6795 17.432 18.6522C17.0679 18.6624 16.7052 18.6001 16.3654 18.4689C16.0254 18.3378 15.715 18.1404 15.4521 17.8883C15.1874 17.6327 14.9795 17.3243 14.8417 16.9833C14.7038 16.6422 14.6393 16.2759 14.6521 15.9082C14.6334 15.5381 14.6925 15.1681 14.8256 14.8222C14.9587 14.4762 15.1627 14.1621 15.4247 13.8998C15.6866 13.6375 16.0005 13.433 16.3462 13.2994C16.692 13.1658 17.0618 13.1062 17.432 13.1242C17.9177 13.0952 18.4021 13.2003 18.832 13.4282V14.6122C18.4302 14.3661 17.9672 14.2386 17.496 14.2442C17.2919 14.2385 17.0888 14.2758 16.9 14.3536C16.7111 14.4315 16.5408 14.5482 16.4 14.6963C16.2493 14.8586 16.1328 15.0495 16.0572 15.2577C15.9817 15.4658 15.9486 15.6871 15.96 15.9082C15.9489 16.1245 15.9822 16.3408 16.0579 16.5438C16.1336 16.7467 16.25 16.9321 16.4 17.0883C16.5501 17.2339 16.7281 17.3476 16.9234 17.4225C17.1186 17.4975 17.3271 17.5321 17.536 17.5242C17.9953 17.537 18.4467 17.4025 18.824 17.1402L18.832 18.3482Z" fill="#01478C"/>
<path d="M22.928 18.5878H21.768V17.4758H19.472V16.4758L21.072 13.3318H22.928V16.4838H23.568V17.4838H22.928V18.5878ZM20.616 16.4838H21.768V14.1158L20.616 16.4838Z" fill="#01478C"/>
<path d="M27.824 15.9478C27.824 16.7678 27.6627 17.4239 27.34 17.9158C27.178 18.1429 26.964 18.3279 26.716 18.4557C26.468 18.5834 26.193 18.6499 25.9141 18.6499C25.6351 18.6499 25.3601 18.5834 25.1121 18.4557C24.8641 18.3279 24.6501 18.1429 24.488 17.9158C24.168 17.4278 24.008 16.7705 24.008 15.9438C24.008 15.1171 24.168 14.4585 24.488 13.9679C24.6512 13.7423 24.8655 13.5586 25.1134 13.432C25.3613 13.3054 25.6357 13.2394 25.9141 13.2394C26.1924 13.2394 26.4668 13.3054 26.7146 13.432C26.9625 13.5586 27.1768 13.7423 27.34 13.9679C27.6627 14.4544 27.824 15.1145 27.824 15.9478ZM25.2 15.9478C25.2 17.0558 25.436 17.6118 25.912 17.6118C26.388 17.6118 26.632 17.0558 26.632 15.9478C26.632 14.8398 26.392 14.2838 25.912 14.2838C25.432 14.2838 25.2 14.8378 25.2 15.9478Z" fill="#01478C"/>
<path d="M16 0.666666C24.4 0.666666 31.3334 7.6 31.3334 16C31.3334 24.4 24.4 31.3334 16 31.3334C7.6 31.3334 0.666666 24.4 0.666666 16C0.666666 7.6 7.6 0.666666 16 0.666666ZM16 0C7.2 0 0 7.2 0 16C0 24.8 7.2 32 16 32C24.8 32 32 24.8 32 16C32 7.2 24.8 0 16 0Z" fill="#999999"/>
</svg>
