<svg width="32" height="32" viewBox="0 0 32 32" fill="none" xmlns="http://www.w3.org/2000/svg">
<circle cx="14" cy="14" r="14" fill="white"/>
<path d="M14 0.58329C21.35 0.58329 27.4167 6.65 27.4167 14C27.4167 21.35 21.35 27.4167 14 27.4167C6.65 27.4167 0.58329 21.35 0.58329 14C0.58329 6.65 6.65 0.58329 14 0.58329ZM14 0C6.3 0 0 6.3 0 14C0 21.7 6.3 28 14 28C21.7 28 28 21.7 28 14C28 6.3 21.7 0 14 0Z" fill="#999999"/>
<path d="M11.6323 5.76208H12.7314V11.1799H11.671V7.66605L10.1463 10.1815H10.0225L8.49777 7.67379V11.1799H7.42969V5.76208H8.52873L10.0844 8.32393L11.6323 5.76208Z" fill="#141528"/>
<path d="M13.7409 11.1799V5.76208H14.8089V11.1799H13.7409Z" fill="#141528"/>
<path d="M19.0857 8.37036C19.5604 8.64383 19.7978 9.05662 19.7978 9.60872C19.7978 10.0679 19.6353 10.4446 19.3102 10.7387C18.9851 11.0328 18.5852 11.1799 18.1105 11.1799H15.8118V5.76208H17.948C18.4072 5.76208 18.7968 5.90656 19.1167 6.19551C19.4366 6.48446 19.5966 6.84822 19.5966 7.28681C19.5966 7.73571 19.4263 8.0969 19.0857 8.37036ZM17.948 6.76051H16.8799V7.95242H17.948C18.1131 7.95242 18.2499 7.89566 18.3582 7.78215C18.4717 7.66863 18.5285 7.52674 18.5285 7.35646C18.5285 7.18619 18.4743 7.0443 18.3659 6.93078C18.2576 6.81726 18.1183 6.76051 17.948 6.76051ZM16.8799 10.1815H18.1105C18.2911 10.1815 18.4408 10.1221 18.5594 10.0034C18.6781 9.87961 18.7375 9.72481 18.7375 9.53906C18.7375 9.35847 18.6781 9.20883 18.5594 9.09016C18.4408 8.96632 18.2911 8.9044 18.1105 8.9044H16.8799V10.1815Z" fill="#141528"/>
<path d="M12.3893 19.278H13.2237V20.7021H12.3893V22.0261H10.8428V20.7021H7.16016V19.278L9.75247 14.238H11.3991L8.8179 19.278H10.8428V17.4311H12.3893V19.278Z" fill="#141528"/>
<path d="M16.885 22.1819C15.9133 22.1819 15.1494 21.8147 14.5931 21.0804C14.0442 20.3313 13.7698 19.3485 13.7698 18.1321C13.7698 16.9157 14.0442 15.9366 14.5931 15.1949C15.1494 14.4531 15.9133 14.0823 16.885 14.0823C17.8715 14.0823 18.6355 14.4531 19.1769 15.1949C19.7258 15.9366 20.0002 16.9157 20.0002 18.1321C20.0002 19.3485 19.7258 20.3313 19.1769 21.0804C18.6355 21.8147 17.8715 22.1819 16.885 22.1819ZM18.476 18.1321C18.476 17.3013 18.3388 16.6672 18.0643 16.2296C17.7973 15.7919 17.4042 15.5731 16.885 15.5731C16.3658 15.5731 15.9727 15.7919 15.7057 16.2296C15.4386 16.6672 15.3051 17.3013 15.3051 18.1321C15.3051 18.9628 15.4386 19.597 15.7057 20.0346C15.9727 20.4648 16.3658 20.6799 16.885 20.6799C17.4042 20.6799 17.7973 20.4611 18.0643 20.0235C18.3388 19.5858 18.476 18.9554 18.476 18.1321Z" fill="#141528"/>
<mask id="mask0" mask-type="alpha" maskUnits="userSpaceOnUse" x="16" y="16" width="16" height="16">
<path d="M24 32C28.4183 32 32 28.4183 32 24C32 19.5817 28.4183 16 24 16C19.5817 16 16 19.5817 16 24C16 28.4183 19.5817 32 24 32Z" fill="#006C35"/>
</mask>
<g mask="url(#mask0)">
<path d="M24 32C28.4183 32 32 28.4183 32 24C32 19.5817 28.4183 16 24 16C19.5817 16 16 19.5817 16 24C16 28.4183 19.5817 32 24 32Z" fill="white"/>
<path d="M35.0003 29.5001C35.0003 30.1484 34.7428 30.7702 34.2844 31.2286C33.8259 31.687 33.2042 31.9446 32.5559 31.9446H27.667V16.0557H32.5559C33.2042 16.0557 33.8259 16.3132 34.2844 16.7716C34.7428 17.23 35.0003 17.8518 35.0003 18.5001V29.5001Z" fill="#CE2B37"/>
<path d="M15.4444 16.0557C14.7961 16.0557 14.1744 16.3132 13.716 16.7716C13.2575 17.23 13 17.8518 13 18.5001V29.5001C13 30.1484 13.2575 30.7702 13.716 31.2286C14.1744 31.687 14.7961 31.9446 15.4444 31.9446H20.3333V16.0557H15.4444Z" fill="#009246"/>
<path d="M20.333 16.0557H27.6663V31.9446H20.333V16.0557Z" fill="#EEEEEE"/>
<path d="M24 16.3333C28.2 16.3333 31.6667 19.8 31.6667 24C31.6667 28.2 28.2 31.6667 24 31.6667C19.8 31.6667 16.3333 28.2 16.3333 24C16.3333 19.8 19.8 16.3333 24 16.3333ZM24 16C19.6 16 16 19.6 16 24C16 28.4 19.6 32 24 32C28.4 32 32 28.4 32 24C32 19.6 28.4 16 24 16Z" fill="#999999"/>
</g>
</svg>
