<svg width="32" height="32" viewBox="0 0 32 32" fill="none" xmlns="http://www.w3.org/2000/svg">
<path d="M0 16C0 24.8365 7.16344 32 16 32C24.8365 32 32 24.8365 32 16C32 7.16344 24.8365 0 16 0C7.16344 0 0 7.16344 0 16Z" fill="#233F8E"/>
<path d="M3.40005 14.4159V14.8758H4.15404L5.63205 17.6459H7.44805L8.92604 14.8699L9.68 14.8659L9.68207 14.4159H7.42405V14.8678H8.02604L6.98204 16.8358L5.85404 14.8739L6.67605 14.8699V14.4159H3.40005Z" fill="white"/>
<path d="M17.966 14.4159V14.8758H18.72L20.198 17.6459H22.016L23.4919 14.8699L24.246 14.8659L24.248 14.4159H21.99V14.8678H22.592L21.5479 16.8358L20.4199 14.8739L21.2439 14.8699L21.242 14.4159H17.966Z" fill="white"/>
<path d="M14.2521 14.4159V14.8758H15.0001V17.1359H14.2001V17.6399H15.0001H18.7761V16.1419H18.2861C18.2861 16.4071 18.1808 16.6614 17.9932 16.849C17.8057 17.0365 17.5513 17.1419 17.2861 17.1419H16.4941V14.8739H17.2381V14.4159H14.2521Z" fill="white"/>
<path d="M11.6781 17.2317C11.2261 17.2317 10.8601 16.6897 10.8601 16.0317C10.8601 15.3736 11.2261 14.8196 11.6781 14.8196C12.1301 14.8196 12.4961 15.3617 12.4961 16.0317C12.4961 16.7016 12.1301 17.2317 11.6781 17.2317ZM11.7121 14.3217C10.4281 14.3217 9.38809 15.0856 9.38809 16.0276C9.38809 16.9697 10.4281 17.7336 11.7121 17.7336C12.9961 17.7336 14.0341 16.9697 14.0341 16.0276C14.0341 15.0856 13.0001 14.3217 11.7121 14.3217Z" fill="white"/>
<path d="M26.2441 17.2241C25.7921 17.2241 25.4261 16.6721 25.4261 15.9921C25.4261 15.3121 25.7921 14.7621 26.2441 14.7621C26.6961 14.7621 27.0641 15.3141 27.0641 15.9921C27.0641 16.6702 26.6981 17.2241 26.2441 17.2241ZM26.2781 14.2661C24.9961 14.2661 23.9561 15.0421 23.9561 16.0001C23.9561 16.9582 24.9961 17.7342 26.2781 17.7342C27.5601 17.7342 28.6001 16.9582 28.6001 16.0001C28.6001 15.0421 27.5601 14.2661 26.2781 14.2661Z" fill="white"/>
</svg>
