<svg width="32" height="32" viewBox="0 0 32 32" fill="none" xmlns="http://www.w3.org/2000/svg">
<path d="M0 16C0 24.8365 7.16344 32 16 32C24.8365 32 32 24.8365 32 16C32 7.16344 24.8365 0 16 0C7.16344 0 0 7.16344 0 16Z" fill="#01A54E"/>
<path d="M5.00003 13.3658L5.56203 15.0738H5.57803L5.02003 13.3658H5.00003ZM7.44803 15.3018L7.43203 15.3138L5.98203 16.3698L6.53403 18.0858V18.0978H6.54603L6.00003 16.3738L7.45003 15.3138L7.44803 15.3018ZM4.88403 17.1758L3.43003 18.2258H3.44203L4.89203 17.1718L4.88403 17.1758Z" fill="black"/>
<path d="M13.166 15.9338C13.166 16.0998 13.094 16.1478 12.828 16.2418C12.6909 16.2986 12.5471 16.3375 12.4 16.3578C12.312 16.3578 12.272 16.2898 12.272 16.1578C12.272 15.8298 12.366 15.4298 12.712 15.4298C13.0581 15.4298 13.166 15.7757 13.166 15.9398V15.9338ZM9.69402 17.3718C9.69609 17.3512 9.69035 17.3305 9.67802 17.3138C9.64207 17.2778 9.50804 17.2557 9.44207 17.1898C9.37604 17.1238 9.36204 17.0558 9.36204 16.8598V16.1078C9.36204 16.0498 9.37404 16.0158 9.432 16.0158H10.2C10.2581 16.0158 10.272 16.0498 10.272 16.1078V16.8598C10.272 17.0598 10.24 17.1398 10.192 17.1898C10.144 17.2397 9.992 17.2778 9.95604 17.3138C9.94917 17.3217 9.94409 17.3309 9.94099 17.3409C9.93788 17.3509 9.93694 17.3614 9.93807 17.3718C9.93289 17.4567 9.94513 17.5418 9.97402 17.6218C9.99002 17.6397 10.0181 17.6438 10.076 17.6438H11.326C11.384 17.6438 11.4101 17.6438 11.428 17.6218C11.4569 17.5418 11.4692 17.4567 11.464 17.3718C11.4652 17.3614 11.4642 17.3509 11.4611 17.3409C11.458 17.3309 11.4529 17.3217 11.446 17.3138C11.414 17.2838 11.276 17.2557 11.2101 17.1898C11.1491 17.1046 11.122 16.9998 11.134 16.8958V14.8178C11.127 14.7393 11.1506 14.6612 11.2 14.5997C11.27 14.5277 11.412 14.5158 11.444 14.4838C11.4573 14.466 11.4637 14.444 11.462 14.4218C11.465 14.3461 11.4528 14.2706 11.4261 14.1997C11.408 14.1818 11.39 14.1778 11.324 14.1778H10.124C10.0741 14.1778 10.0581 14.1778 10.044 14.1958C10.0206 14.2687 10.0119 14.3454 10.0181 14.4218C10.0167 14.4418 10.0208 14.462 10.03 14.4798C10.0914 14.5101 10.1508 14.5442 10.208 14.5818C10.2581 14.6318 10.276 14.6838 10.276 14.8358V15.4358C10.2747 15.4496 10.2686 15.4626 10.2587 15.4725C10.2488 15.4824 10.236 15.4885 10.222 15.4898H9.42202C9.40838 15.4884 9.39567 15.4822 9.38614 15.4723C9.37663 15.4624 9.37092 15.4495 9.37004 15.4358V14.8358C9.37004 14.6838 9.38804 14.6358 9.43604 14.5818C9.49327 14.5442 9.55275 14.5101 9.61402 14.4798C9.62503 14.4625 9.62993 14.4421 9.62804 14.4218C9.6336 14.3467 9.62409 14.2712 9.6 14.1997C9.58804 14.1858 9.57007 14.1818 9.52 14.1818H8.32004C8.25404 14.1818 8.23604 14.1818 8.21804 14.2038C8.19184 14.2733 8.1796 14.3475 8.18204 14.4218C8.18132 14.4439 8.18762 14.4655 8.20004 14.4838C8.23204 14.5158 8.37404 14.5277 8.44604 14.5997C8.49546 14.6612 8.51912 14.7393 8.51204 14.8178V16.8958C8.51786 16.9499 8.5129 17.0046 8.49746 17.0568C8.48201 17.109 8.45637 17.1576 8.42204 17.1997C8.35604 17.2658 8.22204 17.2938 8.18604 17.3238C8.17302 17.3402 8.1666 17.3609 8.16804 17.3818C8.16293 17.4631 8.17381 17.5447 8.20004 17.6218C8.21804 17.6397 8.23604 17.6438 8.30204 17.6438H9.55407C9.61204 17.6438 9.63802 17.6438 9.656 17.6218C9.68395 17.5416 9.69553 17.4566 9.69007 17.3718H9.69402ZM13.8261 17.3098C13.9541 17.1818 13.9861 17.1098 13.9861 17.0418C13.9874 17.0096 13.9816 16.9775 13.9691 16.9478C13.9567 16.9181 13.9379 16.8914 13.9141 16.8698C13.8951 16.8482 13.8717 16.831 13.8455 16.8192C13.8192 16.8075 13.7908 16.8015 13.7621 16.8018C13.7376 16.8006 13.7133 16.8053 13.691 16.8154C13.6688 16.8254 13.6492 16.8407 13.6341 16.8598C13.5366 16.9586 13.4199 17.0365 13.2913 17.0888C13.1627 17.141 13.0248 17.1666 12.886 17.1638C12.779 17.1724 12.6723 17.1437 12.5838 17.0829C12.4953 17.0221 12.4305 16.9327 12.4 16.8298C12.4 16.7938 12.432 16.7618 12.51 16.7398C13.366 16.4738 13.7221 16.2957 13.854 16.1618C13.8871 16.1326 13.9137 16.097 13.9322 16.0571C13.9509 16.0172 13.9609 15.9738 13.9621 15.9298C13.9541 15.5998 13.464 14.9997 12.712 14.9997C12.5517 15.0002 12.3931 15.0322 12.2453 15.0941C12.0973 15.1558 11.963 15.2461 11.8501 15.3598C11.72 15.4956 11.6189 15.6563 11.5529 15.8324C11.487 16.0084 11.4574 16.196 11.4661 16.3837C11.4573 16.5642 11.4865 16.7443 11.5515 16.9128C11.6167 17.0813 11.7163 17.2342 11.844 17.3618C12.1053 17.6058 12.4528 17.736 12.8101 17.7238C12.998 17.7277 13.1849 17.6944 13.3601 17.6258C13.5351 17.5572 13.6949 17.4545 13.83 17.3238L13.8261 17.3098ZM15.23 15.1558C15.2313 15.145 15.2301 15.1341 15.2265 15.1237C15.2231 15.1134 15.2171 15.1041 15.2095 15.0964C15.2018 15.0887 15.1924 15.0829 15.1821 15.0793C15.1719 15.0757 15.1608 15.0745 15.15 15.0758H14.284C14.2341 15.0758 14.216 15.0758 14.2021 15.0938C14.1778 15.1639 14.1662 15.2377 14.168 15.3117C14.1682 15.3312 14.1745 15.3501 14.1861 15.3658C14.216 15.4058 14.284 15.4198 14.342 15.4678C14.3862 15.5397 14.4065 15.6237 14.4 15.7078V16.8958C14.4156 17.0015 14.3929 17.1093 14.336 17.1997C14.2726 17.2472 14.2057 17.29 14.136 17.3277C14.1242 17.3447 14.1192 17.3654 14.1221 17.3858C14.1167 17.4694 14.129 17.5533 14.158 17.6318C14.1823 17.6493 14.2122 17.6572 14.2421 17.6538H15.3861C15.4158 17.6576 15.4459 17.6497 15.47 17.6318C15.497 17.5528 15.5079 17.4691 15.502 17.3858C15.5048 17.3654 15.4999 17.3447 15.488 17.3277C15.4184 17.2899 15.3516 17.2471 15.288 17.1997C15.244 17.1558 15.23 17.0578 15.23 16.9058V15.1418V15.1558ZM14.7541 14.0358C14.668 14.0382 14.5847 14.0661 14.5147 14.116C14.4447 14.1659 14.391 14.2354 14.3605 14.3158C14.3301 14.3962 14.3241 14.4838 14.3435 14.5676C14.3629 14.6513 14.4068 14.7275 14.4695 14.7863C14.5323 14.8451 14.6111 14.8839 14.6959 14.8979C14.7808 14.9118 14.8679 14.9003 14.9462 14.8646C15.0244 14.829 15.0903 14.7709 15.1355 14.6978C15.1807 14.6247 15.2032 14.5397 15.2 14.4538C15.1992 14.3958 15.187 14.3385 15.1639 14.2852C15.1407 14.2319 15.1073 14.1838 15.0654 14.1437C15.0235 14.1035 14.9741 14.072 14.92 14.051C14.8658 14.0301 14.8081 14.0202 14.75 14.0218L14.7541 14.0358ZM18.2 15.7518C18.2 15.2538 17.936 14.9997 17.532 14.9997C17.3186 15.0061 17.111 15.0711 16.932 15.1878C16.862 15.2318 16.84 15.2458 16.822 15.2458C16.75 15.2458 16.8 15.0618 16.67 15.0618H15.886C15.836 15.0618 15.822 15.0618 15.806 15.0798C15.7756 15.1483 15.7619 15.223 15.766 15.2978C15.7646 15.3171 15.7703 15.3363 15.782 15.3518C15.8181 15.3878 15.886 15.3997 15.9381 15.4538C15.9884 15.5283 16.0104 15.6185 16 15.7078V16.8958C16 17.0478 15.9861 17.1458 15.942 17.1898C15.8784 17.237 15.8116 17.2798 15.742 17.3178C15.7312 17.3351 15.7263 17.3554 15.728 17.3757C15.7222 17.4591 15.733 17.5428 15.76 17.6218C15.7865 17.6395 15.8183 17.6472 15.8501 17.6438H16.9701C17.024 17.6438 17.0421 17.6438 17.054 17.6218C17.0887 17.5447 17.1031 17.46 17.096 17.3757C17.0978 17.3554 17.0929 17.3351 17.0821 17.3178C17.0128 17.2793 16.9461 17.2365 16.8821 17.1898C16.8254 17.1029 16.8013 16.9987 16.814 16.8958V16.0198C16.814 15.6598 17.014 15.5478 17.1621 15.5478C17.31 15.5478 17.4 15.6598 17.4 15.8938V17.1277C17.3959 17.2043 17.4087 17.2807 17.4373 17.3517C17.466 17.4227 17.5099 17.4865 17.5661 17.5386C17.6222 17.5907 17.6891 17.6299 17.762 17.6532C17.8349 17.6765 17.9121 17.6836 17.988 17.6738C18.1136 17.6838 18.2391 17.654 18.3468 17.5886C18.4545 17.5233 18.5389 17.4257 18.588 17.3098C18.588 17.2558 18.502 17.1498 18.4501 17.1498C18.398 17.1498 18.2981 17.2298 18.2501 17.2298C18.2021 17.2298 18.2 17.1997 18.2 17.1357V15.7518ZM26.446 17.3098C26.576 17.1818 26.606 17.1098 26.606 17.0418C26.6077 17.0097 26.6023 16.9777 26.5903 16.948C26.5782 16.9182 26.5596 16.8915 26.536 16.8698C26.5171 16.8482 26.4936 16.831 26.4675 16.8192C26.4412 16.8075 26.4128 16.8015 26.384 16.8018C26.3596 16.8006 26.3353 16.8053 26.313 16.8154C26.2908 16.8254 26.2712 16.8407 26.256 16.8598C26.1586 16.9586 26.042 17.0365 25.9133 17.0888C25.7847 17.141 25.6469 17.1666 25.508 17.1638C25.3974 17.1782 25.2853 17.1523 25.1921 17.091C25.0988 17.0298 25.0307 16.9371 25 16.8298C25 16.7938 25.03 16.7618 25.11 16.7398C25.966 16.4738 26.3221 16.2957 26.454 16.1618C26.4871 16.1326 26.5137 16.097 26.5322 16.0571C26.5509 16.0172 26.5609 15.9738 26.5621 15.9298C26.5621 15.5918 26.072 14.9917 25.32 14.9917C24.9958 14.9931 24.6852 15.1225 24.456 15.3518C24.3263 15.4877 24.2255 15.6485 24.1598 15.8246C24.0942 16.0006 24.0649 16.1882 24.0741 16.3757C24.0653 16.5562 24.0944 16.7363 24.1595 16.9048C24.2247 17.0733 24.3242 17.2262 24.452 17.3538C24.7133 17.5978 25.0608 17.728 25.4181 17.7158C25.6057 17.7197 25.7924 17.6864 25.9671 17.6177C26.1418 17.5491 26.3012 17.4464 26.436 17.3158L26.446 17.3098ZM25.774 15.9398C25.774 16.1058 25.702 16.1538 25.436 16.2477C25.2989 16.3045 25.1551 16.3436 25.008 16.3638C24.92 16.3638 24.88 16.2957 24.88 16.1638C24.88 15.8358 24.972 15.4358 25.32 15.4358C25.668 15.4358 25.774 15.7818 25.774 15.9458V15.9398ZM20.974 17.3218C21.102 17.1938 21.134 17.1218 21.134 17.0538C21.1353 17.0216 21.1296 16.9895 21.1172 16.9597C21.1047 16.9301 21.0859 16.9035 21.062 16.8818C21.0433 16.8605 21.0202 16.8433 20.9943 16.8317C20.9685 16.8199 20.9404 16.8139 20.912 16.8138C20.8873 16.8123 20.8626 16.8168 20.8399 16.8269C20.8173 16.8369 20.7975 16.8524 20.782 16.8717C20.6847 16.9708 20.5681 17.0489 20.4394 17.1011C20.3109 17.1534 20.1729 17.1789 20.0341 17.1757C19.9251 17.1872 19.8155 17.16 19.7245 17.099C19.6335 17.038 19.5668 16.9469 19.536 16.8418C19.536 16.8058 19.568 16.7738 19.648 16.7518C20.502 16.4858 20.848 16.3078 20.992 16.1738C21.0247 16.1445 21.0511 16.1088 21.0694 16.0689C21.0875 16.0289 21.0973 15.9857 21.0981 15.9418C21.096 15.5997 20.6 14.9997 19.854 14.9997C19.5344 15.0013 19.2279 15.1277 19 15.3518C18.8671 15.4862 18.7631 15.6464 18.6943 15.8225C18.6256 15.9986 18.5935 16.1869 18.6 16.3757C18.5913 16.5562 18.6204 16.7363 18.6855 16.9048C18.7507 17.0733 18.8503 17.2262 18.9781 17.3538C19.2395 17.5974 19.5868 17.7276 19.944 17.7158C20.132 17.7197 20.319 17.6864 20.494 17.6178C20.6691 17.5492 20.8289 17.4465 20.964 17.3158L20.974 17.3218ZM20.3 15.9398C20.3 16.1058 20.23 16.1538 19.9621 16.2477C19.8255 16.3042 19.6823 16.3432 19.536 16.3638C19.446 16.3638 19.406 16.2957 19.406 16.1638C19.406 15.8358 19.5 15.4358 19.846 15.4358C20.192 15.4358 20.3 15.7818 20.3 15.9458V15.9398ZM29.2101 15.7638C29.2101 15.2658 28.952 15.0118 28.5461 15.0118C28.3325 15.0177 28.1248 15.0828 27.9461 15.1997C27.8741 15.2438 27.852 15.2578 27.8341 15.2578C27.764 15.2578 27.812 15.0738 27.684 15.0738H26.9C26.852 15.0738 26.838 15.0738 26.82 15.0918C26.7906 15.1606 26.7769 15.235 26.78 15.3098C26.7792 15.3196 26.7804 15.3293 26.7834 15.3387C26.7865 15.3479 26.7915 15.3565 26.798 15.3638C26.8341 15.3997 26.9 15.4118 26.9541 15.4658C27.003 15.5408 27.0236 15.6309 27.012 15.7197V16.9078C27.012 17.0598 26.998 17.1578 26.9541 17.2018C26.8901 17.2486 26.8233 17.2913 26.7541 17.3298C26.7422 17.3467 26.7372 17.3674 26.74 17.3878C26.735 17.4709 26.7451 17.5543 26.7701 17.6338C26.7967 17.6511 26.8284 17.6589 26.86 17.6557H28C28.0298 17.6598 28.06 17.6519 28.084 17.6338C28.1167 17.5562 28.1304 17.4718 28.124 17.3878C28.1268 17.3674 28.1218 17.3467 28.11 17.3298C28.0411 17.2908 27.9743 17.248 27.91 17.2018C27.8543 17.1146 27.831 17.0105 27.844 16.9078V16.0198C27.844 15.6598 28.044 15.5478 28.19 15.5478C28.336 15.5478 28.4261 15.6598 28.4261 15.8938V17.1277C28.4225 17.2029 28.4352 17.2778 28.4632 17.3475C28.4912 17.4173 28.5338 17.4801 28.5883 17.5319C28.6427 17.5837 28.7077 17.6232 28.7787 17.6477C28.8498 17.6721 28.9253 17.6811 29 17.6738C29.1255 17.6838 29.2511 17.654 29.3588 17.5886C29.4665 17.5233 29.5509 17.4257 29.6 17.3098C29.6 17.2558 29.516 17.1498 29.462 17.1498C29.408 17.1498 29.312 17.2298 29.262 17.2298C29.212 17.2298 29.214 17.2077 29.214 17.1357V15.7518L29.2101 15.7638ZM22.222 14.1138H21.368C21.316 14.1138 21.292 14.1138 21.28 14.1357C21.2573 14.1999 21.2465 14.2677 21.248 14.3357C21.2468 14.358 21.2517 14.3802 21.262 14.3997C21.292 14.4298 21.414 14.4618 21.462 14.5138C21.51 14.5658 21.5301 14.6477 21.5301 14.9858V16.7658C21.5301 17.0638 21.4981 17.1658 21.462 17.1938C21.3984 17.2411 21.3316 17.2838 21.262 17.3218C21.2512 17.3391 21.2463 17.3595 21.248 17.3798C21.2422 17.4631 21.253 17.5468 21.28 17.6258C21.294 17.6378 21.312 17.6477 21.3701 17.6477H22.486C22.544 17.6477 22.5621 17.6477 22.574 17.6258C22.6062 17.548 22.6205 17.4639 22.616 17.3798C22.6174 17.3694 22.6166 17.3588 22.6135 17.3488C22.6103 17.3388 22.6051 17.3295 22.598 17.3218C22.5279 17.2847 22.4611 17.2419 22.398 17.1938C22.348 17.1498 22.3301 17.0518 22.3301 16.8998V16.7997C22.3301 16.7418 22.348 16.7238 22.446 16.6258C22.4763 16.5907 22.5169 16.5662 22.5621 16.5558C22.606 16.5558 22.6421 16.5858 23.132 17.5738C23.1621 17.6358 23.176 17.6498 23.256 17.6498H24C24.0298 17.6539 24.06 17.646 24.084 17.6278C24.1131 17.5492 24.1254 17.4654 24.12 17.3818C24.1228 17.3613 24.1178 17.3406 24.1061 17.3238C24.076 17.2938 23.888 17.2718 23.848 17.1958C23.204 16.1058 23.1861 16.0698 23.1861 15.9958C23.3281 15.7909 23.5039 15.6117 23.7061 15.4658C23.8581 15.3458 23.956 15.4258 23.956 15.2838C23.956 15.1418 23.934 15.0598 23.902 15.0598H22.824C22.732 15.0598 22.7221 15.1138 22.7221 15.3138C22.7221 15.3798 22.91 15.3898 22.91 15.4838C22.7735 15.6934 22.5917 15.8697 22.3781 15.9997C22.352 15.9997 22.3461 15.9818 22.3461 15.9058V14.2258C22.3471 14.2099 22.3449 14.1939 22.3396 14.1789C22.3343 14.1639 22.3259 14.1501 22.315 14.1386C22.3042 14.1269 22.291 14.1177 22.2763 14.1114C22.2617 14.105 22.2459 14.1018 22.23 14.1018" fill="white"/>
<path d="M4.88204 13.3998L5.47205 15.1998H7.36405L5.83804 16.3178L6.41605 18.1178L4.88204 17.0118L3.34805 18.1178L3.92604 16.3178L2.40005 15.1998H4.29004L4.88204 13.3998Z" fill="#EE3933"/>
</svg>
