<svg width="32" height="32" viewBox="0 0 32 32" fill="none" xmlns="http://www.w3.org/2000/svg">
<path d="M0 16C0 24.8365 7.16344 32 16 32C24.8365 32 32 24.8365 32 16C32 7.16344 24.8365 0 16 0C7.16344 0 0 7.16344 0 16Z" fill="#E62529"/>
<path d="M16 25.894L18.704 10.694C21.282 10.694 22.104 10.9759 22.212 12.1299C22.212 12.1299 23.942 11.486 24.812 10.1759C22.6632 9.20749 20.3536 8.64534 18 8.51794L16 10.948L14 8.51794C11.643 8.64072 9.32924 9.1995 7.17601 10.166C8.04801 11.476 9.776 12.1199 9.776 12.1199C9.89402 10.966 10.706 10.684 13.266 10.6819L16 25.894Z" fill="white"/>
<path d="M16.0001 7.81629C19.1365 7.77631 22.2457 8.39995 25.1241 9.64629C25.3361 9.28964 25.5174 8.91563 25.6661 8.52829C22.5903 7.3011 19.3116 6.66203 16.0001 6.64429C12.6886 6.66203 9.40986 7.3011 6.33411 8.52829C6.48872 8.91269 6.66914 9.28621 6.87411 9.64629C9.75314 8.3999 12.8632 7.77627 16.0001 7.81629Z" fill="white"/>
</svg>
