<svg width="32" height="32" viewBox="0 0 32 32" fill="none" xmlns="http://www.w3.org/2000/svg">
<path d="M0 16C0 24.8365 7.16344 32 16 32C24.8365 32 32 24.8365 32 16C32 7.16344 24.8365 0 16 0C7.16344 0 0 7.16344 0 16Z" fill="#1D1D1B"/>
<path fill-rule="evenodd" clip-rule="evenodd" d="M7.40001 8.87025C7.264 8.89225 7.132 9.39425 6.87 9.65421C6.67 9.84423 6.436 9.83228 6.308 10.0542C6.26 10.1422 6.276 10.2903 6.22 10.4343C6.114 10.7203 5.734 10.7443 5.734 11.0563C5.734 11.3683 6.05 11.4563 6.324 11.6942C6.54001 11.8942 6.56 12.0183 6.82 12.1123C7.04 12.1882 7.37 11.9402 7.66801 12.0302C7.91201 12.1022 8.14401 12.1543 8.20001 12.4042C8.25601 12.6542 8.20001 12.9943 7.90001 12.9523C7.554 12.8602 7.1951 12.8264 6.838 12.8522C6.198 12.9242 5.468 13.1342 5.396 13.8522C5.356 14.2522 5.85 14.7203 6.326 14.6243C6.656 14.5603 6.50001 14.1722 6.68001 13.9822C6.914 13.7402 8.24801 14.8263 9.48 14.8263C9.72217 14.8395 9.96424 14.7985 10.1885 14.7061C10.4127 14.6136 10.6135 14.4723 10.776 14.2922C10.812 14.2602 10.856 14.1943 10.91 14.1902C10.9733 14.2043 11.033 14.2309 11.086 14.2682C12.086 15.0682 12.838 16.6682 16.504 16.6983C17.1011 16.7313 17.6657 16.9809 18.092 17.4003C18.52 17.8003 18.77 18.4122 19.014 19.0362C19.382 19.9722 20.038 20.8842 21.036 21.8982C21.09 21.9523 21.91 22.5902 21.976 22.6382C22.0157 22.7087 22.0332 22.7896 22.026 22.8702C22.002 23.4702 21.914 25.2462 23.226 25.3262C23.548 25.3422 23.464 25.1262 23.464 24.9603C23.464 24.6522 23.408 24.3463 23.57 24.0302C23.792 23.5962 23.098 23.3982 23.118 22.4602C23.134 21.7603 22.546 21.8803 22.248 21.3482C22.076 21.0382 21.924 20.8743 21.934 20.4983C22.002 18.3742 21.482 16.9783 21.224 16.6343C21.024 16.3763 20.854 16.2743 21.04 16.1543C22.14 15.4263 22.39 14.7543 22.39 14.7543C22.974 13.3802 23.5 12.1242 24.226 11.5703C24.4611 11.3816 24.7121 11.2137 24.976 11.0682C25.654 10.7482 26.01 10.5543 26.206 10.3623C26.516 10.0602 26.764 9.42823 26.466 9.04425C26.094 8.57225 25.452 8.94625 25.17 9.11425C23.148 10.3143 22.85 12.4323 22.148 13.6483C21.6 14.6003 20.688 15.3203 19.874 15.3783C19.2144 15.4144 18.556 15.2887 17.956 15.0122C16.976 14.579 16.075 13.9856 15.29 13.2563C14.862 12.9262 11.546 9.67021 8.86001 9.53825C8.86001 9.53825 8.52601 8.87025 8.442 8.86025C8.242 8.83425 8.042 9.26025 7.90001 9.30825C7.758 9.35625 7.53601 8.84825 7.40001 8.87025Z" fill="white"/>
</svg>
