<svg width="32" height="32" viewBox="0 0 32 32" fill="none" xmlns="http://www.w3.org/2000/svg">
<path d="M0 16C0 24.8365 7.16344 32 16 32C24.8365 32 32 24.8365 32 16C32 7.16344 24.8365 0 16 0C7.16344 0 0 7.16344 0 16Z" fill="#FF0000"/>
<path fill-rule="evenodd" clip-rule="evenodd" d="M24.6855 18.7697C24.6855 18.7697 27.6657 19.9073 27.3018 24.1622H27.3398C27.4692 23.8894 29.2132 20.1729 26.4455 18.4513C26.4455 18.4513 27.5607 15.7131 25.4744 13.1727C24.4203 11.8832 22.4701 10.647 18.9139 11.1631C18.9139 11.1631 14.5224 3.82124 7.70382 8.63736C7.70382 8.63736 8.21993 10.0179 7.1582 11.4662L7.18097 11.4818C8.21191 10.8746 13.1423 6.28622 18.4809 11.7698C18.4813 11.7698 26.9152 10.9881 24.6855 18.7697Z" fill="white"/>
<path fill-rule="evenodd" clip-rule="evenodd" d="M14.2264 19.2099C14.2264 19.2099 16.3806 16.5779 18.8384 18.9822C18.8384 18.9822 20.4993 16.9646 23.0853 18.125C24.2604 18.6483 25.9677 20.3627 24.0867 23.9948C24.0867 24.0033 24.0407 24.0033 24.0407 23.9948C24.0407 23.9948 24.8065 20.9163 22.5692 19.5211C21.6673 18.9523 20.0064 19.0733 18.3451 20.886C18.3451 20.886 17.5633 19.4372 16.2368 19.8394C16.2368 19.8394 16.4033 21.9781 15.084 24.1323C15.084 24.1403 15.0465 24.1323 15.0465 24.1323C15.0465 24.1323 15.8194 20.8101 14.2264 19.2099ZM6.10363 19.9229C6.10363 19.9229 8.87979 17.6776 11.1854 18.7094C12.6485 19.3613 13.0356 21.174 12.7552 23.9948H12.7932C13.0052 23.5023 15.7279 18.4518 11.5796 16.9191C10.7911 16.6235 9.69864 16.5324 7.7194 17.2606L5.88352 11.9895C5.88352 11.9895 8.7963 8.0458 4.00337 7.14304C4.00337 7.14304 3.99578 7.1734 4.00337 7.1734C4.4655 7.43145 7.31715 9.23654 4.12481 11.4055L6.10363 19.9229Z" fill="white"/>
</svg>
