<svg width="32" height="32" viewBox="0 0 32 32" fill="none" xmlns="http://www.w3.org/2000/svg">
<mask id="mask0" mask-type="alpha" maskUnits="userSpaceOnUse" x="0" y="0" width="32" height="32">
<path d="M0 16C0 24.8365 7.16344 32 16 32C24.8365 32 32 24.8365 32 16C32 7.16344 24.8365 0 16 0C7.16344 0 0 7.16344 0 16Z" fill="#F7F7F7"/>
</mask>
<g mask="url(#mask0)">
<path fill-rule="evenodd" clip-rule="evenodd" d="M31.9882 -1L32 -0.98821V32H-1V-1H31.9882Z" fill="#2E559F"/>
<path fill-rule="evenodd" clip-rule="evenodd" d="M22.514 -2C26.2375 0.656681 29.4556 4.03368 32 7.95424V33H-1V-2H22.514Z" fill="#2E559F"/>
<path fill-rule="evenodd" clip-rule="evenodd" d="M-1 -1.75404C0.230783 -1.91829 1.47007 -2.00043 2.71056 -2C17.7054 -2 30.091 9.84824 32 25.1676V33H-1V-1.75404Z" fill="#2E559F"/>
<path fill-rule="evenodd" clip-rule="evenodd" d="M-1 -1.75099C0.230724 -1.91715 1.47004 -2.00032 2.71056 -2C18.8814 -2 32 12.0076 32 29.2718C32 30.5179 31.9304 31.7628 31.7917 33H-1V-1.75099Z" fill="#2E559C"/>
<path fill-rule="evenodd" clip-rule="evenodd" d="M-1 -0.755503C0.238937 -0.918836 1.4866 -1.0005 2.73548 -0.999998C18.9028 -0.999998 32 12.6 32 29.3497C32 30.5859 31.9268 31.8029 31.789 33H-1V-0.755503Z" fill="#2D569C"/>
<path fill-rule="evenodd" clip-rule="evenodd" d="M-1 -0.75039C0.248583 -0.916978 1.50618 -1.00035 2.76505 -0.999999C18.9121 -0.999999 32 12.5761 32 29.3248C32 30.5694 31.9262 31.7947 31.7846 33H-1V-0.75039Z" fill="#2D579D"/>
<path fill-rule="evenodd" clip-rule="evenodd" d="M-1 -0.745604C0.218899 -0.9152 1.44677 -1.00018 2.67591 -1C18.3303 -1 31 12.5684 31 29.2953C31 30.5499 30.928 31.785 30.7897 33H-0.999346V-0.745604H-1Z" fill="#2B589B"/>
<path fill-rule="evenodd" clip-rule="evenodd" d="M-1 -0.742445C0.228632 -0.914033 1.46639 -1.00007 2.70544 -1C18.3397 -1 31 12.5447 31 29.2697C31 30.5329 30.9274 31.7766 30.7867 33H-1V-0.742445Z" fill="#2B599B"/>
<path fill-rule="evenodd" clip-rule="evenodd" d="M-1 -0.736417C0.236946 -0.911675 1.48333 -0.999726 2.73107 -1C18.326 -1 31 12.5604 31 29.2436C31 30.5157 30.9256 31.7695 30.7826 33H-1V-0.736417Z" fill="#2C5A9A"/>
<path fill-rule="evenodd" clip-rule="evenodd" d="M-1 0.258616C0.245481 0.086203 1.50059 -0.000191412 2.75706 3.18415e-07C18.3478 3.18415e-07 31 13.1142 31 29.3242C31 30.569 30.9237 31.7959 30.7798 33H-1V0.258616Z" fill="#2C5B98"/>
<path fill-rule="evenodd" clip-rule="evenodd" d="M-1 0.263923C0.216307 0.0884313 1.44219 0.000260064 2.66947 0C17.7879 0 30 13.1294 30 29.2981C30 30.5532 29.9255 31.7873 29.7836 33H-1V0.263923Z" fill="#2B5D98"/>
<path fill-rule="evenodd" clip-rule="evenodd" d="M-1 0.268218C0.224841 0.0897696 1.4595 0.000160563 2.69557 0C17.7747 0 30 13.121 30 29.2674C30 30.5328 29.925 31.7773 29.7808 33H-1V0.268218Z" fill="#285D97"/>
<path fill-rule="evenodd" clip-rule="evenodd" d="M-1 0.272973C0.23493 0.0915909 1.47993 0.00038932 2.7264 0C17.7853 0 30 13.0963 30 29.2405C30 30.515 29.9243 31.7685 29.7763 33H-1V0.272973Z" fill="#285E97"/>
<path fill-rule="evenodd" clip-rule="evenodd" d="M-1 1.2697C0.243636 1.09037 1.49765 1.00026 2.75316 1C17.8075 1 30 13.6912 30 29.3235C30 30.5699 29.9225 31.7957 29.772 33H-1V1.2697Z" fill="#2B6197"/>
<path fill-rule="evenodd" clip-rule="evenodd" d="M-1 1.27306C0.213625 1.09161 1.43746 1.00037 2.66278 1C17.2104 1 29 13.6666 29 29.2966C29 30.5521 28.923 31.7868 28.775 33H-1V1.27306Z" fill="#2B6196"/>
<path fill-rule="evenodd" clip-rule="evenodd" d="M-1 1.27751C0.222362 1.09305 1.45517 1.00032 2.6895 1C17.2325 1 29 13.6576 29 29.2648C29 30.5311 28.9212 31.7778 28.7707 33H-1V1.27751Z" fill="#2E6497"/>
<path fill-rule="evenodd" clip-rule="evenodd" d="M-1 2.27425C0.232701 2.09206 1.47619 2.00042 2.72126 2C17.2436 2 29 14.2387 29 29.3547C29 30.5906 28.9192 31.8072 28.7668 33H-1V2.27425Z" fill="#2F6595"/>
<path fill-rule="evenodd" clip-rule="evenodd" d="M-1 2.27975C0.241674 2.09367 1.49453 2.00018 2.74901 2C17.2671 2 29 14.2525 29 29.3274C29 30.5739 28.9186 31.7983 28.765 33H-1V2.27975Z" fill="#2E6695"/>
<path fill-rule="evenodd" clip-rule="evenodd" d="M-1 2.28291C0.19254 2.09801 1.41087 2 2.65111 2C16.6464 2 28 14.2048 28 29.295C28 30.5525 27.9194 31.7877 27.766 33H-1V2.28291Z" fill="#2F6694"/>
<path fill-rule="evenodd" clip-rule="evenodd" d="M-1 2.28926C0.203022 2.09946 1.43206 2 2.6832 2C16.6552 2 28 14.219 28 29.2669C28 30.5339 27.9174 31.7799 27.7626 33H-0.999345V2.28926H-1Z" fill="#306995"/>
<path fill-rule="evenodd" clip-rule="evenodd" d="M-1 3.28312C0.228824 3.09481 1.46916 3.00018 2.71116 3C16.6778 3 28 14.8152 28 29.355C28 30.5921 27.9155 31.8087 27.7582 33H-1V3.28312Z" fill="#2E6A93"/>
<path fill-rule="evenodd" clip-rule="evenodd" d="M-1 3.28807C0.239679 3.096 1.49128 2.99972 2.74458 3C16.6902 3 28 14.7909 28 29.3268C28 30.5735 27.916 31.7995 27.756 33H-1V3.28807Z" fill="#2F6B92"/>
<path fill-rule="evenodd" clip-rule="evenodd" d="M-1 3.29208C0.231179 3.10015 1.49167 3 2.77348 3C16.7135 3 28 14.7423 28 29.2934C28 30.5528 27.9141 31.7886 27.7502 33H-1V3.29208Z" fill="#2F6C92"/>
<path fill-rule="evenodd" clip-rule="evenodd" d="M-1 3.29788C0.216826 3.09905 1.44579 2.99948 2.67647 3C16.1134 3 27 14.7555 27 29.2642C27 30.5321 26.915 31.779 26.754 33H-1V3.29788Z" fill="#306E93"/>
<path fill-rule="evenodd" clip-rule="evenodd" d="M-1 3.30449C0.226099 3.10096 1.46484 2.99917 2.70534 3.00001C16.1365 3.00001 27 14.7697 27 29.2345C27 30.514 26.913 31.7693 26.7494 33H-1V3.30449Z" fill="#306E91"/>
<path fill-rule="evenodd" clip-rule="evenodd" d="M-1 4.29915C0.235802 4.09982 1.4844 3.99982 2.73483 4C16.1252 4 27 15.329 27 29.3262C27 30.5744 26.9123 31.7993 26.7448 33H-1V4.29915Z" fill="#327090"/>
<path fill-rule="evenodd" clip-rule="evenodd" d="M-0.99934 4.30573C0.22925 4.10423 1.48846 4 2.77029 4C16.137 4 27 15.3426 27 29.2965C27 30.5548 26.9115 31.791 26.7411 33H-1V4.30573H-0.99934Z" fill="#34728F"/>
<path fill-rule="evenodd" clip-rule="evenodd" d="M-0.999358 4.31004C0.212772 4.10357 1.43791 3.99991 2.66491 4C15.548 4 26 15.2926 26 29.2613C26 30.5316 25.9127 31.7795 25.7458 33H-1V4.31004H-0.999358Z" fill="#35748F"/>
<path fill-rule="evenodd" clip-rule="evenodd" d="M-1 5.30726C0.223311 5.10265 1.46023 4.99991 2.6991 5C15.595 5 26 15.9161 26 29.3606C26 30.5979 25.9105 31.8119 25.742 33H-1V5.30726Z" fill="#35758E"/>
<path fill-rule="evenodd" clip-rule="evenodd" d="M-1 5.31257C0.233185 5.10465 1.48029 5.00013 2.72941 5C15.5828 5 26 15.8909 26 29.3305C26 30.578 25.9085 31.8034 25.7366 33H-0.999337V5.31257H-1Z" fill="#38778E"/>
<path fill-rule="evenodd" clip-rule="evenodd" d="M-1 5.31908C0.244868 5.1066 1.50415 4.99989 2.76549 5C15.5944 5 26 15.8801 26 29.2948C26 30.5544 25.9076 31.7918 25.7327 33H-1V5.31908Z" fill="#38788E"/>
<path fill-rule="evenodd" clip-rule="evenodd" d="M-1 5.32528C0.208609 5.10873 1.43151 4.99994 2.65646 5C15.0054 5 25 15.8934 25 29.2635C25 30.5338 24.909 31.7816 24.7366 33H-1V5.32528Z" fill="#3C7B8E"/>
<path fill-rule="evenodd" clip-rule="evenodd" d="M-1 6.32019C0.218561 6.10708 1.45184 5.99999 2.68722 6C14.9936 6 25 16.4551 25 29.3611C25.0001 30.5796 24.9095 31.7963 24.7292 33H-1V6.32019Z" fill="#3C7B8D"/>
<path fill-rule="evenodd" clip-rule="evenodd" d="M-1 6.325C0.230503 6.10869 1.47606 5.99998 2.72377 6C15.0417 6 25 16.429 25 29.33C24.9997 30.5589 24.9079 31.786 24.7252 33H-1V6.325Z" fill="#3D7D8B"/>
<path fill-rule="evenodd" clip-rule="evenodd" d="M-1 6.33268C0.24075 6.11149 1.49709 6.0002 2.75568 6C15.0306 6 25 16.4416 25 29.2981C25 30.558 24.9019 31.7943 24.7175 33H-1V6.33268Z" fill="#3E7E8B"/>
<path fill-rule="evenodd" clip-rule="evenodd" d="M-0.999361 6.34028C0.205393 6.11363 1.42575 5.99978 2.64834 6C14.4621 6 24 16.4301 24 29.2604C24 30.5331 23.9047 31.782 23.7244 33H-1V6.34028H-0.999361Z" fill="#41818B"/>
<path fill-rule="evenodd" clip-rule="evenodd" d="M-0.999356 6.34612C0.19604 6.11962 1.42522 6 2.68038 6C14.4518 6 24 16.4026 24 29.2274C24 30.5114 23.9026 31.7712 23.7181 33H-1V6.34612H-0.999356Z" fill="#418189"/>
<path fill-rule="evenodd" clip-rule="evenodd" d="M-1 7.3409C0.225579 7.11367 1.46774 6.9996 2.71225 7C14.4408 7 24 17.0059 24 29.3293C24 30.58 23.9004 31.8058 23.7123 33H-1V7.3409Z" fill="#438388"/>
<path fill-rule="evenodd" clip-rule="evenodd" d="M-1 7.34605C0.238109 7.11498 1.49326 6.99918 2.7508 7C14.4899 7 24 16.9791 24 29.2963C24 30.5582 23.898 31.7951 23.7066 33H-1V7.34605Z" fill="#438486"/>
<path fill-rule="evenodd" clip-rule="evenodd" d="M-1 7.35464C0.198946 7.11802 1.41483 6.99934 2.6331 7C13.8961 7 23 16.9663 23 29.257C22.9995 30.5112 22.9036 31.7632 22.7133 33H-1V7.35464Z" fill="#478688"/>
<path fill-rule="evenodd" clip-rule="evenodd" d="M-1 8.34754C0.190243 8.11925 1.41809 8 2.67186 8C13.9092 8 23 17.5565 23 29.3679C23 30.6054 22.8989 31.8197 22.7076 33H-1V8.34754Z" fill="#478686"/>
<path fill-rule="evenodd" clip-rule="evenodd" d="M-0.999351 8.35611C0.222897 8.1188 1.46319 7.9996 2.70604 8C13.8988 8 23 17.544 23 29.3287C23 30.5809 22.8966 31.807 22.701 33H-1V8.35611H-0.999351Z" fill="#488987"/>
<path fill-rule="evenodd" clip-rule="evenodd" d="M-1 8.36432C0.235154 8.12175 1.489 7.99979 2.74552 8C13.9483 8 23 17.5556 23 29.2943C23 30.5583 22.8955 31.7958 22.6951 33H-1V8.36432Z" fill="#498984"/>
<path fill-rule="evenodd" clip-rule="evenodd" d="M-1 8.37336C0.24625 8.12455 1.512 7.99954 2.78052 8C13.9385 8 23 17.5271 23 29.2593C23 30.5135 22.8953 31.7652 22.687 33H-1V8.37336Z" fill="#498B85"/>
<path fill-rule="evenodd" clip-rule="evenodd" d="M-1 9.36584C0.205446 9.12236 1.43004 8.99987 2.65737 9C13.3434 9 22 18.1336 22 29.3689C22 30.6074 21.8954 31.8214 21.6946 33H-1V9.36584Z" fill="#4C8D85"/>
<path fill-rule="evenodd" clip-rule="evenodd" d="M-1 9.37418C0.218516 9.12504 1.45693 8.99974 2.69818 9C13.3566 9 22 18.1056 22 29.3338C22 30.5857 21.8929 31.81 21.6866 33H-1V9.37418Z" fill="#4D8E83"/>
<path fill-rule="evenodd" clip-rule="evenodd" d="M-1 9.38401C0.229796 9.12839 1.48026 8.99978 2.73369 9C13.3837 9 22 18.0924 22 29.2921C22 30.5582 21.8892 31.7979 21.6796 33H-0.999336V9.38401H-1Z" fill="#4D8F83"/>
<path fill-rule="evenodd" clip-rule="evenodd" d="M-1 9.392C0.243461 9.13093 1.50831 8.99963 2.77622 9C13.3982 9 22 18.0638 22 29.2556C22 30.5356 21.8867 31.7861 21.6706 33H-1V9.392Z" fill="#4E9182"/>
<path fill-rule="evenodd" clip-rule="evenodd" d="M-1 10.3841C0.200786 10.1284 1.42267 9.9997 2.64756 10C12.7627 10 21 18.6728 21 29.3699C21 30.6108 20.8879 31.8245 20.678 33H-1V10.3841Z" fill="#519281"/>
<path fill-rule="evenodd" clip-rule="evenodd" d="M-0.999354 10.3928C0.214906 10.1307 1.45118 9.99909 2.69055 10C12.8137 10 21 18.683 21 29.3334C21 30.5868 20.8853 31.8126 20.6704 33H-1V10.3928H-0.999354Z" fill="#519381"/>
<path fill-rule="evenodd" clip-rule="evenodd" d="M-1 10.4038C0.226011 10.1346 1.47498 9.9993 2.72721 10C12.8046 10 21 18.6539 21 29.296C21 30.5622 20.8829 31.8006 20.6604 33H-1V10.4038Z" fill="#529681"/>
<path fill-rule="evenodd" clip-rule="evenodd" d="M-1 10.4114C0.238242 10.1372 1.49998 9.99937 2.76505 10C12.8331 10 21 18.6001 21 29.2516C21 30.5344 20.8803 31.7869 20.6543 33H-1V10.4114Z" fill="#54967E"/>
<path fill-rule="evenodd" clip-rule="evenodd" d="M-1 11.4058C0.195543 11.1357 1.41464 10.9997 2.6371 11C12.2192 11 20 19.2357 20 29.3773C20.0002 30.5936 19.8873 31.8071 19.6629 33H-1V11.4058Z" fill="#55977F"/>
<path fill-rule="evenodd" clip-rule="evenodd" d="M-1 11.4149C0.207589 11.1386 1.43949 10.9996 2.67485 11C12.2474 11 20 19.2204 20 29.3329C20 30.5892 19.8806 31.8145 19.6542 33H-1V11.4149Z" fill="#55997E"/>
<path fill-rule="evenodd" clip-rule="evenodd" d="M-1 11.4263C0.221841 11.1427 1.46905 10.9998 2.71991 11C12.262 11 20 19.1912 20 29.2938C20 30.5635 19.8765 31.8019 19.6447 33H-1V11.4263Z" fill="#55997E"/>
<path fill-rule="evenodd" clip-rule="evenodd" d="M-1 20.8981C0.126235 20.3042 1.3585 19.9974 2.60611 20C7.24936 20 11 24.1488 11 29.2457C11 30.5826 10.7453 31.8526 10.2876 33H-1V20.8981Z" fill="#55997E"/>
</g>
<path fill-rule="evenodd" clip-rule="evenodd" d="M16.2337 13.3994C16.4903 13.5272 16.6698 13.7834 16.6437 13.9884C16.5921 14.1934 16.362 14.2701 16.1059 14.1678C15.8493 14.0399 15.6699 13.7838 15.6959 13.5788C15.7479 13.3738 15.978 13.2966 16.2337 13.3994ZM16.8492 9.27562C17.0533 9.37835 17.2076 9.55733 17.182 9.68517C17.182 9.81346 17.0026 9.83903 16.772 9.7363C16.5679 9.63403 16.4136 9.4546 16.4392 9.32676C16.4392 9.19892 16.6442 9.17335 16.8492 9.27562ZM16.8999 8.86608C17.0793 8.94278 17.2076 9.09664 17.1816 9.19892C17.1816 9.32721 17.0282 9.32721 16.8487 9.25005C16.6693 9.14778 16.541 9.01949 16.567 8.89165C16.5675 8.78892 16.7209 8.78892 16.8999 8.86608ZM16.951 8.45653C17.1053 8.5588 17.2327 8.68665 17.2327 8.76381C17.2076 8.86608 17.0793 8.86608 16.8999 8.78937C16.7465 8.71267 16.6182 8.58483 16.6437 8.4821C16.6442 8.40494 16.7976 8.37937 16.951 8.45653ZM17.0026 8.0721C17.156 8.1488 17.2587 8.25153 17.2587 8.3538C17.2327 8.43051 17.1304 8.43051 16.951 8.3538C16.7976 8.2771 16.6949 8.17437 16.7209 8.0721C16.7209 7.9954 16.8492 7.9954 17.0026 8.0721ZM17.0533 7.68767C17.1816 7.76437 17.2843 7.8671 17.2843 7.94426C17.2843 8.02096 17.156 8.04653 17.0026 7.96983C16.8743 7.89312 16.7716 7.76483 16.7716 7.68812C16.7976 7.63653 16.8999 7.63653 17.0533 7.68767ZM17.0793 7.3804C17.2327 7.43153 17.3094 7.5338 17.3094 7.61096C17.3094 7.6621 17.182 7.6621 17.0533 7.61096C16.9259 7.53426 16.8492 7.43153 16.8492 7.3804C16.8492 7.30369 16.951 7.30369 17.0793 7.3804ZM17.13 7.04755C17.2583 7.09869 17.335 7.17585 17.335 7.25255C17.3089 7.32926 17.2322 7.30369 17.1049 7.25255C16.9766 7.20142 16.8999 7.12426 16.8999 7.04755C16.9259 6.97085 17.0026 6.99642 17.13 7.04755ZM17.182 6.71471C17.2848 6.76585 17.3615 6.84255 17.3615 6.89415C17.3354 6.97085 17.2587 6.94528 17.1565 6.89415C17.0542 6.84301 16.977 6.76631 16.977 6.71471C16.977 6.66312 17.0793 6.66358 17.182 6.71471ZM17.2076 6.40698C17.3094 6.45812 17.387 6.53482 17.387 6.58642C17.361 6.63755 17.2843 6.61199 17.182 6.58642C17.1053 6.53528 17.0286 6.45858 17.0286 6.40698C17.0533 6.35585 17.1053 6.38187 17.2076 6.40698ZM17.2587 6.12528C17.3354 6.1513 17.387 6.20198 17.387 6.25358C17.387 6.30471 17.3094 6.27914 17.2327 6.25358C17.156 6.20244 17.0793 6.1513 17.0793 6.10017C17.1053 6.07414 17.156 6.07414 17.2587 6.12528ZM17.2843 5.84357C17.361 5.8696 17.4117 5.92074 17.4117 5.9463C17.3866 5.99744 17.335 5.99744 17.2843 5.9463C17.2076 5.92074 17.156 5.8696 17.156 5.81846C17.156 5.79289 17.2076 5.79289 17.2843 5.84357ZM16.0041 14.859C15.773 14.7563 15.6457 14.5262 15.6708 14.3468C15.6968 14.1673 15.9018 14.0906 16.1068 14.1934C16.3109 14.2956 16.4652 14.5006 16.4396 14.7056C16.4132 14.8846 16.2337 14.9362 16.0041 14.859ZM15.8753 15.7297C15.6452 15.6274 15.5169 15.4224 15.5425 15.2174C15.5685 15.038 15.7475 14.9613 15.9776 15.064C16.1826 15.1668 16.3104 15.3713 16.2853 15.5507C16.2597 15.7557 16.0803 15.8324 15.8753 15.7297ZM15.7219 16.652C15.5169 16.5493 15.3635 16.3447 15.4142 16.1397C15.4402 15.9603 15.6192 15.8836 15.8242 15.9603C16.0292 16.063 16.157 16.2676 16.131 16.4726C16.1063 16.652 15.9274 16.7287 15.7219 16.652ZM15.5429 17.6505C15.3635 17.5738 15.2096 17.3432 15.2612 17.1643C15.2873 16.9593 15.4662 16.8826 15.6703 16.9593C15.8753 17.062 16.0036 17.2665 15.978 17.4715C15.9274 17.6505 15.7479 17.7277 15.5429 17.6505ZM15.3886 18.6755C15.2092 18.5728 15.1069 18.3938 15.1325 18.2144C15.158 18.0349 15.3119 17.9582 15.4909 18.0349C15.5756 18.0692 15.6467 18.1305 15.693 18.2092C15.7394 18.288 15.7586 18.3798 15.7475 18.4705C15.7219 18.6495 15.5685 18.7266 15.3886 18.6755ZM15.1845 19.879C15.0051 19.8279 14.9028 19.6224 14.9279 19.4435C14.954 19.264 15.1074 19.1618 15.2873 19.2389C15.4407 19.3156 15.569 19.4951 15.5434 19.674C15.4909 19.8535 15.3379 19.9557 15.1845 19.879ZM14.9535 21.2109C14.8001 21.1597 14.6974 20.9547 14.7234 20.7753C14.7485 20.6219 14.9028 20.5191 15.0562 20.5959C15.2096 20.647 15.2873 20.8264 15.2612 21.0054C15.2352 21.1853 15.1069 21.262 14.9535 21.2109ZM14.7234 22.5166C14.5951 22.466 14.5184 22.3126 14.544 22.1582C14.5691 22.0048 14.6713 21.9281 14.8257 21.9788C14.953 22.0048 15.0297 22.1582 15.0051 22.3372C14.9535 22.4915 14.8508 22.5682 14.7234 22.5166ZM17.13 13.8605C17.335 13.9628 17.4893 14.1678 17.4633 14.3468C17.4372 14.5257 17.2838 14.5773 17.0788 14.4751C16.8487 14.3728 16.7204 14.1678 16.7204 13.9884C16.7716 13.8345 16.9259 13.7833 17.13 13.8605ZM18.0271 14.2189C18.2833 14.3468 18.4622 14.6029 18.4622 14.8079C18.4362 15.0129 18.2312 15.0896 17.9755 14.9873C17.7194 14.8595 17.5404 14.6034 17.5404 14.3728C17.566 14.1678 17.7705 14.0911 18.0271 14.2189ZM24.7625 13.5021C24.6351 13.451 24.583 13.451 24.6091 13.5532C24.6091 13.6555 24.7118 13.7838 24.8401 13.8605C24.9419 13.9116 24.9935 13.9116 24.9935 13.8094C24.9675 13.7066 24.8652 13.5788 24.7625 13.5021ZM24.0456 13.0921C23.9429 13.041 23.8662 13.0665 23.8922 13.1432C23.9183 13.2199 23.995 13.3482 24.0972 13.3994C24.1995 13.4505 24.2767 13.4505 24.2506 13.3738C24.2246 13.2715 24.1479 13.1688 24.0456 13.0921ZM24.1479 13.6811C24.0452 13.6044 23.9685 13.6299 23.9685 13.7322C23.9945 13.8345 24.0968 13.9623 24.1995 14.0395C24.3269 14.0906 24.3789 14.0651 24.3789 13.9884C24.3534 13.8856 24.2506 13.7578 24.1479 13.6811ZM23.4311 13.2199C23.2768 13.1432 23.2001 13.1944 23.2001 13.2966C23.2261 13.3994 23.3544 13.5528 23.4818 13.6295C23.6101 13.7062 23.7128 13.6806 23.6868 13.5784C23.6872 13.4505 23.5585 13.2966 23.4311 13.2199ZM21.6377 19.9557C21.4583 19.853 21.3309 19.9302 21.3309 20.1352C21.356 20.3402 21.4843 20.5707 21.6637 20.673C21.8431 20.7753 21.9714 20.6986 21.9714 20.4936C21.9454 20.289 21.818 20.0585 21.6377 19.9557ZM20.7414 18.2911C20.5364 18.1883 20.383 18.2655 20.383 18.4705C20.383 18.7011 20.5364 18.9572 20.7414 19.0595C20.9464 19.1878 21.0999 19.0851 21.0999 18.8801C21.1003 18.6495 20.9469 18.3934 20.7414 18.2911ZM19.7936 16.857C19.5895 16.7547 19.4352 16.8314 19.4352 17.0364C19.4352 17.2414 19.5895 17.472 19.7936 17.5743C19.9986 17.6765 20.1529 17.5998 20.1529 17.3948C20.1529 17.1898 19.9991 16.9593 19.7936 16.857ZM19.0517 10.9152C18.8722 10.8124 18.7184 10.8385 18.7184 10.9663C18.7184 11.0941 18.8727 11.2736 19.0517 11.3503C19.2311 11.453 19.3845 11.4274 19.3845 11.2991C19.3845 11.1709 19.2311 10.9914 19.0517 10.9152ZM22.791 13.4505C22.6367 13.3738 22.56 13.3994 22.56 13.5016C22.586 13.6295 22.6883 13.7833 22.8417 13.8601C22.97 13.9368 23.0727 13.9112 23.0727 13.7833C23.0467 13.6811 22.9184 13.5272 22.791 13.4505ZM22.0481 13.0154C21.8947 12.9387 21.792 12.9898 21.818 13.0921C21.818 13.2204 21.9454 13.3738 22.0988 13.4761C22.2531 13.5528 22.3554 13.5272 22.3554 13.3994C22.3299 13.2715 22.2016 13.1177 22.0481 13.0154ZM20.6141 12.836C20.4337 12.7337 20.3063 12.7848 20.3063 12.9127C20.3063 13.0661 20.4597 13.2455 20.6392 13.3222C20.8186 13.4245 20.9469 13.3733 20.9469 13.2455C20.9209 13.0921 20.7935 12.9127 20.6141 12.836ZM21.3309 12.5798C21.1514 12.5031 20.9976 12.5287 21.0231 12.6826C21.0231 12.8104 21.1766 13.0154 21.356 13.1181C21.561 13.2209 21.6893 13.1693 21.6893 13.0159C21.6637 12.8871 21.5103 12.6821 21.3309 12.5798ZM20.5625 12.1698C20.3324 12.0676 20.178 12.0931 20.178 12.2726C20.2041 12.426 20.3575 12.631 20.588 12.7593C20.793 12.8615 20.9464 12.8104 20.9464 12.6565C20.9469 12.4771 20.7675 12.2726 20.5625 12.1698ZM19.8196 12.4004C19.6402 12.2981 19.4868 12.3493 19.4868 12.5031C19.4868 12.6565 19.6402 12.836 19.8452 12.9643C20.0246 13.041 20.178 13.0154 20.178 12.8615C20.178 12.7077 20.0246 12.5031 19.8196 12.4004ZM18.8974 15.4996C18.6933 15.3973 18.5389 15.474 18.5129 15.6535C18.5129 15.8329 18.6672 16.063 18.8722 16.1657C19.0763 16.268 19.2558 16.1913 19.2558 16.0119C19.2562 15.8069 19.1028 15.6019 18.8974 15.4996ZM18.9494 14.6801C18.7184 14.5773 18.5394 14.6545 18.5134 14.8335C18.5134 15.0385 18.6677 15.269 18.8978 15.3969C19.1288 15.4991 19.3078 15.4224 19.3329 15.243C19.3329 15.0385 19.1535 14.8079 18.9494 14.6801ZM18.9741 13.9372C18.7179 13.8094 18.5389 13.8861 18.5129 14.0651C18.5129 14.2956 18.6933 14.5518 18.9489 14.6545C19.1791 14.7823 19.3841 14.7056 19.3841 14.5011C19.3845 14.2956 19.2051 14.0395 18.9741 13.9372ZM19.0001 13.2199C18.77 13.1172 18.565 13.1688 18.565 13.3478C18.5389 13.5272 18.7184 13.7833 18.9741 13.9112C19.2051 14.0135 19.3841 13.9623 19.4101 13.7573C19.4101 13.5788 19.2311 13.3482 19.0001 13.2199ZM19.0001 12.6054C18.7951 12.5031 18.6417 12.5543 18.6157 12.7081C18.6157 12.8615 18.77 13.0665 18.9741 13.1693C19.2051 13.272 19.3585 13.2204 19.3585 13.0665C19.3585 12.9127 19.2051 12.7077 19.0001 12.6054ZM19.0261 11.9648C18.7951 11.8881 18.6417 11.9137 18.6161 12.0676C18.6161 12.247 18.7955 12.4515 19.0261 12.5798C19.2311 12.6826 19.4105 12.631 19.4105 12.4776C19.4101 12.2981 19.2562 12.0931 19.0261 11.9648Z" fill="white"/>
<path fill-rule="evenodd" clip-rule="evenodd" d="M19.0513 11.4011C18.8203 11.2989 18.6669 11.35 18.6413 11.5039C18.6413 11.6577 18.8207 11.8623 19.0257 11.965C19.2558 12.0677 19.4102 12.0417 19.4102 11.8883C19.4097 11.734 19.2558 11.5039 19.0513 11.4011ZM17.6167 9.7109C17.4633 9.63419 17.335 9.65976 17.335 9.76203C17.309 9.86476 17.4378 9.9926 17.5912 10.0693C17.7455 10.1204 17.8478 10.1204 17.8729 10.0182C17.8724 9.9159 17.7701 9.7876 17.6167 9.7109ZM17.6167 9.27533C17.4894 9.19862 17.3866 9.22419 17.3606 9.3009C17.3606 9.3776 17.4633 9.5059 17.6167 9.5826C17.745 9.63374 17.8478 9.63374 17.8729 9.55703C17.8724 9.45476 17.7701 9.32692 17.6167 9.27533ZM17.6423 8.86578C17.514 8.78908 17.4113 8.78908 17.4113 8.86578C17.4113 8.94249 17.4889 9.04522 17.6163 9.09635C17.7446 9.17306 17.8473 9.14749 17.8473 9.09635C17.8478 9.01919 17.7701 8.91692 17.6423 8.86578ZM17.6423 8.45624C17.5396 8.4051 17.4629 8.4051 17.4373 8.45624C17.4373 8.53294 17.514 8.60965 17.6167 8.66078C17.745 8.71192 17.8217 8.71192 17.8217 8.66078C17.8478 8.58408 17.745 8.50737 17.6423 8.45624ZM17.6423 8.07181C17.5396 8.02067 17.4629 8.02067 17.4629 8.07181C17.4629 8.14851 17.5396 8.22521 17.6423 8.27681C17.745 8.32794 17.8217 8.32794 17.8217 8.25124C17.8217 8.19965 17.745 8.12294 17.6423 8.07181ZM17.6683 7.68737C17.5656 7.63624 17.4889 7.63624 17.4889 7.68737C17.4889 7.73851 17.5656 7.81567 17.6423 7.84124C17.745 7.89237 17.7957 7.91794 17.8217 7.84124C17.8217 7.7901 17.745 7.73851 17.6683 7.68737ZM17.6683 7.35453C17.5907 7.3034 17.514 7.3034 17.514 7.35453C17.514 7.40567 17.5656 7.45726 17.6423 7.50794C17.745 7.53351 17.7957 7.55908 17.7957 7.50794C17.7957 7.45726 17.745 7.40567 17.6683 7.35453ZM17.6683 6.99612C17.5907 6.97056 17.54 6.97056 17.54 6.99612C17.54 7.04726 17.5907 7.0984 17.6683 7.14953C17.745 7.1751 17.7957 7.1751 17.7957 7.14953C17.7957 7.0984 17.745 7.04726 17.6683 6.99612ZM17.0022 15.192C17.1556 15.2687 17.2839 15.2176 17.309 15.0893C17.309 14.9359 17.2072 14.782 17.0529 14.7053C16.8734 14.6286 16.7461 14.6798 16.72 14.8076C16.7205 14.9615 16.8228 15.1149 17.0022 15.192ZM16.8739 16.0883C17.0282 16.1394 17.1556 16.0883 17.1816 15.9604C17.2077 15.807 17.0789 15.6532 16.9255 15.5765C16.7972 15.5253 16.6694 15.5765 16.6438 15.7043C16.6178 15.8577 16.7205 16.0116 16.8739 16.0883ZM16.6945 16.9845C16.8488 17.0612 16.9762 16.9845 17.0022 16.8562C17.0036 16.777 16.9827 16.6989 16.9419 16.631C16.901 16.5631 16.8419 16.5081 16.7712 16.4723C16.6178 16.4211 16.4904 16.4723 16.4644 16.6261C16.4388 16.7544 16.5411 16.9078 16.6945 16.9845ZM16.5411 17.9835C16.6945 18.0346 16.7972 17.9835 16.8228 17.8301C16.8488 17.7018 16.7461 17.5484 16.6178 17.4712C16.4644 17.4201 16.3361 17.4712 16.31 17.6246C16.31 17.7529 16.3877 17.9064 16.5411 17.9835ZM16.3361 18.9569C16.4644 19.0081 16.5922 18.9569 16.6178 18.8031C16.6178 18.6752 16.5411 18.5469 16.4128 18.4702C16.3844 18.4583 16.3536 18.4529 16.3229 18.4545C16.2921 18.4561 16.2621 18.4645 16.2351 18.4793C16.208 18.494 16.1846 18.5146 16.1666 18.5396C16.1486 18.5646 16.1365 18.5933 16.1311 18.6236C16.1311 18.7519 16.2087 18.9053 16.3361 18.9569ZM16.1059 20.1349C16.2333 20.186 16.3361 20.1349 16.3621 19.9815C16.3621 19.8532 16.2854 19.7253 16.1827 19.6742C16.0544 19.5975 15.9516 19.6742 15.9265 19.802C15.9154 19.8695 15.927 19.9388 15.9595 19.999C15.992 20.0593 16.0435 20.107 16.1059 20.1349ZM19.7932 11.8111C19.6138 11.7084 19.4604 11.76 19.4604 11.8878C19.4604 12.0412 19.6138 12.2207 19.7932 12.3229C19.9982 12.4257 20.1525 12.3741 20.1525 12.2462C20.127 12.0928 19.9987 11.9134 19.7932 11.8111ZM19.7932 13.0658C19.6398 12.9891 19.5124 13.0146 19.5124 13.1425C19.5124 13.2708 19.6398 13.4498 19.7932 13.5265C19.9727 13.6032 20.1009 13.5776 20.1009 13.4237C20.1009 13.2964 19.9475 13.1429 19.7932 13.0658ZM19.7932 13.6808C19.6138 13.6041 19.4864 13.6296 19.4604 13.7831C19.4604 13.9625 19.6138 14.1419 19.7932 14.2437C19.9982 14.3465 20.1265 14.2949 20.1265 14.1415C20.127 13.9881 19.9987 13.7831 19.7932 13.6808ZM19.7932 15.96C19.6138 15.8833 19.4604 15.9344 19.4604 16.1139C19.4604 16.2933 19.5887 16.4978 19.7681 16.575C19.9722 16.6773 20.1009 16.6261 20.1009 16.4467C20.1009 16.2677 19.9727 16.0627 19.7932 15.96ZM22.7139 12.8096C22.5596 12.7329 22.4573 12.7585 22.4573 12.8864C22.4833 13.0146 22.6116 13.1681 22.765 13.2708C22.9184 13.3475 23.0212 13.3219 23.0212 13.1941C22.9956 13.0658 22.8673 12.9124 22.7139 12.8096ZM20.7155 19.3665C20.5361 19.2898 20.4087 19.3665 20.4087 19.5459C20.4087 19.7509 20.5361 19.9815 20.7155 20.0582C20.8949 20.1604 21.0232 20.0837 21.0232 19.8787C20.9972 19.6993 20.8698 19.4692 20.7155 19.3665ZM21.6894 21.0827C21.536 20.9804 21.4077 21.0572 21.4077 21.2622C21.4077 21.4672 21.5359 21.6977 21.7154 21.8C21.8688 21.9027 21.9971 21.8 21.9715 21.621C21.9706 21.5153 21.9445 21.4114 21.8955 21.3178C21.8464 21.2242 21.7757 21.1436 21.6894 21.0827ZM19.7425 17.8041C19.5631 17.7274 19.4097 17.8041 19.4097 17.9835C19.4097 18.1885 19.5631 18.4191 19.7425 18.4958C19.922 18.5981 20.0754 18.5214 20.0754 18.3164C20.0749 18.1369 19.9475 17.9064 19.7425 17.8041ZM18.8723 16.4211C18.6673 16.3444 18.539 16.3956 18.513 16.575C18.513 16.7544 18.6413 16.959 18.8207 17.0612C19.0257 17.1379 19.1536 17.0868 19.1791 16.8818C19.1791 16.7284 19.0257 16.5239 18.8723 16.4211ZM17.9751 15.0637C17.7701 14.987 17.6167 15.0382 17.5907 15.2171C17.5907 15.3966 17.719 15.6271 17.924 15.7039C18.129 15.8066 18.3084 15.7294 18.3084 15.5504C18.3336 15.371 18.1802 15.1665 17.9751 15.0637ZM19.7932 15.192C19.6138 15.1153 19.4864 15.1665 19.4864 15.3199C19.4864 15.4733 19.6138 15.6527 19.7932 15.7554C19.9727 15.8321 20.1009 15.781 20.1009 15.6276C20.1009 15.4733 19.9727 15.2687 19.7932 15.192ZM19.0764 10.4282C18.897 10.3515 18.7947 10.3515 18.7696 10.4537C18.7696 10.5816 18.897 10.7099 19.0513 10.8121C19.2307 10.8889 19.3321 10.8633 19.3321 10.7354C19.3325 10.6327 19.2307 10.5049 19.0764 10.4282ZM21.9966 12.4768C21.8683 12.4001 21.7916 12.4257 21.7916 12.5279C21.7916 12.6302 21.8944 12.7585 22.0478 12.8352C22.1505 12.8864 22.2528 12.8608 22.2528 12.7585C22.2267 12.6818 22.1245 12.5284 21.9966 12.4768ZM20.6644 14.1931C20.5109 14.1164 20.4082 14.1419 20.4082 14.2698C20.4082 14.3976 20.5356 14.5515 20.6644 14.6282C20.8178 14.7049 20.9205 14.6537 20.9205 14.5515C20.9205 14.4236 20.7931 14.2698 20.6644 14.1931ZM20.6904 17.3434C20.5109 17.2667 20.3827 17.3434 20.3827 17.4968C20.3827 17.7018 20.5109 17.9064 20.6904 18.0091C20.8945 18.1114 21.0232 18.0346 21.0232 17.8552C20.9972 17.6502 20.8698 17.4457 20.6904 17.3434ZM19.7932 14.4492C19.6398 14.3725 19.5124 14.4236 19.4864 14.5519C19.4864 14.7053 19.6398 14.8848 19.7932 14.9615C19.9727 15.0637 20.1009 15.0126 20.1009 14.8587C20.1009 14.7049 19.9727 14.5515 19.7932 14.4492ZM21.5099 15.3454C21.3556 15.2687 21.2282 15.3199 21.2282 15.4477C21.2542 15.6016 21.3816 15.7806 21.5359 15.8833C21.6894 15.96 21.8177 15.9344 21.8177 15.7806C21.7916 15.6271 21.6633 15.4226 21.5099 15.3454ZM22.4322 22.9775C22.3039 22.9008 22.2012 22.9775 22.2012 23.1569C22.2272 23.3373 22.3295 23.5414 22.4573 23.6436C22.5856 23.7203 22.6883 23.6436 22.6883 23.4642C22.6619 23.2852 22.5596 23.0802 22.4322 22.9775ZM21.3816 13.2452C21.2282 13.1685 21.1255 13.1941 21.1255 13.3219C21.1255 13.4502 21.2538 13.6036 21.4072 13.6808C21.5606 13.7575 21.6633 13.7319 21.6633 13.6041C21.6373 13.4758 21.5099 13.3219 21.3816 13.2452ZM18.3084 10.0693C18.1801 9.9926 18.0519 10.0182 18.0519 10.1204C18.0519 10.1971 18.1546 10.3254 18.3084 10.4021C18.4358 10.4788 18.5646 10.4533 18.5646 10.351C18.5646 10.2743 18.4619 10.146 18.3084 10.0693ZM19.7686 10.3254C19.6403 10.2487 19.5375 10.2743 19.5375 10.351C19.5375 10.4537 19.6403 10.5816 19.7937 10.6583C19.922 10.7094 20.0247 10.7094 20.0247 10.6071C20.0242 10.5049 19.922 10.4021 19.7686 10.3254ZM21.2789 12.1184C21.1762 12.0417 21.0995 12.0673 21.0995 12.144C21.0995 12.2467 21.2022 12.349 21.3045 12.4257C21.4328 12.4768 21.5095 12.4512 21.5095 12.3745C21.5099 12.2723 21.4072 12.1695 21.2789 12.1184ZM20.6388 14.9103C20.4854 14.8336 20.3827 14.8848 20.3827 15.0126C20.4087 15.1409 20.5109 15.3199 20.6644 15.397C20.7927 15.4737 20.9205 15.4226 20.9205 15.2943C20.9205 15.1665 20.7931 14.9866 20.6388 14.9103ZM21.4332 14.6282C21.3049 14.5515 21.2282 14.577 21.2282 14.7049C21.2282 14.8071 21.3309 14.961 21.4583 15.0121C21.5866 15.0889 21.6894 15.0633 21.6894 14.9354C21.6633 14.8332 21.5606 14.6798 21.4332 14.6282ZM22.3034 15.8066C22.15 15.7299 22.0473 15.781 22.0733 15.9089C22.0733 16.0371 22.2007 16.2161 22.3295 16.3184C22.4829 16.3956 22.5856 16.3444 22.5596 16.1906C22.5596 16.0627 22.4322 15.8833 22.3034 15.8066ZM23.4814 13.8602C23.3787 13.8091 23.302 13.8342 23.302 13.9369C23.328 14.0397 23.4303 14.1675 23.533 14.2186C23.6604 14.2953 23.738 14.2698 23.7124 14.1675C23.6869 14.0652 23.6102 13.9369 23.4814 13.8602ZM19.7686 9.89033C19.6403 9.83919 19.5375 9.83919 19.5375 9.9159C19.5636 9.9926 19.6403 10.1209 19.7686 10.172C19.8959 10.2232 19.9726 10.2232 19.9726 10.1465C19.9726 10.0693 19.8708 9.96703 19.7686 9.89033ZM19.7932 10.8121C19.6398 10.7354 19.5631 10.761 19.5631 10.8633C19.5631 10.94 19.6658 11.0683 19.7932 11.1194C19.9215 11.1961 20.0242 11.1706 20.0242 11.0939C19.9987 10.9911 19.922 10.8889 19.7932 10.8121ZM22.5345 21.7995C22.3802 21.7228 22.2779 21.774 22.2779 21.979C22.3039 22.1584 22.4322 22.389 22.5596 22.5168C22.7139 22.5944 22.8157 22.5428 22.8157 22.3374C22.8153 22.1328 22.6879 21.9018 22.5345 21.7995ZM19.0764 9.9926C18.949 9.9159 18.8463 9.94147 18.8463 10.0182C18.8463 10.0949 18.949 10.2232 19.0764 10.2743C19.2047 10.351 19.2814 10.3254 19.3074 10.2487C19.2814 10.172 19.2047 10.0437 19.0764 9.9926ZM20.6137 13.5269C20.4854 13.4502 20.3827 13.4758 20.3827 13.5781C20.3827 13.6803 20.4854 13.8086 20.6137 13.8853C20.7411 13.9365 20.8438 13.9114 20.8178 13.8086C20.8178 13.7064 20.7155 13.5785 20.6137 13.5269ZM20.5361 11.734C20.4333 11.6828 20.3566 11.7084 20.3566 11.7851C20.3566 11.8618 20.4333 11.9645 20.5616 12.0157C20.6644 12.0668 20.7411 12.0412 20.715 11.9645C20.7155 11.8878 20.6388 11.7856 20.5361 11.734ZM20.6904 16.5239C20.5621 16.4471 20.4594 16.4983 20.4594 16.6266C20.4594 16.7544 20.5621 16.8827 20.6904 16.9594C20.8178 17.0361 20.9205 16.9854 20.8945 16.8572C20.8945 16.7284 20.7931 16.575 20.6904 16.5239ZM21.6373 18.9053C21.4839 18.8286 21.3812 18.8798 21.3812 19.0587C21.3812 19.2121 21.5095 19.4176 21.6629 19.4943C21.7912 19.571 21.8939 19.5199 21.8939 19.3404C21.8944 19.1875 21.7661 18.982 21.6373 18.9053ZM19.7932 11.3756C19.6914 11.3244 19.6138 11.3495 19.6138 11.4011C19.6138 11.4783 19.6914 11.5806 19.7932 11.6317C19.8959 11.6577 19.9726 11.6577 19.9726 11.5806C19.9584 11.5359 19.9351 11.4947 19.9042 11.4594C19.8734 11.4242 19.8356 11.3956 19.7932 11.3756ZM21.6633 22.2346C21.5606 22.1579 21.4583 22.2346 21.4583 22.389C21.4583 22.5424 21.5611 22.6958 21.6633 22.7734C21.7916 22.8501 21.8683 22.7734 21.8683 22.6191C21.8683 22.4657 21.7661 22.3123 21.6633 22.2346ZM25.3775 13.9114C25.2999 13.8853 25.2492 13.8853 25.2492 13.9625C25.2753 14.0392 25.352 14.1419 25.4287 14.1931C25.5314 14.2442 25.5821 14.2442 25.557 14.1675C25.531 14.0908 25.4542 13.9881 25.3775 13.9114ZM22.1245 13.6808C21.9971 13.6296 21.9195 13.6548 21.9195 13.7575C21.9455 13.8602 22.0478 13.9881 22.1505 14.0648C22.2779 14.1159 22.3555 14.0908 22.3555 13.9881C22.3295 13.8853 22.2267 13.7575 22.1245 13.6808ZM20.4854 10.2743C20.3827 10.2232 20.2804 10.2232 20.2804 10.2999C20.3187 10.3989 20.3915 10.4808 20.4854 10.5304C20.6137 10.5816 20.6904 10.5816 20.6904 10.5049C20.6523 10.4057 20.5794 10.3238 20.4854 10.2743ZM24.8648 14.1419C24.7621 14.0648 24.6854 14.0908 24.7114 14.1931C24.7374 14.2698 24.8141 14.3725 24.9164 14.4492C25.0191 14.5003 25.0698 14.5003 25.0698 14.3981C25.0438 14.2953 24.9415 14.1931 24.8648 14.1419ZM23.0974 16.2933C22.97 16.2421 22.8933 16.2677 22.8933 16.396C22.9184 16.5239 23.0207 16.6777 23.1495 16.7544C23.2769 16.8311 23.3545 16.8056 23.3545 16.6777C23.328 16.549 23.2257 16.37 23.0974 16.2933ZM26.0683 14.3725C25.9916 14.3214 25.94 14.3465 25.94 14.4236C25.9661 14.4748 26.0428 14.577 26.1204 14.6286C26.1711 14.6798 26.2222 14.6542 26.2222 14.6031C26.1971 14.5259 26.1204 14.4236 26.0683 14.3725ZM23.328 12.7329C23.2513 12.6818 23.1997 12.6818 23.1997 12.7585C23.2257 12.8352 23.3024 12.9119 23.3791 12.9635C23.4567 13.0146 23.5335 13.0146 23.5074 12.9379C23.5074 12.8612 23.4307 12.759 23.328 12.7329ZM22.9696 24.2331C22.8669 24.1303 22.7901 24.207 22.8153 24.3604C22.8153 24.5399 22.8929 24.7449 22.9956 24.8216C23.123 24.9243 23.1997 24.8476 23.175 24.6682C23.175 24.5148 23.0723 24.3098 22.9696 24.2331ZM20.7155 20.5189C20.5881 20.4677 20.4854 20.5189 20.4854 20.6727C20.4854 20.8261 20.5881 21.0056 20.7155 21.0823C20.8438 21.1334 20.9465 21.0823 20.9465 20.9289C20.9205 20.775 20.8438 20.596 20.7155 20.5189ZM22.2528 15.1149C22.15 15.0637 22.0984 15.0893 22.0984 15.166C22.0984 15.2427 22.1761 15.371 22.2779 15.4221C22.3555 15.4733 22.4322 15.4477 22.4322 15.3454C22.3955 15.2531 22.3333 15.1731 22.2528 15.1149ZM20.4338 9.83919C20.332 9.78806 20.2544 9.78806 20.2544 9.86476C20.2804 9.9159 20.332 9.9926 20.4338 10.0442C20.5365 10.0953 20.6141 10.0953 20.5881 10.0186C20.5881 9.96704 20.5114 9.89033 20.4338 9.83919ZM21.0999 10.1976C21.0232 10.172 20.9725 10.172 20.9725 10.2232C20.9725 10.2743 21.0492 10.351 21.1259 10.377C21.2027 10.4282 21.2542 10.4282 21.2287 10.377C21.2282 10.2999 21.1766 10.2487 21.0999 10.1976ZM19.7425 18.982C19.6398 18.9309 19.5375 18.982 19.5375 19.1103C19.5375 19.2126 19.6142 19.3665 19.7425 19.4176C19.8453 19.4687 19.9475 19.4432 19.9475 19.3149C19.9475 19.1866 19.8708 19.0592 19.7425 18.982ZM18.7947 17.4968C18.6673 17.4201 18.5646 17.4712 18.5646 17.5735C18.5646 17.7014 18.6413 17.8296 18.7696 17.8808C18.8723 17.9319 18.949 17.8808 18.9737 17.7785C18.9699 17.7203 18.9515 17.664 18.9202 17.6148C18.8889 17.5655 18.8458 17.525 18.7947 17.4968ZM17.8724 16.0883C17.7697 16.0372 17.693 16.0883 17.6683 16.1654C17.6683 16.2933 17.745 16.396 17.8478 16.4471C17.9752 16.4983 18.0519 16.4727 18.0779 16.3704C18.0774 16.2677 18.0007 16.1394 17.8724 16.0883ZM21.0488 9.7876C20.9721 9.76203 20.8945 9.76203 20.8945 9.81317C20.9205 9.8643 20.9721 9.94101 21.0488 9.96658C21.1515 10.0177 21.2022 10.0177 21.2022 9.96658C21.2022 9.89033 21.1255 9.83919 21.0488 9.7876ZM21.5606 9.7876C21.4839 9.76203 21.4332 9.76203 21.4332 9.7876C21.4332 9.86431 21.5099 9.91544 21.5606 9.94101C21.6373 9.99214 21.6889 9.99214 21.6889 9.94101C21.6894 9.89033 21.6127 9.83919 21.5606 9.7876ZM23.8919 16.8823C23.8152 16.8311 23.7636 16.8567 23.7636 16.9334C23.7896 17.0357 23.8403 17.1379 23.943 17.1895C24.0197 17.2407 24.0713 17.2156 24.0713 17.1128C24.0453 17.0357 23.9941 16.9334 23.8919 16.8823ZM23.1997 17.0873C23.097 17.0361 23.0203 17.0617 23.0203 17.1895C23.0463 17.2923 23.123 17.4201 23.2253 17.4968C23.328 17.5479 23.4047 17.4968 23.3787 17.3945C23.3791 17.2918 23.3024 17.164 23.1997 17.0873ZM22.3555 16.6261C22.2779 16.575 22.2012 16.6001 22.2012 16.7028C22.2272 16.7795 22.3039 16.9074 22.3806 16.959C22.4833 17.0101 22.56 16.985 22.5349 16.8823C22.5345 16.8056 22.4569 16.6773 22.3555 16.6261ZM21.5359 16.1654C21.4332 16.1143 21.3816 16.1394 21.3816 16.2166C21.3816 16.3189 21.4583 16.4216 21.5359 16.4727C21.6378 16.4983 21.6894 16.4727 21.6894 16.396C21.6894 16.3184 21.6127 16.2161 21.5359 16.1654ZM20.6644 15.7039C20.5877 15.6527 20.5109 15.6783 20.5109 15.755C20.5109 15.8577 20.5877 15.9344 20.6644 15.9856C20.7671 16.0367 20.8178 16.0111 20.8178 15.9344C20.815 15.8858 20.7993 15.8388 20.7723 15.7983C20.7454 15.7578 20.7081 15.7252 20.6644 15.7039ZM23.9686 17.6246C23.8919 17.5735 23.8403 17.5991 23.8403 17.7014C23.8403 17.7781 23.9179 17.9064 23.9946 17.9575C24.0713 18.0086 24.148 17.9831 24.122 17.8808C24.122 17.8041 24.0453 17.6762 23.9686 17.6246ZM24.7881 18.1885C24.7114 18.1374 24.6607 18.1885 24.6854 18.2652C24.6854 18.3419 24.737 18.4446 24.8137 18.4958C24.8904 18.5725 24.9411 18.5214 24.9164 18.4446C24.9164 18.3675 24.8397 18.2652 24.7881 18.1885ZM20.4854 10.7354C20.4087 10.6843 20.332 10.7099 20.332 10.761C20.332 10.8377 20.4087 10.9144 20.4854 10.966C20.5881 10.9916 20.6388 10.9916 20.6388 10.9404C20.6388 10.8633 20.5621 10.7866 20.4854 10.7354ZM15.2864 13.0151C15.0554 12.9384 14.8764 12.9895 14.8504 13.1429C14.8253 13.3224 14.9531 13.5269 15.1581 13.6041C15.3631 13.7064 15.5681 13.6552 15.5932 13.4758C15.6192 13.3219 15.4905 13.1174 15.2864 13.0151ZM14.3646 12.5535C14.108 12.4257 13.8519 12.5024 13.8012 12.7074C13.7496 12.9124 13.9039 13.1429 14.1856 13.2708C14.4664 13.3986 14.6974 13.3219 14.7481 13.1169C14.7997 12.9124 14.6203 12.6562 14.3646 12.5535ZM7.47492 5.5876C7.62833 5.63874 7.70504 5.71544 7.65436 5.7926C7.60276 5.86931 7.42333 5.89487 7.26993 5.84328C7.11652 5.7926 7.0389 5.68987 7.09049 5.63874C7.14117 5.56203 7.3206 5.53601 7.47492 5.5876ZM8.44788 5.89442C8.60129 5.94555 8.6789 6.02271 8.62731 6.09942C8.57663 6.15055 8.42231 6.17612 8.29447 6.12499C8.14015 6.07385 8.06345 5.99715 8.11504 5.92044C8.16572 5.86931 8.31913 5.84328 8.44788 5.89442ZM8.14015 6.38158C8.29447 6.40715 8.37117 6.50942 8.34515 6.58612C8.29447 6.66283 8.11504 6.68885 7.96072 6.63726C7.80731 6.58612 7.7306 6.48385 7.78128 6.40669C7.83333 6.35556 7.98674 6.33044 8.14015 6.38158ZM9.13867 6.63726C9.31901 6.71396 9.42038 6.81669 9.3697 6.91896C9.31902 6.99567 9.13867 7.02124 8.93458 6.9701C8.75515 6.8934 8.65288 6.79067 8.72958 6.6884C8.78026 6.61169 8.95969 6.58612 9.13867 6.63726ZM9.01129 14.5259C9.19072 14.577 9.26743 14.7309 9.21629 14.8587C9.13867 14.9866 8.98526 15.0637 8.83185 15.0121C8.65242 14.9354 8.57572 14.7816 8.62686 14.6537C8.6789 14.5259 8.85788 14.4748 9.01129 14.5259ZM10.4203 13.7575C10.6244 13.8602 10.7531 14.0392 10.702 14.2186C10.6244 14.3981 10.3942 14.4748 10.1632 14.3981C9.95913 14.2953 9.83038 14.1164 9.90708 13.9369C9.98379 13.7575 10.1892 13.6808 10.4203 13.7575ZM11.8283 13.2964C12.0594 13.3991 12.1867 13.6036 12.1361 13.7831C12.0845 13.9881 11.8544 14.0392 11.6233 13.9625C11.3932 13.8602 11.2398 13.6552 11.3165 13.4758C11.3672 13.2964 11.5982 13.2196 11.8283 13.2964ZM14.3646 8.66078C14.544 8.76351 14.6714 8.91692 14.6454 9.01919C14.6203 9.14749 14.4413 9.17306 14.2363 9.0959C14.0313 8.99362 13.9034 8.83976 13.9546 8.71192C13.9802 8.60965 14.1591 8.58408 14.3646 8.66078ZM9.8048 7.45726C9.98424 7.5084 10.0865 7.63669 10.0358 7.7134C9.95913 7.81567 9.7797 7.84124 9.59981 7.7901C9.42038 7.7134 9.31902 7.61067 9.3697 7.5084C9.42083 7.40567 9.5998 7.3801 9.8048 7.45726ZM10.7271 7.76453C10.9065 7.84124 11.0088 7.96954 10.9581 8.07181C10.9065 8.17454 10.7271 8.19965 10.5481 8.12294C10.3431 8.07181 10.2413 7.91794 10.292 7.81567C10.3426 7.7134 10.5476 7.68737 10.7271 7.76453ZM12.2895 8.94249C12.4945 9.04476 12.6228 9.19862 12.5712 9.32646C12.5205 9.42873 12.3411 9.47987 12.11 9.40317C11.905 9.30044 11.7772 9.14703 11.8283 9.01874C11.8799 8.89135 12.0845 8.86578 12.2895 8.94249ZM11.6233 8.07181C11.8544 8.14851 11.9817 8.32794 11.9311 8.43021C11.8804 8.55805 11.6749 8.60965 11.4444 8.50692C11.2142 8.43021 11.0859 8.25078 11.1375 8.12294C11.1882 8.02067 11.4188 7.96908 11.6233 8.07181ZM12.5452 8.40465C12.7762 8.50692 12.9296 8.68635 12.8784 8.83976C12.8269 8.9676 12.5967 9.01919 12.3406 8.91646C12.084 8.81419 11.9306 8.60919 12.0073 8.48089C12.0594 8.32794 12.2895 8.30237 12.5452 8.40465ZM13.1857 9.3009C13.3907 9.40362 13.545 9.5826 13.4934 9.71044C13.4428 9.83874 13.2373 9.88987 13.0323 9.78714C12.8022 9.68442 12.6479 9.50544 12.6995 9.3776C12.7502 9.24976 12.9556 9.19862 13.1857 9.3009ZM13.1346 12.9124C13.3656 13.0151 13.493 13.2196 13.4674 13.3735C13.4167 13.5785 13.1857 13.6296 12.9556 13.5269C12.7246 13.4502 12.5972 13.2196 12.6479 13.0658C12.6995 12.8868 12.9296 12.8096 13.1346 12.9124ZM13.34 12.1695C13.5962 12.2723 13.7491 12.4768 13.6985 12.6818C13.6469 12.8612 13.4167 12.9124 13.1606 12.8096C12.9045 12.7074 12.7762 12.4768 12.8022 12.2974C12.8789 12.1184 13.109 12.0673 13.34 12.1695ZM13.545 11.4523C13.8012 11.5806 13.9541 11.8111 13.9034 11.9901C13.8519 12.1951 13.6217 12.2462 13.34 12.1435C13.0583 12.0157 12.9049 11.7851 12.9556 11.5801C13.0323 11.4011 13.2633 11.35 13.545 11.4523ZM13.724 10.8121C13.9802 10.9149 14.1331 11.1194 14.0824 11.2989C14.0308 11.4783 13.8007 11.5294 13.5446 11.4271C13.288 11.3244 13.1086 11.0943 13.1602 10.9149C13.2373 10.7354 13.4674 10.7099 13.724 10.8121ZM13.8774 10.2487C14.1075 10.3254 14.2358 10.5304 14.2103 10.6583C14.1596 10.8117 13.9541 10.8633 13.7245 10.761C13.4934 10.6583 13.3661 10.4793 13.4167 10.3254C13.4423 10.172 13.6464 10.146 13.8774 10.2487ZM14.0569 9.65976C14.313 9.76203 14.4659 9.96703 14.4153 10.1209C14.3646 10.2743 14.1591 10.3259 13.9034 10.1976C13.6724 10.0953 13.519 9.89033 13.545 9.73646C13.5957 9.58306 13.8267 9.55703 14.0569 9.65976ZM14.2103 9.12192C14.4664 9.24976 14.5947 9.42919 14.5687 9.58306C14.518 9.7109 14.3125 9.76249 14.0829 9.63419C13.8267 9.53147 13.6984 9.35249 13.7245 9.19862C13.7752 9.07033 13.9801 9.01919 14.2103 9.12192ZM16.0292 8.96806C16.1827 9.01919 16.2854 9.17306 16.2854 9.24976C16.2594 9.35249 16.1311 9.35249 15.9776 9.3009C15.8242 9.22419 15.7215 9.0959 15.7215 8.99362C15.7475 8.89135 15.8749 8.89135 16.0292 8.96806ZM16.1566 8.53294C16.2849 8.60965 16.3877 8.71238 16.3616 8.78908C16.3616 8.89181 16.2333 8.89181 16.0799 8.84022C15.9516 8.76351 15.8489 8.63567 15.8749 8.55851C15.8749 8.48135 16.0037 8.48135 16.1566 8.53294ZM16.2594 8.14851C16.3621 8.19965 16.4644 8.30237 16.4388 8.37908C16.4388 8.43021 16.3361 8.45624 16.2087 8.4051C16.0804 8.32794 16.0037 8.22567 16.0037 8.17454C16.0292 8.09738 16.1311 8.09738 16.2594 8.14851ZM16.3621 7.76453C16.4648 7.81567 16.5415 7.89283 16.5155 7.96953C16.5155 8.02067 16.4128 8.02067 16.3105 7.96953C16.2087 7.9184 16.1311 7.84169 16.1311 7.76453C16.1566 7.7134 16.2333 7.7134 16.3621 7.76453ZM16.4388 7.43169C16.5415 7.45726 16.6182 7.53397 16.6182 7.61113C16.5922 7.66226 16.5155 7.66226 16.4132 7.61113C16.311 7.55999 16.2338 7.48329 16.2338 7.43169C16.2594 7.35453 16.3361 7.3801 16.4388 7.43169ZM16.5155 7.0984C16.6182 7.14953 16.6949 7.20112 16.6698 7.25226C16.6698 7.3034 16.5922 7.3034 16.4904 7.25226C16.4128 7.22669 16.3361 7.14953 16.3621 7.0984C16.3621 7.04726 16.4388 7.04726 16.5155 7.0984ZM16.5922 6.81669C16.6949 6.86783 16.7465 6.91942 16.7465 6.97056C16.7205 7.02169 16.6698 6.99612 16.5671 6.97056C16.4904 6.91942 16.4388 6.86783 16.4388 6.81669C16.4388 6.76556 16.5155 6.76556 16.5922 6.81669ZM16.6694 6.53499C16.7461 6.58612 16.7967 6.63772 16.7967 6.66328C16.7967 6.71442 16.72 6.68885 16.6433 6.66328C16.5917 6.61215 16.515 6.58658 16.5406 6.53499C16.5411 6.48385 16.6178 6.50942 16.6694 6.53499ZM15.0298 14.2953C14.8504 14.2186 14.7481 14.0648 14.7737 13.9369C14.7992 13.8091 14.9531 13.7575 15.1065 13.8342C15.2869 13.9114 15.3882 14.0648 15.3631 14.1931C15.3375 14.3209 15.1841 14.3725 15.0298 14.2953ZM14.8764 15.1665C14.723 15.0898 14.6203 14.9359 14.6454 14.8076C14.6714 14.6798 14.8257 14.6282 14.9787 14.7053C15.1321 14.7565 15.2088 14.9103 15.2088 15.0382C15.1581 15.192 15.0298 15.2432 14.8764 15.1665ZM14.7481 16.0883C14.5947 16.0116 14.492 15.8582 14.518 15.7043C14.544 15.5765 14.6714 15.5249 14.8257 15.5765C14.9791 15.6532 15.0819 15.807 15.0558 15.9349C15.0298 16.0883 14.902 16.1394 14.7481 16.0883ZM14.6203 17.0612C14.5518 17.0397 14.4934 16.9942 14.4557 16.933C14.4181 16.8719 14.4037 16.7993 14.4153 16.7284C14.4413 16.575 14.5687 16.5239 14.723 16.575C14.8504 16.6517 14.9531 16.8056 14.9271 16.9334C14.902 17.0612 14.7481 17.1379 14.6203 17.0612ZM14.4413 18.1369C14.313 18.0858 14.2363 17.9575 14.2619 17.8041C14.287 17.6758 14.4153 17.6246 14.5436 17.6758C14.6709 17.7269 14.7737 17.8808 14.7476 18.0086C14.723 18.1369 14.5947 18.1885 14.4413 18.1369ZM14.287 19.3665C14.1596 19.3153 14.0829 19.187 14.1075 19.0336C14.1336 18.9058 14.2619 18.8542 14.3892 18.9058C14.5175 18.9569 14.5942 19.0852 14.5687 19.2131C14.518 19.3665 14.4153 19.4181 14.287 19.3665ZM13.3907 8.78862C13.5957 8.89135 13.724 9.04476 13.6985 9.17306C13.6469 9.32646 13.4423 9.35249 13.2373 9.24976C13.0323 9.14749 12.8789 8.99362 12.9296 8.86578C12.9812 8.73749 13.1857 8.71192 13.3907 8.78862ZM12.9556 9.89033C13.1606 9.96703 13.2633 10.1209 13.2373 10.2487C13.1857 10.351 13.0323 10.4021 12.8273 10.3254C12.6479 10.2487 12.5205 10.0949 12.5712 9.96658C12.6228 9.83919 12.7762 9.81317 12.9556 9.89033ZM12.7762 10.4537C12.9812 10.5565 13.109 10.7354 13.0839 10.8633C13.0323 11.0171 12.8273 11.0427 12.6228 10.966C12.3917 10.8893 12.2634 10.7099 12.315 10.5565C12.3662 10.4282 12.5712 10.377 12.7762 10.4537ZM12.0845 12.5284C12.2895 12.6051 12.4178 12.7845 12.3662 12.9379C12.3155 13.0914 12.11 13.1685 11.905 13.0658C11.7009 12.9891 11.5722 12.8096 11.6233 12.6562C11.6749 12.5028 11.8799 12.4512 12.0845 12.5284ZM10.087 6.94499C10.2664 7.02169 10.3687 7.14999 10.318 7.25226C10.2664 7.35453 10.0614 7.3801 9.85686 7.3034C9.67743 7.22669 9.54912 7.0984 9.62583 6.99612C9.67742 6.8934 9.88151 6.86783 10.087 6.94499ZM10.087 14.7309C10.2664 14.8076 10.3947 15.0126 10.318 15.1665C10.2664 15.3459 10.0363 15.4226 9.83129 15.3459C9.62629 15.2692 9.52356 15.0898 9.60026 14.9103C9.6514 14.7309 9.85686 14.6798 10.087 14.7309ZM8.6789 15.3454C8.88299 15.4221 8.98572 15.6271 8.90901 15.8066C8.83231 15.986 8.60128 16.0627 8.3972 15.986C8.1922 15.9093 8.08947 15.7043 8.16617 15.5504C8.24242 15.371 8.44788 15.2943 8.6789 15.3454ZM11.5466 14.2186C11.6387 14.2524 11.7167 14.3164 11.7678 14.4001C11.819 14.4838 11.8403 14.5824 11.8283 14.6798C11.7516 14.8592 11.5466 14.9359 11.3165 14.8592C11.1115 14.7565 10.9832 14.5519 11.0348 14.3729C11.1115 14.1931 11.3165 14.1419 11.5466 14.2186ZM12.9045 13.7575C13.1086 13.8602 13.2113 14.0392 13.1853 14.2186C13.1346 14.3725 12.9291 14.4492 12.7241 14.3725C12.52 14.2698 12.3913 14.0908 12.4433 13.9114C12.4945 13.7575 12.6995 13.6808 12.9045 13.7575ZM14.1591 13.3479C14.3641 13.4507 14.492 13.6296 14.4659 13.8091C14.4153 13.9885 14.2098 14.0397 14.0057 13.9625C13.7747 13.8602 13.6464 13.6552 13.698 13.4758C13.724 13.3219 13.9286 13.2452 14.1591 13.3479ZM12.315 11.7856C12.52 11.8883 12.6228 12.0417 12.5967 12.1951C12.5451 12.3229 12.3406 12.3745 12.1616 12.2978C11.9566 12.2211 11.8539 12.0417 11.8799 11.8883C11.9311 11.76 12.1361 11.734 12.315 11.7856ZM14.492 8.22522C14.6454 8.30192 14.7737 8.43021 14.7481 8.53249C14.723 8.63521 14.5687 8.63521 14.3897 8.55805C14.2103 8.48135 14.108 8.35351 14.1336 8.25078C14.1591 8.14805 14.3125 8.14851 14.492 8.22522ZM10.9828 7.32896C11.1371 7.3801 11.2138 7.5084 11.1878 7.5851C11.1371 7.66181 10.9828 7.68737 10.8294 7.61067C10.6759 7.55953 10.5992 7.45726 10.6244 7.3801C10.6764 7.27783 10.8294 7.27783 10.9828 7.32896ZM11.8283 10.146C12.0078 10.1971 12.0845 10.351 12.0594 10.4533C12.0078 10.556 11.8544 10.5811 11.6749 10.53C11.5215 10.4533 11.4188 10.325 11.4439 10.1971C11.4955 10.1209 11.6749 10.0693 11.8283 10.146ZM10.7271 12.9124C10.9321 12.9891 11.0604 13.1685 11.0088 13.3479C10.9321 13.5018 10.7271 13.5785 10.523 13.5018C10.292 13.3991 10.1897 13.2201 10.2413 13.0662C10.3175 12.9124 10.523 12.8357 10.7271 12.9124ZM12.5452 11.145C12.7246 11.2217 12.8529 11.3756 12.8017 11.529C12.7501 11.6573 12.5707 11.6824 12.3917 11.6057C12.1867 11.529 12.084 11.3751 12.1356 11.2473C12.1616 11.1194 12.3411 11.0683 12.5452 11.145ZM10.5997 10.377C10.7791 10.4537 10.8814 10.6076 10.8558 10.7354C10.7791 10.8633 10.5997 10.8889 10.3947 10.8382C10.1897 10.7615 10.087 10.6076 10.1386 10.4793C10.1892 10.351 10.3942 10.2999 10.5997 10.377ZM7.4489 16.0116C7.5772 16.0627 7.6539 16.191 7.60231 16.3189C7.5256 16.4471 7.3722 16.4983 7.21788 16.4727C7.09049 16.4216 7.01378 16.2677 7.06446 16.1399C7.14117 16.0116 7.29549 15.96 7.4489 16.0116ZM11.3672 8.60965C11.5466 8.68635 11.6489 8.81465 11.5982 8.91692C11.5466 9.01919 11.3932 9.04476 11.2138 8.99362C11.0088 8.91692 10.9321 8.78863 10.9577 8.68635C11.0088 8.58408 11.1882 8.55805 11.3672 8.60965ZM15.2864 8.60965C15.4398 8.68635 15.5165 8.78908 15.5165 8.89135C15.4905 8.96806 15.3631 8.99408 15.2088 8.91692C15.0554 8.86578 14.9526 8.71192 14.9787 8.63521C14.9787 8.55805 15.1321 8.53294 15.2864 8.60965ZM13.0323 7.17556C13.1606 7.22669 13.2373 7.3034 13.2117 7.38056C13.2117 7.4317 13.109 7.45726 12.9816 7.40613C12.8789 7.35499 12.8022 7.27783 12.8022 7.22669C12.8268 7.14953 12.9296 7.14953 13.0323 7.17556ZM11.8283 7.66226C11.9566 7.7134 12.0333 7.81567 12.0078 7.89283C11.9817 7.94397 11.8544 7.96953 11.701 7.9184C11.5727 7.86726 11.4959 7.76499 11.5215 7.68783C11.5466 7.61067 11.7009 7.61067 11.8283 7.66226ZM11.5722 10.7866C11.7256 10.8633 11.8283 10.9911 11.8023 11.1194C11.7516 11.2477 11.5722 11.2728 11.3932 11.1961C11.2398 11.145 11.1371 10.9911 11.1622 10.8889C11.2138 10.761 11.3932 10.7354 11.5722 10.7866ZM10.8554 9.7876C11.0088 9.86431 11.1115 9.96704 11.0604 10.0693C11.0088 10.1716 10.8809 10.1971 10.702 10.146C10.5477 10.0949 10.4709 9.96658 10.5225 9.8643C10.5476 9.76203 10.702 9.73646 10.8554 9.7876ZM9.54912 10.0437C9.75413 10.1204 9.83083 10.2487 9.78016 10.3766C9.72856 10.4789 9.54913 10.53 9.37015 10.4533C9.16515 10.4021 9.06242 10.2739 9.13913 10.146C9.19072 10.0437 9.36969 9.9926 9.54912 10.0437ZM8.85788 7.17556C9.01129 7.22669 9.08799 7.32897 9.03731 7.40613C8.98571 7.48283 8.83231 7.5084 8.6789 7.45726C8.52458 7.40613 8.44788 7.3034 8.49947 7.22669C8.55015 7.14953 8.70356 7.12397 8.85788 7.17556ZM13.2373 6.79112C13.34 6.84226 13.4423 6.91942 13.4167 6.99612C13.4167 7.04726 13.2884 7.07283 13.1606 7.02169C13.0323 6.97056 12.9556 6.89385 12.9812 6.81669C12.9812 6.76556 13.109 6.73999 13.2373 6.79112ZM13.6985 7.89237C13.8519 7.94351 13.9546 8.07181 13.9286 8.17408C13.8779 8.25078 13.7491 8.25078 13.5957 8.19965C13.4423 8.12294 13.3396 7.99464 13.3656 7.91794C13.3907 7.84124 13.545 7.81567 13.6985 7.89237ZM13.8519 7.45726C13.9802 7.53397 14.0829 7.63669 14.0569 7.68737C14.0308 7.76408 13.9286 7.7901 13.7752 7.7134C13.6469 7.66226 13.5702 7.55953 13.5702 7.48283C13.5957 7.40567 13.724 7.40567 13.8519 7.45726ZM12.0333 9.58306C12.1867 9.63419 12.2634 9.76249 12.2383 9.86476C12.2123 9.94146 12.0589 9.96703 11.9306 9.9159C11.7772 9.83919 11.6745 9.73647 11.7256 9.63419C11.7516 9.55703 11.905 9.53147 12.0333 9.58306ZM12.6995 8.02067C12.8269 8.09738 12.8789 8.17454 12.8789 8.25124C12.8529 8.30238 12.7246 8.32794 12.5972 8.27681C12.4945 8.22567 12.4178 8.1234 12.4438 8.07181C12.4684 7.9951 12.5712 7.96908 12.6995 8.02067ZM11.0088 12.1951C11.1622 12.2462 11.2398 12.3745 11.2138 12.4768C11.1622 12.6046 11.0344 12.6302 10.8809 12.5791C10.7266 12.5279 10.6244 12.3996 10.6759 12.2718C10.7271 12.1695 10.8814 12.144 11.0088 12.1951ZM13.519 8.40465C13.6217 8.45578 13.6724 8.53249 13.6724 8.58408C13.6464 8.63521 13.545 8.66078 13.4423 8.60965C13.3396 8.55851 13.2629 8.48181 13.288 8.43021C13.314 8.35351 13.4163 8.35351 13.519 8.40465ZM14.5947 7.81567C14.6974 7.86681 14.7997 7.96908 14.7741 8.04624C14.7481 8.09738 14.6458 8.12294 14.518 8.07181C14.4153 8.02067 14.3386 7.91794 14.3386 7.84124C14.3646 7.76453 14.4659 7.76453 14.5947 7.81567ZM6.52708 5.33147C6.65538 5.35703 6.70651 5.43374 6.65538 5.48487C6.60378 5.53601 6.47503 5.56203 6.34765 5.53601C6.21935 5.51044 6.14265 5.43328 6.19424 5.3826C6.27095 5.33147 6.39833 5.30544 6.52708 5.33147ZM10.4203 8.30238C10.5737 8.35351 10.6504 8.45624 10.6244 8.55851C10.5737 8.63567 10.4203 8.66124 10.2659 8.60965C10.1125 8.55851 10.0358 8.43021 10.0865 8.35351C10.1125 8.27681 10.2659 8.25124 10.4203 8.30238ZM7.16719 6.07385C7.29549 6.09988 7.37219 6.20215 7.3206 6.25328C7.26992 6.32999 7.11651 6.32999 6.96219 6.30442C6.83481 6.25328 6.75719 6.17658 6.80878 6.12499C6.85946 6.04828 7.01379 6.02271 7.16719 6.07385ZM8.52458 9.73646C8.67891 9.7876 8.7556 9.89033 8.70401 10.0182C8.65333 10.1209 8.4739 10.146 8.29493 10.0949C8.1406 10.0437 8.0639 9.91544 8.11549 9.81317C8.16571 9.7109 8.34515 9.68533 8.52458 9.73646ZM5.68151 5.12646C5.78424 5.15203 5.83583 5.20317 5.78424 5.25431C5.73356 5.30544 5.63083 5.33101 5.50254 5.30544C5.39981 5.27987 5.3231 5.22874 5.37515 5.20317C5.42583 5.12646 5.55413 5.12646 5.68151 5.12646ZM9.39572 6.25328C9.49845 6.30442 9.57515 6.35556 9.5231 6.40669C9.49799 6.45783 9.36969 6.48339 9.26697 6.43226C9.13867 6.40669 9.08753 6.32999 9.11356 6.27885C9.16469 6.22772 9.26742 6.20215 9.39572 6.25328ZM7.11652 16.959C7.26993 16.985 7.32061 17.1128 7.26993 17.2407C7.19322 17.369 7.0389 17.4457 6.91152 17.3945C6.75719 17.3434 6.70651 17.2151 6.78322 17.0873C6.83435 16.959 6.98777 16.9078 7.11652 16.959ZM6.09197 17.5224C6.21935 17.5735 6.2714 17.6758 6.21935 17.7785C6.14265 17.8808 6.01527 17.9579 5.88651 17.9064C5.78379 17.8808 5.7331 17.7529 5.78378 17.6502C5.83583 17.5479 5.96322 17.4968 6.09197 17.5224ZM9.7281 15.6783C9.88151 15.7294 9.95913 15.8833 9.90754 16.0111C9.85686 16.165 9.70253 16.2161 9.54912 16.165C9.5133 16.1539 9.48009 16.1357 9.45149 16.1115C9.4229 16.0872 9.39951 16.0574 9.38274 16.0239C9.36597 15.9904 9.35617 15.9538 9.35392 15.9163C9.35168 15.8789 9.35705 15.8414 9.3697 15.8061C9.42083 15.6783 9.57469 15.6271 9.7281 15.6783ZM8.31912 16.3184C8.47344 16.3956 8.55015 16.549 8.52412 16.6773C8.44742 16.8056 8.29401 16.8823 8.13969 16.8307C7.98629 16.754 7.90958 16.6261 7.96026 16.4723C7.98967 16.4061 8.04298 16.3535 8.10952 16.325C8.17606 16.2964 8.25092 16.2941 8.31912 16.3184ZM9.85686 9.48033C9.98424 9.53147 10.0363 9.60863 10.0103 9.68533C9.98424 9.73647 9.85686 9.76203 9.75413 9.73646C9.62583 9.68533 9.54913 9.60863 9.59981 9.53147C9.62583 9.48033 9.75413 9.45476 9.85686 9.48033ZM12.6995 6.22772C12.8022 6.25328 12.8529 6.33044 12.8529 6.38158C12.8269 6.43272 12.7501 6.43272 12.6479 6.38158C12.5451 6.35555 12.4945 6.30442 12.4945 6.25328C12.5205 6.20215 12.5972 6.20215 12.6995 6.22772ZM11.2398 15.1665C11.3425 15.2176 11.4192 15.3199 11.3932 15.4482C11.3425 15.5509 11.2138 15.6276 11.0855 15.5509C10.9581 15.4998 10.8814 15.3975 10.9321 15.2692C10.9581 15.1665 11.0855 15.1149 11.2398 15.1665ZM12.6228 14.6282C12.7246 14.6793 12.8022 14.8076 12.7762 14.9099C12.7501 15.0121 12.6479 15.0633 12.4945 15.0121C12.3917 14.961 12.315 14.8327 12.3411 14.7304C12.3662 14.6282 12.4945 14.577 12.6228 14.6282ZM13.9034 14.2953C14.0308 14.3465 14.1075 14.4492 14.0829 14.5519C14.0569 14.6542 13.9546 14.7053 13.8267 14.6542C13.6984 14.6031 13.6464 14.4748 13.6464 14.3725C13.6724 14.2953 13.8007 14.2442 13.9034 14.2953ZM10.2659 6.61169C10.3426 6.63726 10.3942 6.6884 10.3687 6.73999C10.3426 6.79112 10.2659 6.79112 10.1637 6.76556C10.087 6.71442 10.0363 6.66283 10.0609 6.61169C10.087 6.58612 10.1632 6.56056 10.2659 6.61169ZM7.3722 9.48033C7.49958 9.5059 7.55163 9.58306 7.49958 9.63419C7.47447 9.7109 7.34617 9.73647 7.24345 9.7109C7.11606 9.68533 7.06401 9.60863 7.11606 9.53147C7.14117 9.48033 7.26993 9.45476 7.3722 9.48033ZM8.14015 10.2743C8.29447 10.2999 8.34515 10.4021 8.29447 10.5049C8.26844 10.5816 8.11504 10.6076 7.98674 10.5816C7.83333 10.5304 7.75662 10.4282 7.8073 10.351C7.85935 10.2743 8.01276 10.2232 8.14015 10.2743ZM9.21629 10.7099C9.34367 10.7354 9.39572 10.8382 9.3697 10.9149C9.31902 10.9916 9.21629 11.0176 9.08799 10.9916C8.95969 10.9404 8.90856 10.8637 8.93458 10.7615C8.98526 10.6843 9.08799 10.6583 9.21629 10.7099ZM10.292 11.0939C10.3947 11.1194 10.4454 11.2217 10.4203 11.2733C10.3942 11.35 10.292 11.376 10.1637 11.35C10.0609 11.2989 10.0103 11.2221 10.0363 11.1454C10.0609 11.0683 10.1632 11.0427 10.292 11.0939ZM11.2905 11.4783C11.3932 11.5294 11.4699 11.6061 11.4188 11.6828C11.3928 11.7595 11.2905 11.7856 11.1878 11.734C11.085 11.7084 11.0344 11.6061 11.0604 11.529C11.0855 11.4523 11.1882 11.4271 11.2905 11.4783ZM13.3907 6.45828C13.4934 6.50942 13.545 6.56101 13.545 6.61169C13.519 6.66283 13.4423 6.66283 13.34 6.63726C13.2633 6.61169 13.1857 6.53453 13.1857 6.48385C13.2113 6.43272 13.288 6.43272 13.3907 6.45828ZM12.8789 5.92044C12.9556 5.94601 13.0323 5.99715 13.0063 6.04828C13.0063 6.09942 12.9296 6.09942 12.8529 6.07385C12.7501 6.02271 12.6995 5.97158 12.6995 5.92044C12.7246 5.89442 12.8022 5.86931 12.8789 5.92044ZM12.3411 5.43374C12.4178 5.45976 12.4684 5.5109 12.4684 5.53647C12.4433 5.5876 12.3917 5.5876 12.315 5.56249C12.2383 5.53647 12.1867 5.48533 12.1867 5.43419C12.2128 5.40817 12.2634 5.40817 12.3411 5.43374ZM13.9802 7.12396C14.0829 7.14953 14.1336 7.22669 14.1336 7.3034C14.1075 7.35453 14.0308 7.35453 13.9286 7.3034C13.8267 7.25226 13.7491 7.17556 13.7752 7.12396C13.8012 7.07237 13.8774 7.07283 13.9802 7.12396ZM7.0389 9.9926C7.14162 10.0182 7.19322 10.0953 7.16719 10.172C7.11651 10.2232 6.98776 10.2748 6.88549 10.2232C6.75719 10.1976 6.70606 10.1209 6.73208 10.0437C6.77369 10.008 6.82427 9.98439 6.87835 9.97537C6.93244 9.96636 6.98796 9.97232 7.0389 9.9926ZM5.98924 9.73646C6.11662 9.76203 6.14265 9.83919 6.11663 9.89033C6.07957 9.92495 6.03464 9.95003 5.98571 9.9634C5.93679 9.97676 5.88535 9.97801 5.83583 9.96703C5.7331 9.94146 5.68151 9.86476 5.70753 9.81362C5.75821 9.73646 5.88651 9.7109 5.98924 9.73646Z" fill="white"/>
<path fill-rule="evenodd" clip-rule="evenodd" d="M14.7479 9.07069C14.6973 9.19853 14.8255 9.3524 15.0045 9.45467C14.7735 9.40354 14.6201 9.4291 14.5685 9.58297C14.5434 9.68524 14.6201 9.8391 14.7735 9.96694C14.5941 9.94137 14.4658 9.99251 14.4407 10.1208C14.3891 10.2742 14.5174 10.4536 14.7224 10.5815C14.4913 10.5048 14.3124 10.5815 14.2612 10.7354C14.2352 10.8632 14.3119 11.0171 14.4653 11.1449C14.2859 11.1193 14.1585 11.196 14.1069 11.3243C14.0818 11.4782 14.1845 11.6572 14.3635 11.7855C14.1325 11.7599 13.9791 11.8366 13.9275 11.9905C13.8768 12.1955 14.0558 12.4772 14.3635 12.605C14.5936 12.7077 14.8246 12.6817 14.9013 12.5539C14.952 12.7333 15.1054 12.9383 15.3365 13.0406C15.5415 13.1173 15.7209 13.1173 15.8232 13.015C15.8999 13.1945 16.0533 13.3479 16.2583 13.4506C16.4377 13.5273 16.6167 13.5273 16.7194 13.4246C16.7961 13.604 16.9495 13.7574 17.1285 13.8341C17.3335 13.9368 17.5129 13.9113 17.6152 13.8341C17.6668 13.988 17.8202 14.167 18.0252 14.2697C18.3069 14.3975 18.511 14.3208 18.537 14.0902C18.537 13.9108 18.4343 13.7318 18.2553 13.578C18.4347 13.6035 18.563 13.5268 18.5886 13.373C18.5886 13.2196 18.4859 13.0657 18.332 12.9118C18.4863 12.9374 18.6137 12.8607 18.6137 12.7324C18.6137 12.553 18.4863 12.3735 18.2809 12.2201C18.4859 12.2968 18.6393 12.2201 18.6393 12.0667C18.6393 11.9384 18.5366 11.785 18.3831 11.6572C18.5366 11.6827 18.6649 11.6312 18.6649 11.5033C18.6649 11.3494 18.5366 11.1705 18.3316 11.0422C18.511 11.0933 18.6393 11.0682 18.6649 10.9399C18.6649 10.7865 18.5105 10.6071 18.2804 10.5043C18.101 10.4016 17.9476 10.4276 17.896 10.5043C17.87 10.3765 17.7426 10.2226 17.5376 10.1455C17.3842 10.0432 17.2298 10.0432 17.1531 10.1455C17.1271 9.99206 16.9737 9.83819 16.7687 9.73592C16.5646 9.63365 16.4103 9.65921 16.3336 9.73592C16.3076 9.60808 16.1802 9.47978 15.9752 9.40308C15.7702 9.27478 15.5908 9.30035 15.5401 9.42865C15.5661 9.30081 15.4118 9.12137 15.1817 9.0191C14.9785 8.91728 14.7735 8.94285 14.7479 9.07069ZM17.6682 13.0922C17.77 13.1433 17.8476 13.2456 17.8476 13.3228C17.8476 13.425 17.7449 13.451 17.6426 13.3995C17.5403 13.3479 17.4632 13.2456 17.4632 13.1433C17.4632 13.0662 17.5654 13.0406 17.6682 13.0922ZM16.8226 12.7077C16.9253 12.7589 16.976 12.8356 16.976 12.9127C16.976 12.9899 16.8733 13.0155 16.7966 12.9895C16.6938 12.9383 16.6171 12.8356 16.6171 12.7589C16.6436 12.6822 16.7203 12.6822 16.8226 12.7077ZM15.9515 12.3233C16.0542 12.3744 16.1309 12.4516 16.1058 12.5283C16.1058 12.605 16.003 12.6306 15.9263 12.5794C15.8236 12.5283 15.7469 12.4516 15.772 12.3744C15.7725 12.2982 15.8748 12.2726 15.9515 12.3233ZM15.2086 12.1188C15.1835 12.1955 15.0812 12.221 14.9525 12.1699C14.8497 12.1188 14.773 12.0165 14.7991 11.9393C14.8251 11.8622 14.9018 11.8371 15.0292 11.8882C15.1319 11.9393 15.2086 12.0421 15.2086 12.1188ZM17.77 12.5032C17.8476 12.5288 17.9243 12.631 17.9243 12.7082C17.8983 12.7593 17.8216 12.7849 17.7449 12.7593C17.6421 12.7082 17.5654 12.6055 17.5905 12.5288C17.5905 12.4772 17.6682 12.4516 17.77 12.5032ZM15.1579 11.2992C15.2607 11.3504 15.3113 11.4275 15.2862 11.5042C15.2862 11.5554 15.2086 11.5809 15.1059 11.5298C15.0041 11.5042 14.9264 11.4015 14.9525 11.3504C14.9785 11.2737 15.0552 11.2481 15.1579 11.2992ZM17.8216 11.8626C17.8983 11.9138 17.975 11.9909 17.975 12.0676C17.9499 12.1443 17.8723 12.1443 17.7955 12.1188C17.6928 12.0676 17.6421 11.9649 17.6421 11.9138C17.6421 11.8371 17.7188 11.8371 17.8216 11.8626ZM15.2862 10.6847C15.3629 10.7358 15.4396 10.8125 15.4396 10.8897C15.4136 10.9408 15.3369 10.9664 15.2346 10.9152C15.1319 10.8897 15.0552 10.7874 15.0812 10.7358C15.1063 10.6587 15.184 10.6587 15.2862 10.6847ZM17.8476 11.2992C17.8882 11.3103 17.9245 11.3333 17.9519 11.3653C17.9792 11.3973 17.9964 11.4368 18.001 11.4787C18.001 11.5554 17.9243 11.5554 17.8476 11.5042C17.7449 11.4787 17.6933 11.4015 17.6933 11.3248C17.6933 11.2737 17.77 11.2481 17.8476 11.2992ZM15.388 10.1213C15.4908 10.1724 15.5424 10.2491 15.5424 10.3263C15.5163 10.3774 15.4396 10.403 15.3629 10.3518C15.2602 10.3007 15.2086 10.224 15.2086 10.1724C15.2086 10.0957 15.3113 10.0957 15.388 10.1213ZM17.8722 10.6847C17.975 10.7358 18.0517 10.8125 18.0517 10.8897C18.0266 10.9664 17.9499 10.9664 17.8476 10.9152C17.77 10.8897 17.6933 10.7874 17.6933 10.7358C17.6933 10.6587 17.77 10.6587 17.8722 10.6847ZM17.1294 10.3514C17.207 10.3774 17.2577 10.4541 17.2577 10.5052C17.2577 10.5819 17.181 10.5819 17.1043 10.5564C17.0016 10.5052 16.95 10.4281 16.95 10.3769C16.9504 10.3002 17.0281 10.3002 17.1294 10.3514ZM16.3619 9.9674C16.4386 10.0185 16.4902 10.0957 16.4902 10.1468C16.4902 10.198 16.4126 10.2235 16.3099 10.1724C16.2332 10.1213 16.1565 10.0701 16.1825 9.99297C16.1825 9.94183 16.2592 9.94183 16.3619 9.9674ZM15.5163 9.5574C15.6191 9.60854 15.6697 9.71081 15.6697 9.7624C15.6697 9.8391 15.5679 9.8391 15.4657 9.78797C15.3634 9.73683 15.2862 9.66013 15.3113 9.60854C15.3374 9.53183 15.4136 9.53183 15.5163 9.5574Z" fill="white"/>
</svg>
