<svg width="32" height="32" viewBox="0 0 32 32" fill="none" xmlns="http://www.w3.org/2000/svg">
<path d="M0 16C0 24.8365 7.16344 32 16 32C24.8365 32 32 24.8365 32 16C32 7.16344 24.8365 0 16 0C7.16344 0 0 7.16344 0 16Z" fill="#EFEFEF"/>
<path fill-rule="evenodd" clip-rule="evenodd" d="M16.4043 2.479C18.0197 2.479 19.333 3.70877 19.333 5.31344C19.333 6.92839 18.0201 8.23146 16.4043 8.23146C14.8934 8.23146 13.5908 6.92839 13.5908 5.31344C13.5908 3.70877 14.8934 2.479 16.4043 2.479Z" fill="#E0912F"/>
<path fill-rule="evenodd" clip-rule="evenodd" d="M19.917 12.1808C20.1668 12.1808 20.3746 12.389 20.3746 12.6393C20.3746 12.8895 20.1668 13.0978 19.917 13.0978H13.0076C12.7574 13.0978 12.5492 12.8891 12.5492 12.6393C12.5492 12.3895 12.7574 12.1808 13.0076 12.1808H19.917ZM16.457 9.06531C18.4893 9.06531 20.5524 9.37765 22.0946 9.89869C24.1372 10.5971 25.4505 11.6598 25.4505 12.8372C25.4505 14.1296 23.8556 15.3276 21.5632 15.9528C19.2709 16.5779 17.5719 16.703 15.54 16.6092C13.6641 16.5261 11.7989 16.2235 10.0798 15.4943V26.9572C8.54797 25.9464 7.47461 24.6022 7.47461 22.7263V13.4521C7.47461 11.1593 9.57978 10.2633 11.2573 9.7633C12.9348 9.2628 14.4251 9.06531 16.457 9.06531ZM22.4802 24.8212V18.7769C22.4802 18.1933 21.574 18.3497 21.574 19.0584V25.1863C21.574 25.7279 22.4802 25.6135 22.4802 24.8212ZM18.7078 27.0725V18.402C18.7078 17.7979 19.0304 17.3707 19.6252 17.2871C20.4428 17.1781 21.2509 17.0073 22.0427 16.7763C22.8259 16.5485 23.5863 16.2486 24.3141 15.8804C24.6689 15.6824 25.0854 15.8281 25.0854 16.2973V22.5708C25.0854 23.3939 25.0747 24.2693 24.6998 25.0299C24.3248 25.8012 23.6684 26.4156 22.9181 26.9058C22.0848 27.4581 21.0217 27.8853 20.073 28.1248C19.1976 28.3228 18.7078 27.8849 18.7078 27.0725ZM17.7904 18.4748V21.5283C17.7904 22.2888 17.0718 22.779 16.4672 22.8206V22.8309C17.0606 22.9144 17.7904 23.3416 17.7904 24.1437V27.0823C17.7904 27.6243 17.7904 28.0095 18.0201 28.3952C17.4785 28.4577 16.9668 28.4787 16.4672 28.4787C15.9692 28.4821 15.4715 28.4542 14.9769 28.3952C14.7374 27.9157 14.7687 27.5716 14.7687 27.0613V24.7273C14.7687 24.1022 14.4979 23.5914 13.8517 23.5499V28.291C13.3441 28.2118 12.8427 28.097 12.3512 27.9474C11.8828 27.8066 11.4263 27.629 10.986 27.4161V16.8179C11.4552 16.964 11.924 17.0681 12.4035 17.162C12.883 17.2455 13.3727 17.3076 13.8522 17.3707V22.0913C14.4564 22.2164 14.7692 21.8098 14.7692 21.2056V18.4338C14.7692 18.121 14.7794 17.725 14.9671 17.4542C15.4569 17.4855 15.9154 17.4958 16.4159 17.4958C16.9266 17.5061 17.4584 17.4855 17.9893 17.4645C17.8324 17.7871 17.7904 18.0789 17.7904 18.4748Z" fill="#2360A5"/>
<path d="M16 0.666666C24.4 0.666666 31.3334 7.6 31.3334 16C31.3334 24.4 24.4 31.3334 16 31.3334C7.6 31.3334 0.666666 24.4 0.666666 16C0.666666 7.6 7.6 0.666666 16 0.666666ZM16 0C7.2 0 0 7.2 0 16C0 24.8 7.2 32 16 32C24.8 32 32 24.8 32 16C32 7.2 24.8 0 16 0Z" fill="#999999"/>
</svg>
