<svg width="32" height="32" viewBox="0 0 32 32" fill="none" xmlns="http://www.w3.org/2000/svg">
<path d="M0 16C0 24.8365 7.16344 32 16 32C24.8365 32 32 24.8365 32 16C32 7.16344 24.8365 0 16 0C7.16344 0 0 7.16344 0 16Z" fill="#EFEFEF"/>
<g clip-path="url(#clip0)">
<path d="M3.03516 12.4233H28.9867V19.9574H3.03516V12.4233Z" fill="#0D1B3C"/>
<path d="M3.03516 20.161H28.9867V19.7816H3.03516V20.161ZM3.03516 12.5999H28.9867V12.2228H3.03516V12.5999Z" fill="#B09246"/>
<path fill-rule="evenodd" clip-rule="evenodd" d="M3.40332 12.9675H28.6211V19.4136H3.40332V12.9675ZM3.4745 13.0387V19.3424H28.5499V13.0387H3.4745Z" fill="#B09246"/>
<path d="M7.78585 17.3621H6.76846L6.75328 17.4872C6.7478 17.5291 6.69257 17.8951 6.35529 17.8951C6.04048 17.8951 5.88113 17.3731 5.88113 16.3434C5.88113 15.2724 6.04519 14.7519 6.38302 14.7519C6.73287 14.7519 6.78625 14.9851 6.84487 15.3648L6.87236 15.5414H7.71076L7.68432 13.8633L7.24655 13.8426L7.19865 13.8936C7.19683 13.8952 7.15365 13.94 7.05526 13.9557C6.97389 13.9687 6.92731 13.9462 6.87811 13.9224L6.82341 13.8989L6.80537 13.8915C6.73183 13.8633 6.57928 13.8039 6.28306 13.8039C6.02348 13.8039 4.72949 13.925 4.72949 16.3209C4.72949 18.468 5.62285 18.9188 6.37176 18.9188C7.26487 18.9188 7.75654 18.2097 7.78062 17.5092L7.78585 17.3621Z" fill="black"/>
<path d="M11.2986 17.8639C11.2115 17.6111 10.4929 14.8795 10.4851 14.8507C10.4835 14.8458 10.4231 14.6225 10.5568 14.5422L10.6499 14.4865L10.5034 13.9728H8.77556L8.62771 14.492L8.72819 14.5456C8.8585 14.6157 8.79545 14.8458 8.79466 14.8479C8.78628 14.8795 8.04836 17.6294 7.97248 17.8867C7.90601 18.1122 7.76523 18.1159 7.69824 18.1122L7.81338 18.707H9.09244L9.2403 18.1886L9.13406 18.1313C9.12279 18.1253 9.07492 18.0944 9.07492 18.0034C9.07492 17.9835 9.07754 17.9602 9.08302 17.9335C9.08302 17.9335 9.17932 17.5078 9.2149 17.3518H10.0648C10.0999 17.5078 10.1962 17.9335 10.1962 17.9335C10.2017 17.9602 10.204 17.9835 10.204 18.0034C10.204 18.0944 10.1567 18.1253 10.1452 18.1313L10.0444 18.1858L10.0706 18.298L10.187 18.707H11.4658L11.5872 18.1305C11.5281 18.1232 11.3837 18.1122 11.2986 17.8639ZM9.42923 16.4116C9.46795 16.2428 9.54332 15.9155 9.63961 15.4942C9.73616 15.9155 9.811 16.2428 9.84947 16.4116H9.42923ZM27.1597 17.765V14.8808L27.1576 14.8675C27.1511 14.8261 27.1254 14.6168 27.3374 14.5639L27.4787 14.5286L27.3212 13.9673H25.9398L25.7818 14.5286L25.9244 14.5639C26.1355 14.6168 26.1096 14.8261 26.1033 14.8675L26.1018 14.8795L26.1012 14.8931V17.765C26.1012 18.0554 25.9843 18.1159 25.9835 18.1169L25.877 18.1693L25.9 18.287L26.0191 18.7015H27.2411L27.3929 18.1735L27.277 18.1169C27.2764 18.1159 27.1597 18.0554 27.1597 17.765ZM15.6419 14.5639L15.784 14.5286L15.6259 13.9673H14.3516C14.3516 13.9673 13.8536 14.906 13.6783 15.2351C13.504 14.906 13.0058 13.9673 13.0058 13.9673H11.7309L11.5734 14.5286L11.7155 14.5639C11.9342 14.6189 11.9243 14.8345 11.9198 14.8772L11.919 14.8845V17.765C11.919 18.0547 11.778 18.1109 11.772 18.113L11.6493 18.1593L11.6799 18.287L11.7981 18.7015H13.0555L13.2065 18.1727L13.0908 18.1164C13.0898 18.1159 12.9725 18.0554 12.9725 17.765V15.9503C13.2078 16.352 13.4431 16.7538 13.6783 17.1555C13.6783 17.1555 14.1339 16.3779 14.3845 15.9506V17.765C14.3845 18.0554 14.2676 18.1159 14.266 18.1164L14.1598 18.1693L14.1833 18.287L14.3018 18.7015H15.5587L15.7136 18.1614L15.5856 18.113C15.5799 18.1109 15.4386 18.0547 15.4386 17.765V14.8855L15.4375 14.8772C15.4336 14.8345 15.4223 14.6189 15.6419 14.5639ZM17.1881 17.765V16.8771H17.3603C18.4578 16.8771 18.99 16.4025 18.99 15.4248C18.99 14.5158 18.3803 13.9728 17.3603 13.9728H17.3606L15.9467 13.9668L15.9169 14.0709L15.7895 14.5286L15.9305 14.5639C16.1506 14.6189 16.1401 14.8345 16.1349 14.8772L16.1346 14.8845V17.765C16.1346 18.0547 15.9944 18.1109 15.9873 18.113L15.8646 18.1593L15.8947 18.287L16.0142 18.7015H17.2716L17.4218 18.1727L17.3059 18.1164C17.3051 18.1159 17.1881 18.0554 17.1881 17.765ZM17.1881 14.9457H17.2674C17.5414 14.9457 17.869 15.0295 17.869 15.4259C17.869 15.7671 17.6945 15.9063 17.2674 15.9063H17.1881V14.9457ZM25.3605 17.7462C25.3605 17.7462 24.9941 16.801 24.9188 16.606C25.3186 16.3839 25.5222 15.9772 25.5222 15.3916C25.5222 14.503 24.9342 13.9728 23.9513 13.9728L22.4587 13.9668L22.4281 14.0709L22.2999 14.5286L22.4423 14.5639C22.6616 14.6189 22.6508 14.8345 22.6461 14.8772L22.6459 14.8845V17.765C22.6459 18.0547 22.5048 18.1109 22.499 18.113L22.3761 18.1593L22.4062 18.287L22.525 18.7015H23.7826L23.9333 18.1727L23.8174 18.1164C23.8161 18.1159 23.6988 18.0554 23.6988 17.765V16.8101H23.8064C23.8718 16.969 24.5932 18.7015 24.5932 18.7015H25.7362L25.8535 18.1797L25.7106 18.1476C25.7019 18.146 25.4971 18.0957 25.3605 17.7462ZM23.8624 15.8566H23.6988V14.9287H23.8624C24.1227 14.9287 24.4344 15.0091 24.4344 15.3921C24.4344 15.7266 24.2737 15.8566 23.8624 15.8566ZM22.0757 17.8639C21.9891 17.6111 21.2697 14.8795 21.2632 14.8507C21.2611 14.8458 21.2004 14.6225 21.3343 14.5422L21.4272 14.4865L21.2807 13.9728H19.5531L19.4055 14.492L19.5058 14.5456C19.6363 14.6157 19.5728 14.8458 19.572 14.8479C19.5641 14.8795 18.8257 17.6294 18.7503 17.8867C18.6833 18.1122 18.5431 18.1159 18.4761 18.1122L18.5907 18.707H19.869L20.0178 18.1886L19.9111 18.1313C19.8998 18.1253 19.8519 18.0944 19.8519 18.0034C19.8519 17.9835 19.8548 17.9602 19.8603 17.9335C19.8603 17.9335 19.9571 17.5078 19.9922 17.3518H20.8421C20.8769 17.5078 20.9735 17.9335 20.9735 17.9335C20.9795 17.9602 20.9816 17.9835 20.9816 18.0034C20.9816 18.0944 20.9342 18.1253 20.9225 18.1313L20.822 18.1858L20.8484 18.298L20.9651 18.707H22.2436L22.3651 18.1305C22.3054 18.1232 22.1615 18.1122 22.0757 17.8639ZM20.2068 16.4116C20.246 16.2428 20.3209 15.9155 20.4172 15.4942C20.5135 15.9155 20.5888 16.2428 20.6276 16.4116H20.2068Z" fill="black"/>
<path d="M27.9711 18.3342C27.9575 18.2656 27.8869 18.2562 27.8285 18.2562H27.6982V18.6029H27.7634V18.4551H27.8283L27.8994 18.6029H27.9722L27.8942 18.4457C27.9484 18.4363 27.9816 18.3881 27.9711 18.3342ZM27.8183 18.4137H27.7634V18.2994H27.816C27.8576 18.2994 27.9023 18.3036 27.9063 18.3538C27.9107 18.4085 27.8594 18.4137 27.8183 18.4137Z" fill="#B09246"/>
<path d="M27.8207 18.1288C27.654 18.1246 27.5162 18.2717 27.5156 18.435C27.5148 18.6043 27.6614 18.7459 27.8302 18.7401C27.9982 18.7343 28.1324 18.5933 28.1259 18.4245C28.1196 18.2607 27.9866 18.1278 27.8207 18.1288ZM27.8184 18.6993C27.675 18.698 27.5551 18.5779 27.5557 18.435C27.5557 18.2932 27.6763 18.1652 27.8207 18.1694C27.9699 18.1689 28.0866 18.2895 28.0866 18.4373C28.0853 18.5821 27.9626 18.7014 27.8184 18.6993ZM7.65276 17.169H6.63589L6.61994 17.2946C6.61444 17.3362 6.55976 17.7023 6.2222 17.7023C5.90739 17.7023 5.74777 17.1803 5.74777 16.1503C5.74777 15.0795 5.9121 14.5596 6.25019 14.5596C6.59953 14.5596 6.65316 14.7917 6.71205 15.1716L6.73952 15.3485L6.86093 15.3483H7.57792L7.55123 13.6699L7.11398 13.6498L7.06583 13.7005C7.06399 13.7024 7.02055 13.7471 6.92216 13.7625C6.84079 13.7754 6.79394 13.7531 6.74502 13.7296L6.69032 13.7055L6.672 13.6984C6.59874 13.6702 6.44619 13.611 6.15023 13.611C5.89092 13.611 4.59668 13.7322 4.59668 16.1281C4.59668 18.2748 5.48976 18.7257 6.23894 18.7257C7.13177 18.7257 7.62345 18.0166 7.6478 17.3163L7.65276 17.169Z" fill="#B09246"/>
<path d="M11.1653 17.6716C11.0787 17.4185 10.3598 14.6869 10.3523 14.6584C10.3509 14.6534 10.29 14.4302 10.4234 14.3502L10.5171 14.2942L10.3706 13.78H8.64273L8.49462 14.2991L8.5951 14.3533C8.72542 14.4234 8.66236 14.6534 8.66157 14.6553C8.65347 14.6869 7.91528 17.4371 7.83966 17.6936C7.77268 17.9199 7.63242 17.9236 7.56543 17.9199L7.68029 18.515H8.9591L9.10721 17.9961L9.00097 17.939C8.98946 17.9327 8.94208 17.9019 8.94208 17.8113C8.94208 17.7909 8.94418 17.7679 8.95021 17.7409C8.95021 17.7409 9.0465 17.3152 9.08182 17.1595H9.93148C9.96707 17.3152 10.0631 17.7409 10.0631 17.7409C10.0688 17.7679 10.0715 17.7912 10.0715 17.8113C10.0715 17.9019 10.0233 17.9327 10.0121 17.939L9.91132 17.9935L9.93749 18.106L10.0542 18.515H11.3327L11.4541 17.9382C11.3948 17.9309 11.2508 17.9199 11.1653 17.6716ZM9.29639 16.2193C9.33487 16.0503 9.40996 15.7232 9.50677 15.3021C9.60307 15.7232 9.67818 16.0503 9.71691 16.2193H9.29639ZM27.2038 14.3719L27.3459 14.3366L27.1883 13.7747H25.8072L25.6497 14.3366L25.7915 14.3719C26.0021 14.4247 25.9778 14.6338 25.971 14.6749L25.9681 14.6872V17.5722C25.9681 17.8631 25.8519 17.9238 25.8507 17.9249L25.7439 17.977L25.768 18.095L25.887 18.5092H27.1083L27.2595 17.9809L27.1444 17.9249C27.1436 17.9238 27.0271 17.8631 27.0271 17.5722V14.6885L27.024 14.6749C27.0174 14.6338 26.9931 14.4247 27.2038 14.3719ZM15.5083 14.3719L15.6506 14.3366L15.4931 13.7747H14.2182C14.2182 13.7747 13.7205 14.7136 13.546 15.0428C13.3214 14.6202 13.097 14.1975 12.8727 13.7747H11.5981L11.4403 14.3366L11.5824 14.3719C11.8014 14.4266 11.7909 14.6422 11.7865 14.6848L11.786 14.6922L11.7857 17.5722C11.7857 17.8623 11.6452 17.9186 11.6389 17.9212L11.5159 17.9673L11.5465 18.095L11.6651 18.5092H12.9224L13.0734 17.9801L12.9577 17.9246C12.9567 17.9238 12.8394 17.8631 12.8394 17.5722V15.7582L13.546 16.9632C13.546 16.9632 14.0013 16.1858 14.252 15.7588V17.5722C14.252 17.8631 14.1342 17.9238 14.1332 17.9246L14.0259 17.9764L14.0507 18.095L14.1695 18.5092H15.4258L15.5802 17.9691L15.4525 17.9212C15.4462 17.9186 15.3055 17.8623 15.3055 17.5722V14.6935L15.3044 14.6848C15.3 14.6422 15.2895 14.4266 15.5083 14.3719ZM17.0555 17.5722V16.6848H17.2272C18.3244 16.6848 18.8574 16.2101 18.8574 15.233C18.8574 14.3235 18.2482 13.7805 17.2272 13.7805H17.2277L15.8139 13.7745L15.7851 13.8786L15.6566 14.3366L15.7982 14.3719C16.0175 14.4266 16.0065 14.6422 16.0031 14.6848L16.0015 14.6922V17.5722C16.0015 17.8623 15.8602 17.9186 15.8547 17.9212L15.732 17.9673L15.7626 18.095L15.8809 18.5092H17.1382L17.2887 17.9801L17.1736 17.9246C17.172 17.9238 17.0555 17.8631 17.0555 17.5722ZM17.0555 14.7542H17.1346C17.4088 14.7542 17.7356 14.8369 17.7356 15.2336C17.7356 15.5748 17.5614 15.714 17.1346 15.714H17.0555V14.7542ZM25.2276 17.5538C25.2276 17.5538 24.8607 16.6087 24.7862 16.414C25.1852 16.1916 25.3901 15.7849 25.3901 15.1993C25.3901 14.3109 24.8026 13.7805 23.8182 13.7805L22.3243 13.7745L22.2958 13.8786L22.1665 14.3366L22.3099 14.3719C22.5279 14.4266 22.518 14.6422 22.5135 14.6848L22.5125 14.6922V17.5722C22.5125 17.8623 22.3714 17.9186 22.3654 17.9212L22.244 17.9673L22.2736 18.095L22.3921 18.5092H23.6484L23.8004 17.9801L23.6842 17.9246C23.6832 17.9238 23.5662 17.8631 23.5662 17.5722V16.6178H23.6735C23.7395 16.7772 24.4609 18.5092 24.4609 18.5092H25.6023L25.7201 17.9874L25.5785 17.9555C25.5693 17.9534 25.3642 17.9034 25.2276 17.5538ZM23.73 15.6643H23.5662V14.7364H23.73C23.9904 14.7364 24.301 14.8167 24.301 15.2001C24.301 15.5342 24.1409 15.6643 23.73 15.6643ZM21.9428 17.6716C21.8557 17.4185 21.1376 14.6869 21.1295 14.6584C21.1287 14.6534 21.0675 14.4302 21.2007 14.3502L21.2946 14.2942L21.1479 13.78H19.4203L19.2719 14.2991L19.3732 14.3533C19.5037 14.4234 19.4399 14.6534 19.4394 14.6553C19.4308 14.6869 18.6928 17.4371 18.6172 17.6936C18.5497 17.9199 18.41 17.9236 18.343 17.9199L18.4581 18.515H19.7361L19.8853 17.9961L19.7783 17.939C19.7667 17.9327 19.7196 17.9019 19.7196 17.8113C19.7196 17.7909 19.7215 17.7679 19.727 17.7409C19.727 17.7409 19.8233 17.3152 19.8589 17.1595H20.7088C20.7451 17.3152 20.8407 17.7409 20.8407 17.7409C20.8461 17.7679 20.849 17.7912 20.849 17.8113C20.849 17.9019 20.8009 17.9327 20.7891 17.939L20.6886 17.9935L20.715 18.106L20.832 18.515H22.1105L22.232 17.9382C22.172 17.9309 22.0284 17.9199 21.9428 17.6716ZM20.0742 16.2193C20.1124 16.0503 20.1872 15.7232 20.2843 15.3021C20.354 15.6079 20.4239 15.9136 20.4942 16.2193H20.0742Z" fill="#B09246"/>
<path d="M6.22172 17.8447C5.7439 17.8447 5.60522 17.1227 5.60522 16.1506C5.60522 15.178 5.73291 14.4176 6.24971 14.4176C6.76625 14.4176 6.80525 14.8561 6.86045 15.206H7.43274L7.41076 13.8063L7.17159 13.7953C7.17159 13.7953 7.10224 13.8785 6.94419 13.9034C6.78536 13.9282 6.7024 13.8618 6.64117 13.8395C6.58021 13.8175 6.44963 13.7532 6.14975 13.7532C5.84935 13.7532 4.73828 13.9395 4.73828 16.1284C4.73828 18.3168 5.67193 18.5837 6.23847 18.5837C7.04415 18.5837 7.48299 17.9556 7.50522 17.3117H6.76049C6.76049 17.3117 6.69954 17.8447 6.22172 17.8447ZM11.0546 17.8115C10.9685 17.5503 10.2141 14.6947 10.2141 14.6947C10.2141 14.6947 10.118 14.3673 10.3494 14.2284L10.2625 13.923H8.74896L8.66181 14.2284C8.89759 14.355 8.79788 14.6947 8.79788 14.6947C8.79788 14.6947 8.04322 17.5503 7.95714 17.8115C7.87131 18.0729 7.72764 18.0449 7.72764 18.0449L7.79542 18.3728H8.85074L8.93814 18.0669C8.93814 18.0669 8.75158 17.9839 8.81044 17.7115C8.82562 17.6388 8.8866 17.3711 8.9672 17.0173H10.0442C10.1251 17.3711 10.1856 17.6388 10.2015 17.7115C10.2599 17.9839 10.0733 18.0669 10.0733 18.0669L10.1604 18.3728H11.2163L11.2838 18.0449C11.2838 18.0449 11.1401 18.0729 11.0546 17.8115ZM9.11713 16.3618C9.2463 15.7964 9.37592 15.2311 9.50597 14.6659C9.58789 15.0244 9.74828 15.722 9.89457 16.3618H9.11713ZM21.8321 17.8115C21.746 17.5503 20.9916 14.6947 20.9916 14.6947C20.9916 14.6947 20.8956 14.3673 21.1266 14.2284L21.0398 13.923H19.5268L19.4396 14.2284C19.6746 14.355 19.5752 14.6947 19.5752 14.6947C19.5752 14.6947 18.8203 17.5503 18.7352 17.8115C18.6486 18.0729 18.5055 18.0449 18.5055 18.0449L18.5732 18.3728H19.6283L19.7157 18.0669C19.7157 18.0669 19.5299 17.9839 19.5877 17.7115C19.6032 17.6388 19.6641 17.3711 19.7447 17.0173H20.8215C20.9032 17.3711 20.9639 17.6388 20.9791 17.7115C21.0374 17.9839 20.8514 18.0669 20.8514 18.0669L20.9388 18.3728H21.9936L22.0616 18.0449C22.0616 18.0449 21.9182 18.0729 21.8321 17.8115ZM19.8942 16.3618C20.0407 15.722 20.2014 15.0244 20.2835 14.6659C20.3652 15.0244 20.5261 15.722 20.6721 16.3618H19.8942ZM26.8837 17.5723V14.7007C26.8837 14.7007 26.8133 14.3228 27.1684 14.2336L27.0797 13.917H25.9137L25.825 14.2336C26.1809 14.3228 26.1092 14.7007 26.1092 14.7007V17.5723C26.1092 17.9839 25.9043 18.0559 25.9043 18.0559L25.9925 18.3673H27.0004L27.0894 18.0559C27.0894 18.0559 26.8837 17.9839 26.8837 17.5723ZM15.4734 14.2336L15.385 13.917H14.3035L13.5452 15.3468L12.7863 13.917H11.7051L11.6164 14.2336C11.9717 14.3228 11.9275 14.7007 11.9275 14.7007V17.5723C11.9275 17.9839 11.6828 18.0559 11.6828 18.0559L11.7721 18.3673H12.8146L12.9033 18.0559C12.9033 18.0559 12.6966 17.9839 12.6966 17.5723V15.2345L13.5452 16.6821L14.3935 15.2345V17.5723C14.3935 17.9839 14.1865 18.0559 14.1865 18.0559L14.2755 18.3673H15.318L15.4065 18.0559C15.4065 18.0559 15.1626 17.9839 15.1626 17.5723V14.7007C15.1626 14.7007 15.1176 14.3228 15.4734 14.2336ZM17.2264 13.9233L15.9209 13.917L15.8314 14.2336C16.1875 14.3228 16.1433 14.7007 16.1433 14.7007V17.5723C16.1433 17.9839 15.8984 18.0559 15.8984 18.0559L15.9869 18.3673H17.0301L17.1183 18.0559C17.1183 18.0559 16.9124 17.9839 16.9124 17.5723V16.5426H17.2264C18.0483 16.5426 18.7151 16.2825 18.7151 15.2332C18.7151 14.3037 18.0483 13.9233 17.2264 13.9233ZM17.1338 15.856H16.9124V14.6117H17.1338C17.5435 14.6117 17.8777 14.7923 17.8777 15.2337C17.8777 15.7325 17.5435 15.856 17.1338 15.856ZM25.0939 17.606C24.9643 17.2774 24.721 16.6439 24.6061 16.3461C24.9918 16.1839 25.247 15.8447 25.247 15.1995C25.247 14.2935 24.6061 13.9233 23.8174 13.9233L22.4321 13.917L22.3432 14.2336C22.6988 14.3228 22.654 14.7007 22.654 14.7007V17.5723C22.654 17.9839 22.4099 18.0559 22.4099 18.0559L22.4991 18.3673H23.5414L23.6301 18.0559C23.6301 18.0559 23.4228 17.9839 23.4228 17.5723V16.4759H23.7672L24.5553 18.3673H25.4887L25.5495 18.0949C25.5495 18.0949 25.266 18.0449 25.0939 17.606ZM23.7292 15.8063H23.4228V14.5942H23.7292C24.1223 14.5942 24.442 14.7703 24.442 15.2002C24.442 15.6859 24.1223 15.8063 23.7292 15.8063Z" fill="white"/>
<path d="M12.8057 10.7563V10.6192L13.3009 10.6184V11.0521C13.2248 11.1127 13.1465 11.1583 13.0656 11.1889C12.9849 11.2194 12.9019 11.2347 12.8169 11.2347C12.7021 11.2347 12.5978 11.2101 12.5039 11.161C12.4102 11.1118 12.3393 11.0407 12.2915 10.9477C12.2437 10.8547 12.2197 10.7508 12.2197 10.6359C12.2197 10.5222 12.2435 10.416 12.2911 10.3174C12.3387 10.2188 12.4071 10.1456 12.4964 10.0978C12.5857 10.0499 12.6885 10.026 12.805 10.026C12.8894 10.026 12.9659 10.0397 13.0342 10.0671C13.1025 10.0945 13.156 10.1326 13.1948 10.1815C13.2336 10.2304 13.2631 10.2942 13.2833 10.3728L13.1438 10.4111C13.1262 10.3516 13.1044 10.3048 13.0784 10.2708C13.0524 10.2368 13.0152 10.2095 12.9668 10.1891C12.9184 10.1686 12.8647 10.1584 12.8057 10.1584C12.735 10.1584 12.6739 10.1691 12.6223 10.1906C12.5708 10.2122 12.5292 10.2405 12.4976 10.2756C12.4666 10.3096 12.4417 10.3487 12.4238 10.3912C12.3941 10.4635 12.3792 10.5419 12.3792 10.6264C12.3792 10.7306 12.3971 10.8177 12.433 10.8879C12.4689 10.958 12.5211 11.0101 12.5897 11.0441C12.6575 11.078 12.7323 11.0955 12.8081 11.0952C12.8751 11.0952 12.9405 11.0823 13.0043 11.0565C13.0681 11.0307 13.1164 11.0032 13.1494 10.974V10.7563H12.8057ZM13.6034 11.2148V10.0459H14.1216C14.2258 10.0459 14.305 10.0564 14.3592 10.0774C14.4135 10.0984 14.4568 10.1355 14.4892 10.1887C14.5216 10.2418 14.5378 10.3005 14.5378 10.3649C14.5378 10.4478 14.511 10.5177 14.4573 10.5745C14.4036 10.6314 14.3207 10.6676 14.2085 10.683C14.2495 10.7026 14.2805 10.722 14.3018 10.7412C14.347 10.7826 14.3898 10.8344 14.4302 10.8966L14.6335 11.2148H14.439L14.2843 10.9716C14.2391 10.9014 14.2019 10.8477 14.1727 10.8105C14.1434 10.7733 14.1172 10.7473 14.0941 10.7324C14.071 10.7175 14.0475 10.7072 14.0236 10.7013C14.006 10.6976 13.9773 10.6957 13.9375 10.6957H13.7581V11.2148H13.6034ZM13.7581 10.5618H14.0905C14.1612 10.5618 14.2165 10.5545 14.2564 10.5398C14.2962 10.5252 14.3265 10.5019 14.3473 10.4697C14.368 10.4375 14.3783 10.4026 14.3783 10.3648C14.3783 10.3096 14.3583 10.2641 14.3182 10.2285C14.278 10.1929 14.2146 10.1751 14.128 10.1751H13.7581V10.5618ZM15.7102 10.0459H15.8649V10.7213C15.8649 10.8387 15.8516 10.932 15.825 11.0011C15.7984 11.0702 15.7505 11.1264 15.6811 11.1697C15.6117 11.2131 15.5207 11.2347 15.408 11.2347C15.2985 11.2347 15.209 11.2159 15.1393 11.1781C15.0697 11.1404 15.02 11.0858 14.9902 11.0143C14.9605 10.9428 14.9456 10.8451 14.9456 10.7213V10.0459H15.1003V10.7204C15.1003 10.822 15.1097 10.8968 15.1286 10.9449C15.1474 10.993 15.1799 11.0301 15.2258 11.0561C15.2718 11.0821 15.328 11.0952 15.3945 11.0952C15.5082 11.0952 15.5893 11.0694 15.6376 11.0178C15.686 10.9663 15.7102 10.8671 15.7102 10.7204V10.0459ZM16.2854 11.2148V10.0459H16.7263C16.8039 10.0459 16.8632 10.0497 16.9041 10.0571C16.9615 10.0667 17.0096 10.0848 17.0484 10.1117C17.0872 10.1385 17.1184 10.1761 17.1421 10.2245C17.1657 10.2729 17.1776 10.326 17.1776 10.384C17.1776 10.4834 17.1459 10.5675 17.0827 10.6363C17.0194 10.7051 16.9052 10.7396 16.7398 10.7396H16.4401V11.2148H16.2854ZM16.4401 10.6016H16.7422C16.8422 10.6016 16.9131 10.583 16.9551 10.5458C16.9971 10.5086 17.0181 10.4563 17.0181 10.3888C17.0181 10.3399 17.0057 10.298 16.981 10.2632C16.9563 10.2284 16.9238 10.2054 16.8834 10.1942C16.8573 10.1873 16.8092 10.1839 16.739 10.1839H16.4401L16.4401 10.6016ZM17.5378 11.2148V10.0459H17.9787C18.0563 10.0459 18.1156 10.0497 18.1565 10.0571C18.2139 10.0667 18.262 10.0848 18.3008 10.1117C18.3396 10.1385 18.3708 10.1761 18.3945 10.2245C18.4181 10.2729 18.43 10.326 18.43 10.384C18.43 10.4834 18.3983 10.5675 18.3351 10.6363C18.2718 10.7051 18.1575 10.7396 17.9922 10.7396H17.6925V11.2148H17.5378ZM17.6925 10.6016H17.9946C18.0946 10.6016 18.1655 10.583 18.2075 10.5458C18.2495 10.5086 18.2705 10.4563 18.2705 10.3888C18.2705 10.3399 18.2581 10.298 18.2334 10.2632C18.2087 10.2284 18.1761 10.2054 18.1358 10.1942C18.1097 10.1873 18.0616 10.1839 17.9914 10.1839H17.6925L17.6925 10.6016ZM18.7432 10.6455C18.7432 10.4515 18.7952 10.2996 18.8994 10.1899C19.0036 10.0801 19.138 10.0252 19.3028 10.0252C19.4107 10.0252 19.508 10.051 19.5947 10.1025C19.6813 10.1541 19.7473 10.226 19.7928 10.3182C19.8382 10.4104 19.8609 10.515 19.8609 10.6319C19.8609 10.7505 19.837 10.8565 19.7892 10.9501C19.7413 11.0436 19.6736 11.1144 19.5859 11.1625C19.4982 11.2106 19.4036 11.2347 19.302 11.2347C19.192 11.2347 19.0937 11.2081 19.007 11.155C18.9204 11.1018 18.8548 11.0293 18.8101 10.9373C18.7655 10.8454 18.7431 10.7481 18.7431 10.6455L18.7432 10.6455ZM18.9026 10.6478C18.9026 10.7887 18.9405 10.8997 19.0162 10.9807C19.092 11.0618 19.187 11.1023 19.3012 11.1023C19.4176 11.1023 19.5135 11.0614 19.5887 10.9795C19.6639 10.8977 19.7015 10.7815 19.7015 10.6311C19.7015 10.536 19.6854 10.4529 19.6533 10.382C19.6211 10.311 19.574 10.256 19.5121 10.2169C19.4502 10.1779 19.3807 10.1583 19.3036 10.1583C19.1942 10.1583 19.0999 10.1959 19.021 10.2711C18.9421 10.3464 18.9026 10.4719 18.9026 10.6478Z" fill="black"/>
<path fill-rule="evenodd" clip-rule="evenodd" d="M11.7366 10.8092H3.0127V10.7092H11.7366V10.8092ZM28.97 10.8092H20.3912V10.7092H28.97V10.8092Z" fill="#0D1B3C"/>
</g>
<path d="M16 0.666666C24.4 0.666666 31.3334 7.6 31.3334 16C31.3334 24.4 24.4 31.3334 16 31.3334C7.6 31.3334 0.666666 24.4 0.666666 16C0.666666 7.6 7.6 0.666666 16 0.666666ZM16 0C7.2 0 0 7.2 0 16C0 24.8 7.2 32 16 32C24.8 32 32 24.8 32 16C32 7.2 24.8 0 16 0Z" fill="#999999"/>
<defs>
<clipPath id="clip0">
<rect width="26" height="10.1861" fill="white" transform="translate(3 10)"/>
</clipPath>
</defs>
</svg>
