<svg width="32" height="32" viewBox="0 0 32 32" fill="none" xmlns="http://www.w3.org/2000/svg">
<path d="M0 16C0 24.8365 7.16344 32 16 32C24.8365 32 32 24.8365 32 16C32 7.16344 24.8365 0 16 0C7.16344 0 0 7.16344 0 16Z" fill="#EFEFEF"/>
<path d="M16 0.666666C24.4 0.666666 31.3334 7.6 31.3334 16C31.3334 24.4 24.4 31.3334 16 31.3334C7.6 31.3334 0.666666 24.4 0.666666 16C0.666666 7.6 7.6 0.666666 16 0.666666ZM16 0C7.2 0 0 7.2 0 16C0 24.8 7.2 32 16 32C24.8 32 32 24.8 32 16C32 7.2 24.8 0 16 0Z" fill="#999999"/>
<path d="M7.92406 18.4401C7.86343 18.5015 7.78865 18.5473 7.70628 18.5731C7.62391 18.5989 7.53645 18.6042 7.45158 18.5884C7.3667 18.5726 7.287 18.5363 7.21943 18.4825C7.15187 18.4288 7.09852 18.3592 7.06406 18.2801C7.02477 18.1687 7.01389 18.0493 7.0324 17.9327C7.05091 17.8161 7.09822 17.7059 7.17005 17.6121C7.31508 17.4258 7.4926 17.2673 7.69405 17.1441C7.75582 17.1088 7.80907 17.0603 7.85005 17.0021C7.8768 16.9432 7.88631 16.8779 7.87746 16.8139C7.8686 16.7498 7.84177 16.6896 7.80006 16.6401C7.7175 16.541 7.6212 16.454 7.51405 16.3821C7.25096 16.158 7.01169 15.9074 6.80006 15.6341C6.63356 15.4583 6.49828 15.2554 6.40006 15.0341C6.3397 14.84 6.31132 14.6373 6.31606 14.4341C6.2756 13.9719 6.36131 13.5075 6.56406 13.0901C6.86806 12.5641 7.48406 12.2781 8.09005 12.2301C8.58605 12.1921 9.01405 12.5401 9.33205 12.9221C9.65006 13.3041 9.93204 13.7461 10.4001 13.9461C10.4951 13.9927 10.6002 14.0154 10.7061 14.0121C10.8485 13.9875 10.9846 13.9344 11.1061 13.8561C11.6569 13.5606 12.2854 13.4419 12.9061 13.5161C13.5381 13.5941 14.158 13.8701 14.788 13.7821C15.2172 13.6933 15.6249 13.5215 15.988 13.2761C16.9299 12.71 17.6213 11.807 17.9221 10.7501C17.9494 10.6912 17.9606 10.6261 17.9546 10.5616C17.9486 10.4969 17.9256 10.435 17.8881 10.3821C17.7861 10.2881 17.622 10.3341 17.4881 10.3821C17.2321 10.4841 16.9541 10.6061 16.8341 10.8541C16.7962 10.9832 16.7367 11.105 16.6581 11.2141C16.6019 11.2574 16.5372 11.2884 16.4684 11.3053C16.3995 11.3221 16.3279 11.3245 16.2581 11.3121C16.0611 11.3102 15.872 11.2345 15.7281 11.1001C15.5935 10.9113 15.5298 10.6812 15.548 10.4501C15.5436 10.4063 15.5484 10.362 15.5621 10.3201C15.5852 10.2749 15.618 10.2354 15.6581 10.2041C16.0321 9.84412 16.124 9.26211 16.4981 8.90211C16.5621 8.84011 16.6401 8.75411 16.6001 8.67612C16.58 8.63612 16.5361 8.61611 16.51 8.57811C16.484 8.54011 16.51 8.47411 16.548 8.48411C16.7179 8.28488 16.8768 8.07658 17.0241 7.86012C17.0598 7.81835 17.0857 7.76916 17.1 7.71611C17.124 7.58211 17.006 7.47011 16.9201 7.36211C16.8341 7.25411 16.798 7.06211 16.9201 7.00812C17.004 6.97011 17.102 7.03411 17.156 7.11011C17.198 7.193 17.2483 7.27141 17.3061 7.34412C17.3392 7.3085 17.3615 7.2642 17.3703 7.21638C17.3792 7.16857 17.3742 7.11922 17.356 7.07411C17.3184 6.98361 17.3007 6.88607 17.3041 6.78812C17.3201 6.69212 17.4341 6.60812 17.5041 6.66412C17.4501 6.81011 17.596 6.94412 17.726 7.02812L18.302 7.41411C18.3364 7.43987 18.376 7.45763 18.4181 7.46611C18.5441 7.48012 18.6181 7.33011 18.652 7.20812C18.6781 7.20023 18.706 7.20126 18.7313 7.21104C18.7567 7.22082 18.7781 7.2388 18.7921 7.26211C18.8178 7.30941 18.8392 7.35895 18.8561 7.41011C18.9761 7.68012 19.3381 7.73011 19.556 7.93011C19.6611 8.043 19.7506 8.16946 19.822 8.30611C19.8945 8.4438 20.0126 8.55198 20.156 8.61212C20.2285 8.63792 20.3081 8.63414 20.3778 8.60156C20.4474 8.56898 20.5015 8.51025 20.5281 8.43811C20.572 8.56545 20.5843 8.70159 20.5637 8.83472C20.5431 8.96786 20.4903 9.09397 20.4101 9.20211C20.3828 9.23058 20.3634 9.26577 20.3541 9.30411C20.342 9.41011 20.484 9.44807 20.5781 9.50407C20.7781 9.60412 20.83 9.85607 20.9781 10.0181C21.0325 10.0767 21.0988 10.123 21.1727 10.1537C21.2466 10.1844 21.3261 10.1988 21.406 10.1961C21.436 10.5501 21.052 10.8841 20.6961 10.8701L21.31 11.4701C21.3244 11.4818 21.3343 11.498 21.3381 11.5161C21.3378 11.5309 21.3336 11.5454 21.326 11.5581C21.2693 11.6533 21.1918 11.7347 21.0994 11.7959C21.007 11.8572 20.9019 11.8969 20.7921 11.9121C20.71 11.9221 20.5921 11.9381 20.5921 12.0201C20.591 12.0621 20.606 12.1028 20.6341 12.1341C20.8341 12.4061 21.0661 12.7201 20.964 13.0381C20.9398 12.9992 20.9029 12.9699 20.8596 12.955C20.8163 12.94 20.7691 12.9404 20.726 12.9561C20.748 13.0341 20.6561 13.0941 20.6261 13.1701C20.582 13.2901 20.7141 13.4121 20.8421 13.4221C20.9694 13.4139 21.0951 13.3891 21.2161 13.3481C21.4543 13.3291 21.6937 13.3291 21.932 13.3481C22.1841 13.3361 22.4261 13.2401 22.676 13.2461C22.8379 13.2528 22.9953 13.3022 23.1319 13.3892C23.2685 13.4764 23.3797 13.5981 23.454 13.7421C23.774 14.3761 24.35 14.8321 24.854 15.3281C24.9014 15.3771 24.9522 15.4226 25.006 15.4641C25.0625 15.5007 25.1166 15.5408 25.1681 15.5841C25.316 15.7261 25.3681 15.9841 25.5461 16.0601C25.724 16.1361 25.86 16.4081 25.9701 16.6121C26.0173 16.6922 26.0467 16.7816 26.0561 16.8741C26.0596 16.9203 26.0516 16.9666 26.0327 17.0088C26.0139 17.0511 25.9847 17.088 25.948 17.1161C25.8519 17.1621 25.7421 17.1707 25.6401 17.1401L25.2161 17.0661C25.0969 17.0579 24.9838 17.0109 24.894 16.9321C24.8469 16.8584 24.8217 16.7727 24.8217 16.6852C24.8217 16.5975 24.8469 16.5119 24.894 16.4381C24.9106 16.4096 24.9189 16.3771 24.918 16.3441C24.9127 16.3211 24.9017 16.2998 24.886 16.2821C24.8377 16.2236 24.7729 16.1811 24.7 16.1601C24.6528 16.1526 24.6065 16.1399 24.5621 16.1221C24.5027 16.083 24.4562 16.0274 24.428 15.9621C24.2536 15.6473 24.0422 15.3545 23.798 15.0901C23.7628 15.0474 23.7201 15.0115 23.6721 14.9841C23.39 14.8381 23.2081 14.5541 22.934 14.3841C22.8216 14.3101 22.696 14.2584 22.564 14.2321C22.3727 14.2239 22.1837 14.2764 22.0241 14.3821C21.6001 14.6101 21.198 14.9001 20.7281 15.0021C20.7281 15.0421 20.788 15.0561 20.83 15.0581C21.1396 15.0845 21.4511 15.0738 21.758 15.0261C21.9157 14.9947 22.0755 14.976 22.236 14.9701C22.3985 14.9668 22.5562 15.0246 22.678 15.1321C22.7361 15.1954 22.7847 15.2668 22.822 15.3441C22.9167 15.502 22.9958 15.6689 23.0581 15.8421C23.076 15.9041 23.3221 16.5041 23.428 16.7561C23.4721 16.8621 23.5201 16.9561 23.5681 17.0701L23.71 17.3761C23.7515 17.473 23.8003 17.5667 23.8561 17.6561C23.8981 17.7201 23.948 17.7781 23.996 17.8381C24.3102 18.2283 24.4797 18.7152 24.476 19.2161C24.42 19.2801 24.444 19.3761 24.4341 19.4621C24.4165 19.5465 24.3787 19.6255 24.324 19.6921C24.2944 19.7447 24.2489 19.7867 24.1941 19.8121C24.1245 19.8234 24.0532 19.8084 23.9941 19.7701C23.7946 19.6843 23.6108 19.566 23.4501 19.4201C23.3898 19.3683 23.3447 19.3012 23.3192 19.2259C23.2939 19.1506 23.2894 19.0698 23.3061 18.9921C23.3246 18.947 23.3481 18.9041 23.3761 18.8641L23.5461 18.6181C23.59 18.5541 23.6321 18.4621 23.58 18.4041C23.5281 18.3461 23.366 18.3921 23.3121 18.3101C23.3013 18.2903 23.2945 18.2686 23.292 18.2461L23.22 17.8461C23.15 17.4461 22.924 17.0781 22.756 16.7081C22.732 16.6561 22.7061 16.6021 22.678 16.5521C22.5761 16.3935 22.4506 16.2512 22.3061 16.1301C22.2497 16.0702 22.1816 16.0226 22.1061 15.9901C22.0133 15.9631 21.9148 15.9631 21.822 15.9901C21.446 16.0741 21.14 16.3361 20.822 16.5381C20.6017 16.6692 20.374 16.7873 20.14 16.8921C19.9201 16.9961 19.708 17.1101 19.484 17.2041C19.386 17.2542 19.2756 17.275 19.166 17.2641C19.0421 17.2401 18.942 17.1401 18.8161 17.1181C18.7069 17.1079 18.5973 17.1295 18.5 17.1801C18.238 17.2881 17.9841 17.4121 17.718 17.5081C17.1754 17.7009 16.5975 17.7732 16.0241 17.7201C15.8241 17.7001 15.6241 17.7041 15.4241 17.6901C14.8421 17.6481 14.2801 17.3781 13.7 17.4421C13.6903 17.4391 13.6798 17.4391 13.67 17.4421C13.6536 17.4548 13.6429 17.4736 13.6401 17.4941C13.557 17.7954 13.4215 18.0797 13.2401 18.3341C13.1701 18.4361 13.084 18.5341 13.014 18.6401C12.8001 18.9481 12.5681 19.2701 12.2241 19.4161C12.0896 19.4545 11.9616 19.5124 11.844 19.5881C11.7895 19.6395 11.7462 19.7015 11.7166 19.7703C11.6871 19.8391 11.6719 19.9132 11.6721 19.9881C11.6722 20.1357 11.6966 20.2823 11.7441 20.4221C11.7667 20.5103 11.801 20.595 11.846 20.6741C11.8959 20.75 11.9528 20.821 12.0161 20.8861C12.0999 20.9884 12.178 21.0952 12.2501 21.2061L12.6501 21.8061C12.6661 21.8281 12.6801 21.8581 12.662 21.8761C12.644 21.8941 12.6801 21.8761 12.692 21.8921L13.0721 22.4921C13.1395 22.6023 13.2179 22.7056 13.3061 22.8001C13.5061 23.0221 13.798 23.1441 14.0321 23.3301C14.1349 23.3972 14.2187 23.4898 14.2754 23.5987C14.3321 23.7076 14.3599 23.8293 14.356 23.9521C14.3525 23.9908 14.3364 24.0274 14.31 24.0561C14.2768 24.0819 14.2361 24.0966 14.1941 24.0981C13.8652 24.1452 13.5306 24.133 13.206 24.0621C13.1856 24.0593 13.1662 24.051 13.15 24.0381C13.1357 24.0197 13.1273 23.9974 13.126 23.9741L13.0561 23.5561C13.0502 23.4979 13.0311 23.4418 13.0001 23.3921C12.908 23.2721 12.708 23.3061 12.6001 23.2061C12.5696 23.1742 12.5459 23.1365 12.5301 23.0953C12.5143 23.0541 12.5068 23.0102 12.508 22.9661C12.513 22.8782 12.513 22.79 12.508 22.7021C12.462 22.4141 12.166 22.2441 12.012 21.9961C11.982 21.9461 11.956 21.8901 11.924 21.8401C11.868 21.7583 11.8052 21.6813 11.7361 21.6101C11.5058 21.3515 11.3047 21.0685 11.1361 20.7661C11.078 20.6641 10.9361 20.6001 10.8581 20.5221C10.7697 20.4563 10.6955 20.3733 10.6401 20.2781C10.5839 20.1515 10.5797 20.0079 10.628 19.8781C10.6786 19.7476 10.754 19.6279 10.8501 19.5261C10.9726 19.4159 11.0684 19.279 11.1301 19.1261C11.1481 19.0387 11.1522 18.9489 11.142 18.8601C10.964 18.9461 10.8241 19.0601 10.654 19.1641C10.5232 19.2419 10.3797 19.2961 10.23 19.3241C10.0952 19.3368 9.9615 19.3595 9.83002 19.3921C9.6943 19.4467 9.57147 19.529 9.46917 19.6337C9.36693 19.7383 9.28754 19.8631 9.23605 20.0001C9.19024 20.1028 9.15797 20.2111 9.14006 20.3221C9.12836 20.4283 9.12368 20.5352 9.12605 20.6421C9.12605 21.1141 8.99605 21.5801 9.00005 22.0421C8.98239 22.3788 9.09725 22.7091 9.32005 22.9621C9.48009 23.1201 9.70202 23.2141 9.82606 23.4001C9.91604 23.5341 10.0561 23.6321 10.0981 23.7901C10.1301 23.9061 10.1121 24.0641 9.99802 24.1061C9.96027 24.1164 9.92103 24.1198 9.88206 24.1161L9.14406 24.0841C9.08588 24.0866 9.02786 24.0764 8.97405 24.0541C8.92409 24.0182 8.8841 23.9701 8.85786 23.9145C8.83161 23.8589 8.81997 23.7975 8.82405 23.7361C8.83357 23.6138 8.81369 23.4911 8.76605 23.3781C8.65805 23.1941 8.38205 23.1621 8.28405 22.9781C8.24135 22.8788 8.23428 22.768 8.26406 22.6641C8.29338 22.5616 8.31279 22.4563 8.32205 22.3501C8.31706 22.2882 8.31706 22.226 8.32205 22.1641C8.3314 22.1164 8.34477 22.0695 8.36205 22.0241C8.40185 21.9104 8.42214 21.7907 8.42205 21.6701C8.42205 21.3181 8.38806 20.9661 8.39606 20.6141C8.39606 20.5081 8.41405 20.4141 8.41805 20.3001C8.41124 20.0038 8.37845 19.7087 8.32005 19.4181C8.30808 19.3453 8.30808 19.2709 8.32005 19.1981C8.36087 19.0638 8.44356 18.946 8.55605 18.8621C8.68095 18.7537 8.81476 18.6561 8.95605 18.5701C9.16049 18.4231 9.33044 18.2334 9.45402 18.0141C9.53411 17.9027 9.60122 17.7827 9.65402 17.6561C9.69816 17.5439 9.72188 17.4246 9.72404 17.3041C9.70503 17.0568 9.66352 16.8118 9.60009 16.5721C9.57044 16.3998 9.56366 16.2243 9.58004 16.0501C9.63115 15.5652 9.81063 15.1026 10.1 14.7101C10.1058 14.7047 10.1103 14.6981 10.1134 14.691C10.1164 14.6837 10.118 14.6759 10.118 14.6681C10.118 14.6401 10.086 14.6241 10.0581 14.6181C9.90409 14.5841 9.73402 14.6541 9.58606 14.5961C9.54635 14.5761 9.50559 14.5581 9.46409 14.5421C9.40966 14.5333 9.35404 14.536 9.3007 14.5497C9.24735 14.5635 9.19743 14.5881 9.15405 14.6221C9.06159 14.6689 8.9871 14.7448 8.94205 14.8381C8.89926 14.7819 8.87012 14.7165 8.85693 14.647C8.84374 14.5777 8.84686 14.5061 8.86605 14.4381C8.9003 14.3328 8.95771 14.2364 9.03405 14.1561C8.99258 14.1348 8.94665 14.1238 8.90005 14.1238C8.85346 14.1238 8.80753 14.1348 8.76605 14.1561C8.68279 14.1981 8.60654 14.2527 8.54006 14.3181C8.39856 14.421 8.2991 14.5716 8.26006 14.7421C8.16934 14.6736 8.09997 14.5806 8.06006 14.4741C7.99948 14.5031 7.94844 14.5489 7.91301 14.6059C7.87757 14.6629 7.85919 14.7289 7.86006 14.7961C7.87054 14.8441 7.89024 14.8896 7.91805 14.9301C7.98353 15.0497 8.06201 15.1618 8.15205 15.2641C8.24151 15.3517 8.33782 15.4319 8.44006 15.5041C8.6697 15.6817 8.88016 15.8828 9.06805 16.1041C9.04805 16.1041 9.06805 16.1041 9.06805 16.1321C9.07043 16.1521 9.0788 16.1709 9.09205 16.1861C9.21681 16.3834 9.27629 16.615 9.26205 16.8481C9.26628 17.0809 9.18356 17.307 9.03005 17.4821C8.93778 17.5677 8.83331 17.6391 8.72005 17.6941C8.59253 17.7718 8.45872 17.8387 8.32005 17.8941C8.13893 17.9364 7.96459 18.0036 7.80205 18.0941C7.78446 18.1043 7.76952 18.1185 7.7584 18.1355C7.74729 18.1525 7.74031 18.1719 7.73805 18.1921C7.73904 18.2161 7.74743 18.2391 7.76205 18.2581C7.80755 18.3258 7.86205 18.3871 7.92406 18.4401Z" fill="#1F1E1D"/>
<path d="M6.69597 13.7283C6.73986 13.4748 6.84937 13.2374 7.01359 13.0395C7.17782 12.8415 7.39102 12.6902 7.63197 12.6003C7.76546 12.5459 7.90786 12.5167 8.05197 12.5143C8.32002 12.5301 8.57621 12.6301 8.78397 12.8003C8.89138 12.87 8.98359 12.9606 9.05508 13.0668C9.12656 13.173 9.17585 13.2925 9.19997 13.4183C9.0903 13.4218 8.98098 13.4041 8.87798 13.3662C8.71821 13.3276 8.55178 13.3255 8.39111 13.3601C8.23042 13.3948 8.07963 13.4652 7.94998 13.5662C7.9223 13.5925 7.88966 13.6128 7.85398 13.6263C7.83539 13.6316 7.81548 13.6299 7.79812 13.6214C7.78074 13.6129 7.76715 13.5982 7.75997 13.5803C7.75818 13.5661 7.75921 13.5518 7.76298 13.5381C7.76676 13.5244 7.77321 13.5115 7.78198 13.5003C7.82706 13.4305 7.87649 13.3638 7.92998 13.3003C7.94773 13.2812 7.96135 13.2588 7.96998 13.2343C7.99197 13.1603 7.91398 13.0923 7.83798 13.0723C7.73822 13.0626 7.6376 13.0767 7.5444 13.1136C7.4512 13.1504 7.3681 13.209 7.30198 13.2843C7.20024 13.3724 7.10958 13.4724 7.03197 13.5822C6.96797 13.6763 6.91798 13.8382 6.83197 13.9083C6.74598 13.9783 6.68198 13.8243 6.69597 13.7283Z" fill="#595A5A"/>
<path d="M10.3141 16.6901C10.2843 16.6878 10.2561 16.6763 10.2332 16.6574C10.2103 16.6384 10.1938 16.6128 10.1861 16.5841C10.173 16.5261 10.173 16.466 10.1861 16.4081C10.2044 16.1227 10.2671 15.8421 10.372 15.5761C10.4308 15.4512 10.4976 15.3303 10.572 15.214C10.608 15.158 10.6421 15.102 10.6821 15.0501C10.7362 14.9771 10.7978 14.91 10.8661 14.8501C11.1865 14.5483 11.5758 14.3293 12 14.212C12.3431 14.1407 12.6945 14.1172 13.044 14.142C13.872 14.172 14.6821 14.3781 15.488 14.1941C15.9814 14.0812 16.4411 13.8537 16.83 13.5301C16.933 13.4361 17.0425 13.3499 17.158 13.2721C17.1454 13.3868 17.0887 13.4922 17 13.566L16.684 13.9061C16.555 14.0298 16.447 14.1737 16.364 14.332C16.264 14.5541 16.268 14.812 16.164 15.0341C16.0987 15.163 16.0063 15.2762 15.8931 15.366C15.7799 15.4558 15.6485 15.5199 15.508 15.5541C15.2259 15.62 14.9322 15.62 14.6501 15.5541C14.6098 15.5495 14.5714 15.5351 14.5381 15.5121C14.4501 15.4401 14.496 15.292 14.5781 15.212C14.66 15.132 14.7781 15.0821 14.832 14.982C14.6032 14.8287 14.3495 14.7163 14.0821 14.6501C13.8207 14.6165 13.5555 14.628 13.2981 14.684C13.0981 14.718 12.886 14.7541 12.686 14.806C12.1385 14.9514 11.6307 15.218 11.2 15.5861C11.1564 15.6152 11.1143 15.6465 11.0741 15.6801C10.8306 15.9353 10.6282 16.2268 10.4741 16.5441C10.4574 16.5878 10.4314 16.6273 10.398 16.66C10.364 16.692 10.3541 16.7141 10.3141 16.6901Z" fill="#595A5A"/>
<path d="M9.67605 23.6001C9.72734 23.6458 9.76762 23.7025 9.79407 23.766C9.80649 23.7857 9.81308 23.8087 9.81308 23.8321C9.81308 23.8554 9.80649 23.8783 9.79407 23.898C9.7776 23.9102 9.75878 23.9189 9.73892 23.9237C9.71897 23.9285 9.69826 23.9293 9.67802 23.926H9.54805C9.49402 23.926 9.4321 23.926 9.40606 23.874C9.39461 23.8399 9.3892 23.804 9.39006 23.7681C9.38525 23.7471 9.37925 23.7264 9.37206 23.706C9.3489 23.6327 9.33085 23.5579 9.31806 23.482C9.31806 23.444 9.29806 23.412 9.31806 23.38C9.45487 23.4201 9.57845 23.4961 9.67605 23.6001Z" fill="#595A5A"/>
<path d="M14.108 23.7362C14.1203 23.7622 14.1242 23.7914 14.1193 23.8197C14.1143 23.848 14.1005 23.8741 14.0799 23.8942C14.0495 23.9115 14.0149 23.9197 13.98 23.9182H13.8499C13.8246 23.918 13.7997 23.9111 13.7779 23.8982C13.7625 23.8831 13.7509 23.8646 13.7439 23.8443C13.7099 23.7563 13.5619 23.3862 13.732 23.4142C13.8949 23.4678 14.0299 23.5835 14.108 23.7362Z" fill="#595A5A"/>
<path d="M24.254 19.2C24.2373 19.3376 24.2016 19.4722 24.148 19.6C24.0419 19.5984 23.9392 19.5619 23.856 19.496C23.8344 19.4809 23.8161 19.4615 23.8021 19.4392C23.7879 19.4169 23.7784 19.392 23.774 19.3661C23.7753 19.3108 23.7959 19.2578 23.832 19.216C23.884 19.144 23.942 19.076 23.994 19.016C24.0329 18.9393 24.0798 18.8669 24.134 18.8C24.1798 18.8553 24.2139 18.9192 24.2345 18.9879C24.2552 19.0566 24.2618 19.1287 24.254 19.2Z" fill="#595A5A"/>
<path d="M25.726 16.5019C25.8012 16.5654 25.8551 16.6506 25.88 16.7459C25.8831 16.7685 25.8831 16.7913 25.88 16.8139C25.8834 16.8419 25.8788 16.8702 25.8667 16.8957C25.8547 16.9211 25.8358 16.9427 25.812 16.9579C25.7697 16.9749 25.7224 16.9749 25.68 16.9579L25.4661 16.8899V16.7599C25.4661 16.6759 25.436 16.4479 25.4901 16.3779C25.544 16.3079 25.6741 16.4499 25.726 16.5019Z" fill="#595A5A"/>
<path d="M19.944 9.52428C20.0997 9.86113 20.1756 10.2293 20.1659 10.6003C20.1659 10.675 20.162 10.7489 20.154 10.8223C20.1399 11.0223 20.104 11.2103 20.0919 11.4223C20.0619 11.9558 19.9401 12.4801 19.7319 12.9723C19.7012 13.0351 19.6815 13.1027 19.674 13.1723C19.674 13.2097 19.6816 13.2467 19.6964 13.2811C19.7112 13.3155 19.7328 13.3465 19.76 13.3723L20.248 13.8643C20.3042 13.9161 20.3539 13.9745 20.3959 14.0383C20.4702 14.2023 20.4951 14.3843 20.4679 14.5623C20.473 14.6316 20.4639 14.7012 20.4412 14.7668C20.4185 14.8325 20.3828 14.8929 20.336 14.9443L20.0359 14.3683C19.9978 14.2947 19.9558 14.2233 19.9099 14.1543C19.7565 13.9566 19.5647 13.792 19.346 13.6703C19.146 13.5423 18.92 13.4123 18.7079 13.2983C18.6489 13.2677 18.5939 13.2302 18.544 13.1863C18.478 13.1303 18.418 13.0363 18.464 12.9623C18.4793 12.9419 18.4976 12.9237 18.5179 12.9083C18.5575 12.8714 18.593 12.8305 18.624 12.7863C18.8589 12.504 19.0652 12.1992 19.24 11.8763C19.3395 11.6671 19.4263 11.452 19.4999 11.2323C19.522 11.1683 19.544 11.1043 19.56 11.0323C19.5742 10.9543 19.5836 10.8754 19.5879 10.7963L19.618 10.3763C19.627 10.2598 19.627 10.1428 19.618 10.0263C19.6043 9.90038 19.5796 9.77586 19.544 9.65426C19.5131 9.52231 19.4729 9.39266 19.424 9.26629C19.2949 8.96116 19.0617 8.7117 18.7659 8.56229C18.633 8.50626 18.5096 8.43003 18.4 8.33629C18.4 8.32429 18.374 8.28229 18.386 8.27429C18.4003 8.26941 18.4157 8.26941 18.43 8.27429C18.513 8.28855 18.5946 8.30996 18.674 8.33829C18.9905 8.44539 19.2798 8.6201 19.522 8.85029C19.587 8.91107 19.6459 8.97805 19.698 9.05029C19.7938 9.19067 19.8729 9.34167 19.9339 9.50028C19.9419 9.5143 19.96 9.54028 19.944 9.52428Z" fill="#595A5A"/>
<path d="M15.81 10.2539C15.9097 10.1725 15.9961 10.0761 16.066 9.96802C16.126 9.858 16.142 9.72802 16.196 9.61602C16.2464 9.52313 16.3068 9.43588 16.376 9.35598C16.4939 9.20686 16.6015 9.04983 16.698 8.88598C16.746 8.80198 16.79 8.68598 16.73 8.61398C16.718 8.59998 16.706 8.58998 16.696 8.57598C16.668 8.52398 16.712 8.46198 16.752 8.41998L16.952 8.20798C17.037 8.11102 17.1361 8.02742 17.246 7.95998C17.301 7.926 17.3657 7.91123 17.43 7.91798C17.4619 7.92252 17.4913 7.93794 17.5131 7.96162C17.535 7.98531 17.5481 8.0158 17.55 8.04798C17.5466 8.08414 17.5335 8.11871 17.512 8.14798C17.438 8.26598 17.358 8.40798 17.416 8.53398C17.4573 8.60192 17.5151 8.65834 17.584 8.69798C17.6179 8.71822 17.6468 8.7458 17.6685 8.77867C17.6904 8.81156 17.7045 8.84891 17.71 8.88798C17.7108 8.89389 17.7101 8.89991 17.7081 8.9055C17.7059 8.91108 17.7025 8.91606 17.698 8.91998C17.6882 8.92305 17.6777 8.92305 17.668 8.91998C17.556 8.90798 17.452 8.81998 17.344 8.85398C17.3053 8.86894 17.27 8.89137 17.24 8.91998C16.8731 9.24326 16.5973 9.65696 16.44 10.12C16.4174 10.171 16.4057 10.2262 16.4057 10.282C16.4057 10.3378 16.4174 10.393 16.44 10.444C16.456 10.474 16.48 10.498 16.496 10.528C16.5098 10.5533 16.5179 10.5814 16.5199 10.6102C16.5219 10.639 16.5176 10.6679 16.5073 10.6948C16.497 10.7218 16.4811 10.7463 16.4605 10.7665C16.4399 10.7867 16.4152 10.8022 16.388 10.812C16.371 10.8195 16.3526 10.8234 16.334 10.8234C16.3154 10.8234 16.297 10.8195 16.28 10.812C16.2638 10.8033 16.2508 10.7898 16.2429 10.7732C16.2349 10.7566 16.2326 10.738 16.236 10.72C16.2454 10.7003 16.2575 10.6822 16.272 10.666C16.3014 10.6331 16.3208 10.5924 16.3278 10.5488C16.3349 10.5052 16.3294 10.4605 16.312 10.42C16.3019 10.4006 16.2876 10.3836 16.2703 10.3703C16.253 10.357 16.2329 10.3476 16.2116 10.3429C16.1903 10.3381 16.1682 10.3381 16.1468 10.3427C16.1255 10.3474 16.1054 10.3567 16.088 10.37C16.0648 10.4072 16.0524 10.4501 16.0524 10.4939C16.0524 10.5378 16.0648 10.5808 16.088 10.618C16.1691 10.8234 16.2917 11.0099 16.448 11.1659C16.4263 11.1806 16.4001 11.1871 16.374 11.1842C16.348 11.1812 16.3239 11.1691 16.306 11.1499C16.2697 11.1125 16.2279 11.0808 16.182 11.056C16.1282 11.0489 16.0738 11.0489 16.02 11.056C15.9651 11.0471 15.9134 11.0239 15.8703 10.9888C15.8271 10.9537 15.7939 10.9079 15.774 10.856C15.7152 10.7648 15.687 10.6573 15.6935 10.5491C15.7 10.4409 15.7408 10.3374 15.81 10.2539Z" fill="#595A5A"/>
</svg>
