<svg width="32" height="32" viewBox="0 0 32 32" fill="none" xmlns="http://www.w3.org/2000/svg">
<path d="M0 16C0 24.8365 7.16344 32 16 32C24.8365 32 32 24.8365 32 16C32 7.16344 24.8365 0 16 0C7.16344 0 0 7.16344 0 16Z" fill="#EFEFEF"/>
<path fill-rule="evenodd" clip-rule="evenodd" d="M3.21864 17.9699C3.21753 17.5243 3.21753 13.4175 3.21753 13.4175C3.21753 13.1011 2.92928 13.0017 3.10488 13.0017H4.09333C4.31145 13.0017 4.00553 13.0691 4.00166 13.4026C3.99945 13.6456 4.00553 17.9599 4.00553 17.9599C4.00553 18.4481 4.00829 18.5022 4.84543 18.5475C5.20215 18.5674 6.18839 18.6176 7.0294 17.5905C7.28672 17.2763 7.20776 17.5071 7.20776 17.5071C7.20776 17.5071 7.07523 18.4415 7.01835 18.6215C6.97638 18.7562 6.93773 18.7281 6.81459 18.7314C6.68482 18.7336 3.1082 18.7303 3.1082 18.7303C2.91161 18.7303 3.01653 18.6751 3.15734 18.4636C3.233 18.3498 3.21864 17.9732 3.21864 17.9699ZM8.27241 13.7477C8.3337 13.8919 10.2526 18.6817 10.2526 18.6817C10.2819 18.7303 10.31 18.7303 10.31 18.7303H10.7457C10.7877 18.7303 10.8186 18.6922 10.833 18.6751C10.833 18.6751 12.4404 14.4303 12.5387 14.1768C12.6376 13.9239 12.9761 13.3264 13.1859 13.1259C13.3472 12.9713 13.0976 13.0028 13.0976 13.0028H11.9937C11.9225 13.0028 11.7993 12.957 11.9904 13.2358C12.3339 13.7383 12.0981 14.2905 12.0981 14.2905L10.78 17.9373C10.78 17.9373 9.19735 13.8118 9.14213 13.671C9.08525 13.5307 9.09464 13.2933 9.1841 13.1861C9.36356 12.9719 9.30061 13.0028 9.16035 13.0028H7.87537C7.60258 13.0017 8.03827 13.1016 8.27241 13.7477ZM15.7012 13.8499C15.7084 14.4507 15.3174 17.4967 15.1849 17.9185C15.0662 18.299 14.9082 18.574 14.8525 18.6347C14.789 18.7054 14.7823 18.7297 14.8746 18.7297H15.6973C15.8591 18.7297 15.6907 18.5712 15.6907 18.5712C15.6907 18.5712 15.5493 18.3609 15.5985 17.918C15.6173 17.7496 16.0717 13.8438 16.0717 13.8438C16.0717 13.8438 17.8404 18.5514 17.899 18.6911C17.9647 18.8529 18.0425 18.8705 18.1171 18.6949C18.1408 18.637 20.0156 13.7406 20.0156 13.7406C20.0156 13.7406 20.4386 17.58 20.4662 17.8898C20.4938 18.1996 20.517 18.4266 20.4943 18.5116C20.4446 18.6955 20.2972 18.7297 20.4424 18.7297H21.5319C21.686 18.7297 21.6551 18.706 21.591 18.6071C21.5424 18.5309 21.4011 18.3929 21.247 17.7882C21.1189 17.2879 20.8621 13.7814 20.8455 13.5578C20.8069 13.026 21.1581 13.0017 20.9825 13.0017H19.9664C19.9664 13.0017 19.84 13.0133 19.7908 13.1911C19.7671 13.2778 18.2612 17.5237 18.2612 17.5237L16.6184 13.0017H15.5841C15.2119 13.0017 15.7255 13.0691 15.7012 13.8499ZM28.9237 13.0807C28.9894 13.0161 28.9894 13.0017 28.842 13.0017H27.9132C27.7028 13.0017 27.8116 13.0829 27.8116 13.0829C27.8116 13.0829 27.9563 13.2513 27.9623 13.5009V15.6528H25.2897C25.2897 15.6528 25.2886 13.7676 25.2897 13.6555C25.2941 13.2861 25.3973 13.1756 25.4415 13.1138C25.5321 12.984 25.4901 13.0011 25.3488 13.0011H24.4663C24.3045 13.0011 24.2659 13.0127 24.3813 13.0967C24.3813 13.0967 24.4978 13.1773 24.4879 13.6809C24.4879 13.6809 24.4923 17.8705 24.4879 18.0693C24.4801 18.4094 24.4597 18.5663 24.3813 18.659C24.309 18.7479 24.4211 18.7292 24.4211 18.7292H25.3703C25.4548 18.7292 25.4018 18.6767 25.4018 18.6767C25.4018 18.6767 25.3002 18.6557 25.2897 18.0693V15.8925H27.9623C27.9623 15.8925 27.9772 17.9599 27.9761 18.0732C27.9728 18.4249 27.9728 18.5712 27.8922 18.6469C27.8392 18.696 27.7199 18.7303 27.9513 18.7303H28.8801C29.0032 18.7303 29.0419 18.7303 28.9469 18.653C28.8917 18.6082 28.8055 18.5271 28.8055 18.0732V13.5434C28.8061 13.174 28.9237 13.0807 28.9237 13.0807Z" fill="black"/>
<path d="M16 0.666666C24.4 0.666666 31.3334 7.6 31.3334 16C31.3334 24.4 24.4 31.3334 16 31.3334C7.6 31.3334 0.666666 24.4 0.666666 16C0.666666 7.6 7.6 0.666666 16 0.666666ZM16 0C7.2 0 0 7.2 0 16C0 24.8 7.2 32 16 32C24.8 32 32 24.8 32 16C32 7.2 24.8 0 16 0Z" fill="#999999"/>
</svg>
