<svg width="32" height="32" viewBox="0 0 32 32" fill="none" xmlns="http://www.w3.org/2000/svg">
<path d="M0 16C0 24.8365 7.16344 32 16 32C24.8365 32 32 24.8365 32 16C32 7.16344 24.8365 0 16 0C7.16344 0 0 7.16344 0 16Z" fill="#EFEFEF"/>
<g clip-path="url(#clip0)">
<path d="M30 22.9999H29.6633C28.0955 25.1923 26.0405 26.9764 23.6659 28.2065C21.2914 29.4365 18.6646 30.0777 16 30.0777C13.3354 30.0777 10.7086 29.4365 8.33407 28.2065C5.9595 26.9764 3.90446 25.1923 2.33673 22.9999H2C3.25878 25.6934 5.24215 27.9685 7.72008 29.5615C10.198 31.1544 13.069 31.9999 16 31.9999C18.931 31.9999 21.802 31.1544 24.2799 29.5615C26.7579 27.9685 28.7412 25.6934 30 22.9999Z" fill="url(#paint0_radial)"/>
<path d="M27.0396 24.4983C27.7868 23.6324 28.4652 22.4464 28.6124 21.5969C29.3388 17.6761 25.7996 15.6703 21.6236 14.1742C18.3628 13.0014 15.6716 12.1948 13.3836 11.4658C9.75158 10.3111 9.13558 9.21256 9.16438 8.01998C9.19638 6.63112 10.6188 4.88596 12.2332 3.84679C12.2332 3.84679 9.19318 3.83524 6.10998 6.2072C4.27958 7.61421 3.52598 9.06246 3.26358 10.3919C1.97078 16.9519 14.55 19.5598 19.3692 21.1779C22.0076 22.0637 22.3676 23.2497 22.3452 24.1899C22.294 26.3853 19.2892 28.3581 19.2764 28.3581C21.726 28.3185 25.0364 26.8159 27.0396 24.5016" fill="url(#paint1_linear)"/>
<path style="mix-blend-mode:multiply" opacity="0.7" d="M28.6133 21.5969C29.3397 17.6761 25.8005 15.6703 21.6245 14.1742C18.3637 13.0014 15.6725 12.1948 13.3845 11.4658C9.75248 10.3111 9.13647 9.21258 9.16527 8.02C9.19727 6.63113 10.6197 4.88598 12.2341 3.8468C9.88368 5.33299 9.09168 6.77134 8.88048 7.8468C8.59887 9.30495 9.61168 10.5388 13.0933 11.6604C15.3765 12.3961 18.0693 13.1944 21.3317 14.3672C24.0661 15.3569 26.4197 16.3928 27.6757 18.1099C28.8469 19.7066 28.6133 21.5969 28.6133 21.5969Z" fill="url(#paint2_linear)"/>
<path opacity="0.8" d="M17.8901 13.1959C16.1589 12.6235 15.6693 13.6907 17.6949 14.3753C18.6917 14.7052 19.9957 15.1687 21.0773 15.5299C24.6581 16.7357 27.9236 18.2928 27.3172 22.0718C27.1684 22.8404 27.0709 23.1951 26.4853 24.0099C26.5732 23.8911 28.2196 23.1604 28.4772 21.2718C28.9732 17.6066 25.2773 15.7691 21.3173 14.3604C20.3285 14.0091 19.0101 13.5571 17.8901 13.1959Z" fill="url(#paint3_linear)"/>
<path style="mix-blend-mode:multiply" opacity="0.3" d="M26.4892 24.0149C24.8796 26.3011 21.3596 28.1601 19.2796 28.3547C19.6444 28.1403 22.6188 26.3523 22.9596 24.4768C23.2716 22.7069 22.3756 21.5407 19.6492 20.7341C19.0956 20.5703 18.4934 20.3894 17.8428 20.1914L21.086 15.5333C24.6668 16.7391 27.9324 18.2962 27.326 22.0751C27.1772 22.8438 27.078 23.2001 26.494 24.0149" fill="url(#paint4_linear)"/>
<g style="mix-blend-mode:multiply" opacity="0.7">
<path style="mix-blend-mode:multiply" opacity="0.7" d="M19.6403 20.7341C18.2163 20.3108 16.4638 19.7774 14.3827 19.1341C12.4935 18.5483 10.6405 17.8449 8.83391 17.0277C3.74431 14.7102 3.10111 11.8978 3.23071 10.5782C2.21631 16.998 14.5907 19.5712 19.3699 21.1745C22.0083 22.0603 22.3683 23.2463 22.3459 24.1865C22.2963 26.311 19.4835 28.2261 19.2883 28.3481C19.6915 28.1106 22.6179 26.3358 22.9507 24.4768C23.2627 22.7069 22.3667 21.5407 19.6403 20.7341Z" fill="url(#paint5_linear)"/>
</g>
<path d="M30 8.99994H29.6633C28.0955 6.80754 26.0405 5.02348 23.6659 3.79341C21.2914 2.56334 18.6646 1.92213 16 1.92213C13.3354 1.92213 10.7086 2.56334 8.33407 3.79341C5.9595 5.02348 3.90446 6.80754 2.33673 8.99994H2C3.25878 6.3065 5.24215 4.03137 7.72008 2.43841C10.198 0.84545 13.069 -6.10352e-05 16 -6.10352e-05C18.931 -6.10352e-05 21.802 0.84545 24.2799 2.43841C26.7579 4.03137 28.7412 6.3065 30 8.99994Z" fill="url(#paint6_linear)"/>
</g>
<defs>
<radialGradient id="paint0_radial" cx="0" cy="0" r="1" gradientUnits="userSpaceOnUse" gradientTransform="translate(16 27.5) scale(15.6516 15.9265)">
<stop stop-color="#9DCEEA"/>
<stop offset="0.01" stop-color="#9BCCE9"/>
<stop offset="0.34" stop-color="#679ACA"/>
<stop offset="0.63" stop-color="#4276B4"/>
<stop offset="0.86" stop-color="#2A5FA6"/>
<stop offset="1" stop-color="#2257A1"/>
</radialGradient>
<linearGradient id="paint1_linear" x1="7.67318" y1="11.3717" x2="29.1468" y2="23.1847" gradientUnits="userSpaceOnUse">
<stop stop-color="#7FB8E7"/>
<stop offset="0.13" stop-color="#70ACDE"/>
<stop offset="0.72" stop-color="#2C76B4"/>
<stop offset="1" stop-color="#1261A3"/>
</linearGradient>
<linearGradient id="paint2_linear" x1="25.9589" y1="15.9722" x2="13.2968" y2="8.96726" gradientUnits="userSpaceOnUse">
<stop stop-color="#9DCEEA"/>
<stop offset="1" stop-color="#2257A1"/>
</linearGradient>
<linearGradient id="paint3_linear" x1="23.9728" y1="14.5445" x2="22.464" y2="16.953" gradientUnits="userSpaceOnUse">
<stop offset="0.08" stop-color="white"/>
<stop offset="0.13" stop-color="white" stop-opacity="0.93"/>
<stop offset="0.32" stop-color="white" stop-opacity="0.65"/>
<stop offset="0.5" stop-color="white" stop-opacity="0.42"/>
<stop offset="0.66" stop-color="white" stop-opacity="0.24"/>
<stop offset="0.8" stop-color="white" stop-opacity="0.11"/>
<stop offset="0.92" stop-color="white" stop-opacity="0.03"/>
<stop offset="1" stop-color="white" stop-opacity="0"/>
</linearGradient>
<linearGradient id="paint4_linear" x1="18.062" y1="19.4376" x2="25.5618" y2="25.2274" gradientUnits="userSpaceOnUse">
<stop stop-color="white"/>
<stop offset="1" stop-color="#0E69B1"/>
</linearGradient>
<linearGradient id="paint5_linear" x1="148.386" y1="2107.6" x2="2608.1" y2="2107.6" gradientUnits="userSpaceOnUse">
<stop stop-color="#9DCEEA"/>
<stop offset="1" stop-color="#2257A1"/>
</linearGradient>
<linearGradient id="paint6_linear" x1="14.8695" y1="-0.25801" x2="18.8239" y2="31.0299" gradientUnits="userSpaceOnUse">
<stop stop-color="#9DCEEA"/>
<stop offset="0.05" stop-color="#87B9DD"/>
<stop offset="0.15" stop-color="#689BCB"/>
<stop offset="0.25" stop-color="#4E82BB"/>
<stop offset="0.37" stop-color="#3B6FB0"/>
<stop offset="0.5" stop-color="#2D61A7"/>
<stop offset="0.66" stop-color="#2459A2"/>
<stop offset="0.94" stop-color="#2257A1"/>
</linearGradient>
<clipPath id="clip0">
<rect width="28" height="32" fill="white" transform="translate(2)"/>
</clipPath>
</defs>
</svg>
