<svg width="32" height="32" viewBox="0 0 32 32" fill="none" xmlns="http://www.w3.org/2000/svg">
<path d="M0 16C0 24.8365 7.16344 32 16 32C24.8365 32 32 24.8365 32 16C32 7.16344 24.8365 0 16 0C7.16344 0 0 7.16344 0 16Z" fill="white"/>
<path d="M16 0.666666C24.4 0.666666 31.3334 7.6 31.3334 16C31.3334 24.4 24.4 31.3334 16 31.3334C7.6 31.3334 0.666666 24.4 0.666666 16C0.666666 7.6 7.6 0.666666 16 0.666666ZM16 0C7.2 0 0 7.2 0 16C0 24.8 7.2 32 16 32C24.8 32 32 24.8 32 16C32 7.2 24.8 0 16 0Z" fill="#999999"/>
<path d="M15.0068 13.4043L16.4995 14.897L15.0248 16.3717L13.5321 14.879L15.0068 13.4043Z" fill="#5B7BAA"/>
<path d="M22.0201 15.7717C21.994 15.1629 21.9702 14.4684 21.9545 13.9931C21.9392 13.5225 21.7465 13.0788 21.4119 12.7442L20.9978 12.3301C21.8464 11.1902 21.7466 9.55816 20.7036 8.51512L17.9546 5.76613C17.3188 5.13036 16.2643 5.15069 15.6039 5.81113L7.86441 13.5506C7.20397 14.2111 7.18364 15.2656 7.8194 15.9013L14.121 22.2029C14.7567 22.8386 15.8114 22.8185 16.4719 22.1581L21.4878 17.1422C21.8479 16.7821 22.042 16.2827 22.0201 15.7717ZM18.2311 7.23036L20.1097 9.10898C20.8206 9.81983 20.9142 10.9163 20.3878 11.7201L19.5987 10.931C18.6456 9.97789 18.145 8.66335 18.2255 7.32416L18.2311 7.23036ZM15.4602 18.5308C15.4616 18.7642 15.2736 18.9523 15.0401 18.9508C14.9234 18.9501 14.8176 18.9021 14.7406 18.8251C14.6637 18.7482 14.6157 18.6424 14.615 18.5257L14.6068 17.1409L12.762 15.2961L11.3771 15.2877C11.2605 15.2872 11.1547 15.2392 11.0777 15.1622C11.0008 15.0853 10.9528 14.9794 10.9521 14.8628C10.9506 14.6293 11.1387 14.4413 11.3721 14.4427L12.7569 14.4512L14.5797 12.6284L14.5713 11.2435C14.5696 11.0103 14.7577 10.8223 14.9911 10.8237C15.2246 10.8251 15.4149 11.0154 15.416 11.2487L15.4244 12.6335L17.2693 14.4785L18.654 14.4867C18.8875 14.488 19.0778 14.6783 19.0791 14.9118C19.0805 15.1452 18.8925 15.3332 18.6593 15.3316L17.2744 15.3232L15.4517 17.146L15.4602 18.5308Z" fill="#5B7BAA"/>
<path d="M23.6615 15.3696L23.6266 14.4255C23.6177 14.1845 23.4192 13.9924 23.178 13.9913L22.7532 13.991L22.8211 15.829L23.2167 15.8292C23.4693 15.8303 23.6708 15.622 23.6615 15.3696Z" fill="#5B7BAA"/>
<path d="M21.0427 20.2395C21.0659 20.2162 21.0935 20.1977 21.1239 20.1851C21.1543 20.1725 21.1868 20.166 21.2197 20.166C21.2526 20.166 21.2852 20.1725 21.3155 20.1851C21.3459 20.1977 21.3735 20.2162 21.3967 20.2395C21.5272 20.3705 22.1007 20.9645 22.6432 21.741C23.1782 22.5065 23.7197 23.499 23.7197 24.4165C23.7197 25.3065 23.4312 25.999 22.9617 26.469C22.4942 26.9375 21.8652 27.1665 21.2197 27.1665C20.5742 27.1665 19.9452 26.9375 19.4777 26.469C19.0082 25.999 18.7197 25.307 18.7197 24.4165C18.7197 23.499 19.2612 22.5065 19.7962 21.7415C20.1708 21.2082 20.5877 20.7059 21.0427 20.2395Z" fill="#EDCF54"/>
<path d="M23.8247 16.7125C23.8391 16.698 23.8561 16.6866 23.8749 16.6788C23.8937 16.671 23.9139 16.667 23.9342 16.667C23.9546 16.667 23.9748 16.671 23.9936 16.6788C24.0124 16.6866 24.0294 16.698 24.0438 16.7125C24.1246 16.7935 24.4796 17.1612 24.8154 17.6419C25.1466 18.1157 25.4818 18.7301 25.4818 19.2981C25.4818 19.849 25.3032 20.2776 25.0126 20.5686C24.7232 20.8586 24.3338 21.0003 23.9342 21.0003C23.5347 21.0003 23.1453 20.8586 22.8559 20.5686C22.5653 20.2776 22.3867 19.8493 22.3867 19.2981C22.3867 18.7301 22.7219 18.1157 23.0531 17.6422C23.285 17.3121 23.543 17.0012 23.8247 16.7125Z" fill="#EDCF54"/>
</svg>
