<svg width="32" height="32" viewBox="0 0 32 32" fill="none" xmlns="http://www.w3.org/2000/svg">
<path d="M0 16C0 24.8365 7.16344 32 16 32C24.8365 32 32 24.8365 32 16C32 7.16344 24.8365 0 16 0C7.16344 0 0 7.16344 0 16Z" fill="#EFEFEF"/>
<path d="M16 0.666666C24.4 0.666666 31.3334 7.6 31.3334 16C31.3334 24.4 24.4 31.3334 16 31.3334C7.6 31.3334 0.666666 24.4 0.666666 16C0.666666 7.6 7.6 0.666666 16 0.666666ZM16 0C7.2 0 0 7.2 0 16C0 24.8 7.2 32 16 32C24.8 32 32 24.8 32 16C32 7.2 24.8 0 16 0Z" fill="#999999"/>
<path d="M2.00988 12.5901H15.5139L16.9498 14.5281L17.8479 13.2161H19.7178L17.9459 15.9101L19.8659 18.758H17.9059L16.9519 17.3L15.5578 19.402L15.5599 19.41H2.00988V12.5901Z" fill="#002857"/>
<path d="M5.18599 13.2H2.66199V18.7379H5.15999C6.17599 18.7379 7.95999 18.024 7.95999 16C7.95999 13.976 6.32199 13.2 5.18599 13.2ZM4.98599 17.38H4.17199V14.516H4.88799C5.44799 14.516 6.36599 14.812 6.36599 16.006C6.36599 17.2 5.21999 17.38 4.98599 17.38Z" fill="white"/>
<path d="M15.472 13.2H13.58C13.698 13.32 15.528 15.926 15.528 15.926L13.588 18.6501L11.266 13.136H9.83605L7.48001 18.736H9.09601L9.496 17.75H11.612L12.012 18.736H15.35L17.322 15.918L15.472 13.2ZM10.74 16.576H9.90598L10.552 14.976L11.196 16.576H10.74Z" fill="white"/>
<path d="M22.6321 14.412H20.5462V13.2H24.5462V14.31L23.2481 15.412C23.2481 15.412 24.6481 15.694 24.6481 16.988C24.6481 18.2819 23.4102 18.83 22.5161 18.83C20.7161 18.83 20.1862 17.862 20.1862 17.862L21.1161 16.862C21.1161 16.862 21.7622 17.52 22.4182 17.52C23.0742 17.52 23.2001 17.064 23.2001 16.916C23.2001 16.534 22.8001 16.348 22.4262 16.348C22.1577 16.3546 21.8903 16.382 21.6262 16.43L21.3741 15.612L22.6321 14.412Z" fill="#002857"/>
<path d="M27.4259 13.0781C26.0099 13.0781 24.8619 14.3721 24.8619 15.9681C24.8619 17.5641 26.0099 18.8601 27.4259 18.8601C28.8419 18.8601 29.9999 17.5661 29.9999 15.9681C29.9999 14.3702 28.8419 13.0781 27.4259 13.0781ZM27.4259 17.5121C26.8519 17.5121 26.3879 16.8201 26.3879 15.9681C26.3879 15.1161 26.8519 14.4262 27.4259 14.4262C27.9999 14.4262 28.4639 15.1161 28.4639 15.9681C28.4639 16.8201 27.9999 17.5121 27.4259 17.5121Z" fill="#002857"/>
</svg>
