<svg width="32" height="32" viewBox="0 0 32 32" fill="none" xmlns="http://www.w3.org/2000/svg">
<path d="M0 16C0 24.8365 7.16344 32 16 32C24.8365 32 32 24.8365 32 16C32 7.16344 24.8365 0 16 0C7.16344 0 0 7.16344 0 16Z" fill="#352314"/>
<path d="M17.7761 14.3141C17.6327 14.1809 17.4637 14.0782 17.2794 14.0123C17.0951 13.9463 16.8995 13.9183 16.7041 13.9301C16.0581 13.9301 15.5041 13.9681 14.9041 14.2681L14.1581 13.8801V18.7481H15.14V15.0901C15.5 14.8401 15.9601 14.7841 16.4741 14.7841C16.5711 14.7739 16.6692 14.7842 16.7619 14.8145C16.8546 14.8449 16.9399 14.8945 17.012 14.9601C17.1389 15.1254 17.1983 15.3327 17.1781 15.5401V18.7401H18.1521V15.3861C18.163 15.1915 18.1354 14.9966 18.0709 14.8126C18.0064 14.6286 17.9062 14.4592 17.7761 14.3141Z" fill="#C4D92D"/>
<path d="M10.344 17.8097C10.2886 17.7595 10.2453 17.6975 10.2171 17.6282C10.1891 17.559 10.177 17.4842 10.1819 17.4097C10.1797 17.2943 10.2133 17.1812 10.2779 17.0857C10.4417 16.8801 10.6632 16.7283 10.914 16.6497C11.3364 16.4932 11.7741 16.3818 12.22 16.3177V17.7877C11.8632 17.9229 11.4855 17.9947 11.104 17.9996C11.0134 18.0057 10.9225 18.0057 10.832 17.9996C10.654 17.9864 10.4841 17.9202 10.344 17.8097ZM12.8 14.3557C12.53 14.0697 12.1179 13.9237 11.562 13.9257C10.9321 13.9213 10.3072 14.036 9.72 14.2637L9.61996 14.3036L9.84198 15.1036L9.96593 15.0597C10.4504 14.8701 10.9658 14.7724 11.4859 14.7717C11.6838 14.755 11.8803 14.816 12.034 14.9417C12.0999 15.0131 12.1501 15.0974 12.1815 15.1894C12.2128 15.2814 12.2246 15.3789 12.216 15.4757V15.5737C11.148 15.7297 10.416 15.9737 9.93196 16.2796C9.71285 16.405 9.53073 16.5862 9.4043 16.8046C9.27785 17.0232 9.21148 17.2713 9.21196 17.5237C9.20564 17.6896 9.23731 17.8548 9.30455 18.0066C9.3718 18.1584 9.47285 18.2929 9.6 18.3996C9.89101 18.6138 10.239 18.7369 10.6 18.7537C10.7707 18.7709 10.9423 18.7796 11.114 18.7797C11.5849 18.7812 12.0528 18.7034 12.498 18.5497L13.184 18.7996V15.5217C13.2121 15.0979 13.0744 14.6797 12.8 14.3557Z" fill="#C4D92D"/>
<path d="M25.094 17.8097C25.0384 17.7596 24.9947 17.6976 24.9664 17.6284C24.938 17.5592 24.9256 17.4844 24.93 17.4097C24.9304 17.2947 24.9637 17.1822 25.026 17.0857C25.1901 16.8806 25.4115 16.7288 25.662 16.6497C26.0844 16.4934 26.5223 16.382 26.968 16.3177V17.7877C26.6111 17.9224 26.2335 17.9942 25.852 17.9996C25.7614 18.0057 25.6706 18.0057 25.58 17.9996C25.4027 17.986 25.2336 17.9198 25.094 17.8097ZM27.554 14.3557C27.284 14.0697 26.87 13.9237 26.316 13.9257C25.6862 13.9213 25.0613 14.036 24.474 14.2637L24.372 14.3036L24.596 15.1036L24.718 15.0597C25.2024 14.8704 25.7179 14.7727 26.238 14.7717C26.4364 14.7553 26.6335 14.8162 26.788 14.9417C26.8532 15.0135 26.9028 15.098 26.9337 15.1898C26.9648 15.2818 26.9764 15.3791 26.968 15.4757V15.5737C25.902 15.7297 25.168 15.9737 24.686 16.2796C24.4666 16.4047 24.2843 16.5858 24.1578 16.8043C24.0313 17.0229 23.9652 17.2712 23.966 17.5237C23.96 17.6895 23.9918 17.8546 24.059 18.0064C24.1262 18.1582 24.2271 18.2926 24.354 18.3996C24.6428 18.6085 24.9861 18.7287 25.342 18.7457C25.522 18.7637 25.694 18.7717 25.858 18.7717C26.3289 18.7732 26.7969 18.6954 27.242 18.5417L27.934 18.7996V15.5217C27.9633 15.0985 27.8271 14.6804 27.554 14.3557Z" fill="#C4D92D"/>
<path d="M21.7279 13.9719H20.4939L18.4159 16.4L20.4159 18.752H21.6479L19.6479 16.4L21.7279 13.9739" fill="#C4D92D"/>
<path d="M22.304 18.7479H23.276V13.9719H22.304V18.7479Z" fill="#C4D92D"/>
<path d="M6.59997 17.9078C6.06552 17.9779 5.52207 17.909 5.02197 17.7078V13.9999C5.41631 13.8556 5.84341 13.8258 6.25397 13.9139C7.12997 14.1379 6.94597 14.8979 6.22597 15.5978C7.09997 15.6819 7.82597 16.1379 7.82597 16.7978C7.82597 17.4579 7.23597 17.7999 6.59997 17.9078ZM7.51797 15.1779C7.65915 15.0196 7.75806 14.8283 7.80548 14.6216C7.85292 14.4149 7.84734 14.1997 7.78927 13.9957C7.7312 13.7918 7.62253 13.6058 7.47334 13.4551C7.32416 13.3044 7.13931 13.1939 6.93597 13.1338C6.14797 12.8838 4.78597 13.0378 4.05997 13.2559V18.7999L4.92797 18.5439C5.49265 18.7218 6.08481 18.7963 6.67597 18.7638C7.30197 18.7279 7.89797 18.5279 8.20997 18.2159C8.57819 17.8531 8.78993 17.3606 8.79997 16.8438V16.8218C8.80668 16.4446 8.68389 16.0764 8.45206 15.7787C8.22023 15.481 7.89338 15.2718 7.52597 15.1859" fill="#C4D92D"/>
</svg>
