<svg width="32" height="32" viewBox="0 0 32 32" fill="none" xmlns="http://www.w3.org/2000/svg">
<path d="M0 16C0 24.8365 7.16344 32 16 32C24.8365 32 32 24.8365 32 16C32 7.16344 24.8365 0 16 0C7.16344 0 0 7.16344 0 16Z" fill="#00A0C4"/>
<path d="M11.76 26.8401C13.292 27.7592 15.4456 27.0791 16.1096 25.4206C16.306 24.93 16.42 24.4128 16.42 23.8801C16.4 21.9601 14.9 20.38 13.42 19.1601C12.98 18.8001 12.46 18.26 12.68 17.7201C12.8 17.46 13.06 17.3 13.3 17.14C14.48 16.46 15.6 15.66 16.64 14.8001C16.92 14.6001 17.16 14.34 17.34 14.06C17.64 13.54 17.62 12.8801 17.5 12.3C17.3 11.46 17 10.66 16.64 9.88007C16.6327 9.86294 16.6253 9.8459 16.618 9.82877C16.1991 8.85163 13.4361 9.04647 12.86 9.94002C11.88 11.46 10.66 12.78 9.64 14.26C8.61998 15.74 7.71998 17.38 7.59998 19.18C7.55998 20.1 7.63998 21.0001 7.85998 21.9C7.95998 22.4801 8.11998 23.0401 8.35998 23.5601C9.01998 25.02 10.4 26.0001 11.76 26.8401Z" fill="white"/>
<path d="M18.5906 5.25521C19.3329 4.71134 20.3897 4.94517 20.7597 5.7877C20.816 5.91589 20.8721 6.04441 20.9283 6.17313C21.1178 6.60684 20.9758 7.11405 20.6029 7.40551C20.0155 7.86463 19.4638 8.36468 18.933 8.90568C18.9131 8.92589 18.8883 9.01991 18.86 9.01991C18.8025 9.01991 18.7861 8.93423 18.7588 8.88366L17.9767 7.43573C17.596 6.73078 17.7729 5.85635 18.4184 5.38165C18.4757 5.3395 18.5331 5.29735 18.5906 5.25521Z" fill="white"/>
<path d="M19.9199 12.9798C20.1788 11.9962 20.3463 10.5199 21.1449 9.89013L21.6399 9.49983C22.26 9.02294 23.2755 9.78528 23.1985 10.5637C23.1071 11.489 23.1424 12.4391 23.22 13.3798C23.38 15.3199 23.74 16.6598 23.74 20.7599C23.74 24.0782 21.6383 26.1956 19.4355 27.1612C18.5505 27.5491 18.1197 26.4409 18.66 25.6399C19.02 25.0998 19.3199 24.4799 19.34 23.8198C19.3599 22.7999 18.7999 21.5999 18.14 20.8399C17.3999 19.9798 16.86 19.5798 15.98 18.8399C15.74 18.6399 15.32 18.3398 15.18 18.0799C14.8776 17.5507 15.5145 17.041 16.0493 16.7488C16.0795 16.7323 16.1097 16.7159 16.14 16.6998C17.3999 16.0399 17.74 15.7999 18.66 14.8998C19.22 14.3798 19.7199 13.7398 19.9199 12.9798Z" fill="white"/>
</svg>
