<svg width="32" height="32" viewBox="0 0 32 32" fill="none" xmlns="http://www.w3.org/2000/svg">
<path d="M0 16C0 24.8365 7.16344 32 16 32C24.8365 32 32 24.8365 32 16C32 7.16344 24.8365 0 16 0C7.16344 0 0 7.16344 0 16Z" fill="#231F20"/>
<path d="M4.22013 19.0721H4.41013V19.6461H5.14413V19.0721H5.32813V20.4121H5.14413V19.8001H4.41013V20.4121H4.22013V19.0721Z" fill="white"/>
<path d="M8.29406 19.9281C8.29406 20.2661 8.09406 20.4441 7.73806 20.4441C7.38206 20.4441 7.16407 20.2841 7.16407 19.9281V19.0721H7.36407V19.9281C7.35951 19.9789 7.36637 20.0301 7.38414 20.0778C7.40191 20.1256 7.43014 20.1688 7.46676 20.2043C7.50338 20.2398 7.54746 20.2666 7.59578 20.2828C7.64411 20.2991 7.69545 20.3042 7.74606 20.2981C7.79596 20.3035 7.84644 20.2976 7.89377 20.2809C7.9411 20.2642 7.98408 20.2371 8.01958 20.2016C8.05507 20.1662 8.08216 20.1232 8.09885 20.0758C8.11555 20.0285 8.12143 19.978 8.11607 19.9281V19.0721H8.30206L8.29406 19.9281Z" fill="white"/>
<path d="M10.6 20.4497C10.5097 20.4532 10.4199 20.4379 10.3359 20.4047C10.2519 20.3715 10.1757 20.3214 10.1122 20.2573C10.0487 20.1931 9.99906 20.1165 9.96668 20.0322C9.93431 19.948 9.91972 19.8579 9.92395 19.7678C9.92395 19.3678 10.148 19.0417 10.594 19.0417C10.9 19.0417 11.1419 19.1678 11.194 19.4878H11.01C10.9907 19.396 10.9382 19.3146 10.8625 19.2592C10.7868 19.2038 10.6933 19.1784 10.6 19.1878C10.256 19.1878 10.114 19.4737 10.114 19.7617C10.1089 19.8322 10.1187 19.9029 10.1426 19.9694C10.1665 20.0358 10.204 20.0965 10.2529 20.1475C10.3016 20.1986 10.3606 20.2389 10.4259 20.2657C10.4912 20.2927 10.5614 20.3057 10.632 20.3038C10.7034 20.3125 10.776 20.3029 10.8428 20.276C10.9096 20.2491 10.9685 20.2056 11.0139 20.1498C11.0534 20.0577 11.0646 19.9561 11.0459 19.8577H10.6V19.7038H11.212V20.1998C11.1372 20.2872 11.0427 20.3554 10.9363 20.3989C10.8298 20.4424 10.7145 20.4598 10.6 20.4497Z" fill="white"/>
<path d="M13.502 20.2977C13.6364 20.2796 13.7597 20.2135 13.8489 20.1114C13.9382 20.0093 13.9874 19.8783 13.9874 19.7427C13.9874 19.6072 13.9382 19.4762 13.8489 19.3741C13.7597 19.272 13.6364 19.2059 13.502 19.1878C13.3677 19.2059 13.2444 19.272 13.1552 19.3741C13.0659 19.4762 13.0168 19.6072 13.0168 19.7427C13.0168 19.8783 13.0659 20.0093 13.1552 20.1114C13.2444 20.2135 13.3677 20.2796 13.502 20.2977ZM13.502 19.0417C13.6423 19.0349 13.7813 19.0703 13.9011 19.1433C14.021 19.2163 14.1162 19.3235 14.1746 19.4511C14.2328 19.5788 14.2516 19.721 14.2283 19.8594C14.2051 19.9978 14.1408 20.126 14.044 20.2276C13.947 20.3291 13.8219 20.3993 13.6848 20.429C13.5476 20.4587 13.4047 20.4467 13.2744 20.3944C13.1442 20.342 13.0327 20.252 12.9542 20.1356C12.8757 20.0193 12.8338 19.8821 12.8341 19.7418C12.8273 19.6508 12.8397 19.5595 12.8705 19.4736C12.9012 19.3878 12.9496 19.3094 13.0126 19.2434C13.0755 19.1774 13.1516 19.1254 13.236 19.0907C13.3203 19.0559 13.4109 19.0393 13.502 19.0417Z" fill="white"/>
<path d="M17.928 19.6461H18.298C18.508 19.6461 18.5979 19.5761 18.5979 19.4461C18.5979 19.2621 18.464 19.2301 18.298 19.2301H17.928V19.6461ZM17.928 20.2662H18.4C18.4337 20.2696 18.4678 20.2658 18.4999 20.255C18.532 20.2441 18.5615 20.2266 18.5863 20.2035C18.6111 20.1804 18.6307 20.1523 18.6437 20.121C18.6568 20.0897 18.663 20.056 18.6619 20.0221C18.6619 19.8502 18.516 19.8001 18.356 19.8001H17.936L17.928 20.2662ZM17.7419 19.0662H18.2459C18.3711 19.0556 18.4971 19.0713 18.616 19.1121C18.6663 19.1395 18.7082 19.18 18.7375 19.2293C18.7667 19.2786 18.7821 19.3348 18.7819 19.3921C18.785 19.4577 18.7673 19.5225 18.7315 19.5775C18.6955 19.6324 18.6432 19.6746 18.5819 19.6982C18.6591 19.7095 18.7293 19.7491 18.7789 19.8094C18.8284 19.8697 18.8537 19.9462 18.85 20.0241C18.8477 20.0776 18.8347 20.13 18.8119 20.1784C18.7889 20.2266 18.7566 20.2699 18.7167 20.3055C18.6768 20.3412 18.6301 20.3684 18.5795 20.3857C18.5288 20.403 18.4753 20.4099 18.4219 20.4061H17.7419V19.0662Z" fill="white"/>
<path d="M21.1858 20.2976C21.2987 20.3132 21.4136 20.2938 21.5153 20.2422C21.6168 20.1906 21.7003 20.1093 21.7545 20.009C21.8087 19.9087 21.831 19.7944 21.8184 19.6811C21.8058 19.5678 21.7591 19.4611 21.6842 19.3752C21.6094 19.2892 21.5101 19.2281 21.3997 19.2C21.2892 19.172 21.1729 19.1783 21.0661 19.2182C20.9593 19.258 20.8672 19.3294 20.8022 19.423C20.737 19.5165 20.702 19.6277 20.7018 19.7417C20.6937 19.8106 20.7001 19.8805 20.7207 19.9468C20.7411 20.0131 20.7752 20.0744 20.8208 20.1267C20.8664 20.1791 20.9224 20.2213 20.9852 20.2508C21.0481 20.2802 21.1164 20.2962 21.1858 20.2976ZM21.1858 19.0416C21.3259 19.0352 21.4648 19.071 21.5844 19.1442C21.704 19.2174 21.799 19.3248 21.8569 19.4525C21.915 19.5803 21.9334 19.7224 21.9098 19.8606C21.8864 19.999 21.8219 20.127 21.725 20.2284C21.628 20.3296 21.5029 20.3996 21.3657 20.4292C21.2286 20.4588 21.0858 20.4465 20.9557 20.3942C20.8256 20.3418 20.7142 20.2516 20.6358 20.1354C20.5574 20.019 20.5156 19.8819 20.5159 19.7417C20.51 19.6508 20.5231 19.5596 20.5543 19.4741C20.5855 19.3885 20.6342 19.3103 20.6971 19.2445C20.7601 19.1788 20.836 19.1267 20.9202 19.0918C21.0043 19.0569 21.0948 19.0398 21.1858 19.0416Z" fill="white"/>
<path d="M24.4319 19.4679C24.4293 19.4261 24.4181 19.3854 24.3989 19.3482C24.3797 19.311 24.3529 19.2782 24.3205 19.2518C24.2879 19.2256 24.2503 19.2063 24.2099 19.1953C24.1695 19.1843 24.1272 19.1817 24.0859 19.1879C23.9279 19.1879 23.7739 19.2459 23.7739 19.4179C23.7739 19.5899 23.9979 19.6179 24.2199 19.6599C24.4419 19.7019 24.6659 19.7799 24.6659 20.048C24.6659 20.3159 24.3739 20.448 24.1179 20.448C23.8059 20.448 23.5439 20.3019 23.5439 19.976H23.7159C23.7159 20.2 23.9159 20.3019 24.1159 20.3019C24.2899 20.3019 24.4739 20.2499 24.4739 20.0519C24.4739 19.8539 24.2499 19.8519 24.0279 19.792C23.8059 19.7319 23.5759 19.6819 23.5759 19.4339C23.5759 19.1859 23.8299 19.0459 24.0859 19.0459C24.3719 19.0459 24.5879 19.1719 24.6019 19.472L24.4319 19.4679Z" fill="white"/>
<path d="M27.4539 19.4678C27.4504 19.4258 27.4381 19.3851 27.4183 19.348C27.3983 19.311 27.3711 19.2784 27.3382 19.2522C27.3052 19.2259 27.2673 19.2067 27.2266 19.1956C27.1861 19.1846 27.1436 19.1819 27.1019 19.1878C26.9499 19.1878 26.7899 19.2458 26.7899 19.4177C26.7899 19.5898 27.0139 19.6177 27.242 19.6598C27.4699 19.7018 27.69 19.7798 27.69 20.0478C27.69 20.3158 27.396 20.4478 27.14 20.4478C26.828 20.4478 26.56 20.3018 26.56 19.9758H26.74C26.74 20.1998 26.94 20.3018 27.14 20.3018C27.304 20.3018 27.496 20.2497 27.496 20.0518C27.496 19.8538 27.266 19.8518 27.044 19.7918C26.8219 19.7318 26.6 19.6778 26.6 19.4298C26.6 19.1818 26.848 19.0417 27.1099 19.0417C27.372 19.0417 27.6139 19.1678 27.62 19.4678H27.4539Z" fill="white"/>
<path d="M5.86399 12.0001V14.4001H6.73799C6.7785 14.397 6.81865 14.3903 6.85799 14.3801C7.36799 14.3361 7.69399 13.7241 7.72599 13.2781C7.77599 12.8001 7.48399 12.0081 6.74999 11.9901C6.53399 12.0001 5.86399 12.0001 5.86399 12.0001ZM5.86399 14.69V17.5741H6.66399C6.9721 17.5789 7.27215 17.4755 7.51199 17.282C7.70894 17.124 7.86306 16.9191 7.96021 16.686C8.05735 16.453 8.09441 16.1992 8.06799 15.9481C8.04411 15.6263 7.90744 15.3234 7.68207 15.0925C7.45669 14.8616 7.15707 14.7177 6.83599 14.6861L5.86399 14.69ZM7.72599 11.7201C8.13689 11.7388 8.53062 11.8904 8.84799 12.1521C9.00567 12.3116 9.12058 12.5083 9.18212 12.724C9.24364 12.9396 9.24979 13.1674 9.19999 13.386C9.08998 14.1441 8.14799 14.4641 8.14799 14.4641C8.4785 14.4834 8.79466 14.6058 9.05213 14.814C9.3096 15.0222 9.49543 15.3057 9.58372 15.6248C9.67191 15.9439 9.65807 16.2826 9.544 16.5935C9.43002 16.9042 9.22161 17.1716 8.94799 17.3581C8.44224 17.6905 7.8512 17.8697 7.24599 17.874H3.87399V17.6001C4.30799 17.6001 4.35999 17.6001 4.35999 17.434C4.35999 16.7841 4.35999 12.2441 4.35999 12.1241C4.35999 12.0041 4.28999 11.9761 3.87399 11.9761C3.8689 11.8875 3.8689 11.7986 3.87399 11.7101L7.72599 11.7201Z" fill="white"/>
<path d="M12.9419 12.046C12.5199 12.328 12.228 12.972 12.0879 13.506C11.8639 14.306 11.908 15.272 12.132 16.254C12.356 17.236 12.9919 17.58 13.3679 17.654C13.6376 17.7129 13.919 17.6838 14.1708 17.5711C14.4228 17.4586 14.632 17.2682 14.7679 17.028C15.252 16.296 15.3679 14.784 15.22 13.918C15.0799 13.118 14.8639 12.554 14.442 12.176C14.2359 12.0022 13.9811 11.8964 13.7126 11.8731C13.444 11.8498 13.1748 11.9102 12.9419 12.046ZM16.722 15.86C16.5928 16.2444 16.3888 16.5994 16.1217 16.9046C15.8547 17.2097 15.5298 17.459 15.1659 17.638C14.2799 18.116 13.012 18.194 12.1259 17.664C11.578 17.338 10.18 16.464 10.3659 14.424C10.4199 13.9418 10.582 13.478 10.8404 13.0672C11.0987 12.6564 11.4466 12.3094 11.858 12.052C12.3303 11.7567 12.8693 11.5851 13.4254 11.5529C13.9815 11.5208 14.5368 11.6291 15.0399 11.868C16.7999 12.672 17.1679 14.654 16.722 15.86Z" fill="white"/>
<path d="M21.8939 12.0002C21.8939 12.4602 21.8939 13.4102 21.8939 13.4102H21.6699C21.5359 12.8102 21.2499 12.3062 20.7579 12.0702C20.2659 11.8342 19.5719 11.7262 19.1079 12.1342C18.9904 12.2199 18.9051 12.3426 18.8656 12.4825C18.8261 12.6226 18.8346 12.7716 18.8899 12.9062C19.0559 13.3202 19.5159 13.4482 19.8719 13.6082C20.1659 13.7222 20.7899 13.9262 20.7899 13.9262C21.4859 14.1682 22.2559 14.6401 22.4679 15.4241C22.5588 15.773 22.565 16.1385 22.4859 16.4902C22.3139 17.2542 21.8239 17.4401 21.5419 17.6302C21.4019 17.7262 20.0879 18.2302 18.5079 17.7142L17.7999 17.4862V15.7702H18.0419C18.1474 16.0995 18.2932 16.4145 18.4759 16.7082C18.6955 17.0562 19.0207 17.325 19.4039 17.4754C19.7869 17.6258 20.2081 17.6499 20.6059 17.5441C20.7842 17.5139 20.9517 17.438 21.0919 17.3237C21.2321 17.2095 21.3403 17.0608 21.4059 16.8922C21.5279 16.5041 21.4899 15.8602 20.3159 15.4262C19.4639 15.0442 18.3999 14.8842 17.8959 13.9402C17.6959 13.4122 17.7559 12.4922 18.4059 12.0462C19.0083 11.6297 19.7513 11.4693 20.4719 11.6002C20.9652 11.6515 21.4461 11.7869 21.8939 12.0002Z" fill="white"/>
<path d="M27.4779 11.9998C27.4779 12.4597 27.4779 13.4097 27.4779 13.4097H27.2559C27.1219 12.8097 26.8339 12.3057 26.3439 12.0697C25.8539 11.8337 25.1579 11.7257 24.6919 12.1337C24.5751 12.22 24.4904 12.3427 24.4512 12.4826C24.4121 12.6224 24.4208 12.7713 24.4759 12.9057C24.6419 13.3198 25.0999 13.4478 25.4579 13.6078C25.7499 13.7217 26.3759 13.9257 26.3759 13.9257C27.0699 14.1678 27.8419 14.6398 28.0519 15.4238C28.1445 15.7722 28.1513 16.138 28.0719 16.4897C27.8999 17.2537 27.4079 17.4398 27.1279 17.6297C26.9879 17.7257 25.6739 18.2297 24.0939 17.7137L23.3999 17.4857V15.7697H23.6419C23.7465 16.0993 23.8924 16.4145 24.0759 16.7077C24.2944 17.0557 24.6182 17.3249 25.0001 17.4764C25.382 17.6277 25.8024 17.6535 26.1999 17.5497C26.5299 17.4718 26.8939 17.2437 26.9899 16.8977C27.1099 16.5097 27.0719 15.8657 25.8999 15.4318C25.0519 15.0437 23.9859 14.8837 23.4839 13.9397C23.2839 13.4117 23.3419 12.4917 23.9999 12.0457C24.2953 11.84 24.6285 11.6946 24.9803 11.6181C25.3321 11.5416 25.6956 11.5353 26.0499 11.5998C26.5454 11.6497 27.0285 11.7851 27.4779 11.9998Z" fill="white"/>
</svg>
