<svg width="32" height="32" viewBox="0 0 32 32" fill="none" xmlns="http://www.w3.org/2000/svg">
<path d="M0 16C0 24.8365 7.16344 32 16 32C24.8365 32 32 24.8365 32 16C32 7.16344 24.8365 0 16 0C7.16344 0 0 7.16344 0 16Z" fill="#EFEFEF"/>
<path d="M16 0.666666C24.4 0.666666 31.3334 7.6 31.3334 16C31.3334 24.4 24.4 31.3334 16 31.3334C7.6 31.3334 0.666666 24.4 0.666666 16C0.666666 7.6 7.6 0.666666 16 0.666666ZM16 0C7.2 0 0 7.2 0 16C0 24.8 7.2 32 16 32C24.8 32 32 24.8 32 16C32 7.2 24.8 0 16 0Z" fill="#999999"/>
<path d="M6.75001 16.7998C6.56856 17.052 6.30645 17.2347 6.00706 17.3176C5.70767 17.4005 5.38893 17.3788 5.10357 17.256C4.81822 17.1331 4.58334 16.9166 4.4378 16.6421C4.29226 16.3677 4.24478 16.0517 4.30321 15.7466C4.36163 15.4415 4.52247 15.1654 4.75911 14.9641C4.99576 14.7629 5.29403 14.6483 5.60457 14.6397C5.91512 14.6309 6.21934 14.7285 6.4669 14.9162C6.71447 15.1039 6.89056 15.3704 6.96601 15.6718H7.55401C7.47792 15.2336 7.2534 14.8348 6.91811 14.5426C6.58283 14.2502 6.1572 14.0821 5.71266 14.0665C5.26813 14.0509 4.83174 14.1887 4.47677 14.4567C4.12178 14.7248 3.86981 15.1067 3.76313 15.5385C3.65646 15.9704 3.70158 16.4258 3.89092 16.8283C4.08026 17.2307 4.4023 17.5559 4.80298 17.749C5.20366 17.9422 5.65858 17.9917 6.09141 17.8891C6.52423 17.7865 6.90861 17.5382 7.18001 17.1858L6.75001 16.7998Z" fill="url(#paint0_linear)"/>
<path d="M7.55407 15.6677H5.54607V16.2377H7.55407V15.6677Z" fill="#B1AFA7"/>
<path d="M19.7221 16.7998C19.5402 17.0511 19.2782 17.2328 18.9791 17.3149C18.6801 17.397 18.362 17.3746 18.0774 17.2514C17.7927 17.1282 17.5588 16.9115 17.414 16.6372C17.2693 16.363 17.2224 16.0475 17.2813 15.743C17.3401 15.4386 17.5011 15.1633 17.7377 14.9627C17.9742 14.7621 18.2721 14.6482 18.582 14.64C18.892 14.6317 19.1957 14.7294 19.4425 14.917C19.6895 15.1046 19.8649 15.3709 19.94 15.6718H20.528C20.452 15.2336 20.2274 14.8348 19.8921 14.5426C19.5569 14.2502 19.1312 14.0821 18.6867 14.0665C18.2422 14.0509 17.8057 14.1887 17.4508 14.4567C17.0958 14.7248 16.8439 15.1067 16.7371 15.5385C16.6305 15.9704 16.6756 16.4258 16.8649 16.8283C17.0543 17.2307 17.3763 17.5559 17.777 17.749C18.1777 17.9422 18.6327 17.9917 19.0654 17.8891C19.4983 17.7865 19.8826 17.5382 20.1541 17.1858L19.7221 16.7998Z" fill="url(#paint1_linear)"/>
<path d="M20.528 15.6677H18.52V16.2377H20.528V15.6677Z" fill="#B1AFA7"/>
<path d="M8.15004 14.2314V16.2394H8.72004V14.2314H8.15004Z" fill="#B1AFA7"/>
<path d="M11.052 15.8556V17.8736H11.63V15.8556H11.052Z" fill="#B1AFA7"/>
<path d="M15.528 15.8556V17.8736H16.1061V15.8556H15.528Z" fill="#B1AFA7"/>
<path d="M14.9221 17.1296C14.6979 17.2818 14.4329 17.3626 14.1621 17.3616C13.9786 17.3686 13.7958 17.3385 13.6243 17.2732C13.4527 17.2079 13.2962 17.1086 13.164 16.9813C13.0317 16.8541 12.9266 16.7014 12.8547 16.5326C12.7829 16.3637 12.7458 16.1821 12.7458 15.9986C12.7458 15.815 12.7829 15.6334 12.8547 15.4645C12.9266 15.2957 13.0317 15.143 13.164 15.0158C13.2962 14.8885 13.4527 14.7892 13.6243 14.7239C13.7958 14.6586 13.9786 14.6286 14.1621 14.6355C14.4711 14.6349 14.772 14.7354 15.0186 14.9218C15.2653 15.1081 15.4442 15.37 15.528 15.6675H16.1061C16.0186 15.2164 15.7767 14.8099 15.4218 14.5179C15.067 14.2259 14.6215 14.0666 14.1621 14.0675C13.8579 14.0655 13.5575 14.135 13.2851 14.2705C13.0128 14.4058 12.7761 14.6035 12.5942 14.8472C12.4122 15.091 12.2902 15.3741 12.2378 15.6737C12.1855 15.9733 12.2043 16.2811 12.2928 16.5721C12.3814 16.8631 12.537 17.1292 12.7474 17.349C12.9576 17.5687 13.2167 17.7359 13.5036 17.8371C13.7904 17.9382 14.097 17.9705 14.3987 17.9314C14.7003 17.8922 14.9885 17.7827 15.24 17.6115L14.9221 17.1296Z" fill="url(#paint2_linear)"/>
<path d="M15.528 12.7777V15.8557H16.1061V12.7777H15.528Z" fill="url(#paint3_linear)"/>
<path d="M8.72 14.6158C8.88914 14.44 9.09197 14.3003 9.31637 14.2048C9.54079 14.1092 9.78211 14.0599 10.026 14.0598C11.342 14.0598 11.626 15.2978 11.626 15.8598H11.052C11.052 15.8598 11.064 14.6338 10.012 14.6338C8.96001 14.6338 8.72 15.7778 8.72 15.7778V14.6158Z" fill="url(#paint4_linear)"/>
<path d="M21.4981 15.9054L21.6981 15.3054C21.7356 15.1143 21.8378 14.942 21.9875 14.8172C22.1371 14.6926 22.3252 14.6233 22.5199 14.621C22.7147 14.6187 22.9043 14.6834 23.0569 14.8044C23.2096 14.9254 23.316 15.0953 23.358 15.2854L23.9121 15.1634C23.8762 14.9776 23.8035 14.8009 23.6983 14.6437C23.5929 14.4865 23.4572 14.352 23.2991 14.2481C23.1409 14.1442 22.9636 14.0732 22.7775 14.0389C22.5913 14.0047 22.4003 14.0082 22.2156 14.0492C22.0309 14.09 21.8562 14.1676 21.7019 14.2771C21.5477 14.3867 21.4169 14.526 21.3174 14.6869C21.2179 14.8478 21.1516 15.027 21.1225 15.214C21.0935 15.401 21.1021 15.5918 21.1481 15.7755L21.4981 15.9054Z" fill="url(#paint5_linear)"/>
<path d="M23.5701 16.0919L23.3701 16.6919C23.3322 16.883 23.2298 17.0552 23.08 17.1796C22.9302 17.3041 22.7421 17.3731 22.5473 17.3753C22.3526 17.3774 22.163 17.3124 22.0105 17.1912C21.8581 17.0701 21.7519 16.9001 21.71 16.7099L21.1561 16.8319C21.23 17.1739 21.428 17.4764 21.7117 17.681C21.9955 17.8857 22.345 17.978 22.6929 17.9403C23.0408 17.9026 23.3623 17.7373 23.5955 17.4765C23.8288 17.2157 23.9572 16.8778 23.9561 16.5279C23.956 16.4249 23.9446 16.3223 23.9221 16.2219L23.5701 16.0919Z" fill="url(#paint6_linear)"/>
<path d="M21.678 15.3677L23.5701 16.0917L23.3941 16.6157L21.4981 15.9057L21.678 15.3677Z" fill="#B1AFA7"/>
<path d="M27.2139 17.1178C26.9636 17.2913 26.6622 17.376 26.358 17.3581C26.0538 17.3402 25.7644 17.2208 25.5361 17.0191C25.3078 16.8174 25.1537 16.5448 25.0985 16.2452C25.0433 15.9456 25.0902 15.636 25.2316 15.3662C25.3731 15.0962 25.6009 14.8816 25.8788 14.7566C26.1566 14.6315 26.4683 14.6032 26.7642 14.6761C27.06 14.7491 27.3228 14.9191 27.5106 15.1591C27.6984 15.3991 27.8003 15.6951 27.8 15.9998H27.9819V14.8278C27.7515 14.5264 27.4377 14.2994 27.0795 14.1748C26.7213 14.0501 26.3344 14.0334 25.9667 14.1264C25.599 14.2196 25.2667 14.4186 25.011 14.6988C24.7554 14.979 24.5876 15.328 24.5284 15.7026C24.4692 16.0773 24.5212 16.4611 24.678 16.8064C24.8348 17.1519 25.0896 17.4435 25.4106 17.6455C25.7317 17.8475 26.1049 17.9508 26.4841 17.9427C26.8633 17.9345 27.2319 17.8153 27.544 17.5998L27.2139 17.1178Z" fill="url(#paint7_linear)"/>
<path d="M28.296 14.1438H27.8V15.8558H28.296V14.1438Z" fill="url(#paint8_linear)"/>
<path d="M27.8 15.8556V17.8736H28.296V15.8556H27.8Z" fill="#B1AFA7"/>
<defs>
<linearGradient id="paint0_linear" x1="5.63001" y1="17.9378" x2="5.63001" y2="14.0598" gradientUnits="userSpaceOnUse">
<stop offset="0.02" stop-color="#86CCEE"/>
<stop offset="0.5" stop-color="#60A2D8"/>
<stop offset="0.56" stop-color="#5997D0"/>
<stop offset="0.7" stop-color="#4D84C3"/>
<stop offset="0.85" stop-color="#4679BC"/>
<stop offset="1" stop-color="#4475B9"/>
</linearGradient>
<linearGradient id="paint1_linear" x1="374.531" y1="361.704" x2="374.531" y2="286.549" gradientUnits="userSpaceOnUse">
<stop offset="0.02" stop-color="#86CCEE"/>
<stop offset="0.5" stop-color="#60A2D8"/>
<stop offset="0.56" stop-color="#5997D0"/>
<stop offset="0.7" stop-color="#4D84C3"/>
<stop offset="0.85" stop-color="#4679BC"/>
<stop offset="1" stop-color="#4475B9"/>
</linearGradient>
<linearGradient id="paint2_linear" x1="288.206" y1="362.065" x2="288.206" y2="286.832" gradientUnits="userSpaceOnUse">
<stop offset="0.02" stop-color="#86CCEE"/>
<stop offset="0.5" stop-color="#60A2D8"/>
<stop offset="0.56" stop-color="#5997D0"/>
<stop offset="0.7" stop-color="#4D84C3"/>
<stop offset="0.85" stop-color="#4679BC"/>
<stop offset="1" stop-color="#4475B9"/>
</linearGradient>
<linearGradient id="paint3_linear" x1="15.816" y1="15.8557" x2="15.816" y2="12.7777" gradientUnits="userSpaceOnUse">
<stop stop-color="#4475B9"/>
<stop offset="0.5" stop-color="#60A2D8"/>
<stop offset="0.55" stop-color="#67AADC"/>
<stop offset="0.69" stop-color="#78BDE6"/>
<stop offset="0.84" stop-color="#83C8EC"/>
<stop offset="1" stop-color="#86CCEE"/>
</linearGradient>
<linearGradient id="paint4_linear" x1="135.421" y1="148.681" x2="177.704" y2="148.681" gradientUnits="userSpaceOnUse">
<stop stop-color="#4475B9"/>
<stop offset="0.5" stop-color="#60A2D8"/>
<stop offset="0.55" stop-color="#67AADC"/>
<stop offset="0.69" stop-color="#78BDE6"/>
<stop offset="0.84" stop-color="#83C8EC"/>
<stop offset="1" stop-color="#86CCEE"/>
</linearGradient>
<linearGradient id="paint5_linear" x1="337.018" y1="164.309" x2="337.018" y2="146.866" gradientUnits="userSpaceOnUse">
<stop offset="0.02" stop-color="#86CCEE"/>
<stop offset="0.5" stop-color="#60A2D8"/>
<stop offset="0.56" stop-color="#5997D0"/>
<stop offset="0.7" stop-color="#4D84C3"/>
<stop offset="0.85" stop-color="#4679BC"/>
<stop offset="1" stop-color="#4475B9"/>
</linearGradient>
<linearGradient id="paint6_linear" x1="-4711.33" y1="-5832.32" x2="-4711.33" y2="-5815.18" gradientUnits="userSpaceOnUse">
<stop offset="0.02" stop-color="#86CCEE"/>
<stop offset="0.5" stop-color="#60A2D8"/>
<stop offset="0.56" stop-color="#5997D0"/>
<stop offset="0.7" stop-color="#4D84C3"/>
<stop offset="0.85" stop-color="#4679BC"/>
<stop offset="1" stop-color="#4475B9"/>
</linearGradient>
<linearGradient id="paint7_linear" x1="480.736" y1="361.705" x2="480.736" y2="286.55" gradientUnits="userSpaceOnUse">
<stop offset="0.02" stop-color="#86CCEE"/>
<stop offset="0.5" stop-color="#60A2D8"/>
<stop offset="0.56" stop-color="#5997D0"/>
<stop offset="0.7" stop-color="#4D84C3"/>
<stop offset="0.85" stop-color="#4679BC"/>
<stop offset="1" stop-color="#4475B9"/>
</linearGradient>
<linearGradient id="paint8_linear" x1="97.3588" y1="135.217" x2="97.3588" y2="149.871" gradientUnits="userSpaceOnUse">
<stop offset="0.02" stop-color="#86CCEE"/>
<stop offset="0.5" stop-color="#60A2D8"/>
<stop offset="0.56" stop-color="#5997D0"/>
<stop offset="0.7" stop-color="#4D84C3"/>
<stop offset="0.85" stop-color="#4679BC"/>
<stop offset="1" stop-color="#4475B9"/>
</linearGradient>
</defs>
</svg>
