<svg width="32" height="32" viewBox="0 0 32 32" fill="none" xmlns="http://www.w3.org/2000/svg">
<path d="M0 16C0 24.8365 7.16344 32 16 32C24.8365 32 32 24.8365 32 16C32 7.16344 24.8365 0 16 0C7.16344 0 0 7.16344 0 16Z" fill="#EFEFEF"/>
<path d="M16 0.666666C24.4 0.666666 31.3334 7.6 31.3334 16C31.3334 24.4 24.4 31.3334 16 31.3334C7.6 31.3334 0.666666 24.4 0.666666 16C0.666666 7.6 7.6 0.666666 16 0.666666ZM16 0C7.2 0 0 7.2 0 16C0 24.8 7.2 32 16 32C24.8 32 32 24.8 32 16C32 7.2 24.8 0 16 0Z" fill="#999999"/>
<path d="M3.8721 14.2281C3.2041 14.2281 3.1861 14.2701 3.2181 14.4681H3.4401C3.6501 14.4681 3.6961 14.496 3.6961 14.6681V16.8681C3.6961 17.1801 3.6081 17.2121 3.1101 17.24C3.09643 17.2993 3.09643 17.3609 3.1101 17.4201H4.8541C6.1821 17.4201 6.7301 16.7801 6.7301 15.8201C6.7301 14.8201 6.1481 14.2201 4.8121 14.2201L3.8721 14.2281ZM4.2721 16.8281V14.5021H4.7501C5.6421 14.5021 6.1061 15.0201 6.1061 15.9021C6.1061 16.9021 5.6001 17.1561 4.8061 17.1561C4.3741 17.1561 4.2721 17.1101 4.2721 16.8281ZM8.7881 14.2601C8.5701 14.2601 8.5101 14.3341 8.3561 14.6921L7.4361 16.8681C7.3121 17.1661 7.2701 17.192 6.9121 17.24C6.89842 17.2993 6.89842 17.3609 6.9121 17.4201H8.2401C8.3561 17.4201 8.3881 17.3461 8.3561 17.2201H7.9561C7.7021 17.2201 7.7021 17.1501 7.8081 16.8761L8.0081 16.3701H9.2081L9.50014 17.0701C9.5521 17.192 9.50014 17.2341 8.9941 17.248C8.98012 17.3079 8.98012 17.3702 8.9941 17.4301H10.4981C10.6201 17.4301 10.6481 17.3541 10.6201 17.2301H10.5141C10.2761 17.2301 10.2261 17.1901 10.1741 17.0681L9.0901 14.6C9.033 14.4927 8.9919 14.3775 8.9681 14.2581L8.7881 14.2601ZM8.5881 14.9001L9.0941 16.1001H8.0941L8.5881 14.9001ZM11.1181 14.32C10.9181 14.32 10.8941 14.408 10.9181 14.52H11.1401C11.3541 14.52 11.3961 14.5481 11.3961 14.72V16.9421C11.3961 17.1421 11.3061 17.1801 10.9361 17.24C10.916 17.2984 10.916 17.3617 10.9361 17.4201H12.3361C12.4741 17.4201 12.4881 17.3461 12.4561 17.2201H12.2161C12.0161 17.2201 11.9761 17.1881 11.9761 17.0201V14.8201C11.9761 14.6201 12.0341 14.5381 12.4381 14.5101C12.4521 14.4502 12.4521 14.3879 12.4381 14.328L11.1181 14.32ZM16.6921 14.32L15.6161 16.552L14.4501 14.32H13.5121C13.3121 14.32 13.2921 14.4221 13.3121 14.52C13.7721 14.5341 13.8001 14.5861 13.7841 14.7341L13.6001 16.9241C13.5881 17.1241 13.5441 17.2121 13.0341 17.24C13.0221 17.2994 13.0221 17.3607 13.0341 17.4201H14.5561C14.6881 17.4201 14.7061 17.3461 14.6721 17.2201H14.4241C13.9341 17.2201 13.9341 17.1741 13.9461 16.992L14.0961 14.9081L15.3781 17.4421C15.4841 17.4421 15.5221 17.4141 15.6061 17.2421L16.7201 14.9021L16.9301 16.92C16.9521 17.1461 16.8881 17.1981 16.4981 17.2201L16.2481 17.2341C16.23 17.2928 16.23 17.3554 16.2481 17.4141H17.8861C18.0161 17.4141 18.0301 17.3401 18.0161 17.2141C17.6581 17.168 17.5841 17.1541 17.5701 17.0141L17.3461 14.7321C17.3321 14.5981 17.3601 14.5321 17.7921 14.496C17.8121 14.437 17.8121 14.3731 17.7921 14.3141L16.6921 14.32ZM18.9101 14.32C18.7101 14.32 18.6881 14.408 18.7101 14.52H18.9321C19.1321 14.52 19.1881 14.5481 19.1881 14.72V16.8501C19.1881 17.152 19.0861 17.2121 18.6361 17.2501C18.6231 17.3094 18.6231 17.3708 18.6361 17.4301H20.9001C20.9618 17.147 21.0426 16.8683 21.1421 16.5961C21.1901 16.456 21.1301 16.3961 21.0041 16.3961H20.9881L20.8581 16.6841C20.6581 17.1021 20.6161 17.1261 20.2721 17.1261H19.9741C19.8441 17.1261 19.7641 17.0841 19.7641 16.9261V14.872C19.7641 14.5701 19.8561 14.5301 20.3441 14.5021C20.3561 14.442 20.3561 14.3802 20.3441 14.32H18.9101ZM21.9101 14.32C21.7101 14.32 21.6881 14.408 21.7101 14.52H21.9321C22.1321 14.52 22.1821 14.5481 22.1821 14.72V16.8681C22.1821 17.1801 22.0921 17.2121 21.6021 17.24C21.5821 17.2984 21.5821 17.3617 21.6021 17.4201H24.1621C24.2234 17.1373 24.3029 16.8587 24.4001 16.5861C24.4441 16.4521 24.3861 16.3861 24.2621 16.3861H24.2461L24.1161 16.6741C23.9161 17.0921 23.8741 17.1141 23.5301 17.1141H23.1301C22.8141 17.1141 22.7721 17.0461 22.7721 16.8781V16.0661H23.2581C23.3801 16.0661 23.4401 16.1061 23.5001 16.4661C23.5252 16.4775 23.5526 16.483 23.5801 16.4821C23.6081 16.4832 23.6361 16.4784 23.6621 16.4681C23.6501 16.1661 23.6501 15.8461 23.6621 15.5541C23.6621 15.4101 23.6221 15.3781 23.5281 15.3781H23.4741L23.4421 15.616C23.4281 15.736 23.4001 15.7821 23.2601 15.7821H22.7721V14.6H23.5161C23.7721 14.6 23.8681 14.6741 23.9481 14.9581L24.0081 15.1581H24.0401C24.1641 15.1581 24.2101 15.08 24.1901 14.9581C24.1581 14.7581 24.1301 14.5401 24.1161 14.3321L21.9101 14.32ZM25.2341 14.3061C25.0341 14.32 25.0101 14.408 25.0341 14.528H25.2561C25.4561 14.528 25.5121 14.5581 25.5121 14.7401V16.8841C25.5121 17.1661 25.4181 17.2121 25.0141 17.2421C25.0041 17.3024 25.0041 17.3638 25.0141 17.424H26.4781C26.6121 17.424 26.6261 17.3481 26.6121 17.2141H26.4001C26.1581 17.2141 26.1161 17.168 26.1161 17.0341V16.352H26.4281C26.7101 16.352 26.7201 16.368 26.8281 16.576C26.9446 16.777 27.0932 16.9573 27.2681 17.1101C27.4082 17.2454 27.5745 17.3507 27.7568 17.4195C27.9391 17.4883 28.1335 17.5191 28.3281 17.5101C28.8201 17.5101 28.9281 17.3901 28.8941 17.2281C28.4941 17.2281 28.2941 17.1861 27.6761 16.6941C27.5001 16.5501 27.1501 16.2301 27.1501 16.2301C27.3304 16.1667 27.4871 16.0498 27.5993 15.8951C27.7115 15.7404 27.7738 15.5552 27.7781 15.3641C27.7781 14.728 27.2861 14.3061 26.3941 14.3061C25.7461 14.3061 25.4661 14.3061 25.2441 14.3241L25.2341 14.3061ZM26.1141 14.5741H26.2721C26.7961 14.5741 27.1661 14.7741 27.1661 15.3961C27.1661 16.0181 26.7961 16.096 26.3361 16.096H26.1141V14.5741Z" fill="#656868"/>
</svg>
