<svg width="32" height="32" viewBox="0 0 32 32" fill="none" xmlns="http://www.w3.org/2000/svg">
<path d="M0 16C0 24.8365 7.16344 32 16 32C24.8365 32 32 24.8365 32 16C32 7.16344 24.8365 0 16 0C7.16344 0 0 7.16344 0 16Z" fill="#EFEFEF"/>
<g clip-path="url(#clip0)">
<path fill-rule="evenodd" clip-rule="evenodd" d="M6.48148 16.3119C6.52974 16.2027 6.55777 16.0856 6.56421 15.9664H7.52777V15.9826C7.39475 16.0215 7.35582 16.1837 7.35582 16.307L7.72243 19.042C7.75649 19.3031 7.78407 19.454 8.00793 19.6097V19.626H6.93244V19.6097C7.1271 19.5481 7.16116 19.381 7.16116 19.1928L6.83673 16.5082L5.58929 19.6989C5.35969 19.5319 5.18924 19.2961 5.10264 19.0258L4.04337 16.513L3.72704 18.9073C3.68162 19.248 3.64269 19.4929 3.90386 19.6097V19.626H2.99707V19.6097C3.23066 19.4037 3.26473 19.1231 3.30853 18.8295L3.63296 16.4968C3.65567 16.3346 3.71569 16.1172 3.45939 15.9777V15.9615H4.43268C4.44176 16.0496 4.46822 16.1351 4.51055 16.2129L5.55847 18.6689L6.4831 16.307L6.48148 16.3119Z" fill="#010B3E"/>
<path fill-rule="evenodd" clip-rule="evenodd" d="M12.2119 17.7558C12.2119 18.8913 11.2694 19.7154 10.1615 19.7154C9.05354 19.7154 8.12891 18.9254 8.12891 17.7834C8.12891 16.7257 9.04705 15.8368 10.2166 15.8676C10.4723 15.8579 10.7273 15.8992 10.9668 15.9893C11.2063 16.0794 11.4253 16.2164 11.6112 16.3923C11.797 16.5681 11.9459 16.7793 12.049 17.0135C12.1522 17.2476 12.2075 17.5 12.2119 17.7558ZM8.76317 17.7282C8.76317 18.5085 9.3147 19.3098 10.189 19.3098C11.0358 19.3098 11.576 18.6918 11.576 17.8612C11.576 17.0307 11.0634 16.2683 10.1777 16.2683C9.292 16.2683 8.76317 16.8912 8.76317 17.7282Z" fill="#010B3E"/>
<path fill-rule="evenodd" clip-rule="evenodd" d="M13.2242 18.9029C13.2242 19.2144 13.2242 19.4382 13.513 19.6102V19.6264H12.5234V19.6102C12.8187 19.4382 12.8187 19.2144 12.8187 18.9029V16.6805C12.8187 16.3691 12.8187 16.1452 12.5283 15.9781V15.9619H13.3394C13.3557 16.0146 13.3847 16.0625 13.4237 16.1014L13.5016 16.2134L15.5407 18.7861V16.6773C15.5407 16.3658 15.5407 16.142 15.2503 15.9749V15.9587H16.2236V15.9749C15.9348 16.1371 15.9348 16.3658 15.9348 16.6773V19.8048C15.539 19.6718 15.3671 19.4885 15.1238 19.1706L13.2242 16.7552V18.911V18.9029Z" fill="#010B3E"/>
<path fill-rule="evenodd" clip-rule="evenodd" d="M19.4337 16.6522C19.1281 16.4485 18.7709 16.336 18.4037 16.3278C17.6348 16.3278 17.1059 16.8907 17.1059 17.6985C17.1059 18.5063 17.664 19.246 18.5221 19.246C18.9408 19.2327 19.3492 19.1121 19.7079 18.8956H19.7241L19.4402 19.5445C19.1755 19.6598 18.8886 19.7152 18.6 19.7067C17.2844 19.7067 16.4717 18.9719 16.4717 17.7796C16.4717 16.6279 17.2828 15.8638 18.4264 15.8638C18.7686 15.8711 19.1088 15.9179 19.4402 16.0033V16.6441L19.4337 16.6522Z" fill="#010B3E"/>
<path fill-rule="evenodd" clip-rule="evenodd" d="M21.5107 19.2255C21.8713 19.2472 22.2259 19.1253 22.4969 18.8864H22.5132L22.2244 19.6261H19.9355V19.6099C20.2194 19.5093 20.1854 19.0973 20.1854 18.8475V16.7549C20.1854 16.4986 20.2194 16.0931 19.9355 15.986V15.9698H20.9997V15.986C20.7142 16.0931 20.7547 16.5051 20.7547 16.7549V19.1882L21.5107 19.2384V19.2255Z" fill="#010B3E"/>
<path fill-rule="evenodd" clip-rule="evenodd" d="M23.6434 19.1589L24.3507 19.2254C24.5353 19.2429 24.7217 19.2233 24.8986 19.1676C25.0755 19.1118 25.2395 19.0212 25.3807 18.901H25.397L25.1472 19.6293H22.8242V19.6131C23.1081 19.5125 23.0757 19.1005 23.0757 18.8507V16.7548C23.0757 16.4985 23.1081 16.093 22.8242 15.9859V15.9697H24.6086C24.6966 15.9811 24.7861 15.9717 24.8698 15.9421H24.8876V16.591H24.8698C24.6978 16.3899 24.4691 16.3671 24.2128 16.3671C24.0228 16.3634 23.8328 16.3764 23.645 16.4061V17.4426H24.3069C24.39 17.4497 24.4737 17.4381 24.5518 17.4086H24.5697V17.999H24.5518C24.4626 17.8368 24.2274 17.8368 24.0571 17.8368H23.645V19.1573L23.6434 19.1589Z" fill="#010B3E"/>
<path fill-rule="evenodd" clip-rule="evenodd" d="M27.0294 15.9615C27.7756 15.9615 28.1811 16.3508 28.1811 16.8585C28.1811 17.3663 27.7529 17.7329 27.2954 17.8318L28.0968 18.8473C28.3556 19.1517 28.6598 19.4144 28.9987 19.626H28.4861C28.3633 19.6383 28.2394 19.6194 28.1259 19.5709C28.0125 19.5224 27.9131 19.4459 27.8372 19.3486L27.1576 18.5067L26.6498 17.728C27.0959 17.6615 27.6134 17.4555 27.6134 16.9315C27.6134 16.5309 27.2679 16.2973 26.8948 16.3135C26.768 16.3201 26.6417 16.3347 26.5168 16.3573V18.8473C26.5168 19.1036 26.4827 19.5092 26.7666 19.6097V19.626H25.7041V19.6097C25.988 19.5092 25.949 19.0971 25.949 18.8473V16.7547C25.949 16.4984 25.988 16.0929 25.7041 15.9858V15.9696L27.0294 15.9615Z" fill="#010B3E"/>
<path fill-rule="evenodd" clip-rule="evenodd" d="M27.7725 15.767C27.7725 15.8793 27.8058 15.9891 27.8681 16.0825C27.9305 16.1758 28.0192 16.2486 28.1229 16.2916C28.2267 16.3345 28.3408 16.3458 28.451 16.3239C28.5611 16.302 28.6623 16.2479 28.7417 16.1685C28.8211 16.0891 28.8752 15.9879 28.8971 15.8778C28.919 15.7677 28.9077 15.6535 28.8648 15.5498C28.8218 15.446 28.749 15.3573 28.6556 15.295C28.5623 15.2326 28.4525 15.1993 28.3402 15.1993C28.1896 15.1993 28.0452 15.2591 27.9388 15.3656C27.8323 15.472 27.7725 15.6165 27.7725 15.767ZM27.8536 15.767C27.8536 15.6708 27.8821 15.5767 27.9356 15.4967C27.9891 15.4166 28.0651 15.3543 28.154 15.3174C28.2429 15.2806 28.3408 15.271 28.4352 15.2897C28.5296 15.3085 28.6163 15.3549 28.6843 15.4229C28.7524 15.491 28.7987 15.5777 28.8175 15.6721C28.8363 15.7665 28.8267 15.8643 28.7898 15.9533C28.753 16.0422 28.6906 16.1182 28.6106 16.1717C28.5306 16.2251 28.4365 16.2537 28.3402 16.2537C28.2758 16.2545 28.2118 16.2426 28.152 16.2185C28.0922 16.1944 28.0378 16.1587 27.9919 16.1135C27.946 16.0682 27.9096 16.0142 27.8847 15.9548C27.8599 15.8953 27.8471 15.8315 27.8471 15.767H27.8536Z" fill="#010B3E"/>
<path d="M28.601 16.0739H28.4972L28.3528 15.7981H28.2246V16.0739H28.1338V15.4331H28.3722C28.423 15.4309 28.4727 15.4477 28.5118 15.4802C28.5442 15.5178 28.562 15.5659 28.562 15.6156C28.562 15.6653 28.5442 15.7134 28.5118 15.7511C28.4895 15.7699 28.4635 15.7837 28.4355 15.7916L28.601 16.0739ZM28.2246 15.5077V15.7219H28.3528C28.3854 15.7235 28.4173 15.7124 28.442 15.691C28.4511 15.6807 28.4579 15.6686 28.4621 15.6554C28.4663 15.6423 28.4677 15.6285 28.4663 15.6148C28.4678 15.6013 28.4664 15.5877 28.4622 15.5749C28.458 15.562 28.4511 15.5502 28.442 15.5402C28.4175 15.5183 28.3856 15.5067 28.3528 15.5077H28.2246Z" fill="#010B3E"/>
<path fill-rule="evenodd" clip-rule="evenodd" d="M14.8365 12.4496C14.8365 12.4496 14.564 12.3733 14.4975 11.8996C14.431 11.426 14.4229 11.2881 14.3353 11.0999C14.2217 10.8728 13.8486 10.7641 13.8486 10.7641C14.008 10.5841 14.1357 10.3784 14.2266 10.1558C14.3077 9.88492 14.6857 9.79083 14.6857 9.79083C14.6417 9.85369 14.6037 9.92049 14.5721 9.99036C14.5576 10.0364 14.5473 10.0836 14.5413 10.1315C14.5806 10.0907 14.6281 10.0586 14.6807 10.0374C14.7332 10.0162 14.7896 10.0062 14.8463 10.0082C14.7731 10.2559 14.7625 10.5178 14.8154 10.7706C14.8367 10.864 14.8764 10.9523 14.9321 11.0303C14.9878 11.1082 15.0584 11.1744 15.1399 11.2248L15.1123 11.4292C15.1123 11.4292 14.736 11.2102 14.6694 10.988C14.6033 10.7727 14.5721 10.5481 14.577 10.3229C14.5179 10.3845 14.4667 10.4532 14.4245 10.5273C14.4245 10.5273 14.4018 10.4121 14.3239 10.3862C14.2714 10.4974 14.2067 10.6024 14.1309 10.6992C14.2913 10.7677 14.426 10.8852 14.5153 11.035C14.6273 11.2573 14.637 11.5817 14.6889 11.8867C14.6942 11.9495 14.7121 12.0107 14.7417 12.0665C14.7712 12.1222 14.8118 12.1714 14.8609 12.2111L14.8365 12.4496Z" fill="#010B3E"/>
<path fill-rule="evenodd" clip-rule="evenodd" d="M16.4887 8L17.4458 14.5292H16.7158V14.2843H17.1603L16.4822 9.62865L15.7587 14.5292H15.543L16.4887 8Z" fill="#FF2B01"/>
<path fill-rule="evenodd" clip-rule="evenodd" d="M16.853 11.9061C16.8129 11.6432 16.8234 11.375 16.8838 11.1161C16.9308 10.9738 17.0199 10.8492 17.1392 10.7585C17.2585 10.6679 17.4025 10.6155 17.5521 10.6083C17.9982 10.6083 18.2513 11.1972 18.2918 11.4097C18.2364 11.3785 18.1742 11.3613 18.1106 11.3596C18.047 11.3579 17.9839 11.3718 17.9269 11.4C18.0375 11.4525 18.1297 11.5373 18.1913 11.6433C18.2406 11.7865 18.2578 11.9388 18.2416 12.0894C18.2002 12.042 18.1486 12.0046 18.0908 11.9798C18.0329 11.9551 17.9702 11.9438 17.9074 11.9466C17.97 12.0252 18.0244 12.11 18.0696 12.1997C18.0834 12.2839 18.0899 12.3691 18.0891 12.4544C17.944 12.375 17.7743 12.353 17.6138 12.3927C17.4799 12.4486 17.3637 12.54 17.278 12.6571L17.2374 12.3213C17.3201 12.2485 17.4123 12.1874 17.5116 12.1397C17.6151 12.1007 17.7271 12.0901 17.836 12.1088C17.804 12.0736 17.7649 12.0454 17.7213 12.0262C17.6777 12.0069 17.6306 11.9969 17.583 11.9969C17.5917 11.9234 17.6197 11.8534 17.6641 11.7941C17.7055 11.7415 17.7621 11.703 17.8263 11.6838C17.7837 11.6545 17.7325 11.6405 17.6809 11.644C17.6294 11.6476 17.5806 11.6685 17.5424 11.7033C17.5337 11.6414 17.5373 11.5784 17.553 11.5179C17.5687 11.4574 17.5961 11.4006 17.6338 11.3507C17.6715 11.3008 17.7186 11.2589 17.7725 11.2273C17.8264 11.1956 17.886 11.1749 17.9479 11.1664C17.9479 11.1664 17.8263 10.8419 17.5424 10.8517C17.3396 10.8517 17.1774 10.9831 17.0752 11.2475C17.031 11.4251 17.0211 11.6095 17.046 11.7909L16.853 11.9061Z" fill="#FF2B01"/>
<path fill-rule="evenodd" clip-rule="evenodd" d="M16.127 12.9541L16.3508 14.5292H16.5666L16.2292 12.1706L16.127 12.9541Z" fill="#010B3E"/>
<path fill-rule="evenodd" clip-rule="evenodd" d="M15.9916 10.576L15.6202 8L14.6631 14.5292H15.3931V14.2843H14.9681L15.6266 9.62865L15.8894 11.366L15.9916 10.576Z" fill="#010B3E"/>
</g>
<path d="M16 0.666666C24.4 0.666666 31.3334 7.6 31.3334 16C31.3334 24.4 24.4 31.3334 16 31.3334C7.6 31.3334 0.666666 24.4 0.666666 16C0.666666 7.6 7.6 0.666666 16 0.666666ZM16 0C7.2 0 0 7.2 0 16C0 24.8 7.2 32 16 32C24.8 32 32 24.8 32 16C32 7.2 24.8 0 16 0Z" fill="#999999"/>
<defs>
<clipPath id="clip0">
<rect width="26" height="11.8061" fill="white" transform="translate(3 8)"/>
</clipPath>
</defs>
</svg>
