<svg width="32" height="32" viewBox="0 0 32 32" fill="none" xmlns="http://www.w3.org/2000/svg">
<path d="M0 16C0 24.8365 7.16344 32 16 32C24.8365 32 32 24.8365 32 16C32 7.16344 24.8365 0 16 0C7.16344 0 0 7.16344 0 16Z" fill="black"/>
<path d="M18.9999 17.2197L15.0559 10.3377L17.892 8.67371L22.8239 17.2197" fill="white"/>
<path d="M8.43807 16.2582L11.2741 14.6122L12.8001 17.2202H8.97407" fill="white"/>
<path d="M11.7679 13.3158L14.6439 11.6898L17.8099 17.2198H14.7999V18.0338H13.9799V17.2198" fill="white"/>
<path d="M24.178 21.7198C23.274 21.7198 22.738 21.2578 22.698 20.5918H23.562C23.562 20.8139 23.684 21.1099 24.218 21.1278C24.588 21.1278 24.794 20.9058 24.794 20.7398C24.7519 20.4818 24.4239 20.4619 24.096 20.4059C23.7995 20.3708 23.509 20.2969 23.232 20.1858C23.0904 20.1068 22.9733 19.9904 22.8936 19.8493C22.8138 19.7082 22.7745 19.5478 22.78 19.3858C22.78 18.7858 23.274 18.3318 24.1359 18.3318C24.9599 18.3318 25.4939 18.7558 25.5359 19.4038H24.714C24.714 19.2379 24.6719 18.9598 24.18 18.9598C23.85 18.9598 23.6459 19.0158 23.604 19.2558C23.604 19.5899 24.3019 19.5718 24.836 19.6998C25.33 19.8299 25.66 20.1438 25.66 20.5878C25.66 21.4038 25.002 21.7158 24.18 21.7158" fill="white"/>
<path d="M19.696 20.024C19.6954 20.1483 19.7195 20.2715 19.767 20.3864C19.8143 20.5012 19.884 20.6056 19.9719 20.6934C20.0599 20.7812 20.1645 20.8507 20.2794 20.8978C20.3944 20.945 20.5176 20.9688 20.642 20.968C20.8907 20.9628 21.1279 20.8618 21.3038 20.6859C21.4797 20.5099 21.5809 20.2728 21.586 20.024C21.5775 19.7765 21.4752 19.5415 21.2999 19.3666C21.1247 19.1917 20.8895 19.09 20.642 19.082C20.3921 19.083 20.1527 19.1825 19.9756 19.3588C19.7986 19.5352 19.6981 19.7741 19.696 20.024ZM20.6 21.7259C20.1512 21.7259 19.7208 21.5477 19.4036 21.2304C19.0862 20.9131 18.908 20.4827 18.908 20.034C18.908 19.5852 19.0862 19.1548 19.4036 18.8376C19.7208 18.5202 20.1512 18.3419 20.6 18.3419C20.9514 18.3332 21.2967 18.4362 21.586 18.636V18.378H22.368V21.652H21.586V21.452C21.2919 21.6398 20.9489 21.7366 20.6 21.73" fill="white"/>
<path d="M10.904 20.024C10.9035 20.1484 10.9276 20.2715 10.975 20.3864C11.0224 20.5013 11.0921 20.6057 11.1801 20.6934C11.2681 20.7812 11.3725 20.8507 11.4875 20.8978C11.6025 20.945 11.7257 20.9688 11.8501 20.968C12.0996 20.9634 12.3376 20.8627 12.5146 20.6868C12.6917 20.5109 12.7939 20.2735 12.8 20.024C12.7906 19.7765 12.6877 19.5418 12.5123 19.367C12.3368 19.1923 12.1016 19.0905 11.854 19.082C11.6041 19.083 11.3647 19.1825 11.1877 19.3588C11.0106 19.5352 10.9101 19.7741 10.9081 20.024H10.904ZM11.8 21.726C11.5373 21.7186 11.28 21.6501 11.0484 21.5259C10.8168 21.4017 10.6172 21.2252 10.4657 21.0106C10.3141 20.7959 10.2146 20.5488 10.1752 20.2891C10.1356 20.0292 10.1572 19.7638 10.2381 19.5137C10.3191 19.2636 10.457 19.036 10.6413 18.8485C10.8255 18.6611 11.0509 18.5192 11.2995 18.434C11.5481 18.3488 11.8132 18.3228 12.0736 18.3579C12.3341 18.3929 12.5828 18.4881 12.8 18.636V17.25H13.6201V21.65H12.8V21.45C12.5015 21.6392 12.1534 21.7353 11.8 21.726Z" fill="white"/>
<path d="M15.9178 20.024C15.9235 20.273 16.025 20.5101 16.2013 20.686C16.3775 20.8619 16.615 20.9629 16.8639 20.968C16.9881 20.9688 17.1113 20.945 17.2264 20.8978C17.3414 20.8507 17.4459 20.7812 17.5338 20.6934C17.6218 20.6057 17.6916 20.5013 17.7389 20.3864C17.7863 20.2715 17.8104 20.1484 17.8099 20.024C17.8078 19.7741 17.7073 19.5352 17.5303 19.3588C17.3531 19.1825 17.1138 19.083 16.8639 19.082C16.6162 19.09 16.3807 19.1916 16.2052 19.3665C16.0296 19.5414 15.9269 19.7764 15.9178 20.024ZM17.8099 17.25H18.6298V21.65H17.8099V21.45C17.5328 21.6423 17.2009 21.7398 16.8639 21.728C16.4152 21.728 15.9848 21.5498 15.6675 21.2325C15.3501 20.9151 15.1719 20.4847 15.1719 20.0361C15.1719 19.5873 15.3501 19.1569 15.6675 18.8396C15.9848 18.5223 16.4152 18.344 16.8639 18.344C17.2037 18.3298 17.538 18.4337 17.8099 18.638V17.25Z" fill="white"/>
<path d="M7.1221 20.024C7.1277 20.2726 7.22895 20.5095 7.40479 20.6853C7.58062 20.8611 7.8175 20.9624 8.0661 20.968C8.19046 20.9691 8.31379 20.9453 8.42891 20.8984C8.54403 20.8513 8.64865 20.7819 8.73669 20.6939C8.82472 20.6061 8.8944 20.5017 8.94169 20.3867C8.98896 20.2716 9.0129 20.1483 9.0121 20.024C9.01 19.7741 8.90953 19.5352 8.73246 19.3588C8.55539 19.1825 8.31598 19.083 8.0661 19.082C7.81877 19.0905 7.58382 19.1923 7.40864 19.3672C7.23346 19.5419 7.13107 19.7767 7.1221 20.024ZM8.0261 21.7259C7.57736 21.7259 7.14698 21.5477 6.82968 21.2304C6.51237 20.9131 6.3341 20.4827 6.3341 20.034C6.3341 19.5852 6.51237 19.1548 6.82968 18.8376C7.14698 18.5202 7.57736 18.3419 8.0261 18.3419C8.37759 18.3332 8.72281 18.4362 9.0121 18.636V18.378H9.83614V21.652H9.0121V21.452C8.7204 21.645 8.3757 21.7422 8.0261 21.73" fill="white"/>
<path d="M14.8081 18.4279H13.988V21.6238H14.8081V18.4279Z" fill="white"/>
</svg>
