<svg width="32" height="32" viewBox="0 0 32 32" fill="none" xmlns="http://www.w3.org/2000/svg">
<path d="M0 16C0 24.8365 7.16344 32 16 32C24.8365 32 32 24.8365 32 16C32 7.16344 24.8365 0 16 0C7.16344 0 0 7.16344 0 16Z" fill="#EFEFEF"/>
<path d="M16 0.666666C24.4 0.666666 31.3334 7.6 31.3334 16C31.3334 24.4 24.4 31.3334 16 31.3334C7.6 31.3334 0.666666 24.4 0.666666 16C0.666666 7.6 7.6 0.666666 16 0.666666ZM16 0C7.2 0 0 7.2 0 16C0 24.8 7.2 32 16 32C24.8 32 32 24.8 32 16C32 7.2 24.8 0 16 0Z" fill="#999999"/>
<path d="M16.0001 6.01611C17.9747 6.01611 19.905 6.60167 21.5469 7.69872C23.1888 8.79577 24.4684 10.355 25.2241 12.1794C25.9798 14.0037 26.1775 16.0112 25.7923 17.9479C25.407 19.8846 24.4561 21.6636 23.0599 23.0599C21.6635 24.4561 19.8846 25.407 17.9479 25.7923C16.0112 26.1775 14.0037 25.9798 12.1794 25.2241C10.355 24.4685 8.79574 23.1887 7.69869 21.5469C6.60164 19.9051 6.01608 17.9747 6.01608 16.0001C6.02032 13.3535 7.07355 10.8165 8.94501 8.94504C10.8165 7.07358 13.3535 6.02035 16.0001 6.01611Z" fill="#3967B0"/>
<path d="M16.0001 7.28406C14.2774 7.28485 12.5935 7.79637 11.1614 8.75396C9.72932 9.71158 8.61335 11.0722 7.95445 12.664C7.29556 14.2557 7.12337 16.0071 7.45965 17.6966C7.79592 19.3862 8.62558 20.9382 9.84376 22.1564C11.0619 23.3745 12.6138 24.2042 14.3034 24.5405C15.993 24.8768 17.7444 24.7045 19.3362 24.0457C20.9279 23.3868 22.2886 22.2707 23.2461 20.8386C24.2038 19.4066 24.7153 17.7228 24.716 16C24.7108 13.69 23.7908 11.4762 22.1574 9.84278C20.524 8.20933 18.31 7.28934 16.0001 7.28406ZM16.0001 8.52006C16.646 8.5185 17.2895 8.6012 17.9141 8.76605L16.028 14L14.1301 8.75606C14.741 8.59925 15.3693 8.51996 16.0001 8.52006ZM8.52006 16C8.5171 15.1532 8.66055 14.3121 8.94406 13.514L12.414 22.552C11.2365 21.9103 10.2535 20.9632 9.56828 19.8102C8.88308 18.6574 8.521 17.3412 8.52006 16ZM16.0001 23.48C15.3241 23.4824 14.6511 23.3915 14.0001 23.21V23.056L15.9301 18.056L17.862 23.056L17.886 23.2441C17.2696 23.4009 16.636 23.4801 16.0001 23.48ZM17.4401 16.4621H14.4401L13.2961 19.424L10.172 11.3161C10.7582 10.5909 11.4736 9.98066 12.2821 9.51609L14.4821 15.576H17.574L19.774 9.5401C20.5273 9.98226 21.1975 10.5528 21.7541 11.226L18.596 19.426L17.4401 16.4621ZM19.4401 22.6381L23.0001 13.354C23.6402 15.0693 23.6319 16.9593 22.9768 18.6689C22.3216 20.3785 21.0646 21.79 19.4421 22.6381H19.4401Z" fill="white"/>
</svg>
