<svg width="32" height="32" viewBox="0 0 32 32" fill="none" xmlns="http://www.w3.org/2000/svg">
<path d="M0 16C0 24.8365 7.16344 32 16 32C24.8365 32 32 24.8365 32 16C32 7.16344 24.8365 0 16 0C7.16344 0 0 7.16344 0 16Z" fill="#FADF3C"/>
<path fill-rule="evenodd" clip-rule="evenodd" d="M5 16.9176H27V16.693H5V16.9176Z" fill="#C23C40"/>
<path fill-rule="evenodd" clip-rule="evenodd" d="M21.7474 26.9303H22.5554V20.5997H21.7474V26.9303ZM20.9841 26.9303V22.0812C20.9841 21.0934 20.2657 20.3752 19.188 20.3752C18.4247 20.3752 17.886 20.5995 17.437 21.0485V20.5995H16.6289V22.3057C17.0779 21.4079 18.0654 21.1382 18.6493 21.1382C19.3228 21.1382 20.176 21.5424 20.176 22.4854V26.9303H20.9841Z" fill="black"/>
<path fill-rule="evenodd" clip-rule="evenodd" d="M19.906 26.9298V22.4849C19.906 21.7216 19.2772 21.4074 18.6486 21.4074C17.9302 21.4074 16.6282 21.7666 16.6282 23.4727V26.9299H17.4363V22.8891C17.4363 22.4398 17.7508 22.0359 18.3341 22.0359C18.918 22.0359 19.0528 22.3501 19.0528 22.7092V26.9298H19.906ZM15.5506 26.9298H16.4037V20.599H15.5506V26.9298ZM14.9222 19.9706V19.297H9.5791V22.395H14.6526V21.6768H10.567V19.9706H14.9222Z" fill="black"/>
<path fill-rule="evenodd" clip-rule="evenodd" d="M15.0571 26.9308V26.1675H9.31009V19.0288H14.9226V18.3553H8.41211V26.9308H15.0571Z" fill="black"/>
<path fill-rule="evenodd" clip-rule="evenodd" d="M15.0567 25.8982V25.1349H10.522V23.3391H14.6526V22.6656H9.5791V25.8982H15.0567Z" fill="black"/>
<path fill-rule="evenodd" clip-rule="evenodd" d="M18.1549 4.70596C18.1549 4.61622 18.0652 4.48154 17.9753 4.48154C17.5263 4.21218 17.0775 4.52634 16.6285 4.52634C16.4489 4.52634 16.2694 4.57128 16.1795 4.48154C16.1795 4.39166 16.2243 4.39166 16.2243 4.30192C16.1346 4.30192 15.9999 4.25698 15.8652 4.25698C15.8652 4.25698 15.5959 4.25698 15.4162 4.16724C14.7876 3.94282 14.2039 3.80814 13.4856 4.1223C13.261 4.21203 13.0366 4.30192 12.812 4.30192C12.6774 4.30192 12.9917 4.52634 12.9467 4.66117C12.5875 4.70611 12.2284 4.84079 11.9141 5.11015V5.15509C12.1386 5.37951 12.4528 5.4694 12.812 5.4694C12.9018 5.4694 13.1263 5.73876 13.6652 5.7837C14.4285 5.91838 14.8775 5.51434 15.4162 5.73876C15.3713 5.64887 15.3713 5.60408 15.3713 5.51419C15.9999 5.69382 16.4937 5.64887 16.9876 5.42445C17.4366 5.28963 17.6612 4.66102 18.1549 4.70596Z" fill="#C23C40"/>
<path fill-rule="evenodd" clip-rule="evenodd" d="M23.6774 13.0572C23.5877 12.9675 23.4528 12.8328 23.3629 12.7878C23.1387 12.7429 23.1387 12.4735 23.0488 12.2939C22.914 11.9348 23.2731 12.0246 23.2284 11.8C23.1833 11.6653 23.1387 11.6204 23.0038 11.5306C23.0038 11.3959 23.1387 11.351 23.2284 11.351C23.2284 11.2613 23.1833 11.2163 23.1387 11.1714C23.0038 11.1264 22.9141 11.1264 22.8242 11.0815C22.8242 10.9917 23.1387 10.9019 23.0936 10.6325C23.0038 10.6774 22.8693 10.6325 22.7345 10.5876C22.6447 10.4978 22.8242 10.4079 22.7796 10.3182C22.555 10.2285 22.3303 10.0938 22.106 10.0039C21.8814 9.95894 21.9264 9.73452 21.8367 9.5549C21.5673 8.88149 21.3877 8.25288 20.8937 7.66921C20.804 7.53453 20.7589 7.53453 20.6244 7.39985C20.6244 7.3549 20.5793 7.26516 20.6692 7.22022C20.7591 7.17528 20.8937 7.0406 20.8937 6.95086C21.118 6.50172 21.118 5.9182 20.8937 5.51401C20.6244 5.06502 20.2202 4.8854 19.7712 4.8854C19.0976 4.8854 18.6486 5.42412 18.4241 6.00794C18.1099 6.72629 18.1998 7.08554 17.7057 7.44464C17.6609 7.53438 17.4815 7.57932 17.3018 7.3997C17.2121 7.30996 17.1222 7.13033 17.167 6.99565C17.2121 7.0406 17.3018 7.17528 17.3466 7.17528C17.4364 7.26502 17.5263 7.26502 17.616 7.22022C17.7057 7.17542 17.7508 7.08554 17.7508 6.95086C17.7508 6.81618 17.6611 6.68149 17.5712 6.59161C17.4364 6.45693 17.167 6.50187 17.0322 6.59161C16.8079 6.68149 16.6731 6.95086 16.718 7.22022C16.718 7.39985 16.8525 7.53453 16.8976 7.75895C16.8976 7.75895 16.8525 7.84869 16.8079 7.84869C16.6731 7.84869 16.5833 7.80374 16.4934 7.66906C16.4487 7.62412 16.4934 7.53438 16.4037 7.53438C16.2241 7.66906 16.2692 7.89363 16.2692 8.07311C16.2692 8.11805 16.2692 8.16285 16.2241 8.16285C16.0445 7.98322 15.9547 7.84854 15.865 7.62412C15.6854 7.71386 15.6854 7.84854 15.6854 7.98337C15.6404 8.11805 15.7751 8.29767 15.6854 8.29767C15.4608 8.25273 15.3711 7.93842 15.3711 7.66906C15.2813 7.714 15.1914 7.80374 15.1466 7.84869C15.0569 7.98337 15.0569 8.16299 14.8773 8.16299C14.6976 8.11805 14.6527 7.89363 14.6527 7.66906C14.6078 7.62412 14.563 7.714 14.518 7.75895C14.3833 7.84869 14.2936 8.02831 14.2037 8.16299C14.069 7.98337 14.069 7.75895 14.0241 7.53438C13.7997 7.62412 13.5751 8.29767 13.2608 8.29767V8.20779C13.3955 8.02816 13.3507 7.7588 13.3507 7.53438C13.3507 7.48944 13.3507 7.30996 13.2608 7.30996C13.1261 7.48958 13.0812 7.57932 12.9015 7.714C12.7219 7.89363 12.4975 8.02831 12.4975 8.02831C12.4975 7.93842 12.5424 7.84869 12.5424 7.80374C12.5874 7.714 12.6322 7.57932 12.6322 7.44464C12.6322 7.30996 12.5872 7.17528 12.5872 7.13033C12.5872 7.08539 12.5872 7.08539 12.5423 7.08539C12.5423 7.08539 12.4526 7.17513 12.183 7.30981C11.9137 7.48944 11.5994 7.35476 11.5544 7.39955C11.5544 7.39955 11.5544 7.53423 11.5095 7.62397C11.4646 7.75865 11.4198 7.89333 11.3299 7.89333C11.24 7.89333 10.8365 7.62456 10.6569 7.66935C10.5222 7.75924 10.2527 8.56733 10.2527 8.56733C9.89361 8.52239 9.80372 8.43265 9.66904 8.20808C9.57915 8.16314 9.57915 8.25302 9.57915 8.29797C9.53436 8.29797 9.48942 8.52239 9.48942 8.88164C9.48942 8.97138 9.48942 9.10606 9.53436 9.24089V9.46531C9.80372 10.902 10.4323 12.1592 10.567 13.5961C10.7466 14.3592 10.0283 14.6735 9.75893 15.2123L9.80387 15.2573H10.657C10.7468 15.2573 10.8365 15.1676 10.8815 15.0777C10.9264 14.7633 10.9712 14.3592 11.1059 14.0449C11.4202 14 11.5099 13.6409 11.7793 13.4613C11.7793 13.3715 11.6446 13.3266 11.5998 13.1919C11.6896 13.102 11.8242 13.0123 11.9141 12.8776C11.9591 12.7429 11.7794 12.698 11.7794 12.6082C11.7794 12.5633 11.8244 12.5185 11.8693 12.4735C11.9143 12.3389 12.1387 12.3389 12.004 12.2042C11.9591 12.0246 11.7794 12.1144 11.6897 11.9798C11.7346 11.8001 11.8693 11.5757 12.0488 11.4858C11.9141 11.3511 11.6897 11.2614 11.5101 11.2614V10.9022L11.555 10.8572L12.2735 11.2165C12.2286 11.4409 12.3185 11.6205 12.3633 11.8451C12.4082 12.1594 12.6326 12.3838 12.5877 12.6981C12.5427 12.9675 12.2734 13.0572 12.1387 13.192C12.0937 13.2368 11.9591 13.2818 11.9591 13.3717C12.1387 13.5962 12.3631 13.7309 12.5877 13.9104L12.6326 13.9553C12.8122 13.7309 12.857 13.4614 12.9917 13.2819C13.0816 13.237 13.2163 13.237 13.306 13.1472C13.3958 13.1472 13.4857 13.1023 13.5305 13.1023C13.4857 12.9227 13.306 12.788 13.1714 12.6983C13.2611 12.6085 13.351 12.6085 13.4857 12.6085C13.5305 12.5636 13.5754 12.5636 13.6203 12.4738C13.4857 12.4738 13.351 12.3392 13.351 12.2045C13.4857 12.1147 13.7101 11.98 13.8 11.7107C13.7102 11.6208 13.5755 11.6208 13.4857 11.576C13.4857 11.4413 13.5305 11.3066 13.5754 11.172C13.5754 11.127 13.5754 11.0373 13.6651 11.0373C14.0242 11.1272 14.4732 11.1272 14.8774 11.0373C14.9224 11.0822 14.9672 11.0822 14.9672 11.1272C14.8774 11.6209 14.6978 12.1149 14.6079 12.6088C14.4732 12.7884 14.2487 12.9231 14.0242 13.0578C13.9345 13.1475 13.7549 13.1925 13.7099 13.3721L14.3833 13.9108H14.4731C14.6078 13.7312 14.6976 13.5516 14.8323 13.3721C14.8323 13.2824 14.8323 13.1475 14.8773 13.1027C15.0569 13.1027 15.2364 13.0578 15.3711 13.013C15.3711 12.8783 15.2364 12.7886 15.1466 12.6539C15.2813 12.609 15.4609 12.6539 15.5956 12.5642C15.6406 12.5642 15.7303 12.4744 15.7303 12.3397H15.5956C15.5956 12.3397 15.5059 12.3397 15.5508 12.2948C15.7752 12.25 15.9998 12.2051 16.1794 12.0254C16.1343 12.0254 16.0896 11.9805 16.0446 11.9357C16.0896 11.8908 16.1343 11.8908 16.1794 11.8908C16.314 11.801 16.4488 11.6663 16.4488 11.4867C16.314 11.4867 16.1343 11.4418 16.0896 11.352C16.1794 11.2173 16.314 11.1276 16.4934 11.1276C16.6859 11.6049 16.9594 12.0454 17.3018 12.4296V12.5643L16.5832 13.4173C16.5832 13.4623 16.5384 13.552 16.6283 13.552L17.616 13.5071C17.6611 13.5071 17.7508 13.4621 17.7508 13.4173C17.7956 13.148 17.7956 12.8337 17.8406 12.5643C17.9751 12.4746 18.0648 12.2051 18.2895 12.2051C18.2895 12.1153 18.1547 12.0704 18.065 12.0254C18.065 11.8458 18.1998 11.7561 18.2895 11.6662C18.1998 11.6212 18.065 11.7559 17.9751 11.6662C18.0648 11.6212 18.1099 11.5764 18.1997 11.3968V11.3519C18.0648 11.3968 18.02 11.3519 17.9303 11.3519C17.8406 11.3069 17.7507 11.2172 17.7507 11.1275C17.8404 10.9478 17.9749 10.8132 18.1098 10.6785C18.1546 10.6785 18.1995 10.5887 18.2443 10.6785C18.2894 10.8132 18.334 10.9478 18.4239 11.0825C18.4239 11.1724 18.4239 11.2621 18.514 11.3519C18.7382 11.4866 18.963 11.7111 19.1872 11.9805C19.2323 12.1152 19.4118 12.2499 19.3669 12.4744L18.7833 13.3724L18.7382 13.4621C18.7833 13.4621 18.7833 13.5071 18.828 13.5071L19.7709 13.2827L19.8606 13.2377L19.8158 12.5643C19.9056 12.4296 20.0401 12.3847 20.1749 12.25C20.1299 12.2051 20.0852 12.2051 20.0401 12.1601C20.0401 12.0254 20.1749 12.0254 20.2197 11.9357C20.2197 11.846 19.9955 11.846 19.9955 11.7113C20.13 11.6214 20.2648 11.4867 20.2648 11.3072C20.2197 11.2623 20.13 11.3522 20.0852 11.3522C20.0401 11.3522 20.0401 11.2624 19.9955 11.3072C19.8606 11.2175 19.7261 11.2175 19.5462 11.2175C19.5014 11.0828 19.4564 10.9481 19.4564 10.7685H19.5015C20.2199 10.9931 20.8934 11.1725 21.6567 11.2624L21.7913 11.3522C22.1057 11.8909 22.33 12.3848 22.6894 12.8788C22.7791 12.9685 22.869 13.0584 22.869 13.1931C22.6894 13.5074 22.42 13.7318 22.1955 14.0012L22.1504 14.1358C22.1955 14.1808 22.2401 14.1808 22.2852 14.2256L23.183 14.0459L23.2728 14.001C23.2728 13.7764 23.3625 13.552 23.3179 13.3276C23.408 13.1919 23.5877 13.1919 23.6774 13.0572ZM12.812 3.98771L12.6323 3.13468C12.6323 3.08974 12.5426 3 12.4976 3.0448C11.8242 3.26936 11.3303 3.49393 10.6569 3.71835C10.612 3.76329 10.567 3.76329 10.4773 3.71835L9.44462 3C9.48956 3.44899 9.53451 3.85303 9.5793 4.1224C9.62424 4.16734 9.5793 4.16734 9.53451 4.16734C9.35488 4.16734 9.17526 4.34696 9.04057 4.52644C8.86095 4.84075 8.68147 5.11011 8.41211 5.24479C8.45705 5.37947 8.54679 5.46936 8.68147 5.51416C8.77121 5.51416 8.8611 5.51416 8.95084 5.5591C8.95084 5.60404 8.95084 5.60404 8.90589 5.64884C8.68147 6.09782 9.04057 6.68149 8.59159 6.9958C8.77121 7.08569 9.04057 6.9958 9.2202 6.81618C9.08552 7.13048 9.04057 7.48958 9.08552 7.80389C9.08552 7.89378 9.04057 8.02846 8.99578 8.1182C9.44477 8.07325 9.75907 7.53453 9.89375 7.08554V7.13048C9.84881 7.31011 9.71413 7.71415 9.89375 7.93857C9.9387 7.98351 9.98349 8.07325 10.0734 8.07325C10.1631 7.75895 10.2978 7.44464 10.5224 7.26516C10.7469 7.26516 10.9714 7.39985 11.1958 7.44479C11.3305 7.17542 11.106 6.72644 11.106 6.72644L11.3754 6.9958C11.5101 7.08569 11.8244 7.13048 12.004 7.04074C12.0937 6.951 12.1835 6.90606 12.1835 6.81618C11.5998 6.86112 11.5549 6.09782 11.2855 5.73872H11.3305C11.4651 5.82846 11.5549 6.00809 11.6897 6.09782L12.4978 6.27745L12.5875 6.18771C12.5875 6.05303 12.6773 5.8734 12.6325 5.73872C12.5427 5.64884 12.4978 5.82846 12.4081 5.82846C12.2284 5.73872 12.0937 5.73872 11.8693 5.64884L11.4653 4.88554V4.8406L12.0042 4.52629C12.049 4.57124 12.0939 4.66098 12.1388 4.70592C12.2735 4.66098 12.2286 4.4815 12.2735 4.39161C12.3633 4.39161 12.3633 4.4815 12.4082 4.57124C12.5429 4.57124 12.4979 4.34682 12.5878 4.25693C12.6325 4.16734 12.8569 4.16734 12.812 3.98771ZM20.4895 5.96329C20.6244 6.23265 20.5346 6.54696 20.3998 6.72658C20.2653 6.95115 19.9959 6.99595 19.7265 6.95115C19.5917 6.90621 19.4569 6.81647 19.3223 6.72658C19.1875 6.95115 18.9182 7.26531 18.6939 7.44493C18.5143 7.53467 18.2897 7.7143 18.0651 7.7143V7.62456C18.5144 7.17557 18.7387 6.45722 18.9632 6.09797C19.1429 5.69393 19.4122 5.46936 19.7265 5.46936C19.9959 5.46936 20.3998 5.69393 20.4895 5.96329ZM11.1956 4.34696C11.1956 4.48164 11.1059 4.57138 10.9712 4.57138C10.8365 4.57138 10.7468 4.48164 10.7468 4.34696C10.7468 4.21228 10.8365 4.1224 10.9712 4.1224C11.1059 4.1224 11.1956 4.21228 11.1956 4.34696Z" fill="black"/>
<path fill-rule="evenodd" clip-rule="evenodd" d="M21.7471 20.1963H23.6327V18.3553H21.7471V20.1963ZM22.8246 26.9308H23.6327V20.6002H22.8246V26.9308Z" fill="black"/>
</svg>
