<svg width="32" height="32" viewBox="0 0 32 32" fill="none" xmlns="http://www.w3.org/2000/svg">
<path d="M0 16C0 24.8365 7.16344 32 16 32C24.8365 32 32 24.8365 32 16C32 7.16344 24.8365 0 16 0C7.16344 0 0 7.16344 0 16Z" fill="#17ACE3"/>
<path d="M15.3341 6.21815C14.8181 6.21815 14.7121 6.30815 14.5341 6.49415C14.4701 6.49415 14.4001 6.49415 14.3341 6.49415C13.8653 6.47517 13.4013 6.59482 13.0001 6.83815C12.5801 7.11415 12.3801 7.60415 12.6001 7.96415C12.6001 7.96415 12.7501 7.74415 13.2441 7.74415C13.3121 7.74415 13.3901 7.74415 13.4721 7.75815C14.1541 7.83815 14.6581 8.19815 14.5961 9.14615C14.5341 10.0942 14.1961 11.1461 12.7341 11.1621C12.7341 11.1621 12.5461 11.1621 12.3461 11.1441C11.6701 11.0702 11.4581 10.6442 11.4581 10.6442C11.6435 10.5814 11.8028 10.4591 11.9113 10.2963C12.02 10.1335 12.0715 9.93933 12.0581 9.74413C12.0581 9.24015 11.6141 8.77815 10.9781 8.59015C10.7594 8.52885 10.5332 8.49855 10.3061 8.50015C9.89045 8.49871 9.48 8.59283 9.10655 8.77524C8.73307 8.95765 8.40651 9.22347 8.15209 9.55213C6.8701 11.2462 6.7661 13.7162 7.0781 16.0142C7.3901 18.3121 8.8541 20.4481 8.89609 20.5061C8.9381 20.5642 8.9541 20.5681 8.9861 20.5681C9.00465 20.5679 9.02243 20.5607 9.03609 20.5482C9.63718 19.9661 10.1403 19.2907 10.5261 18.5482C10.8001 18.7681 10.6581 19.2341 10.5061 19.7322C10.347 20.2185 10.1393 20.6875 9.88612 21.1322C9.76414 21.3462 9.60009 21.5942 9.82014 21.7322C9.84621 21.747 9.87614 21.7539 9.90607 21.7521C10.1881 21.7521 10.8521 21.2602 11.5961 20.2702C12.085 19.6119 12.5021 18.9032 12.8401 18.1562C12.9001 18.1701 13.0021 18.2741 12.9861 18.5562C12.9701 18.8382 12.6821 19.8981 12.1121 20.8842C11.754 21.4964 11.3473 22.0789 10.8961 22.6261C10.8301 22.7082 10.8961 22.7582 10.9301 22.7902C11.7087 23.4763 12.5605 24.0746 13.4701 24.5742C15.2241 25.5082 16.0001 25.6762 16.0001 25.6762C16.0001 25.6762 16.7761 25.5121 18.5301 24.5782C19.4423 24.0764 20.2944 23.4725 21.0701 22.7781C21.0855 22.7719 21.0989 22.7619 21.1095 22.749C21.12 22.7362 21.1272 22.7211 21.1304 22.7048C21.1335 22.6885 21.1326 22.6718 21.1276 22.6559C21.1227 22.6401 21.114 22.6257 21.1021 22.6142C20.6552 22.0664 20.2506 21.4854 19.8921 20.8762C19.3241 19.8961 19.0201 18.8321 19.0161 18.5502C19.0121 18.2682 19.1001 18.1742 19.1581 18.1502C19.5006 18.8941 19.9224 19.5988 20.4161 20.2522C21.1601 21.2421 21.8161 21.7342 22.1041 21.7342C22.1349 21.735 22.1654 21.7274 22.1921 21.7121C22.4061 21.5841 22.2461 21.3322 22.1221 21.1121C21.8727 20.6654 21.6644 20.1967 21.5001 19.7121C21.3561 19.2081 21.2041 18.7422 21.4861 18.5281C21.868 19.272 22.3701 19.9478 22.9721 20.5281C22.9791 20.5361 22.9877 20.5426 22.9974 20.5471C23.007 20.5516 23.0175 20.554 23.0281 20.5541C23.0455 20.551 23.0618 20.544 23.076 20.5336C23.0903 20.5232 23.1019 20.5097 23.1101 20.4942C23.1581 20.4321 24.6201 18.2942 24.9321 15.9982C25.2441 13.7022 25.1321 11.2321 23.8581 9.53811C23.6039 9.20747 23.2766 8.94007 22.9019 8.75687C22.5272 8.57368 22.1152 8.47965 21.6981 8.48215C21.4729 8.48053 21.2488 8.51083 21.0321 8.57215C20.3941 8.77215 19.9561 9.23016 19.9601 9.73011C19.9446 9.92409 19.9938 10.1178 20.1002 10.2807C20.2067 10.4436 20.3642 10.5665 20.5481 10.6302C20.5481 10.6302 20.3481 11.0442 19.6501 11.1281C19.524 11.1439 19.3972 11.1519 19.2701 11.1521C18.9945 11.1616 18.7214 11.0975 18.4789 10.9663C18.2363 10.8352 18.0331 10.6418 17.8901 10.4062C17.4901 9.85011 17.5061 8.70615 17.4901 8.32415C17.4741 7.94215 17.3881 7.06815 16.9821 6.71215C16.5761 6.35615 16.0801 6.22615 15.4641 6.20215H15.3401" fill="white"/>
</svg>
