<svg width="32" height="32" viewBox="0 0 32 32" fill="none" xmlns="http://www.w3.org/2000/svg">
<path d="M0 16C0 24.8365 7.16344 32 16 32C24.8365 32 32 24.8365 32 16C32 7.16344 24.8365 0 16 0C7.16344 0 0 7.16344 0 16Z" fill="#EFEFEF"/>
<path d="M26.9 17.91C26.2233 17.1776 25.4551 16.5356 24.614 16C25.449 15.458 26.2136 14.8144 26.89 14.084C26.0024 13.6345 25.0616 13.2986 24.09 13.084C24.6851 12.2854 25.1864 11.4211 25.584 10.508C24.5948 10.3872 23.5944 10.3906 22.606 10.518C22.9016 9.56442 23.075 8.57721 23.122 7.58C22.1502 7.80339 21.2098 8.14599 20.322 8.6C20.2689 7.60427 20.0964 6.61854 19.808 5.664C18.9756 6.21042 18.211 6.85357 17.53 7.58C17.1413 6.66202 16.6408 5.79548 16.04 5C15.4412 5.79864 14.9429 6.66782 14.556 7.588C13.8818 6.85416 13.117 6.209 12.28 5.668C11.9897 6.62079 11.8165 7.60536 11.764 8.6C10.8755 8.14774 9.93525 7.80522 8.96402 7.58C9.01864 8.57699 9.1946 9.56358 9.488 10.518C8.49589 10.394 7.49216 10.394 6.50002 10.518C6.88911 11.4347 7.39315 12.2984 8.00002 13.088C7.02917 13.3145 6.08908 13.6569 5.20002 14.108C5.87816 14.8385 6.64708 15.479 7.48802 16.014C6.65195 16.5554 5.88671 17.1991 5.21002 17.93C6.09792 18.379 7.03858 18.7149 8.01002 18.93C7.41347 19.728 6.91145 20.5924 6.51402 21.506C7.49977 21.625 8.49627 21.625 9.48198 21.506C9.18723 22.4555 9.0145 23.4388 8.96802 24.432C9.94033 24.2103 10.8809 23.8676 11.768 23.412C11.8146 24.4122 11.9866 25.4026 12.28 26.36C13.1142 25.816 13.8785 25.1719 14.556 24.442C14.9464 25.3624 15.4482 26.2316 16.05 27.03C16.6495 26.2318 17.148 25.3625 17.534 24.442C18.2104 25.1776 18.9796 25.8224 19.822 26.36C20.1122 25.4052 20.2848 24.4186 20.336 23.422C21.2241 23.8754 22.1644 24.218 23.136 24.442C23.0807 23.4488 22.904 22.4663 22.61 21.516C23.5988 21.6401 24.5992 21.6401 25.588 21.516C25.2021 20.5971 24.7 19.7314 24.094 18.94C25.0661 18.7065 26.0077 18.3608 26.9 17.91Z" fill="#0D9948"/>
<path d="M24.098 18.93C23.5804 18.2458 22.9752 17.6326 22.298 17.106C23.1145 16.839 23.8931 16.4672 24.614 16C23.8918 15.5361 23.1117 15.1689 22.294 14.9079C22.9714 14.3777 23.5765 13.7611 24.094 13.074C23.2567 12.8794 22.3968 12.7993 21.538 12.8359C21.9961 12.1097 22.3534 11.3245 22.6 10.502C21.747 10.6071 20.9117 10.8251 20.116 11.15C20.2989 10.3077 20.3662 9.44441 20.316 8.58398C19.5539 8.97717 18.8471 9.46945 18.214 10.048C18.0958 9.19613 17.8638 8.36402 17.524 7.57397C16.9368 8.20453 16.4376 8.91161 16.04 9.67594C15.6385 8.91515 15.1359 8.21211 14.546 7.58597C14.2137 8.37306 13.9884 9.20108 13.876 10.048C13.2368 9.47227 12.5231 8.98525 11.754 8.59998C11.7091 9.46032 11.7764 10.3229 11.954 11.166C11.1581 10.8436 10.3227 10.629 9.47003 10.528C9.72584 11.3468 10.0861 12.1292 10.542 12.856C9.67963 12.8288 8.81724 12.9121 7.976 13.104C8.49357 13.7881 9.09875 14.4014 9.776 14.928C8.9584 15.1938 8.17861 15.5642 7.456 16.03C8.17846 16.4934 8.9584 16.8606 9.776 17.122C9.09866 17.6523 8.49353 18.2688 7.976 18.9559C8.81 19.1501 9.66645 19.2302 10.522 19.194C10.0635 19.9215 9.70626 20.708 9.45995 21.5319C10.3132 21.428 11.1487 21.2101 11.944 20.8839C11.7659 21.7236 11.6987 22.5829 11.744 23.44C12.5079 23.0486 13.2177 22.5598 13.856 21.986C13.9744 22.8366 14.203 23.6683 14.536 24.4599C15.1171 23.8281 15.6157 23.1253 16.02 22.368C16.4213 23.1296 16.9239 23.8333 17.514 24.4599C17.8487 23.6663 18.0792 22.8327 18.2 21.9799C18.8384 22.5582 19.5523 23.0473 20.322 23.434C20.3672 22.5769 20.3 21.7175 20.122 20.878C20.9158 21.2005 21.7492 21.415 22.6 21.5159C22.3442 20.6971 21.9838 19.9147 21.528 19.1879C22.392 19.2077 23.2552 19.121 24.098 18.93Z" fill="#97C93C"/>
<path d="M20.3259 16.014C21.0368 15.7464 21.704 15.375 22.306 14.912C21.5858 14.6828 20.8357 14.5608 20.08 14.55C20.6578 14.0612 21.1546 13.4841 21.552 12.84C20.7958 12.8672 20.0486 13.0136 19.338 13.274C19.7127 12.6151 19.9826 11.9019 20.138 11.16C19.4365 11.4481 18.7831 11.8412 18.2 12.326C18.3242 11.5758 18.3343 10.8112 18.23 10.058C17.6672 10.5699 17.1851 11.1639 16.8 11.82C16.6627 11.0722 16.4132 10.3493 16.06 9.67603C15.7114 10.3433 15.4653 11.0594 15.33 11.8C14.9445 11.146 14.4608 10.5552 13.896 10.048C13.7933 10.8006 13.8041 11.5645 13.928 12.314C13.343 11.8298 12.6856 11.4404 11.98 11.16C12.1345 11.9022 12.4044 12.6155 12.78 13.274C12.067 13.0215 11.3198 12.8786 10.564 12.85C10.9719 13.4875 11.4681 14.0639 12.038 14.562C11.2778 14.5651 10.5227 14.6865 9.8 14.922C10.3977 15.3878 11.0653 15.7564 11.778 16.014C11.0678 16.2816 10.4012 16.653 9.8 17.116C10.5213 17.3405 11.2707 17.4624 12.026 17.478C11.4465 17.9684 10.946 18.5452 10.542 19.188C11.2976 19.1588 12.0445 19.0164 12.758 18.766C12.3832 19.4242 12.1133 20.1367 11.958 20.878C12.6584 20.5902 13.3112 20.1977 13.894 19.714C13.7707 20.4602 13.7607 21.2208 13.864 21.97C14.4278 21.4623 14.9106 20.8715 15.296 20.218C15.4349 20.9625 15.685 21.6819 16.038 22.352C16.391 21.6819 16.641 20.9625 16.78 20.218C17.1654 20.8715 17.6482 21.4623 18.212 21.97C18.3164 21.2208 18.3063 20.4601 18.182 19.714C18.7683 20.1978 19.4244 20.5902 20.128 20.878C19.9736 20.1364 19.7035 19.4238 19.328 18.766C20.0441 19.0167 20.7938 19.1589 21.552 19.188C21.1454 18.5477 20.6459 17.9715 20.0699 17.478C20.8296 17.4739 21.5839 17.3518 22.306 17.116C21.7075 16.6476 21.0394 16.2757 20.3259 16.014Z" fill="#F5EA14"/>
<path d="M18.214 16.3836C18.9319 16.3803 19.6434 16.2504 20.316 15.9996C19.6433 15.7496 18.9317 15.6202 18.214 15.6177C18.8885 15.3703 19.513 15.0039 20.058 14.5356C19.3383 14.5316 18.6233 14.6541 17.946 14.8977C18.4973 14.4337 18.9613 13.8749 19.316 13.2476C18.6408 13.4909 18.0134 13.8503 17.462 14.3097C17.8161 13.6895 18.0603 13.0129 18.184 12.3097C17.6262 12.7706 17.1525 13.3248 16.784 13.9477C16.908 13.2391 16.908 12.5143 16.784 11.8057C16.4248 12.42 16.1769 13.093 16.052 13.7937C15.9248 13.0884 15.6736 12.4112 15.31 11.7937C15.1827 12.5024 15.1793 13.2278 15.3 13.9377C14.9383 13.3159 14.4713 12.7617 13.92 12.2997C14.0404 13.0035 14.2841 13.6806 14.64 14.2997C14.0872 13.8424 13.4601 13.4832 12.786 13.2377C13.1435 13.8623 13.6072 14.4201 14.156 14.8857C13.4816 14.6444 12.7703 14.5225 12.054 14.5257C12.602 14.9865 13.225 15.3497 13.896 15.5996C13.1751 15.6025 12.4602 15.7318 11.784 15.9817C12.4571 16.2299 13.1686 16.3586 13.886 16.3617C13.2099 16.6121 12.5826 16.9782 12.032 17.4437C12.7516 17.4475 13.4664 17.3257 14.144 17.0837C13.5928 17.5469 13.1288 18.105 12.774 18.7317C13.4503 18.4907 14.078 18.131 14.628 17.6697C14.2716 18.2956 14.028 18.9794 13.908 19.6897C14.4595 19.2317 14.9265 18.6807 15.288 18.0617C15.164 18.7676 15.164 19.4897 15.288 20.1957C15.6539 19.5797 15.9084 18.904 16.04 18.1996C16.169 18.9045 16.4201 19.5813 16.782 20.1996C16.906 19.4937 16.906 18.7716 16.782 18.0657C17.1403 18.6875 17.6086 19.2392 18.164 19.6937C18.0419 18.99 17.7975 18.3131 17.442 17.6937C17.9966 18.1533 18.6275 18.5121 19.306 18.7537C18.9484 18.1289 18.4849 17.5713 17.936 17.1057C18.6135 17.3485 19.3284 17.4704 20.048 17.4657C19.5025 17.0035 18.8824 16.6376 18.214 16.3836Z" fill="white"/>
<path d="M16 0.666666C24.4 0.666666 31.3334 7.6 31.3334 16C31.3334 24.4 24.4 31.3334 16 31.3334C7.6 31.3334 0.666666 24.4 0.666666 16C0.666666 7.6 7.6 0.666666 16 0.666666ZM16 0C7.2 0 0 7.2 0 16C0 24.8 7.2 32 16 32C24.8 32 32 24.8 32 16C32 7.2 24.8 0 16 0Z" fill="#999999"/>
</svg>
