<svg width="32" height="32" viewBox="0 0 32 32" fill="none" xmlns="http://www.w3.org/2000/svg">
<path d="M0 16C0 24.8365 7.16344 32 16 32C24.8365 32 32 24.8365 32 16C32 7.16344 24.8365 0 16 0C7.16344 0 0 7.16344 0 16Z" fill="#EFEFEF"/>
<path d="M16 0.666666C24.4 0.666666 31.3334 7.6 31.3334 16C31.3334 24.4 24.4 31.3334 16 31.3334C7.6 31.3334 0.666666 24.4 0.666666 16C0.666666 7.6 7.6 0.666666 16 0.666666ZM16 0C7.2 0 0 7.2 0 16C0 24.8 7.2 32 16 32C24.8 32 32 24.8 32 16C32 7.2 24.8 0 16 0Z" fill="#999999"/>
<path d="M8.46805 15.9998L16.0001 11.4418L23.532 15.9998L16.0001 20.5578L8.46805 15.9998ZM16.0001 8.39978L3.44405 15.9998L16.0001 23.5998L28.556 15.9998L16.0001 8.39978Z" fill="#EB2026"/>
<path d="M21.962 13.6259H10.034V18.3739H21.962V13.6259Z" fill="#0C4F9F"/>
<path d="M19.6 16.2921C19.6 15.9821 19.708 15.6661 20.066 15.6661C20.424 15.6661 20.538 15.9781 20.538 16.2921C20.538 16.6061 20.432 16.9161 20.066 16.9161C19.7 16.9161 19.6 16.6001 19.6 16.2921ZM19.068 16.2921C19.0735 16.4886 19.1368 16.6791 19.25 16.8399C19.3631 17.0005 19.5211 17.1244 19.7043 17.1957C19.8874 17.2672 20.0876 17.2831 20.2797 17.2414C20.4718 17.1997 20.6473 17.1023 20.7844 16.9614C20.9215 16.8205 21.0139 16.6423 21.0504 16.4491C21.0867 16.256 21.0653 16.0563 20.9889 15.8753C20.9125 15.6941 20.7843 15.5395 20.6205 15.4308C20.4568 15.3222 20.2646 15.2641 20.068 15.2641C19.9323 15.2568 19.7967 15.2786 19.6701 15.3281C19.5436 15.3776 19.4292 15.4535 19.3344 15.5509C19.2397 15.6482 19.167 15.7648 19.1209 15.8927C19.075 16.0205 19.0569 16.1567 19.068 16.2921ZM17.76 17.2661H18.292V16.3881C18.292 16.0441 18.426 15.7601 18.814 15.7601C18.8772 15.76 18.9402 15.7666 19.002 15.7801V15.2821C18.9645 15.27 18.9254 15.2639 18.886 15.2641C18.7543 15.2662 18.6261 15.3065 18.5167 15.3799C18.4074 15.4534 18.3217 15.5569 18.27 15.6781V15.3161H17.754V17.2661H17.76ZM17.03 14.7341H16.498V15.3161H16.176V15.6761H16.498V16.8241C16.498 17.2121 16.78 17.2881 17.108 17.2881C17.2123 17.2897 17.3167 17.2831 17.42 17.2681V16.8501C17.366 16.8613 17.3111 16.8667 17.256 16.8661C17.076 16.8661 17.032 16.8221 17.032 16.6401V15.6761H17.42V15.3161H17.032V14.7341H17.03ZM14.65 16.0821C14.6502 16.0255 14.6618 15.9695 14.6843 15.9175C14.7068 15.8656 14.7397 15.8187 14.7808 15.7797C14.8219 15.7409 14.8706 15.7107 14.9238 15.6912C14.9768 15.6717 15.0334 15.6631 15.09 15.6661C15.348 15.6661 15.464 15.8081 15.512 16.0821H14.65ZM16.05 16.4221C16.088 15.8221 15.77 15.2661 15.112 15.2661C14.9783 15.2642 14.8456 15.2899 14.7224 15.3416C14.5991 15.3933 14.4878 15.4699 14.3954 15.5665C14.3031 15.6632 14.2316 15.7779 14.1856 15.9034C14.1396 16.0289 14.12 16.1626 14.128 16.2961C14.128 16.8961 14.506 17.3221 15.112 17.3221C15.3128 17.3329 15.5112 17.2736 15.6732 17.1542C15.8352 17.035 15.9507 16.8631 16 16.6681H15.54C15.5032 16.7468 15.4438 16.8129 15.3693 16.8577C15.2949 16.9025 15.2088 16.9243 15.122 16.9201C14.826 16.9201 14.662 16.7641 14.646 16.4241H16.046L16.05 16.4221ZM10.976 17.2661H11.526V15.3761L12.188 17.2661H12.642L13.296 15.3601V17.2661H13.844V14.5781H13.026L12.426 16.4281L11.8 14.5781H10.976V17.2661Z" fill="white"/>
</svg>
