<svg width="32" height="32" viewBox="0 0 32 32" fill="none" xmlns="http://www.w3.org/2000/svg">
<path d="M0 16C0 24.8365 7.16344 32 16 32C24.8365 32 32 24.8365 32 16C32 7.16344 24.8365 0 16 0C7.16344 0 0 7.16344 0 16Z" fill="#00A66D"/>
<path d="M23.27 9.81604C21.67 10.756 21.1681 10.834 19.43 11.876C20.1695 11.108 20.8389 10.2753 21.43 9.38803C19.83 9.47401 17.4881 9.66799 15.8161 10.034C17.2641 9.26403 20.1441 8.40003 21.66 8.20003C21.308 7.71203 18.46 6.16803 17.748 5.87402C20.006 6.04803 22.764 6.87402 24.0981 7.71002C24.636 7.54602 25.174 7.53402 26.148 7.44803C25.9 7.87603 25.8961 8.12403 24.934 8.75802C25.2001 9.47006 24.566 13.384 24.0421 14.426C24.02 12.786 23.8741 10.716 23.27 9.82601" fill="white"/>
<path d="M11.528 23.8562C10.6616 23.5544 9.87068 23.0686 9.20996 22.4322C9.42588 21.8371 9.72122 21.274 10.088 20.7581C9.33396 20.8661 8.78996 20.9481 8.14196 21.0741C7.61396 20.1522 7.37995 19.2741 7.10795 18.0381C6.96395 19.3421 6.90795 20.2741 7.10795 21.3161C6.59149 21.4482 6.08705 21.6235 5.59995 21.8402C6.24109 22.2508 6.90928 22.6177 7.59995 22.9381C7.96074 23.7459 8.4757 24.4755 9.11595 25.0861C8.95897 24.5552 8.91201 23.9978 8.97796 23.4482C9.80649 23.697 10.665 23.8316 11.53 23.8482" fill="white"/>
<path d="M13.9281 10.8383C13.6196 11.2608 13.3793 11.7292 13.2161 12.2263C14.7288 12.4617 16.1825 12.9851 17.4981 13.7683C15.412 13.4003 14.324 13.4463 13.55 13.5163C12.7761 13.5863 12.622 13.6843 12.622 13.6843C12.062 14.9003 11.726 17.0143 11.726 17.0143C11.35 16.1063 10.8001 14.2803 10.8001 14.2803C9.7521 14.8423 7.34605 17.1063 7.34605 17.1063C8.67005 14.4543 10.012 13.2383 10.014 13.2383C9.55003 12.7783 8.34005 12.5463 7.45605 12.5063C7.91605 12.3063 9.09805 12.0943 10.004 12.0563C10.4888 12.0353 10.9744 12.0447 11.4581 12.0843C12.27 11.4423 13.4981 10.9023 13.9281 10.8383Z" fill="white"/>
<path d="M16.4419 22.2139C16.0199 22.7799 15.6639 23.2279 15.1959 23.7499C14.4766 23.9549 13.7319 24.0566 12.9839 24.0519C13.4374 24.2849 13.9215 24.4526 14.4219 24.5499C13.9889 24.9528 13.5204 25.3156 13.0219 25.6339C13.9553 25.4241 14.8557 25.0876 15.6979 24.6339C16.0605 24.6495 16.4237 24.6281 16.7819 24.5699C16.7159 24.3239 16.6659 24.1459 16.6019 23.8319C17.2806 23.3012 17.9196 22.7216 18.5139 22.0979C17.8836 22.5463 17.2142 22.9372 16.5139 23.2659C16.4779 22.9139 16.4539 22.6179 16.4359 22.2219" fill="white"/>
</svg>
