<svg width="32" height="32" viewBox="0 0 32 32" fill="none" xmlns="http://www.w3.org/2000/svg">
<path d="M0 16C0 24.8365 7.16344 32 16 32C24.8365 32 32 24.8365 32 16C32 7.16344 24.8365 0 16 0C7.16344 0 0 7.16344 0 16Z" fill="#242F68"/>
<path d="M11.2 12.0376C10.9546 12.1153 10.6971 12.1479 10.44 12.1336H7.69404C6.15205 12.1336 5.20005 12.6376 5.05004 13.3997C5.02326 13.5269 5.03225 13.6592 5.07605 13.7816H5.58805C5.62604 12.9656 6.50604 12.4976 7.87404 12.4976H8.63804C8.14063 12.7776 7.75233 13.2174 7.53605 13.7456C7.53087 13.7586 7.52486 13.7713 7.51804 13.7837H8.28805C8.57804 13.0696 8.77804 12.7037 9.07605 12.4976H10.188C10.788 12.4816 11.056 12.3277 11.24 12.0976L11.2 12.0376ZM7.52005 13.7776C7.40805 14.0436 7.08005 14.8797 6.82204 15.5636C6.73004 15.7997 6.65004 16.0216 6.60005 16.1997C6.30405 16.9997 6.11404 17.3597 5.87804 17.4936L5.91804 17.5656C6.58005 17.6056 6.97404 17.2656 7.22805 16.6397C7.35205 16.3357 7.49804 15.9416 7.62805 15.5716C7.75804 15.2016 7.87004 14.8976 7.94604 14.6916C8.08005 14.3416 8.19404 14.0416 8.29605 13.7896L7.52005 13.7776ZM5.07804 13.7776C5.11723 13.894 5.19 13.9962 5.28715 14.0713C5.38432 14.1464 5.50154 14.191 5.62405 14.1997L5.66405 14.1716C5.60922 14.0556 5.58316 13.928 5.58805 13.7997V13.7776H5.07804ZM17.248 12.0976C16.476 12.0976 15.52 12.2816 14.848 13.6596C14.7259 13.678 14.6081 13.7179 14.5 13.7776C14.4315 13.8181 14.3689 13.868 14.3141 13.9256L14.344 13.9896C14.467 13.9518 14.5956 13.9355 14.724 13.9416C14.6341 14.1677 14.448 14.6637 14.26 15.1636C14.1574 15.3034 14.0465 15.4369 13.928 15.5636C13.484 16.0356 13.0581 16.2576 12.728 16.2616C12.502 16.2616 12.4101 16.1437 12.4101 15.9236C12.4103 15.8025 12.4237 15.6818 12.4501 15.5636C12.4501 15.5396 12.4501 15.5176 12.4661 15.4996C12.9439 15.2847 13.3795 14.986 13.752 14.6176C13.9615 14.4298 14.0964 14.1728 14.132 13.8936C14.1334 13.8546 14.1293 13.8156 14.12 13.7776C14.078 13.6176 13.9381 13.5396 13.6981 13.5357H13.652C13.3953 13.5562 13.1474 13.6393 12.9301 13.7776C12.7507 13.8883 12.5872 14.0229 12.444 14.1776C12.08 14.5718 11.8256 15.0545 11.7061 15.5776C11.684 15.6869 11.6726 15.7982 11.672 15.9096C11.672 16.3096 11.872 16.6596 12.438 16.6456C13.038 16.6276 13.568 16.2816 14.038 15.7936C13.92 16.1076 13.8181 16.3776 13.76 16.5216C13.584 16.9556 13.4581 17.3037 13.192 17.5076L13.224 17.5597C14.0021 17.6036 14.294 17.0576 14.624 16.1597C14.6981 15.9597 14.764 15.7597 14.824 15.5757C15.054 14.9277 15.256 14.3757 15.424 13.9456C15.7901 13.9625 16.157 13.9457 16.52 13.8957C15.958 14.1437 15.4661 14.8957 15.32 15.5757C15.2812 15.7426 15.2684 15.9147 15.2821 16.0856C15.2839 16.1656 15.3026 16.2443 15.3368 16.3167C15.3711 16.3889 15.4202 16.4532 15.4809 16.5053C15.5416 16.5573 15.6127 16.596 15.6894 16.6189C15.7661 16.6416 15.8467 16.648 15.926 16.6376C16.526 16.6376 17.062 16.1117 17.404 15.5757C17.5109 15.4075 17.6039 15.2308 17.6821 15.0477C17.8243 14.736 17.9135 14.4027 17.9461 14.0616C18.1461 14.0256 18.324 13.9917 18.414 13.9776C18.596 13.9536 18.56 14.1496 18.5061 14.3037C18.3621 14.7037 18.18 15.1636 18.014 15.5757C17.788 16.1336 17.596 16.5757 17.596 16.5936H18.232C18.432 16.1716 18.576 15.8616 18.726 15.5757C18.78 15.4696 18.8341 15.3757 18.892 15.2676C19.1541 14.8116 19.7461 14.0557 19.982 14.0557C20.064 14.0557 20.086 14.1096 20.07 14.1896C20.038 14.3896 19.67 15.0157 19.454 15.5757H20.164C20.214 15.4576 20.262 15.3556 20.2981 15.2816C20.4981 14.8637 20.84 14.2536 20.82 13.9216C20.8173 13.8771 20.8057 13.8336 20.7861 13.7936H19.844C19.4766 14.0594 19.1698 14.4003 18.944 14.7936H18.9301C19.0792 14.5027 19.1817 14.1903 19.2341 13.8676C19.235 13.8483 19.235 13.8289 19.2341 13.8096C19.2101 13.6896 19.1221 13.6376 18.952 13.6416C18.7808 13.6568 18.6118 13.6911 18.448 13.7437L18.1861 13.8096C18.008 13.8557 17.822 13.8996 17.624 13.9416C17.4261 13.9837 17.384 13.9976 17.384 14.0616C17.3829 14.5864 17.2508 15.1026 17 15.5636C16.774 15.9816 16.4901 16.2736 16.26 16.2736C16.06 16.2736 16.0101 16.1316 16.0101 15.9277C16.0112 15.8051 16.0253 15.6832 16.052 15.5636C16.192 14.8676 16.684 13.9917 17.166 13.8317C17.2181 13.8157 17.2661 13.8077 17.3 13.7976V13.7776L17.36 13.5997C17.1748 13.6207 16.9884 13.6301 16.8021 13.6276C16.6501 13.6276 15.544 13.6276 15.544 13.6276C15.876 12.8276 16.344 12.3256 17.022 12.2996C17.448 12.2797 17.7301 12.4397 17.756 12.6856C17.7672 12.7856 17.755 12.8868 17.7203 12.9812C17.6856 13.0756 17.6294 13.1607 17.556 13.2296L17.604 13.2736C17.974 13.0976 18.2341 12.7976 18.2341 12.5936C18.232 12.2877 17.856 12.0916 17.246 12.0976H17.248ZM19.848 13.7776H20.79C20.7486 13.714 20.69 13.6635 20.6209 13.632C20.5518 13.6004 20.4752 13.5892 20.4 13.5997C20.2012 13.6067 20.0082 13.6683 19.8421 13.7776H19.848ZM19.4581 15.5636C19.3555 15.7845 19.2952 16.0226 19.28 16.2656C19.2729 16.4308 19.3267 16.5928 19.431 16.7211C19.5352 16.8493 19.6829 16.9349 19.846 16.9616L19.916 16.9197C19.8772 16.8224 19.8594 16.7182 19.864 16.6136C19.9026 16.2491 20.0055 15.8943 20.168 15.5656L19.4581 15.5636ZM22.504 12.4216C22.4072 12.4299 22.3159 12.4695 22.2437 12.5345C22.1714 12.5995 22.1224 12.6863 22.104 12.7816C22.09 12.8214 22.0856 12.864 22.0914 12.9056C22.0971 12.9474 22.1128 12.9872 22.1371 13.0217C22.1614 13.0561 22.1936 13.0843 22.231 13.1038C22.2683 13.1232 22.3099 13.1335 22.352 13.1336C22.4487 13.124 22.5397 13.0836 22.6117 13.0185C22.6837 12.9534 22.7329 12.8668 22.752 12.7716C22.7654 12.7315 22.769 12.6888 22.7625 12.647C22.756 12.6052 22.7398 12.5656 22.7149 12.5314C22.6901 12.4972 22.6575 12.4694 22.6198 12.4503C22.582 12.4312 22.5403 12.4214 22.4981 12.4216H22.504ZM12.572 12.4397L11.952 12.5576C11.9111 12.569 11.8733 12.5897 11.8417 12.6181C11.8101 12.6466 11.7856 12.682 11.7701 12.7216C11.6101 13.0536 11.4501 13.3976 11.278 13.7776H11.984C12.214 13.2637 12.4341 12.7997 12.566 12.4397H12.572ZM11.278 13.7776C11.126 14.1197 10.9621 14.4877 10.784 14.8996C10.742 14.9917 10.696 15.0996 10.656 15.1936C10.564 15.3197 10.468 15.4456 10.364 15.5636C10.0181 15.9636 9.616 16.2576 9.25804 16.2616C9.05804 16.2616 8.97605 16.1536 8.97605 15.9277C8.97936 15.8052 8.9941 15.6833 9.02005 15.5636C9.02005 15.5396 9.02005 15.5176 9.03605 15.4996C9.51341 15.2838 9.9488 14.9852 10.3221 14.6176C10.5325 14.4308 10.667 14.1731 10.7 13.8936C10.7014 13.8546 10.6973 13.8156 10.688 13.7776C10.648 13.6176 10.508 13.5396 10.268 13.5357H10.222C9.96452 13.5559 9.71595 13.639 9.49807 13.7776C9.31865 13.8883 9.15515 14.0229 9.01205 14.1776C8.64709 14.5709 8.3931 15.0541 8.27605 15.5776C8.2543 15.687 8.24225 15.7982 8.24005 15.9096C8.24005 16.3277 8.44005 16.6596 8.97605 16.6456C9.55407 16.6276 10.12 16.1796 10.412 15.8616C10.3747 15.9823 10.3539 16.1074 10.35 16.2336C10.3404 16.4032 10.3903 16.5706 10.4911 16.7072C10.5919 16.8438 10.7372 16.9408 10.902 16.9816L10.976 16.9476C10.9389 16.8356 10.9259 16.717 10.9381 16.5997C10.9823 16.2414 11.0751 15.8908 11.214 15.5576C11.246 15.4736 11.2821 15.3876 11.318 15.2957C11.518 14.7997 11.7541 14.2676 11.9781 13.7757L11.278 13.7776ZM24.142 13.5776C23.8817 13.5842 23.6266 13.6528 23.398 13.7776C23.2085 13.8839 23.0364 14.0188 22.888 14.1776C22.5295 14.5682 22.275 15.0429 22.148 15.5576C22.134 15.6397 22.116 15.7156 22.11 15.7876C21.888 16.0496 21.64 16.2216 21.4741 16.2256C21.4537 16.2295 21.4328 16.2286 21.413 16.2229C21.3931 16.2173 21.3749 16.207 21.3597 16.193C21.3446 16.179 21.3329 16.1616 21.3256 16.1423C21.3184 16.123 21.3158 16.1022 21.318 16.0816C21.3332 15.9155 21.3743 15.7529 21.44 15.5997C21.44 15.5856 21.44 15.5736 21.456 15.5616C21.656 15.0717 21.9301 14.4776 22.268 13.7757C22.294 13.7256 22.32 13.6676 22.3461 13.6136C22.3461 13.6136 21.768 13.7117 21.684 13.7316C21.6502 13.7418 21.6179 13.7566 21.588 13.7757C21.5445 13.8067 21.51 13.8488 21.488 13.8976C21.2421 14.4176 20.95 15.0276 20.764 15.4776C20.764 15.5076 20.742 15.5316 20.732 15.5616C20.6481 15.7634 20.5974 15.9775 20.582 16.1956C20.582 16.4736 20.758 16.6456 21.096 16.6397C21.4792 16.5976 21.8343 16.4186 22.096 16.1357C22.1541 16.4376 22.3701 16.6557 22.814 16.6436C23.2901 16.5957 23.7289 16.3648 24.038 15.9997C24.038 16.0317 24.038 16.0656 24.038 16.0976C24.0296 16.1687 24.0369 16.2408 24.0597 16.3087C24.0824 16.3765 24.1198 16.4384 24.1693 16.4901C24.2189 16.5418 24.2792 16.5818 24.3462 16.6073C24.413 16.6328 24.4847 16.6432 24.556 16.6376C24.9381 16.6376 25.38 16.3496 25.724 15.8557H25.736C25.6977 16.0029 25.6743 16.1536 25.6661 16.3056C25.6519 16.4608 25.6986 16.6154 25.7964 16.7367C25.8942 16.858 26.0354 16.9365 26.19 16.9556L26.26 16.9256C26.152 16.6557 26.304 15.9796 26.372 15.7576C26.3941 15.6896 26.416 15.6237 26.438 15.5576C26.6447 14.9491 26.8857 14.3528 27.16 13.7716L27.176 13.7396C27.0064 13.6385 26.8115 13.5878 26.614 13.5936H26.488C26.1908 13.5938 25.8967 13.6551 25.624 13.7736C25.1165 14.0203 24.7031 14.4254 24.446 14.9277C24.3293 15.1176 24.2315 15.3185 24.1541 15.5277L24.132 15.5536C24.056 15.6496 23.982 15.7357 23.948 15.7696C23.736 15.9696 23.436 16.2317 23.132 16.2397C22.956 16.2397 22.862 16.1176 22.864 15.9037C22.8651 15.7867 22.8778 15.6701 22.902 15.5556C23.06 14.7656 23.6661 13.8216 24.102 13.8176C24.24 13.8176 24.302 13.8776 24.302 13.9936C24.2856 14.1665 24.2049 14.3271 24.076 14.4436L24.134 14.4936C24.462 14.3677 24.772 14.1336 24.774 13.8936C24.7746 13.8517 24.7664 13.8102 24.75 13.7716C24.644 13.5997 24.3781 13.5677 24.136 13.5677L24.142 13.5776ZM10.07 13.8356C10.164 13.8356 10.2021 13.9016 10.2021 13.9896C10.2021 14.3896 9.712 14.8896 9.08805 15.2596C9.24604 14.6436 9.68207 13.8356 10.07 13.8356ZM13.508 13.8356C13.6021 13.8356 13.638 13.9016 13.638 13.9896C13.638 14.3896 13.15 14.8896 12.528 15.2596C12.68 14.6436 13.12 13.8356 13.508 13.8356ZM26.308 13.8557C26.3604 13.854 26.4128 13.8587 26.464 13.8696C26.416 13.9696 26.192 14.4196 26.0181 14.8256C25.9054 15.0823 25.7716 15.3292 25.6181 15.5636C25.404 15.8856 25.168 16.1336 24.94 16.1917C24.806 16.2237 24.74 16.1656 24.74 16.0416C24.7515 15.8785 24.7851 15.7177 24.84 15.5636C25.04 14.9636 25.5141 14.1636 25.99 13.9376C26.0909 13.8875 26.2014 13.8595 26.3141 13.8557H26.308ZM14.8 18.7856C8.78805 18.7856 3.05205 18.8676 3.05205 18.9576C3.05205 19.0477 9.57807 19.1316 16.004 19.1316C22.43 19.1316 28.9541 19.0536 28.9541 18.9576C28.9541 18.8616 22.428 18.7856 16.004 18.7856C15.6 18.7856 15.2 18.7837 14.8 18.7856Z" fill="white"/>
</svg>
