<svg width="32" height="32" viewBox="0 0 32 32" fill="none" xmlns="http://www.w3.org/2000/svg">
<path d="M16 0C7.16344 0 0 7.16344 0 16C0 24.8365 7.16344 32 16 32C24.8365 32 32 24.8365 32 16C32 7.16344 24.8365 0 16 0Z" fill="#283980"/>
<mask id="mask0" mask-type="alpha" maskUnits="userSpaceOnUse" x="0" y="0" width="32" height="32">
<path d="M16 0C7.16344 0 0 7.16344 0 16C0 24.8365 7.16344 32 16 32C24.8365 32 32 24.8365 32 16C32 7.16344 24.8365 0 16 0Z" fill="#283980"/>
</mask>
<g mask="url(#mask0)">
<path d="M21.2241 14L32.0001 0H30.4001L19.5841 14H21.2241Z" fill="#D92A27"/>
</g>
<path d="M25.31 20.1341C25.656 21.1001 25.942 22.1101 26.2741 23.0881C26.4901 23.6881 26.83 24.9141 27.224 25.4001H24.5541C24.5541 24.6381 24.254 23.9381 24.056 23.2161C23.8821 22.7141 23.756 22.2001 23.572 21.6921L23.524 21.4921L23.476 21.3321L23.428 21.2041L23.396 21.0761L23.364 20.9941L23.348 20.9461V20.9301H19.102L18.4261 21.8781L18.4421 21.8941L18.4581 21.9741L18.5061 22.1021L18.5541 22.2641L18.6181 22.4641C18.7461 22.8461 18.86 23.2421 18.988 23.6201C19.1486 24.2482 19.4036 24.8483 19.744 25.4001H17.188C17.1321 24.9296 17.0241 24.4668 16.8661 24.0201C16.4573 24.4164 16.1245 24.8841 15.884 25.4001H13.884C13.8163 24.9056 13.6921 24.4204 13.5141 23.9541C13.0741 24.5541 12.8981 24.6881 12.566 25.4001H10.6C11.476 24.6001 12.2 23.5761 12.916 22.6381L12.416 20.9361H8.20003V20.9521L8.10203 21.048L8.03803 21.1461L7.95803 21.2581L7.86203 21.3861L7.74803 21.5461L7.62003 21.6921C7.25803 22.2001 6.85603 22.6761 6.49403 23.184C5.95203 23.8921 5.31403 24.6141 4.89403 25.4001H2.83203L3.16203 25.1161C3.5073 24.7884 3.82317 24.431 4.10603 24.048C4.40803 23.6781 4.70603 23.3021 4.99003 22.9241C5.82203 21.8741 6.63203 20.8161 7.43603 19.7441C8.55403 18.2001 10.096 16.6001 10.8501 14.8521H13.022C13.068 16.0001 13.4 16.6001 13.6981 17.6781C13.884 18.2661 14.0581 18.8561 14.244 19.4441L14.308 19.6441L14.4 20.0001L14.448 20.1281L14.48 20.256L14.512 20.3521L14.544 20.4321L14.56 20.4801V20.4961L15.3 19.5661C14.88 18.5081 14.408 16.2421 13.66 14.8621H16.2C16.174 15.4281 16.4 15.8361 16.5221 16.3701C16.672 16.8601 16.784 17.3701 16.94 17.848C17.2661 17.416 17.624 16.984 17.9541 16.5481C18.326 16.0181 18.9301 15.5481 18.982 14.8621H21.1061C19.87 16 18.678 17.8001 17.574 19.1381C17.696 19.5201 17.792 19.9141 17.912 20.2941C18.592 19.4181 19.272 18.5381 19.9381 17.6461C20.5621 16.7801 21.416 15.8301 21.836 14.8461H23.91V14.9421L23.926 15.1821L23.974 15.44L24.006 15.64L25.31 20.1361V20.1341ZM22.158 16.8741C21.616 17.8421 20.758 18.8161 20.0661 19.7001H22.8981C22.76 19.2521 22.606 18.7861 22.462 18.3361L22.4 18.1101L22.336 17.9101L22.288 17.7501L22.256 17.6221L22.2 17.3081V16.8901L22.184 16.8581V16.8421L22.152 16.8741H22.158ZM11.286 16.8741C10.9663 17.4216 10.6031 17.9426 10.2 18.4321C10 18.7121 9.76602 18.9741 9.55605 19.2501L9.46005 19.3801L9.38003 19.4921L9.29803 19.5721L9.25003 19.6361L9.20203 19.6841V19.7001H12.024C11.8741 19.2641 11.7301 18.7781 11.59 18.3361L11.526 18.1101L11.462 17.9101L11.414 17.7501L11.382 17.6221L11.334 17.3001L11.318 17.0281V16.8501L11.302 16.8341L11.286 16.8661V16.8741ZM15.548 23.4741L16.32 22.4001C16.1301 21.9361 15.972 21.4621 15.82 20.9861L15.064 21.9661L15.548 23.4761" fill="white"/>
</svg>
