<svg width="32" height="32" viewBox="0 0 32 32" fill="none" xmlns="http://www.w3.org/2000/svg">
<path d="M0 16C0 24.8365 7.16344 32 16 32C24.8365 32 32 24.8365 32 16C32 7.16344 24.8365 0 16 0C7.16344 0 0 7.16344 0 16Z" fill="#1D1D1B"/>
<path d="M23.8839 11.81C22.9277 11.8086 22 12.1355 21.256 12.7361C20.5115 12.1369 19.5846 11.8102 18.629 11.8102C17.6733 11.8102 16.7464 12.1369 16.002 12.7361C15.2566 12.1381 14.3295 11.8123 13.3739 11.8123C12.4184 11.8123 11.4914 12.1381 10.746 12.7361C10.1295 12.2369 9.38423 11.9224 8.59648 11.8291C7.80871 11.736 7.01065 11.8677 6.29466 12.2092C5.57868 12.5507 4.97404 13.088 4.55074 13.7588C4.12745 14.4298 3.9028 15.2068 3.9028 16.0001C3.9028 16.7933 4.12745 17.5703 4.55074 18.2413C4.97404 18.9121 5.57868 19.4494 6.29466 19.7909C7.01065 20.1324 7.80871 20.2641 8.59648 20.171C9.38423 20.0777 10.1295 19.7633 10.746 19.2641C11.4914 19.862 12.4184 20.1878 13.3739 20.1878C14.3295 20.1878 15.2566 19.862 16.002 19.2641C16.7464 19.8632 17.6733 20.1899 18.629 20.1899C19.5846 20.1899 20.5115 19.8632 21.256 19.2641C21.7781 19.6901 22.3951 19.9842 23.0549 20.1217C23.7146 20.2592 24.3977 20.2358 25.0466 20.0536C25.6954 19.8715 26.2909 19.5359 26.7827 19.0751C27.2745 18.6144 27.6483 18.042 27.8724 17.4065C28.0965 16.7709 28.1642 16.0907 28.0701 15.4234C27.9761 14.7561 27.7227 14.1213 27.3316 13.5725C26.9405 13.0236 26.4231 12.577 25.823 12.2703C25.223 11.9635 24.5578 11.8057 23.8839 11.81ZM21.256 18.034C20.8048 17.452 20.5599 16.7365 20.5599 16.0001C20.5599 15.2636 20.8048 14.5481 21.256 13.9661C21.7071 14.5481 21.952 15.2636 21.952 16.0001C21.952 16.7365 21.7071 17.452 21.256 18.034ZM16 18.034C15.5488 17.452 15.3039 16.7365 15.3039 16.0001C15.3039 15.2636 15.5488 14.5481 16 13.9661C16.4511 14.5481 16.696 15.2636 16.696 16.0001C16.696 16.7365 16.4511 17.452 16 18.034ZM10.744 18.034C10.2928 17.452 10.0479 16.7365 10.0479 16.0001C10.0479 15.2636 10.2928 14.5481 10.744 13.9661C11.1951 14.5481 11.44 15.2636 11.44 16.0001C11.44 16.7365 11.1951 17.452 10.744 18.034ZM4.79996 16.0001C4.80098 15.3824 4.97407 14.7773 5.29981 14.2525C5.62555 13.7277 6.09107 13.3041 6.64413 13.0291C7.19719 12.7541 7.81593 12.6387 8.43094 12.6958C9.04595 12.7528 9.63294 12.98 10.1259 13.3521C9.51548 14.0995 9.18198 15.035 9.18198 16.0001C9.18198 16.9651 9.51548 17.9006 10.1259 18.6481C9.63294 19.02 9.04595 19.2473 8.43094 19.3043C7.81593 19.3614 7.19719 19.246 6.64413 18.971C6.09107 18.6961 5.62555 18.2724 5.29981 17.7476C4.97407 17.2228 4.80098 16.6177 4.79996 16.0001ZM11.3659 18.6481C11.974 17.8994 12.3059 16.9645 12.3059 16.0001C12.3059 15.0356 11.974 14.1007 11.3659 13.3521C11.9435 12.9135 12.6488 12.676 13.3739 12.676C14.0992 12.676 14.8044 12.9135 15.3819 13.3521C14.7715 14.0995 14.438 15.035 14.438 16.0001C14.438 16.9651 14.7715 17.9006 15.3819 18.6481C14.8044 19.0866 14.0992 19.3241 13.3739 19.3241C12.6488 19.3241 11.9435 19.0866 11.3659 18.6481ZM16.6219 18.6481C17.23 17.8994 17.5619 16.9645 17.5619 16.0001C17.5619 15.0356 17.23 14.1007 16.6219 13.3521C17.1992 12.9136 17.9041 12.6762 18.629 12.6762C19.3538 12.6762 20.0587 12.9136 20.6359 13.3521C20.0279 14.1007 19.696 15.0356 19.696 16.0001C19.696 16.9645 20.0279 17.8994 20.6359 18.6481C20.0587 19.0865 19.3538 19.3239 18.629 19.3239C17.9041 19.3239 17.1992 19.0865 16.6219 18.6481ZM23.8839 19.324C23.1613 19.3233 22.4589 19.0858 21.8839 18.6481C22.4945 17.9006 22.8279 16.9651 22.8279 16.0001C22.8279 15.035 22.4945 14.0995 21.8839 13.3521C22.3045 13.033 22.7949 12.8186 23.3147 12.7267C23.8345 12.6349 24.3687 12.6682 24.8732 12.8238C25.3776 12.9794 25.8377 13.2529 26.2153 13.6217C26.593 13.9905 26.8776 14.4439 27.0452 14.9445C27.2128 15.445 27.2588 15.9783 27.1794 16.5002C27.0999 17.022 26.8974 17.5175 26.5884 17.9455C26.2795 18.3735 25.873 18.7217 25.4027 18.9616C24.9324 19.2013 24.4119 19.3255 23.8839 19.324Z" fill="white"/>
</svg>
