<svg width="32" height="32" viewBox="0 0 32 32" fill="none" xmlns="http://www.w3.org/2000/svg">
<path d="M0 16C0 24.8365 7.16344 32 16 32C24.8365 32 32 24.8365 32 16C32 7.16344 24.8365 0 16 0C7.16344 0 0 7.16344 0 16Z" fill="black"/>
<path fill-rule="evenodd" clip-rule="evenodd" d="M15.9281 8.0697C16.1209 7.51349 16.4168 6.99854 16.8001 6.5517C17.1802 6.11581 17.6414 5.75787 18.158 5.4977C18.6473 5.23612 19.1865 5.08138 19.7401 5.0437H19.9401L19.9621 5.2437C20.0165 5.79788 19.9538 6.3573 19.7781 6.8857C19.5871 7.43863 19.2963 7.9518 18.9201 8.3997C18.5372 8.85998 18.0597 9.23242 17.5201 9.49171C17.0282 9.73679 16.4807 9.84851 15.9321 9.81566L15.7641 9.79966L15.742 9.63373C15.6829 9.105 15.7465 8.56978 15.9281 8.0697ZM23.886 19.2217V19.2377C23.5738 20.2073 23.1246 21.1273 22.5521 21.9697C22.181 22.5577 21.7479 23.1042 21.2601 23.5997C20.792 24.0835 20.1565 24.3697 19.4841 24.3997C18.9452 24.4002 18.4139 24.2728 17.934 24.0277C17.4421 23.7836 16.9013 23.6537 16.3521 23.6477C15.775 23.6542 15.2069 23.7908 14.6901 24.0477C14.2414 24.2689 13.7533 24.3988 13.254 24.4297C12.566 24.4537 11.9701 24.1197 11.4401 23.6297C10.9318 23.1173 10.478 22.5536 10.086 21.9477C9.04613 20.3907 8.37762 18.6158 8.13206 16.7597C7.93206 15.1597 8.10006 13.5237 8.87606 12.1777C9.29641 11.4397 9.89713 10.8204 10.622 10.3777C11.3307 9.94536 12.142 9.70997 12.9721 9.69566C13.702 9.65971 14.4001 9.93566 15.0001 10.1757C15.43 10.3457 15.8121 10.4977 16.0981 10.4977C16.3521 10.4977 16.7241 10.3497 17.1601 10.1797C17.894 9.88973 18.7921 9.53566 19.742 9.62969C20.4691 9.6631 21.1796 9.85783 21.822 10.1997C22.4413 10.5353 22.9704 11.0157 23.3641 11.5997L23.4841 11.7737L23.3061 11.8877H23.2901C23.1061 12.0017 21.3301 13.0997 21.3521 15.3137C21.3535 16.9019 22.3027 18.3358 23.7641 18.9577L23.942 19.0317L23.886 19.2217Z" fill="white"/>
</svg>
