<svg width="32" height="32" viewBox="0 0 32 32" fill="none" xmlns="http://www.w3.org/2000/svg">
<path d="M0 16C0 24.8365 7.16344 32 16 32C24.8365 32 32 24.8365 32 16C32 7.16344 24.8365 0 16 0C7.16344 0 0 7.16344 0 16Z" fill="#EFEFEF"/>
<path d="M2.22852 15.1779L2.22859 16.9123L6.17162 14.9367L8.4482 16.0783V14.3429L6.17172 13.2023L2.22852 15.1779Z" fill="#6E6E6E"/>
<path d="M4.50409 19.7887L2.22761 18.648L2.22754 16.9127L4.50422 18.0543L8.44725 16.0786L8.44732 17.8131L4.50409 19.7887Z" fill="#A77556"/>
<path d="M17.6352 14.264C16.3959 14.264 15.4819 15.0572 15.4819 16.0684V16.0783C15.4819 17.1291 16.413 17.8727 17.6581 17.8727C18.3835 17.8727 18.9717 17.6397 19.3945 17.3374V16.0684H18.3436V16.9011C18.1779 16.9953 17.9722 17.0447 17.7037 17.0447C17.0698 17.0447 16.6186 16.6433 16.6186 16.0831V16.0732C16.6186 15.5429 17.064 15.1216 17.641 15.1216C18.0351 15.1216 18.3207 15.2406 18.6062 15.4488L19.2574 14.7696C18.8347 14.4525 18.3379 14.264 17.6352 14.264ZM11.1133 14.3438V17.8137H12.2214V14.3438H11.1133ZM13.7905 14.3438L12.253 16.0362L13.8241 17.8137H15.1523L13.5857 16.033L15.0903 14.3438H13.7905ZM20.554 14.3438V17.8137H21.6621V16.4949H23.0845V17.8137H24.1926V14.3438H23.0845V15.6425H21.6621V14.3438H20.554ZM25.5224 14.3438V17.8137H26.6076V15.8308L27.6243 17.1791H27.6472L28.6697 15.8209V17.8137H29.7719V14.3438H28.6012L27.6472 15.6871L26.6934 14.3438H25.5224Z" fill="#A77556"/>
<path d="M29.3723 18.6135L29.2128 18.8212H29.421L29.6396 18.6841L29.3723 18.6135ZM13.2827 18.8646C12.9637 18.8646 12.7246 19.0736 12.7246 19.3312V19.3337C12.7246 19.5912 12.9609 19.7976 13.2799 19.7976C13.5988 19.7976 13.838 19.5887 13.838 19.3312V19.3286C13.838 19.071 13.6016 18.8646 13.2827 18.8646V18.8646ZM16.5813 18.8672C16.3332 18.8672 16.1812 18.9877 16.1812 19.1543V19.1569C16.1812 19.3414 16.3509 19.3953 16.571 19.4388C16.7112 19.4669 16.7452 19.4874 16.7452 19.5246V19.5272C16.7452 19.5656 16.7039 19.5887 16.6271 19.5887C16.5075 19.5887 16.3937 19.5515 16.2918 19.481L16.1323 19.6464C16.2593 19.7451 16.4335 19.795 16.6167 19.795C16.8677 19.795 17.0346 19.6861 17.0346 19.5029V19.5003C17.0346 19.3324 16.8868 19.2658 16.6492 19.221C16.5059 19.1927 16.4705 19.1748 16.4705 19.1338V19.1312C16.4705 19.0992 16.5045 19.0735 16.5739 19.0735C16.6654 19.0735 16.7688 19.1044 16.8632 19.162L17.0064 18.9864C16.8943 18.9083 16.757 18.8672 16.5813 18.8672V18.8672ZM19.8932 18.8763L19.4531 19.7797H19.7543L19.8281 19.6195H20.2268L20.3021 19.7797H20.6093L20.1692 18.8763H19.8932ZM14.6441 18.8826V19.7797H15.4312V19.5618H14.9306V18.8826H14.6441ZM17.8304 18.8826V19.7797H18.1168V19.5477L18.2217 19.4464L18.4816 19.7797H18.8257L18.421 19.2683L18.8123 18.8826H18.4727L18.1168 19.2466V18.8826H17.8304ZM22.4326 18.8826V19.7797H22.7132V19.2671L22.9761 19.6156H22.9819L23.2462 19.2645V19.7797H23.5312V18.8826H23.2286L22.9819 19.2299L22.7354 18.8826H22.4326ZM24.3773 18.8826V19.7796H24.6652V18.8826H24.3773ZM25.5111 18.8826V19.7797H26.3498V19.5682H25.7947V19.4259H26.2908V19.2299H25.7947V19.094H26.3424V18.8826H25.5111ZM28.8731 18.8826V19.0928H29.3737L28.8555 19.599V19.7797H29.7694V19.5694H29.2512L29.7694 19.0633V18.8826H28.8731ZM11.1094 18.8827V19.7796H11.3958V19.5233H11.5375C11.7944 19.5233 11.982 19.4119 11.982 19.2005V19.1979C11.982 18.9992 11.8137 18.8827 11.5523 18.8827L11.1094 18.8827ZM27.153 18.8827V19.7797H27.5458C27.9179 19.7797 28.135 19.5873 28.135 19.3285V19.326C28.135 19.0672 27.9208 18.8827 27.5517 18.8827L27.153 18.8827ZM13.2799 19.0888C13.4378 19.0888 13.5456 19.2017 13.5456 19.3312V19.3337C13.5456 19.4631 13.4407 19.5733 13.2827 19.5733C13.1262 19.5733 13.0184 19.4605 13.0184 19.3312V19.3286C13.0184 19.1992 13.1233 19.0888 13.2799 19.0888V19.0888ZM11.3958 19.0916H11.5301C11.6335 19.0916 11.6955 19.1325 11.6955 19.2094V19.2119C11.6955 19.2824 11.6335 19.3285 11.5315 19.3285H11.3958V19.0916ZM27.4394 19.103H27.5561C27.7274 19.103 27.8412 19.1863 27.8412 19.3298V19.3324C27.8412 19.4772 27.7274 19.5592 27.5561 19.5592H27.4394V19.103ZM20.029 19.171L20.1441 19.4259H19.9123L20.029 19.171Z" fill="#6E6E6E"/>
<path d="M16 0.666666C24.4 0.666666 31.3334 7.6 31.3334 16C31.3334 24.4 24.4 31.3334 16 31.3334C7.6 31.3334 0.666666 24.4 0.666666 16C0.666666 7.6 7.6 0.666666 16 0.666666ZM16 0C7.2 0 0 7.2 0 16C0 24.8 7.2 32 16 32C24.8 32 32 24.8 32 16C32 7.2 24.8 0 16 0Z" fill="#999999"/>
</svg>
