<svg width="32" height="32" viewBox="0 0 32 32" fill="none" xmlns="http://www.w3.org/2000/svg">
<path d="M0 16C0 24.8365 7.16344 32 16 32C24.8365 32 32 24.8365 32 16C32 7.16344 24.8365 0 16 0C7.16344 0 0 7.16344 0 16Z" fill="white"/>
<path d="M16 0.666666C24.4 0.666666 31.3334 7.6 31.3334 16C31.3334 24.4 24.4 31.3334 16 31.3334C7.6 31.3334 0.666666 24.4 0.666666 16C0.666666 7.6 7.6 0.666666 16 0.666666ZM16 0C7.2 0 0 7.2 0 16C0 24.8 7.2 32 16 32C24.8 32 32 24.8 32 16C32 7.2 24.8 0 16 0Z" fill="#999999"/>
<path d="M17.024 26.4664C17.327 26.163 17.4971 25.7522 17.4971 25.324C17.4971 24.8991 17.3271 24.484 17.024 24.1835C16.7194 23.8817 16.3079 23.7117 15.8786 23.7103C15.4525 23.7103 15.0353 23.883 14.7336 24.1835C14.4311 24.4865 14.2609 24.8964 14.2601 25.324C14.2609 25.7522 14.431 26.1627 14.7336 26.4664C15.0382 26.768 15.4494 26.9383 15.8786 26.9405C16.3079 26.9382 16.7192 26.7679 17.024 26.4664Z" fill="#75C1C2"/>
<path d="M16.9683 16.9337C17.2702 16.6295 17.4401 16.2193 17.4414 15.7913C17.4414 15.3655 17.2696 14.9499 16.9683 14.649C16.664 14.3477 16.253 14.178 15.8243 14.1767C15.3969 14.1767 14.9815 14.3489 14.6779 14.649C14.3753 14.9526 14.2051 15.3632 14.2044 15.7913C14.2057 16.2193 14.3758 16.6297 14.6779 16.9337C14.9833 17.2346 15.3949 17.404 15.8243 17.4055C16.2529 17.404 16.6638 17.2346 16.9683 16.9337Z" fill="black"/>
<path d="M16.9679 7.40052C17.2689 7.0964 17.4387 6.68688 17.441 6.25952C17.441 5.83281 17.2674 5.4172 16.9679 5.11535C16.6633 4.81486 16.2522 4.64617 15.8238 4.64581C15.3951 4.64598 14.9837 4.81469 14.6788 5.11535C14.3757 5.41951 14.2052 5.83069 14.2044 6.25952C14.2059 6.68729 14.3763 7.09725 14.6788 7.40052C14.9835 7.70181 15.3948 7.87131 15.8238 7.87232C16.2496 7.87232 16.6668 7.7001 16.9679 7.40052ZM17.0104 12.1218C17.3014 11.8082 17.4557 11.3921 17.4391 10.9651C17.4234 10.5365 17.2376 10.1316 16.9227 9.83955C16.6065 9.55038 16.1886 9.39736 15.76 9.41374C15.3321 9.43019 14.9282 9.61518 14.6368 9.92816C14.348 10.242 14.1876 10.6615 14.2055 11.0895C14.2242 11.5169 14.4107 11.9197 14.7247 12.2111C15.0403 12.5003 15.4572 12.6545 15.8856 12.6405C16.3144 12.6221 16.7186 12.4357 17.0104 12.1218ZM16.9679 21.7C17.2696 21.3957 17.4396 20.9856 17.4414 20.5577C17.4414 20.1318 17.2678 19.7167 16.9679 19.4158C16.6635 19.114 16.2521 18.9441 15.8229 18.943C15.3969 18.943 14.9797 19.1153 14.6788 19.4158C14.376 19.7191 14.2055 20.1295 14.2044 20.5577C14.2044 20.983 14.3771 21.3982 14.6788 21.7C14.9837 22.0004 15.3944 22.1698 15.8229 22.1718C16.2518 22.17 16.6628 22.0006 16.9679 21.7Z" fill="#75C1C2"/>
<path d="M12.1882 16.9342C12.49 16.6299 12.6602 16.2198 12.6622 15.7918C12.6622 15.366 12.4886 14.9504 12.1882 14.6495C11.8837 14.3481 11.4723 14.1784 11.0433 14.1772C10.6142 14.1789 10.2029 14.3485 9.89785 14.6495C9.59526 14.9532 9.42495 15.3637 9.42387 15.7918C9.42549 16.2199 9.59572 16.6301 9.89785 16.9342C10.2031 17.2348 10.6143 17.4042 11.0433 17.406C11.4722 17.4047 11.8835 17.2353 12.1882 16.9342ZM12.1882 12.1669C12.4899 11.8636 12.6597 11.454 12.6609 11.0268C12.6609 10.5997 12.4886 10.1859 12.1882 9.88312C11.8828 9.58332 11.4718 9.41476 11.0433 9.41357C10.6172 9.41357 10.2005 9.58444 9.89785 9.88312C9.59531 10.1874 9.42504 10.5983 9.42387 11.0268C9.42387 11.4508 9.59655 11.8673 9.89785 12.1669C10.2025 12.4688 10.6138 12.6394 11.0433 12.6419C11.4726 12.6393 11.8837 12.4688 12.1882 12.1669ZM12.1882 21.7005C12.4906 21.3966 12.6609 20.9863 12.6622 20.5582C12.6622 20.1324 12.4895 19.7172 12.1882 19.4163C11.8838 19.1146 11.4724 18.9447 11.0433 18.9435C10.6159 18.9435 10.1996 19.1158 9.89785 19.4163C9.59529 19.7198 9.42497 20.1301 9.42387 20.5582C9.42387 20.9835 9.59655 21.3987 9.89785 21.7005C10.2032 22.001 10.6143 22.1704 11.0433 22.1723C11.4721 22.1705 11.8832 22.0011 12.1882 21.7005ZM7.40909 16.9342C7.71097 16.63 7.88088 16.2198 7.88216 15.7918C7.88216 15.366 7.71038 14.9504 7.40909 14.6495C7.10445 14.3481 6.69316 14.1785 6.26412 14.1772C5.83762 14.1772 5.42044 14.3494 5.11869 14.6495C4.81711 14.9537 4.64766 15.364 4.64698 15.7918C4.64817 16.2195 4.81754 16.6297 5.11869 16.9342C5.42362 17.2353 5.83502 17.4047 6.26412 17.406C6.69306 17.4046 7.10428 17.2352 7.40909 16.9342ZM21.7481 16.9342C22.0498 16.6299 22.2198 16.2197 22.2217 15.7918C22.2217 15.366 22.0485 14.9504 21.7481 14.6495C21.4426 14.3475 21.0301 14.1779 20.6 14.1772C20.1767 14.1772 19.76 14.3494 19.4573 14.6495C19.1554 14.9536 18.9853 15.3638 18.9838 15.7918C18.9859 16.2197 19.1558 16.6297 19.4573 16.9342C19.7616 17.2345 20.1719 17.4039 20.6 17.406C21.03 17.4053 21.4425 17.2358 21.7481 16.9342Z" fill="black"/>
<path d="M21.7469 12.1669C22.0508 11.8649 22.2219 11.4547 22.2227 11.0268C22.2227 10.5997 22.0506 10.1859 21.7469 9.88312C21.4425 9.58249 21.0316 9.41375 20.6032 9.41357C20.1777 9.41357 19.7609 9.58444 19.4587 9.88312C19.1565 10.1877 18.9863 10.5984 18.9847 11.0268C18.9864 11.4542 19.1567 11.8638 19.4587 12.1669C19.763 12.4688 20.174 12.6394 20.6032 12.6419C21.0323 12.6402 21.4434 12.4695 21.7469 12.1669ZM21.7487 21.7005C22.0498 21.3961 22.2189 20.9858 22.2195 20.5582C22.2195 20.1324 22.0491 19.7172 21.7487 19.4163C21.4439 19.1142 21.032 18.9444 20.6023 18.9435C20.1763 18.9435 19.7582 19.1158 19.4574 19.4163C19.1544 19.7196 18.9838 20.13 18.9827 20.5582C18.9841 20.9864 19.1546 21.3968 19.4574 21.7005C19.7625 22.001 20.1735 22.1703 20.6023 22.1723C21.0317 22.1709 21.4433 22.0015 21.7487 21.7005Z" fill="#75C1C2"/>
<path d="M26.5265 16.9337C26.829 16.6299 26.9992 16.2194 27 15.7913C26.9997 15.3631 26.8295 14.9524 26.5265 14.649C26.2218 14.3477 25.8105 14.1781 25.3815 14.1767C24.9526 14.1779 24.5414 14.3476 24.237 14.649C23.9351 14.953 23.7652 15.3634 23.7641 15.7913C23.7657 16.2191 23.9355 16.6293 24.237 16.9337C24.5416 17.2347 24.9527 17.4042 25.3815 17.4055C25.8104 17.404 26.2216 17.2346 26.5265 16.9337Z" fill="black"/>
</svg>
