<svg width="32" height="32" viewBox="0 0 32 32" fill="none" xmlns="http://www.w3.org/2000/svg">
<path d="M0 16C0 24.8365 7.16344 32 16 32C24.8365 32 32 24.8365 32 16C32 7.16344 24.8365 0 16 0C7.16344 0 0 7.16344 0 16Z" fill="#EFEFEF"/>
<path d="M16 0.666666C24.4 0.666666 31.3334 7.6 31.3334 16C31.3334 24.4 24.4 31.3334 16 31.3334C7.6 31.3334 0.666666 24.4 0.666666 16C0.666666 7.6 7.6 0.666666 16 0.666666ZM16 0C7.2 0 0 7.2 0 16C0 24.8 7.2 32 16 32C24.8 32 32 24.8 32 16C32 7.2 24.8 0 16 0Z" fill="#999999"/>
<path d="M8.872 14.1396H7.56V18.5396H6.32V14.1396H5V13.1396H8.872V14.1396Z" fill="#01478C"/>
<path d="M14.6801 15.8282C14.7134 16.5631 14.4562 17.2815 13.964 17.8282C13.7194 18.0854 13.4227 18.2874 13.0936 18.4206C12.7645 18.5537 12.4107 18.6149 12.0561 18.6001C11.7016 18.6172 11.3476 18.5582 11.0178 18.4271C10.688 18.2959 10.3901 18.0959 10.1441 17.8401C9.65525 17.2917 9.39981 16.5742 9.43209 15.8401C9.40005 15.1055 9.65703 14.3876 10.148 13.8401C10.3937 13.5848 10.6909 13.3846 11.0199 13.2528C11.3488 13.1212 11.702 13.0609 12.0561 13.0762C12.4104 13.0597 12.7643 13.1189 13.094 13.25C13.4237 13.381 13.7217 13.5808 13.9681 13.8362C14.4545 14.3828 14.7097 15.097 14.6801 15.8282ZM11.1041 14.6282C10.8541 14.9767 10.73 15.3999 10.7521 15.8282C10.7297 16.2565 10.8538 16.6798 11.1041 17.0282C11.2206 17.1673 11.3663 17.2792 11.5307 17.356C11.6952 17.4327 11.8745 17.4725 12.0561 17.4725C12.2376 17.4725 12.4168 17.4327 12.5814 17.356C12.7459 17.2792 12.8915 17.1673 13.0081 17.0282C13.2584 16.6798 13.3825 16.2565 13.3601 15.8282C13.3821 15.3999 13.258 14.9767 13.0081 14.6282C12.8915 14.4891 12.7459 14.3772 12.5814 14.3004C12.4168 14.2236 12.2376 14.1839 12.0561 14.1839C11.8745 14.1839 11.6952 14.2236 11.5307 14.3004C11.3663 14.3772 11.2206 14.4891 11.1041 14.6282Z" fill="#01478C"/>
<path d="M17.376 16.8H16.752V18.5399H15.52V13.1399H17.376C17.9066 13.116 18.4263 13.2963 18.828 13.6439C19.0083 13.804 19.1513 14.0015 19.2474 14.2226C19.3434 14.4436 19.39 14.683 19.384 14.9239C19.3992 15.184 19.3545 15.444 19.2532 15.6839C19.1519 15.9239 18.9969 16.1374 18.8 16.3079C18.4009 16.6395 17.8947 16.8144 17.376 16.8ZM17.232 14.136H16.752V15.8199H17.152C17.8026 15.8199 18.128 15.5239 18.128 14.9319C18.136 14.4 17.834 14.1319 17.232 14.1319V14.136Z" fill="#01478C"/>
<path d="M21.336 18.5396H20.104V13.1396H21.336V18.5396Z" fill="#01478C"/>
<path d="M23.64 18.5403H22.152L23.856 15.8003L22.232 13.1443H23.664L24.56 14.7203L25.416 13.1443H26.92L25.288 15.8083L27.024 18.5363H25.56L24.584 16.8563L23.64 18.5403Z" fill="#01478C"/>
</svg>
