<svg width="32" height="32" viewBox="0 0 32 32" fill="none" xmlns="http://www.w3.org/2000/svg">
<path d="M0 16C0 24.8365 7.16344 32 16 32C24.8365 32 32 24.8365 32 16C32 7.16344 24.8365 0 16 0C7.16344 0 0 7.16344 0 16Z" fill="#EFEFEF"/>
<path d="M16 0.666666C24.4 0.666666 31.3334 7.6 31.3334 16C31.3334 24.4 24.4 31.3334 16 31.3334C7.6 31.3334 0.666666 24.4 0.666666 16C0.666666 7.6 7.6 0.666666 16 0.666666ZM16 0C7.2 0 0 7.2 0 16C0 24.8 7.2 32 16 32C24.8 32 32 24.8 32 16C32 7.2 24.8 0 16 0Z" fill="#999999"/>
<path d="M15.764 12.7702C15.4725 12.3695 15.0668 12.0662 14.6 11.9001L14.382 11.8481V11.6241C14.3635 11.0553 14.4927 10.4914 14.757 9.98737C15.0213 9.48337 15.4117 9.05637 15.8901 8.7481L16.0421 8.6521L16.196 8.7401C17.078 9.2481 17.684 10.4001 17.684 11.6001V11.8281L17.464 11.8901C16.9795 12.054 16.5631 12.374 16.28 12.8001L16 13.2141L15.764 12.7702Z" fill="#EFC319"/>
<path d="M16.03 9.00019C16.884 9.48017 17.384 10.5522 17.384 11.6002C16.8294 11.783 16.3524 12.1473 16.03 12.6341C15.6936 12.1583 15.2145 11.8018 14.662 11.6162C14.6479 11.1019 14.7664 10.5925 15.0059 10.1373C15.2456 9.68195 15.5981 9.29587 16.03 9.01619V9.00019ZM16.012 8.31818L15.71 8.50819C15.1888 8.84412 14.7633 9.30897 14.4745 9.85767C14.1858 10.4064 14.0437 11.0204 14.062 11.6402L14.084 12.0862L14.52 12.2002C14.9074 12.3461 15.2472 12.5959 15.502 12.9221L15.98 13.8002L16.53 12.9541C16.7746 12.5903 17.1303 12.3153 17.544 12.1701L17.984 12.0482V11.6002C17.984 10.2741 17.332 9.05218 16.324 8.48418L16.012 8.31018V8.31818Z" fill="#EFEFEF"/>
<path d="M15.508 15.6618H15.294H15.174L15.092 15.5738C14.706 15.1599 14.028 15.0799 13.422 15.0358H13.318L13.24 14.9658L13.2 14.9119C12.45 14.1679 12.2 13.1939 12.452 12.0159L12.502 11.7999L12.758 11.7778C12.9419 11.7572 13.1269 11.7465 13.312 11.7458C13.932 11.7458 14.794 11.8719 15.376 12.4739C16.576 13.7158 16.35 14.9318 16.274 15.3318L16.228 15.5798L16.028 15.6198C15.8564 15.6499 15.6823 15.6641 15.508 15.6618Z" fill="#EFC319"/>
<path d="M13.312 12.0436C13.8501 12.0436 14.64 12.1436 15.16 12.6796C16.3061 13.8617 16.03 14.9936 15.96 15.3216C15.8076 15.3495 15.653 15.3628 15.4981 15.3616C15.432 15.3616 15.368 15.3616 15.2981 15.3616C14.838 14.8716 14.0981 14.7776 13.43 14.7296L13.4 14.7036C12.9061 14.2156 12.448 13.4217 12.736 12.0836C12.9225 12.0616 13.1102 12.0502 13.2981 12.0496L13.312 12.0436ZM13.2981 11.4496C13.1029 11.4495 12.9079 11.4608 12.7141 11.4836H12.684L12.2421 11.5236L12.148 11.9556C11.8741 13.2416 12.148 14.3097 12.976 15.1276L13.03 15.1756L13.184 15.3156L13.384 15.3276C13.934 15.3657 14.544 15.4356 14.8581 15.7696L15.022 15.9456L15.262 15.9596C15.3381 15.9596 15.416 15.9596 15.492 15.9596C15.6845 15.9611 15.8767 15.9444 16.0661 15.9097L16.4661 15.8336L16.54 15.4336V15.3897C16.624 14.9536 16.876 13.6196 15.564 12.2656C15.044 11.7316 14.256 11.4476 13.284 11.4476L13.2981 11.4496Z" fill="#EFEFEF"/>
<path d="M15.506 19.0524H15.294H15.174L15.092 18.9644C14.706 18.5504 14.028 18.4704 13.422 18.4264H13.318L13.24 18.3544C13.224 18.3424 13.214 18.3304 13.204 18.3224C12.454 17.5784 12.204 16.6044 12.456 15.4243L12.502 15.2083L12.76 15.1843C12.9433 15.1646 13.1276 15.1546 13.312 15.1544C13.932 15.1544 14.794 15.2803 15.376 15.8803C16.576 17.1244 16.35 18.3404 16.274 18.7404L16.228 18.9884L16.028 19.0264C15.8552 19.0513 15.6805 19.0599 15.506 19.0524Z" fill="#EFC319"/>
<path d="M13.3119 15.4341C13.85 15.4341 14.6399 15.5322 15.1599 16.0702C16.306 17.2522 16.0299 18.3841 15.9599 18.7121C15.8075 18.7399 15.6529 18.7534 15.498 18.7521C15.4319 18.7521 15.3679 18.7521 15.298 18.7521C14.8379 18.2602 14.098 18.1681 13.4299 18.1201C13.4299 18.1201 13.4079 18.1022 13.3999 18.0922C12.9199 17.6001 12.4619 16.8001 12.7499 15.4682C12.9365 15.4461 13.1241 15.4347 13.3119 15.4341ZM13.3119 14.8341C13.1169 14.8347 12.9219 14.8454 12.7279 14.8661H12.698L12.2559 14.9041L12.162 15.3381C11.8879 16.6241 12.162 17.6901 12.9899 18.5082L13.044 18.5582L13.1979 18.6961L13.3979 18.7082C13.948 18.7482 14.5579 18.8181 14.8719 19.1521L15.036 19.3262L15.276 19.3402C15.3519 19.3402 15.4299 19.3402 15.506 19.3402C15.6984 19.3406 15.8904 19.3238 16.0799 19.2901L16.4799 19.2122L16.554 18.8122V18.7701C16.652 18.3381 16.9039 17.0001 15.5999 15.6522C15.0799 15.1162 14.292 14.8341 13.3199 14.8341H13.3119Z" fill="#EFEFEF"/>
<path d="M16.356 15.3278C16.3657 15.2463 16.3804 15.1655 16.4 15.0858C16.4636 14.7966 16.4718 14.498 16.424 14.2058C16.3852 13.9407 16.2992 13.6846 16.17 13.4498L16.058 13.2278L16.156 13.0838C16.4377 12.6734 16.8083 12.3315 17.24 12.0838C17.6513 11.8585 18.1153 11.7473 18.584 11.7618C18.8621 11.7625 19.1395 11.7906 19.412 11.8458L19.634 11.8898L19.652 12.1158C19.652 12.1618 19.652 12.2078 19.666 12.2518C19.7083 12.6313 19.7083 13.0143 19.666 13.3938C19.604 14.1398 19.126 14.6318 18.866 14.8958L18.782 14.9838L18.698 15.0798H18.57H18.49C18.2559 15.077 18.0223 15.1019 17.794 15.1538C17.4488 15.2316 17.1229 15.3786 16.836 15.5858L16.308 15.9858L16.356 15.3278Z" fill="#EFC319"/>
<path d="M18.576 12.0585C18.8345 12.0602 19.0924 12.0864 19.3461 12.1364C19.399 12.5445 19.4037 12.9573 19.36 13.3665C19.3 14.1044 18.742 14.5665 18.56 14.7805C18.2776 14.7767 17.9958 14.8055 17.72 14.8665C17.3366 14.9532 16.9751 15.1179 16.658 15.3505C16.7484 14.9619 16.7688 14.5603 16.718 14.1645C16.6684 13.843 16.5607 13.5333 16.4 13.2505C16.6571 12.8771 16.9948 12.5661 17.388 12.3405C17.756 12.1419 18.1701 12.0446 18.588 12.0585H18.576ZM18.588 11.4585C18.0658 11.4437 17.5491 11.5694 17.092 11.8225C16.6207 12.0945 16.2168 12.4691 15.91 12.9185L15.71 13.2065L15.864 13.5165C15.864 13.5385 15.888 13.5625 15.9 13.5885C16.0145 13.7922 16.0904 14.0152 16.124 14.2465C16.168 14.5066 16.1612 14.7729 16.104 15.0305C16.0842 15.1208 16.0702 15.2123 16.062 15.3044L15.964 16.6265L17.022 15.8265C17.2775 15.6419 17.5682 15.5119 17.876 15.4445C18.0794 15.3986 18.2875 15.377 18.496 15.3805H18.584L18.84 15.3705L19 15.1805L19.076 15.1025C19.338 14.8305 19.876 14.2685 19.9541 13.4145C19.9976 13.0157 19.9976 12.6132 19.9541 12.2145C19.9541 12.1705 19.9541 12.1265 19.942 12.0825L19.902 11.6345L19.462 11.5444C19.1697 11.4853 18.8723 11.4552 18.574 11.4545L18.588 11.4585Z" fill="#EFEFEF"/>
<path d="M16.356 18.7158C16.3631 18.6351 16.3751 18.555 16.392 18.4758C16.4549 18.1879 16.463 17.8907 16.416 17.5998C16.3776 17.3352 16.2915 17.0797 16.162 16.8458L16.05 16.6238L16.148 16.4778C16.4296 16.0672 16.8001 15.7254 17.232 15.4778C17.643 15.2517 18.1071 15.1399 18.576 15.1537C18.8541 15.1551 19.1315 15.1839 19.404 15.2398L19.626 15.2838L19.644 15.5078C19.644 15.5558 19.644 15.5998 19.658 15.6458C19.7003 16.0253 19.7003 16.4083 19.658 16.7878C19.596 17.5338 19.118 18.0257 18.858 18.2897C18.826 18.3238 18.796 18.3518 18.774 18.3777L18.69 18.4718H18.562H18.482C18.2479 18.469 18.0143 18.4939 17.786 18.5457C17.4404 18.6237 17.1144 18.7713 16.828 18.9798L16.3 19.3798L16.356 18.7158Z" fill="#EFC319"/>
<path d="M18.576 15.4461C18.8347 15.4471 19.0926 15.4739 19.346 15.5261C19.399 15.9335 19.4037 16.3456 19.36 16.7541C19.3 17.492 18.742 17.9541 18.56 18.1701C18.2776 18.1643 17.9957 18.1925 17.72 18.2541C17.3368 18.3416 16.9754 18.5063 16.658 18.7381C16.7485 18.3495 16.7688 17.9479 16.718 17.5521C16.6681 17.2313 16.5604 16.9223 16.4 16.6401C16.6571 16.2661 16.9947 15.9544 17.388 15.7281C17.7564 15.5305 18.1702 15.4332 18.588 15.4461H18.576ZM18.588 14.8461C18.0659 14.8323 17.5495 14.9579 17.092 15.2101C16.6212 15.4826 16.2173 15.8571 15.91 16.3061L15.71 16.5941L15.864 16.9061C15.864 16.9261 15.888 16.9501 15.9 16.9781C16.0152 17.1815 16.0911 17.4047 16.124 17.636C16.1681 17.8955 16.1612 18.1611 16.104 18.4181C16.0841 18.5091 16.07 18.6012 16.062 18.6941L15.964 20.0141L17.022 19.2141C17.2769 19.028 17.5677 18.8973 17.876 18.8301C18.0795 18.7851 18.2876 18.7637 18.496 18.7661H18.584H18.84L19.01 18.5661L19.086 18.4861C19.348 18.2161 19.886 17.6541 19.964 16.8001C20.0074 16.4012 20.0074 15.9989 19.964 15.6001C19.964 15.556 19.964 15.5141 19.952 15.468L19.912 15.02L19.472 14.932C19.1798 14.8723 18.8824 14.8415 18.584 14.8401L18.588 14.8461Z" fill="#EFEFEF"/>
<path d="M15.3739 22.454C14.5918 22.473 13.8297 22.2048 13.232 21.7C12.8 21.316 12.124 20.428 12.474 18.8L12.52 18.582L12.778 18.56C12.9612 18.5392 13.1455 18.5286 13.33 18.528C13.9499 18.528 14.81 18.654 15.394 19.256C16.594 20.498 16.3659 21.714 16.29 22.114L16.2459 22.362L16.0459 22.402C15.8248 22.4417 15.6006 22.4611 15.376 22.46L15.3739 22.454Z" fill="#EFC319"/>
<path d="M13.3301 18.8216C13.868 18.8216 14.6581 18.9215 15.1781 19.4575C16.324 20.6395 16.046 21.7715 15.9781 22.0995C15.7754 22.1361 15.5699 22.1542 15.364 22.1535C14.655 22.1725 13.9635 21.9313 13.42 21.4755C12.902 21.0155 12.47 20.1935 12.756 18.8555C12.9432 18.8334 13.1316 18.8221 13.3201 18.8216H13.3301ZM13.3201 18.2216C13.1249 18.2213 12.9299 18.2327 12.7361 18.2555H12.7041L12.262 18.2955L12.1701 18.7275C11.788 20.5115 12.54 21.4955 13.022 21.9275C13.6745 22.482 14.508 22.7773 15.364 22.7576C15.6075 22.7584 15.8505 22.737 16.0901 22.6936L16.4901 22.6175L16.564 22.2175V22.1736C16.646 21.7375 16.9 20.4035 15.5861 19.0495C15.068 18.5155 14.2801 18.2315 13.308 18.2315L13.3201 18.2216Z" fill="#EFEFEF"/>
<path d="M16.35 22.428L16.372 22.106C16.3798 22.0246 16.3925 21.9439 16.41 21.864C16.4726 21.5748 16.4808 21.2763 16.434 20.984C16.3943 20.7191 16.3083 20.4632 16.18 20.228L16.068 20L16.164 19.856C16.4468 19.4465 16.817 19.1049 17.248 18.856C17.6619 18.6303 18.1288 18.5198 18.6 18.536C18.8781 18.5367 19.1555 18.5649 19.428 18.62L19.648 18.664L19.668 18.888C19.668 18.936 19.668 18.982 19.682 19.028C19.724 19.4068 19.724 19.7892 19.682 20.168C19.622 20.914 19.144 21.406 18.882 21.67L18.798 21.758L18.782 21.776L18.764 21.792C18.038 22.392 16.98 22.428 16.672 22.428H16.35Z" fill="#EFC319"/>
<path d="M18.6 18.8357C18.8579 18.8373 19.115 18.8635 19.368 18.9137C19.422 19.3216 19.4274 19.7345 19.384 20.1437C19.324 20.8817 18.764 21.3437 18.584 21.5578C18.048 21.9937 17.236 22.1277 16.682 22.1277C16.7724 21.7391 16.792 21.3373 16.74 20.9418C16.6908 20.6205 16.5837 20.3108 16.424 20.0277C16.6776 19.6555 17.0109 19.3446 17.4 19.1178C17.7681 18.9196 18.1821 18.8222 18.6 18.8357ZM18.6 18.2357C18.0751 18.2199 17.5556 18.3456 17.096 18.5997C16.6259 18.8717 16.2226 19.2455 15.916 19.6938L15.716 19.9837L15.87 20.2938C15.8807 20.315 15.8927 20.339 15.906 20.3658C16.0205 20.5694 16.0964 20.7925 16.13 21.0237C16.172 21.2841 16.1651 21.5499 16.11 21.8077C16.0892 21.8979 16.0752 21.9895 16.068 22.0817L16.02 22.7277H16.666C16.998 22.7277 18.144 22.6757 18.946 22.0237L19 21.9997L19.032 21.9637L19.108 21.8858C19.37 21.6138 19.908 21.0517 19.986 20.1978C20.0296 19.7989 20.0296 19.3965 19.986 18.9978C19.986 18.9537 19.976 18.9098 19.972 18.8657L19.934 18.4177L19.494 18.3277C19.1998 18.2675 18.9003 18.2367 18.6 18.2357Z" fill="#EFEFEF"/>
<path d="M13.0619 3.60022H12.922C12.6193 3.60022 12.3739 3.84557 12.3739 4.14822V10.3922C12.3739 10.6949 12.6193 10.9402 12.922 10.9402H13.0619C13.3646 10.9402 13.61 10.6949 13.61 10.3922V4.14822C13.61 3.84557 13.3646 3.60022 13.0619 3.60022Z" fill="#EFC319"/>
<path d="M13.064 3.90005C13.1294 3.90005 13.1922 3.9259 13.2387 3.97197C13.2851 4.01805 13.3114 4.08062 13.312 4.14604V10.4C13.3114 10.4656 13.2852 10.5284 13.2388 10.5748C13.1924 10.6212 13.1296 10.6475 13.064 10.648H12.922C12.8564 10.6475 12.7936 10.6212 12.7472 10.5748C12.7008 10.5284 12.6745 10.4656 12.674 10.4V4.14604C12.6745 4.08062 12.7009 4.01805 12.7473 3.97197C12.7938 3.9259 12.8566 3.90005 12.922 3.90005H13.064ZM13.064 3.30005H12.922C12.6976 3.30058 12.4825 3.38981 12.3237 3.54829C12.1648 3.70678 12.075 3.92165 12.074 4.14604V10.4C12.0745 10.6248 12.164 10.8401 12.3229 10.9991C12.4819 11.158 12.6972 11.2475 12.922 11.248H13.064C13.1753 11.248 13.2856 11.2261 13.3885 11.1835C13.4914 11.1408 13.5848 11.0784 13.6636 10.9997C13.7424 10.9209 13.8048 10.8274 13.8474 10.7246C13.8901 10.6217 13.912 10.5114 13.912 10.4V4.14604C13.9114 3.92149 13.8218 3.70631 13.6629 3.54771C13.5039 3.38911 13.2886 3.30005 13.064 3.30005Z" fill="#EFEFEF"/>
<path d="M19.11 3.60022H18.97C18.6673 3.60022 18.422 3.84557 18.422 4.14822V10.3922C18.422 10.6949 18.6673 10.9402 18.97 10.9402H19.11C19.4126 10.9402 19.658 10.6949 19.658 10.3922V4.14822C19.658 3.84557 19.4126 3.60022 19.11 3.60022Z" fill="#EFC319"/>
<path d="M19.112 3.90005C19.1772 3.90005 19.2398 3.92597 19.2859 3.9721C19.3321 4.01823 19.358 4.0808 19.358 4.14604V10.4C19.358 10.4655 19.3321 10.5282 19.2861 10.5747C19.24 10.6211 19.1774 10.6475 19.112 10.648H18.97C18.9044 10.6475 18.8416 10.6212 18.7952 10.5748C18.7488 10.5284 18.7225 10.4656 18.722 10.4V4.14604C18.7225 4.08062 18.7489 4.01805 18.7954 3.97197C18.8418 3.9259 18.9046 3.90005 18.97 3.90005H19.112ZM19.112 3.30005H18.97C18.7454 3.30005 18.5301 3.38911 18.3711 3.54771C18.2121 3.70631 18.1225 3.92149 18.122 4.14604V10.4C18.122 10.625 18.2114 10.8406 18.3704 10.9997C18.5294 11.1587 18.7451 11.248 18.97 11.248H19.112C19.3366 11.2475 19.5517 11.158 19.7103 10.999C19.869 10.84 19.958 10.6246 19.958 10.4V4.14604C19.9575 3.92184 19.8681 3.70696 19.7096 3.54842C19.5511 3.38987 19.3362 3.30058 19.112 3.30005Z" fill="#EFEFEF"/>
<path d="M17.1261 3.60022H16.9861C16.6834 3.60022 16.4381 3.84557 16.4381 4.14822V7.69421C16.4381 7.99687 16.6834 8.24222 16.9861 8.24222H17.1261C17.4287 8.24222 17.6741 7.99687 17.6741 7.69421V4.14822C17.6741 3.84557 17.4287 3.60022 17.1261 3.60022Z" fill="#EFC319"/>
<path d="M17.1281 3.90005C17.1933 3.90005 17.2559 3.92597 17.302 3.9721C17.3481 4.01823 17.3741 4.0808 17.3741 4.14604V7.69205C17.3741 7.75747 17.3482 7.82026 17.3022 7.8667C17.2561 7.91316 17.1935 7.93952 17.1281 7.94005H16.9861C16.9205 7.93952 16.8577 7.91322 16.8113 7.86683C16.7649 7.82043 16.7386 7.75766 16.7381 7.69205V4.14604C16.7386 4.08062 16.765 4.01805 16.8115 3.97197C16.8579 3.9259 16.9207 3.90005 16.9861 3.90005H17.1281ZM17.1281 3.30005H16.9861C16.7615 3.30005 16.5462 3.38911 16.3872 3.54771C16.2282 3.70631 16.1386 3.92149 16.1381 4.14604V7.69205C16.1381 7.91695 16.2275 8.13264 16.3864 8.29167C16.5455 8.4507 16.7612 8.54005 16.9861 8.54005H17.1281C17.3527 8.53951 17.5678 8.44994 17.7264 8.29097C17.885 8.13199 17.9741 7.9166 17.9741 7.69205V4.14604C17.9736 3.92184 17.8842 3.70696 17.7257 3.54842C17.5672 3.38987 17.3523 3.30058 17.1281 3.30005Z" fill="#EFEFEF"/>
<path d="M15.052 3.60022H14.9121C14.6094 3.60022 14.364 3.84557 14.364 4.14822V7.69421C14.364 7.99687 14.6094 8.24222 14.9121 8.24222H15.052C15.3547 8.24222 15.6001 7.99687 15.6001 7.69421V4.14822C15.6001 3.84557 15.3547 3.60022 15.052 3.60022Z" fill="#EFC319"/>
<path d="M15.054 3.90005C15.1192 3.90005 15.1818 3.92597 15.228 3.9721C15.2741 4.01823 15.3 4.0808 15.3 4.14604V7.69205C15.3 7.75747 15.2742 7.82026 15.228 7.8667C15.182 7.91316 15.1194 7.93952 15.054 7.94005H14.912C14.8464 7.93952 14.7836 7.91322 14.7372 7.86683C14.6908 7.82043 14.6645 7.75766 14.664 7.69205V4.14604C14.6646 4.08062 14.6909 4.01805 14.7373 3.97197C14.7838 3.9259 14.8466 3.90005 14.912 3.90005H15.054ZM15.054 3.30005H14.912C14.6874 3.30005 14.472 3.38911 14.313 3.54771C14.1541 3.70631 14.0646 3.92149 14.064 4.14604V7.69205C14.064 7.91695 14.1533 8.13264 14.3124 8.29167C14.4714 8.4507 14.6871 8.54005 14.912 8.54005H15.054C15.2786 8.53951 15.4937 8.44994 15.6523 8.29097C15.8109 8.13199 15.9 7.9166 15.9 7.69205V4.14604C15.8995 3.92184 15.8102 3.70696 15.6516 3.54842C15.4931 3.38987 15.2782 3.30058 15.054 3.30005Z" fill="#EFEFEF"/>
<path d="M16.17 22.8378H16.168C15.9073 22.8378 15.696 23.0492 15.696 23.3098V27.3738C15.696 27.6345 15.9073 27.8458 16.168 27.8458H16.17C16.4307 27.8458 16.642 27.6345 16.642 27.3738V23.3098C16.642 23.0492 16.4307 22.8378 16.17 22.8378Z" fill="#549B0A"/>
<path d="M19.4139 24.1781C19.5419 24.1301 19.716 24.0881 19.7859 24.2301C19.8259 24.3121 19.644 24.3301 19.4899 24.4021C18.1999 25.0021 17.8739 25.6961 17.356 26.5381C17.1707 26.8877 16.9356 27.2084 16.6579 27.4901C16.2799 27.8261 15.612 27.7621 15.7039 27.1201C15.764 26.7002 16.2419 26.2301 16.5339 25.9562C17.3648 25.1761 18.3443 24.5714 19.4139 24.1781Z" fill="#549B0A"/>
</svg>
