<svg width="32" height="32" viewBox="0 0 32 32" fill="none" xmlns="http://www.w3.org/2000/svg">
<g clip-path="url(#clip0)">
<path d="M0 16C0 24.8365 7.16344 32 16 32C24.8365 32 32 24.8365 32 16C32 7.16344 24.8365 0 16 0C7.16344 0 0 7.16344 0 16Z" fill="white"/>
<g clip-path="url(#clip1)">
<path fill-rule="evenodd" clip-rule="evenodd" d="M16.0106 0.00204468C24.8446 0.00204468 32.0087 7.16614 32.0087 16.0001C32.0087 24.834 24.8446 31.9981 16.0106 31.9981C7.17672 31.9981 0.0126953 24.834 0.0126953 16.0001C0.0126953 7.16614 7.17672 0.00204468 16.0106 0.00204468ZM16.0106 4.76535C22.2143 4.76535 27.2454 9.79636 27.2454 16.0001C27.2454 22.2038 22.2143 27.2348 16.0106 27.2348C9.80701 27.2348 4.776 22.2038 4.776 16.0001C4.776 9.79636 9.80701 4.76535 16.0106 4.76535Z" fill="#102A83"/>
<path fill-rule="evenodd" clip-rule="evenodd" d="M7.4834 12.887L7.72157 14.3069V19.113C8.30718 19.113 8.88287 19.113 9.46855 19.113C9.46855 18.6068 9.46855 18.0898 9.46855 17.5837H10.6463C13.8593 17.4539 13.7972 12.887 10.4572 12.887H7.4834ZM9.46855 14.3069H10.445C11.7108 14.3069 11.7701 16.2839 10.3996 16.2839H9.46686L9.46855 14.3069Z" fill="#102A83"/>
<path fill-rule="evenodd" clip-rule="evenodd" d="M19.0781 12.9962L20.8253 12.7778V16.4346C20.8253 17.3192 21.3768 17.5837 21.7869 17.5837C22.1543 17.5837 22.9001 17.3374 22.9001 16.4346V12.9962L24.5379 12.7778V16.4346C24.5379 17.8869 23.3815 19.2456 21.8379 19.2456C20.2943 19.2456 19.0956 18.3122 19.0894 16.4346L19.0781 12.9962Z" fill="#102A83"/>
<path fill-rule="evenodd" clip-rule="evenodd" d="M12.8539 9.61029L13.1816 11.3581H16.239L12.5361 22.3898H19.0831L18.6017 20.533H15.3654L18.8596 9.61029H12.8539Z" fill="#102A83"/>
</g>
</g>
<defs>
<clipPath id="clip0">
<rect width="32" height="32" fill="white"/>
</clipPath>
<clipPath id="clip1">
<rect width="32.0188" height="32" fill="white"/>
</clipPath>
</defs>
</svg>
