<svg width="32" height="32" viewBox="0 0 32 32" fill="none" xmlns="http://www.w3.org/2000/svg">
<path d="M0 16C0 24.8365 7.16344 32 16 32C24.8365 32 32 24.8365 32 16C32 7.16344 24.8365 0 16 0C7.16344 0 0 7.16344 0 16Z" fill="url(#paint0_linear)"/>
<path d="M18.9879 13.75H18.466V15.658H18.9879C19.6839 15.658 20.238 15.4279 20.238 14.6919C20.238 13.9559 19.6839 13.75 18.9879 13.75Z" fill="white"/>
<path d="M13.3659 14.5179L12.6139 16.8859C12.8562 16.9771 13.1131 17.0233 13.372 17.0219C13.6254 17.0215 13.877 16.9783 14.116 16.8939L13.3819 14.5179H13.3659Z" fill="white"/>
<path d="M4.56595 9.9624V21.8664H16.7279L28.634 9.9624H4.56595ZM19.2319 17.2883H18.466V19.5644H14.956L14.5999 18.4764C13.7876 18.7363 12.9144 18.7363 12.1019 18.4764L11.74 19.5744H9.59991L9.83793 18.9384L9.74993 19.0144C9.16794 19.4671 8.44922 19.7083 7.71194 19.6984H7.58794C6.64808 19.6948 5.72501 19.4489 4.90794 18.9843L5.63795 17.5304C6.43795 18.0003 6.92995 18.1043 7.59994 18.0904C7.94794 18.0904 8.19994 18.0204 8.36394 17.8504C8.46093 17.7521 8.51672 17.6205 8.51994 17.4824C8.51994 17.1043 7.98995 16.9264 7.33194 16.7244C6.75908 16.5649 6.21503 16.3158 5.71994 15.9864C5.45246 15.805 5.23688 15.5571 5.09448 15.2672C4.95208 14.9771 4.88778 14.6548 4.90794 14.3324C4.9111 13.8159 5.11391 13.3207 5.47395 12.9504C5.99994 12.4003 6.83194 12.0744 7.83994 12.0744C8.7702 12.0888 9.68612 12.3058 10.524 12.7104L9.70193 14.1443C9.16884 13.8541 8.57473 13.6937 7.96794 13.6764C7.25994 13.6384 6.89994 13.8924 6.89594 14.1644C6.89594 14.4984 7.56794 14.8003 8.20394 15.0044C9.17194 15.3123 10.404 15.7224 10.588 16.9104L12.3599 12.2003H14.41L16.4799 17.8323V12.2003H18.8479C21.114 12.2003 22.178 13.0003 22.178 14.7664C22.178 16.3484 21.082 17.2883 19.2319 17.2883Z" fill="white"/>
<defs>
<linearGradient id="paint0_linear" x1="16" y1="0" x2="16" y2="32" gradientUnits="userSpaceOnUse">
<stop stop-color="#25B5E9"/>
<stop offset="0.22" stop-color="#1DA2DC"/>
<stop offset="0.79" stop-color="#2A70B7"/>
<stop offset="1" stop-color="#2F63AD"/>
</linearGradient>
</defs>
</svg>
