<svg width="32" height="32" viewBox="0 0 32 32" fill="none" xmlns="http://www.w3.org/2000/svg">
<path d="M0 16C0 24.8365 7.16344 32 16 32C24.8365 32 32 24.8365 32 16C32 7.16344 24.8365 0 16 0C7.16344 0 0 7.16344 0 16Z" fill="#EA0B8C"/>
<g clip-path="url(#clip0)">
<path fill-rule="evenodd" clip-rule="evenodd" d="M4 8.29643H7.64445V18.0773C7.64445 19.6252 8.35249 20.5472 8.91237 20.9425C8.31963 21.4694 6.50832 21.9304 5.15808 20.8107C4.36202 20.1506 4 19.0653 4 18.0443V8.29643ZM26.7764 16.4212V15.3933H27.8879V11.7873H26.6673C26.1987 9.62231 24.2712 8 21.9661 8C19.3106 8 17.158 10.1527 17.158 12.8081V21.2293C17.9145 21.3356 18.8158 21.2161 19.5826 20.5802C20.3786 19.92 20.7406 18.8348 20.7406 17.8139V17.5036H22.5608V13.8976H20.7406V12.8081H20.745C20.745 12.1338 21.2916 11.5871 21.9661 11.5871C22.6404 11.5871 23.1893 12.1338 23.1893 12.8081V16.4212C23.1893 19.0766 25.3442 21.2293 27.9996 21.2293V17.6422C27.3252 17.6422 26.7764 17.0955 26.7764 16.4212ZM12.9735 11.7873V17.0795C12.9735 17.38 12.7243 17.6235 12.4167 17.6235C12.1091 17.6235 11.8598 17.38 11.8598 17.0795V11.7873H8.25368V18.0115C8.25368 19.1311 8.6334 20.5472 10.3614 21.0083C12.0913 21.4699 13.0948 20.5144 13.0948 20.5144C13.0034 21.1438 12.4105 21.6049 11.4555 21.7037C10.7329 21.7784 9.80882 21.5391 9.34787 21.3415V24.6391C10.5224 24.9854 11.7648 25.0973 12.9806 24.8614C15.187 24.4333 16.5795 22.5891 16.5795 20.1356V11.7873H12.9735Z" fill="white"/>
</g>
<defs>
<clipPath id="clip0">
<rect width="24" height="16.9912" fill="white" transform="translate(4 8)"/>
</clipPath>
</defs>
</svg>
