<svg width="32" height="32" viewBox="0 0 32 32" fill="none" xmlns="http://www.w3.org/2000/svg">
<path d="M0 16C0 24.8365 7.16344 32 16 32C24.8365 32 32 24.8365 32 16C32 7.16344 24.8365 0 16 0C7.16344 0 0 7.16344 0 16Z" fill="#224C5A"/>
<g clip-path="url(#clip0)">
<path d="M16.6365 15.0763C15.2079 14.7988 13.7793 14.5213 12.3507 14.2436L11.6973 14.1164V12.8431C11.6973 12.1427 11.7042 11.5696 11.7127 11.5695C11.756 11.5689 20.2506 13.2242 20.2639 13.2358C20.2725 13.2433 20.2771 13.8192 20.2742 14.5156L20.2689 15.7818L16.6365 15.0763V15.0763Z" fill="#F08A04"/>
<path d="M8.78496 25.9755C8.61518 25.9656 8.43588 25.9519 8.38652 25.9452C8.29931 25.9332 8.29717 25.9311 8.30936 25.8702C8.31627 25.8357 8.3219 25.7067 8.3219 25.5836V25.3598H9.01855C9.48068 25.3598 9.73754 25.3521 9.7815 25.3367C9.86092 25.309 9.886 25.2526 9.886 25.1017C9.886 25.0086 9.87839 24.9855 9.8397 24.961C9.81423 24.9448 9.55723 24.8893 9.26859 24.8375C8.64531 24.7257 8.55084 24.6997 8.45215 24.6131C8.32103 24.4979 8.30229 24.4277 8.30177 24.0486C8.30122 23.6414 8.33002 23.5377 8.4805 23.4053C8.624 23.279 8.77995 23.237 9.15282 23.2245C9.43348 23.2151 10.2159 23.247 10.3748 23.2743L10.4417 23.2858V23.8575H9.77449C9.40755 23.8575 9.09267 23.8631 9.07476 23.87C9.05072 23.8792 9.04221 23.9111 9.04221 23.992C9.04221 24.0859 9.04852 24.1037 9.08622 24.1156C9.11042 24.1233 9.3693 24.174 9.66153 24.2283C10.2308 24.334 10.362 24.377 10.4772 24.4957C10.5844 24.606 10.596 24.6674 10.596 25.1232V25.5348L10.5343 25.6582C10.4625 25.8018 10.3494 25.897 10.1886 25.9492C10.1023 25.9773 9.98589 25.985 9.58759 25.9888C9.31593 25.9915 8.95475 25.9855 8.78496 25.9755ZM10.7562 25.9505C10.7692 25.9168 11.5268 23.5312 11.5661 23.4005C11.6163 23.2335 11.5903 23.2401 12.2002 23.2401C12.6161 23.2401 12.7467 23.2462 12.7636 23.2665C12.7756 23.281 12.9698 23.8761 13.1951 24.5888C13.4204 25.3015 13.6114 25.9057 13.6197 25.9314L13.6346 25.9781L13.2393 25.9725L12.8439 25.9669L12.7569 25.6685L12.6699 25.3701L12.1959 25.3646L11.7219 25.3591L11.6798 25.4984C11.6567 25.575 11.6164 25.7141 11.5904 25.8075L11.543 25.9772H11.1445C10.8264 25.9772 10.748 25.9719 10.7562 25.9505ZM12.4991 24.7373C12.4987 24.7231 12.4398 24.5078 12.3682 24.2588C12.2471 23.8378 12.2347 23.806 12.1907 23.806C12.1465 23.806 12.1345 23.8374 12.0131 24.2691C11.9414 24.5238 11.8827 24.7391 11.8825 24.7476C11.8824 24.7561 12.0212 24.763 12.191 24.763C12.4246 24.763 12.4995 24.7567 12.4991 24.7373V24.7373ZM13.9403 24.6087V23.2401H14.6606V25.9772H13.9403V24.6087ZM15.1545 24.6077V23.2381L16.0755 23.2442C16.9798 23.2502 16.9986 23.2512 17.1127 23.2973C17.2687 23.3604 17.4034 23.4832 17.4738 23.6267C17.5306 23.7423 17.5317 23.7514 17.5382 24.1712C17.5458 24.6625 17.5299 24.7503 17.4026 24.9174C17.3083 25.0412 17.1192 25.1453 16.9347 25.1751C16.8668 25.186 16.6052 25.195 16.3533 25.1951L15.8954 25.1952V25.9773H15.1545V24.6077V24.6077ZM16.6871 24.5691C16.8003 24.5218 16.8262 24.4459 16.8181 24.1848C16.8116 23.9722 16.8084 23.9584 16.7542 23.9042L16.6972 23.8472L16.2963 23.8408L15.8954 23.8344V24.5984H16.2562C16.5215 24.5984 16.6356 24.5906 16.6871 24.5691ZM17.9535 24.6087V23.2401H20.0321V23.8369H18.6738V24.2897H19.8263V24.9071H18.6738V25.3598H20.0321V25.9772H17.9535V24.6087ZM20.5054 24.6087V23.2401H21.4305L21.4587 23.2967C21.4742 23.3278 21.6157 23.698 21.7731 24.1194C21.9304 24.5408 22.0644 24.8858 22.0709 24.8861C22.0773 24.8863 22.2208 24.5183 22.3899 24.0684L22.6972 23.2504L23.1654 23.2448L23.6336 23.2393V25.9772H22.9133L22.9117 25.2312L22.9102 24.4852L22.6596 25.2261L22.4091 25.9669H21.7334L21.4847 25.2261L21.236 24.4852L21.2306 25.2312L21.2252 25.9772H20.5054V24.6087ZM8.3219 19.4121V17.4776H10.8944V18.7536H15.6279V21.3467H8.3219V19.4121ZM16.3482 20.0501V18.7536H17.3121C17.8422 18.7536 18.9026 18.7474 19.6685 18.7399L21.0611 18.7262V16.0518C21.0611 13.5148 21.0629 13.3778 21.0971 13.3866C21.1169 13.3917 21.7003 13.5063 22.3935 13.6411L23.6539 13.8863L23.654 17.6165L23.6542 21.3467H16.3482V20.0501ZM10.2462 13.8358C9.91791 13.7707 9.35067 13.6594 8.98562 13.5885L8.3219 13.4596V6.0144H15.6279V8.56635H10.8944V11.2624C10.8944 13.4066 10.8892 13.9579 10.8687 13.9562C10.8546 13.955 10.5744 13.9008 10.2462 13.8358ZM21.0611 9.20434V8.56635H16.3482V6.0144H23.6542V9.84233H21.0611V9.20434Z" fill="white"/>
</g>
<defs>
<clipPath id="clip0">
<rect width="15.3558" height="20" fill="white" transform="translate(8.2998 6)"/>
</clipPath>
</defs>
</svg>
