<svg width="32" height="32" viewBox="0 0 32 32" fill="none" xmlns="http://www.w3.org/2000/svg">
<path d="M0 16C0 24.8365 7.16344 32 16 32C24.8365 32 32 24.8365 32 16C32 7.16344 24.8365 0 16 0C7.16344 0 0 7.16344 0 16Z" fill="#25441E"/>
<path d="M19.926 9.06614C21.472 9.06614 22.726 15.5902 22.726 23.6481H24.982C24.982 14.9742 22.706 7.95215 19.918 7.95215C18.318 7.95215 16.918 10.0561 15.988 13.3521C15.058 10.0481 13.652 7.95215 12.072 7.95215C9.28401 7.95215 7.01401 14.9681 7.01401 23.6421H9.27201C9.27201 15.5841 10.514 9.06614 12.06 9.06614C13.606 9.06614 14.86 15.0942 14.86 22.5281H17.106C17.106 15.0942 18.366 9.06614 19.906 9.06614" fill="#FFCC05"/>
</svg>
