<svg width="32" height="32" viewBox="0 0 32 32" fill="none" xmlns="http://www.w3.org/2000/svg">
<path d="M0 16C0 24.8365 7.16344 32 16 32C24.8365 32 32 24.8365 32 16C32 7.16344 24.8365 0 16 0C7.16344 0 0 7.16344 0 16Z" fill="#EFEFEF"/>
<path d="M16 0.666666C24.4 0.666666 31.3334 7.6 31.3334 16C31.3334 24.4 24.4 31.3334 16 31.3334C7.6 31.3334 0.666666 24.4 0.666666 16C0.666666 7.6 7.6 0.666666 16 0.666666ZM16 0C7.2 0 0 7.2 0 16C0 24.8 7.2 32 16 32C24.8 32 32 24.8 32 16C32 7.2 24.8 0 16 0Z" fill="#999999"/>
<path d="M17.6459 22.4862V9.55617C17.6459 8.51422 17.208 8.17422 16.22 8.17422H13.256V9.60022H13.586C14.1339 9.60022 14.354 9.80022 14.354 10.4462V22.4862H17.6459ZM19.402 22.4862H22.586V12.7302C22.586 11.7422 22.146 11.3462 21.1579 11.3462H19.4L19.402 22.4862ZM12.602 22.4862V11.3462H10.842C9.85393 11.3462 9.41393 11.7462 9.41393 12.7302V22.4862H12.602ZM26.3179 16.0002C26.3179 22.0462 21.9179 26.4602 16 26.4602C10.082 26.4602 5.68196 22.0362 5.68196 16.0002C5.68196 9.96417 10.072 5.52822 16 5.52822C21.928 5.52822 26.3179 9.94224 26.3179 16.0002ZM28.4 16.0002C28.4 8.92021 23.13 3.60022 16 3.60022C8.97595 3.60022 3.59995 8.91022 3.59995 16.0002C3.59995 23.0902 8.97595 28.4002 16 28.4002C23.1339 28.4002 28.4 23.0862 28.4 15.9862" fill="#124B90"/>
</svg>
