<svg width="32" height="32" viewBox="0 0 32 32" fill="none" xmlns="http://www.w3.org/2000/svg">
<path d="M0 16C0 24.8365 7.16344 32 16 32C24.8365 32 32 24.8365 32 16C32 7.16344 24.8365 0 16 0C7.16344 0 0 7.16344 0 16Z" fill="#283779"/>
<path d="M25.49 16.5381V17.9722H26.29V16.5582C26.29 16.0241 26.49 15.8462 26.866 15.8462H27.148V15.1342H26.8C25.958 15.1342 25.486 15.6481 25.486 16.5342L25.49 16.5381Z" fill="white"/>
<path d="M14.1521 16.5381V17.9722H14.9521V16.5582C14.9521 16.0241 15.1521 15.8462 15.5281 15.8462H15.8101V15.1342H15.4661C14.6261 15.1342 14.1521 15.6481 14.1521 16.5342V16.5381Z" fill="white"/>
<path d="M27.4638 14.9183C27.4576 14.7836 27.4856 14.6495 27.545 14.5285C27.6044 14.4076 27.6935 14.3036 27.8039 14.2262C28.0238 14.1177 28.2696 14.0719 28.5139 14.0943H28.8259V14.7222H28.6458C28.5219 14.7222 28.3998 14.7222 28.3338 14.8522C28.2858 14.9183 28.2858 14.9562 28.2858 15.0783V15.1722H28.8259V15.8182H28.2858V17.4463C28.2858 17.4463 28.2679 17.9722 27.8238 17.9722H27.4638C27.4638 17.9722 27.4638 15.0022 27.4638 14.9183Z" fill="white"/>
<path d="M4.54397 17.2399C4.65796 17.2399 4.76996 17.2399 4.88397 17.2399C4.96683 17.2481 5.05045 17.2362 5.12774 17.2052C5.20503 17.1742 5.27371 17.125 5.32797 17.0619C5.39342 16.9767 5.42671 16.8712 5.42196 16.7639C5.42872 16.6594 5.39709 16.5559 5.33301 16.4731C5.26894 16.3903 5.17683 16.3336 5.07396 16.3138C4.91998 16.2961 4.76486 16.29 4.60996 16.2959H4.04397V17.1279C4.04397 17.1279 4.04397 17.2399 4.15597 17.2399H4.54397ZM4.51597 15.5999C4.72506 15.6206 4.93617 15.605 5.13997 15.5538C5.20422 15.5203 5.25733 15.4688 5.29283 15.4056C5.32835 15.3424 5.34472 15.2702 5.33997 15.1979C5.34407 15.1256 5.32386 15.054 5.28253 14.9946C5.2412 14.9351 5.18115 14.8912 5.11197 14.8699C4.94645 14.8222 4.77347 14.8059 4.60196 14.8219H4.04397V15.5999H4.51597ZM4.47796 14.0919C4.67796 14.0919 4.90397 14.0919 5.11197 14.0919C5.44504 14.1084 5.76071 14.2456 5.99997 14.4779C6.14911 14.6417 6.22996 14.8563 6.22596 15.0779C6.23037 15.2206 6.1979 15.3619 6.13168 15.4884C6.06547 15.6149 5.96774 15.7222 5.84797 15.7999C5.79119 15.8418 5.72758 15.8737 5.65997 15.8939C5.75141 15.9314 5.83697 15.9819 5.91396 16.0439C6.04318 16.1322 6.14773 16.252 6.21773 16.392C6.28772 16.532 6.32084 16.6875 6.31396 16.8439C6.31429 17.0696 6.24898 17.2906 6.12596 17.4799C5.75597 18.0039 5.09597 17.9679 4.92596 17.9679H3.72596C3.57898 17.9668 3.43826 17.9083 3.33395 17.8047C3.22963 17.7011 3.17006 17.5608 3.16797 17.4139V14.0939L4.47796 14.0919Z" fill="white"/>
<path d="M9.73985 15.1622H10.5619V17.9622H9.73985V15.1622Z" fill="white"/>
<path d="M19.7078 16.5759C19.698 16.6955 19.712 16.8157 19.7491 16.9296C19.7862 17.0436 19.8456 17.1491 19.9238 17.2399C19.9708 17.2964 20.0304 17.3412 20.0978 17.3707C20.1651 17.4002 20.2384 17.4137 20.3118 17.4099C20.4264 17.4143 20.5395 17.3813 20.6338 17.316C20.8038 17.1939 20.9178 16.9699 20.9178 16.548C20.9277 16.4239 20.9118 16.2991 20.8712 16.1813C20.8306 16.0637 20.7661 15.9556 20.6818 15.8639C20.5831 15.7834 20.4592 15.7403 20.3318 15.742C20.0298 15.7519 19.7078 15.958 19.7078 16.5759ZM21.7298 14.094V17.972H20.9178C20.9175 17.8623 20.9235 17.7529 20.9358 17.644C20.8943 17.7341 20.8336 17.814 20.7578 17.878C20.5796 18.0084 20.3624 18.0747 20.1418 18.0659C19.9603 18.0711 19.7799 18.0355 19.6138 17.9619C19.2918 17.8019 18.8858 17.4099 18.8858 16.5939C18.8897 16.3773 18.9282 16.1626 18.9998 15.958C19.0723 15.7035 19.2261 15.4797 19.4377 15.3207C19.6493 15.1618 19.9072 15.0766 20.1718 15.078C20.3936 15.0728 20.6113 15.1379 20.7938 15.2639C20.834 15.3039 20.8695 15.3482 20.8998 15.396V14.5999C20.898 14.5311 20.9105 14.4626 20.9368 14.399C20.9629 14.3353 21.0021 14.2778 21.0519 14.2302C21.1016 14.1824 21.1607 14.1457 21.2254 14.1223C21.2902 14.0989 21.3591 14.0892 21.4278 14.094H21.7298Z" fill="white"/>
<path d="M8.55998 16.2299C8.56064 16.1883 8.55388 16.147 8.53998 16.1079C8.51083 15.9891 8.44116 15.884 8.34296 15.8111C8.24477 15.7381 8.12418 15.7015 8.00198 15.7079C7.87743 15.706 7.75551 15.7437 7.65378 15.8156C7.55205 15.8875 7.47579 15.9898 7.43598 16.1079C7.41598 16.1639 7.40598 16.2299 7.39798 16.2479H8.55998V16.2299ZM7.39998 16.8099C7.39969 16.9345 7.43968 17.0559 7.51398 17.1559C7.57011 17.242 7.6474 17.3122 7.73845 17.3598C7.82951 17.4074 7.93126 17.4309 8.03398 17.4279C8.13315 17.433 8.23189 17.4115 8.31985 17.3654C8.40782 17.3192 8.48177 17.2503 8.53398 17.1659H9.37598C9.27715 17.4474 9.0895 17.6891 8.84132 17.8548C8.59313 18.0203 8.29785 18.1007 7.99998 18.0839C7.818 18.0843 7.6371 18.056 7.46398 17.9999C7.18429 17.8932 6.94616 17.6997 6.78454 17.4477C6.62292 17.1958 6.54632 16.8986 6.56598 16.5999C6.56033 16.2341 6.6733 15.8762 6.88798 15.5799C7.02066 15.4105 7.19189 15.2754 7.38741 15.1856C7.58293 15.0958 7.79707 15.0541 8.01198 15.0639C8.21346 15.0659 8.41283 15.1052 8.59998 15.1799C8.88198 15.3019 9.24198 15.5799 9.37398 16.2579C9.4023 16.409 9.41835 16.5622 9.42202 16.7159C9.42362 16.7476 9.42023 16.7793 9.41195 16.8099H7.39998Z" fill="white"/>
<path d="M12.9621 16.2301C12.9627 16.1888 12.9566 16.1475 12.9441 16.1081C12.9142 15.9893 12.8441 15.8845 12.7456 15.8115C12.6472 15.7387 12.5265 15.7021 12.4041 15.7081C12.2792 15.7046 12.1565 15.7418 12.0545 15.8139C11.9525 15.886 11.8765 15.9892 11.8381 16.1081C11.8207 16.1534 11.808 16.2002 11.8001 16.2481H12.9621V16.2301ZM11.8001 16.8101C11.8093 16.933 11.8485 17.0518 11.9141 17.1561C11.9703 17.2422 12.0475 17.3124 12.1385 17.36C12.2297 17.4077 12.3314 17.4311 12.4341 17.4281C12.5335 17.4343 12.6326 17.4132 12.7208 17.367C12.8089 17.3208 12.8827 17.2513 12.9341 17.1661H13.7741C13.6779 17.449 13.4912 17.6922 13.2428 17.8581C12.9944 18.0241 12.6982 18.1035 12.4001 18.0841C12.2187 18.0852 12.0384 18.0569 11.8661 18.0001C11.5849 17.8947 11.345 17.7018 11.1819 17.4497C11.0187 17.1976 10.941 16.8997 10.9601 16.6001C10.9545 16.233 11.0704 15.8743 11.2901 15.5801C11.4218 15.4134 11.591 15.2802 11.7838 15.1913C11.9767 15.1023 12.1879 15.0601 12.4001 15.0681C12.6055 15.0657 12.8094 15.1038 13.0001 15.1801C13.2841 15.3021 13.6521 15.5801 13.7761 16.2581C13.8024 16.4095 13.8178 16.5625 13.8221 16.7161C13.8261 16.7473 13.8261 16.7789 13.8221 16.8101H11.8001Z" fill="white"/>
<path d="M17.78 16C17.7716 15.9498 17.7525 15.9021 17.724 15.86C17.6749 15.7897 17.6077 15.7341 17.5295 15.6989C17.4514 15.6637 17.3652 15.6503 17.28 15.66C17.204 15.66 17.148 15.66 17.128 15.66C16.95 15.708 16.882 15.82 16.882 15.904C16.8841 15.9374 16.8961 15.9695 16.9163 15.9962C16.9367 16.0229 16.9643 16.043 16.996 16.054C17.1002 16.0952 17.208 16.1266 17.318 16.148L17.62 16.204L17.884 16.26C18.168 16.336 18.404 16.42 18.536 16.7C18.5818 16.8168 18.6075 16.9406 18.612 17.066C18.6139 17.26 18.5544 17.4498 18.442 17.608C18.282 17.852 17.97 18.05 17.346 18.05C16.722 18.05 16.42 17.862 16.24 17.65C16.1035 17.4787 16.0244 17.2688 16.014 17.05H16.8C16.8046 17.1212 16.8273 17.19 16.866 17.25C16.928 17.32 17.0056 17.3745 17.0923 17.4092C17.1791 17.444 17.2728 17.4579 17.366 17.45C17.4233 17.451 17.4805 17.4442 17.536 17.43C17.566 17.43 17.792 17.366 17.792 17.168C17.792 16.97 17.612 16.944 17.31 16.878C16.782 16.756 16.51 16.7 16.31 16.522C16.2408 16.4542 16.1864 16.3729 16.1503 16.283C16.1141 16.1931 16.097 16.0968 16.1 16C16.1017 15.8283 16.1501 15.6602 16.24 15.514C16.402 15.28 16.694 15.074 17.29 15.074C17.422 15.074 18.008 15.074 18.348 15.474C18.4758 15.6188 18.5467 15.8049 18.548 15.998L17.78 16Z" fill="white"/>
<path d="M22.9481 16.5762C22.9481 17.2123 23.3081 17.4103 23.6201 17.4103C23.7241 17.4081 23.8267 17.3856 23.9222 17.3442C24.1101 17.2402 24.2902 17.0162 24.2902 16.5442C24.2919 16.4141 24.273 16.2845 24.2342 16.1602C24.1977 16.0277 24.1168 15.9116 24.0051 15.8315C23.8933 15.7514 23.7574 15.7121 23.6201 15.7202C23.3081 15.7202 22.9481 15.9083 22.9481 16.5723V16.5762ZM24.6221 15.4002C24.784 15.5446 24.9126 15.7223 24.9989 15.9213C25.0852 16.1201 25.1272 16.3355 25.1222 16.5522C25.1358 16.8647 25.0498 17.1733 24.8765 17.4336C24.7032 17.6939 24.4517 17.8924 24.1581 18.0002C23.9809 18.0554 23.7958 18.0811 23.6102 18.0763C23.4062 18.0797 23.2032 18.0478 23.0102 17.9822C22.7357 17.8691 22.5031 17.6737 22.3441 17.4231C22.1851 17.1725 22.1076 16.8787 22.1222 16.5823C22.1172 16.1957 22.2514 15.8202 22.5001 15.5243C22.651 15.3772 22.8303 15.2623 23.0269 15.1867C23.2236 15.1111 23.4336 15.0762 23.6441 15.0843C23.9959 15.0802 24.3393 15.1912 24.6221 15.4002Z" fill="white"/>
<path d="M10.628 14.3561C10.6201 14.4772 10.5664 14.5908 10.4778 14.6739C10.3893 14.7569 10.2724 14.8031 10.151 14.8031C10.0296 14.8031 9.91266 14.7569 9.8241 14.6739C9.73544 14.5908 9.68179 14.4772 9.67398 14.3561C9.68179 14.2349 9.73544 14.1213 9.8241 14.0382C9.91266 13.9551 10.0296 13.9089 10.151 13.9089C10.2724 13.9089 10.3893 13.9551 10.4778 14.0382C10.5664 14.1213 10.6201 14.2349 10.628 14.3561Z" fill="white"/>
</svg>
