<svg width="32" height="32" viewBox="0 0 32 32" fill="none" xmlns="http://www.w3.org/2000/svg">
<path d="M0 16C0 24.8365 7.16344 32 16 32C24.8365 32 32 24.8365 32 16C32 7.16344 24.8365 0 16 0C7.16344 0 0 7.16344 0 16Z" fill="#EFEFEF"/>
<path d="M16 0.666666C24.4 0.666666 31.3334 7.6 31.3334 16C31.3334 24.4 24.4 31.3334 16 31.3334C7.6 31.3334 0.666666 24.4 0.666666 16C0.666666 7.6 7.6 0.666666 16 0.666666ZM16 0C7.2 0 0 7.2 0 16C0 24.8 7.2 32 16 32C24.8 32 32 24.8 32 16C32 7.2 24.8 0 16 0Z" fill="#999999"/>
<path d="M10.496 21.2H7.76L4 10H6.4L9.136 18.608L11.856 10H14.272L10.496 21.2Z" fill="#151528"/>
<path d="M15.3514 21.2V10H17.5594V21.2H15.3514Z" fill="#151528"/>
<path d="M24.7206 15.44L28.1606 21.2H25.6486L23.4726 17.552L21.2966 21.2H18.8006L22.2246 15.456L18.9766 10H21.4726L23.4726 13.36L25.4726 10H27.9686L24.7206 15.44Z" fill="#151528"/>
</svg>
