<svg width="32" height="32" viewBox="0 0 32 32" fill="none" xmlns="http://www.w3.org/2000/svg">
<path d="M0 16C0 24.8365 7.16344 32 16 32C24.8365 32 32 24.8365 32 16C32 7.16344 24.8365 0 16 0C7.16344 0 0 7.16344 0 16Z" fill="#A61E1E"/>
<path d="M0 16C0 24.8365 7.16344 32 16 32C24.8365 32 32 24.8365 32 16C32 7.16344 24.8365 0 16 0C7.16344 0 0 7.16344 0 16Z" fill="#EFEFEF"/>
<path d="M16 0.666666C24.4 0.666666 31.3334 7.6 31.3334 16C31.3334 24.4 24.4 31.3334 16 31.3334C7.6 31.3334 0.666666 24.4 0.666666 16C0.666666 7.6 7.6 0.666666 16 0.666666ZM16 0C7.2 0 0 7.2 0 16C0 24.8 7.2 32 16 32C24.8 32 32 24.8 32 16C32 7.2 24.8 0 16 0Z" fill="#999999"/>
<path d="M15.348 17.644C15.3704 18.3261 15.0748 18.98 14.548 19.414C14.0147 19.866 13.3027 20.092 12.412 20.092C11.46 20.092 10.6847 19.924 10.086 19.588V17.728C10.752 18.2344 11.5636 18.5121 12.4 18.52C12.6508 18.5294 12.897 18.4509 13.0961 18.298C13.3343 18.1069 13.4297 17.7886 13.336 17.498C13.308 17.422 13.2629 17.3536 13.204 17.298C13.1464 17.2399 13.085 17.1858 13.02 17.136C12.935 17.0781 12.8461 17.026 12.7541 16.98L12.46 16.83C12.38 16.79 12.262 16.734 12.1061 16.662C11.95 16.59 11.824 16.534 11.728 16.494C11.2563 16.2838 10.8323 15.9796 10.4821 15.6C10.153 15.2099 9.98372 14.7097 10.008 14.2C9.9872 13.5486 10.2721 12.9249 10.7781 12.514C11.2888 12.078 11.996 11.86 12.9 11.86C13.6175 11.8395 14.3308 11.976 14.99 12.26V14C14.3805 13.6352 13.6844 13.4405 12.974 13.436C12.7198 13.4211 12.4678 13.4915 12.2581 13.636C12.1013 13.7506 12.0096 13.9338 12.012 14.128C12.0204 14.3439 12.132 14.5426 12.312 14.662C12.5914 14.8628 12.8936 15.0299 13.212 15.16C13.46 15.272 13.6661 15.37 13.8321 15.454C14.0286 15.557 14.2184 15.6726 14.4 15.8C14.5915 15.9287 14.7616 16.0866 14.904 16.268C15.0388 16.4514 15.1459 16.6536 15.222 16.868C15.3093 17.1173 15.352 17.38 15.348 17.644ZM19.272 17.38H18.336V20H16.4881V11.908H19.272C20.168 11.908 20.894 12.16 21.4501 12.664C21.998 13.1494 22.3032 13.8522 22.284 14.584C22.284 15.472 21.9941 16.16 21.414 16.648C20.8124 17.1437 20.0512 17.4039 19.272 17.38ZM19.056 13.38H18.336V15.916H18.948C19.924 15.916 20.412 15.472 20.412 14.584C20.412 13.784 19.96 13.384 19.056 13.384V13.38Z" fill="#01478C"/>
</svg>
