<svg width="32" height="32" viewBox="0 0 32 32" fill="none" xmlns="http://www.w3.org/2000/svg">
<path d="M0 16C0 24.8365 7.16344 32 16 32C24.8365 32 32 24.8365 32 16C32 7.16344 24.8365 0 16 0C7.16344 0 0 7.16344 0 16Z" fill="#ED2424"/>
<path d="M20.3 15.1757C20.3 15.9397 19.8239 16.9437 19.4799 17.6077C18.938 18.6517 18.2079 19.2757 17.02 19.3497C15.9679 19.4157 13.594 19.5977 14.02 17.8277C14.1999 17.0597 14.6 16.3857 14.8379 15.6457C15.664 13.9997 17.746 13.6797 19.3999 14.0937C19.9599 14.2937 20.258 14.5697 20.3019 15.1757H20.3ZM17.524 15.2497C16.674 15.2497 16.57 16.4357 16.412 17.0737C16.372 17.3137 16.1019 18.1197 16.5359 18.1197C17.5579 18.3197 17.652 17.2057 17.8239 16.4577C17.8879 16.1837 18.012 15.7217 17.956 15.4397C17.956 15.2397 17.6639 15.2637 17.524 15.2397V15.2497ZM11.674 15.3017C11.57 17.3017 10.1579 17.1537 8.47395 17.1457C7.83596 17.1457 7.18595 17.1017 6.55596 17.1017C6.33196 17.3377 6.99996 18.0537 7.19996 18.1717C7.51382 18.3541 7.8804 18.4244 8.23948 18.371C8.59856 18.3176 8.9288 18.1437 9.17596 17.8777C9.45591 17.8777 12.4539 17.4777 11.4159 18.5217C10.8745 18.9552 10.2364 19.2515 9.55596 19.3857C7.49996 19.8737 3.05795 18.6917 4.55596 15.7857C5.57996 14.0997 7.79795 13.1857 9.62993 12.7037C9.79906 12.669 9.96998 12.6443 10.1419 12.6297C11.4459 12.5317 11.6799 14.3317 11.6799 15.2957L11.674 15.3017ZM9.76396 15.1397C9.77497 14.9581 9.75746 14.7759 9.71191 14.5997C9.51191 13.7877 7.39996 15.5197 7.14995 15.7697C7.11795 15.8337 7.14995 15.8137 7.18595 15.8357H9.28796C9.74796 15.7597 9.76396 15.6197 9.76396 15.1537V15.1397ZM13.826 16.1717C13.668 16.4917 13.7039 16.9117 13.38 17.1537C12.938 17.4837 11.8239 17.4857 12.0699 16.6857C12.3019 15.9237 12.7419 15.5997 13.5419 15.7997C13.7419 15.8637 13.7819 15.9997 13.826 16.1717ZM27.7519 15.1837C27.7453 15.3916 27.7165 15.5981 27.666 15.7997C27.3999 16.9677 26.9739 18.0777 26.5999 19.1997C26.252 19.5477 25.53 19.3577 25.1579 19.1337C24.97 18.9477 25.434 17.9937 25.5099 17.7637C25.6219 17.4117 26.244 16.1077 25.722 15.8457C25.563 15.8461 25.4049 15.8683 25.252 15.9117C23.6879 16.4597 22.578 18.0517 21.452 19.1777C20.964 19.4237 20.6139 19.3597 20.1339 19.1197C20.0879 19.0717 20.1099 18.9957 20.1199 18.9357C20.5092 17.4116 21.0312 15.9247 21.6799 14.4917C21.778 14.1997 22.7839 14.3077 23.034 14.4337C23.034 14.7557 22.9999 15.2977 23.466 15.2977C24.5119 15.1817 27.066 12.9137 27.72 14.8577C27.7409 14.9638 27.7529 15.0716 27.756 15.1797L27.7519 15.1837Z" fill="white"/>
</svg>
