<svg width="32" height="32" viewBox="0 0 32 32" fill="none" xmlns="http://www.w3.org/2000/svg">
<path d="M0 16C0 24.8365 7.16344 32 16 32C24.8365 32 32 24.8365 32 16C32 7.16344 24.8365 0 16 0C7.16344 0 0 7.16344 0 16Z" fill="#E11F26"/>
<path d="M17.284 9.49362C17.284 9.49362 23.9339 10.6656 23.9339 17.4516C23.9339 23.4256 18.5839 25.6516 15.876 25.6516C12.3459 25.6456 7.19991 22.8396 7.19991 16.3996C7.19991 5.85559 17.9999 2.54158 21.9779 3.03958C16.6299 4.97559 17.284 9.49362 17.284 9.49362Z" fill="white"/>
</svg>
