<svg width="32" height="32" viewBox="0 0 32 32" fill="none" xmlns="http://www.w3.org/2000/svg">
<path d="M0 16C0 24.8365 7.16344 32 16 32C24.8365 32 32 24.8365 32 16C32 7.16344 24.8365 0 16 0C7.16344 0 0 7.16344 0 16Z" fill="#EFEFEF"/>
<path d="M16 0.666666C24.4 0.666666 31.3334 7.6 31.3334 16C31.3334 24.4 24.4 31.3334 16 31.3334C7.6 31.3334 0.666666 24.4 0.666666 16C0.666666 7.6 7.6 0.666666 16 0.666666ZM16 0C7.2 0 0 7.2 0 16C0 24.8 7.2 32 16 32C24.8 32 32 24.8 32 16C32 7.2 24.8 0 16 0Z" fill="#999999"/>
<path d="M10.0901 13.0001C11.752 10.5181 14.622 8.80005 17.528 8.80005C21.4981 8.80005 24.0341 12.018 23.19 16.0001H5.21404V13.0001H10.0901Z" fill="#E49F45"/>
<path d="M22.084 18.7139C20.454 21.3398 17.4821 23.1999 14.47 23.1999C11.5141 23.1999 9.36207 21.4118 8.80006 18.8599C8.78406 18.7999 10.8481 16.3719 15.254 16.4099C20.8901 16.4599 22.1201 18.6539 22.084 18.7139Z" fill="#CF4044"/>
<path d="M26.7859 16V18.766C26.7859 18.766 26.3539 18.79 26.2759 18.79C26.0454 18.7924 25.8151 18.7736 25.5879 18.734C25.4614 18.7037 25.3301 18.6997 25.2019 18.722C25.0071 18.7848 24.8058 18.8258 24.6019 18.844C24.4188 18.8423 24.2364 18.8208 24.0579 18.78C23.8427 18.6899 23.6131 18.6391 23.3799 18.63C23.3419 18.63 23.1479 18.656 22.9499 18.688C22.8319 18.706 22.7139 18.732 22.6259 18.744C22.4813 18.7729 22.3325 18.7729 22.1879 18.744C22.1479 18.744 22.1219 18.73 22.0799 18.722C21.9078 18.676 21.725 18.69 21.5619 18.762C21.4959 18.788 21.0739 18.818 20.9079 18.85C20.7211 18.8561 20.5348 18.8283 20.3579 18.768C20.2358 18.7599 20.1135 18.7818 20.0019 18.832C19.8348 18.8996 19.6622 18.9524 19.4859 18.99C19.3759 18.99 19.2659 18.966 18.9339 18.99C18.7534 18.987 18.574 18.9615 18.3999 18.914C18.2342 18.8727 18.0658 18.8425 17.8959 18.824C17.7113 18.8152 17.5292 18.7782 17.3559 18.714C17.1886 18.6432 17.0095 18.6045 16.8279 18.6C16.5379 18.566 16.3619 18.768 16.0519 18.8C15.8379 18.816 15.6799 18.77 15.5059 18.774C15.3319 18.778 14.9479 18.924 14.7319 18.92C14.4358 18.8856 14.1424 18.8308 13.8539 18.756C13.7579 18.756 13.6539 18.768 13.5419 18.768C13.4499 18.768 13.3579 18.768 13.2659 18.768C13.0721 18.7805 12.8776 18.7616 12.6899 18.712C12.4659 18.6686 12.2381 18.6478 12.0099 18.65C11.761 18.6188 11.5086 18.6311 11.2639 18.686C11.0985 18.7524 10.9221 18.787 10.7439 18.788C10.6248 18.7896 10.506 18.7983 10.3879 18.814C10.2551 18.8283 10.1215 18.8344 9.98786 18.832C9.77223 18.8458 9.55812 18.8779 9.34789 18.928C9.16282 18.9336 8.97798 18.9107 8.79989 18.86C8.58416 17.9189 8.58416 16.9411 8.79989 16H26.7859Z" fill="#1B2E5B"/>
</svg>
