<svg width="32" height="32" viewBox="0 0 32 32" fill="none" xmlns="http://www.w3.org/2000/svg">
<path d="M0 16C0 24.8365 7.16344 32 16 32C24.8365 32 32 24.8365 32 16C32 7.16344 24.8365 0 16 0C7.16344 0 0 7.16344 0 16Z" fill="#EFEFEF"/>
<path d="M16 0.666666C24.4 0.666666 31.3334 7.6 31.3334 16C31.3334 24.4 24.4 31.3334 16 31.3334C7.6 31.3334 0.666666 24.4 0.666666 16C0.666666 7.6 7.6 0.666666 16 0.666666ZM16 0C7.2 0 0 7.2 0 16C0 24.8 7.2 32 16 32C24.8 32 32 24.8 32 16C32 7.2 24.8 0 16 0Z" fill="#999999"/>
<path d="M15.138 19.0062L20.692 11.9702H7.96002L15.138 19.0062Z" fill="#B6B6BA"/>
<path d="M7.88802 12.2742H8.38402V11.9702H5.20002V12.2721H5.69402C6.07802 12.2721 6.22002 12.6302 6.22002 12.8961V18.7802C6.22002 19.0342 6.14202 19.3441 5.75802 19.3441H5.20002V19.6262H8.38003V19.3441H7.82603C7.44203 19.3441 7.36203 19.0342 7.36203 18.7802V12.8982C7.36203 12.6321 7.50402 12.2742 7.88802 12.2742Z" fill="#003A7A"/>
<path d="M12.9179 16.0701C12.9179 16.0701 14.052 15.7421 14.052 14.6061C14.052 13.3421 12.682 13.124 12.364 13.124H9.38396V13.324H9.736C9.86494 13.3533 9.97873 13.4287 10.056 13.5361C10.1316 13.6489 10.1642 13.7852 10.148 13.9201V18.8861C10.1256 19.0161 10.0751 19.1396 10 19.2481C9.90494 19.3404 9.77845 19.3933 9.64593 19.396H9.38797V19.596H12.212C12.932 19.596 14.444 19.2941 14.444 17.882C14.444 16.4701 12.9179 16.0701 12.9179 16.0701ZM11.0619 13.3601H11.914C12.608 13.3601 13.098 13.82 13.098 14.708C13.098 15.4301 12.3979 16.14 11.698 16.14H11.0619V13.3601ZM11.812 19.3741H11.636C11.436 19.3741 11.0619 19.322 11.0619 18.868V16.3601H12.076C12.9019 16.3601 13.4859 16.9281 13.4859 18.098C13.4859 18.874 12.8379 19.3741 11.812 19.3741Z" fill="#013A7A"/>
<path d="M19.542 18.2457C19.4533 18.459 19.3384 18.6606 19.2 18.8457C19.0781 19.0203 18.9257 19.1713 18.75 19.2916C18.5715 19.4082 18.3633 19.4714 18.15 19.4736H17.55C16.782 19.4736 16.75 19.2436 16.75 19.0537V17.1536H17.7141C18.1541 17.1536 18.372 17.7536 18.372 18.0797H18.52V15.9997H18.372C18.372 16.3337 18.1541 16.9277 17.7141 16.9277H16.7541V14.7277H18.34C18.606 14.7277 19.022 15.2137 19.1781 15.5476C19.208 15.6096 19.2341 15.6537 19.256 15.6916H19.456C19.4525 15.674 19.4479 15.6567 19.4421 15.6397C19.2998 15.2817 19.1932 14.9105 19.124 14.5316H15.4261V14.7197H15.696C15.7799 14.7258 15.8582 14.7638 15.9147 14.826C15.9713 14.8881 16.0018 14.9696 16 15.0537V19.1577C16 19.2777 15.9701 19.4697 15.662 19.4697H15.4V19.6297H19.352C19.5001 19.1696 19.636 18.7097 19.742 18.2297C19.6764 18.244 19.6091 18.2494 19.542 18.2457Z" fill="#013A7A"/>
<path d="M26.49 13.2158H26.8V12.9619H24.516V13.1859H24.702C25.366 13.1859 25.302 13.6099 25.228 13.7419L23.646 15.7419L22.246 13.7419C22.166 13.6099 22.046 13.1859 22.482 13.1859H23.046V12.9619H20.092V13.2158H20.4C20.5536 13.2358 20.7006 13.2904 20.8298 13.3757C20.9592 13.4609 21.0673 13.5745 21.146 13.7079L23.07 16.4799L21.292 18.7319C21.14 18.9559 20.764 19.3999 20.4 19.3999H20.084V19.6219H22.464V19.4399H22.064C21.376 19.4399 21.598 18.9539 21.708 18.7719L23.286 16.7999L24.664 18.7859C24.772 18.9679 25.044 19.4439 24.398 19.4439H23.998V19.6259H26.798V19.3999H26.484C26.272 19.3639 25.884 18.9419 25.74 18.7179L23.876 16.0619L25.75 13.7059C25.8282 13.5736 25.9354 13.4607 26.0636 13.3758C26.1918 13.2909 26.3376 13.2363 26.49 13.2158Z" fill="#013A7A"/>
</svg>
