<svg width="32" height="32" viewBox="0 0 32 32" fill="none" xmlns="http://www.w3.org/2000/svg">
<path d="M0 16C0 24.8365 7.16344 32 16 32C24.8365 32 32 24.8365 32 16C32 7.16344 24.8365 0 16 0C7.16344 0 0 7.16344 0 16Z" fill="#EFEFEF"/>
<path d="M16 0.666666C24.4 0.666666 31.3334 7.6 31.3334 16C31.3334 24.4 24.4 31.3334 16 31.3334C7.6 31.3334 0.666666 24.4 0.666666 16C0.666666 7.6 7.6 0.666666 16 0.666666ZM16 0C7.2 0 0 7.2 0 16C0 24.8 7.2 32 16 32C24.8 32 32 24.8 32 16C32 7.2 24.8 0 16 0Z" fill="#999999"/>
<path d="M11.878 21.8944C12.078 22.2583 11.864 22.7463 11.502 22.7463H6.33399C5.97199 22.7463 5.75599 22.2583 5.95799 21.8944L6.99999 20.0003C7.03521 19.9294 7.08891 19.8693 7.15544 19.8264C7.22198 19.7834 7.29886 19.7592 7.37799 19.7563H10.45C10.5291 19.7592 10.606 19.7834 10.6726 19.8264C10.7391 19.8693 10.7928 19.9294 10.828 20.0003L11.878 21.8944ZM17.904 20.0003C17.8689 19.9297 17.8155 19.8698 17.7494 19.8269C17.6832 19.784 17.6068 19.7596 17.528 19.7563H14.462C14.3829 19.7592 14.306 19.7834 14.2394 19.8264C14.1729 19.8693 14.1192 19.9294 14.084 20.0003L13.034 21.8944C12.834 22.2583 13.048 22.7463 13.412 22.7463H18.578C18.94 22.7463 19.156 22.2583 18.954 21.8944L17.904 20.0003ZM17.904 11.7863C17.8689 11.7157 17.8155 11.6558 17.7494 11.6129C17.6832 11.5699 17.6068 11.5456 17.528 11.5424H14.462C14.3829 11.5452 14.306 11.5695 14.2394 11.6124C14.1729 11.6553 14.1192 11.7154 14.084 11.7863L13.034 13.6803C12.834 14.0443 13.048 14.5323 13.412 14.5323H18.578C18.94 14.5323 19.156 14.0443 18.954 13.6803L17.904 11.7863ZM24.98 20.0003C24.9446 19.9291 24.8906 19.8689 24.8237 19.8258C24.7568 19.7829 24.6794 19.7588 24.6 19.7563H21.538C21.4588 19.7592 21.3819 19.7834 21.3155 19.8264C21.2489 19.8693 21.1952 19.9294 21.16 20.0003L20.11 21.8944C19.91 22.2583 20.124 22.7463 20.488 22.7463H25.654C26.016 22.7463 26.232 22.2583 26.03 21.8944L24.98 20.0003ZM21.58 15.8923C21.5444 15.8215 21.4902 15.7617 21.4233 15.719C21.3564 15.6764 21.2792 15.6527 21.2 15.6503H18.132C18.0531 15.6532 17.9765 15.6772 17.91 15.7198C17.8435 15.7623 17.7896 15.8219 17.754 15.8923L16.704 17.7883C16.504 18.1504 16.72 18.6384 17.082 18.6384H22.248C22.61 18.6384 22.826 18.1504 22.626 17.7883L21.58 15.8923ZM14.24 15.8923C14.2043 15.8219 14.1505 15.7623 14.084 15.7198C14.0175 15.6772 13.9409 15.6532 13.862 15.6503H10.8C10.7215 15.6536 10.6452 15.6777 10.5791 15.7202C10.513 15.7628 10.4595 15.8222 10.424 15.8923L9.37399 17.7883C9.17399 18.1504 9.38799 18.6384 9.75002 18.6384H14.906C15.27 18.6384 15.486 18.1504 15.284 17.7883L14.24 15.8923Z" fill="#B2B2B2"/>
<path d="M16.0001 10.2324C15.9332 10.2324 15.8691 10.2058 15.8218 10.1586C15.7746 10.1114 15.748 10.0473 15.748 9.98043V7.90642C15.748 7.83959 15.7746 7.77549 15.8218 7.72823C15.8691 7.68097 15.9332 7.65442 16.0001 7.65442C16.0669 7.65442 16.131 7.68097 16.1783 7.72823C16.2255 7.77549 16.252 7.83959 16.252 7.90642V9.98043C16.252 10.0473 16.2255 10.1114 16.1783 10.1586C16.131 10.2058 16.0669 10.2324 16.0001 10.2324Z" fill="#B2B2B2"/>
<path d="M18.828 10.5508C18.7832 10.5504 18.7391 10.5387 18.7 10.5167C18.6427 10.4823 18.6014 10.4266 18.5849 10.3618C18.5685 10.297 18.5782 10.2284 18.612 10.1707L19.7659 8.22675C19.8007 8.17077 19.8559 8.13061 19.9199 8.11485C19.9838 8.09911 20.0515 8.10903 20.1081 8.14249C20.1649 8.17596 20.2063 8.23031 20.2234 8.29391C20.2406 8.35751 20.2322 8.42529 20.2 8.48275L19.0459 10.4287C19.0235 10.4665 18.9915 10.4975 18.9533 10.519C18.915 10.5403 18.8718 10.5514 18.828 10.5508Z" fill="#B2B2B2"/>
<path d="M13.16 10.5502C13.1165 10.55 13.0739 10.5387 13.036 10.5173C12.9982 10.496 12.9665 10.4653 12.944 10.4281L11.8 8.48215C11.7797 8.45375 11.7655 8.42144 11.7583 8.38727C11.7512 8.35311 11.7512 8.31782 11.7584 8.28367C11.7656 8.2495 11.7799 8.21721 11.8002 8.18883C11.8205 8.16047 11.8465 8.13662 11.8765 8.11882C11.9065 8.10103 11.94 8.08966 11.9746 8.08546C12.0092 8.08125 12.0444 8.08428 12.0778 8.09438C12.1112 8.10447 12.1422 8.12139 12.1688 8.14407C12.1953 8.16676 12.2168 8.19471 12.232 8.22615L13.386 10.1701C13.403 10.1987 13.4142 10.2302 13.4189 10.263C13.4237 10.2958 13.422 10.3293 13.4138 10.3614C13.4056 10.3936 13.3912 10.4238 13.3713 10.4503C13.3514 10.4769 13.3265 10.4993 13.298 10.5161C13.2559 10.5397 13.2082 10.5515 13.16 10.5502Z" fill="#B2B2B2"/>
</svg>
