<svg width="32" height="32" viewBox="0 0 32 32" fill="none" xmlns="http://www.w3.org/2000/svg">
<path d="M0 16C0 24.8365 7.16344 32 16 32C24.8365 32 32 24.8365 32 16C32 7.16344 24.8365 0 16 0C7.16344 0 0 7.16344 0 16Z" fill="white"/>
<path d="M16 0.666666C24.4 0.666666 31.3334 7.6 31.3334 16C31.3334 24.4 24.4 31.3334 16 31.3334C7.6 31.3334 0.666666 24.4 0.666666 16C0.666666 7.6 7.6 0.666666 16 0.666666ZM16 0C7.2 0 0 7.2 0 16C0 24.8 7.2 32 16 32C24.8 32 32 24.8 32 16C32 7.2 24.8 0 16 0Z" fill="#999999"/>
<path fill-rule="evenodd" clip-rule="evenodd" d="M25.7926 15.9483C25.6892 10.9745 21.6478 6.93312 16.674 6.93312C11.7002 6.93312 7.7622 11.0779 7.7622 16.0517H6C6 10.5596 10.3522 6.10404 15.8443 6C21.3363 6 25.8959 10.4562 25.8959 15.9483H25.7926Z" fill="#313F94"/>
<path fill-rule="evenodd" clip-rule="evenodd" d="M25.6888 16.052C25.6888 12.0106 22.4766 8.79835 18.4352 8.79835C14.3939 8.79835 11.4924 12.0106 11.4924 16.052H9.52344C9.52344 11.4924 13.254 7.86588 17.8136 7.76184C22.2698 7.76184 25.8963 11.9066 25.9997 15.9479L25.6888 16.052Z" fill="#313F94"/>
<path fill-rule="evenodd" clip-rule="evenodd" d="M25.7922 15.9484C25.7922 13.0469 23.3056 10.6637 20.3001 10.6637C17.2946 10.6637 15.1188 13.0469 15.1188 16.0524H13.2539C13.2539 12.5293 15.9486 9.62787 19.4717 9.62787C22.9948 9.62787 25.7928 12.5293 25.8962 15.949H25.7922V15.9484Z" fill="#313F94"/>
<path fill-rule="evenodd" clip-rule="evenodd" d="M6.20743 16.0521C6.20743 21.0259 10.2488 25.0672 15.2226 25.0672C20.3005 25.0672 24.2378 20.9218 24.2378 15.9487H25.9993C25.9993 21.4401 21.5431 25.9997 16.0517 25.9997C10.5596 25.9997 6.10404 21.5441 6 16.0521H6.20743Z" fill="#313F94"/>
<path fill-rule="evenodd" clip-rule="evenodd" d="M6.20776 15.9487C6.20776 19.99 9.42003 23.2016 13.4614 23.2016C17.5027 23.2016 20.5076 19.99 20.4042 15.9487H22.3732C22.3732 20.5083 18.6426 24.2381 14.1871 24.2381C9.62746 24.2381 6.00098 20.0941 6.00098 16.0521L6.20776 15.9487Z" fill="#313F94"/>
<path d="M11.5966 21.3374C8.69512 21.3374 6.20788 18.9535 6.10449 16.0521C6.10449 19.5758 8.90255 22.3739 12.425 22.3739C15.9487 22.3739 18.6428 19.4718 18.6428 15.9487H16.7778C16.7778 18.9535 14.6021 21.3374 11.5966 21.3374Z" fill="#313F94"/>
</svg>
