<svg width="32" height="32" viewBox="0 0 32 32" fill="none" xmlns="http://www.w3.org/2000/svg">
<path d="M14 28C21.732 28 28 21.732 28 14C28 6.26801 21.732 0 14 0C6.26801 0 0 6.26801 0 14C0 21.732 6.26801 28 14 28Z" fill="white"/>
<path d="M7.98291 8.58648H7.23967L6.53634 7.37436H6.01258V8.58648H5.32422V5.09477H6.7209C7.04347 5.09477 7.31782 5.20784 7.54395 5.43397C7.77008 5.6601 7.88314 5.93278 7.88314 6.25203C7.88314 6.46818 7.82162 6.66937 7.69858 6.85559C7.57554 7.03849 7.41259 7.1765 7.20974 7.26961L7.98291 8.58648ZM6.7209 5.73825H6.01258V6.77079H6.7209C6.85059 6.77079 6.962 6.72091 7.05511 6.62115C7.14822 6.51806 7.19478 6.39502 7.19478 6.25203C7.19478 6.10903 7.14822 5.98765 7.05511 5.88789C6.962 5.78813 6.85059 5.73825 6.7209 5.73825Z" fill="#141528"/>
<path d="M9.95081 7.43921V6.09241H10.5943V8.58648H9.95081V8.30715C9.79784 8.53993 9.5501 8.65632 9.20757 8.65632C8.93489 8.65632 8.70876 8.56487 8.52919 8.38197C8.35294 8.19574 8.26481 7.94301 8.26481 7.62377V6.09241H8.90829V7.54396C8.90829 7.70691 8.95152 7.83327 9.03798 7.92306C9.12776 8.01285 9.24914 8.05774 9.40211 8.05774C9.57171 8.05774 9.70473 8.00619 9.80117 7.90311C9.90093 7.79669 9.95081 7.64206 9.95081 7.43921Z" fill="#141528"/>
<path d="M11.7577 6.80072C11.7577 6.90714 11.909 6.99859 12.2117 7.07507C12.3181 7.09835 12.4145 7.12662 12.501 7.15987C12.5874 7.1898 12.6739 7.23469 12.7603 7.29455C12.8501 7.35108 12.92 7.42757 12.9699 7.52401C13.0197 7.62044 13.0447 7.73185 13.0447 7.85821C13.0447 8.11427 12.9482 8.31213 12.7554 8.4518C12.5625 8.58815 12.3247 8.65632 12.0421 8.65632C11.5299 8.65632 11.1808 8.45845 10.9945 8.06273L11.5532 7.74847C11.6297 7.96463 11.7926 8.0727 12.0421 8.0727C12.2715 8.0727 12.3862 8.00121 12.3862 7.85821C12.3862 7.7518 12.2349 7.66035 11.9323 7.58386C11.8193 7.55394 11.7228 7.52401 11.643 7.49408C11.5632 7.46415 11.4767 7.42092 11.3836 7.36439C11.2905 7.30453 11.219 7.22971 11.1691 7.13992C11.1226 7.04681 11.0993 6.93873 11.0993 6.81569C11.0993 6.56961 11.1891 6.37673 11.3687 6.23706C11.5516 6.09407 11.7777 6.02257 12.047 6.02257C12.2499 6.02257 12.4345 6.06913 12.6007 6.16224C12.767 6.25203 12.8984 6.38172 12.9948 6.55132L12.4461 6.85061C12.3663 6.68101 12.2333 6.59621 12.047 6.59621C11.9639 6.59621 11.8941 6.61616 11.8375 6.65607C11.7843 6.69265 11.7577 6.74087 11.7577 6.80072Z" fill="#141528"/>
<path d="M13.9206 6.80072C13.9206 6.90714 14.0719 6.99859 14.3745 7.07507C14.4809 7.09835 14.5773 7.12662 14.6638 7.15987C14.7503 7.1898 14.8367 7.23469 14.9232 7.29455C15.013 7.35108 15.0828 7.42757 15.1327 7.52401C15.1826 7.62044 15.2075 7.73185 15.2075 7.85821C15.2075 8.11427 15.1111 8.31213 14.9182 8.4518C14.7253 8.58815 14.4875 8.65632 14.2049 8.65632C13.6928 8.65632 13.3436 8.45845 13.1574 8.06273L13.716 7.74847C13.7925 7.96463 13.9555 8.0727 14.2049 8.0727C14.4343 8.0727 14.5491 8.00121 14.5491 7.85821C14.5491 7.7518 14.3978 7.66035 14.0951 7.58386C13.9821 7.55394 13.8856 7.52401 13.8058 7.49408C13.726 7.46415 13.6396 7.42092 13.5465 7.36439C13.4533 7.30453 13.3818 7.22971 13.332 7.13992C13.2854 7.04681 13.2621 6.93873 13.2621 6.81569C13.2621 6.56961 13.3519 6.37673 13.5315 6.23706C13.7144 6.09407 13.9405 6.02257 14.2099 6.02257C14.4127 6.02257 14.5973 6.06913 14.7636 6.16224C14.9298 6.25203 15.0612 6.38172 15.1576 6.55132L14.6089 6.85061C14.5291 6.68101 14.3961 6.59621 14.2099 6.59621C14.1267 6.59621 14.0569 6.61616 14.0004 6.65607C13.9472 6.69265 13.9206 6.74087 13.9206 6.80072Z" fill="#141528"/>
<path d="M15.9406 5.79312C15.8342 5.79312 15.741 5.75487 15.6612 5.67839C15.5847 5.59858 15.5465 5.50547 15.5465 5.39905C15.5465 5.29264 15.5847 5.19953 15.6612 5.11972C15.741 5.03991 15.8342 5 15.9406 5C16.0503 5 16.1434 5.03991 16.2199 5.11972C16.2997 5.19953 16.3396 5.29264 16.3396 5.39905C16.3396 5.50547 16.2997 5.59858 16.2199 5.67839C16.1434 5.75487 16.0503 5.79312 15.9406 5.79312ZM16.2648 8.58648H15.6213V6.09241H16.2648V8.58648Z" fill="#141528"/>
<path d="M18.7493 6.38671V6.09241H19.3927V8.58648H18.7493V8.29218C18.5564 8.53494 18.2854 8.65632 17.9362 8.65632C17.6036 8.65632 17.3177 8.52995 17.0782 8.27722C16.8421 8.02116 16.7241 7.70857 16.7241 7.33944C16.7241 6.97365 16.8421 6.66272 17.0782 6.40666C17.3177 6.1506 17.6036 6.02257 17.9362 6.02257C18.2854 6.02257 18.5564 6.14395 18.7493 6.38671ZM17.5621 7.84824C17.6918 7.97793 17.8564 8.04277 18.0559 8.04277C18.2554 8.04277 18.42 7.97793 18.5497 7.84824C18.6827 7.71522 18.7493 7.54562 18.7493 7.33944C18.7493 7.13327 18.6827 6.96533 18.5497 6.83564C18.42 6.70262 18.2554 6.63611 18.0559 6.63611C17.8564 6.63611 17.6918 6.70262 17.5621 6.83564C17.4324 6.96533 17.3675 7.13327 17.3675 7.33944C17.3675 7.54562 17.4324 7.71522 17.5621 7.84824Z" fill="#141528"/>
<path d="M21.3629 6.02257C21.6389 6.02257 21.8634 6.11402 22.0363 6.29692C22.2159 6.48314 22.3057 6.73588 22.3057 7.05512V8.58648H21.6622V7.13493C21.6622 6.97198 21.6173 6.84562 21.5275 6.75583C21.4411 6.66604 21.3214 6.62115 21.1684 6.62115C20.9988 6.62115 20.8641 6.67436 20.7643 6.78077C20.6679 6.88386 20.6197 7.03683 20.6197 7.23968V8.58648H19.9762V6.09241H20.6197V6.37174C20.7727 6.13896 21.0204 6.02257 21.3629 6.02257Z" fill="#141528"/>
<path d="M7.90965 14.7341H9.05443C10.1356 14.7341 11.0366 15.0574 11.7574 15.7039C12.4888 16.3399 12.8545 17.2303 12.8545 18.3751C12.8545 19.5199 12.4676 20.4156 11.6938 21.0622C10.9412 21.7087 10.0031 22.032 8.87954 22.032C7.96795 22.032 7.16767 21.8306 6.47868 21.4279C5.80029 21.0145 5.3074 20.4209 5 19.6471L6.87617 18.55C7.14117 19.4404 7.80895 19.8856 8.87954 19.8856C9.44133 19.8856 9.87592 19.7531 10.1833 19.4881C10.5013 19.2125 10.6603 18.8415 10.6603 18.3751C10.6603 17.9193 10.5066 17.5536 10.1992 17.278C9.89182 17.0024 9.47313 16.8646 8.94314 16.8646H5.57239L6.01758 10.6796H12.3298V12.7307H8.05275L7.90965 14.7341Z" fill="#141528"/>
<path d="M18.1353 22.032C16.7467 22.032 15.6549 21.5074 14.86 20.458C14.0756 19.3874 13.6834 17.9829 13.6834 16.2445C13.6834 14.5062 14.0756 13.107 14.86 12.047C15.6549 10.987 16.7467 10.457 18.1353 10.457C19.5451 10.457 20.6369 10.987 21.4106 12.047C22.195 13.107 22.5872 14.5062 22.5872 16.2445C22.5872 17.9829 22.195 19.3874 21.4106 20.458C20.6369 21.5074 19.5451 22.032 18.1353 22.032ZM20.409 16.2445C20.409 15.0574 20.2129 14.1511 19.8207 13.5257C19.4391 12.9003 18.8773 12.5876 18.1353 12.5876C17.3933 12.5876 16.8315 12.9003 16.4499 13.5257C16.0683 14.1511 15.8775 15.0574 15.8775 16.2445C15.8775 17.4317 16.0683 18.338 16.4499 18.9634C16.8315 19.5782 17.3933 19.8856 18.1353 19.8856C18.8773 19.8856 19.4391 19.5729 19.8207 18.9475C20.2129 18.3221 20.409 17.4211 20.409 16.2445Z" fill="#141528"/>
<path d="M14 0.58329C21.35 0.58329 27.4167 6.65 27.4167 14C27.4167 21.35 21.35 27.4167 14 27.4167C6.65 27.4167 0.58329 21.35 0.58329 14C0.58329 6.65 6.65 0.58329 14 0.58329ZM14 0C6.3 0 0 6.3 0 14C0 21.7 6.3 28 14 28C21.7 28 28 21.7 28 14C28 6.3 21.7 0 14 0Z" fill="#999999"/>
<mask id="mask0" mask-type="alpha" maskUnits="userSpaceOnUse" x="16" y="16" width="16" height="16">
<path d="M24 32C28.4183 32 32 28.4183 32 24C32 19.5817 28.4183 16 24 16C19.5817 16 16 19.5817 16 24C16 28.4183 19.5817 32 24 32Z" fill="#006C35"/>
</mask>
<g mask="url(#mask0)">
<path d="M35.9995 16H12V31.9997H35.9995V16Z" fill="white"/>
<path d="M35 29.5C35 30.163 34.7425 30.7989 34.284 31.2678C33.8256 31.7366 33.2039 32 32.5556 32H15.4444C14.7961 32 14.1744 31.7366 13.716 31.2678C13.2575 30.7989 13 30.163 13 29.5V27H35V29.5Z" fill="#CE2028"/>
<path d="M13 21H35V27H13V21Z" fill="#22408C"/>
<path d="M32.5556 16H15.4444C14.7961 16 14.1744 16.2634 13.716 16.7322C13.2575 17.2011 13 17.837 13 18.5V21H35V18.5C35 17.837 34.7425 17.2011 34.284 16.7322C33.8256 16.2634 33.2039 16 32.5556 16Z" fill="#EEEEEE"/>
<path d="M24 16.3333C28.2 16.3333 31.6667 19.8 31.6667 24C31.6667 28.2 28.2 31.6667 24 31.6667C19.8 31.6667 16.3333 28.2 16.3333 24C16.3333 19.8 19.8 16.3333 24 16.3333ZM24 16C19.6 16 16 19.6 16 24C16 28.4 19.6 32 24 32C28.4 32 32 28.4 32 24C32 19.6 28.4 16 24 16Z" fill="#999999"/>
</g>
</svg>
