<svg width="32" height="32" viewBox="0 0 32 32" fill="none" xmlns="http://www.w3.org/2000/svg">
<path d="M0 16C0 24.8365 7.16344 32 16 32C24.8365 32 32 24.8365 32 16C32 7.16344 24.8365 0 16 0C7.16344 0 0 7.16344 0 16Z" fill="#EFEFEF"/>
<g clip-path="url(#clip0)">
<path d="M8.68652 12.7672H9.49618V13.577H8.68652V12.7672Z" fill="#BD0027"/>
<path d="M8.68622 14.1957V17.8616H9.49587V14.1957H8.68622ZM3 14.1765H3.86257L4.58249 16.928H4.59679L5.28801 14.1765H6.1079L6.77085 16.928H6.78512L7.53348 14.1765H8.36048L7.20551 17.8615H6.37147L5.68736 15.1244H5.67295L4.99582 17.8615H4.14053L3 14.1765ZM9.9438 14.1765H10.7065V14.8895H10.7207C10.8134 14.4972 11.2981 14.0768 11.7973 14.0768C11.9824 14.0768 12.0324 14.091 12.1036 14.0979V14.8822C11.9897 14.8679 11.8686 14.8468 11.7543 14.8468C11.1982 14.8468 10.7564 15.2958 10.7564 16.1083V17.8616H9.94382L9.9438 14.1765ZM14.6425 15.6949C14.6138 15.1816 14.2646 14.7185 13.7157 14.7185C13.1525 14.7185 12.7678 15.146 12.7465 15.6949L14.6425 15.6949ZM12.7464 16.2294C12.7464 16.8066 13.0601 17.3201 13.7372 17.3201C14.2077 17.3201 14.4929 17.1135 14.6354 16.707H15.4052C15.227 17.5124 14.5427 17.9614 13.7372 17.9614C12.5824 17.9614 11.9339 17.156 11.9339 16.0227C11.9339 14.975 12.6181 14.0768 13.7157 14.0768C14.8777 14.0768 15.5904 15.1245 15.4551 16.2294H12.7464ZM18.3493 15.4096C18.2851 14.9605 17.9572 14.7185 17.508 14.7185C17.0875 14.7185 16.4958 14.9391 16.4958 16.0584C16.4958 16.6712 16.7668 17.3201 17.4723 17.3201C17.9428 17.3201 18.2708 17.0061 18.3493 16.4789H19.1616C19.0121 17.434 18.4204 17.9615 17.4723 17.9615C16.3176 17.9615 15.6832 17.1418 15.6832 16.0584C15.6832 14.9463 16.2892 14.0768 17.501 14.0768C18.3563 14.0768 19.0832 14.5043 19.1616 15.4096H18.3493ZM21.8847 16.0155C21.6354 16.1796 21.2433 16.1723 20.8868 16.2364C20.5376 16.2934 20.2239 16.4216 20.2239 16.8496C20.2239 17.2131 20.6873 17.3201 20.9723 17.3201C21.3287 17.3201 21.8847 17.1348 21.8847 16.6215L21.8847 16.0155ZM22.6973 17.0423C22.6973 17.2416 22.7402 17.32 22.8899 17.32C22.9396 17.32 23.0038 17.32 23.0894 17.3058V17.8688C22.9681 17.9116 22.7117 17.9614 22.5761 17.9614C22.2482 17.9614 22.013 17.8476 21.949 17.5124C21.6281 17.8261 21.1078 17.9614 20.6729 17.9614C20.01 17.9614 19.4113 17.6052 19.4113 16.885C19.4113 15.9657 20.1455 15.8162 20.8298 15.7374C21.4142 15.6306 21.9347 15.6949 21.9347 15.2173C21.9347 14.7966 21.4999 14.7184 21.1719 14.7184C20.7157 14.7184 20.3948 14.9036 20.3593 15.3029H19.5468C19.6037 14.3548 20.409 14.0768 21.2219 14.0768C21.9418 14.0768 22.6973 14.3689 22.6973 15.1461V17.0423ZM23.3601 14.1765H24.1229V14.8895H24.1371C24.2299 14.4972 24.7147 14.0768 25.2137 14.0768C25.3989 14.0768 25.4489 14.091 25.52 14.0979V14.8822C25.4061 14.8679 25.2849 14.8468 25.1709 14.8468C24.6149 14.8468 24.173 15.2958 24.173 16.1083V17.8616H23.3601V14.1765ZM27.1823 17.3201C27.9093 17.3201 28.2157 16.6572 28.2157 16.0156C28.2157 15.203 27.8237 14.7185 27.1966 14.7185C26.4338 14.7185 26.163 15.3955 26.163 16.0584C26.163 16.6927 26.4765 17.3201 27.1823 17.3201H27.1823ZM29 17.8616H28.2301V17.3627H28.2157C28.002 17.7834 27.5386 17.9614 27.0752 17.9614C25.9134 17.9614 25.3502 17.0988 25.3502 15.9943C25.3502 14.6613 26.1417 14.0768 26.947 14.0768C27.4104 14.0768 27.9235 14.2479 28.1731 14.654H28.1873V12.7722H29V17.8616Z" fill="#43557E"/>
</g>
<path d="M16 0.666666C24.4 0.666666 31.3334 7.6 31.3334 16C31.3334 24.4 24.4 31.3334 16 31.3334C7.6 31.3334 0.666666 24.4 0.666666 16C0.666666 7.6 7.6 0.666666 16 0.666666ZM16 0C7.2 0 0 7.2 0 16C0 24.8 7.2 32 16 32C24.8 32 32 24.8 32 16C32 7.2 24.8 0 16 0Z" fill="#999999"/>
<defs>
<clipPath id="clip0">
<rect width="26" height="6.7288" fill="white" transform="translate(3 12)"/>
</clipPath>
</defs>
</svg>
