<svg width="32" height="32" viewBox="0 0 32 32" fill="none" xmlns="http://www.w3.org/2000/svg">
<path d="M0 16C0 24.8365 7.16344 32 16 32C24.8365 32 32 24.8365 32 16C32 7.16344 24.8365 0 16 0C7.16344 0 0 7.16344 0 16Z" fill="#0DA04A"/>
<path d="M21.6159 7.87175L22.4159 8.59774L12.38 14.3617L7.52392 11.5477L7.97793 10.6417L12.3779 13.1598L21.6159 7.87175ZM19.5999 6.71375L20.6659 7.25975L12.38 12.0257L8.52193 9.82574L9.17992 9.02574L12.38 10.8638L19.5999 6.71375ZM23.1159 9.34774L23.716 10.1477L12.38 16.6558L6.90993 13.5237L7.15992 12.5237L12.38 15.5237L23.1159 9.34774Z" fill="white"/>
<path d="M24.748 12.2765C25.0834 13.2237 25.2525 14.2217 25.248 15.2265C25.2505 16.2474 25.0815 17.2615 24.748 18.2265L24.522 18.8404C24.0556 19.9393 23.3859 20.9402 22.548 21.7904C20.7882 23.4983 18.4401 24.4655 15.9879 24.4925C14.7491 24.4933 13.5235 24.238 12.3879 23.7424C11.2994 23.2791 10.3064 22.6172 9.45995 21.7904C8.61172 20.9486 7.94054 19.9456 7.48599 18.8404C7.00767 17.7005 6.76088 16.4767 6.75999 15.2404V14.6125L12.3879 17.8125L24.258 11.0125L24.748 12.2765Z" fill="white"/>
</svg>
