<svg width="32" height="32" viewBox="0 0 32 32" fill="none" xmlns="http://www.w3.org/2000/svg">
<path d="M0 16C0 24.8365 7.16344 32 16 32C24.8365 32 32 24.8365 32 16C32 7.16344 24.8365 0 16 0C7.16344 0 0 7.16344 0 16Z" fill="#EFEFEF"/>
<g clip-path="url(#clip0)">
<path fill-rule="evenodd" clip-rule="evenodd" d="M6.31492 15.1987L5.57571 16.9114H7.06085L6.31492 15.1987ZM5.12124 17.9628C4.95042 18.3466 5.08546 18.5028 5.67537 18.5028V18.6519H4.0127V18.5028C4.60947 18.5028 4.64498 18.3821 4.86528 17.8848L6.42857 14.2677H6.52083L8.09124 17.8848C8.31155 18.3821 8.34706 18.5028 8.93684 18.5028V18.6519H6.96858V18.5028C7.55836 18.5028 7.6934 18.3538 7.52299 17.9628L7.1819 17.1743H5.46233L5.12124 17.9628ZM8.86574 16.5348V16.3643C9.29197 16.2717 9.44853 15.9661 9.49816 15.504H9.73985V16.2857H10.3577V16.5348H9.73985V17.97C9.73985 18.3113 9.83212 18.4885 10.0596 18.4885C10.1876 18.4885 10.3577 18.3964 10.5214 18.2403L10.6422 18.3608C10.4433 18.6021 10.1306 18.7727 9.89601 18.7727C9.50515 18.7727 9.23508 18.5243 9.23508 17.97V16.5348H8.86574ZM10.8981 18.6518V18.503C11.3741 18.503 11.4592 18.382 11.4592 17.6716V15.426C11.4592 14.7154 11.3741 14.5949 10.8981 14.5949V14.4456L11.9638 14.2677V17.6716C11.9638 18.382 12.0561 18.503 12.5251 18.503V18.6518H10.8981ZM14.4506 17.3589C13.7757 17.5154 13.4704 17.7496 13.4704 18.0623C13.4704 18.2897 13.6264 18.4249 13.8041 18.4249C13.9534 18.4249 14.1238 18.3749 14.4506 18.0837V17.3589ZM14.9482 18.7304C14.671 18.7304 14.5006 18.5738 14.4651 18.3182C14.1168 18.6308 13.8611 18.7445 13.5769 18.7445C13.2285 18.7445 12.9374 18.5243 12.9374 18.1473C12.9374 17.5437 13.6406 17.2806 14.4506 17.1386C14.4506 16.6055 14.3799 16.3925 13.9746 16.3925C13.8113 16.3925 13.5698 16.5063 13.5698 16.7334C13.5698 16.8757 13.463 16.9825 13.3281 16.9825C13.186 16.9825 13.0795 16.8757 13.0795 16.7334C13.0795 16.3925 13.527 16.1649 13.9817 16.1649C14.671 16.1649 14.9554 16.4564 14.9554 17.1314V18.2045C14.9554 18.382 15.012 18.4814 15.1187 18.4814C15.1897 18.4814 15.268 18.4249 15.3177 18.3749L15.4172 18.51C15.2821 18.6518 15.1044 18.7304 14.9482 18.7304ZM17.8545 16.1649C18.4939 16.1649 18.7783 16.6201 18.7783 17.2237V17.6716C18.7783 18.382 18.8635 18.5029 19.3395 18.5029V18.6518H17.7122V18.5029C18.1741 18.5029 18.2737 18.382 18.2737 17.6716V17.2593C18.2737 16.7975 18.1102 16.4992 17.684 16.4992C17.2931 16.4992 16.8668 16.8189 16.8668 17.2097V17.6716C16.8668 18.4037 16.9236 18.5029 17.3641 18.5029V18.6518H15.8008V18.5029C16.2698 18.5029 16.3621 18.382 16.3621 17.6716V17.3164C16.3621 16.6055 16.2698 16.4919 15.8008 16.4919V16.3427L16.746 16.1649C16.7815 16.2359 16.8454 16.5275 16.8668 16.6767C17.0586 16.4354 17.3854 16.1649 17.8545 16.1649ZM19.5314 16.5348V16.3643C19.9577 16.2717 20.1141 15.9661 20.1637 15.504H20.4054V16.2857H21.0237V16.5348H20.4054V17.97C20.4054 18.3113 20.4979 18.4885 20.7251 18.4885C20.853 18.4885 21.0237 18.3964 21.187 18.2403L21.3078 18.3608C21.1088 18.6021 20.7961 18.7727 20.5617 18.7727C20.1708 18.7727 19.9008 18.5243 19.9008 17.97V16.5348H19.5314ZM22.5085 15.4686C22.3382 15.4686 22.1961 15.3265 22.1961 15.1488C22.1961 14.9783 22.3382 14.8362 22.5085 14.8362C22.6792 14.8362 22.8212 14.9783 22.8212 15.1488C22.8212 15.3265 22.6792 15.4686 22.5085 15.4686ZM21.6987 18.6518V18.503C22.1676 18.503 22.26 18.382 22.26 17.6716V17.3163C22.26 16.6056 22.1676 16.4918 21.6987 16.4918V16.3428L22.7645 16.165V17.6716C22.7645 18.382 22.8496 18.503 23.3259 18.503V18.6518H21.6987ZM25.2442 17.3589C24.5692 17.5154 24.2638 17.7496 24.2638 18.0623C24.2638 18.2897 24.4202 18.4249 24.5977 18.4249C24.7469 18.4249 24.9175 18.3749 25.2442 18.0837V17.3589ZM25.7418 18.7304C25.4646 18.7304 25.2942 18.5738 25.2585 18.3182C24.9103 18.6308 24.6545 18.7445 24.3703 18.7445C24.0221 18.7445 23.7308 18.5243 23.7308 18.1473C23.7308 17.5437 24.4343 17.2806 25.2442 17.1386C25.2442 16.6055 25.1734 16.3925 24.7683 16.3925C24.6049 16.3925 24.3633 16.5063 24.3633 16.7334C24.3633 16.8757 24.2568 16.9825 24.1215 16.9825C23.9796 16.9825 23.8729 16.8757 23.8729 16.7334C23.8729 16.3925 24.3205 16.1649 24.7754 16.1649C25.4646 16.1649 25.7489 16.4564 25.7489 17.1314V18.2045C25.7489 18.382 25.8057 18.4814 25.9123 18.4814C25.9834 18.4814 26.0615 18.4249 26.1113 18.3749L26.2107 18.51C26.0759 18.6518 25.8979 18.7304 25.7418 18.7304Z" fill="#1A1918"/>
<path fill-rule="evenodd" clip-rule="evenodd" d="M26.7954 10.1848C26.7557 10.2016 26.7167 10.2192 26.6781 10.2379C26.668 10.2429 26.6575 10.248 26.6478 10.2528C27.2021 10.6604 27.562 11.3167 27.562 12.0577C27.562 12.1501 27.5566 12.2418 27.5452 12.3317C27.3622 12.3717 27.1721 12.3934 26.977 12.3934C26.3948 12.3934 25.8572 12.2044 25.4215 11.8846C25.405 11.9711 25.3937 12.0597 25.3877 12.1497C25.9884 12.5239 26.6884 12.7539 27.4396 12.7894C27.2372 13.3738 26.7991 13.8483 26.2391 14.0999C26.4176 14.2438 26.6173 14.3617 26.8334 14.4475C27.4006 14.0733 27.8084 13.4781 27.9345 12.7845C28.2468 12.7637 28.5499 12.7093 28.8403 12.625C28.8456 12.6923 28.8481 12.7599 28.8481 12.8281C28.8481 13.4869 28.6057 14.0892 28.2053 14.5506C28.639 14.451 29.0261 14.2273 29.3276 13.9205C29.3848 13.6838 29.4156 13.4368 29.4156 13.1832C29.4156 12.9307 29.3852 12.6853 29.3287 12.4503C29.5546 12.3533 29.7717 12.2371 29.9777 12.1027C29.9327 11.5965 29.7237 11.1369 29.4047 10.7786C29.2906 11.0501 29.1318 11.3006 28.9349 11.5196C28.4912 10.8181 27.7752 10.306 26.9355 10.1315C26.8879 10.1478 26.8414 10.1656 26.7954 10.1848ZM26.9721 10.3076C27.7252 10.5327 28.3363 11.0858 28.64 11.8012C28.4396 11.9648 28.2152 12.0993 27.972 12.1985C27.9331 11.4272 27.5495 10.7467 26.9721 10.3076Z" fill="url(#paint0_linear)"/>
<path fill-rule="evenodd" clip-rule="evenodd" d="M29.3292 12.4497C29.3857 12.6847 29.4161 12.9302 29.4161 13.1826C29.4161 13.4363 29.3853 13.6832 29.3281 13.9199C29.7355 13.5047 29.9872 12.9359 29.9872 12.308C29.9872 12.2387 29.9842 12.17 29.9782 12.1022C29.7723 12.2365 29.5551 12.3528 29.3292 12.4497Z" fill="url(#paint1_linear)"/>
<path fill-rule="evenodd" clip-rule="evenodd" d="M27.935 12.7846C27.809 13.4783 27.4012 14.0734 26.834 14.4476C27.0973 14.5528 27.3844 14.6101 27.685 14.6101C27.8641 14.6101 28.0383 14.5894 28.2059 14.5508C28.6063 14.0893 28.8487 13.487 28.8487 12.8282C28.8487 12.76 28.8461 12.6924 28.8409 12.6251C28.5455 12.7108 28.2418 12.7643 27.935 12.7846Z" fill="url(#paint2_linear)"/>
<path fill-rule="evenodd" clip-rule="evenodd" d="M25.3828 12.3081C25.3828 13.0319 25.7168 13.6772 26.2393 14.0995C26.7994 13.8479 27.2374 13.3734 27.4399 12.789C26.6887 12.7535 25.9886 12.5235 25.3879 12.1493C25.3844 12.2016 25.3828 12.2547 25.3828 12.3081Z" fill="url(#paint3_linear)"/>
<path fill-rule="evenodd" clip-rule="evenodd" d="M26.9355 10.1313C27.7752 10.3057 28.4912 10.8179 28.9349 11.5193C29.1318 11.3003 29.2906 11.0498 29.4047 10.7783C28.9829 10.3049 28.3688 10.0066 27.6844 10.0066C27.4224 10.0066 27.1702 10.0504 26.9355 10.1313Z" fill="url(#paint4_linear)"/>
<path fill-rule="evenodd" clip-rule="evenodd" d="M26.9727 10.3076C27.5501 10.7468 27.9337 11.4272 27.9725 12.1985C28.2157 12.0993 28.4402 11.9648 28.6406 11.8012C28.3369 11.0858 27.7257 10.5328 26.9727 10.3076Z" fill="url(#paint5_linear)"/>
<path fill-rule="evenodd" clip-rule="evenodd" d="M25.4219 11.8845C25.8577 12.2044 26.3952 12.3934 26.9774 12.3934C27.1725 12.3934 27.3626 12.3717 27.5456 12.3316C27.557 12.2418 27.5624 12.1501 27.5624 12.0577C27.5624 11.3167 27.2025 10.6603 26.6482 10.2528C26.0185 10.5708 25.5552 11.1696 25.4219 11.8845Z" fill="url(#paint6_linear)"/>
</g>
<path d="M16 0.666666C24.4 0.666666 31.3334 7.6 31.3334 16C31.3334 24.4 24.4 31.3334 16 31.3334C7.6 31.3334 0.666666 24.4 0.666666 16C0.666666 7.6 7.6 0.666666 16 0.666666ZM16 0C7.2 0 0 7.2 0 16C0 24.8 7.2 32 16 32C24.8 32 32 24.8 32 16C32 7.2 24.8 0 16 0Z" fill="#999999"/>
<defs>
<linearGradient id="paint0_linear" x1="27.6826" y1="10.7098" x2="29.1179" y2="14.0948" gradientUnits="userSpaceOnUse">
<stop stop-color="white"/>
<stop offset="1" stop-color="#A5A5A4"/>
</linearGradient>
<linearGradient id="paint1_linear" x1="29.6577" y1="12.3192" x2="30.0759" y2="12.5565" gradientUnits="userSpaceOnUse">
<stop stop-color="#0062AE"/>
<stop offset="1" stop-color="#004F9E"/>
</linearGradient>
<linearGradient id="paint2_linear" x1="27.8413" y1="12.6251" x2="27.8413" y2="14.6101" gradientUnits="userSpaceOnUse">
<stop stop-color="#007CC3"/>
<stop offset="1" stop-color="#005AA6"/>
</linearGradient>
<linearGradient id="paint3_linear" x1="26.4112" y1="14.0995" x2="26.4112" y2="12.1493" gradientUnits="userSpaceOnUse">
<stop stop-color="#007DC3"/>
<stop offset="1" stop-color="#00A4E3"/>
</linearGradient>
<linearGradient id="paint4_linear" x1="28.1702" y1="10.0066" x2="28.5639" y2="11.3527" gradientUnits="userSpaceOnUse">
<stop stop-color="#00ABE9"/>
<stop offset="1" stop-color="#0082C8"/>
</linearGradient>
<linearGradient id="paint5_linear" x1="27.3222" y1="10.3076" x2="28.4909" y2="11.7962" gradientUnits="userSpaceOnUse">
<stop stop-color="#00ABE9"/>
<stop offset="1" stop-color="#0090D4"/>
</linearGradient>
<linearGradient id="paint6_linear" x1="26.4922" y1="10.2528" x2="26.9222" y2="12.3934" gradientUnits="userSpaceOnUse">
<stop stop-color="#00ABE9"/>
<stop offset="1" stop-color="#00A4E3"/>
</linearGradient>
<clipPath id="clip0">
<rect width="26" height="8.77922" fill="white" transform="translate(4 10)"/>
</clipPath>
</defs>
</svg>
