<svg width="32" height="32" viewBox="0 0 32 32" fill="none" xmlns="http://www.w3.org/2000/svg">
<path d="M0 16C0 24.8365 7.16344 32 16 32C24.8365 32 32 24.8365 32 16C32 7.16344 24.8365 0 16 0C7.16344 0 0 7.16344 0 16Z" fill="#EFEFEF"/>
<path d="M16 0.666666C24.4 0.666666 31.3334 7.6 31.3334 16C31.3334 24.4 24.4 31.3334 16 31.3334C7.6 31.3334 0.666666 24.4 0.666666 16C0.666666 7.6 7.6 0.666666 16 0.666666ZM16 0C7.2 0 0 7.2 0 16C0 24.8 7.2 32 16 32C24.8 32 32 24.8 32 16C32 7.2 24.8 0 16 0Z" fill="#999999"/>
<path d="M11.9 9.63611H9.32802C9.03532 9.63611 8.79803 9.87338 8.79803 10.1661V24.3501C8.79803 24.6428 9.03532 24.8801 9.32802 24.8801H11.9C12.1928 24.8801 12.43 24.6428 12.43 24.3501V10.1661C12.43 9.87338 12.1928 9.63611 11.9 9.63611Z" fill="#828282"/>
<path d="M21.9339 15.1579H16.6699V12.8539C16.6694 12.7093 16.6117 12.5707 16.5095 12.4684C16.4072 12.3661 16.2686 12.3084 16.124 12.3079H13.6179C13.4733 12.3084 13.3347 12.3661 13.2324 12.4684C13.1302 12.5707 13.0725 12.7093 13.0719 12.8539V24.3319C13.0719 24.4773 13.1297 24.6167 13.2325 24.7194C13.3352 24.8222 13.4745 24.8799 13.62 24.8799H21.9339C22.0792 24.8799 22.2186 24.8222 22.3214 24.7194C22.4242 24.6167 22.4819 24.4773 22.4819 24.3319V15.7059C22.4819 15.5606 22.4242 15.4212 22.3214 15.3184C22.2186 15.2156 22.0792 15.1579 21.9339 15.1579ZM15.564 22.6099C15.5629 22.7095 15.5341 22.8067 15.4808 22.8907C15.4275 22.9748 15.3517 23.0422 15.262 23.0855C15.1724 23.1288 15.0725 23.1461 14.9735 23.1355C14.8745 23.125 14.7804 23.0871 14.7019 23.0259C14.6433 22.9856 14.5955 22.9315 14.5627 22.8683C14.53 22.8053 14.5132 22.7351 14.5139 22.6639V21.2199C14.5132 21.1488 14.53 21.0786 14.5627 21.0154C14.5955 20.9523 14.6433 20.8983 14.7019 20.8579C14.7804 20.7968 14.8745 20.7588 14.9735 20.7482C15.0725 20.7378 15.1724 20.7551 15.262 20.7983C15.3517 20.8416 15.4275 20.9091 15.4808 20.9931C15.5341 21.0771 15.5629 21.1744 15.564 21.2739V22.6099ZM17.4159 22.6099C17.415 22.7095 17.3862 22.8067 17.3328 22.8907C17.2794 22.9748 17.2037 23.0422 17.1141 23.0855C17.0244 23.1288 16.9244 23.1461 16.8255 23.1355C16.7265 23.125 16.6325 23.0871 16.5539 23.0259C16.4953 22.9856 16.4475 22.9315 16.4148 22.8683C16.3819 22.8053 16.3652 22.7351 16.3659 22.6639V21.2199C16.3652 21.1488 16.3819 21.0786 16.4148 21.0154C16.4475 20.9523 16.4953 20.8983 16.5539 20.8579C16.6325 20.7968 16.7265 20.7588 16.8255 20.7482C16.9244 20.7378 17.0244 20.7551 17.1141 20.7983C17.2037 20.8416 17.2794 20.9091 17.3328 20.9931C17.3862 21.0771 17.415 21.1744 17.4159 21.2739V22.6099ZM19.268 22.6099C19.2678 22.7105 19.2392 22.8089 19.1856 22.894C19.132 22.9791 19.0554 23.0473 18.9647 23.0908C18.874 23.1343 18.7729 23.1513 18.6729 23.1398C18.5731 23.1283 18.4784 23.0889 18.3999 23.0259C18.3414 22.9856 18.2936 22.9315 18.2607 22.8683C18.228 22.8053 18.2112 22.7351 18.212 22.6639V21.2199C18.2112 21.1488 18.228 21.0786 18.2607 21.0154C18.2936 20.9523 18.3414 20.8983 18.3999 20.8579C18.4785 20.7968 18.5725 20.7588 18.6715 20.7482C18.7704 20.7378 18.8704 20.7551 18.96 20.7983C19.0497 20.8416 19.1255 20.9091 19.1788 20.9931C19.2321 21.0771 19.2609 21.1744 19.2619 21.2739L19.268 22.6099ZM21.1199 22.6099C21.119 22.7095 21.0902 22.8067 21.0368 22.8907C20.9834 22.9748 20.9077 23.0422 20.8181 23.0855C20.7284 23.1288 20.6284 23.1461 20.5295 23.1355C20.4305 23.125 20.3365 23.0871 20.2579 23.0259C20.1993 22.9856 20.1515 22.9315 20.1188 22.8683C20.0859 22.8053 20.0692 22.7351 20.0699 22.6639V21.2199C20.0692 21.1488 20.0859 21.0786 20.1188 21.0154C20.1515 20.9523 20.1993 20.8983 20.2579 20.8579C20.3365 20.7968 20.4305 20.7588 20.5295 20.7482C20.6284 20.7378 20.7284 20.7551 20.8181 20.7983C20.9077 20.8416 20.9834 20.9091 21.0368 20.9931C21.0902 21.0771 21.119 21.1744 21.1199 21.2739V22.6099Z" fill="#828282"/>
<path d="M24.344 7.56166C23.776 7.03767 22.886 7.03966 22.1561 7.28766C21.4261 7.53566 20.7801 7.98566 20.07 8.28766C19.5576 8.54383 18.9965 8.68835 18.424 8.71166C16.744 8.68366 14.75 8.00766 14.0581 7.96166C13.1151 7.89648 12.1699 8.05263 11.2981 8.41766C10.8981 8.58366 10.4981 8.77566 10.334 9.16966C10.2521 9.4137 10.806 9.24166 11.07 9.14966C11.9887 8.82928 12.9704 8.73193 13.934 8.86566C14.8341 8.99166 15.694 9.31766 16.5701 9.55968C17.446 9.80166 18.3701 9.95968 19.264 9.75968C20.52 9.47168 21.488 8.50366 22.59 7.83366C22.9401 7.62166 23.472 7.48366 23.7461 7.58966C23.904 7.64966 24.046 7.77366 24.214 7.76966C24.382 7.76566 24.4681 7.67566 24.344 7.56166Z" fill="#C4C4C4"/>
<path d="M23.5819 10.8398C23.22 10.4818 22.6539 10.4818 22.1819 10.6518C21.7099 10.8218 21.3059 11.1298 20.8539 11.3378C20.5256 11.5004 20.1692 11.5989 19.804 11.6278C18.6499 11.6278 17.554 11.1778 17.0219 11.1138C16.471 11.0284 15.9074 11.0813 15.3819 11.2678C15.122 11.3598 14.7179 11.5738 14.65 11.9398C14.626 12.1398 14.9499 11.9898 15.1199 11.9258C15.7011 11.7053 16.3288 11.6365 16.9439 11.7258C17.516 11.8454 18.0793 12.0038 18.6299 12.1998C19.1788 12.3972 19.7704 12.4448 20.3439 12.3378C21.1439 12.1378 21.7619 11.4778 22.4639 11.0198C22.6664 10.8874 22.9126 10.8394 23.1499 10.8858C23.2642 10.9468 23.3879 10.9882 23.516 11.0078C23.6239 11.0138 23.66 10.9178 23.5819 10.8398Z" fill="#C4C4C4"/>
</svg>
