<svg width="32" height="32" viewBox="0 0 32 32" fill="none" xmlns="http://www.w3.org/2000/svg">
<path d="M0 16C0 24.8365 7.16344 32 16 32C24.8365 32 32 24.8365 32 16C32 7.16344 24.8365 0 16 0C7.16344 0 0 7.16344 0 16Z" fill="#A61E1E"/>
<path d="M0 16C0 24.8365 7.16344 32 16 32C24.8365 32 32 24.8365 32 16C32 7.16344 24.8365 0 16 0C7.16344 0 0 7.16344 0 16Z" fill="#EFEFEF"/>
<path d="M16 0.666666C24.4 0.666666 31.3334 7.6 31.3334 16C31.3334 24.4 24.4 31.3334 16 31.3334C7.6 31.3334 0.666666 24.4 0.666666 16C0.666666 7.6 7.6 0.666666 16 0.666666ZM16 0C7.2 0 0 7.2 0 16C0 24.8 7.2 32 16 32C24.8 32 32 24.8 32 16C32 7.2 24.8 0 16 0Z" fill="#999999"/>
<path d="M10.476 19.9879H8.62799V11.8999H10.656L12.54 15.2479C12.8067 15.7199 13.0366 16.1618 13.23 16.5739C13.3682 16.8573 13.4917 17.1477 13.6 17.4439L13.696 17.7079C13.604 16.8912 13.564 16.0696 13.576 15.2479V11.8999H15.424V19.9879H13.4L11.472 16.6399C11.216 16.2132 10.992 15.7871 10.8 15.3618C10.608 14.9365 10.4746 14.6265 10.4 14.4319L10.304 14.1319C10.4322 14.9615 10.4923 15.8003 10.484 16.6399L10.476 19.9879ZM18.84 19.9879H17V11.8999H18.84V19.9879ZM23.952 19.9879H21.636L18.924 15.9679L21.54 11.8999H23.74L21.084 15.9439L23.952 19.9879Z" fill="#01478C"/>
</svg>
