<svg width="32" height="32" viewBox="0 0 32 32" fill="none" xmlns="http://www.w3.org/2000/svg">
<path d="M0 16C0 24.8365 7.16344 32 16 32C24.8365 32 32 24.8365 32 16C32 7.16344 24.8365 0 16 0C7.16344 0 0 7.16344 0 16Z" fill="white"/>
<path d="M16 0.666666C24.4 0.666666 31.3334 7.6 31.3334 16C31.3334 24.4 24.4 31.3334 16 31.3334C7.6 31.3334 0.666666 24.4 0.666666 16C0.666666 7.6 7.6 0.666666 16 0.666666ZM16 0C7.2 0 0 7.2 0 16C0 24.8 7.2 32 16 32C24.8 32 32 24.8 32 16C32 7.2 24.8 0 16 0Z" fill="#999999"/>
<path d="M14.8563 13.2065C14.8563 13.0806 14.7858 13 14.6498 13H13.7584C13.28 13 13.0735 13.2065 13.0735 13.6849V14.6418C13.0735 14.8332 12.9878 14.9138 12.7965 14.9138H11.6381C11.5122 14.9138 11.4316 14.9944 11.4316 15.1203C11.4316 15.2411 11.5122 15.3217 11.6331 15.3217H12.7914C13.2699 15.3217 13.4814 15.1152 13.4814 14.6368V13.6799C13.4814 13.4784 13.5569 13.4079 13.7534 13.4079H14.6448C14.7858 13.413 14.8563 13.3324 14.8563 13.2065Z" fill="#1E4070"/>
<path d="M7.73973 13H5.68493C5.277 13 5 13.272 5 13.6849V14.6418C5 15.0548 5.27196 15.3268 5.68493 15.3268H7.32676C7.46274 15.3268 7.59872 15.1908 7.59872 15.0548V14.5764C7.59872 14.4555 7.5131 14.3699 7.39727 14.3699C7.27136 14.3699 7.18574 14.4504 7.18574 14.5764V14.9188H5.68997C5.55399 14.9188 5.41801 14.7828 5.41801 14.6469V13.69C5.41801 13.554 5.55399 13.418 5.68997 13.418H7.74477C7.88075 13.418 8.01673 13.554 8.01673 13.69V15.1203C8.01673 15.226 8.09731 15.3268 8.22322 15.3268C8.33905 15.3268 8.4297 15.2613 8.4297 15.1203V13.6849C8.42467 13.272 8.15271 13 7.73973 13Z" fill="#1E4070"/>
<path d="M15.2637 14.6419C15.2637 15.1203 15.4651 15.3268 15.9486 15.3268H18.4768C18.6027 15.3268 18.6833 15.2462 18.6833 15.1203C18.6833 14.9994 18.6027 14.9189 18.4819 14.9189H15.9486C15.7421 14.9138 15.6766 14.8433 15.6766 14.6469V13.69C15.6766 13.4835 15.7522 13.418 15.9486 13.418H17.9984C18.1897 13.418 18.2703 13.4885 18.2703 13.69C18.2703 13.8965 18.1998 13.962 17.9984 13.962H16.2911C16.1551 13.962 16.0846 14.0325 16.0846 14.1684C16.0846 14.2994 16.1551 14.3749 16.2911 14.3749H17.9984C18.4819 14.3749 18.6833 14.1684 18.6833 13.69C18.6833 13.2116 18.4768 13.0051 17.9984 13.0051H15.9486C15.455 13.0051 15.2637 13.2116 15.2637 13.69V14.6419Z" fill="#1E4070"/>
<path d="M19.0967 14.6419C19.0967 15.1203 19.2981 15.3268 19.7816 15.3268H22.0782C22.2041 15.3268 22.2846 15.2462 22.2846 15.1203C22.2846 14.9994 22.2141 14.9189 22.0832 14.9189H19.7816C19.5751 14.9138 19.5097 14.8433 19.5097 14.6469V13.69C19.5097 13.4885 19.5802 13.418 19.7816 13.418H22.0782C22.2041 13.418 22.2846 13.3375 22.2846 13.2116C22.2846 13.0907 22.2041 13.0051 22.0832 13.0051H19.7866C19.3032 13.0051 19.1017 13.2116 19.1017 13.69V14.6419H19.0967Z" fill="#1E4070"/>
<path d="M23.4222 14.9138C23.2158 14.9088 23.1503 14.8382 23.1503 14.6368V13.6799C23.1503 13.4784 23.2208 13.413 23.4222 13.4079H25.472C25.6785 13.413 25.744 13.4835 25.744 13.6799V14.6318C25.744 14.8332 25.6735 14.9037 25.472 14.9088L23.4222 14.9138ZM22.7373 14.6368C22.7373 15.1152 22.9388 15.3217 23.4222 15.3217H25.472C25.9555 15.3217 26.1569 15.1152 26.1569 14.6368V13.6799C26.1569 13.2015 25.9555 13 25.472 13H23.4222C22.9388 13 22.7373 13.2015 22.7373 13.6799V14.6368Z" fill="#1E4070"/>
<path d="M12.2575 13.2065C12.2575 13.0806 12.187 13 12.051 13H11.1596C10.6812 13 10.4747 13.2065 10.4747 13.6849V14.6418C10.4747 14.8332 10.3891 14.9138 10.1977 14.9138H9.03431C8.9084 14.9138 8.83789 14.9944 8.83789 15.1203C8.83789 15.2411 8.91343 15.3217 9.03431 15.3217H10.1977C10.6711 15.3217 10.8877 15.1152 10.8877 14.6368V13.6799C10.8877 13.4784 10.9632 13.4079 11.1596 13.4079H12.051C12.182 13.413 12.2575 13.3324 12.2575 13.2065Z" fill="#1E4070"/>
<path d="M10.3617 17.7646V18.1263H10.1572V17.153H10.6075C10.739 17.153 10.8432 17.1813 10.9203 17.2379C10.9979 17.2945 11.0367 17.3694 11.0367 17.4625C11.0367 17.5579 10.9987 17.6321 10.9227 17.6851C10.8473 17.7381 10.7414 17.7646 10.605 17.7646H10.3617ZM10.3617 17.629H10.6075C10.6802 17.629 10.7357 17.6149 10.774 17.5868C10.8123 17.5583 10.8314 17.5173 10.8314 17.4638C10.8314 17.4113 10.812 17.3694 10.7732 17.3382C10.7344 17.3065 10.681 17.2903 10.6131 17.2894H10.3617V17.629Z" fill="#1E4070"/>
<path d="M13.3015 17.665C13.3015 17.7604 13.2816 17.8442 13.2417 17.9164C13.2019 17.9881 13.1447 18.0434 13.0704 18.0822C12.9965 18.1205 12.9114 18.1396 12.8149 18.1396C12.7195 18.1396 12.6344 18.1205 12.5595 18.0822C12.4851 18.0434 12.4275 17.9884 12.3865 17.9171C12.3461 17.8458 12.3256 17.7635 12.3251 17.6704V17.6156C12.3251 17.5207 12.3453 17.4369 12.3857 17.3642C12.4267 17.2916 12.484 17.2361 12.5579 17.1978C12.6322 17.159 12.7174 17.1396 12.8133 17.1396C12.9092 17.1396 12.9941 17.1588 13.0679 17.1971C13.1423 17.235 13.1997 17.2898 13.2401 17.3616C13.2805 17.4329 13.301 17.516 13.3015 17.6109V17.665ZM13.097 17.6142C13.097 17.5064 13.0722 17.4237 13.0227 17.3663C12.9736 17.3088 12.9038 17.28 12.8133 17.28C12.7249 17.28 12.6557 17.3088 12.6056 17.3663C12.556 17.4233 12.5307 17.5042 12.5296 17.6089V17.665C12.5296 17.772 12.5546 17.8547 12.6048 17.913C12.6554 17.9714 12.7255 18.0006 12.8149 18.0006C12.9055 18.0006 12.975 17.9721 13.0235 17.915C13.0725 17.858 13.097 17.7747 13.097 17.665V17.6142Z" fill="#1E4070"/>
<path d="M14.8559 17.9913H15.3902V18.1263H14.6514V17.153H14.8559V17.9913Z" fill="#1E4070"/>
<path d="M17.3681 17.8997H16.9122L16.8168 18.1263H16.6042L17.0488 17.153H17.2323L17.6777 18.1263H17.4643L17.3681 17.8997ZM16.9695 17.7633H17.3107L17.1401 17.3596L16.9695 17.7633Z" fill="#1E4070"/>
<path d="M19.8916 18.1263H19.6871L19.1624 17.4358V18.1263H18.9579V17.153H19.1624L19.6887 17.8462V17.153H19.8916V18.1263Z" fill="#1E4070"/>
<path d="M21.2794 18.1263V17.153H21.627C21.731 17.153 21.8231 17.1722 21.9034 17.2105C21.9842 17.2488 22.0468 17.3032 22.0909 17.3736C22.1351 17.444 22.1572 17.5247 22.1572 17.6156V17.6644C22.1572 17.7566 22.1349 17.8377 22.0901 17.9077C22.0459 17.9777 21.9826 18.0316 21.9002 18.0695C21.8183 18.1073 21.7242 18.1263 21.6181 18.1263H21.2794ZM21.4839 17.2894V17.9913H21.6173C21.7245 17.9913 21.8067 17.9636 21.8638 17.9084C21.9215 17.8527 21.9508 17.7729 21.9519 17.6691V17.6149C21.9519 17.5093 21.9242 17.4286 21.8686 17.3729C21.8131 17.3172 21.7326 17.2894 21.627 17.2894H21.4839Z" fill="#1E4070"/>
</svg>
