<svg width="32" height="32" viewBox="0 0 32 32" fill="none" xmlns="http://www.w3.org/2000/svg">
<path d="M0 16C0 24.8365 7.16344 32 16 32C24.8365 32 32 24.8365 32 16C32 7.16344 24.8365 0 16 0C7.16344 0 0 7.16344 0 16Z" fill="white"/>
<path d="M15.9965 0C7.16391 0 0 7.16392 0 15.9965C0 24.8292 7.16391 31.9931 15.9965 31.9931C24.8291 31.9931 31.993 24.8292 31.993 15.9965C31.9835 7.16392 24.8291 0 15.9965 0ZM16.0732 25.1456C18.0392 22.9495 20.0148 19.9477 19.497 17.4926C19.075 14.9992 17.2241 14.184 15.9869 14.2032C14.7498 14.184 12.8989 14.9992 12.4769 17.4926C11.959 19.9477 13.9346 22.9495 15.9006 25.1456C9.67655 25.0785 4.66086 20.0149 4.66086 13.7812C4.66086 7.49958 9.75328 2.41674 16.0253 2.41674C22.3069 2.41674 27.3993 7.49958 27.3993 13.7812C27.4089 20.0436 22.3357 25.1265 16.0732 25.1456Z" fill="#ED1D24"/>
</svg>
