<svg width="32" height="33" viewBox="0 0 32 33" fill="none" xmlns="http://www.w3.org/2000/svg">
<g clip-path="url(#clip0)">
<path d="M0 16.916C0 25.7525 7.16344 32.916 16 32.916C24.8365 32.916 32 25.7525 32 16.916C32 8.07946 24.8365 0.916016 16 0.916016C7.16344 0.916016 0 8.07946 0 16.916Z" fill="black"/>
<path d="M13.5827 27.0337C13.9742 26.6125 14.4345 26.137 14.7092 25.9131C14.6322 25.9065 14.5101 25.8915 14.3776 25.8715C14.0912 26.1324 13.7259 26.514 13.3986 26.8637C12.9835 27.3111 12.6419 27.7022 12.6419 27.7041C12.6364 27.7074 12.6345 27.7145 12.6293 27.7191C12.3581 27.7938 11.8983 27.9203 11.5921 28.0036C11.1385 28.1294 10.7315 28.0985 10.7315 28.3951C10.7315 28.3951 10.2619 28.647 10.3718 29.0224C10.3718 29.0224 11.3138 28.27 12.1197 28.1425C12.1197 28.1425 11.6273 28.4629 11.6721 28.8968C11.6721 28.8968 12.3355 27.9039 13.1105 28.5062C13.1105 28.5062 12.7651 28.0369 12.909 27.7788C13.0329 27.6382 13.2894 27.3499 13.5827 27.0337ZM12.0907 15.3115C12.05 15.3296 12.0077 15.3362 11.9642 15.3362C11.8269 15.3362 11.698 15.2527 11.6421 15.1167C11.6371 15.1057 11.6307 15.0924 11.6285 15.0784L11.5262 15.1124C11.6121 15.3629 11.8709 15.4999 12.1043 15.419C12.163 15.3981 12.2156 15.3667 12.2563 15.3267C12.3845 15.2063 12.4366 15.0096 12.3728 14.8231L12.1383 14.9031C12.153 14.9378 12.163 14.9751 12.163 15.0151C12.163 15.0496 12.1568 15.081 12.1433 15.111L12.2501 15.1761C12.2315 15.2042 12.2089 15.2323 12.1816 15.2556C12.1568 15.2789 12.1257 15.2975 12.0907 15.3115ZM21.5827 14.5512L16.95 15.6811V15.6761L16.9515 15.6811L26 11.7657L18.5426 12.6792L22.5344 9.76328L18.2569 11.4332L18.903 10.137L15.843 12.3411L15.817 12.2945L20.1552 2.9158L13.1007 11.2655L13.0567 6.71301L10.4684 12.7981L10.334 11.0043L9.05876 15.6719L9.06113 15.6704V15.6719C9.06113 15.6719 9.23288 15.5446 9.46409 15.4749C9.48265 15.4699 9.5012 15.4654 9.52 15.4599C9.52237 15.4599 9.52451 15.458 9.52737 15.458C9.54592 15.454 9.56448 15.4497 9.58327 15.4466C9.58565 15.4466 9.58827 15.4447 9.59183 15.4447C9.61086 15.4414 9.62918 15.4387 9.65059 15.4373V15.4354C9.67057 15.4338 9.69008 15.4328 9.70887 15.4311H9.721C9.73979 15.4292 9.76001 15.4292 9.78094 15.4311C9.78237 15.4311 9.78332 15.4311 9.78808 15.4328C9.80568 15.4328 9.82305 15.4338 9.8416 15.4373C9.84541 15.4387 9.84755 15.4387 9.85159 15.4387C9.87205 15.4414 9.89037 15.4447 9.90892 15.4497C9.91392 15.4497 9.91891 15.4514 9.92129 15.4523C9.9408 15.4573 9.96078 15.4628 9.98219 15.4699C10.4185 15.6279 10.7895 15.4699 10.7895 15.4699C10.7895 15.4699 11.2003 15.7337 11.2003 15.9549H11.1994V15.9559C11.1994 15.9559 10.6589 15.9875 10.6589 15.748C10.6589 15.748 9.96744 15.5027 9 15.861L11.0403 16.7383C11.0388 16.729 10.9313 16.3491 11.0493 16.2171C11.0866 16.1714 11.1521 16.1555 11.2543 16.19C11.2917 16.2033 11.3188 16.1999 11.3357 16.1838C11.4941 16.0201 10.7248 14.5995 10.7248 14.5995C10.7248 14.5995 10.0343 14.5324 9.43626 15.1576C9.39678 15.199 9.35539 15.2435 9.31709 15.2922V15.2901V15.2922C9.37798 15.1856 9.57185 14.8769 9.89536 14.6095C10.089 14.4468 10.3316 14.301 10.6204 14.2187C10.6996 14.0289 10.599 14.1526 10.7622 14.0526C10.7636 14.0526 10.7636 14.051 10.7636 14.051C10.8402 13.55 11.1238 12.2598 12.1019 11.1565C12.1675 11.0833 12.2351 11.0093 12.3072 10.9391C12.3072 10.9391 12.0565 11.4106 12.0565 11.7384C12.0636 11.73 12.3112 11.3587 12.6533 11.019V11.0176C12.6533 11.0176 12.6492 11.0228 12.6443 11.0323C12.5805 11.1682 12.1143 12.1639 12.163 12.4546C12.1642 12.4572 12.1652 12.4589 12.1652 12.4617L13.1081 11.5978C13.1081 11.5978 13.1055 11.5994 13.1041 11.6004C13.0767 11.6377 12.2189 12.7981 12.1342 13.1956V13.1984L13.5617 12.1787L13.5603 12.1803C13.5558 12.1887 13.3805 12.4327 13.307 12.5666C13.2546 12.6625 13.247 12.6949 13.247 12.7048L13.2494 12.7125L14.018 12.3828C14.018 12.3828 13.9847 12.4227 13.9309 12.481L13.645 12.7717L13.5743 12.8464L13.0546 13.3718L13.0448 13.3837L12.6492 13.7858L12.3954 14.0443C12.3954 14.0443 12.188 14.2603 12.163 14.3724C12.1383 14.4825 12.2551 14.5505 12.2551 14.5505H12.2539C12.3595 14.6095 12.4451 14.7006 12.4949 14.8098C12.5227 14.8759 12.5382 14.9478 12.5382 15.0251C12.5382 15.1761 12.4763 15.3134 12.3728 15.4123C12.2713 15.5123 12.1281 15.5746 11.9703 15.5746C11.8269 15.5746 11.6994 15.5227 11.5997 15.4392C11.6171 15.4628 11.8983 15.816 12.414 15.5413L13.0515 15.0767L13.0791 15.0551L13.7382 14.5731C13.8938 14.7565 14.0406 14.9777 14.1736 15.2285C13.7818 15.6005 13.1141 16.2459 12.4473 16.9516C12.05 17.3712 11.6535 17.8149 11.315 18.2338L11.5529 17.117L11.5724 17.0247C11.5724 17.0247 11.5714 17.0247 11.5714 17.0263C11.5688 17.0273 11.5674 17.0273 11.5655 17.0289C11.5655 17.0299 11.5624 17.0316 11.5624 17.0316C11.5603 17.033 11.5574 17.033 11.5562 17.0366C11.5548 17.0366 11.5529 17.0375 11.5529 17.0404C11.5503 17.0416 11.5462 17.0432 11.5438 17.0449C11.5424 17.0458 11.5415 17.0496 11.5374 17.0504C11.5353 17.0515 11.5315 17.0553 11.5281 17.0563C11.5262 17.0596 11.5239 17.0608 11.5201 17.0637C11.5174 17.0663 11.5155 17.0689 11.5101 17.0703C11.5065 17.0739 11.5041 17.0775 11.5001 17.0796C11.497 17.0822 11.4929 17.087 11.4889 17.0875C11.4856 17.0925 11.4815 17.097 11.4782 17.0982C11.473 17.102 11.4691 17.1063 11.4642 17.1096C11.4606 17.1122 11.4568 17.117 11.4537 17.1205C11.4482 17.1248 11.4418 17.1281 11.4382 17.1341C11.4318 17.1365 11.4297 17.1407 11.4232 17.1436C11.4197 17.1495 11.4132 17.1541 11.4071 17.1595C11.4035 17.1636 11.3971 17.1681 11.3933 17.1729C11.3871 17.1781 11.3797 17.184 11.3747 17.1907C11.3697 17.1952 11.3664 17.1995 11.3597 17.2028C11.355 17.2102 11.3476 17.2173 11.3388 17.224C11.3338 17.228 11.33 17.2314 11.3264 17.2361C11.3224 17.2402 11.3176 17.2445 11.3124 17.2485C11.3124 17.2502 11.3114 17.2502 11.3114 17.2502C11.3043 17.2568 11.2964 17.2654 11.2891 17.2735C11.2827 17.2773 11.2777 17.2839 11.2731 17.2901C11.2641 17.2968 11.2577 17.3044 11.2503 17.3113C11.2441 17.3172 11.2377 17.3246 11.2317 17.3301C11.2268 17.3377 11.2203 17.3434 11.217 17.3479C11.2144 17.3501 11.2111 17.3536 11.2082 17.3563C11.2082 17.3572 11.2058 17.3594 11.2032 17.362C11.1984 17.3667 11.1944 17.3708 11.1894 17.376C11.1832 17.3834 11.177 17.3893 11.1709 17.3967C11.1694 17.3993 11.1685 17.4012 11.1659 17.4019C11.1632 17.4046 11.1611 17.406 11.1585 17.4086C11.1552 17.4145 11.1509 17.4191 11.1459 17.4233C11.1385 17.4338 11.1311 17.4419 11.1211 17.4505C11.1149 17.46 11.1073 17.4666 11.1012 17.4759C11.0938 17.4852 11.0838 17.4952 11.0762 17.5037C11.0688 17.5133 11.0619 17.5204 11.055 17.5299C11.0453 17.5401 11.0379 17.5511 11.0279 17.5615C11.0217 17.5699 11.0139 17.5784 11.006 17.5884C10.9979 17.5998 10.9894 17.6098 10.9794 17.6232C10.972 17.6298 10.9656 17.64 10.958 17.6484C10.9487 17.6624 10.9384 17.6743 10.9285 17.6876C10.9206 17.6976 10.9147 17.7043 10.9097 17.7133C10.8973 17.7292 10.8847 17.7452 10.8723 17.7614C10.8685 17.7675 10.8621 17.7749 10.8588 17.7809C10.8414 17.8049 10.8228 17.8292 10.8062 17.8546L10.804 17.8572C10.7874 17.8815 10.7703 17.9055 10.7541 17.93C10.7503 17.9372 10.7448 17.9455 10.7396 17.9531C10.7282 17.9716 10.7148 17.9904 10.7022 18.0102C10.6956 18.0195 10.6908 18.0287 10.6837 18.038C10.6723 18.0568 10.6608 18.0735 10.6487 18.092C10.6423 18.1034 10.6363 18.1134 10.6304 18.1236C10.6204 18.1422 10.6076 18.1612 10.5957 18.18C10.5904 18.1912 10.5831 18.2021 10.5771 18.2143C10.5657 18.2328 10.5557 18.2526 10.5431 18.2711C10.5367 18.2811 10.5293 18.2944 10.5231 18.3059C10.5117 18.3277 10.5005 18.3465 10.4891 18.3665C10.4839 18.3777 10.4772 18.3903 10.471 18.4032C10.4185 18.4997 10.3675 18.5996 10.3152 18.7074V18.7095L10.0528 18.7533C10.1054 18.6182 10.1573 18.4957 10.2136 18.3794L9.7857 18.9819L10.2136 18.9398C9.84755 19.7809 9.57923 20.8811 9.57923 22.4485L9.92771 22.2279C10.2346 23.977 11.6768 24.7461 11.6768 24.7461L11.6744 24.7352C12.4687 25.2549 13.4359 25.6186 14.5016 25.7628C14.6493 25.7816 14.7692 25.7925 14.7963 25.7951C14.7973 25.7951 14.7973 25.7951 14.7973 25.7944C14.8165 25.7968 14.8337 25.8001 14.8522 25.8001C15.4293 25.8506 15.99 25.8299 16.5261 25.7516C16.5247 25.7718 16.5235 25.7925 16.5235 25.8132C16.5235 26.1596 16.716 26.4445 16.9615 26.4683C16.4574 27.3251 16.0494 28.4634 16.0482 28.4688C16.0287 28.5212 15.9885 28.618 15.9479 28.647C15.8237 28.6748 15.8137 28.6813 15.6764 28.7238L15.6786 28.7222C15.6322 28.6772 15.2342 28.6028 14.8289 28.7548C14.8298 28.7569 14.8298 28.7569 14.8322 28.7588C14.6027 28.8594 14.3796 29.0433 14.2247 29.3478C14.3895 29.2148 14.6971 28.9984 14.9471 29.0283C14.6507 29.1972 14.1388 29.5195 14.0803 29.9834C14.0803 29.9834 15.8579 28.7362 16.7345 28.9665C16.7345 28.9665 16.607 29.1113 16.9086 29.6501L17.0466 29.1489C17.2046 28.6627 16.5956 28.5911 16.3396 28.5806C16.3408 28.5771 16.3408 28.5754 16.3408 28.5747C16.3408 28.5747 16.3691 28.4969 16.4189 28.368C16.5697 27.9786 16.921 27.1177 17.3057 26.5033C17.3128 26.4902 17.3178 26.4766 17.3218 26.4638L17.2498 26.3646C17.2505 26.3646 17.3016 26.3087 17.3294 26.2673C17.3803 26.1869 17.451 26.0499 17.4522 25.8691C17.4522 25.7273 17.4177 25.548 17.3164 25.3256L17.5442 25.2199C17.5564 25.249 17.5687 25.2758 17.5809 25.302C17.5842 25.312 17.5875 25.3206 17.5904 25.3282C17.5975 25.347 17.6047 25.3655 17.6111 25.3841C17.6149 25.3926 17.618 25.4029 17.6216 25.4121C17.6277 25.4324 17.6334 25.4512 17.6401 25.4697C17.6413 25.4754 17.6451 25.483 17.6463 25.4897L18.9475 25.0967L18.6592 24.8593H18.6573L18.6444 24.8465L18.6378 24.8412L13.7168 20.3597C13.7183 20.3597 13.7194 20.3621 13.7194 20.3621L13.7183 20.3597C15.0863 21.025 16.6822 21.7988 19.3892 23.0529C22.0563 24.2822 23.7447 24.9982 24.6158 25.3553C24.6232 25.3598 24.6313 25.3629 24.6372 25.3655H24.6386C24.7652 25.4176 24.8737 25.4612 24.9652 25.4985C25.1517 25.5713 25.3263 25.6391 25.3358 25.6434C25.3506 25.635 25.3682 25.6303 25.3832 25.6227L15.4341 18.799L21.5827 14.5512ZM14.6971 16.6543L13.2137 17.7825L14.2785 15.4414V15.4392C14.4476 15.7984 14.5898 16.2088 14.6983 16.6543H14.6971ZM19.9929 24.7268L20.0303 24.905H20.0293L21.7627 25.9274L22.2014 26.1822L21.9616 25.5651C23.3917 25.9866 24.5563 26.0104 25.3309 25.6453C25.3309 25.6453 25.3299 25.6453 25.3299 25.646C23.9819 26.0442 20.6388 24.9178 19.9929 24.7268Z" fill="#DC0D15"/>
<path d="M10.6589 15.7479C10.6589 15.9874 11.1994 15.9558 11.1994 15.9558C11.1994 15.7355 10.7895 15.4707 10.7895 15.4707C10.7895 15.4707 10.4185 15.6277 9.97981 15.4707C9.80426 15.4072 9.62062 15.4279 9.46409 15.4757C9.25619 15.6144 9 15.8625 9 15.8625C9.96768 15.5024 10.6589 15.7479 10.6589 15.7479ZM14.2785 15.4412L13.2137 17.7824L14.6971 16.6542C14.5898 16.2084 14.4457 15.7997 14.2785 15.4412ZM25.3382 25.6432C25.3382 25.6432 22.0063 24.393 13.7168 20.3595L18.6573 24.8592H18.6592C19.1019 24.6753 19.4132 24.5447 20.0293 24.9049L19.9929 24.7267C20.6373 24.9177 23.993 26.0498 25.3382 25.6432ZM17.3164 25.3254C17.4177 25.5478 17.4522 25.727 17.4522 25.869C17.451 26.0498 17.3803 26.1865 17.3294 26.2672C17.3016 26.3086 17.2505 26.3645 17.2498 26.3645L17.3977 26.5674C17.4137 26.5569 17.7024 26.3388 17.7024 25.869C17.7024 25.6861 17.6587 25.4696 17.5435 25.2198L17.3164 25.3254ZM14.3424 25.8652C14.5775 25.9025 14.7916 25.9223 14.7916 25.9223L14.8025 25.7981C14.8025 25.7981 14.5927 25.7793 14.3627 25.742L14.3424 25.8652ZM14.1736 15.2283C14.0406 14.9776 13.8938 14.7564 13.7382 14.573L12.414 15.5428C11.8795 15.8252 11.5974 15.4384 11.5974 15.4384C11.6954 15.5224 11.826 15.5744 11.9703 15.5744C12.2848 15.5744 12.5372 15.3266 12.5384 15.025C12.5384 14.9486 12.5227 14.8756 12.4939 14.8113C12.4451 14.7005 12.3581 14.6092 12.2529 14.5509L12.2551 14.5502C12.2551 14.5502 12.1383 14.4824 12.163 14.372C12.188 14.2602 12.3954 14.044 12.3954 14.044L12.394 14.0451L13.0448 13.3836L13.0546 13.3717L13.645 12.7716L13.9309 12.4809C13.9847 12.4226 14.0166 12.3841 14.0166 12.3841L13.247 12.7123C13.247 12.7123 13.2323 12.704 13.307 12.5663C13.3814 12.4297 13.5617 12.1783 13.5617 12.1783L12.1331 13.1981C12.2156 12.7977 13.1081 11.5993 13.1081 11.5993L12.1652 12.4621C12.1019 12.1614 12.6533 11.0187 12.6533 11.0187C12.3062 11.3629 12.0565 11.7401 12.0565 11.7401C12.0565 11.4104 12.3062 10.9387 12.3062 10.9387C11.1611 12.0841 10.8435 13.5175 10.7636 14.0506C10.5976 14.1543 10.6996 14.028 10.6204 14.2186C9.85159 14.4357 9.41533 15.1215 9.31614 15.2919C9.93985 14.5223 10.7248 14.5992 10.7248 14.5992C10.7248 14.5992 11.6621 16.3314 11.2543 16.1915C10.8435 16.049 11.0403 16.7379 11.0403 16.7379L10.2733 16.4073C10.3999 16.6577 10.6487 17.2472 10.5058 17.8607C10.3478 18.1004 10.1913 18.3928 10.0528 18.7532L10.3152 18.7092C10.3666 18.5993 10.4175 18.4994 10.4684 18.4035C10.4758 18.3911 10.4839 18.3792 10.4891 18.3671C10.4993 18.3469 10.5107 18.3276 10.5231 18.3072C10.5293 18.2953 10.5367 18.2822 10.5431 18.271C10.554 18.2522 10.5638 18.2337 10.5757 18.2151C10.5831 18.202 10.5904 18.1911 10.5957 18.1797C10.6076 18.1611 10.6176 18.1421 10.6304 18.1247C10.6363 18.1131 10.6423 18.1031 10.6487 18.0938C10.6599 18.0752 10.6723 18.0564 10.6837 18.0386C10.6889 18.0286 10.6941 18.0191 10.7022 18.0098C10.7129 17.9913 10.7263 17.9725 10.7396 17.9539C10.7448 17.9454 10.7481 17.937 10.7541 17.9299C10.7703 17.9054 10.7874 17.8814 10.804 17.8581C10.804 17.8571 10.8062 17.8554 10.8062 17.8542C10.8228 17.829 10.8402 17.806 10.8569 17.7824C10.8621 17.7767 10.8673 17.7689 10.8723 17.7622C10.8847 17.7451 10.8961 17.7301 10.9085 17.7132C10.9147 17.7041 10.9206 17.6975 10.9285 17.6892C10.9373 17.6758 10.947 17.6623 10.957 17.6482C10.9656 17.6399 10.972 17.6316 10.9779 17.6228C10.9872 17.6109 10.9967 17.5995 11.006 17.5883C11.0129 17.58 11.0217 17.5717 11.0279 17.5624C11.0379 17.551 11.0453 17.541 11.0541 17.5307C11.0619 17.5224 11.0679 17.5136 11.0752 17.5053C11.0838 17.4951 11.0921 17.4851 11.1012 17.4763C11.1073 17.4679 11.1149 17.4603 11.1211 17.4525C11.1295 17.4418 11.1385 17.4337 11.1444 17.4244C11.1521 17.4177 11.1585 17.4085 11.1659 17.4018C11.1737 17.3935 11.1808 17.3856 11.1894 17.3771C11.1958 17.3685 11.2018 17.3637 11.2082 17.3561C11.217 17.3478 11.2239 17.3404 11.2317 17.3312C11.2367 17.3264 11.2441 17.3188 11.2503 17.3112C11.2565 17.304 11.2641 17.2964 11.2731 17.2898C11.2777 17.2845 11.2827 17.2788 11.2891 17.2731C11.2964 17.2653 11.3043 17.2565 11.3114 17.2498C11.3176 17.2458 11.3209 17.2398 11.3264 17.2365C11.3388 17.2239 11.3488 17.2136 11.3597 17.2025C11.3664 17.1991 11.3697 17.1949 11.3747 17.1906C11.3797 17.1839 11.3871 17.178 11.3933 17.1725C11.3971 17.168 11.4035 17.1632 11.4071 17.1592C11.4132 17.1539 11.4197 17.1492 11.4232 17.1432C11.4297 17.1406 11.432 17.1363 11.4382 17.134C11.442 17.128 11.4482 17.1247 11.4537 17.1204C11.4568 17.1166 11.4606 17.1121 11.4642 17.1092C11.4691 17.1059 11.473 17.1016 11.4782 17.098C11.4815 17.0966 11.4856 17.0923 11.4889 17.0873C11.4929 17.0866 11.497 17.0821 11.5001 17.0792C11.5041 17.0773 11.5065 17.0738 11.5101 17.07C11.5155 17.0688 11.5174 17.0659 11.5201 17.0633C11.5239 17.0607 11.5262 17.0593 11.5281 17.0559C11.5315 17.055 11.5353 17.0514 11.5374 17.05C11.5415 17.0493 11.5424 17.0457 11.5438 17.0448C11.5462 17.0431 11.5503 17.0414 11.5529 17.04C11.5529 17.0374 11.5548 17.0364 11.5562 17.0364C11.5574 17.0326 11.5603 17.0326 11.5624 17.0314C11.5624 17.0314 11.5655 17.0298 11.5655 17.0288C11.5674 17.0272 11.5688 17.0272 11.5714 17.026C11.5714 17.0243 11.5724 17.0243 11.5724 17.0243L11.5529 17.1166L11.315 18.2337C12.2166 17.1166 13.5477 15.8209 14.1736 15.2283ZM11.525 15.112L11.6285 15.0782C11.6307 15.092 11.6371 15.1054 11.6421 15.1165C11.698 15.2526 11.8269 15.3359 11.9642 15.3359C12.0077 15.3359 12.05 15.3292 12.0907 15.3114C12.1592 15.2833 12.2139 15.2341 12.2501 15.176L12.1433 15.112C12.1568 15.0828 12.163 15.0495 12.163 15.015C12.163 14.9748 12.153 14.9377 12.1383 14.9029L12.3728 14.823C12.4578 15.0725 12.3381 15.3392 12.1033 15.4198C11.87 15.4998 11.6107 15.3639 11.525 15.112Z" fill="black"/>
</g>
<defs>
<clipPath id="clip0">
<rect y="0.916016" width="32" height="32" rx="16" fill="white"/>
</clipPath>
</defs>
</svg>
