<svg width="32" height="32" viewBox="0 0 32 32" fill="none" xmlns="http://www.w3.org/2000/svg">
<path d="M0 16C0 24.8365 7.16344 32 16 32C24.8365 32 32 24.8365 32 16C32 7.16344 24.8365 0 16 0C7.16344 0 0 7.16344 0 16Z" fill="#EC1D35"/>
<path d="M22.384 8.02815C22.1665 8.03442 21.9553 8.10271 21.7753 8.22495C21.5953 8.34719 21.454 8.5183 21.368 8.71815L18.7659 13.0001C18.5913 13.3558 18.4856 13.7412 18.4539 14.1361C18.4468 14.3795 18.4918 14.6217 18.586 14.8461L21.4 21.5661H10.468C10.276 21.5514 10.0962 21.4659 9.96358 21.3262C9.83097 21.1866 9.75483 21.0026 9.74993 20.8102V9.22815C9.74363 8.90989 9.61111 8.6072 9.38153 8.38665C9.15199 8.1661 8.84423 8.04578 8.52597 8.05215C8.20771 8.05851 7.90501 8.19105 7.68448 8.42059C7.46393 8.65013 7.3436 8.95789 7.34997 9.27615L7.39997 21.5661C7.39521 21.8791 7.45263 22.1898 7.56892 22.4805C7.68521 22.771 7.85805 23.0357 8.07741 23.2589C8.29676 23.4822 8.55827 23.6597 8.84676 23.7811C9.13525 23.9025 9.44499 23.9654 9.75793 23.9661H24.664L21.026 14.6842C20.9574 14.5103 20.9304 14.3229 20.947 14.1368C20.9637 13.9507 21.0236 13.771 21.122 13.6122L23.522 9.70618C23.5673 9.53413 23.5942 9.35783 23.602 9.18015C23.5981 9.02439 23.5635 8.87094 23.5 8.72862C23.4366 8.58629 23.3457 8.45791 23.2326 8.35085C23.1193 8.24378 22.9861 8.16016 22.8405 8.10478C22.6949 8.0494 22.5397 8.02336 22.384 8.02815ZM16.482 8.02815C16.3247 8.02406 16.1684 8.05256 16.0227 8.11185C15.877 8.17113 15.7451 8.25992 15.6355 8.37263C15.5257 8.48534 15.4406 8.61953 15.3852 8.76676C15.3299 8.91399 15.3056 9.07108 15.314 9.22815V17.5181C15.314 18.7181 13.692 18.6221 13.692 17.5181V9.22815C13.692 7.64615 11.354 7.64615 11.354 9.22815V17.5821C11.354 19.4922 12.776 20.7622 14.4779 20.7622C16.228 20.7622 17.6539 19.4922 17.6539 17.5821V9.22815C17.6636 9.07062 17.6401 8.91282 17.5849 8.76496C17.5298 8.61709 17.4442 8.48243 17.3337 8.36972C17.2233 8.25699 17.0904 8.1687 16.9436 8.11056C16.797 8.05241 16.6396 8.0257 16.482 8.03215V8.02815Z" fill="white"/>
</svg>
