<svg width="32" height="32" viewBox="0 0 32 32" fill="none" xmlns="http://www.w3.org/2000/svg">
<g clip-path="url(#clip0)">
<path d="M0 16C0 24.8365 7.16344 32 16 32C24.8365 32 32 24.8365 32 16C32 7.16344 24.8365 0 16 0C7.16344 0 0 7.16344 0 16Z" fill="#3C5A9A"/>
<path d="M20.212 32V21.226H23.828L24.368 17.026H20.212V14.3481C20.212 13.1321 20.548 12.304 22.292 12.304H24.516V8.54805C23.4399 8.43328 22.3582 8.37786 21.276 8.38206C18.076 8.38206 15.876 10.3401 15.876 13.9321V17.0281H12.25V21.2281H15.876V32H20.212Z" fill="white"/>
</g>
<defs>
<clipPath id="clip0">
<rect width="32" height="32" fill="white"/>
</clipPath>
</defs>
</svg>
