<svg width="32" height="32" viewBox="0 0 32 32" fill="none" xmlns="http://www.w3.org/2000/svg">
<path d="M0 16C0 24.8365 7.16344 32 16 32C24.8365 32 32 24.8365 32 16C32 7.16344 24.8365 0 16 0C7.16344 0 0 7.16344 0 16Z" fill="#164A91"/>
<path d="M12.424 13.7238H14.964C15.896 13.7238 16.32 14.3458 16.32 14.9138C16.32 15.3238 16.164 15.5878 15.742 15.8318C16.274 16.0318 16.564 16.3838 16.564 16.9318C16.564 17.5858 16.088 18.2818 14.964 18.2818H12.422V13.7238H12.424ZM13.81 17.2518H14.73C14.7902 17.2559 14.8507 17.2476 14.9076 17.2273C14.9645 17.2071 15.0166 17.1753 15.0607 17.134C15.1048 17.0928 15.14 17.0428 15.1639 16.9874C15.1879 16.9319 15.2001 16.8722 15.2 16.8118C15.1972 16.7587 15.1838 16.7067 15.1608 16.6588C15.1376 16.6109 15.1052 16.5682 15.0653 16.533C15.0255 16.4978 14.979 16.4709 14.9287 16.4538C14.8783 16.4368 14.825 16.43 14.772 16.4338H13.81V17.2518ZM13.81 15.5178H14.548C14.886 15.5178 15.02 15.3618 15.02 15.1318C15.0219 15.0831 15.0135 15.0346 14.995 14.9895C14.9767 14.9445 14.9487 14.9038 14.9133 14.8705C14.8778 14.8371 14.8356 14.8118 14.7895 14.796C14.7433 14.7804 14.6944 14.7749 14.646 14.7798H13.814L13.81 15.5178Z" fill="white"/>
<path d="M18 13.7238H19.468L21.14 18.2758H19.64L19.42 17.5998H18.02L17.832 18.2778H16.332L18 13.7238ZM18.6741 15.0758L18.294 16.5998H19.1221L18.6821 15.0798L18.6741 15.0758Z" fill="white"/>
<path d="M23.4899 15.0782H24.8899C24.8899 14.3063 24.308 13.5883 22.9279 13.5883C21.4139 13.5883 20.9459 14.4242 20.9459 15.0343C20.9459 16.0203 22.1459 16.2823 22.1899 16.2942C22.3699 16.3523 23.1179 16.5523 23.3059 16.6183C23.3891 16.6396 23.4637 16.6856 23.5202 16.7501C23.5766 16.8148 23.6121 16.895 23.6219 16.9803C23.6219 17.2462 23.3059 17.3803 23.0419 17.3803C22.8719 17.3803 22.3039 17.3243 22.3039 16.7203H20.8559C20.8559 17.5203 21.4079 18.4183 22.9539 18.4183C24.6619 18.4183 25.02 17.4003 25.02 16.8583C25.0185 16.6028 24.9392 16.3537 24.7928 16.1444C24.6462 15.935 24.4394 15.7752 24.1999 15.6862C23.8539 15.5463 23.2779 15.4243 22.988 15.3383C22.8419 15.2963 22.356 15.1982 22.356 14.9022C22.356 14.5223 22.9819 14.5703 22.892 14.5703C23.1739 14.5703 23.492 14.7303 23.492 15.0782H23.4899Z" fill="white"/>
<path d="M25.256 13.7238H28.752V14.9258H26.654V15.7278H28.524V16.8778H26.646V18.2798H25.25L25.256 13.7238Z" fill="white"/>
<path d="M6.34204 15.1259V16.8799V15.1259ZM6.34204 15.1259H4.60005V16.8799H6.35205L6.34204 15.1259ZM3.24805 18.2919H3.31004H3.24805ZM3.24805 13.7339H7.80005V18.2919H3.24805V13.7339Z" fill="#A2AAD0"/>
<path d="M9.27 15.1277V16.8797H11.022V15.1277H9.27Z" fill="#A2AAD0"/>
</svg>
