<svg width="32" height="32" viewBox="0 0 32 32" fill="none" xmlns="http://www.w3.org/2000/svg">
<path d="M0 16C0 24.8365 7.16344 32 16 32C24.8365 32 32 24.8365 32 16C32 7.16344 24.8365 0 16 0C7.16344 0 0 7.16344 0 16Z" fill="#EF4923"/>
<path d="M13.9 18.7081C13.75 18.8661 13.342 18.9241 13.228 19.1081C12.9726 19.5366 12.6751 19.9386 12.34 20.3081C11.3301 21.2681 9.16604 21.7501 8.10004 20.8341C8.03003 20.8341 8.07003 20.8781 8.15403 21.1401C8.23204 21.6361 8.63204 22.8021 8.48404 23.0981C8.58004 23.4301 8.68404 23.2981 8.86204 23.4981C8.98604 23.6221 9.03604 23.9461 9.17804 24.0341L9.66607 24.0001L9.75605 24.2721L10.382 24.2281C10.4981 24.2541 10.854 24.4281 10.958 24.4661L11.652 24.4181C12.184 24.5601 12.652 24.3381 13.094 24.0341C13.344 23.8681 13.6181 23.8941 13.838 23.7041C14.2166 23.3533 14.5408 22.9483 14.8 22.5021C15.302 21.5881 15.1301 19.4021 14.676 18.8621C14.4981 18.6621 14.276 18.6621 13.896 18.7081H13.9ZM18.096 18.1081C17.718 18.3961 17.5621 18.3241 17.34 18.7701C17.318 18.7701 17.374 18.8361 17.352 18.8361C17.576 19.2841 18.0901 19.4641 18.468 19.7801C18.5861 19.8801 18.9061 20.4341 19.0581 20.4741C19.228 20.6741 19.3381 21.2381 19.4581 21.2381C19.574 21.3961 19.4581 21.7681 19.5621 21.9141C19.5621 22.5801 19.478 22.6261 19.3621 22.7561C19.3621 22.8021 19.4261 22.9221 19.4261 22.9681C19.4581 22.9981 19.726 23.1901 19.8421 23.1681C20.206 23.1781 21.692 24.3381 21.8101 24.5681C22.876 24.6481 22.8101 24.3221 23.536 24.0101C23.736 23.9241 23.892 24.0101 24.022 23.8701C24.152 23.7301 24.1701 23.4561 24.302 23.3121C24.32 20.6881 20.75 18.2041 18.102 18.1121L18.096 18.1081ZM21 12.5661C20.0605 12.6781 19.1605 13.009 18.372 13.5321C18.1645 13.6638 17.9862 13.8367 17.848 14.0401C17.7515 14.2098 17.7182 14.4082 17.7541 14.6001C17.7668 14.7225 17.8035 14.8411 17.8622 14.9492C17.9208 15.0573 18.0004 15.1528 18.096 15.2301C19.72 15.1101 22.5381 15.0081 23.096 16.3701C23.124 16.5701 23.168 16.6761 23.172 16.7201C23.71 16.5881 23.316 16.6341 24.108 16.7581C24.421 16.7508 24.7317 16.7024 25.032 16.6141C25.1188 16.5895 25.1939 16.5349 25.244 16.4601C25.2305 16.3943 25.2245 16.3272 25.2261 16.2601C25.3629 16.2754 25.5014 16.2525 25.6261 16.1941C26.376 16.0741 25.982 15.7201 26.336 15.3221C26.1061 12.7801 23.4901 12.1881 21 12.5661ZM10.936 17.2121C11.2261 17.1381 11.7221 17.0981 11.98 16.9701C12.3941 16.7701 13.814 15.7701 13.3621 14.9701C13.224 13.2661 11.1621 14.7061 10.2901 14.1101C9.40604 13.9941 8.41003 12.3101 8.14203 11.6001C8.10367 11.4513 8.03564 11.3118 7.94203 11.1901C7.94203 11.1661 7.85204 11.2681 7.85204 11.2441C7.60004 11.5361 7.63604 11.8001 7.60004 12.5341L7.25003 12.5121C7.2604 12.7101 7.19938 12.9053 7.07803 13.0621L7.00004 13.2001C6.78004 13.1261 6.89003 13.2321 6.80004 13.0461C5.98404 13.0881 6.04404 13.9081 5.67003 14.3741C5.68603 15.9041 8.71604 17.7921 10.94 17.2161L10.936 17.2121ZM16.84 8.89408C16.91 8.31608 16.824 7.47008 17.2821 7.07208C17.416 6.45608 18.3861 6.60008 18.236 6.20608C18.142 5.96008 17.684 6.07808 17.5 6.12408C17.36 6.15608 16.028 6.57808 15.516 6.63408L14.8661 6.45408C14.03 6.56608 13.548 7.23208 13.0821 7.76008C12.6901 8.20008 12.16 9.28408 12.582 9.93208C12.558 10.0741 12.534 10.2161 12.512 10.3581L13.46 11.7461C13.788 11.9801 13.832 12.1561 14.184 12.3881C14.2581 12.4961 14.3301 12.6041 14.4021 12.7141C14.6901 12.9041 15.542 12.9141 15.684 12.7841C17.054 12.9101 16.9061 10.1401 17.34 9.55608C17.2595 9.27972 17.0801 9.04266 16.836 8.89008" fill="white"/>
</svg>
