<svg width="32" height="32" viewBox="0 0 32 32" fill="none" xmlns="http://www.w3.org/2000/svg">
<path d="M0 16C0 24.8365 7.16344 32 16 32C24.8365 32 32 24.8365 32 16C32 7.16344 24.8365 0 16 0C7.16344 0 0 7.16344 0 16Z" fill="#EA1F26"/>
<path d="M16 8.34375C23.388 8.34375 29.3861 11.6857 29.3861 15.7997C29.3861 19.9138 23.3861 23.2557 16 23.2557C8.61404 23.2557 2.61604 19.9158 2.61604 15.7997C2.61604 11.6838 8.61404 8.34375 16 8.34375ZM16 9.01575C8.98604 9.01575 3.29204 12.0617 3.29204 15.7997C3.29204 19.5378 8.98604 22.5778 16 22.5778C23.014 22.5778 28.704 19.5398 28.704 15.7997C28.704 12.0598 23.0101 9.01575 16 9.01575ZM13.648 16.5158H11.014C11.044 17.1638 11.414 17.4637 11.9541 17.4637C12.1124 17.4745 12.2701 17.4357 12.4054 17.3525C12.5405 17.2693 12.6463 17.146 12.708 16.9997H13.5701C13.348 17.7837 12.708 18.1458 11.916 18.1458C10.796 18.1458 10.0981 17.3757 10.0981 16.2738C10.0981 15.2057 10.836 14.3938 11.916 14.3938C13.1301 14.3997 13.716 15.4217 13.648 16.5158ZM11.892 15.0738C11.344 15.0738 11.064 15.4377 11.02 15.9058H12.7301C12.664 15.3997 12.456 15.0738 11.892 15.0738ZM25.052 16.5158H22.4181C22.446 17.1638 22.8181 17.4637 23.356 17.4637C23.5147 17.475 23.6729 17.4363 23.8085 17.3531C23.9441 17.2698 24.0503 17.1464 24.112 16.9997H24.974C24.7541 17.7837 24.112 18.1458 23.3221 18.1458C22.198 18.1458 21.504 17.3757 21.504 16.2738C21.504 15.2057 22.2421 14.3938 23.3221 14.3938C24.536 14.3997 25.1221 15.4217 25.052 16.5158ZM23.294 15.0738C22.748 15.0738 22.468 15.4377 22.422 15.9058H24.134C24.068 15.3997 23.86 15.0738 23.294 15.0738ZM5.49404 18.0578H6.47204V15.9378H8.57804V18.0578H9.55604V13.1318H8.57804V15.1497H6.46804V13.1318H5.49004L5.49404 18.0578ZM14.19 18.0578H15.112V16.1318C15.112 15.4098 15.368 15.1138 15.896 15.1138C16.352 15.1138 16.556 15.4038 16.556 15.9878V18.0578H17.476V15.8578C17.476 14.9778 17.214 14.3917 16.1701 14.3917C15.9528 14.3907 15.739 14.4454 15.5489 14.5504C15.3588 14.6554 15.1988 14.8073 15.084 14.9917H15.062V14.4978H14.1861L14.19 18.0578ZM18.26 18.0578H19.1781V16.1298L20.536 18.0578H21.678L20.184 16.0578L21.508 14.4957H20.4L19.166 16.0317V13.1318H18.256L18.26 18.0578ZM25.596 18.0578H26.5141V13.1318H25.6V18.0578" fill="white"/>
</svg>
