<svg width="32" height="32" viewBox="0 0 32 32" fill="none" xmlns="http://www.w3.org/2000/svg">
<g clip-path="url(#clip0)">
<path fill-rule="evenodd" clip-rule="evenodd" d="M16 32C19.1645 32 22.2579 31.0616 24.8891 29.3035C27.5203 27.5454 29.5711 25.0466 30.7821 22.1229C31.9931 19.1993 32.3099 15.9823 31.6926 12.8786C31.0752 9.77486 29.5513 6.92394 27.3137 4.6863C25.0761 2.44866 22.2251 0.924806 19.1214 0.307442C16.0177 -0.309921 12.8007 0.00693303 9.87706 1.21793C6.95345 2.42894 4.45459 4.4797 2.69648 7.11088C0.938383 9.74207 0 12.8355 0 16C0.0146467 20.239 1.70506 24.3001 4.70247 27.2975C7.69988 30.2949 11.761 31.9854 16 32Z" fill="#EE3224"/>
<path d="M14.4553 26.3555H7.86563L7.25289 21.4636L3.25965 18.5576C2.87679 16.6701 2.91778 14.721 3.37967 12.8512C3.84157 10.9815 4.71283 9.23787 5.93039 7.74656C7.14795 6.25526 8.68139 5.05353 10.4198 4.22829C12.1582 3.40306 14.058 2.97498 15.9819 2.97498C17.9059 2.97498 19.8057 3.40306 21.5441 4.22829C23.2825 5.05353 24.8159 6.25526 26.0335 7.74656C27.2511 9.23787 28.1223 10.9815 28.5842 12.8512C29.0461 14.721 29.0871 16.6701 28.7042 18.5576L24.711 21.4636L24.0983 26.3555H17.5034L17.1244 26.631C16.7907 26.8709 16.3902 27 15.9793 27C15.5685 27 15.168 26.8709 14.8343 26.631L14.4553 26.3555Z" stroke="white" stroke-width="1.67954" stroke-miterlimit="40"/>
<path d="M14.4553 26.3555H7.86563L7.25289 21.4636L3.25965 18.5576C2.87679 16.6701 2.91778 14.721 3.37967 12.8512C3.84157 10.9815 4.71283 9.23787 5.93039 7.74656C7.14795 6.25526 8.68139 5.05353 10.4198 4.22829C12.1582 3.40306 14.058 2.97498 15.9819 2.97498C17.9059 2.97498 19.8057 3.40306 21.5441 4.22829C23.2825 5.05353 24.8159 6.25526 26.0335 7.74656C27.2511 9.23787 28.1223 10.9815 28.5842 12.8512C29.0461 14.721 29.0871 16.6701 28.7042 18.5576L24.711 21.4636L24.0983 26.3555H17.5034L17.1244 26.631C16.7907 26.8709 16.3902 27 15.9793 27C15.5685 27 15.168 26.8709 14.8343 26.631L14.4553 26.3555Z" fill="#EE3224"/>
<path d="M14.6581 24.0791H9.87034L9.38741 20.2062L5.44611 17.3314C5.32781 16.8836 5.26844 16.4222 5.26955 15.959C5.26867 15.1817 5.43144 14.4129 5.74727 13.7028L12.7316 20.7728L5.9446 12.3823C6.2106 11.2946 6.80105 10.3136 7.63745 9.56993L13.7234 20.0866L8.3333 8.57178C9.02918 7.64211 10.002 6.95766 11.1114 6.61712L14.8346 19.6656L12.1136 6.07648C12.9407 5.60893 13.8745 5.36358 14.8243 5.36427C15.0255 5.3643 15.2265 5.37471 15.4266 5.39546L15.977 19.5304L16.5327 5.39546C16.7328 5.37471 16.9338 5.3643 17.135 5.36427C18.0848 5.36358 19.0186 5.60893 19.8457 6.07648L17.1247 19.6603L20.8479 6.61194C21.9573 6.95249 22.9301 7.63691 23.626 8.56658L18.2359 20.0814L24.3218 9.56473C25.1591 10.3098 25.7497 11.2927 26.0147 12.3823L19.2277 20.7728L26.212 13.7028C26.5278 14.4129 26.6906 15.1817 26.6897 15.959C26.6908 16.4222 26.6315 16.8836 26.5132 17.3314L22.5719 20.2062L22.089 24.0791H17.3012L16.5898 24.599C16.4124 24.7279 16.1988 24.7973 15.9796 24.7973C15.7604 24.7973 15.5469 24.7279 15.3695 24.599L14.6581 24.0791Z" fill="#FFD200"/>
</g>
<defs>
<clipPath id="clip0">
<rect width="32" height="32" fill="white"/>
</clipPath>
</defs>
</svg>
