<svg width="32" height="32" viewBox="0 0 32 32" fill="none" xmlns="http://www.w3.org/2000/svg">
<path d="M0 16C0 24.8365 7.16344 32 16 32C24.8365 32 32 24.8365 32 16C32 7.16344 24.8365 0 16 0C7.16344 0 0 7.16344 0 16Z" fill="#1A3576"/>
<path d="M6.57287 14.0315H6.78935C6.85037 14.0315 6.8775 14.0515 6.8775 14.0925V15.2909C6.8775 15.453 6.3763 15.6023 5.82793 15.6023C4.73819 15.6023 4 14.9184 4 13.8956C4 12.7921 4.77207 12.0338 5.8957 12.0338C6.38305 12.0338 6.85748 12.1831 6.85748 12.3319V12.5078C6.85748 12.5555 6.85037 12.5689 6.82312 12.5689C6.80671 12.5673 6.79072 12.5628 6.77596 12.5555L6.7083 12.515C6.4917 12.3933 6.1937 12.3185 5.90281 12.3185C5.01581 12.3185 4.39291 12.9684 4.39291 13.8956C4.39291 14.7626 5.00194 15.3177 5.94334 15.3177C6.3225 15.3177 6.48507 15.2701 6.48507 15.155V14.0925C6.48507 14.0515 6.51848 14.0315 6.57275 14.0315H6.57287ZM8.04 13.5846H8.5546C9.02855 13.5846 9.30617 13.3613 9.30617 12.9818C9.30617 12.5754 9.04194 12.3523 8.5546 12.3523H8.04V13.5846ZM8.60851 13.8759L9.91556 15.4396C9.95608 15.4799 9.96947 15.5074 9.96947 15.5211C9.96947 15.555 9.9357 15.5685 9.86793 15.5685H9.59706C9.55654 15.5685 9.54315 15.5614 9.52941 15.5408L8.21631 13.95C8.15481 13.876 8.12768 13.8622 8.05991 13.8622H8.03988V15.5074C8.03988 15.5479 8.00599 15.5684 7.95172 15.5684H7.73525C7.68133 15.5684 7.64756 15.5408 7.64756 15.5074V12.1224C7.64756 12.0814 7.67422 12.068 7.73525 12.068H8.5546C8.99478 12.068 9.19088 12.1224 9.40061 12.305C9.59706 12.4673 9.69861 12.6975 9.69861 12.9545C9.69861 13.2325 9.58367 13.4763 9.38058 13.6451C9.18413 13.801 9.01481 13.8554 8.60851 13.8759ZM10.985 12.3523V13.5507H12.1563C12.2173 13.5507 12.2511 13.5712 12.2511 13.6117V13.7744C12.2511 13.8149 12.2173 13.8348 12.1563 13.8348H10.985V15.2837H12.5558C12.6165 15.2837 12.6441 15.3042 12.6441 15.3452V15.5074C12.6441 15.5479 12.6098 15.5684 12.5558 15.5684H10.6803C10.626 15.5684 10.5921 15.5479 10.5921 15.5074V12.1224C10.5921 12.0814 10.6194 12.0679 10.6803 12.0679H12.441C12.5082 12.0679 12.5355 12.0814 12.5355 12.1224V12.2912C12.5355 12.3322 12.5016 12.3523 12.4409 12.3523H10.985ZM14.9389 13.9094L14.3704 12.3319L13.8354 13.9094H14.9389ZM15.0337 14.1942H13.7339L13.253 15.5343C13.2459 15.5614 13.2264 15.5685 13.172 15.5685H13.0433C12.9555 15.5685 12.9216 15.5548 12.9216 15.5075C12.9216 15.4938 12.9279 15.4799 12.9418 15.4465L14.0992 12.2098L14.1268 12.1154C14.1605 12.0277 14.2078 12 14.3365 12H14.533C14.5665 12 14.5936 12.0071 14.6074 12.0205C14.648 12.0478 14.6684 12.0815 14.7157 12.2098L15.8869 15.4465C15.9003 15.4799 15.9071 15.5004 15.9071 15.5075C15.9071 15.5548 15.8735 15.5685 15.785 15.5685H15.609C15.5554 15.5685 15.535 15.5614 15.5279 15.5342L15.0337 14.1942ZM16.8451 12.3523H15.8498C15.7889 12.3523 15.7551 12.3322 15.7551 12.2912V12.1224C15.7551 12.088 15.7818 12.0679 15.8498 12.0679H18.2334C18.3011 12.0679 18.3278 12.0814 18.3278 12.1224V12.2912C18.3278 12.3322 18.2944 12.3523 18.2334 12.3523H17.2381V15.5074C17.2381 15.5479 17.2038 15.5684 17.1433 15.5684H16.9468C16.8858 15.5684 16.8451 15.5479 16.8451 15.5074V12.3523ZM4.60263 18.3485H5.00218C5.60458 18.3485 5.9027 18.1049 5.9027 17.6103C5.9027 17.1167 5.60458 16.8659 5.00218 16.8659H4.60263V18.3485ZM4.60263 18.6332V20.021C4.60263 20.0615 4.56875 20.0817 4.51483 20.0817H4.29788C4.24397 20.0817 4.2102 20.0549 4.2102 20.021V16.636C4.2102 16.595 4.23733 16.5816 4.29788 16.5816H4.99507C5.48964 16.5816 5.67934 16.629 5.91597 16.8115C6.17344 17.0084 6.29513 17.2722 6.29513 17.6379C6.29513 18.2809 5.83492 18.6332 4.98843 18.6332H4.60263ZM7.10097 18.3284C7.10097 19.3032 7.56154 19.8654 8.35364 19.8654C9.12536 19.8654 9.56543 19.3032 9.56543 18.3284C9.56543 17.3603 9.12536 16.7986 8.36039 16.7986C7.56154 16.7986 7.10086 17.3603 7.10086 18.3284H7.10097ZM6.71506 18.3552C6.71506 17.1774 7.30406 16.5138 8.347 16.5138C9.37572 16.5138 9.95798 17.1706 9.95798 18.3419C9.95798 19.513 9.38911 20.1564 8.33989 20.1564C7.29743 20.1564 6.70842 19.5064 6.71506 18.3552ZM10.9853 18.0983H11.4999C11.9738 18.0983 12.2513 17.8747 12.2513 17.4956C12.2513 17.0892 11.9871 16.8656 11.4999 16.8656H10.9853V18.0983ZM11.5541 18.3889L12.8608 19.9535C12.901 19.994 12.9148 20.0212 12.9148 20.0345C12.9148 20.0684 12.8809 20.0813 12.8132 20.0813H12.5423C12.5018 20.0813 12.4884 20.0754 12.4746 20.0545L11.1612 18.4636C11.1002 18.3887 11.0736 18.3759 11.0053 18.3759H10.9852V20.0211C10.9852 20.0616 10.9514 20.0813 10.897 20.0813H10.6805C10.6261 20.0813 10.5928 20.0545 10.5928 20.0211V16.6361C10.5928 16.5951 10.6195 16.5816 10.6805 16.5816H11.4999C11.9395 16.5816 12.136 16.6361 12.3462 16.8182C12.5423 16.9809 12.6439 17.2113 12.6439 17.4683C12.6439 17.7462 12.529 17.9896 12.3257 18.1593C12.1293 18.3148 11.9601 18.369 11.5541 18.3887V18.3889ZM14.1781 16.8659H13.1828C13.1219 16.8659 13.0885 16.8457 13.0885 16.8048V16.636C13.0885 16.6016 13.1151 16.5815 13.1829 16.5815H15.5663C15.6341 16.5815 15.6607 16.595 15.6607 16.636V16.8048C15.6607 16.8458 15.6273 16.8659 15.5663 16.8659H14.571V20.0212C14.571 20.0615 14.5372 20.0815 14.4762 20.0815H14.2797C14.2187 20.0815 14.1781 20.0614 14.1781 20.0213V16.8659ZM16.6699 19.7978H17.9495C18.0105 19.7978 18.0443 19.8174 18.0443 19.8588V20.0213C18.0443 20.0616 18.0105 20.0815 17.9495 20.0815H16.3653C16.3108 20.0815 16.277 20.0548 16.277 20.0213V16.6361C16.277 16.5951 16.3042 16.5816 16.3652 16.5816H16.5817C16.6428 16.5816 16.6699 16.5951 16.6699 16.6361V19.7978ZM20.4589 18.4232L19.8904 16.8456L19.3553 18.4232H20.4589ZM20.5537 18.7071H19.2539L18.7731 20.048C18.7664 20.0751 18.7458 20.0814 18.6916 20.0814H18.5632C18.4751 20.0814 18.4412 20.0684 18.4412 20.0212C18.4412 20.0075 18.4479 19.994 18.4617 19.9602L19.6196 16.724L19.6463 16.6291C19.6806 16.5405 19.7279 16.5137 19.8561 16.5137H20.0531C20.0865 16.5137 20.1133 16.5208 20.1272 16.5342C20.1677 16.5614 20.1882 16.5946 20.2354 16.7239L21.4066 19.9601C21.4205 19.994 21.4276 20.014 21.4276 20.0211C21.4276 20.0685 21.3932 20.0813 21.3055 20.0813H21.129C21.0752 20.0813 21.0551 20.0754 21.048 20.0479L20.5537 18.7071ZM22.3614 17.0688V20.0212C22.3614 20.0618 22.3275 20.0819 22.2736 20.0819H22.1377C22.0767 20.0819 22.0433 20.0618 22.0433 20.0212V16.6361C22.0433 16.6018 22.07 16.5816 22.1377 16.5816H22.3614C22.4767 16.5816 22.4906 16.5875 22.524 16.6424L24.3653 19.5947V16.636C24.3653 16.5951 24.3929 16.5817 24.4601 16.5817H24.5889C24.6567 16.5817 24.6838 16.6018 24.6838 16.6361V20.0211C24.6838 20.0616 24.6499 20.0818 24.589 20.0818H24.3724C24.3046 20.0818 24.2637 20.0616 24.2236 20.0007L22.3614 17.0688ZM25.9073 19.7978H26.605C27.0923 19.7978 27.4243 19.6556 27.7152 19.3304C27.9723 19.0324 28.1015 18.6738 28.1015 18.247C28.1015 17.401 27.5526 16.8659 26.6727 16.8659H25.9073V19.7978ZM25.5149 20.0213V16.6361C25.5149 16.5951 25.542 16.5816 25.603 16.5816H26.6928C27.3362 16.5816 27.6813 16.7101 28.0266 17.0628C28.338 17.3738 28.4934 17.7801 28.4934 18.2675C28.4934 18.8026 28.3112 19.2561 27.9585 19.5947C27.6066 19.9395 27.2006 20.0817 26.5911 20.0817H25.603C25.5486 20.0817 25.5149 20.0549 25.5149 20.0215V20.0213ZM4.60263 21.3796V22.5776H5.7739C5.83492 22.5776 5.86869 22.5981 5.86869 22.6386V22.8012C5.86869 22.8417 5.83492 22.8622 5.7739 22.8622H4.60263V24.3115H6.17344C6.23446 24.3115 6.26172 24.3316 6.26172 24.3717V24.5342C6.26172 24.5752 6.22736 24.5953 6.17344 24.5953H4.29788C4.24397 24.5953 4.2102 24.5752 4.2102 24.5342V21.1489C4.2102 21.1087 4.23733 21.095 4.29788 21.095H6.05815C6.12628 21.095 6.15294 21.1087 6.15294 21.1489V21.3186C6.15294 21.3591 6.11917 21.3796 6.05815 21.3796H4.60263ZM6.74871 24.3719V24.1758C6.74871 24.1219 6.76257 24.0948 6.79646 24.0948C6.81648 24.0948 6.83023 24.1019 6.87087 24.1282C7.1351 24.2979 7.40549 24.379 7.68299 24.379C8.10979 24.379 8.38729 24.142 8.38729 23.77C8.38729 23.5057 8.28575 23.3498 7.95386 23.1266L7.29719 22.6731C6.97241 22.4495 6.81648 22.2058 6.81648 21.9011C6.81648 21.3459 7.20904 21.0278 7.87945 21.0278C8.31252 21.0278 8.67155 21.1491 8.67155 21.2988V21.4676C8.67155 21.5086 8.65816 21.522 8.63102 21.522C8.61052 21.522 8.60377 21.522 8.54287 21.4881C8.34013 21.3798 8.0554 21.3122 7.84556 21.3122C7.4799 21.3122 7.20904 21.5353 7.20904 21.8334C7.20904 22.0022 7.33108 22.2121 7.50704 22.3341L8.19794 22.8081C8.66479 23.1333 8.77973 23.3156 8.77973 23.6951C8.77973 24.2775 8.32627 24.6703 7.64247 24.6703C7.38535 24.6703 7.07396 24.5956 6.85701 24.4939C6.76932 24.4467 6.74871 24.4262 6.74871 24.3719ZM10.3076 21.3796H9.31233C9.25131 21.3796 9.21754 21.3591 9.21754 21.3186V21.1489C9.21754 21.1155 9.24456 21.095 9.31233 21.095H11.6954C11.763 21.095 11.7902 21.1087 11.7902 21.1489V21.3186C11.7902 21.3591 11.7564 21.3796 11.6954 21.3796H10.7001V24.5344C10.7001 24.5754 10.6662 24.5954 10.6053 24.5954H10.4092C10.3482 24.5954 10.3076 24.5752 10.3076 24.5344V21.3796ZM13.6555 22.937L13.087 21.359L12.5521 22.937H13.6555ZM13.75 23.2211H12.4504L11.9697 24.5617C11.9626 24.5885 11.9422 24.5956 11.8883 24.5956H11.76C11.6717 24.5956 11.6379 24.5819 11.6379 24.5346C11.6379 24.5212 11.6446 24.5075 11.6583 24.4739L12.8162 21.2374L12.8429 21.1425C12.8768 21.0547 12.9245 21.0276 13.0527 21.0276H13.2492C13.2831 21.0276 13.3103 21.0347 13.3237 21.0481C13.3647 21.0752 13.3847 21.1087 13.432 21.2374L14.6031 24.4739C14.617 24.5073 14.6241 24.5275 14.6241 24.5346C14.6241 24.582 14.5897 24.5956 14.5016 24.5956H14.3256C14.2717 24.5956 14.2517 24.5885 14.2446 24.5617L13.75 23.2211ZM15.5614 21.3796H14.5661C14.5051 21.3796 14.4713 21.3591 14.4713 21.3186V21.1489C14.4713 21.1155 14.4985 21.095 14.5661 21.095H16.9497C17.0173 21.095 17.0441 21.1087 17.0441 21.1489V21.3186C17.0441 21.3591 17.0102 21.3796 16.9497 21.3796H15.9539V24.5344C15.9539 24.5754 15.9205 24.5954 15.8594 24.5954H15.663C15.602 24.5954 15.5614 24.5752 15.5614 24.5344V21.3796ZM18.0529 21.3796V22.5776H19.2242C19.2852 22.5776 19.319 22.5981 19.319 22.6386V22.8012C19.319 22.8417 19.2852 22.8622 19.2242 22.8622H18.0529V24.3115H19.6234C19.6844 24.3115 19.712 24.3316 19.712 24.3717V24.5342C19.712 24.5752 19.6776 24.5953 19.6234 24.5953H17.7482C17.6942 24.5953 17.66 24.5752 17.66 24.5342V21.1489C17.66 21.1087 17.6876 21.095 17.7482 21.095H19.5084C19.5761 21.095 19.6037 21.1087 19.6037 21.1489V21.3186C19.6037 21.3591 19.5694 21.3796 19.5084 21.3796H18.0529ZM20.1991 24.3719V24.1758C20.1991 24.1219 20.2128 24.0948 20.2463 24.0948C20.2668 24.0948 20.2806 24.1019 20.3211 24.1282C20.5854 24.2979 20.8558 24.379 21.1337 24.379C21.5601 24.379 21.8372 24.142 21.8372 23.77C21.8372 23.5057 21.736 23.3498 21.4041 23.1266L20.7475 22.6731C20.4227 22.4494 20.2668 22.2058 20.2668 21.9011C20.2668 21.3459 20.6597 21.0278 21.3297 21.0278C21.7632 21.0278 22.1218 21.149 22.1218 21.2987V21.4676C22.1218 21.5086 22.1081 21.522 22.0813 21.522C22.0608 21.522 22.054 21.522 21.9931 21.4881C21.7899 21.3798 21.5061 21.312 21.2958 21.312C20.9302 21.312 20.6597 21.5353 20.6597 21.8334C20.6597 22.0022 20.7814 22.2121 20.9573 22.3341L21.6482 22.8081C22.1151 23.1333 22.2301 23.3156 22.2301 23.6951C22.2301 24.2774 21.7765 24.6703 21.0926 24.6703C20.8353 24.6703 20.5239 24.5956 20.3073 24.4939C20.2196 24.4466 20.1991 24.4262 20.1991 24.3719Z" fill="white"/>
</svg>
