<svg width="32" height="32" viewBox="0 0 32 32" fill="none" xmlns="http://www.w3.org/2000/svg">
<g clip-path="url(#clip0)">
<path fill-rule="evenodd" clip-rule="evenodd" d="M16 32C19.1645 32 22.2579 31.0616 24.8891 29.3035C27.5203 27.5454 29.5711 25.0466 30.7821 22.1229C31.9931 19.1993 32.3099 15.9823 31.6926 12.8786C31.0752 9.77486 29.5513 6.92394 27.3137 4.6863C25.0761 2.44866 22.2251 0.924806 19.1214 0.307442C16.0177 -0.309921 12.8007 0.00693303 9.87706 1.21793C6.95345 2.42894 4.45459 4.4797 2.69648 7.11088C0.938383 9.74207 0 12.8355 0 16C0.0146467 20.239 1.70506 24.3001 4.70247 27.2975C7.69988 30.2949 11.761 31.9854 16 32Z" fill="#EACE25"/>
<path d="M4 8.96407H7.57571C8.10669 8.94905 8.63773 8.9914 9.15962 9.09037C9.51295 9.17854 9.8357 9.36103 10.0934 9.61834C10.3922 9.9245 10.626 10.2879 10.7808 10.6867C11.1669 11.7041 11.1431 12.8315 10.7145 13.8317C10.524 14.2891 10.2037 14.6807 9.79318 14.9581C10.3329 15.1805 10.7772 15.5858 11.0479 16.1031C11.3507 16.6914 11.501 17.3464 11.4848 18.0079C11.486 18.5783 11.3901 19.1447 11.2011 19.6829C11.0462 20.1706 10.7812 20.6162 10.4267 20.9852C10.0992 21.3105 9.67486 21.5205 9.21759 21.5836C8.49416 21.6491 7.76788 21.6782 7.04152 21.6706H4V8.96407ZM5.80545 11.1153V14.0409H6.99391C7.43263 14.052 7.87162 14.0375 8.30865 13.9974C8.45499 13.9757 8.59534 13.9243 8.72104 13.8463C8.84674 13.7684 8.95513 13.6654 9.03953 13.544C9.22982 13.2509 9.32258 12.9053 9.30455 12.5563C9.31853 12.2232 9.23969 11.8928 9.0768 11.6018C9.00221 11.4826 8.90237 11.3811 8.78433 11.3045C8.66628 11.228 8.53289 11.1782 8.39354 11.1588C7.87909 11.1176 7.36285 11.1031 6.8469 11.1153H5.80545ZM5.80545 16.1921V19.5193H7.47632C7.89197 19.5384 8.30846 19.5128 8.71861 19.4427C8.99397 19.3693 9.22961 19.1909 9.37495 18.9458C9.55772 18.625 9.64533 18.2587 9.62755 17.8899C9.63684 17.5623 9.57023 17.2371 9.43292 16.9395C9.31494 16.6908 9.1155 16.4899 8.86768 16.3701C8.62337 16.2521 8.08918 16.1921 7.26928 16.1921H5.80545Z" fill="black"/>
<path d="M20.5205 8.96407H24.0962C24.6272 8.94905 25.1582 8.9914 25.6801 9.09037C26.0335 9.17854 26.3562 9.36103 26.6139 9.61834C26.912 9.92503 27.1457 10.2883 27.3013 10.6867C27.6874 11.7041 27.6636 12.8315 27.235 13.8317C27.0438 14.2893 26.7228 14.6808 26.3116 14.9581C26.8493 15.1791 27.2916 15.5832 27.5601 16.0989C27.8644 16.6868 28.0153 17.342 27.999 18.0038C27.9993 18.5741 27.9034 19.1403 27.7154 19.6788C27.5604 20.1681 27.2947 20.6152 26.939 20.9852C26.6112 21.3102 26.187 21.5201 25.7298 21.5836C25.0064 21.6491 24.2801 21.6781 23.5537 21.6706H20.5205V8.96407ZM22.326 11.1153V14.0409H23.5144C23.9531 14.052 24.3921 14.0375 24.8292 13.9974C24.9755 13.9757 25.1158 13.9243 25.2415 13.8463C25.3672 13.7684 25.4756 13.6654 25.56 13.544C25.7489 13.2503 25.8415 12.9051 25.8251 12.5563C25.8394 12.2229 25.7598 11.8922 25.5952 11.6018C25.5211 11.4826 25.4216 11.3811 25.3039 11.3046C25.1862 11.228 25.0531 11.1782 24.914 11.1588C24.3996 11.1176 23.8834 11.1031 23.3674 11.1153H22.326ZM22.326 16.1921V19.5193H23.9968C24.4125 19.5384 24.829 19.5128 25.2391 19.4427C25.5142 19.3699 25.7494 19.1913 25.8934 18.9458C26.0778 18.6256 26.1663 18.259 26.148 17.8899C26.1573 17.5623 26.0907 17.2371 25.9534 16.9395C25.8354 16.6908 25.636 16.4899 25.3882 16.3701C25.1425 16.2528 24.6097 16.1935 23.7898 16.1921H22.326Z" fill="black"/>
<path d="M14.8013 19.8095L11.0537 4.00562H13.3644L16.0311 15.7079L18.6358 4.00562H20.8926L17.1098 19.8095H14.8013Z" fill="black"/>
<path d="M12.7332 23.9046C13.1929 23.8772 13.6465 24.0211 14.0065 24.3084C14.3709 24.6272 14.5531 25.1531 14.5531 25.8923C14.5531 26.6314 14.3709 27.1573 14.0023 27.4783C13.6426 27.7624 13.1907 27.9039 12.7332 27.8758C12.2543 27.8985 11.7839 27.7437 11.4122 27.441C11.0788 27.1491 10.9111 26.6314 10.9111 25.884C10.9111 25.1366 11.0954 24.6252 11.4619 24.3022C11.8222 24.0176 12.2749 23.876 12.7332 23.9046ZM12.7332 24.5258C12.6132 24.5239 12.4947 24.5531 12.3895 24.6107C12.2765 24.683 12.1929 24.7931 12.1534 24.9212C12.0646 25.2383 12.0275 25.5676 12.0437 25.8964C12.0265 26.2137 12.0601 26.5317 12.1431 26.8385C12.1841 26.977 12.271 27.0974 12.3895 27.1801C12.4947 27.2377 12.6132 27.2669 12.7332 27.265C12.8534 27.267 12.972 27.237 13.0768 27.178C13.1891 27.1054 13.272 26.9954 13.3108 26.8675C13.4009 26.5521 13.438 26.224 13.4205 25.8964C13.4372 25.5793 13.4043 25.2614 13.3232 24.9544C13.2813 24.8152 13.1938 24.6941 13.0748 24.6107C12.9706 24.5517 12.8528 24.521 12.7332 24.5216V24.5258Z" fill="black"/>
<path d="M17.4687 26.9092L18.504 26.8305C18.5139 26.8961 18.5375 26.9589 18.5731 27.0149C18.6088 27.0709 18.6557 27.1188 18.711 27.1556C18.8391 27.2315 18.9867 27.2682 19.1354 27.2612C19.3435 27.2678 19.5461 27.1936 19.7007 27.0541C19.856 26.9113 19.9554 26.6172 19.9988 26.168C19.7101 26.3923 19.3518 26.5081 18.9864 26.4951C18.5775 26.5055 18.1767 26.381 17.8455 26.141C17.691 26.0404 17.5646 25.9021 17.4784 25.739C17.3922 25.576 17.349 25.3937 17.3528 25.2093C17.3501 25.0209 17.3952 24.835 17.4839 24.6688C17.5726 24.5025 17.702 24.3616 17.86 24.259C18.2414 24.0061 18.6928 23.8801 19.1499 23.8987C19.6563 23.8782 20.1531 24.0406 20.5496 24.3563C20.914 24.66 21.0962 25.1617 21.0962 25.8615C21.0962 26.5717 20.9057 27.0852 20.5268 27.3978C20.1055 27.7269 19.5804 27.8944 19.0464 27.8699C18.6777 27.8863 18.3114 27.8025 17.9863 27.6276C17.8553 27.5499 17.7417 27.446 17.6526 27.3224C17.5636 27.1988 17.5009 27.0581 17.4687 26.9092ZM19.8912 25.2756C19.8966 25.1705 19.8777 25.0657 19.836 24.9691C19.7944 24.8725 19.7311 24.7868 19.651 24.7186C19.4952 24.5893 19.2985 24.5196 19.0961 24.5219C18.9159 24.5152 18.7392 24.5724 18.5971 24.6834C18.5265 24.7517 18.4722 24.8349 18.4381 24.9271C18.4041 25.0192 18.3912 25.1178 18.4004 25.2155C18.391 25.317 18.4047 25.4193 18.4406 25.5147C18.4764 25.6101 18.5335 25.6962 18.6075 25.7663C18.7623 25.8774 18.948 25.9371 19.1386 25.9371C19.3291 25.9371 19.5148 25.8774 19.6696 25.7663C19.7442 25.7087 19.804 25.6341 19.844 25.5488C19.8839 25.4634 19.903 25.3698 19.8994 25.2756H19.8912Z" fill="black"/>
</g>
<defs>
<clipPath id="clip0">
<rect width="32" height="32" fill="white"/>
</clipPath>
</defs>
</svg>
