<svg width="32" height="32" viewBox="0 0 32 32" fill="none" xmlns="http://www.w3.org/2000/svg">
<path d="M0 16C0 24.8365 7.16344 32 16 32C24.8365 32 32 24.8365 32 16C32 7.16344 24.8365 0 16 0C7.16344 0 0 7.16344 0 16Z" fill="#EFEFEF"/>
<path d="M16 0.666666C24.4 0.666666 31.3334 7.6 31.3334 16C31.3334 24.4 24.4 31.3334 16 31.3334C7.6 31.3334 0.666666 24.4 0.666666 16C0.666666 7.6 7.6 0.666666 16 0.666666ZM16 0C7.2 0 0 7.2 0 16C0 24.8 7.2 32 16 32C24.8 32 32 24.8 32 16C32 7.2 24.8 0 16 0Z" fill="#999999"/>
<path d="M8.50796 18.6003H7.27596V13.2003H9.13996C9.67002 13.1738 10.1908 13.3464 10.6 13.6842C10.7784 13.8385 10.9201 14.0305 11.0149 14.2464C11.1096 14.4623 11.1551 14.6966 11.148 14.9322C11.148 15.7002 10.82 16.2336 10.164 16.5322L11.524 18.6003H10.052L8.88396 16.7283H8.50796V18.6003ZM9.10796 14.2003H8.50796V15.7203H9.09196C9.624 15.7203 9.89195 15.4602 9.89195 14.9363C9.89807 14.8373 9.88339 14.7382 9.84903 14.6452C9.81459 14.5522 9.76103 14.4674 9.69195 14.3962C9.53327 14.2576 9.32629 14.1872 9.11596 14.2003H9.10796Z" fill="#01478C"/>
<path d="M16.532 16.508C16.532 17.212 16.332 17.7493 15.932 18.1199C15.492 18.5075 14.9176 18.7071 14.332 18.6759C13.7473 18.7064 13.1736 18.5085 12.732 18.124C12.332 17.756 12.132 17.236 12.132 16.564V13.2H13.38V16.556C13.38 17.2239 13.7 17.556 14.34 17.556C14.98 17.556 15.3 17.2099 15.3 16.516V13.2H16.532V16.508Z" fill="#01478C"/>
<path d="M20.884 17.0279C20.8906 17.2524 20.8458 17.4755 20.7529 17.68C20.66 17.8845 20.5215 18.0651 20.348 18.2078C19.9433 18.5252 19.4376 18.6857 18.924 18.6599C18.3865 18.6821 17.8522 18.5664 17.372 18.3239V17.0839C17.8189 17.4226 18.3633 17.6078 18.924 17.6119C19.0913 17.6185 19.2555 17.566 19.388 17.4638C19.4471 17.4183 19.4945 17.3593 19.5265 17.2919C19.5585 17.2245 19.5741 17.1504 19.572 17.0759C19.5722 17.0242 19.5641 16.9729 19.548 16.9239C19.5292 16.8726 19.4991 16.8261 19.46 16.7879C19.4209 16.7495 19.3795 16.7134 19.3361 16.6798C19.2795 16.6417 19.2207 16.607 19.1601 16.5758L18.9601 16.4759L18.724 16.3639L18.4721 16.2519C18.1546 16.1123 17.8698 15.908 17.636 15.6519C17.4153 15.3915 17.3023 15.0568 17.3201 14.7159C17.3155 14.5029 17.3595 14.2916 17.4489 14.0982C17.5384 13.9048 17.6708 13.7343 17.836 13.5998C18.2424 13.2938 18.7443 13.1422 19.252 13.1719C19.733 13.1593 20.2108 13.2521 20.652 13.4439V14.5998C20.2438 14.3539 19.7767 14.2226 19.3 14.2199C19.1317 14.209 18.9643 14.254 18.8241 14.3479C18.7725 14.3855 18.7308 14.4349 18.7022 14.492C18.6737 14.549 18.6593 14.6121 18.66 14.6759C18.6627 14.7468 18.6822 14.8162 18.7169 14.8781C18.7517 14.9401 18.8008 14.9928 18.86 15.0318C19.0457 15.1667 19.2472 15.2782 19.46 15.3639C19.6241 15.4398 19.7621 15.5038 19.8721 15.5639C20.0021 15.6347 20.1277 15.7136 20.2481 15.7998C20.3745 15.8872 20.4876 15.9923 20.5841 16.1118C20.673 16.2346 20.7444 16.3693 20.796 16.5118C20.8551 16.6775 20.8848 16.8521 20.884 17.0279Z" fill="#01478C"/>
<path d="M24.9999 17.0279C25.0049 17.2514 24.9588 17.4731 24.8652 17.6761C24.7717 17.8793 24.633 18.0584 24.46 18.1998C24.0552 18.5172 23.5496 18.6777 23.036 18.6519C22.4984 18.6741 21.9641 18.5584 21.484 18.3159V17.0759C21.9308 17.4146 22.4752 17.5998 23.036 17.6039C23.2032 17.6105 23.3674 17.558 23.5 17.4558C23.559 17.4103 23.6064 17.3513 23.6384 17.2839C23.6704 17.2165 23.686 17.1424 23.684 17.0679C23.6841 17.0162 23.676 16.9649 23.66 16.9159C23.6411 16.8646 23.611 16.8181 23.572 16.7799C23.5328 16.7415 23.4914 16.7054 23.4479 16.6718C23.3914 16.6337 23.3326 16.599 23.272 16.5678L23.072 16.4679L22.836 16.3559L22.584 16.2439C22.2665 16.1043 21.9817 15.9 21.748 15.6439C21.5272 15.3835 21.4142 15.0488 21.432 14.7079C21.4286 14.4962 21.4733 14.2865 21.5626 14.0946C21.652 13.9027 21.7838 13.7335 21.948 13.5998C22.3544 13.2938 22.8562 13.1422 23.364 13.1719C23.8449 13.1593 24.3227 13.2521 24.764 13.4439V14.5998C24.3576 14.3567 23.8935 14.2268 23.42 14.2238C23.2516 14.2131 23.0842 14.2581 22.944 14.3518C22.8924 14.3895 22.8506 14.4389 22.8221 14.4959C22.7936 14.553 22.7792 14.6161 22.7799 14.6798C22.7825 14.7509 22.8021 14.8201 22.8368 14.8821C22.8716 14.944 22.9207 14.9967 22.98 15.0359C23.1656 15.1707 23.3672 15.2822 23.58 15.3678C23.7439 15.4439 23.882 15.5079 23.9919 15.5678C24.1192 15.6377 24.2421 15.7152 24.3599 15.7998C24.4863 15.8872 24.5995 15.9923 24.6959 16.1118C24.7849 16.2346 24.8563 16.3693 24.908 16.5118C24.9683 16.6772 24.9994 16.8519 24.9999 17.0279Z" fill="#01478C"/>
</svg>
