<svg width="32" height="32" viewBox="0 0 32 32" fill="none" xmlns="http://www.w3.org/2000/svg">
<path d="M0 16C0 24.8365 7.16344 32 16 32C24.8365 32 32 24.8365 32 16C32 7.16344 24.8365 0 16 0C7.16344 0 0 7.16344 0 16Z" fill="#E11F26"/>
<path d="M24.344 13.8817C24.056 13.5921 23.7129 13.3629 23.3352 13.2077C22.9574 13.0524 22.5524 12.9742 22.144 12.9777C21.3056 12.9771 20.5013 13.3087 19.9067 13.8998C19.3123 14.4909 18.9762 15.2934 18.972 16.1317C18.972 16.4437 19.108 17.0397 19.108 17.2917C19.1082 17.6128 19.0452 17.9308 18.9225 18.2276C18.7998 18.5243 18.6198 18.794 18.3928 19.0212C18.1658 19.2483 17.8964 19.4285 17.5997 19.5514C17.3031 19.6745 16.985 19.7377 16.6639 19.7377H14.0459C13.805 19.7377 13.5737 19.8333 13.4032 20.0035C13.2326 20.1738 13.1365 20.4047 13.1359 20.6458V24.1777C13.1359 24.419 13.2318 24.6506 13.4024 24.8212C13.5732 24.9918 13.8046 25.0877 14.0459 25.0877H17.5759C17.8169 25.0877 18.0481 24.9921 18.2187 24.8218C18.3893 24.6517 18.4855 24.4207 18.4859 24.1797V21.5617C18.4856 21.2404 18.5488 20.9223 18.6716 20.6253C18.7944 20.3285 18.9746 20.0587 19.2018 19.8315C19.429 19.6043 19.6987 19.4242 19.9956 19.3014C20.2925 19.1786 20.6106 19.1155 20.932 19.1157C21.1839 19.1157 21.778 19.2517 22.09 19.2517C22.9285 19.247 23.7309 18.9104 24.322 18.3156C24.913 17.7209 25.2445 16.9163 25.244 16.0778C25.245 15.2541 24.9208 14.4634 24.3419 13.8778L24.344 13.8817ZM17.578 12.2037C17.8187 12.2037 18.0497 12.1081 18.22 11.9378C18.3903 11.7674 18.4859 11.5365 18.4859 11.2957V7.76572C18.4859 7.52471 18.3904 7.29355 18.2201 7.12295C18.0499 6.95235 17.8189 6.85624 17.578 6.85571H14.0459C13.8046 6.85571 13.5732 6.95159 13.4024 7.12224C13.2318 7.2929 13.1359 7.52436 13.1359 7.76572V10.4757C13.1359 11.3157 12.496 12.0378 12.218 12.3258C11.929 12.6136 11.5857 12.841 11.208 12.9948C10.8303 13.1486 10.4258 13.2258 10.018 13.2218H6.76195V18.5898H12.132V15.3297C12.1266 14.9202 12.203 14.5138 12.3569 14.1343C12.5108 13.7547 12.7389 13.4098 13.028 13.1197C13.316 12.8437 14.028 12.2037 14.8799 12.2037H17.578Z" fill="white"/>
</svg>
