<svg width="32" height="32" viewBox="0 0 32 32" fill="none" xmlns="http://www.w3.org/2000/svg">
<path d="M14 28C21.732 28 28 21.732 28 14C28 6.26801 21.732 0 14 0C6.26801 0 0 6.26801 0 14C0 21.732 6.26801 28 14 28Z" fill="white"/>
<path d="M14 0.58329C21.35 0.58329 27.4167 6.65 27.4167 14C27.4167 21.35 21.35 27.4167 14 27.4167C6.65 27.4167 0.58329 21.35 0.58329 14C0.58329 6.65 6.65 0.58329 14 0.58329ZM14 0C6.3 0 0 6.3 0 14C0 21.7 6.3 28 14 28C21.7 28 28 21.7 28 14C28 6.3 21.7 0 14 0Z" fill="#999999"/>
<path d="M10.32 14C9.35012 14 8.55431 13.7227 7.93259 13.1681C7.31086 12.6134 7 11.8697 7 10.937V5H8.70353V10.7983C8.70353 11.2689 8.83616 11.6387 9.10143 11.9076C9.37499 12.1681 9.78118 12.2983 10.32 12.2983C10.8588 12.2983 11.2609 12.1681 11.5262 11.9076C11.7997 11.6387 11.9365 11.2689 11.9365 10.7983V5H13.6525V10.937C13.6525 11.8697 13.3416 12.6134 12.7199 13.1681C12.0981 13.7227 11.2982 14 10.32 14Z" fill="#141528"/>
<path d="M18.6551 9.28571L22 13.8235H20.0229L16.9143 9.68908V13.8235H15.1983V5H16.9143V8.89496L19.8986 5H21.8757L18.6551 9.28571Z" fill="#141528"/>
<path d="M7 17.6511L8.60939 17.1154H9.659V22.8846H8.45195V18.3187L7.29739 18.6236L7 17.6511Z" fill="#141528"/>
<path d="M13.0415 23C12.2776 23 11.677 22.728 11.2397 22.1841C10.8082 21.6291 10.5924 20.9011 10.5924 20C10.5924 19.0989 10.8082 18.3736 11.2397 17.8242C11.677 17.2747 12.2776 17 13.0415 17C13.8171 17 14.4177 17.2747 14.8433 17.8242C15.2748 18.3736 15.4906 19.0989 15.4906 20C15.4906 20.9011 15.2748 21.6291 14.8433 22.1841C14.4177 22.728 13.8171 23 13.0415 23ZM14.2923 20C14.2923 19.3846 14.1844 18.9148 13.9687 18.5907C13.7587 18.2665 13.4497 18.1044 13.0415 18.1044C12.6333 18.1044 12.3243 18.2665 12.1144 18.5907C11.9044 18.9148 11.7995 19.3846 11.7995 20C11.7995 20.6154 11.9044 21.0852 12.1144 21.4093C12.3243 21.728 12.6333 21.8874 13.0415 21.8874C13.4497 21.8874 13.7587 21.7253 13.9687 21.4011C14.1844 21.0769 14.2923 20.6099 14.2923 20Z" fill="#141528"/>
<path d="M18.5509 23C17.787 23 17.1864 22.728 16.7491 22.1841C16.3176 21.6291 16.1018 20.9011 16.1018 20C16.1018 19.0989 16.3176 18.3736 16.7491 17.8242C17.1864 17.2747 17.787 17 18.5509 17C19.3265 17 19.9271 17.2747 20.3527 17.8242C20.7842 18.3736 21 19.0989 21 20C21 20.9011 20.7842 21.6291 20.3527 22.1841C19.9271 22.728 19.3265 23 18.5509 23ZM19.8017 20C19.8017 19.3846 19.6938 18.9148 19.4781 18.5907C19.2682 18.2665 18.9591 18.1044 18.5509 18.1044C18.1427 18.1044 17.8337 18.2665 17.6238 18.5907C17.4138 18.9148 17.3089 19.3846 17.3089 20C17.3089 20.6154 17.4138 21.0852 17.6238 21.4093C17.8337 21.728 18.1427 21.8874 18.5509 21.8874C18.9591 21.8874 19.2682 21.7253 19.4781 21.4011C19.6938 21.0769 19.8017 20.6099 19.8017 20Z" fill="#141528"/>
<mask id="mask0" mask-type="alpha" maskUnits="userSpaceOnUse" x="16" y="16" width="16" height="16">
<circle cx="24" cy="24" r="8" fill="#C4C4C4"/>
</mask>
<g mask="url(#mask0)">
<path d="M24 32C28.4183 32 32 28.4183 32 24C32 19.5817 28.4183 16 24 16C19.5817 16 16 19.5817 16 24C16 28.4183 19.5817 32 24 32Z" fill="#112999"/>
<path fill-rule="evenodd" clip-rule="evenodd" d="M31.2852 20.6899C30.953 19.9598 30.5141 19.2883 29.9886 18.6955L26.208 21.435V16.3086C25.5067 16.1076 24.7659 16 24 16C23.2552 16 22.5341 16.1018 21.85 16.2922V21.436L18.029 18.6757C17.5013 19.267 17.0602 19.9372 16.7255 20.6664L18.296 21.793H16.3083C16.1075 22.494 16 23.2345 16 24C16 24.7521 16.1038 25.4799 16.2978 26.17H18.342L16.7217 27.3254C17.0534 28.0501 17.4901 28.7167 18.0124 29.3057L21.85 26.538V31.7078C22.4949 31.8873 23.1726 31.988 23.8721 31.999H24.1279C24.8484 31.9877 25.5458 31.8812 26.208 31.6914V26.539L30.0047 29.2863C30.5251 28.6957 30.9596 28.0278 31.2889 27.3019L29.714 26.17H31.7022C31.8962 25.4799 32 24.7521 32 24C32 23.2345 31.8925 22.494 31.6917 21.793H29.76L31.2852 20.6899Z" fill="white"/>
<path fill-rule="evenodd" clip-rule="evenodd" d="M25.3309 31.8898C24.8981 31.9623 24.4534 32 24 32C23.5615 32 23.1312 31.9647 22.7119 31.8969V25.3H16.105C16.0474 24.9473 16.0128 24.5869 16.0029 24.2204V23.7796C16.013 23.4065 16.0487 23.0397 16.1082 22.681H22.7119V16.1031C23.1312 16.0353 23.5615 16 24 16C24.4534 16 24.8981 16.0377 25.3309 16.1102V22.681H31.8917C31.9629 23.1101 32 23.5507 32 24C32 24.4427 31.964 24.8769 31.8949 25.3H25.3309V31.8898ZM31.113 27.6649C30.9552 27.9705 30.7783 28.2646 30.5839 28.5457L27.2309 26.1658H29.0249L31.113 27.6649ZM30.2547 19.0118C30.4979 19.3163 30.7193 19.6389 30.9166 19.9774L28.425 21.8151H26.431L30.2547 19.0118ZM16.9071 20.2962C17.0806 19.9648 17.2765 19.647 17.493 19.3449L21.025 21.8149H19.032L16.9071 20.2962ZM17.7532 28.9983C17.5248 28.7133 17.3156 28.4122 17.1273 28.0971L19.732 26.1658H21.625L17.7532 28.9983Z" fill="#B22233"/>
</g>
<path d="M24 16.3333C28.2 16.3333 31.6667 19.8 31.6667 24C31.6667 28.2 28.2 31.6667 24 31.6667C19.8 31.6667 16.3333 28.2 16.3333 24C16.3333 19.8 19.8 16.3333 24 16.3333ZM24 16C19.6 16 16 19.6 16 24C16 28.4 19.6 32 24 32C28.4 32 32 28.4 32 24C32 19.6 28.4 16 24 16Z" fill="#999999"/>
</svg>
