<svg width="160" height="160" viewBox="0 0 160 160" fill="none" xmlns="http://www.w3.org/2000/svg">
<path d="M160 80C160 35.8172 124.183 0 80 0C35.8172 0 0 35.8172 0 80C0 124.183 35.8172 160 80 160C124.183 160 160 124.183 160 80Z" fill="#9AA4B0"/>
<path fill-rule="evenodd" clip-rule="evenodd" d="M120.256 107.447H86.9677C84.6711 107.447 80.2944 107.014 82.8077 102.39C85.3211 97.7667 89.3511 90.7207 91.1277 87.2237C92.9044 83.7267 93.4504 82.1667 95.2877 82.1667H111.932C113.769 82.1667 114.896 85.122 116.092 87.2237C117.288 89.3253 121.998 98.6117 124.009 102.442C126.332 107.057 122.553 107.478 120.256 107.447ZM95.3979 74.9473H62.1309C59.8343 74.9473 55.4576 74.514 57.9709 69.8903C60.4843 65.2667 64.5143 58.2207 66.2909 54.7237C68.0676 51.2267 68.6136 49.6667 70.4509 49.6667H87.0953C88.9326 49.6667 90.0593 52.622 91.2553 54.7237C92.4513 56.8253 97.1616 66.1117 99.1723 69.9423C101.473 74.5573 97.6989 74.9777 95.3979 74.9473ZM66.377 87.2149C67.5556 89.2819 72.2833 98.6029 74.294 102.434C76.6166 107.049 72.838 107.469 70.537 107.439H37.2483C34.9516 107.439 30.575 107.005 33.0883 102.382C35.6016 97.7579 39.6316 90.7119 41.4083 87.2149C43.185 83.7179 43.731 82.1579 45.5683 82.1579H62.217C64.0543 82.1666 65.1636 85.1219 66.377 87.2149Z" fill="#2C3339"/>
</svg>
