<svg width="38" height="38" viewBox="0 0 38 38" fill="none" xmlns="http://www.w3.org/2000/svg">
<path d="M10.7167 7.25L4.81675 13.15C-0.716585 18.6833 -0.716585 27.65 4.81675 33.1833C10.3501 38.7167 19.3167 38.7167 24.8501 33.1833L34.8667 23.1667C36.4834 21.55 36.4834 18.9 34.8667 17.2667C34.6667 17.0667 34.4501 16.8833 34.2167 16.7333L34.8667 16.0833C36.4834 14.4667 36.4834 11.8167 34.8667 10.1833C34.6001 9.91667 34.2834 9.68334 33.9667 9.5C34.6334 7.96667 34.3501 6.13334 33.1001 4.88334C31.6501 3.43334 29.4001 3.28334 27.7667 4.41667C27.6001 4.16667 27.4167 3.93334 27.2001 3.71667C25.5834 2.1 22.9334 2.1 21.3001 3.71667L17.1167 7.9C16.9667 7.66667 16.7834 7.45 16.5834 7.25C14.9667 5.63334 12.3334 5.63334 10.7167 7.25ZM13.0667 9.61667C13.4001 9.28334 13.9167 9.28334 14.2501 9.61667C14.5834 9.95 14.5834 10.4667 14.2501 10.8L8.95008 16.1C10.9001 18.05 10.9001 21.2167 8.95008 23.1667L11.3001 25.5167C13.7167 23.1 14.3334 19.5667 13.1667 16.5833L23.6667 6.08334C24.0001 5.75 24.5167 5.75 24.8501 6.08334C25.1834 6.41667 25.1834 6.93334 24.8501 7.26667L17.1834 14.9333L19.5334 17.2833L29.5501 7.26667C29.8834 6.93334 30.4001 6.93334 30.7334 7.26667C31.0667 7.6 31.0667 8.11667 30.7334 8.45L20.7167 18.4667L23.0667 20.8167L31.3167 12.5667C31.6501 12.2333 32.1667 12.2333 32.5001 12.5667C32.8334 12.9 32.8334 13.4167 32.5001 13.75L23.0667 23.1833L25.4167 25.5333L31.3167 19.6333C31.6501 19.3 32.1667 19.3 32.5001 19.6333C32.8334 19.9667 32.8334 20.4833 32.5001 20.8167L22.5001 30.8333C18.2667 35.0667 11.4167 35.0667 7.18341 30.8333C2.95008 26.6 2.95008 19.75 7.18341 15.5167L13.0667 9.61667ZM37.3334 27.3333C37.3334 32.85 32.8501 37.3333 27.3334 37.3333V34.8333C31.4667 34.8333 34.8334 31.4667 34.8334 27.3333H37.3334ZM0.666748 10.6667C0.666748 5.15 5.15008 0.666672 10.6667 0.666672V3.16667C6.53341 3.16667 3.16675 6.53334 3.16675 10.6667H0.666748Z" fill="#5E6A76"/>
</svg>
