<svg width="160" height="160" viewBox="0 0 160 160" fill="none" xmlns="http://www.w3.org/2000/svg">
<path d="M160 80C160 35.8172 124.183 0 80 0C35.8172 0 0 35.8172 0 80C0 124.183 35.8172 160 80 160C124.183 160 160 124.183 160 80Z" fill="#9AA4B0"/>
<path fill-rule="evenodd" clip-rule="evenodd" d="M114.667 124.781H36.6666V49.1423L58.3333 32.3333L80 49.1423V65.9513H123.333V124.781H114.667ZM54 57.5489H45.3333V65.9512H54V57.5489ZM54 74.3581H45.3333V82.7604H54V74.3537V74.3581ZM54 91.167H45.3333V99.5693H54V91.1626V91.167ZM54 107.976H45.3333V116.378H54V107.972V107.976ZM71.3333 57.5532H62.6666V65.9512H71.3333V57.5489V57.5532ZM71.3333 74.3624H62.6666V82.7604H71.3333V74.3537V74.3624ZM71.3333 91.1713H62.6666V99.5736H71.3333V91.1626V91.1713ZM71.3333 107.98H62.6666V116.383H71.3333V107.972V107.98ZM114.667 74.3623H80V82.7603H88.6666V91.1627H80V99.565H88.6666V107.967H80V116.37H114.667V74.3363V74.3623ZM106 91.1714H97.3333V82.7604H106V91.1628V91.1714ZM106 107.98H97.3333V99.5693H106V107.972V107.98Z" fill="#2C3339"/>
</svg>
